<svg width="512" height="220" viewBox="0 0 512 220" fill="none" xmlns="http://www.w3.org/2000/svg">
<g clip-path="url(#clip0_5_3)">
<path d="M12.2723 162.452V183.442H0V125.716H21.0715C28.66 125.716 34.4865 127.305 38.5511 130.481C42.6138 133.656 44.6458 138.205 44.647 144.126C44.8005 147.544 43.8782 150.925 42.01 153.792C40.1418 156.66 37.4217 158.869 34.2324 160.11C36.6538 163.931 39.0487 167.766 41.4171 171.615C43.7849 175.464 46.1533 179.406 48.5223 183.442H34.2324C30.3568 176.337 26.3471 169.34 22.2033 162.452H12.2723ZM12.2723 152.683H20.3456C24.1664 152.683 27.0729 151.998 29.0653 150.626C31.0552 149.251 32.0508 147.084 32.052 144.126C32.052 141.165 31.0698 138.984 29.1055 137.585C27.14 136.186 24.2468 135.486 20.4261 135.486H12.2723V152.683ZM97.1223 183.442C95.7217 179.191 94.3224 175.021 92.9243 170.929H69.5115C68.111 175.072 66.7116 179.243 65.3135 183.442H51.9926C55.6525 173.325 59.38 163.448 63.1752 153.812C66.9691 144.18 70.8039 134.815 74.6795 125.717H88.0808C92.0631 135.298 95.9518 144.919 99.747 154.581C103.542 164.243 107.216 173.863 110.768 183.443L97.1223 183.442ZM73.0632 160.594H89.2912C87.9992 156.826 86.6672 153.072 85.2952 149.333C83.9227 145.592 82.5636 141.918 81.2179 138.312C78.4186 145.684 75.7004 153.112 73.0632 160.594ZM117.791 125.716H139.831C145.912 125.716 151.12 126.846 155.453 129.106C159.688 131.271 163.144 134.7 165.342 138.917C167.603 143.195 168.733 148.374 168.732 154.456C168.732 160.54 167.589 165.747 165.302 170.078C163.1 174.323 159.649 177.79 155.413 180.01C151.106 182.299 145.885 183.443 139.751 183.44H117.791V125.716ZM139.105 172.785C144.486 172.785 148.617 171.21 151.498 168.06C154.376 164.914 155.816 160.379 155.817 154.456C155.817 148.592 154.404 144.112 151.579 141.016C148.753 137.919 144.622 136.372 139.186 136.374H130.224V172.785H139.105ZM178.582 125.716H191.015V183.442H178.582V125.716ZM229.526 124.504C233.566 124.447 237.579 125.16 241.353 126.605C244.767 127.93 247.853 129.982 250.395 132.619C252.958 135.328 254.925 138.545 256.168 142.062C258.859 150.147 258.859 158.886 256.168 166.971C254.927 170.512 252.96 173.756 250.395 176.496C247.863 179.155 244.775 181.223 241.353 182.552C233.716 185.35 225.334 185.35 217.698 182.552C214.275 181.223 211.188 179.155 208.656 176.496C206.09 173.757 204.124 170.512 202.883 166.97C200.193 158.885 200.193 150.147 202.883 142.063C204.125 138.546 206.092 135.328 208.656 132.619C211.198 129.982 214.283 127.93 217.698 126.605C221.471 125.161 225.485 124.448 229.526 124.504ZM229.526 173.834C232.516 173.914 235.463 173.115 238.003 171.534C240.425 169.933 242.31 167.641 243.412 164.955C245.887 158.232 245.887 150.848 243.412 144.126C242.317 141.445 240.43 139.163 238.003 137.584C235.423 136.103 232.5 135.325 229.526 135.325C226.552 135.325 223.629 136.103 221.049 137.584C218.621 139.162 216.734 141.445 215.64 144.126C213.163 150.848 213.163 158.233 215.64 164.955C216.741 167.641 218.626 169.934 221.049 171.534C223.588 173.115 226.536 173.915 229.526 173.834ZM402.296 0.5261C380.598 0.5261 359.388 6.96016 341.347 19.0146C323.306 31.0691 309.245 48.2026 300.942 68.2485C292.639 88.2944 290.466 110.352 294.699 131.633C298.932 152.913 309.38 172.461 324.723 187.803C340.065 203.146 359.613 213.594 380.893 217.827C402.174 222.06 424.232 219.888 444.278 211.584C464.323 203.281 481.457 189.22 493.511 171.179C505.566 153.138 512 131.928 512 110.231C512 95.824 509.162 81.5585 503.649 68.2485C498.136 54.9385 490.055 42.8448 479.868 32.6578C469.681 22.4708 457.588 14.39 444.278 8.87686C430.968 3.36369 416.702 0.5261 402.296 0.5261ZM426.791 184.799H395.279V69.8849C389.534 72.8256 383.757 75.8364 377.948 78.9173C372.134 82 366.637 85.0114 361.456 87.9514V58.9611C367.056 55.7401 373.288 52.3435 380.153 48.7714C387.014 45.1999 394.226 41.5934 401.792 37.9518H426.791V184.799ZM0 37.1345V110.311H73.1766V37.1345H0ZM51.0309 88.777C49.6768 90.6225 47.8216 92.0408 45.6855 92.8635C43.027 93.8854 40.1935 94.3747 37.3462 94.3033H20.9472V53.1413H36.3945C40.946 53.1413 44.4721 54.0524 46.9727 55.8748C48.2025 56.7692 49.1896 57.9565 49.8445 59.3289C50.4993 60.7013 50.8012 62.2155 50.7228 63.7342C50.7672 65.5254 50.3014 67.2924 49.3798 68.829C48.4132 70.3303 47.0331 71.5199 45.4058 72.2546C47.6188 72.9131 49.5677 74.2529 50.9751 76.0832C52.2957 77.9364 52.9738 80.1707 52.9059 82.4452C52.9658 84.7009 52.3094 86.9176 51.0309 88.777ZM40.5651 68.6553C41.1345 68.1743 41.5849 67.5681 41.881 66.8841C42.1771 66.2 42.3109 65.4567 42.2719 64.7124C42.2719 61.4505 40.0516 59.8196 35.611 59.8196H29.2865V70.0669H35.611C37.3762 70.1873 39.1281 69.6875 40.5651 68.6553ZM36.6742 76.5147H29.2865V87.626H36.5627C38.583 87.751 40.5936 87.2588 42.3277 86.2145C42.9818 85.7659 43.5103 85.1574 43.863 84.4469C44.2156 83.7365 44.3807 82.9476 44.3426 82.1554C44.3426 78.3937 41.7864 76.5141 36.6742 76.5147ZM91.4716 37.1345V110.311H164.648V37.1345H91.4716ZM142.502 88.777C141.147 90.6225 139.292 92.0408 137.156 92.8635C134.498 93.8854 131.664 94.3747 128.817 94.3033H112.418V53.1413H127.865C132.417 53.1413 135.943 54.0524 138.443 55.8748C139.673 56.7692 140.66 57.9565 141.315 59.3289C141.97 60.7013 142.272 62.2155 142.193 63.7342C142.238 65.5254 141.772 67.2924 140.851 68.829C139.884 70.3303 138.504 71.5199 136.876 72.2546C139.089 72.9131 141.038 74.2529 142.446 76.0832C143.766 77.9364 144.444 80.1707 144.377 82.4452C144.437 84.7009 143.78 86.9176 142.502 88.777ZM132.036 68.6553C132.605 68.1743 133.056 67.5681 133.352 66.8841C133.648 66.2 133.782 65.4567 133.743 64.7124C133.743 61.4505 131.522 59.8196 127.082 59.8196H120.757V70.0669H127.082C128.847 70.1873 130.599 69.6875 132.036 68.6553ZM128.145 76.5147H120.757V87.626H128.033C130.054 87.7513 132.064 87.2593 133.798 86.2154C134.452 85.7668 134.981 85.1583 135.334 84.4479C135.686 83.7374 135.851 82.9486 135.813 82.1563C135.813 78.3947 133.257 76.5141 128.145 76.5147ZM182.942 110.311H256.119V37.1345H182.942V110.311ZM235.498 91.6951C233.63 92.6977 231.638 93.4472 229.572 93.9239C227.25 94.4778 224.871 94.7525 222.483 94.7421C219.459 94.7863 216.451 94.2993 213.595 93.3032C211.086 92.4464 208.804 91.0311 206.922 89.164C205.04 87.2968 203.607 85.0267 202.73 82.5247C201.725 79.6908 201.233 76.7002 201.278 73.6935C201.234 70.7373 201.747 67.7993 202.789 65.0323C203.745 62.5329 205.232 60.2706 207.147 58.4016C209.098 56.5247 211.424 55.0821 213.973 54.1689C216.836 53.1562 219.855 52.6597 222.891 52.7025C225.07 52.6911 227.244 52.9279 229.369 53.4082C231.336 53.8544 233.239 54.5464 235.034 55.4679V63.4809C233.44 62.4263 231.697 61.6179 229.863 61.083C227.956 60.531 225.98 60.2555 223.995 60.2648C221.491 60.1923 219.007 60.7347 216.761 61.8445C214.801 62.8635 213.199 64.4583 212.171 66.4146C211.046 68.6717 210.496 71.1725 210.573 73.6935C210.5 76.2168 211.028 78.7214 212.113 81.0007C213.089 82.962 214.652 84.5696 216.586 85.5992C218.79 86.7099 221.236 87.2532 223.703 87.1799C227.87 87.2066 231.959 86.0522 235.497 83.8503V91.6942L235.498 91.6951Z" fill="white"/>
</g>
<defs>
<clipPath id="clip0_5_3">
<rect width="512" height="219.409" fill="white" transform="translate(0 0.5261)"/>
</clipPath>
</defs>
</svg>
