<svg width="512" height="221" viewBox="0 0 512 221" fill="none" xmlns="http://www.w3.org/2000/svg">
<g clip-path="url(#clip0_5_5)">
<path d="M12.2708 162.034V183.023H0V125.299H21.0721C28.6606 125.299 34.4871 126.886 38.5516 130.064C42.6133 133.239 44.647 137.787 44.647 143.708C44.647 147.529 43.7431 150.786 41.944 153.476C40.1377 156.168 37.5676 158.238 34.2325 159.692C36.6523 163.511 39.0474 167.347 41.4177 171.197C43.8269 175.115 46.1954 179.058 48.5227 183.025H34.2325C30.3703 175.944 26.3597 168.946 22.2034 162.034H12.2708ZM12.2708 152.266H20.3456C24.1655 152.266 27.0731 151.58 29.0653 150.207C31.0547 148.832 32.0515 146.667 32.0515 143.708C32.0515 140.748 31.0704 138.568 29.1053 137.165C27.1389 135.766 24.2471 135.067 20.4257 135.067H12.2723V152.265L12.2708 152.266ZM97.1227 183.023C95.7211 178.773 94.3224 174.6 92.9237 170.511H69.5119C68.1103 174.654 66.7116 178.827 65.3129 183.025H51.9909C55.5802 173.096 59.3085 163.218 63.1748 153.393C66.8799 143.976 70.7145 134.61 74.6776 125.299H88.0783C92.0632 134.881 95.9525 144.503 99.7456 154.162C103.511 163.747 107.185 173.368 110.766 183.023H97.1227ZM73.063 160.176H89.2911C87.9996 156.408 86.6667 152.657 85.2952 148.915C83.9237 145.174 82.5636 141.5 81.2178 137.894C78.4108 145.289 75.6923 152.717 73.063 160.176ZM117.79 125.299H139.832C145.911 125.299 151.12 126.429 155.453 128.688C159.784 130.951 163.082 134.22 165.343 138.499C167.603 142.777 168.733 147.958 168.733 154.039C168.733 160.123 167.588 165.331 165.302 169.661C163.013 173.995 159.717 177.304 155.413 179.594C151.106 181.882 145.886 183.023 139.75 183.023H117.79V125.299ZM139.105 172.369C144.486 172.369 148.616 170.792 151.498 167.643C154.375 164.497 155.817 159.963 155.817 154.039C155.817 148.176 154.402 143.694 151.578 140.599C148.752 137.504 144.62 135.956 139.185 135.956H130.222V172.369H139.105ZM178.582 125.299H191.015V183.023H178.582V125.299ZM229.525 124.087C233.884 124.087 237.827 124.788 241.352 126.188C244.878 127.587 247.891 129.592 250.395 132.202C252.899 134.812 254.822 137.962 256.167 141.647C257.512 145.334 258.185 149.494 258.185 154.122C258.185 158.698 257.512 162.841 256.169 166.555C254.822 170.266 252.898 173.445 250.395 176.08C247.892 178.72 244.878 180.738 241.352 182.137C237.827 183.535 233.884 184.235 229.525 184.235C225.166 184.235 221.223 183.535 217.697 182.137C214.172 180.738 211.157 178.718 208.656 176.08C206.153 173.445 204.226 170.266 202.884 166.555C201.536 162.841 200.866 158.698 200.866 154.122C200.866 149.494 201.536 145.334 202.882 141.647C204.226 137.962 206.153 134.812 208.656 132.202C211.159 129.592 214.172 127.587 217.697 126.188C221.223 124.79 225.166 124.087 229.525 124.087ZM229.525 173.415C232.807 173.415 235.633 172.649 238.003 171.116C240.37 169.581 242.173 167.389 243.412 164.537C244.649 161.682 245.268 158.211 245.268 154.122C245.268 150.034 244.649 146.56 243.412 143.708C242.172 140.853 240.37 138.674 238.003 137.165C235.633 135.659 232.807 134.905 229.525 134.905C226.241 134.905 223.416 135.659 221.048 137.165C218.68 138.674 216.876 140.853 215.639 143.708C214.401 146.56 213.781 150.032 213.781 154.122C213.781 158.213 214.401 161.682 215.639 164.537C216.876 167.389 218.68 169.581 221.048 171.116C223.416 172.649 226.24 173.415 229.525 173.415ZM0 36.7157V109.893H73.1774V36.7157H0ZM51.0312 88.359C49.7798 90.1239 47.9993 91.4868 45.6853 92.4465C43.3713 93.4047 40.5924 93.8852 37.346 93.8852H20.9462V52.7236H36.3949C40.9457 52.7236 44.4725 53.6346 46.9724 55.458C49.4724 57.2815 50.7223 59.9001 50.7223 63.3154C50.7223 65.2733 50.2747 66.9709 49.3794 68.4111C48.4841 69.8498 47.1583 70.9925 45.405 71.8363C47.8305 72.6415 49.6869 73.9186 50.974 75.6649C52.2612 77.4111 52.9048 79.532 52.9048 82.0263C52.9048 84.4819 52.2798 86.5928 51.0312 88.359ZM40.5638 68.238C41.7023 67.2984 42.2715 65.9841 42.2715 64.2936C42.2715 61.0328 40.0504 59.4024 35.6112 59.4024H29.287V69.6482H35.6112C37.775 69.6482 39.4254 69.1791 40.5638 68.238ZM36.6738 76.0954H29.287V87.2078H36.5622C39.0622 87.2078 40.9843 86.7372 42.3272 85.7962C43.6716 84.8566 44.3423 83.5036 44.3423 81.7374C44.3423 77.976 41.7852 76.0954 36.6738 76.0954ZM91.4707 36.7157V109.893H164.648V36.7157H91.4707ZM142.502 88.359C141.25 90.1239 139.47 91.4868 137.156 92.4465C134.842 93.4047 132.063 93.8852 128.818 93.8852H112.417V52.7236H127.863C132.416 52.7236 135.943 53.6346 138.442 55.458C140.942 57.2815 142.192 59.9001 142.192 63.3154C142.192 65.2733 141.744 66.9709 140.849 68.4111C139.953 69.8498 138.629 70.9925 136.876 71.8363C139.3 72.6415 141.158 73.9186 142.445 75.6649C143.732 77.4111 144.375 79.532 144.375 82.0263C144.375 84.4819 143.752 86.5928 142.502 88.359ZM132.033 68.238C133.171 67.2984 133.741 65.9841 133.741 64.2936C133.741 61.0328 131.52 59.4024 127.08 59.4024H120.756V69.6482H127.08C129.244 69.6482 130.895 69.1791 132.033 68.238ZM128.143 76.0954H120.756V87.2078H128.031C130.531 87.2078 132.454 86.7372 133.796 85.7962C135.141 84.8566 135.813 83.5036 135.813 81.7374C135.813 77.976 133.256 76.0954 128.143 76.0954ZM182.94 109.893H256.117V36.7157H182.94V109.893ZM235.496 91.2766C233.791 92.2162 231.816 92.9599 229.571 93.5048C227.248 94.0588 224.868 94.3334 222.481 94.3228C219.189 94.3228 216.226 93.8437 213.593 92.8841C210.958 91.9259 208.73 90.5429 206.911 88.7366C205.09 86.9317 203.696 84.7221 202.728 82.1063C201.759 79.492 201.275 76.5487 201.275 73.2751C201.275 70.0786 201.778 67.1911 202.786 64.614C203.793 62.0382 205.246 59.8272 207.144 57.9837C209.04 56.1417 211.317 54.7301 213.97 53.7504C216.623 52.7736 219.597 52.2845 222.889 52.2845C225.174 52.2845 227.334 52.5205 229.367 52.9896C231.4 53.4615 233.289 54.148 235.031 55.049V63.0622C233.438 62.0072 231.695 61.1986 229.861 60.6638C227.954 60.1119 225.978 59.8364 223.993 59.8458C221.165 59.8458 218.753 60.3735 216.759 61.4261C214.798 62.4451 213.196 64.0402 212.168 65.9969C211.103 67.9906 210.572 70.4162 210.572 73.2765C210.572 76.1354 211.084 78.571 212.111 80.5832C213.136 82.5955 214.628 84.13 216.585 85.1826C218.541 86.2352 220.914 86.7615 223.703 86.7615C227.963 86.7615 231.895 85.6532 235.496 83.4321V91.2766ZM501.729 155.704C499.598 149.233 497.431 142.773 495.23 136.325H459.064C456.896 142.747 454.729 149.204 452.562 155.706L452.421 156.128H430.017L430.316 155.301C435.997 139.585 441.898 123.948 448.017 108.397C453.885 93.4887 459.956 78.6612 466.229 63.9189L466.389 63.5456H488.417L488.574 63.9246C496.428 82.823 504.052 101.817 511.442 120.901C511.81 117.254 512 113.556 512 109.813C512 49.2239 462.882 0.107689 402.293 0.107689C341.706 0.107689 292.589 49.2239 292.589 109.813C292.589 170.401 341.706 219.517 402.293 219.517C446.382 219.517 484.389 193.505 501.824 155.995L501.729 155.704ZM425 184.379H393.489V69.4651C387.69 72.4354 381.913 75.4469 376.157 78.4995C370.617 81.4305 365.12 84.4418 359.667 87.5324V58.5443C365.266 55.3222 371.499 51.9255 378.364 48.3544C385.521 44.6368 392.734 41.0295 400.002 37.5337H425.001V184.382L425 184.379ZM477.141 85.8477C473.01 96.766 469.001 107.73 465.113 118.737H489.057C487.101 113.053 485.088 107.388 483.018 101.744C481.071 96.4406 479.111 91.1419 477.14 85.8477H477.141Z" fill="white"/>
</g>
<defs>
<clipPath id="clip0_5_5">
<rect width="512" height="220.246" fill="white" transform="translate(0 0.107689)"/>
</clipPath>
</defs>
</svg>
