<svg width="512" height="223" viewBox="0 0 512 223" fill="none" xmlns="http://www.w3.org/2000/svg">
<g clip-path="url(#clip0_5_7)">
<path d="M12.443 164.178V185.46H0V126.932H21.3646C29.0587 126.932 34.9663 128.542 39.0874 131.763C43.2066 134.983 45.2668 139.594 45.2681 145.597C45.4237 149.063 44.4886 152.491 42.5944 155.398C40.7002 158.305 37.9423 160.545 34.7086 161.803C37.1643 165.678 39.5925 169.566 41.9933 173.469C44.394 177.371 46.7953 181.368 49.1973 185.46H34.7086C30.779 178.256 26.7136 171.162 22.5121 164.178H12.443ZM12.443 154.274H20.6286C24.5026 154.274 27.4495 153.579 29.4696 152.188C31.4878 150.793 32.4973 148.597 32.4979 145.598C32.4979 142.595 31.502 140.384 29.5104 138.965C27.5175 137.547 24.5841 136.838 20.7102 136.838H12.443V154.274ZM98.4734 185.46C97.0533 181.151 95.6345 176.922 94.2169 172.774H70.4785C69.0584 176.974 67.6396 181.203 66.2221 185.46H52.7159C56.4267 175.202 60.206 165.188 64.054 155.418C67.9007 145.652 71.7888 136.157 75.7184 126.933H89.3061C93.3438 136.647 97.2866 146.402 101.135 156.198C104.982 165.994 108.707 175.748 112.309 185.461L98.4734 185.46ZM74.0796 162.296H90.5334C89.2233 158.475 87.8728 154.669 86.4818 150.878C85.0902 147.085 83.7121 143.36 82.3477 139.704C79.5089 147.178 76.7528 154.709 74.0796 162.296ZM119.429 126.932H141.776C147.942 126.932 153.222 128.077 157.616 130.369C161.909 132.564 165.413 136.041 167.642 140.316C169.935 144.653 171.08 149.905 171.079 156.071C171.079 162.24 169.92 167.519 167.601 171.911C165.369 176.215 161.869 179.73 157.575 181.981C153.208 184.302 147.915 185.461 141.695 185.458H119.429V126.932ZM141.039 174.656C146.495 174.656 150.683 173.059 153.605 169.866C156.523 166.675 157.982 162.077 157.984 156.072C157.984 150.127 156.551 145.584 153.686 142.445C150.822 139.306 146.633 137.737 141.121 137.739H132.034V174.656H141.039ZM181.066 126.932H193.671V185.46H181.066V126.932ZM232.718 125.704C236.814 125.646 240.883 126.369 244.709 127.834C248.171 129.177 251.3 131.258 253.877 133.931C256.476 136.679 258.47 139.941 259.731 143.507C262.458 151.704 262.458 160.564 259.731 168.761C258.472 172.352 256.478 175.641 253.877 178.418C251.31 181.115 248.18 183.211 244.709 184.559C236.966 187.396 228.468 187.396 220.725 184.559C217.255 183.211 214.125 181.114 211.558 178.418C208.956 175.641 206.962 172.352 205.704 168.761C202.977 160.564 202.977 151.704 205.704 143.507C206.964 139.94 208.958 136.678 211.558 133.931C214.135 131.257 217.263 129.177 220.725 127.834C224.551 126.369 228.621 125.646 232.718 125.704ZM232.718 175.718C235.749 175.8 238.738 174.99 241.312 173.387C243.768 171.764 245.679 169.439 246.797 166.716C249.305 159.9 249.305 152.413 246.797 145.597C245.686 142.879 243.773 140.565 241.312 138.964C238.696 137.463 235.733 136.674 232.717 136.674C229.701 136.674 226.738 137.463 224.122 138.964C221.661 140.564 219.747 142.879 218.638 145.597C216.126 152.413 216.126 159.9 218.638 166.716C219.755 169.44 221.666 171.764 224.122 173.387C226.697 174.99 229.686 175.801 232.718 175.718ZM0 37.1176V111.312H74.1945V37.1176H0ZM51.7408 89.4785C50.3679 91.35 48.4869 92.7884 46.3211 93.6228C43.6255 94.6586 40.7525 95.1543 37.8657 95.0817H21.2386V53.3471H36.9008C41.5162 53.3471 45.0913 54.2712 47.6262 56.1195C48.8729 57.0263 49.8737 58.2299 50.5376 59.6213C51.2016 61.0126 51.5078 62.5477 51.4284 64.0873C51.4734 65.9035 51.0012 67.6951 50.0667 69.2531C49.0867 70.7752 47.6874 71.9814 46.0374 72.7262C48.2812 73.3939 50.2572 74.7523 51.6842 76.6082C53.0232 78.4871 53.7107 80.7525 53.6419 83.0586C53.7026 85.3457 53.0371 87.5932 51.7408 89.4785ZM41.1284 69.0779C41.7059 68.5901 42.1626 67.9753 42.4629 67.2815C42.7631 66.5878 42.8987 65.834 42.859 65.0791C42.859 61.7719 40.6078 60.1182 36.1055 60.1182H29.693V70.5081H36.1055C37.8952 70.6305 39.6716 70.1247 41.1284 69.0779ZM37.1844 77.0457H29.6939V88.3115H37.0713C39.1197 88.4386 41.1582 87.9398 42.9165 86.8813C43.5796 86.4265 44.1153 85.8097 44.4729 85.0896C44.8305 84.3694 44.9979 83.5698 44.9594 82.7666C44.9594 78.9527 42.3677 77.0457 37.1844 77.0457ZM92.7431 37.1176V111.312H166.938V37.1176H92.7431ZM144.484 89.4785C143.111 91.35 141.23 92.7884 139.064 93.6228C136.369 94.6586 133.496 95.1544 130.609 95.0817H113.982V53.3471H129.644C134.259 53.3471 137.834 54.2712 140.369 56.1195C141.616 57.0263 142.617 58.2299 143.281 59.6213C143.945 61.0126 144.251 62.5477 144.172 64.0873C144.217 65.9035 143.744 67.6951 142.81 69.2531C141.83 70.7752 140.431 71.9814 138.781 72.7262C141.024 73.3939 143 74.7523 144.427 76.6082C145.766 78.4871 146.454 80.7525 146.385 83.0586C146.446 85.3457 145.78 87.5932 144.484 89.4785ZM133.872 69.0779C134.449 68.5901 134.906 67.9753 135.206 67.2815C135.506 66.5878 135.642 65.834 135.602 65.0791C135.602 61.7719 133.351 60.1182 128.849 60.1182H122.436V70.5081H128.849C130.638 70.6305 132.415 70.1247 133.872 69.0779ZM129.928 77.0457H122.437V88.3115H129.814C131.863 88.4386 133.901 87.9398 135.66 86.8813C136.323 86.4265 136.858 85.8097 137.216 85.0896C137.574 84.3694 137.741 83.5698 137.703 82.7666C137.703 78.9521 135.111 77.0451 129.928 77.0457ZM185.486 111.312H259.681V37.1176H185.486V111.312ZM238.773 92.4363C236.88 93.4528 234.859 94.2128 232.765 94.6961C230.411 95.2577 227.998 95.5362 225.577 95.5257C222.511 95.5705 219.461 95.0767 216.565 94.0667C214.021 93.1981 211.708 91.7631 209.8 89.87C207.892 87.9768 206.438 85.6751 205.55 83.1383C204.53 80.2649 204.031 77.2328 204.077 74.1843C204.033 71.1869 204.553 68.208 205.609 65.4026C206.578 62.8684 208.086 60.5746 210.027 58.6797C212.006 56.7769 214.365 55.3146 216.949 54.3889C219.851 53.3618 222.913 52.8581 225.991 52.9012C228.2 52.8897 230.404 53.1298 232.559 53.6168C234.554 54.0692 236.483 54.7708 238.302 55.7052V63.8296C236.687 62.7603 234.919 61.9407 233.06 61.3983C231.126 60.8387 229.122 60.5593 227.11 60.5687C224.571 60.4952 222.053 61.0452 219.776 62.1704C217.788 63.2036 216.164 64.8206 215.122 66.8041C213.98 69.0926 213.424 71.6282 213.502 74.1843C213.427 76.7427 213.962 79.2822 215.063 81.5932C216.052 83.582 217.637 85.2123 219.598 86.2565C221.833 87.3824 224.313 87.9329 226.814 87.8582C231.039 87.8853 235.185 86.7148 238.772 84.4824V92.4363H238.773ZM481.939 84.9848H468.802V140.142H481.817C490.111 140.142 496.586 137.715 501.063 132.928C505.517 128.164 507.774 121.252 507.774 112.386C507.774 103.598 505.557 96.7659 501.184 92.0804C496.79 87.3716 490.315 84.9848 481.939 84.9848ZM483.128 161.022H447.983V64.1049H483.26C493.044 64.1049 501.529 66.0209 508.475 69.8009C509.688 70.4703 510.865 71.2036 512 71.9977C502.871 47.7789 485.582 27.5018 463.111 14.659C440.64 1.81626 414.393 -2.78816 388.893 1.63887C363.392 6.06591 340.233 19.2472 323.405 38.9124C306.578 58.5776 297.135 83.4955 296.703 109.374C296.271 135.253 304.877 160.472 321.039 180.688C337.201 200.903 359.907 214.85 385.246 220.126C410.585 225.401 436.97 221.675 459.857 209.59C482.745 197.504 500.701 177.815 510.633 153.914C509.908 154.381 509.167 154.837 508.404 155.259C501.503 159.083 492.998 161.022 483.128 161.022ZM430.873 186.835H398.923V70.3236C393.098 73.3052 387.241 76.3579 381.35 79.4816C375.456 82.6072 369.882 85.6605 364.629 88.6415V59.2469C370.306 55.9811 376.626 52.5373 383.587 48.9155C390.543 45.2949 397.856 41.6382 405.526 37.9454H430.873V186.835Z" fill="white"/>
</g>
<defs>
<clipPath id="clip0_5_7">
<rect width="512" height="222.461" fill="white"/>
</clipPath>
</defs>
</svg>
