<svg width="512" height="220" viewBox="0 0 512 220" fill="none" xmlns="http://www.w3.org/2000/svg">
<g clip-path="url(#clip0_5_9)">
<path d="M12.269 162.346V183.331H0V125.621H21.0659C28.6524 125.621 34.4774 127.208 38.5409 130.384C42.6025 133.559 44.634 138.106 44.6352 144.025C44.7884 147.443 43.8663 150.822 41.9986 153.689C40.131 156.555 37.4117 158.764 34.2233 160.004C36.6441 163.824 39.0384 167.658 41.4062 171.506C43.7733 175.354 46.1411 179.295 48.5095 183.33H34.2233C30.3487 176.227 26.3401 169.232 22.1974 162.345H12.269V162.346ZM12.269 152.581H20.3402C24.16 152.581 27.0658 151.895 29.0576 150.524C31.0476 149.149 32.0429 146.983 32.0435 144.026C32.0435 141.066 31.0616 138.886 29.0978 137.486C27.1328 136.087 24.2404 135.388 20.4207 135.388H12.269V152.581ZM97.0966 183.331C95.6964 179.082 94.2975 174.912 92.8997 170.821H69.4931C68.093 174.964 66.694 179.133 65.2962 183.331H51.9789C55.6378 173.216 59.3643 163.342 63.1585 153.709C66.9514 144.079 70.7852 134.717 74.6598 125.621H88.0575C92.0388 135.2 95.9265 144.819 99.7206 154.478C103.514 164.137 107.187 173.755 110.738 183.332L97.0966 183.331ZM73.0439 160.491H89.2676C87.9759 156.723 86.6443 152.97 85.2727 149.232C83.9005 145.492 82.5418 141.819 81.1964 138.214C78.3973 145.584 75.6798 153.01 73.0439 160.49V160.491ZM117.76 125.621H139.794C145.874 125.621 151.08 126.75 155.412 129.009C159.645 131.174 163.1 134.602 165.298 138.818C167.559 143.095 168.689 148.273 168.687 154.353C168.687 160.435 167.544 165.641 165.258 169.971C163.057 174.215 159.606 177.681 155.372 179.9C151.066 182.188 145.846 183.331 139.714 183.329H117.76V125.621ZM139.068 172.678C144.447 172.678 148.576 171.103 151.457 167.954C154.334 164.808 155.774 160.275 155.775 154.355C155.775 148.492 154.362 144.012 151.538 140.917C148.712 137.822 144.582 136.275 139.148 136.276H130.188V172.678H139.068ZM178.534 125.621H190.963V183.331H178.534V125.621ZM229.464 124.41C233.503 124.353 237.516 125.066 241.288 126.51C244.702 127.835 247.786 129.886 250.328 132.522C252.891 135.231 254.857 138.448 256.1 141.964C258.789 150.046 258.789 158.782 256.1 166.865C254.858 170.406 252.893 173.649 250.328 176.388C247.796 179.047 244.71 181.114 241.288 182.442C233.653 185.239 225.274 185.239 217.639 182.442C214.218 181.113 211.131 179.046 208.6 176.387C206.035 173.649 204.069 170.406 202.828 166.865C200.139 158.782 200.139 150.046 202.828 141.964C204.07 138.448 206.036 135.231 208.6 132.523C211.141 129.886 214.225 127.834 217.639 126.51C221.412 125.066 225.425 124.353 229.464 124.41ZM229.464 173.725C232.453 173.806 235.4 173.007 237.939 171.426C240.361 169.826 242.245 167.534 243.347 164.849C245.821 158.128 245.821 150.746 243.347 144.025C242.252 141.345 240.365 139.064 237.939 137.485C235.36 136.005 232.438 135.226 229.464 135.226C226.491 135.226 223.569 136.005 220.99 137.485C218.563 139.063 216.676 141.345 215.582 144.025C213.106 150.745 213.106 158.128 215.582 164.849C216.683 167.534 218.568 169.827 220.99 171.426C223.528 173.007 226.475 173.806 229.464 173.725ZM0 37.0621V110.219H73.1572V37.0621H0ZM51.0174 88.6919C49.6636 90.5369 47.8089 91.9548 45.6734 92.7773C43.0156 93.7987 40.1828 94.2875 37.3363 94.2158H20.9416V53.0647H36.3849C40.9358 53.0647 44.4609 53.9759 46.9603 55.7983C48.1897 56.6924 49.1764 57.8793 49.8311 59.2512C50.4857 60.6231 50.7876 62.1367 50.7094 63.6548C50.7538 65.4456 50.2881 67.2121 49.3668 68.7483C48.4005 70.2491 47.0207 71.4384 45.3938 72.1729C47.6062 72.8312 49.5546 74.1707 50.9616 76.0006C52.2821 77.8535 52.96 80.0875 52.8919 82.3618C52.9516 84.6166 52.2954 86.8332 51.0174 88.6919ZM40.5534 68.5755C41.1228 68.0946 41.5732 67.4884 41.8692 66.8043C42.1652 66.1203 42.2989 65.377 42.2598 64.6327C42.2598 61.3717 40.0401 59.7412 35.6007 59.7412H29.2779V69.9867H35.6007C37.3655 70.1071 39.1171 69.6081 40.5534 68.5755ZM36.6645 76.432H29.2788V87.5403H36.553C38.5726 87.6658 40.5827 87.1743 42.3165 86.1309C42.9703 85.6825 43.4986 85.0744 43.8511 84.3643C44.2037 83.6542 44.3688 82.8657 44.3308 82.0739C44.3308 78.3132 41.7754 76.432 36.6645 76.432ZM91.4465 37.0621V110.219H164.604V37.0621H91.4465ZM142.464 88.6919C141.11 90.5369 139.255 91.9548 137.12 92.7773C134.462 93.7987 131.629 94.2875 128.783 94.2158H112.388V53.0647H127.831C132.382 53.0647 135.907 53.9759 138.407 55.7983C139.636 56.6924 140.623 57.8793 141.278 59.2512C141.932 60.6231 142.234 62.1367 142.156 63.6548C142.2 65.4456 141.735 67.2121 140.813 68.7483C139.847 70.2491 138.467 71.4384 136.84 72.1729C139.053 72.8312 141.001 74.1707 142.408 76.0006C143.729 77.8535 144.407 80.0875 144.338 82.3618C144.398 84.6166 143.742 86.8332 142.464 88.6919ZM132 68.5755C132.569 68.0946 133.02 67.4884 133.316 66.8043C133.612 66.1203 133.745 65.377 133.706 64.6327C133.706 61.3717 131.487 59.7412 127.047 59.7412H120.724V69.9867H127.047C128.812 70.1071 130.564 69.6081 132 68.5755ZM128.111 76.432H120.725V87.5403H128C130.019 87.6656 132.029 87.1737 133.763 86.13C134.417 85.6816 134.945 85.0735 135.298 84.3634C135.65 83.6533 135.815 82.8648 135.777 82.0729C135.777 78.3123 133.222 76.432 128.111 76.432ZM182.893 110.219H256.05V37.0621H182.893V110.219ZM235.435 91.6074C233.568 92.6097 231.575 93.359 229.511 93.8356C227.189 94.3894 224.81 94.664 222.424 94.6536C219.4 94.6978 216.392 94.2109 213.537 93.2151C211.029 92.3585 208.748 90.9436 206.867 89.0769C204.985 87.2103 203.552 84.9407 202.676 82.4394C201.671 79.6062 201.179 76.6165 201.223 73.6106C201.18 70.6551 201.693 67.7179 202.734 64.9517C203.69 62.4529 205.176 60.1912 207.091 58.3227C209.042 56.4466 211.368 55.0047 213.916 54.092C216.777 53.0792 219.796 52.5826 222.831 52.6251C225.01 52.6137 227.183 52.8504 229.308 53.3306C231.274 53.7767 233.177 54.4685 234.971 55.3898V63.4007C233.378 62.3463 231.635 61.5381 229.801 61.0034C227.895 60.4516 225.919 60.1761 223.935 60.1854C221.431 60.1129 218.948 60.6551 216.703 61.7647C214.743 62.7836 213.141 64.3784 212.114 66.3345C210.989 68.5907 210.44 71.0905 210.517 73.6106C210.443 76.1332 210.971 78.6372 212.056 80.9159C213.031 82.8769 214.595 84.4844 216.528 85.514C218.731 86.6241 221.177 87.167 223.643 87.0933C227.809 87.1201 231.897 85.9659 235.434 83.7647V91.6074H235.435ZM443.185 135.107C449.354 127.113 455.555 119.241 461.791 111.49C455.556 103.738 449.354 95.8655 443.185 87.872C437.019 79.8773 430.952 71.8225 424.985 63.7078V159.27C430.953 151.157 437.02 143.102 443.185 135.107ZM458.333 159.27H424.985V184.723H393.482V69.8395C387.739 72.7795 381.963 75.7894 376.155 78.8695C370.343 81.9514 364.847 84.962 359.667 87.9013V58.9186C365.265 55.6984 371.497 52.3027 378.36 48.7316C385.219 45.161 392.43 41.5551 399.993 37.9139H424.985V63.7078H458.333C465.114 74.2452 472.366 84.9038 480.09 95.6837C487.782 84.9501 495.005 74.3369 501.758 63.844C491.242 41.2812 473.363 22.967 451.06 11.9112C428.757 0.855305 403.356 -2.28443 379.032 3.00793C354.708 8.30029 332.908 21.7099 317.215 41.033C301.521 60.356 292.868 84.443 292.677 109.335C292.487 134.228 300.769 158.444 316.165 178.006C331.56 197.567 353.152 211.309 377.392 216.974C401.632 222.639 427.078 219.889 449.548 209.176C472.018 198.464 490.175 180.426 501.036 158.027C494.486 147.894 487.504 137.65 480.09 127.294C472.364 138.075 465.112 148.734 458.333 159.27ZM511.026 95.5274C506.828 100.895 502.615 106.216 498.389 111.489C502.512 116.614 506.619 121.8 510.709 127.044C512.317 116.608 512.423 105.994 511.026 95.5274Z" fill="white"/>
</g>
<defs>
<clipPath id="clip0_5_9">
<rect width="512" height="219.402" fill="white" transform="translate(0 0.474365)"/>
</clipPath>
</defs>
</svg>
