<svg width="512" height="220" viewBox="0 0 512 220" fill="none" xmlns="http://www.w3.org/2000/svg">
<g clip-path="url(#clip0_5_12)">
<path d="M34.1943 160.095C37.2997 158.806 39.9666 156.647 41.8743 153.878C43.7711 150.976 44.7288 147.561 44.6171 144.095C44.6171 138.153 42.6057 133.581 38.4914 130.473C34.3771 127.364 28.6171 125.718 21.0286 125.718H0V183.41H12.2514V162.381H22.2171C26.3314 169.238 30.3543 176.278 34.2857 183.41H48.5486C46.1714 179.387 43.7943 175.455 41.4171 171.615C39.04 167.684 36.6629 163.844 34.1943 160.095ZM29.0743 150.587C27.0629 151.958 24.1371 152.69 20.3886 152.69H12.3429V135.501H20.48C24.32 135.501 27.1543 136.233 29.1657 137.604C31.1771 138.975 32.0914 141.17 32.0914 144.187C32.0914 147.021 31.0857 149.215 29.0743 150.587ZM88.0457 125.627H74.6971C70.8571 134.77 67.0171 144.095 63.1771 153.695C59.3371 163.295 55.68 173.17 52.0229 183.318H65.3714C66.7429 179.113 68.2057 174.907 69.5771 170.793H92.9829C94.3543 174.907 95.8171 179.021 97.1886 183.318H110.811C107.246 173.718 103.589 164.118 99.7486 154.427C95.9086 144.735 92.0686 135.227 88.0457 125.627ZM73.0514 160.553C75.7029 153.055 78.4457 145.65 81.1886 138.244C82.56 141.81 83.9314 145.558 85.3029 149.307C86.6743 153.055 88.0457 156.804 89.3257 160.553H73.0514ZM155.429 129.01C151.131 126.724 145.92 125.627 139.794 125.627H117.76V183.318H139.703C145.829 183.318 151.04 182.221 155.337 179.844C159.582 177.626 163.033 174.144 165.211 169.878C167.639 165.032 168.833 159.662 168.686 154.244C168.686 148.118 167.589 142.998 165.303 138.701C163.085 134.533 159.638 131.149 155.429 129.01ZM151.497 168.05C148.571 171.158 144.457 172.804 139.063 172.804H130.194V136.415H139.154C144.549 136.415 148.754 137.97 151.589 141.078C154.423 144.187 155.794 148.667 155.794 154.518C155.794 160.37 154.423 164.85 151.497 168.05ZM178.56 125.627H190.994V183.318H178.56V125.627ZM250.423 132.575C247.885 129.924 244.795 127.863 241.371 126.541C237.604 125.118 233.605 124.405 229.577 124.438C225.549 124.396 221.548 125.11 217.783 126.541C214.342 127.829 211.244 129.894 208.731 132.575C206.207 135.302 204.249 138.503 202.971 141.993C200.29 150.065 200.29 158.789 202.971 166.861C204.227 170.389 206.186 173.624 208.731 176.37C211.244 179.051 214.342 181.116 217.783 182.404C221.551 183.827 225.55 184.54 229.577 184.507C233.605 184.549 237.606 183.836 241.371 182.404C244.813 181.116 247.91 179.051 250.423 176.37C252.949 173.609 254.906 170.378 256.183 166.861C257.582 162.868 258.263 158.658 258.194 154.427C258.278 150.195 257.597 145.982 256.183 141.993C254.927 138.493 252.966 135.288 250.423 132.575ZM243.474 164.941C242.357 167.615 240.482 169.903 238.08 171.524C235.496 173.021 232.563 173.809 229.577 173.809C226.591 173.809 223.658 173.021 221.074 171.524C218.649 169.929 216.767 167.633 215.68 164.941C214.344 161.634 213.72 158.083 213.851 154.518C213.766 150.957 214.387 147.415 215.68 144.095C216.797 141.422 218.672 139.134 221.074 137.513C223.638 135.968 226.585 135.176 229.577 135.227C232.575 135.131 235.534 135.927 238.08 137.513C240.526 139.085 242.413 141.389 243.474 144.095C244.811 147.402 245.434 150.954 245.303 154.518C245.38 158.079 244.759 161.62 243.474 164.941ZM36.6629 76.4383H29.2571V87.5926H36.5714C38.5842 87.7078 40.5865 87.231 42.3314 86.2212C42.985 85.7809 43.5137 85.1791 43.8661 84.4742C44.2185 83.7694 44.3828 82.9854 44.3429 82.1983C44.3429 78.3583 41.7829 76.4383 36.6629 76.4383ZM73.1429 37.124H0V110.267H73.1429V37.124ZM51.0171 88.7812C49.6469 90.5999 47.8164 92.0201 45.7143 92.8955C43.0577 93.9023 40.235 94.3986 37.3943 94.3583H20.9371V53.2155H36.3886C40.96 53.2155 44.4343 54.1298 46.9943 55.9583C48.2154 56.8616 49.1959 58.051 49.8495 59.4221C50.5032 60.7931 50.8099 62.3038 50.7429 63.8212C50.7787 65.6232 50.3032 67.3984 49.3714 68.9412C48.4231 70.4317 47.0553 71.6087 45.44 72.324C47.6574 72.984 49.6095 74.328 51.0171 76.164C52.3415 78.0292 53.0161 80.2779 52.9371 82.564C52.9613 84.786 52.29 86.9598 51.0171 88.7812ZM40.5943 68.6669C41.1594 68.1832 41.6088 67.5789 41.9095 66.8985C42.2101 66.2181 42.3543 65.479 42.3314 64.7355C42.3314 61.444 40.1371 59.7983 35.6571 59.7983H29.2571V70.0383H35.6571C37.4093 70.1404 39.1458 69.658 40.5943 68.6669ZM132.023 68.6669C132.588 68.1832 133.037 67.5789 133.338 66.8985C133.639 66.2181 133.783 65.479 133.76 64.7355C133.76 61.444 131.566 59.7983 127.086 59.7983H120.777V70.0383H127.086C128.841 70.169 130.587 69.684 132.023 68.6669ZM164.663 37.124H91.52V110.267H164.663V37.124ZM142.537 88.7812C141.167 90.5999 139.336 92.0201 137.234 92.8955C134.578 93.9023 131.755 94.3986 128.914 94.3583H112.457V53.2155H127.909C132.48 53.2155 135.954 54.1298 138.514 55.9583C139.735 56.8616 140.716 58.051 141.37 59.4221C142.023 60.7931 142.33 62.3038 142.263 63.8212C142.299 65.6232 141.823 67.3984 140.891 68.9412C139.943 70.4317 138.575 71.6087 136.96 72.324C139.177 72.984 141.129 74.328 142.537 76.164C143.862 78.0292 144.536 80.2779 144.457 82.564C144.394 84.7724 143.73 86.9219 142.537 88.7812ZM128.183 76.4383H120.777V87.5926H128.091C130.104 87.7078 132.107 87.231 133.851 86.2212C134.505 85.7809 135.034 85.1791 135.386 84.4742C135.739 83.7694 135.903 82.9854 135.863 82.1983C135.863 78.3583 133.303 76.4383 128.183 76.4383ZM256.183 37.124H183.04V110.267H256.183V37.124ZM229.577 93.9012C227.242 94.4609 224.847 94.7372 222.446 94.724C219.425 94.7833 216.419 94.2874 213.577 93.2612C211.059 92.4144 208.77 91.0016 206.883 89.1313C204.997 87.261 203.565 84.983 202.697 82.4726C201.671 79.6309 201.175 76.6248 201.234 73.604C201.159 70.6334 201.688 67.6785 202.789 64.9183C203.769 62.4115 205.264 60.1379 207.177 58.244C209.132 56.3633 211.472 54.9285 214.034 54.0383C216.908 53.0132 219.944 52.5176 222.994 52.5755C225.179 52.5774 227.356 52.8227 229.486 53.3069C231.458 53.7592 233.364 54.4661 235.154 55.4098V63.4555C233.565 62.3727 231.802 61.5688 229.943 61.0783C228.042 60.5239 226.071 60.2467 224.091 60.2555C221.595 60.1992 219.121 60.7317 216.869 61.8098C214.902 62.8156 213.303 64.4151 212.297 66.3812C211.167 68.648 210.632 71.165 210.743 73.6955C210.687 76.2211 211.219 78.725 212.297 81.0098C213.268 82.9701 214.837 84.5711 216.777 85.5812C218.978 86.7118 221.437 87.2476 223.909 87.1355C228.072 87.1727 232.161 86.0316 235.703 83.844V91.7069C233.746 92.6565 231.692 93.3922 229.577 93.9012ZM402.286 0.461182C380.586 0.461182 359.374 6.89581 341.332 18.9514C323.289 31.0069 309.227 48.142 300.923 68.1896C292.619 88.2373 290.446 110.297 294.68 131.58C298.913 152.862 309.362 172.411 324.706 187.755C340.05 203.099 359.599 213.548 380.882 217.782C402.164 222.015 424.224 219.842 444.272 211.538C464.319 203.234 481.454 189.172 493.51 171.129C505.565 153.087 512 131.875 512 110.175C512 95.7676 509.162 81.5008 503.648 68.1896C498.135 54.8785 490.053 42.7837 479.865 32.5958C469.678 22.4078 457.583 14.3263 444.272 8.81268C430.96 3.29903 416.694 0.461182 402.286 0.461182ZM456.046 183.593H354.103V180.941C354.047 173.981 354.659 167.031 355.931 160.187C357.149 154.228 359.277 148.493 362.24 143.181C365.558 137.572 369.617 132.436 374.309 127.913C380.155 122.34 386.455 117.264 393.143 112.735C398.717 108.936 404.088 104.846 409.234 100.484C413.166 97.0098 416 93.8098 417.554 90.7012C419.122 87.6134 419.937 84.1984 419.931 80.7355C419.931 67.6612 411.794 61.1698 395.611 61.1698C388.921 61.1546 382.275 62.2673 375.954 64.4612C369.211 66.8966 362.911 70.4172 357.303 74.884V46.3583C363.944 42.206 371.15 39.0342 378.697 36.9412C386.355 34.8689 394.261 33.8537 402.194 33.924C412.343 33.924 421.12 35.6612 428.617 39.044C435.715 42.154 441.774 47.23 446.08 53.6726C450.194 59.9812 452.297 67.4783 452.297 76.0726C452.347 81.209 451.795 86.3335 450.651 91.3412C449.538 95.8954 447.652 100.225 445.074 104.141C442.002 108.576 438.377 112.601 434.286 116.118C428.909 120.731 423.227 124.977 417.28 128.827C412.115 132.143 407.14 135.744 402.377 139.615C398.834 142.517 395.587 145.763 392.686 149.307C390.314 152.281 388.431 155.614 387.109 159.181H455.954V183.593H456.046Z" fill="white"/>
</g>
<defs>
<clipPath id="clip0_5_12">
<rect width="512" height="219.429" fill="white" transform="translate(0 0.461182)"/>
</clipPath>
</defs>
</svg>
