<svg width="512" height="220" viewBox="0 0 512 220" fill="none" xmlns="http://www.w3.org/2000/svg">
<g clip-path="url(#clip0_5_14)">
<path d="M12.2723 162.397V183.388H0V125.662H21.0715C28.6599 125.662 34.4865 127.25 38.551 130.427C42.6137 133.603 44.6457 138.151 44.6469 144.071C44.8004 147.49 43.8781 150.871 42.0099 153.738C40.1418 156.605 37.4216 158.815 34.2323 160.055C36.6537 163.877 39.0489 167.712 41.4179 171.561C43.7857 175.409 46.1541 179.352 48.5231 183.388H34.2332C30.3576 176.282 26.3479 169.286 22.2041 162.397H12.2723ZM12.2723 152.628H20.3456C24.1663 152.628 27.0729 151.942 29.0652 150.57C31.0558 149.195 32.0513 147.029 32.0519 144.071C32.0519 141.11 31.0698 138.929 29.1055 137.529C27.1399 136.131 24.2468 135.431 20.426 135.431H12.2723V152.628ZM97.1221 183.388C95.7216 179.138 94.3222 174.967 92.9241 170.875H69.5114C68.1108 175.018 66.7115 179.189 65.3134 183.388H51.9916C55.6515 173.27 59.379 163.394 63.1741 153.757C66.9681 144.125 70.8028 134.76 74.6784 125.662H88.0797C92.062 135.243 95.9507 144.864 99.7459 154.526C103.54 164.187 107.214 173.808 110.767 183.388H97.1221ZM73.064 160.54H89.292C87.9999 156.771 86.6679 153.018 85.296 149.279C83.9235 145.538 82.5644 141.864 81.2187 138.258C78.4182 145.631 75.6999 153.058 73.064 160.54ZM117.79 125.662H139.831C145.912 125.662 151.119 126.792 155.453 129.052C159.687 131.217 163.143 134.646 165.342 138.863C167.603 143.14 168.733 148.32 168.732 154.402C168.732 160.486 167.588 165.693 165.302 170.024C163.1 174.269 159.648 177.736 155.413 179.956C151.106 182.245 145.885 183.388 139.75 183.386H117.79V125.662ZM139.105 172.732C144.485 172.732 148.616 171.157 151.498 168.007C154.376 164.86 155.815 160.326 155.817 154.403C155.817 148.539 154.404 144.059 151.578 140.962C148.753 137.867 144.622 136.32 139.185 136.321H130.224V172.732H139.105ZM178.582 125.662H191.015V183.388H178.582V125.662ZM229.526 124.451C233.566 124.394 237.58 125.107 241.353 126.552C244.768 127.877 247.853 129.929 250.395 132.565C252.959 135.275 254.926 138.493 256.169 142.01C258.859 150.095 258.859 158.833 256.169 166.918C254.927 170.46 252.961 173.704 250.395 176.443C247.863 179.102 244.776 181.17 241.353 182.5C233.716 185.297 225.335 185.297 217.698 182.5C214.276 181.17 211.189 179.102 208.657 176.443C206.091 173.704 204.124 170.46 202.883 166.918C200.193 158.833 200.193 150.095 202.883 142.01C204.125 138.492 206.092 135.274 208.657 132.565C211.198 129.928 214.284 127.876 217.698 126.552C221.472 125.107 225.486 124.394 229.526 124.451ZM229.526 173.779C232.516 173.86 235.464 173.061 238.003 171.48C240.426 169.879 242.31 167.587 243.413 164.901C245.887 158.178 245.887 150.794 243.413 144.071C242.317 141.391 240.43 139.109 238.003 137.529C235.423 136.049 232.501 135.27 229.526 135.27C226.551 135.27 223.629 136.049 221.049 137.529C218.621 139.108 216.734 141.39 215.639 144.071C213.162 150.794 213.162 158.178 215.639 164.901C216.741 167.587 218.626 169.88 221.049 171.48C223.588 173.061 226.536 173.86 229.526 173.779ZM402.296 0.471191C380.598 0.471191 359.388 6.90524 341.347 18.9597C323.306 31.0142 309.245 48.1476 300.942 68.1935C292.639 88.2393 290.466 110.297 294.699 131.578C298.932 152.858 309.381 172.406 324.723 187.748C340.065 203.091 359.613 213.539 380.893 217.772C402.174 222.005 424.232 219.832 444.278 211.529C464.324 203.226 481.457 189.165 493.511 171.124C505.566 153.083 512 131.873 512 110.175C512 81.0801 500.442 53.1764 479.868 32.6028C459.295 12.0293 431.391 0.471191 402.296 0.471191ZM452.026 167.151C447.181 173.679 440.301 178.698 431.387 182.209C422.47 185.717 411.835 187.472 399.482 187.473C391.96 187.504 384.451 186.834 377.053 185.473C369.806 184.09 362.764 181.79 356.098 178.628V151.883C362.426 154.874 369.018 157.27 375.788 159.042C382.919 160.799 390.243 161.648 397.586 161.569C407.132 161.569 414.398 159.85 419.383 156.41C424.364 152.972 426.856 148.023 426.858 141.563C426.858 134.965 424.401 129.98 419.487 126.61C414.571 123.242 407.411 121.557 398.006 121.555H375.683V96.7065H396.954C405.937 96.7065 412.781 95.0214 417.487 91.651C422.189 88.2825 424.541 83.5795 424.542 77.5421C424.617 75.0602 424.033 72.6028 422.849 70.4201C421.665 68.2374 419.924 66.4074 417.803 65.1163C413.308 62.1671 406.92 60.6931 398.638 60.6943C393.91 60.6686 389.189 61.0562 384.528 61.8526C380.238 62.6106 376.013 63.7018 371.892 65.1163C367.613 66.6131 363.459 68.4441 359.467 70.5923V44.4782C372.524 38.0233 386.985 34.7943 402.85 34.7913C413.801 34.7913 423.278 36.3704 431.28 39.5287C439.283 42.6875 445.425 47.1805 449.707 53.0077C453.988 58.836 456.129 65.7507 456.13 73.7518C456.267 81.0455 454.011 88.1832 449.707 94.0736C445.423 99.902 439.421 104.36 431.701 107.447C440.404 110.395 447.178 114.958 452.024 121.137C456.867 127.315 459.289 134.826 459.289 143.669C459.291 152.798 456.87 160.626 452.026 167.151ZM0.000914202 37.1015V110.278H73.1773V37.1015H0.000914202ZM51.0317 88.7438C49.6777 90.5897 47.8225 92.0083 45.6863 92.8312C43.0278 93.8529 40.1942 94.3418 37.347 94.2702H20.948V53.1082H36.3953C40.9474 53.1082 44.4735 54.0197 46.9735 55.8426C48.2032 56.7369 49.1902 57.9241 49.8451 59.2963C50.4999 60.6686 50.8019 62.1826 50.7236 63.7011C50.768 65.4923 50.3023 67.2593 49.3806 68.7959C48.4141 70.2972 47.0339 71.4868 45.4066 72.2215C47.6196 72.88 49.5685 74.2198 50.9759 76.0501C52.2965 77.9033 52.9746 80.1375 52.9067 82.4121C52.9666 84.6678 52.3102 86.8845 51.0317 88.7438ZM40.565 68.6231C41.1345 68.1421 41.585 67.5357 41.8811 66.8515C42.1772 66.1673 42.3109 65.4238 42.2718 64.6793C42.2718 61.4174 40.0515 59.7865 35.6109 59.7865H29.2865V70.0338H35.6109C37.3761 70.1545 39.1282 69.6556 40.565 68.6231ZM36.6751 76.4816H29.2874V87.5928H36.5635C38.5838 87.7182 40.5944 87.2262 42.3285 86.1822C42.9825 85.7337 43.5109 85.1254 43.8636 84.4151C44.2162 83.7049 44.3814 82.9162 44.3434 82.1241C44.3434 78.3618 41.7873 76.481 36.6751 76.4816ZM91.4714 37.1015V110.278H164.648V37.1015H91.4714ZM142.502 88.7438C141.148 90.5897 139.293 92.0083 137.157 92.8312C134.498 93.8529 131.665 94.3418 128.818 94.2702H112.419V53.1082H127.866C132.418 53.1082 135.944 54.0197 138.444 55.8426C139.674 56.7369 140.661 57.9241 141.316 59.2963C141.97 60.6686 142.272 62.1826 142.194 63.7011C142.239 65.4923 141.773 67.2593 140.851 68.7959C139.885 70.2972 138.504 71.4868 136.877 72.2215C139.09 72.88 141.039 74.2198 142.446 76.0501C143.767 77.9033 144.445 80.1375 144.377 82.4121C144.437 84.6678 143.781 86.8845 142.502 88.7438ZM132.036 68.6231C132.605 68.1421 133.056 67.5357 133.352 66.8515C133.648 66.1673 133.781 65.4238 133.742 64.6793C133.742 61.4174 131.522 59.7865 127.081 59.7865H120.757V70.0338H127.081C128.847 70.1545 130.599 69.6556 132.036 68.6231ZM128.146 76.4816H120.758V87.5928H128.034C130.054 87.7182 132.065 87.2262 133.799 86.1822C134.453 85.7337 134.981 85.1254 135.334 84.4151C135.687 83.7049 135.852 82.9162 135.814 82.1241C135.814 78.3618 133.258 76.481 128.146 76.4816ZM182.942 110.278H256.118V37.1015H182.942V110.278ZM235.498 91.662C233.63 92.6645 231.637 93.414 229.572 93.8908C227.25 94.4447 224.87 94.7193 222.483 94.709C219.459 94.7532 216.45 94.2661 213.594 93.2701C211.085 92.4133 208.804 90.998 206.922 89.1308C205.04 87.2637 203.607 84.9935 202.73 82.4916C201.724 79.6576 201.233 76.6671 201.277 73.6604C201.234 70.7042 201.747 67.7662 202.788 64.9993C203.744 62.4998 205.231 60.2375 207.146 58.3685C209.098 56.4919 211.424 55.0497 213.973 54.1367C216.835 53.1237 219.855 52.6269 222.891 52.6694C225.07 52.658 227.243 52.8948 229.369 53.3752C231.336 53.8213 233.239 54.5133 235.033 55.4349V63.4479C233.44 62.3932 231.697 61.5848 229.862 61.0499C227.956 60.4979 225.979 60.2224 223.994 60.2317C221.49 60.1592 219.007 60.7016 216.761 61.8114C214.8 62.8304 213.198 64.4253 212.171 66.3815C211.045 68.6386 210.496 71.1394 210.573 73.6604C210.5 76.1837 211.027 78.6883 212.112 80.9676C213.088 82.9292 214.652 84.5371 216.586 85.567C218.79 86.6774 221.236 87.2204 223.703 87.1467C227.87 87.1734 231.959 86.019 235.497 83.8172V91.662H235.498Z" fill="white"/>
</g>
<defs>
<clipPath id="clip0_5_14">
<rect width="512" height="219.409" fill="white" transform="translate(0 0.471191)"/>
</clipPath>
</defs>
</svg>
