<svg width="512" height="222" viewBox="0 0 512 222" fill="none" xmlns="http://www.w3.org/2000/svg">
<g clip-path="url(#clip0_5_16)">
<path d="M12.2708 162.816V183.805H0V126.081H21.0721C28.6606 126.081 34.4871 127.668 38.5516 130.846C42.6133 134.021 44.647 138.569 44.647 144.49C44.647 148.311 43.7431 151.568 41.944 154.258C40.1377 156.95 37.5676 159.021 34.2325 160.474C36.6523 164.293 39.0474 168.129 41.4177 171.979C43.8269 175.897 46.1954 179.84 48.5227 183.807H34.2325C30.3703 176.726 26.3597 169.728 22.2034 162.816H12.2708ZM12.2708 153.048H20.3456C24.1655 153.048 27.0731 152.362 29.0653 150.989C31.0547 149.614 32.0515 147.449 32.0515 144.49C32.0515 141.53 31.0704 139.35 29.1053 137.947C27.1389 136.548 24.2471 135.849 20.4257 135.849H12.2723V153.047L12.2708 153.048ZM97.1227 183.805C95.7211 179.555 94.3224 175.382 92.9237 171.293H69.5119C68.1103 175.436 66.7116 179.609 65.3129 183.807H51.9909C55.5802 173.878 59.3085 164 63.1748 154.175C66.8799 144.758 70.7145 135.392 74.6776 126.081H88.0783C92.0632 135.663 95.9525 145.285 99.7456 154.945C103.511 164.529 107.185 174.15 110.766 183.805H97.1227ZM73.063 160.958H89.2911C87.9996 157.19 86.6667 153.439 85.2952 149.697C83.9237 145.956 82.5636 142.282 81.2178 138.676C78.4108 146.071 75.6924 153.499 73.063 160.958ZM117.79 126.081H139.832C145.911 126.081 151.12 127.211 155.454 129.47C159.784 131.733 163.082 135.002 165.343 139.281C167.603 143.559 168.733 148.74 168.733 154.822C168.733 160.906 167.588 166.113 165.302 170.443C163.013 174.777 159.717 178.086 155.413 180.376C151.106 182.664 145.886 183.805 139.75 183.805H117.79V126.081ZM139.105 173.151C144.486 173.151 148.616 171.575 151.498 168.425C154.375 165.279 155.817 160.745 155.817 154.822C155.817 148.958 154.402 144.476 151.578 141.381C148.752 138.286 144.62 136.739 139.185 136.739H130.222V173.151H139.105ZM178.582 126.081H191.015V183.805H178.582V126.081ZM229.525 124.87C233.884 124.87 237.827 125.57 241.352 126.97C244.878 128.369 247.891 130.374 250.395 132.984C252.899 135.594 254.822 138.744 256.167 142.429C257.512 146.116 258.185 150.276 258.185 154.905C258.185 159.48 257.512 163.623 256.169 167.337C254.822 171.048 252.898 174.228 250.395 176.862C247.892 179.502 244.878 181.52 241.352 182.919C237.827 184.317 233.884 185.017 229.525 185.017C225.166 185.017 221.223 184.317 217.697 182.919C214.172 181.52 211.157 179.501 208.656 176.862C206.153 174.228 204.227 171.048 202.884 167.337C201.536 163.623 200.866 159.48 200.866 154.905C200.866 150.276 201.536 146.116 202.882 142.429C204.227 138.744 206.153 135.594 208.656 132.984C211.159 130.374 214.172 128.369 217.697 126.97C221.223 125.572 225.166 124.87 229.525 124.87ZM229.525 174.197C232.807 174.197 235.633 173.431 238.003 171.898C240.37 170.363 242.173 168.171 243.412 165.319C244.649 162.464 245.268 158.993 245.268 154.905C245.268 150.816 244.649 147.342 243.412 144.49C242.172 141.635 240.37 139.456 238.003 137.947C235.633 136.441 232.807 135.687 229.525 135.687C226.241 135.687 223.417 136.441 221.048 137.947C218.68 139.456 216.876 141.635 215.639 144.49C214.401 147.342 213.781 150.814 213.781 154.905C213.781 158.995 214.401 162.464 215.639 165.319C216.876 168.171 218.68 170.363 221.048 171.898C223.417 173.431 226.24 174.197 229.525 174.197ZM0 37.4978V110.675H73.1774V37.4978H0ZM51.0312 89.1411C49.7798 90.9059 47.9993 92.2689 45.6853 93.2285C43.3713 94.1868 40.5925 94.6673 37.346 94.6673H20.9462V53.5056H36.3949C40.9457 53.5056 44.4725 54.4167 46.9724 56.2401C49.4724 58.0636 50.7223 60.6822 50.7223 64.0975C50.7223 66.0554 50.2747 67.753 49.3794 69.1931C48.4841 70.6319 47.1583 71.7746 45.405 72.6184C47.8305 73.4236 49.6869 74.7007 50.974 76.447C52.2612 78.1932 52.9048 80.3141 52.9048 82.8083C52.9048 85.2639 52.2798 87.3749 51.0312 89.1411ZM40.5638 69.0201C41.7023 68.0805 42.2715 66.7662 42.2715 65.0757C42.2715 61.8149 40.0504 60.1845 35.6112 60.1845H29.287V70.4302H35.6112C37.775 70.4302 39.4254 69.9611 40.5638 69.0201ZM36.6738 76.8774H29.287V87.9898H36.5622C39.0622 87.9898 40.9843 87.5193 42.3272 86.5783C43.6716 85.6386 44.3423 84.2857 44.3423 82.5194C44.3423 78.7581 41.7852 76.8774 36.6738 76.8774ZM91.4707 37.4978V110.675H164.648V37.4978H91.4707ZM142.502 89.1411C141.251 90.9059 139.47 92.2689 137.156 93.2285C134.842 94.1868 132.063 94.6673 128.818 94.6673H112.417V53.5056H127.863C132.416 53.5056 135.943 54.4167 138.442 56.2401C140.942 58.0636 142.192 60.6822 142.192 64.0975C142.192 66.0554 141.744 67.753 140.849 69.1931C139.953 70.6319 138.629 71.7746 136.876 72.6184C139.3 73.4236 141.158 74.7007 142.445 76.447C143.732 78.1932 144.375 80.3141 144.375 82.8083C144.375 85.2639 143.752 87.3749 142.502 89.1411ZM132.033 69.0201C133.171 68.0805 133.741 66.7662 133.741 65.0757C133.741 61.8149 131.52 60.1845 127.08 60.1845H120.756V70.4302H127.08C129.244 70.4302 130.895 69.9611 132.033 69.0201ZM128.143 76.8774H120.756V87.9898H128.031C130.531 87.9898 132.454 87.5193 133.796 86.5783C135.141 85.6386 135.813 84.2857 135.813 82.5194C135.813 78.7581 133.256 76.8774 128.143 76.8774ZM182.94 110.675H256.117V37.4978H182.94V110.675ZM235.496 92.0587C233.791 92.9983 231.816 93.742 229.571 94.2869C227.248 94.8408 224.868 95.1155 222.481 95.1049C219.189 95.1049 216.226 94.6258 213.593 93.6662C210.958 92.708 208.73 91.325 206.911 89.5187C205.09 87.7138 203.696 85.5042 202.728 82.8884C201.759 80.2741 201.275 77.3308 201.275 74.0571C201.275 70.8607 201.778 67.9732 202.786 65.396C203.793 62.8203 205.246 60.6093 207.144 58.7658C209.04 56.9237 211.317 55.5122 213.97 54.5325C216.623 53.5557 219.597 53.0666 222.889 53.0666C225.174 53.0666 227.334 53.3026 229.367 53.7716C231.4 54.2436 233.289 54.9301 235.031 55.8311V63.8443C233.438 62.7893 231.695 61.9807 229.861 61.4459C227.954 60.894 225.978 60.6185 223.993 60.6279C221.165 60.6279 218.753 61.1556 216.759 62.2082C214.798 63.2272 213.196 64.8223 212.168 66.779C211.103 68.7727 210.572 71.1982 210.572 74.0586C210.572 76.9175 211.084 79.3531 212.111 81.3653C213.136 83.3775 214.628 84.9121 216.585 85.9647C218.541 87.0173 220.914 87.5436 223.703 87.5436C227.963 87.5436 231.895 86.4352 235.496 84.2142V92.0587ZM510.574 127.85C509.869 131.5 508.754 134.849 507.179 137.827C504.307 143.254 500.102 147.459 494.679 150.327C489.316 153.161 482.294 154.6 474.982 154.6C467.592 154.6 461.145 153.161 455.819 150.324C450.434 147.456 446.248 143.25 443.379 137.827C440.545 132.468 439.107 125.967 439.107 118.502V67.4026H459.898V120.395C459.898 125.513 461.202 129.445 463.773 132.079C466.368 134.741 470.035 136.035 474.982 136.035C479.927 136.035 483.594 134.741 486.19 132.08C488.761 129.443 490.066 125.512 490.066 120.396V67.4026H503.096C486.328 28.2904 447.479 0.889771 402.228 0.889771C341.64 0.889771 292.524 50.006 292.524 110.595C292.524 171.183 341.64 220.299 402.228 220.299C457.166 220.299 502.671 179.915 510.681 127.215L510.574 127.85ZM431.801 167.57C426.955 174.097 420.076 179.12 411.162 182.628C402.243 186.135 391.609 187.891 379.255 187.891C371.39 187.891 363.915 187.225 356.827 185.892C349.736 184.558 342.75 182.278 335.872 179.047V152.303C342.471 155.392 349.035 157.776 355.563 159.461C362.091 161.147 369.358 161.988 377.36 161.988C386.906 161.988 394.171 160.272 399.157 156.83C404.138 153.391 406.634 148.442 406.634 141.982C406.634 135.384 404.175 130.4 399.263 127.029C394.346 123.661 387.186 121.975 377.782 121.975H355.458V97.1257H376.729C385.712 97.1257 392.555 95.4396 397.262 92.0701C401.964 88.7006 404.317 83.9982 404.317 77.9601C404.317 72.6255 402.069 68.4838 397.578 65.5348C393.083 62.5858 386.694 61.1127 378.414 61.1127C373.358 61.1127 368.653 61.5017 364.304 62.2711C360.013 63.029 355.788 64.1202 351.667 65.5348C347.594 66.9406 343.453 68.767 339.243 71.0123V44.896C352.3 38.4403 366.758 35.2081 382.626 35.2081C393.576 35.2081 403.053 36.787 411.057 39.9462C419.059 43.104 425.199 47.599 429.484 53.4241C433.764 59.2521 435.907 66.1655 435.907 74.1687C435.907 81.8916 433.764 88.6663 429.484 94.4914C425.199 100.319 419.196 104.779 411.478 107.863C420.18 110.812 426.955 115.376 431.801 121.553C436.643 127.731 439.066 135.241 439.066 144.085C439.066 153.215 436.643 161.041 431.801 167.57ZM510.574 127.85C509.869 131.5 508.754 134.849 507.179 137.827C504.307 143.254 500.102 147.459 494.679 150.327C489.316 153.161 482.294 154.6 474.982 154.6C467.592 154.6 461.145 153.161 455.819 150.324C450.434 147.456 446.248 143.25 443.379 137.827C440.545 132.468 439.107 125.967 439.107 118.502V67.4026H459.898V120.395C459.898 125.513 461.202 129.445 463.773 132.079C466.368 134.741 470.035 136.035 474.982 136.035C479.927 136.035 483.594 134.741 486.19 132.08C488.761 129.443 490.066 125.512 490.066 120.396V67.4026H503.096C486.328 28.2904 447.479 0.889771 402.228 0.889771C341.64 0.889771 292.524 50.006 292.524 110.595C292.524 171.183 341.64 220.299 402.228 220.299C457.166 220.299 502.671 179.915 510.681 127.215L510.574 127.85ZM431.801 167.57C426.955 174.097 420.076 179.12 411.162 182.628C402.243 186.135 391.609 187.891 379.255 187.891C371.39 187.891 363.915 187.225 356.827 185.892C349.736 184.558 342.75 182.278 335.872 179.047V152.303C342.471 155.392 349.035 157.776 355.563 159.461C362.091 161.147 369.358 161.988 377.36 161.988C386.906 161.988 394.171 160.272 399.157 156.83C404.138 153.391 406.634 148.442 406.634 141.982C406.634 135.384 404.175 130.4 399.263 127.029C394.346 123.661 387.186 121.975 377.782 121.975H355.458V97.1257H376.729C385.712 97.1257 392.555 95.4396 397.262 92.0701C401.964 88.7006 404.317 83.9982 404.317 77.9601C404.317 72.6255 402.069 68.4838 397.578 65.5348C393.083 62.5858 386.694 61.1127 378.414 61.1127C373.358 61.1127 368.653 61.5017 364.304 62.2711C360.013 63.029 355.788 64.1202 351.667 65.5348C347.594 66.9406 343.453 68.767 339.243 71.0123V44.896C352.3 38.4403 366.758 35.2081 382.626 35.2081C393.576 35.2081 403.053 36.787 411.057 39.9462C419.059 43.104 425.199 47.599 429.484 53.4241C433.764 59.2521 435.907 66.1655 435.907 74.1687C435.907 81.8916 433.764 88.6663 429.484 94.4914C425.199 100.319 419.196 104.779 411.478 107.863C420.18 110.812 426.955 115.376 431.801 121.553C436.643 127.731 439.066 135.241 439.066 144.085C439.066 153.215 436.643 161.041 431.801 167.57ZM510.574 127.85C509.869 131.5 508.754 134.849 507.179 137.827C504.307 143.254 500.102 147.459 494.679 150.327C489.316 153.161 482.294 154.6 474.982 154.6C467.592 154.6 461.145 153.161 455.819 150.324C450.434 147.456 446.248 143.25 443.379 137.827C440.545 132.468 439.107 125.967 439.107 118.502V67.4026H459.898V120.395C459.898 125.513 461.202 129.445 463.773 132.079C466.368 134.741 470.035 136.035 474.982 136.035C479.927 136.035 483.594 134.741 486.19 132.08C488.761 129.443 490.066 125.512 490.066 120.396V67.4026H503.096C486.328 28.2904 447.479 0.889771 402.228 0.889771C341.64 0.889771 292.524 50.006 292.524 110.595C292.524 171.183 341.64 220.299 402.228 220.299C457.166 220.299 502.671 179.915 510.681 127.215L510.574 127.85ZM431.801 167.57C426.955 174.097 420.076 179.12 411.162 182.628C402.243 186.135 391.609 187.891 379.255 187.891C371.39 187.891 363.915 187.225 356.827 185.892C349.736 184.558 342.75 182.278 335.872 179.047V152.303C342.471 155.392 349.035 157.776 355.563 159.461C362.091 161.147 369.358 161.988 377.36 161.988C386.906 161.988 394.171 160.272 399.157 156.83C404.138 153.391 406.634 148.442 406.634 141.982C406.634 135.384 404.175 130.4 399.263 127.029C394.346 123.661 387.186 121.975 377.782 121.975H355.458V97.1257H376.729C385.712 97.1257 392.555 95.4396 397.262 92.0701C401.964 88.7006 404.317 83.9982 404.317 77.9601C404.317 72.6255 402.069 68.4838 397.578 65.5348C393.083 62.5858 386.694 61.1127 378.414 61.1127C373.358 61.1127 368.653 61.5017 364.304 62.2711C360.013 63.029 355.788 64.1202 351.667 65.5348C347.594 66.9406 343.453 68.767 339.243 71.0123V44.896C352.3 38.4403 366.758 35.2081 382.626 35.2081C393.576 35.2081 403.053 36.787 411.057 39.9462C419.059 43.104 425.199 47.599 429.484 53.4241C433.764 59.2521 435.907 66.1655 435.907 74.1687C435.907 81.8916 433.764 88.6663 429.484 94.4914C425.199 100.319 419.196 104.779 411.478 107.863C420.18 110.812 426.955 115.376 431.801 121.553C436.643 127.731 439.066 135.241 439.066 144.085C439.066 153.215 436.643 161.041 431.801 167.57Z" fill="white"/>
</g>
<defs>
<clipPath id="clip0_5_16">
<rect width="512" height="220.246" fill="white" transform="translate(0 0.889771)"/>
</clipPath>
</defs>
</svg>
