<svg width="512" height="220" viewBox="0 0 512 220" fill="none" xmlns="http://www.w3.org/2000/svg">
<g clip-path="url(#clip0_5_18)">
<path d="M368.609 132.058H411.257V72.6062C403.831 82.6917 396.547 92.6702 389.406 102.542C382.263 112.415 375.331 122.254 368.609 132.058ZM402.296 0.30835C380.598 0.30835 359.388 6.74239 341.347 18.7969C323.306 30.8513 309.245 47.9848 300.942 68.0306C292.639 88.0765 290.466 110.134 294.699 131.415C298.932 152.695 309.381 172.243 324.723 187.585C340.065 202.928 359.613 213.376 380.893 217.609C402.174 221.842 424.232 219.669 444.278 211.366C464.324 203.063 481.457 189.002 493.511 170.961C505.566 152.92 512 131.71 512 110.013C512 80.9173 500.442 53.0135 479.868 32.44C459.295 11.8664 431.391 0.30835 402.296 0.30835ZM456.842 156.428H441.086V184.578H411.257V156.428H340.038V131.848C350.821 116.022 361.779 100.475 372.915 85.2094C384.049 69.9465 395.989 54.121 408.734 37.7331H441.086V132.057H456.842V156.428ZM12.2723 162.235V183.225H0V125.499H21.0715C28.6599 125.499 34.4865 127.087 38.551 130.264C42.6137 133.44 44.6457 137.988 44.6469 143.909C44.8004 147.327 43.8781 150.708 42.0099 153.575C40.1418 156.442 37.4216 158.652 34.2323 159.892C36.6537 163.714 39.0489 167.549 41.4179 171.398C43.7857 175.246 46.1541 179.189 48.5231 183.225H34.2332C30.3576 176.12 26.3479 169.123 22.2041 162.235H12.2723ZM12.2723 152.465H20.3456C24.1657 152.465 27.0723 151.78 29.0652 150.408C31.0558 149.033 32.0513 146.866 32.0519 143.909C32.0519 140.947 31.0698 138.766 29.1055 137.366C27.1399 135.968 24.2468 135.268 20.426 135.268H12.2723V152.465ZM97.1221 183.225C95.7216 178.975 94.3222 174.804 92.9241 170.712H69.5114C68.1108 174.855 66.7115 179.026 65.3134 183.225H51.9916C55.6515 173.108 59.379 163.231 63.1741 153.594C66.9681 143.962 70.8028 134.597 74.6784 125.499H88.0797C92.062 135.08 95.9507 144.701 99.7459 154.363C103.54 164.025 107.214 173.645 110.767 183.225H97.1221ZM73.064 160.377H89.292C87.9999 156.609 86.6679 152.855 85.296 149.116C83.9235 145.375 82.5644 141.701 81.2187 138.095C78.4182 145.468 75.6999 152.895 73.064 160.377ZM117.79 125.499H139.831C145.912 125.499 151.119 126.629 155.453 128.889C159.687 131.054 163.143 134.483 165.342 138.7C167.603 142.978 168.733 148.157 168.732 154.239C168.732 160.323 167.588 165.53 165.302 169.861C163.1 174.106 159.648 177.573 155.413 179.793C151.106 182.082 145.885 183.225 139.75 183.223H117.79V125.499ZM139.105 172.569C144.485 172.569 148.616 170.994 151.498 167.844C154.376 164.697 155.815 160.163 155.817 154.24C155.817 148.376 154.404 143.896 151.578 140.799C148.753 137.704 144.622 136.157 139.185 136.158H130.224V172.569H139.105ZM178.582 125.499H191.015V183.225H178.582V125.499ZM229.526 124.288C233.566 124.231 237.58 124.944 241.353 126.389C244.768 127.714 247.853 129.766 250.395 132.402C252.959 135.112 254.926 138.33 256.169 141.847C258.859 149.932 258.859 158.67 256.169 166.755C254.927 170.297 252.961 173.541 250.395 176.28C247.863 178.94 244.776 181.008 241.353 182.337C233.716 185.135 225.335 185.135 217.698 182.337C214.276 181.007 211.189 178.939 208.657 176.28C206.091 173.542 204.124 170.297 202.883 166.755C200.193 158.67 200.193 149.932 202.883 141.847C204.125 138.329 206.092 135.112 208.657 132.402C211.198 129.765 214.284 127.713 217.698 126.389C221.472 124.944 225.486 124.231 229.526 124.288ZM229.526 173.616C232.516 173.697 235.464 172.898 238.003 171.317C240.426 169.716 242.31 167.424 243.413 164.738C245.887 158.015 245.887 150.631 243.413 143.909C242.317 141.228 240.43 138.946 238.003 137.366C235.423 135.886 232.501 135.107 229.526 135.107C226.551 135.107 223.629 135.886 221.049 137.366C218.621 138.945 216.734 141.227 215.639 143.909C213.162 150.631 213.162 158.016 215.639 164.738C216.741 167.424 218.626 169.717 221.049 171.317C223.588 172.898 226.536 173.697 229.526 173.616ZM0.000914202 36.9386V110.115H73.1773V36.9386H0.000914202ZM51.0317 88.581C49.6777 90.4269 47.8225 91.8455 45.6863 92.6684C43.0278 93.69 40.1942 94.179 37.347 94.1073H20.948V52.9454H36.3953C40.9474 52.9454 44.4735 53.8568 46.9735 55.6798C48.2032 56.5741 49.1902 57.7612 49.8451 59.1335C50.4999 60.5057 50.8019 62.0198 50.7236 63.5382C50.768 65.3295 50.3023 67.0965 49.3806 68.6331C48.4141 70.1343 47.0339 71.324 45.4066 72.0586C47.6196 72.7171 49.5685 74.0569 50.9759 75.8873C52.2965 77.7404 52.9746 79.9747 52.9067 82.2492C52.9666 84.5049 52.3102 86.7216 51.0317 88.581ZM40.565 68.4603C41.1345 67.9792 41.585 67.3728 41.8811 66.6886C42.1772 66.0044 42.3109 65.261 42.2718 64.5164C42.2718 61.2546 40.0515 59.6236 35.6109 59.6236H29.2865V69.8709H35.6109C37.3761 69.9917 39.1282 69.4928 40.565 68.4603ZM36.6751 76.3188H29.2874V87.43H36.5635C38.5838 87.5553 40.5944 87.0634 42.3285 86.0194C42.9825 85.5709 43.5109 84.9626 43.8636 84.2523C44.2162 83.542 44.3814 82.7534 44.3434 81.9613C44.3434 78.199 41.7873 76.3182 36.6751 76.3188ZM91.4714 36.9386V110.115H164.648V36.9386H91.4714ZM142.502 88.581C141.148 90.4269 139.293 91.8455 137.157 92.6684C134.498 93.69 131.665 94.179 128.818 94.1073H112.419V52.9454H127.866C132.418 52.9454 135.944 53.8568 138.444 55.6798C139.674 56.5741 140.661 57.7612 141.316 59.1335C141.97 60.5057 142.272 62.0198 142.194 63.5382C142.239 65.3295 141.773 67.0965 140.851 68.6331C139.885 70.1343 138.504 71.324 136.877 72.0586C139.09 72.7171 141.039 74.0569 142.446 75.8873C143.767 77.7404 144.445 79.9747 144.377 82.2492C144.437 84.5049 143.781 86.7216 142.502 88.581ZM132.036 68.4603C132.605 67.9792 133.056 67.3728 133.352 66.6886C133.648 66.0044 133.781 65.261 133.742 64.5164C133.742 61.2546 131.522 59.6236 127.081 59.6236H120.757V69.8709H127.081C128.847 69.9917 130.599 69.4928 132.036 68.4603ZM128.146 76.3188H120.758V87.43H128.034C130.054 87.5553 132.065 87.0634 133.799 86.0194C134.453 85.5709 134.981 84.9626 135.334 84.2523C135.687 83.542 135.852 82.7534 135.814 81.9613C135.814 78.199 133.258 76.3182 128.146 76.3188ZM182.942 110.115H256.118V36.9386H182.942V110.115ZM235.498 91.4991C233.63 92.5017 231.637 93.2512 229.572 93.7279C227.25 94.2818 224.87 94.5565 222.483 94.5462C219.459 94.5903 216.45 94.1033 213.594 93.1072C211.085 92.2505 208.804 90.8351 206.922 88.968C205.04 87.1009 203.607 84.8307 202.73 82.3288C201.724 79.4948 201.233 76.5042 201.277 73.4976C201.234 70.5413 201.747 67.6033 202.788 64.8364C203.744 62.337 205.231 60.0747 207.146 58.2057C209.098 56.3291 211.424 54.8868 213.973 53.9739C216.835 52.9609 219.855 52.4641 222.891 52.5066C225.07 52.4952 227.243 52.732 229.369 53.2123C231.336 53.6585 233.239 54.3505 235.033 55.272V63.285C233.44 62.2304 231.697 61.4219 229.862 60.8871C227.956 60.3351 225.979 60.0596 223.994 60.0688C221.49 59.9963 219.007 60.5388 216.761 61.6486C214.8 62.6676 213.198 64.2624 212.171 66.2187C211.045 68.4757 210.496 70.9765 210.573 73.4976C210.5 76.0209 211.027 78.5255 212.112 80.8048C213.088 82.7664 214.652 84.3743 216.586 85.4041C218.79 86.5146 221.236 87.0575 223.703 86.9839C227.87 87.0108 231.959 85.8563 235.497 83.6544V91.4991H235.498Z" fill="white"/>
</g>
<defs>
<clipPath id="clip0_5_18">
<rect width="512" height="219.409" fill="white" transform="translate(0 0.30835)"/>
</clipPath>
</defs>
</svg>
