<svg width="512" height="220" viewBox="0 0 512 220" fill="none" xmlns="http://www.w3.org/2000/svg">
<g clip-path="url(#clip0_5_20)">
<path d="M12.2717 162.226V183.215H0V125.492H21.0705C28.6587 125.492 34.485 127.08 38.5494 130.257C42.6119 133.432 44.6438 137.98 44.645 143.901C44.7983 147.319 43.876 150.699 42.0079 153.566C40.1398 156.433 37.4199 158.642 34.2308 159.883C36.6522 163.704 39.047 167.539 41.4153 171.388C43.7829 175.236 46.1512 179.178 48.5201 183.214H34.2308C30.3554 176.109 26.3459 169.113 22.2023 162.225L12.2717 162.226ZM12.2717 152.457H20.3447C24.1653 152.457 27.0717 151.771 29.064 150.399C31.0544 149.024 32.05 146.858 32.0506 143.9C32.0506 140.939 31.0684 138.759 29.1042 137.359C27.1388 135.96 24.2457 135.261 20.4252 135.261H12.2717V152.457ZM97.118 183.215C95.7175 178.965 94.3182 174.794 92.9201 170.703H69.5084C68.1079 174.846 66.7086 179.017 65.3106 183.215H51.9903C55.65 173.098 59.3773 163.222 63.1723 153.586C66.9661 143.955 70.8007 134.59 74.6762 125.493H88.0769C92.059 135.073 95.9475 144.694 99.7425 154.356C103.537 164.017 107.21 173.637 110.763 183.216L97.118 183.215ZM73.0599 160.368H89.2872C87.9952 156.6 86.6633 152.847 85.2914 149.108C83.919 145.367 82.5599 141.694 81.2143 138.087C78.4145 145.46 75.6964 152.887 73.0599 160.368ZM117.785 125.492H139.825C145.906 125.492 151.113 126.622 155.446 128.882C159.68 131.047 163.136 134.476 165.335 138.693C167.596 142.97 168.726 148.149 168.724 154.231C168.724 160.314 167.581 165.521 165.294 169.852C163.093 174.097 159.641 177.564 155.406 179.783C151.099 182.072 145.879 183.216 139.744 183.213H117.785V125.492ZM139.098 172.56C144.478 172.56 148.609 170.985 151.49 167.835C154.367 164.689 155.807 160.154 155.808 154.232C155.808 148.368 154.395 143.888 151.57 140.792C148.744 137.696 144.614 136.149 139.179 136.15H130.217V172.56H139.098ZM178.574 125.492H191.005V183.215H178.574V125.492ZM229.514 124.281C233.554 124.224 237.568 124.937 241.341 126.382C244.755 127.707 247.841 129.759 250.383 132.395C252.946 135.105 254.913 138.322 256.156 141.838C258.846 149.923 258.846 158.661 256.156 166.746C254.915 170.287 252.948 173.531 250.383 176.27C247.851 178.929 244.764 180.997 241.341 182.327C233.704 185.124 225.324 185.124 217.687 182.327C214.265 180.997 211.178 178.929 208.646 176.27C206.08 173.531 204.114 170.287 202.873 166.745C200.183 158.661 200.183 149.923 202.873 141.839C204.114 138.321 206.081 135.104 208.646 132.395C211.188 129.758 214.273 127.706 217.687 126.382C221.46 124.937 225.474 124.224 229.514 124.281ZM229.514 173.607C232.504 173.688 235.452 172.889 237.991 171.308C240.412 169.707 242.297 167.415 243.4 164.729C245.874 158.007 245.874 150.623 243.4 143.901C242.304 141.22 240.417 138.938 237.991 137.359C235.411 135.879 232.489 135.1 229.514 135.1C226.54 135.1 223.618 135.879 221.038 137.359C218.611 138.937 216.723 141.22 215.629 143.901C213.152 150.622 213.152 158.007 215.629 164.729C216.731 167.415 218.616 169.708 221.038 171.308C223.577 172.889 226.525 173.689 229.514 173.607ZM0 36.9124V110.087H73.1733V36.9133L0 36.9124ZM51.0286 88.5535C49.6746 90.399 47.8195 91.8172 45.6835 92.6398C43.0251 93.6618 40.1917 94.151 37.3445 94.0796H20.9462V52.9194H36.3928C40.9448 52.9194 44.4707 53.8305 46.9706 55.6528C48.2004 56.5472 49.1874 57.7344 49.8422 59.1068C50.4971 60.4791 50.7989 61.9933 50.7205 63.5118C50.7649 65.303 50.2992 67.0699 49.3776 68.6065C48.4111 70.1076 47.031 71.2972 45.4037 72.0318C47.6167 72.6903 49.5655 74.0301 50.9728 75.8604C52.2934 77.7134 52.9714 79.9476 52.9035 82.222C52.9636 84.4777 52.3072 86.6943 51.0286 88.5535ZM40.5623 68.4346C41.1319 67.9535 41.5823 67.3472 41.8784 66.663C42.1745 65.9788 42.3082 65.2354 42.2691 64.4909C42.2691 61.2292 40.0489 59.5983 35.6085 59.5983H29.2843V69.8443H35.6085C37.3736 69.9645 39.1254 69.4666 40.5623 68.4346ZM36.6726 76.2918H29.2852V87.4026H36.561C38.5812 87.5279 40.5917 87.036 42.3258 85.992C42.9799 85.5434 43.5083 84.935 43.861 84.2246C44.2137 83.5142 44.3787 82.7254 44.3406 81.9331C44.3406 78.1729 41.7846 76.2925 36.6726 76.2918ZM91.4666 36.9133V110.087H164.64V36.9133H91.4666ZM142.495 88.5535C141.141 90.399 139.286 91.8172 137.15 92.6398C134.492 93.6618 131.658 94.151 128.811 94.0796H112.413V52.9194H127.859C132.411 52.9194 135.937 53.8305 138.437 55.6528C139.667 56.5472 140.654 57.7344 141.309 59.1068C141.964 60.4791 142.266 61.9933 142.187 63.5118C142.232 65.303 141.766 67.0699 140.844 68.6065C139.878 70.1076 138.498 71.2972 136.87 72.0318C139.083 72.6903 141.032 74.0301 142.439 75.8604C143.76 77.7134 144.438 79.9476 144.37 82.222C144.43 84.4777 143.774 86.6943 142.495 88.5535ZM132.029 68.4346C132.598 67.9535 133.049 67.3472 133.345 66.663C133.641 65.9788 133.775 65.2354 133.736 64.4909C133.736 61.2292 131.515 59.5983 127.075 59.5983H120.751V69.8443H127.075C128.84 69.9645 130.592 69.4666 132.029 68.4346ZM128.139 76.2918H120.752V87.4026H128.028C130.048 87.5279 132.058 87.036 133.792 85.992C134.446 85.5434 134.975 84.935 135.328 84.2246C135.68 83.5142 135.845 82.7254 135.807 81.9331C135.807 78.1729 133.251 76.2925 128.139 76.2918ZM182.933 110.087H256.106V36.9133H182.933V110.087ZM235.487 91.4715C233.619 92.474 231.626 93.2235 229.561 93.7003C227.239 94.2541 224.86 94.5288 222.473 94.5184C219.448 94.5626 216.44 94.0756 213.584 93.0795C211.075 92.2228 208.794 90.8076 206.912 88.9405C205.03 87.0735 203.597 84.8034 202.72 82.3016C201.715 79.4677 201.223 76.4773 201.268 73.4707C201.224 70.5146 201.737 67.5767 202.779 64.81C203.735 62.3106 205.221 60.0484 207.137 58.1795C209.088 56.3027 211.414 54.8602 213.963 53.9469C216.825 52.9343 219.844 52.4378 222.88 52.4806C225.059 52.4693 227.233 52.706 229.358 53.1864C231.325 53.6325 233.228 54.3245 235.022 55.246V63.2586C233.429 62.204 231.686 61.3956 229.852 60.8608C227.945 60.3089 225.969 60.0333 223.984 60.0426C221.48 59.9701 218.996 60.5125 216.751 61.6223C214.79 62.6412 213.188 64.236 212.161 66.1922C211.035 68.4491 210.486 70.9498 210.563 73.4707C210.49 75.994 211.017 78.4984 212.102 80.7776C213.078 82.7388 214.642 84.3463 216.575 85.3759C218.779 86.4866 221.225 87.0299 223.692 86.9565C227.859 86.9832 231.948 85.8288 235.486 83.6271V91.4706L235.487 91.4715ZM512 110.013C512.002 115.593 511.581 121.165 510.741 126.682C506.699 121.519 502.644 116.4 498.577 111.327C502.752 106.137 506.911 100.884 511.054 95.5697C511.684 100.358 512 105.183 512 110.013ZM352.682 132.048H395.328V72.5986C387.901 82.6837 380.618 92.6618 373.479 102.533C366.336 112.406 359.404 122.244 352.681 132.048H352.682ZM458.512 159.103H425.156V184.566H395.327V159.103H324.112V131.839C334.894 116.013 345.853 100.468 356.988 85.2022C368.122 69.9399 380.061 54.1152 392.805 37.7279H425.156V132.048H445.624C451.048 125.053 456.497 118.146 461.971 111.327C455.734 103.574 449.531 95.7004 443.361 87.7052C437.193 79.7081 431.126 71.6512 425.157 63.5347H458.512C465.295 74.075 472.549 84.7363 480.274 95.5185C487.926 84.8411 495.113 74.2825 501.835 63.8428C491.349 41.2434 473.482 22.8867 451.174 11.7932C428.867 0.699672 403.447 -2.46984 379.099 2.80616C354.75 8.08216 332.922 21.4894 317.207 40.8218C301.493 60.1542 292.827 84.2601 292.635 109.173C292.444 134.086 300.739 158.322 316.155 177.894C331.572 197.465 353.191 211.206 377.456 216.855C401.721 222.504 427.186 219.725 449.661 208.975C472.136 198.225 490.283 180.145 501.115 157.709C494.595 147.628 487.648 137.437 480.274 127.136C472.546 137.919 465.292 148.575 458.512 159.104V159.103Z" fill="white"/>
</g>
<defs>
<clipPath id="clip0_5_20">
<rect width="512" height="219.399" fill="white" transform="translate(0 0.31311)"/>
</clipPath>
</defs>
</svg>
