<svg width="512" height="220" viewBox="0 0 512 220" fill="none" xmlns="http://www.w3.org/2000/svg">
<g clip-path="url(#clip0_5_26)">
<path d="M12.2757 162.116V183.112H0V125.37H21.0774C28.6681 125.37 34.4962 126.959 38.5619 130.136C42.6258 133.313 44.6584 137.863 44.6596 143.785C44.8131 147.204 43.8906 150.586 42.0219 153.454C40.1532 156.322 37.4323 158.532 34.242 159.773C36.6647 163.595 39.0603 167.432 41.4288 171.282C43.7972 175.131 46.1663 179.075 48.536 183.112H34.242C30.3653 176.005 26.3545 169.006 22.2095 162.116H12.2757ZM12.2757 152.345H20.3514C24.1732 152.345 27.0806 151.659 29.0735 150.286C31.0646 148.911 32.0604 146.744 32.061 143.785C32.061 140.823 31.0786 138.642 29.1137 137.242C27.1476 135.842 24.2537 135.143 20.4318 135.143H12.2757V152.345ZM97.1488 183.112C95.7478 178.861 94.3481 174.689 92.9496 170.596H69.5302C68.1292 174.74 66.7295 178.912 65.331 183.112H52.0064C55.6673 172.992 59.3958 163.112 63.1921 153.473C66.9871 143.839 70.8229 134.471 74.6997 125.371H88.1048C92.0882 134.955 95.978 144.579 99.7742 154.243C103.57 163.907 107.245 173.53 110.798 183.113L97.1488 183.112ZM73.0838 160.259H89.3164C88.024 156.489 86.6916 152.734 85.3193 148.994C83.9464 145.252 82.5869 141.578 81.2408 137.97C78.4401 145.345 75.7211 152.774 73.0838 160.259ZM117.824 125.37H139.871C145.954 125.37 151.162 126.5 155.497 128.761C159.733 130.927 163.19 134.356 165.389 138.575C167.65 142.853 168.781 148.034 168.78 154.118C168.78 160.203 167.636 165.412 165.348 169.744C163.146 173.991 159.694 177.459 155.457 179.679C151.149 181.969 145.927 183.113 139.79 183.11H117.824V125.37ZM139.144 172.453C144.526 172.453 148.657 170.878 151.539 167.727C154.418 164.579 155.858 160.043 155.859 154.119C155.859 148.254 154.446 143.772 151.62 140.674C148.793 137.578 144.661 136.031 139.223 136.032H130.259V172.453H139.144ZM178.632 125.37H191.068V183.112H178.632V125.37ZM229.589 124.158C233.631 124.102 237.645 124.815 241.42 126.26C244.835 127.585 247.922 129.638 250.465 132.275C253.029 134.986 254.996 138.204 256.24 141.722C258.931 149.809 258.931 158.55 256.24 166.637C254.998 170.18 253.031 173.425 250.465 176.165C247.932 178.825 244.844 180.893 241.42 182.223C233.781 185.021 225.397 185.021 217.758 182.223C214.335 180.893 211.247 178.825 208.714 176.165C206.147 173.425 204.18 170.18 202.939 166.637C200.248 158.55 200.248 149.809 202.939 141.722C204.182 138.204 206.149 134.985 208.714 132.275C211.257 129.638 214.343 127.585 217.758 126.26C221.533 124.815 225.548 124.102 229.589 124.158ZM229.589 173.501C232.58 173.582 235.529 172.782 238.068 171.201C240.491 169.599 242.376 167.306 243.479 164.62C245.954 157.895 245.954 150.509 243.479 143.785C242.383 141.103 240.496 138.821 238.068 137.241C235.488 135.76 232.565 134.981 229.589 134.981C226.614 134.981 223.691 135.76 221.111 137.241C218.682 138.82 216.794 141.103 215.7 143.785C213.222 150.509 213.222 157.896 215.7 164.62C216.802 167.307 218.687 169.6 221.111 171.201C223.65 172.782 226.599 173.582 229.589 173.501ZM0 36.7632V109.96H73.1972V36.7632H0ZM51.0453 88.4203C49.6909 90.2667 47.8352 91.6857 45.6984 92.5089C43.0391 93.5308 40.2047 94.0198 37.3567 93.9482H20.9531V52.7746H36.4047C40.9581 52.7746 44.4852 53.6863 46.986 55.5097C48.216 56.4043 49.2033 57.5918 49.8583 58.9644C50.5133 60.3371 50.8154 61.8515 50.7371 63.3704C50.7815 65.1622 50.3156 66.9297 49.3938 68.4667C48.4269 69.9684 47.0464 71.1584 45.4186 71.8932C47.6322 72.5519 49.5817 73.8921 50.9895 75.723C52.3104 77.5767 52.9887 79.8116 52.9208 82.0867C52.9808 84.3431 52.3241 86.5604 51.0453 88.4203ZM40.5756 68.2939C41.1453 67.8127 41.5959 67.2061 41.8921 66.5217C42.1883 65.8373 42.322 65.0936 42.2829 64.3489C42.2829 61.0861 40.062 59.4547 35.6201 59.4547H29.2939V69.7049H35.6201C37.3858 69.8257 39.1384 69.3267 40.5756 68.2939ZM36.6846 76.1546H29.2948V87.269H36.573C38.5938 87.3944 40.605 86.9022 42.3396 85.858C42.9938 85.4093 43.5223 84.8009 43.8751 84.0904C44.2279 83.3799 44.3931 82.591 44.3551 81.7987C44.3551 78.036 41.7982 76.1546 36.6846 76.1546ZM91.4965 36.7632V109.96H164.694V36.7632H91.4965ZM142.542 88.4203C141.187 90.2667 139.332 91.6857 137.195 92.5089C134.536 93.5308 131.701 94.0199 128.853 93.9482H112.45V52.7746H127.901C132.454 52.7746 135.981 53.6863 138.482 55.5097C139.712 56.4043 140.7 57.5918 141.355 58.9644C142.01 60.3371 142.312 61.8515 142.234 63.3704C142.278 65.1622 141.812 66.9297 140.89 68.4667C139.923 69.9684 138.543 71.1584 136.915 71.8932C139.129 72.5519 141.078 73.8921 142.486 75.723C143.807 77.5767 144.485 79.8116 144.417 82.0867C144.477 84.3431 143.821 86.5604 142.542 88.4203ZM132.072 68.2939C132.642 67.8127 133.092 67.2061 133.389 66.5217C133.685 65.8373 133.819 65.0936 133.779 64.3489C133.779 61.0861 131.558 59.4547 127.117 59.4547H120.79V69.7049H127.117C128.882 69.8257 130.635 69.3267 132.072 68.2939ZM128.181 76.1546H120.791V87.269H128.069C130.09 87.3944 132.101 86.9022 133.836 85.858C134.49 85.4093 135.019 84.8009 135.372 84.0904C135.724 83.3799 135.89 82.591 135.852 81.7987C135.852 78.0354 133.295 76.154 128.181 76.1546ZM182.993 109.96H256.19V36.7632H182.993V109.96ZM235.564 91.3383C233.695 92.3412 231.702 93.0909 229.636 93.5678C227.313 94.1218 224.933 94.3966 222.545 94.3862C219.52 94.4304 216.511 93.9433 213.654 92.9469C211.144 92.0899 208.862 90.6742 206.98 88.8065C205.097 86.9388 203.663 84.668 202.787 82.1654C201.781 79.3306 201.289 76.3392 201.333 73.3317C201.29 70.3746 201.803 67.4357 202.845 64.6681C203.801 62.1679 205.289 59.9049 207.204 58.0355C209.156 56.1583 211.483 54.7157 214.033 53.8024C216.896 52.7891 219.916 52.2922 222.953 52.3347C225.133 52.3233 227.307 52.5602 229.433 53.0407C231.401 53.487 233.304 54.1792 235.099 55.101V63.1162C233.505 62.0613 231.762 61.2526 229.927 60.7176C228.019 60.1655 226.043 59.8899 224.057 59.8991C221.552 59.8266 219.068 60.3692 216.822 61.4793C214.86 62.4986 213.258 64.0939 212.23 66.0507C211.104 68.3084 210.555 70.8099 210.632 73.3317C210.558 75.8557 211.086 78.361 212.172 80.641C213.148 82.6031 214.712 84.2115 216.646 85.2416C218.851 86.3524 221.298 86.8955 223.765 86.8218C227.933 86.8485 232.024 85.6938 235.563 83.4913V91.3383H235.564ZM402.265 0.144531C380.561 0.144531 359.345 6.5804 341.299 18.6383C323.253 30.6962 309.188 47.8345 300.882 67.886C292.577 87.9376 290.403 110.002 294.638 131.288C298.872 152.575 309.323 172.128 324.67 187.475C340.017 202.821 359.57 213.273 380.856 217.507C402.143 221.741 424.207 219.568 444.258 211.262C464.31 202.957 481.448 188.892 493.506 170.846C505.564 152.8 512 131.584 512 109.88C512 95.4693 509.162 81.1998 503.647 67.886C498.132 54.5723 490.049 42.4752 479.859 32.2853C469.669 22.0954 457.572 14.0124 444.258 8.49764C430.945 2.98292 416.675 0.144531 402.265 0.144531ZM448.9 165.135C444.066 172.28 437.097 177.743 427.991 181.526C418.884 185.308 407.887 187.2 394.999 187.2C387.424 187.223 379.862 186.555 372.408 185.203C365.152 183.861 358.069 181.712 351.291 178.796V152.317C364.46 158.42 378.803 161.576 393.317 161.563C403.406 161.563 411.076 159.636 416.329 155.783C421.583 151.933 424.209 146.434 424.207 139.287C424.207 124.719 413 117.434 390.586 117.433C385.123 117.433 379.694 117.678 374.298 118.17C368.904 118.662 362.776 119.467 355.912 120.585L363.057 37.5799H448.748V63.4107H389.394L386.781 94.7374C389.955 94.1936 393.153 93.8078 396.365 93.5815C399.377 93.3712 402.144 93.2663 404.667 93.2669C415.312 93.2669 424.487 95.0879 432.192 98.7299C439.585 102.094 445.778 107.628 449.949 114.597C454.079 121.531 456.145 129.831 456.148 139.497C456.149 149.447 453.733 157.993 448.9 165.135Z" fill="white"/>
</g>
<defs>
<clipPath id="clip0_5_26">
<rect width="512" height="219.471" fill="white" transform="translate(0 0.144531)"/>
</clipPath>
</defs>
</svg>
