<svg width="512" height="220" viewBox="0 0 512 220" fill="none" xmlns="http://www.w3.org/2000/svg">
<g clip-path="url(#clip0_5_24)">
<path d="M12.2739 162.108V183.101H0V125.368H21.0752C28.664 125.368 34.491 126.956 38.5561 130.133C42.6193 133.309 44.6516 137.858 44.6528 143.779C44.806 147.198 43.8834 150.579 42.015 153.447C40.1466 156.314 37.4264 158.524 34.2368 159.764C36.6586 163.586 39.0541 167.422 41.4234 171.272C43.7909 175.121 46.159 179.063 48.5277 183.1H34.2368C30.3607 175.994 26.3505 168.997 22.2062 162.107L12.2739 162.108ZM12.2739 152.337H20.3473C24.1692 152.337 27.0765 151.651 29.0691 150.279C31.0593 148.904 32.055 146.737 32.0562 143.778C32.0562 140.817 31.0739 138.637 29.1093 137.236C27.1429 135.837 24.2494 135.137 20.4287 135.137H12.273L12.2739 152.337ZM97.135 183.1C95.7342 178.849 94.3344 174.677 92.9355 170.585H69.5197C68.1195 174.729 66.72 178.901 65.3211 183.1H51.9976C55.6573 172.981 59.3853 163.104 63.1816 153.467C66.9754 143.833 70.8104 134.466 74.6865 125.368H88.0905C92.0733 134.95 95.9622 144.572 99.7572 154.236C103.552 163.899 107.226 173.52 110.779 183.101L97.135 183.1ZM73.0727 160.25H89.302C88.0103 156.481 86.6785 152.727 85.3064 148.987C83.9337 145.245 82.5744 141.571 81.2285 137.965C78.4282 145.339 75.7096 152.767 73.0727 160.25ZM117.806 125.368H139.849C145.931 125.368 151.139 126.498 155.473 128.758C159.708 130.924 163.165 134.353 165.364 138.571C167.625 142.849 168.755 148.029 168.755 154.112C168.755 160.197 167.611 165.405 165.323 169.736C163.122 173.982 159.669 177.449 155.433 179.669C151.125 181.958 145.904 183.102 139.769 183.1H117.806V125.368ZM139.123 172.443C144.504 172.443 148.635 170.868 151.517 167.717C154.395 164.571 155.835 160.036 155.836 154.112C155.836 148.247 154.423 143.766 151.598 140.67C148.771 137.574 144.64 136.027 139.203 136.028H130.24V172.443H139.123ZM178.605 125.368H191.04V183.1H178.605V125.368ZM229.555 124.156C233.595 124.099 237.609 124.812 241.383 126.257C244.798 127.583 247.884 129.635 250.427 132.272C252.991 134.982 254.958 138.2 256.201 141.718C258.892 149.803 258.892 158.543 256.201 166.629C254.959 170.171 252.993 173.416 250.427 176.156C247.894 178.815 244.807 180.883 241.384 182.213C233.746 185.011 225.363 185.011 217.725 182.213C214.302 180.884 211.214 178.815 208.682 176.156C206.116 173.417 204.15 170.172 202.909 166.629C200.218 158.543 200.218 149.803 202.909 141.718C204.151 138.2 206.118 134.982 208.682 132.273C211.224 129.635 214.31 127.582 217.725 126.257C221.499 124.812 225.514 124.099 229.555 124.156ZM229.555 173.491C232.545 173.572 235.493 172.772 238.033 171.192C240.456 169.59 242.341 167.298 243.443 164.611C245.918 157.888 245.918 150.503 243.443 143.779C242.348 141.099 240.46 138.816 238.033 137.236C235.453 135.756 232.53 134.977 229.555 134.977C226.58 134.977 223.657 135.756 221.077 137.236C218.649 138.815 216.761 141.098 215.667 143.779C213.19 150.502 213.19 157.888 215.667 164.611C216.769 167.298 218.654 169.591 221.077 171.192C223.616 172.773 226.564 173.572 229.555 173.491ZM0 36.7724V109.959H73.1861V36.7724H0ZM51.0375 88.4226C49.6836 90.2689 47.8281 91.6878 45.6915 92.5105C43.0325 93.5321 40.1986 94.0211 37.351 93.9497H20.9499V52.7832H36.3992C40.9519 52.7832 44.4785 53.6944 46.9788 55.517C48.2087 56.4114 49.1958 57.5987 49.8507 58.9712C50.5057 60.3436 50.8077 61.8578 50.7294 63.3765C50.7738 65.1681 50.3077 66.9354 49.3853 68.472C48.4191 69.9735 47.039 71.1633 45.4117 71.898C47.6247 72.5567 49.5735 73.8967 50.9808 75.7272C52.3019 77.5801 52.9804 79.8144 52.9128 82.0891C52.973 84.3454 52.3165 86.5627 51.0375 88.4226ZM40.5685 68.2992C41.1379 67.8181 41.5883 67.2117 41.8844 66.5276C42.1805 65.8435 42.3144 65.1002 42.2756 64.3557C42.2756 61.0934 40.0553 59.462 35.6147 59.4614H29.2894V69.7109H35.6147C37.38 69.8312 39.1319 69.332 40.5685 68.2992ZM36.6781 76.1588H29.2894V87.2714H36.5665C38.587 87.3968 40.5979 86.9048 42.3323 85.8606C42.9864 85.4119 43.5149 84.8034 43.8676 84.0928C44.2203 83.3823 44.3855 82.5934 44.3474 81.801C44.3474 78.0401 41.791 76.1594 36.6781 76.1588ZM91.4817 36.7734V109.959H164.668V36.7724L91.4817 36.7734ZM142.519 88.4226C141.165 90.2689 139.31 91.6878 137.173 92.5105C134.514 93.5321 131.68 94.0211 128.833 93.9497H112.432V52.7832H127.881C132.434 52.7832 135.96 53.6944 138.461 55.517C139.69 56.4114 140.678 57.5987 141.332 58.9712C141.987 60.3436 142.289 61.8578 142.211 63.3765C142.256 65.1681 141.789 66.9354 140.867 68.472C139.901 69.9735 138.521 71.1633 136.893 71.898C139.106 72.5567 141.055 73.8967 142.463 75.7272C143.784 77.5801 144.462 79.8144 144.395 82.0891C144.455 84.3454 143.798 86.5627 142.519 88.4226ZM132.051 68.2992C132.621 67.8182 133.071 67.2119 133.368 66.5278C133.664 65.8436 133.798 65.1003 133.759 64.3557C133.759 61.0934 131.539 59.462 127.097 59.4614H120.772V69.7109H127.097C128.863 69.8312 130.614 69.332 132.051 68.2992ZM128.161 76.1588H120.772V87.2714H128.049C130.07 87.3968 132.081 86.9048 133.815 85.8606C134.469 85.4119 134.998 84.8034 135.35 84.0928C135.703 83.3823 135.868 82.5934 135.83 81.801C135.83 78.0401 133.274 76.1594 128.161 76.1588ZM182.965 109.959H256.15V36.7734H182.965V109.959ZM235.527 91.3411C233.659 92.3439 231.666 93.0935 229.6 93.5702C227.278 94.1243 224.898 94.399 222.511 94.3885C219.486 94.4327 216.477 93.9456 213.621 92.9494C211.117 92.0714 208.836 90.6554 206.939 88.8011C205.073 86.9257 203.645 84.6616 202.755 82.1704C201.749 79.3362 201.257 76.3452 201.301 73.3381C201.258 70.3815 201.771 67.4431 202.812 64.6758C203.769 62.176 205.256 59.9135 207.171 58.0442C209.123 56.1673 211.449 54.7246 213.998 53.8109C216.861 52.7978 219.881 52.3012 222.917 52.3443C225.097 52.3326 227.271 52.5691 229.397 53.0492C231.365 53.4957 233.268 54.1878 235.062 55.1092V63.1232C233.469 62.0681 231.726 61.2596 229.891 60.725C227.984 60.1729 226.007 59.8973 224.022 59.9067C221.518 59.8339 219.034 60.3764 216.788 61.4866C214.827 62.5061 213.225 64.1015 212.198 66.0582C211.072 68.3155 210.522 70.8166 210.599 73.3381C210.526 75.8618 211.054 78.3668 212.139 80.6462C213.115 82.6077 214.679 84.2156 216.613 85.2453C218.817 86.3563 221.264 86.8997 223.731 86.8262C227.899 86.8528 231.989 85.6982 235.527 83.4962V91.3411ZM369.337 94.2367C372.423 93.6982 375.534 93.3161 378.659 93.092C381.588 92.8835 384.28 92.7796 386.733 92.7802C397.086 92.7802 406.01 94.5848 413.505 98.1939C420.727 101.557 426.752 107.043 430.776 113.919C434.792 120.792 436.801 129.018 436.805 138.597C436.805 140.245 436.734 141.851 436.602 143.422C438.78 140.55 440.954 137.677 443.158 134.821C449.329 126.824 455.533 118.949 461.77 111.195C455.533 103.44 449.329 95.5643 443.158 87.5677C436.989 79.5698 430.919 71.5118 424.95 63.3939H371.789L369.337 94.2367ZM511.025 95.226C506.826 100.596 502.612 105.919 498.384 111.194C502.508 116.321 506.616 121.509 510.708 126.756C512.316 116.315 512.423 105.697 511.025 95.226ZM458.312 158.994H432.573C431.756 160.73 430.814 162.405 429.755 164.005C425.053 171.086 418.275 176.501 409.418 180.25C400.561 183.999 389.865 185.873 377.33 185.873C369.961 185.896 362.605 185.234 355.358 183.894C348.293 182.562 341.403 180.432 334.819 177.543V151.302C347.598 157.344 361.559 160.473 375.695 160.464C385.506 160.464 392.967 158.555 398.076 154.738C403.186 150.921 405.74 145.472 405.738 138.389C405.738 123.952 394.838 116.732 373.038 116.729C367.725 116.729 362.444 116.973 357.197 117.461C351.95 117.948 345.989 118.746 339.314 119.853L346.263 37.5908H424.95V63.3939H458.312C465.095 73.9354 472.35 84.5983 480.077 95.3824C487.772 84.6452 494.997 74.0278 501.753 63.5301C491.233 40.9584 473.347 22.637 451.035 11.5768C428.723 0.516608 403.312 -2.62437 378.979 2.67008C354.645 7.96453 332.837 21.3794 317.137 40.7101C301.437 60.0408 292.781 84.1373 292.59 109.039C292.399 133.942 300.685 158.168 316.087 177.737C331.488 197.306 353.088 211.054 377.338 216.721C401.587 222.388 427.043 219.637 449.522 208.92C472.001 198.203 490.166 180.158 501.031 157.75C494.478 147.613 487.494 137.365 480.077 127.005C472.348 137.791 465.093 148.453 458.312 158.994Z" fill="white"/>
</g>
<defs>
<clipPath id="clip0_5_24">
<rect width="512" height="219.489" fill="white" transform="translate(0 0.135559)"/>
</clipPath>
</defs>
</svg>
