<svg width="512" height="220" viewBox="0 0 512 220" fill="none" xmlns="http://www.w3.org/2000/svg">
<g clip-path="url(#clip0_5_22)">
<path d="M399.838 114.815C394.956 114.785 390.11 115.64 385.534 117.339C381.034 119.029 376.842 121.445 373.124 124.49C373.965 137.111 376.735 146.647 381.433 153.098C386.13 159.55 392.686 162.775 401.1 162.773C405.302 162.884 409.452 161.829 413.09 159.725C416.473 157.673 419.179 154.674 420.873 151.1C422.768 147.055 423.704 142.628 423.609 138.162C423.609 130.872 421.505 125.157 417.298 121.019C413.089 116.885 407.269 114.817 399.838 114.815ZM402.3 0.180359C380.604 0.180359 359.395 6.61413 341.355 18.6681C323.315 30.722 309.254 47.8548 300.951 67.8997C292.648 87.9447 290.476 110.002 294.709 131.281C298.941 152.561 309.389 172.108 324.731 187.449C340.073 202.791 359.619 213.239 380.899 217.472C402.179 221.704 424.236 219.532 444.281 211.229C464.326 202.926 481.458 188.866 493.512 170.826C505.566 152.786 512 131.576 512 109.88C512 95.474 509.163 81.2091 503.65 67.8997C498.137 54.5904 490.056 42.4972 479.87 32.3106C469.683 22.1241 457.59 14.0437 444.281 8.53074C430.971 3.01782 416.706 0.180359 402.3 0.180359ZM450.953 158.462C448.508 164.311 444.81 169.552 440.12 173.817C435.258 178.192 429.573 181.553 423.397 183.704C416.499 186.091 409.24 187.266 401.941 187.174C389.32 187.174 378.522 184.44 369.547 178.971C360.571 173.503 353.735 165.58 349.038 155.201C344.337 144.825 341.988 132.204 341.99 117.338C341.99 104.578 343.638 93.0785 346.934 82.8399C349.866 73.2577 354.734 64.3797 361.238 56.7561C367.48 49.6018 375.291 43.9866 384.061 40.3487C393.034 36.5622 403.13 34.6693 414.351 34.6699C420.004 34.6321 425.645 35.1959 431.179 36.352C436.731 37.5932 442.154 39.3544 447.376 41.6121V67.4847C442.365 65.3924 437.195 63.7043 431.916 62.4367C426.773 61.2822 421.515 60.7175 416.244 60.7537C391.002 60.7537 376.769 74.9879 373.544 103.456C383.077 95.6121 395.064 91.3679 407.41 91.4651C417.086 91.4651 425.466 93.3586 432.547 97.1457C439.497 100.804 445.206 106.44 448.955 113.342C452.809 120.357 454.737 128.7 454.739 138.374C454.845 145.257 453.557 152.09 450.953 158.462ZM12.2717 162.093V183.082H0V125.359H21.0705C28.6587 125.359 34.485 126.948 38.5494 130.124C42.6119 133.3 44.6438 137.848 44.645 143.768C44.7983 147.186 43.876 150.567 42.0079 153.434C40.1398 156.301 37.4199 158.51 34.2308 159.75C36.6522 163.572 39.047 167.406 41.4153 171.255C43.7829 175.104 46.1512 179.046 48.5201 183.082H34.2308C30.3554 175.977 26.3459 168.98 22.2023 162.092L12.2717 162.093ZM12.2717 152.325H20.3447C24.1647 152.325 27.0711 151.639 29.064 150.267C31.0544 148.892 32.05 146.726 32.0506 143.768C32.0506 140.807 31.0684 138.626 29.1042 137.226C27.1388 135.828 24.2457 135.128 20.4252 135.128H12.2717V152.325ZM97.118 183.082C95.7175 178.833 94.3182 174.662 92.9201 170.57H69.5084C68.1079 174.713 66.7086 178.884 65.3106 183.082H51.9903C55.65 172.966 59.3773 163.089 63.1723 153.454C66.9661 143.822 70.8007 134.458 74.6762 125.36H88.0769C92.059 134.941 95.9475 144.562 99.7425 154.223C103.537 163.884 107.21 173.504 110.763 183.083L97.118 183.082ZM73.0599 160.236H89.2872C87.9952 156.468 86.6633 152.714 85.2914 148.975C83.919 145.234 82.5599 141.561 81.2143 137.955C78.4145 145.327 75.6964 152.754 73.0599 160.236ZM117.785 125.359H139.825C145.906 125.359 151.113 126.489 155.446 128.749C159.68 130.914 163.136 134.343 165.335 138.56C167.596 142.837 168.726 148.016 168.724 154.098C168.724 160.181 167.581 165.389 165.294 169.719C163.093 173.964 159.641 177.431 155.406 179.651C151.1 181.94 145.879 183.083 139.744 183.081H117.785V125.359ZM139.098 172.427C144.478 172.427 148.609 170.852 151.49 167.703C154.367 164.556 155.807 160.022 155.808 154.099C155.808 148.236 154.395 143.755 151.57 140.659C148.745 137.564 144.614 136.016 139.179 136.018H130.217V172.427H139.098ZM178.574 125.359H191.005V183.082H178.574V125.359ZM229.514 124.148C233.554 124.092 237.568 124.804 241.341 126.249C244.755 127.574 247.841 129.626 250.383 132.262C252.946 134.972 254.913 138.19 256.156 141.707C258.846 149.791 258.846 158.529 256.156 166.613C254.915 170.155 252.948 173.399 250.383 176.138C247.851 178.797 244.764 180.865 241.341 182.194C233.704 184.991 225.324 184.991 217.687 182.194C214.265 180.864 211.178 178.797 208.646 176.138C206.08 173.399 204.114 170.155 202.873 166.613C200.183 158.529 200.183 149.791 202.873 141.707C204.114 138.189 206.081 134.971 208.646 132.262C211.188 129.626 214.273 127.574 217.687 126.249C221.46 124.804 225.474 124.091 229.514 124.148ZM229.514 173.475C232.504 173.556 235.452 172.756 237.991 171.176C240.412 169.574 242.297 167.282 243.4 164.596C245.874 157.874 245.874 150.49 243.4 143.768C242.304 141.088 240.417 138.806 237.991 137.226C235.411 135.746 232.489 134.967 229.514 134.967C226.54 134.967 223.618 135.746 221.038 137.226C218.611 138.805 216.723 141.087 215.629 143.768C213.152 150.49 213.152 157.874 215.629 164.596C216.731 167.283 218.616 169.575 221.038 171.176C223.577 172.756 226.525 173.556 229.514 173.475ZM0 36.7807V109.954H73.1733V36.7807H0ZM51.0286 88.4209C49.6747 90.2667 47.8196 91.6853 45.6835 92.5081C43.025 93.5297 40.1916 94.0186 37.3445 93.947H20.9462V52.7868H36.3928C40.9448 52.7868 44.4707 53.6982 46.9706 55.5211C48.2002 56.4154 49.1872 57.6024 49.842 58.9746C50.4968 60.3468 50.7988 61.8608 50.7205 63.3792C50.7649 65.1704 50.2992 66.9373 49.3776 68.4738C48.4111 69.975 47.031 71.1646 45.4037 71.8992C47.6167 72.5577 49.5655 73.8974 50.9728 75.7277C52.2934 77.5808 52.9714 79.815 52.9035 82.0894C52.9636 84.345 52.3072 86.5616 51.0286 88.4209ZM40.5623 68.302C41.1319 67.8209 41.5823 67.2145 41.8784 66.5304C42.1745 65.8462 42.3082 65.1028 42.2691 64.3583C42.2691 61.0965 40.0489 59.4657 35.6085 59.4657H29.2843V69.7125H35.6085C37.3736 69.8328 39.1254 69.334 40.5623 68.302ZM36.6726 76.1592H29.2852V87.27H36.561C38.5812 87.3953 40.5917 86.9033 42.3258 85.8594C42.9797 85.4109 43.5081 84.8026 43.8608 84.0924C44.2134 83.3821 44.3786 82.5935 44.3406 81.8014C44.3406 78.0406 41.7846 76.1598 36.6726 76.1592ZM91.4666 36.7807V109.954H164.64V36.7807H91.4666ZM142.495 88.4209C141.141 90.2667 139.286 91.6853 137.15 92.5081C134.492 93.5297 131.658 94.0186 128.811 93.947H112.413V52.7868H127.859C132.411 52.7868 135.937 53.6982 138.437 55.5211C139.667 56.4154 140.654 57.6024 141.309 58.9746C141.963 60.3468 142.265 61.8608 142.187 63.3792C142.232 65.1704 141.766 66.9373 140.844 68.4738C139.878 69.975 138.498 71.1646 136.87 71.8992C139.083 72.5577 141.032 73.8974 142.439 75.7277C143.76 77.5808 144.438 79.815 144.37 82.0894C144.43 84.345 143.774 86.5617 142.495 88.4209ZM132.029 68.302C132.598 67.8209 133.049 67.2145 133.345 66.5304C133.641 65.8462 133.775 65.1028 133.736 64.3583C133.736 61.0965 131.515 59.4657 127.075 59.4657H120.751V69.7125H127.075C128.84 69.8328 130.592 69.334 132.029 68.302ZM128.139 76.1592H120.752V87.27H128.028C130.048 87.3953 132.058 86.9033 133.792 85.8594C134.446 85.4109 134.975 84.8026 135.327 84.0924C135.68 83.3821 135.845 82.5935 135.807 81.8014C135.807 78.0406 133.251 76.1598 128.139 76.1592ZM182.933 109.954H256.106V36.7807H182.933V109.954ZM235.487 91.3389C233.619 92.3414 231.626 93.0909 229.561 93.5676C227.239 94.1215 224.86 94.3961 222.473 94.3858C219.448 94.43 216.44 93.943 213.584 92.9469C211.075 92.0902 208.794 90.6749 206.912 88.8079C205.03 86.9408 203.597 84.6707 202.72 82.1689C201.715 79.3351 201.223 76.3447 201.268 73.3381C201.224 70.382 201.737 67.4441 202.779 64.6773C203.735 62.178 205.221 59.9158 207.137 58.0469C209.088 56.1704 211.414 54.7282 213.963 53.8152C216.825 52.8023 219.844 52.3055 222.88 52.348C225.059 52.3366 227.233 52.5734 229.358 53.0537C231.325 53.4999 233.228 54.1918 235.022 55.1133V63.126C233.429 62.0714 231.686 61.263 229.852 60.7281C227.945 60.1762 225.969 59.9007 223.984 59.91C221.48 59.8375 218.996 60.3799 216.751 61.4896C214.79 62.5086 213.188 64.1033 212.161 66.0595C211.035 68.3165 210.486 70.8172 210.563 73.3381C210.49 75.8613 211.017 78.3658 212.102 80.645C213.078 82.6065 214.642 84.2144 216.575 85.2442C218.779 86.3545 221.225 86.8975 223.692 86.8238C227.859 86.8506 231.948 85.6962 235.486 83.4945V91.3389H235.487Z" fill="white"/>
</g>
<defs>
<clipPath id="clip0_5_22">
<rect width="512" height="219.399" fill="white" transform="translate(0 0.180359)"/>
</clipPath>
</defs>
</svg>
