<svg width="512" height="220" viewBox="0 0 512 220" fill="none" xmlns="http://www.w3.org/2000/svg">
<g clip-path="url(#clip0_5_28)">
<path d="M412.095 94.607C408.66 85.0951 405.259 75.7507 401.892 66.5739C394.885 85.334 388.082 104.228 381.483 123.257H422.097C418.865 113.676 415.531 104.126 412.095 94.607ZM402.296 0.0428467C380.598 0.0428467 359.388 6.47689 341.347 18.5314C323.306 30.5858 309.245 47.7193 300.942 67.7651C292.639 87.811 290.466 109.869 294.699 131.149C298.932 152.43 309.381 171.977 324.723 187.32C340.065 202.662 359.613 213.111 380.893 217.343C402.174 221.576 424.232 219.404 444.278 211.101C464.324 202.797 481.457 188.736 493.511 170.696C505.566 152.655 512 131.445 512 109.747C512 80.6517 500.442 52.748 479.868 32.1745C459.295 11.6009 431.391 0.0428467 402.296 0.0428467ZM356.732 106.005C366.229 81.4992 375.826 57.6757 385.526 34.5348H419.067C429.033 58.9068 438.766 83.3815 448.265 107.959C456.629 129.604 464.753 151.168 472.637 172.652H438.843C436.324 164.94 433.773 157.238 431.19 149.547H372.592C370.049 157.201 367.508 164.928 364.966 172.652H331.884C340.037 149.963 348.319 127.747 356.732 106.005ZM12.2723 161.969V182.959H0V125.234H21.0715C28.6599 125.234 34.4865 126.822 38.551 129.999C42.6137 133.174 44.6457 137.723 44.6469 143.643C44.8002 147.062 43.8778 150.442 42.0097 153.309C40.1415 156.176 37.4215 158.385 34.2323 159.626C36.6543 163.447 39.0492 167.282 41.417 171.131C43.7848 174.98 46.1532 178.922 48.5222 182.958H34.2323C30.3567 175.853 26.347 168.856 22.2032 161.968H12.2723V161.969ZM12.2723 152.2H20.3456C24.1657 152.2 27.0723 151.514 29.0652 150.142C31.0558 148.767 32.0513 146.601 32.0519 143.643C32.0519 140.682 31.0698 138.501 29.1055 137.101C27.1399 135.702 24.2468 135.003 20.426 135.003H12.2723V152.2ZM97.1221 182.958C95.7216 178.708 94.3222 174.538 92.9241 170.446H69.5114C68.1108 174.589 66.7115 178.76 65.3134 182.958H51.9925C55.6524 172.841 59.3799 162.964 63.175 153.328C66.969 143.696 70.8038 134.331 74.6794 125.234H88.0807C92.0629 134.815 95.9516 144.436 99.7468 154.098C103.541 163.759 107.215 173.38 110.768 182.959L97.1221 182.958ZM73.0631 160.111H89.2911C87.999 156.343 86.667 152.589 85.2951 148.85C83.9226 145.109 82.5634 141.436 81.2177 137.83C78.4178 145.202 75.6996 152.63 73.0631 160.111ZM117.79 125.234H139.831C145.912 125.234 151.119 126.364 155.453 128.624C159.687 130.789 163.143 134.218 165.342 138.435C167.603 142.712 168.733 147.892 168.732 153.974C168.732 160.057 167.588 165.265 165.302 169.595C163.1 173.841 159.648 177.308 155.413 179.527C151.106 181.816 145.885 182.96 139.75 182.957H117.79V125.234ZM139.104 172.303C144.485 172.303 148.615 170.728 151.496 167.579C154.374 164.432 155.814 159.897 155.815 153.974C155.815 148.111 154.402 143.631 151.577 140.534C148.75 137.438 144.62 135.891 139.185 135.892H130.223V172.303H139.104ZM178.581 125.234H191.013V182.959H178.581V125.234ZM229.524 124.022C233.564 123.966 237.578 124.679 241.351 126.123C244.766 127.448 247.851 129.5 250.394 132.137C252.957 134.847 254.924 138.064 256.167 141.581C258.857 149.666 258.857 158.404 256.167 166.489C254.926 170.031 252.959 173.275 250.394 176.014C247.862 178.673 244.774 180.741 241.351 182.071C233.714 184.868 225.333 184.868 217.696 182.071C214.274 180.741 211.187 178.673 208.655 176.014C206.089 173.275 204.123 170.031 202.882 166.489C200.191 158.404 200.191 149.666 202.882 141.581C204.123 138.064 206.09 134.846 208.655 132.137C211.197 129.5 214.282 127.448 217.696 126.123C221.47 124.679 225.484 123.966 229.524 124.022ZM229.524 173.351C232.514 173.432 235.462 172.632 238.001 171.052C240.423 169.451 242.307 167.158 243.41 164.472C245.884 157.75 245.884 150.366 243.41 143.643C242.315 140.963 240.428 138.68 238.001 137.101C235.421 135.621 232.498 134.842 229.524 134.842C226.55 134.842 223.628 135.621 221.048 137.101C218.62 138.679 216.733 140.962 215.638 143.643C213.162 150.365 213.162 157.75 215.638 164.472C216.74 167.159 218.625 169.451 221.048 171.052C223.587 172.632 226.534 173.432 229.524 173.351ZM0 36.6512V109.828H73.1764V36.6512H0ZM51.0308 88.2935C49.6768 90.1394 47.8216 91.558 45.6854 92.3809C43.0268 93.4026 40.1933 93.8915 37.3461 93.8199H20.9471V52.6579H36.3944C40.9465 52.6579 44.4726 53.5694 46.9726 55.3923C48.2023 56.2867 49.1893 57.4738 49.8441 58.846C50.499 60.2183 50.801 61.7323 50.7227 63.2508C50.7671 65.0421 50.3013 66.809 49.3797 68.3456C48.4132 69.8469 47.033 71.0365 45.4057 71.7712C47.6187 72.4297 49.5676 73.7695 50.975 75.5998C52.2956 77.453 52.9737 79.6873 52.9058 81.9618C52.9658 84.2175 52.3094 86.4342 51.0308 88.2935ZM40.5641 68.1729C41.1336 67.6918 41.5841 67.0854 41.8802 66.4012C42.1763 65.717 42.31 64.9735 42.2709 64.229C42.2709 60.9671 40.0506 59.3362 35.61 59.3362H29.2856V69.5835H35.61C37.3753 69.7047 39.1274 69.2058 40.5641 68.1729ZM36.6741 76.0314H29.2865V87.1426H36.5626C38.5829 87.2679 40.5934 86.7759 42.3276 85.732C42.9816 85.2834 43.51 84.6751 43.8626 83.9649C44.2153 83.2546 44.3805 82.4659 44.3425 81.6738C44.3425 77.9116 41.7864 76.0307 36.6741 76.0314ZM91.4705 36.6512V109.828H164.647V36.6512H91.4705ZM142.501 88.2935C141.147 90.1394 139.292 91.558 137.156 92.3809C134.497 93.4026 131.664 93.8915 128.817 93.8199H112.418V52.6579H127.865C132.416 52.6579 135.943 53.5694 138.443 55.3923C139.673 56.2867 140.66 57.4738 141.315 58.846C141.97 60.2183 142.271 61.7323 142.193 63.2508C142.238 65.0421 141.772 66.809 140.85 68.3456C139.884 69.8469 138.504 71.0365 136.876 71.7712C139.089 72.4297 141.038 73.7695 142.446 75.5998C143.766 77.453 144.444 79.6873 144.376 81.9618C144.436 84.2175 143.78 86.4343 142.501 88.2935ZM132.035 68.1729C132.604 67.6918 133.055 67.0854 133.351 66.4012C133.647 65.717 133.781 64.9735 133.741 64.229C133.741 60.9671 131.521 59.3362 127.081 59.3362H120.756V69.5835H127.081C128.846 69.7047 130.598 69.2058 132.035 68.1729ZM128.145 76.0314H120.757V87.1426H128.033C130.053 87.2679 132.064 86.7759 133.798 85.732C134.452 85.2834 134.981 84.6751 135.333 83.9649C135.686 83.2546 135.851 82.4659 135.813 81.6738C135.813 77.9116 133.257 76.0307 128.145 76.0314ZM182.941 109.828H256.117V36.6512H182.941V109.828ZM235.497 91.2117C233.629 92.2142 231.636 92.9638 229.571 93.4405C227.249 93.9944 224.869 94.2691 222.482 94.2587C219.458 94.3029 216.449 93.8159 213.593 92.8198C211.085 91.963 208.803 90.5477 206.921 88.6806C205.039 86.8134 203.606 84.5433 202.729 82.0413C201.724 79.2073 201.232 76.2168 201.276 73.2101C201.233 70.2539 201.746 67.3159 202.787 64.549C203.743 62.0495 205.23 59.7872 207.145 57.9183C209.097 56.0416 211.423 54.5994 213.972 53.6864C216.834 52.6734 219.854 52.1766 222.89 52.2191C225.069 52.2078 227.242 52.4445 229.368 52.9249C231.335 53.371 233.238 54.063 235.032 54.9846V62.9976C233.439 61.9429 231.696 61.1345 229.862 60.5996C227.955 60.0477 225.978 59.7721 223.993 59.7814C221.489 59.7089 219.006 60.2513 216.76 61.3611C214.799 62.3801 213.197 63.9749 212.17 65.9312C211.044 68.1883 210.495 70.6891 210.572 73.2101C210.499 75.7335 211.026 78.2381 212.111 80.5173C213.087 82.4789 214.651 84.0869 216.585 85.1167C218.789 86.2271 221.235 86.7701 223.702 86.6964C227.869 86.7232 231.958 85.5687 235.496 83.3669V91.2117H235.497Z" fill="white"/>
</g>
<defs>
<clipPath id="clip0_5_28">
<rect width="512" height="219.409" fill="white" transform="translate(0 0.0428467)"/>
</clipPath>
</defs>
</svg>
