<svg width="512" height="306" viewBox="0 0 512 306" fill="none" xmlns="http://www.w3.org/2000/svg">
<g clip-path="url(#clip0_5_60)">
<path d="M104.054 0.0541992V86.2992H190.299V0.0541992H104.054ZM164.094 60.8582C162.568 62.8935 160.533 64.5471 157.861 65.692C155.19 66.8368 151.883 67.3456 148.067 67.3456H128.731V18.8805H146.922C152.264 18.8805 156.462 19.8982 159.388 22.0607C162.314 24.2231 163.84 27.2761 163.84 31.3466C163.84 33.6363 163.331 35.6716 162.314 37.3253C161.296 38.9789 159.642 40.3782 157.607 41.3958C160.405 42.2862 162.695 43.8127 164.222 45.848C165.748 47.8833 166.511 50.4274 166.511 53.3531C166.384 56.2788 165.621 58.8229 164.094 60.8582ZM151.756 37.1981C153.155 36.0532 153.791 34.5267 153.791 32.4915C153.791 28.6753 151.119 26.7672 145.904 26.7672H138.399V38.8517H145.904C148.575 38.8517 150.483 38.3429 151.756 37.1981ZM147.176 46.484H138.526V59.5861H147.049C149.975 59.5861 152.264 59.0773 153.791 57.9325C155.317 56.7876 156.208 55.2612 156.208 53.0987C156.208 48.6465 153.282 46.484 147.176 46.484ZM211.796 0.0541992V86.2992H297.914V0.0541992H211.796ZM271.837 60.8582C270.311 62.8935 268.275 64.5471 265.604 65.692C262.933 66.8368 259.625 67.3456 255.809 67.3456H236.474V18.8805H254.664C260.007 18.8805 264.205 19.8982 267.13 22.0607C270.056 24.2231 271.583 27.2761 271.583 31.3466C271.583 33.6363 271.074 35.6716 270.056 37.3253C269.039 38.9789 267.385 40.3782 265.35 41.3958C268.148 42.2862 270.438 43.8127 271.964 45.848C273.491 47.8833 274.254 50.4274 274.254 53.3531C274.127 56.2788 273.363 58.8229 271.837 60.8582ZM259.498 37.1981C260.897 36.0532 261.533 34.5267 261.533 32.4915C261.533 28.6753 258.862 26.7672 253.647 26.7672H246.142V38.8517H253.647C256.318 38.8517 258.226 38.3429 259.498 37.1981ZM254.919 46.484H246.269V59.5861H254.792C257.717 59.5861 260.007 59.0773 261.533 57.9325C263.06 56.7876 263.95 55.2612 263.95 53.0987C263.95 48.6465 261.025 46.484 254.919 46.484ZM319.539 86.2992H405.784V0.0541992H319.539V86.2992ZM381.488 64.2927C379.452 65.4376 377.163 66.328 374.491 66.964C371.82 67.6 369.022 67.9817 366.096 67.9817C362.28 67.9817 358.718 67.4728 355.665 66.328C352.612 65.1831 349.941 63.5295 347.778 61.4942C345.616 59.3317 343.962 56.7876 342.817 53.7347C341.673 50.6818 341.164 47.2472 341.164 43.3039C341.164 39.4877 341.8 36.1804 342.945 33.1275C344.089 30.0746 345.87 27.5305 348.033 25.368C350.322 23.2055 352.994 21.5518 356.047 20.407C359.227 19.2621 362.661 18.6261 366.605 18.6261C369.276 18.6261 371.82 18.8805 374.237 19.5166C376.654 20.0254 378.816 20.9158 380.852 21.9335V31.3466C378.944 30.0746 376.908 29.1841 374.746 28.5481C372.583 27.9121 370.294 27.5305 367.877 27.5305C364.569 27.5305 361.644 28.1665 359.354 29.4385C357.064 30.7106 355.156 32.4915 353.884 34.7812C352.612 37.0708 351.976 39.9966 351.976 43.3039C351.976 46.6112 352.612 49.5369 353.757 51.9538C354.902 54.3707 356.683 56.1516 358.972 57.4236C361.262 58.6957 364.061 59.3317 367.368 59.3317C372.329 59.3317 377.036 58.0597 381.233 55.3884V64.2927H381.488ZM112.322 304.965C108.76 304.965 105.707 303.82 103.545 301.657C101.255 299.495 100.11 296.569 100.11 293.007V237.037C100.11 233.221 101.255 230.295 103.545 227.878C105.835 225.589 108.887 224.444 112.704 224.444H131.784C143.233 224.444 152.01 226.733 158.116 231.313C164.222 235.892 167.275 242.634 167.275 251.411C167.275 255.991 166.257 260.061 164.222 263.75C162.186 267.312 159.388 270.365 155.699 272.782C157.353 275.199 158.879 277.488 160.533 279.905C162.059 282.322 163.586 284.612 164.985 287.029C165.748 288.301 166.384 289.7 166.893 290.972C167.275 292.244 167.529 293.516 167.529 294.788C167.529 297.714 166.511 300.131 164.476 302.039C162.441 303.947 159.642 304.965 156.208 304.965C153.664 304.965 151.501 304.328 149.72 303.056C147.939 301.784 146.286 299.876 144.759 297.459C142.851 294.152 141.07 291.099 139.162 288.046C137.254 284.993 135.473 281.94 133.565 278.887H124.534V293.134C124.534 296.696 123.389 299.622 121.226 301.784C118.937 303.82 116.011 304.965 112.322 304.965ZM124.534 259.552H130.767C134.583 259.552 137.381 258.789 139.035 257.39C140.689 255.991 141.579 254.083 141.579 251.538C141.579 248.994 140.689 246.959 139.035 245.687C137.381 244.415 134.583 243.779 130.639 243.779H124.534V259.552ZM197.549 305.346C189.917 305.346 184.066 302.675 179.995 297.205C175.924 291.735 173.889 283.976 173.889 273.799C173.889 262.732 176.942 254.337 183.175 248.613C189.408 242.888 198.058 239.963 209.379 239.963C212.305 239.963 214.976 240.09 217.52 240.472C220.065 240.853 222.481 241.362 224.644 242.125C228.333 243.397 231.259 245.305 233.421 248.104C235.584 250.902 236.728 254.464 236.728 258.916V292.117C236.728 295.806 235.584 298.859 233.421 301.148C231.131 303.438 228.206 304.583 224.644 304.583C221.845 304.583 219.556 303.82 217.52 302.293C215.485 300.767 214.34 298.731 213.959 296.187C211.923 299.113 209.634 301.403 206.962 302.929C204.037 304.583 200.984 305.346 197.549 305.346ZM211.415 282.195V260.697C210.143 260.316 208.871 260.188 207.344 260.188C204.8 260.188 202.638 261.333 201.238 263.496C199.712 265.658 198.949 268.966 198.949 273.036C198.949 281.177 201.238 285.248 205.945 285.248C208.235 285.248 210.015 284.23 211.415 282.195ZM267.766 305.346C260.134 305.346 254.283 302.675 250.212 297.205C246.142 291.735 244.106 283.976 244.106 273.799C244.106 266.803 245.251 260.824 247.668 255.736C250.085 250.775 253.52 246.832 257.972 244.033C262.424 241.235 267.766 239.963 273.872 239.963C276.798 239.963 279.342 240.344 281.759 241.108V230.041C281.759 226.352 282.904 223.299 285.194 221.009C287.483 218.72 290.536 217.575 294.225 217.575C297.914 217.575 300.967 218.72 303.257 221.009C305.546 223.299 306.691 226.352 306.691 230.041V292.244C306.691 295.933 305.546 298.986 303.384 301.276C301.094 303.565 298.168 304.71 294.607 304.71C291.808 304.71 289.519 303.947 287.483 302.42C285.448 300.894 284.303 298.859 283.921 296.315C281.886 299.24 279.597 301.53 276.925 303.056C274.254 304.583 271.201 305.346 267.766 305.346ZM281.632 282.195V260.697C280.36 260.316 279.088 260.188 277.561 260.188C275.017 260.188 272.855 261.333 271.455 263.496C269.929 265.658 269.166 268.966 269.166 273.036C269.166 281.177 271.455 285.248 276.162 285.248C278.452 285.248 280.233 284.23 281.632 282.195ZM316.486 292.371V253.065C316.486 249.376 317.631 246.323 319.92 244.033C322.21 241.744 325.263 240.599 328.952 240.599C332.641 240.599 335.694 241.744 337.984 244.033C340.273 246.323 341.418 249.376 341.418 253.065V292.371C341.418 296.06 340.273 299.113 337.984 301.403C335.694 303.692 332.641 304.837 328.952 304.837C325.263 304.837 322.21 303.692 319.92 301.403C317.631 299.113 316.486 296.06 316.486 292.371ZM380.47 305.346C373.983 305.346 368.386 304.074 363.679 301.403C358.972 298.731 355.411 294.915 352.867 290.082C350.322 285.121 349.05 279.396 349.05 272.782C349.05 266.04 350.322 260.316 352.867 255.482C355.411 250.648 358.972 246.832 363.679 244.161C368.386 241.489 373.983 240.217 380.47 240.217C386.958 240.217 392.555 241.489 397.261 244.161C401.968 246.832 405.529 250.648 408.074 255.482C410.618 260.316 411.89 266.167 411.89 272.782C411.89 279.396 410.618 285.121 408.074 290.082C405.529 295.043 401.968 298.731 397.261 301.403C392.427 304.074 386.83 305.346 380.47 305.346ZM380.47 285.502C384.668 285.502 386.703 281.304 386.703 272.654C386.703 264.132 384.668 259.807 380.47 259.807C376.272 259.807 374.237 264.132 374.237 272.654C374.11 281.177 376.272 285.502 380.47 285.502ZM42.4865 194.932C33.7093 194.932 26.077 193.279 19.7168 189.971C13.3565 186.664 8.52273 181.957 5.0882 175.724C1.65366 169.618 0 162.113 0 153.463C0 145.195 1.78087 137.944 5.34261 131.839C8.90435 125.733 13.9925 120.899 20.48 117.464C26.9675 114.03 34.5998 112.249 43.2497 112.249C45.4122 112.249 47.7019 112.503 50.3732 112.885C52.9173 113.267 55.4614 114.03 57.8783 115.047C60.2952 116.065 62.3304 117.337 63.9841 119.118C65.0017 120.136 65.8922 121.408 66.401 122.807C67.037 124.206 67.2914 125.86 67.2914 127.514C67.2914 130.058 66.401 132.347 64.6201 134.255C62.8393 136.164 60.5496 137.054 57.8783 137.054C56.6062 137.054 55.5886 136.927 54.5709 136.672C53.6805 136.418 52.7901 136.164 51.8996 135.782C51.0092 135.4 49.9916 135.019 48.7195 134.637C47.4475 134.255 45.921 134.128 44.0129 134.128C40.7056 134.128 37.7799 134.891 34.9814 136.418C32.3101 137.944 30.1476 140.107 28.4939 143.033C26.9675 145.958 26.077 149.52 26.077 153.718C26.077 159.951 27.7307 164.785 30.9108 168.219C34.2181 171.654 38.6703 173.307 44.2673 173.307C46.0482 173.307 47.5747 173.053 48.9739 172.671C50.3732 172.29 51.6452 171.781 52.7901 171.272C53.6805 170.89 54.5709 170.509 55.4614 170.382C56.3518 170.254 57.2422 170.127 58.0055 170.127C61.0584 170.127 63.3481 171.145 65.1289 173.18C66.7826 175.215 67.673 177.505 67.673 180.049C67.673 182.085 67.2914 183.738 66.401 185.265C65.6378 186.664 64.4929 187.936 63.3481 188.954C61.44 190.48 59.2775 191.752 56.7334 192.643C54.1893 193.533 51.518 194.169 48.9739 194.551C46.8114 194.805 44.5217 194.932 42.4865 194.932ZM88.153 193.406C84.3369 193.406 81.4112 192.261 79.1215 189.971C76.8318 187.682 75.687 184.629 75.687 180.94V126.623C75.687 122.807 76.8318 119.881 79.1215 117.592C81.4112 115.302 84.4641 114.157 88.153 114.157H109.651C119.573 114.157 127.078 116.065 132.293 119.754C137.509 123.443 140.053 128.786 140.053 135.655C140.053 142.269 137.254 147.485 131.53 151.046C140.053 154.481 144.378 160.841 144.378 170C144.378 177.378 141.452 183.102 135.728 187.3C130.003 191.498 121.862 193.533 111.559 193.533H88.153V193.406ZM99.6015 144.686H107.743C110.668 144.686 112.831 144.05 114.23 142.905C115.629 141.761 116.393 140.107 116.393 138.072C116.393 134.001 113.467 131.839 107.743 131.839H99.6015V144.686ZM99.6015 174.834H111.05C117.537 174.834 120.718 172.671 120.718 168.474C120.718 166.184 119.954 164.53 118.428 163.385C116.901 162.241 114.484 161.732 111.05 161.732H99.6015V174.834ZM186.991 194.932C174.907 194.932 165.875 192.006 159.769 186.282C153.664 180.558 150.611 172.035 150.611 161.096C150.611 154.227 152.01 148.248 154.808 143.287C157.607 138.199 161.423 134.383 166.384 131.584C171.218 128.786 176.815 127.514 183.048 127.514C188.772 127.514 193.86 128.658 198.313 130.821C202.765 133.111 206.199 136.164 208.743 140.234C211.287 144.305 212.56 149.011 212.56 154.354C212.56 157.916 211.415 160.841 208.998 163.004C206.581 165.166 203.274 166.311 199.076 166.311H174.907C175.67 170.382 177.197 173.053 179.613 174.579C181.903 175.979 185.083 176.742 188.899 176.742C190.426 176.742 191.825 176.615 193.097 176.233C194.496 175.979 195.768 175.597 197.04 175.215C199.076 174.452 200.857 174.198 202.383 174.198C204.8 174.198 206.708 174.961 208.489 176.615C210.143 178.268 211.033 180.304 211.033 182.848C211.033 185.01 210.524 186.918 209.379 188.318C208.362 189.717 206.962 190.989 205.309 191.752C202.765 193.024 199.839 193.915 196.786 194.296C193.479 194.678 190.299 194.932 186.991 194.932ZM174.525 153.463H190.807C190.426 149.902 189.663 147.358 188.391 145.704C187.119 144.05 185.338 143.287 183.175 143.287C178.341 143.287 175.543 146.722 174.525 153.463ZM254.156 194.932C242.071 194.932 233.039 192.006 226.934 186.282C220.828 180.558 217.775 172.035 217.775 161.096C217.775 154.227 219.174 148.248 221.973 143.287C224.771 138.199 228.587 134.383 233.548 131.584C238.382 128.786 243.979 127.514 250.212 127.514C255.936 127.514 261.025 128.658 265.477 130.821C269.929 133.111 273.363 136.164 275.908 140.234C278.452 144.305 279.724 149.011 279.724 154.354C279.724 157.916 278.579 160.841 276.162 163.004C273.745 165.166 270.438 166.311 266.24 166.311H242.071C242.834 170.382 244.361 173.053 246.778 174.579C249.067 175.979 252.247 176.742 256.064 176.742C257.59 176.742 258.989 176.615 260.261 176.233C261.661 175.979 262.933 175.597 264.205 175.215C266.24 174.452 268.021 174.198 269.547 174.198C271.964 174.198 273.872 174.961 275.653 176.615C277.307 178.268 278.197 180.304 278.197 182.848C278.197 185.01 277.688 186.918 276.544 188.318C275.526 189.717 274.127 190.989 272.473 191.752C269.929 193.024 267.003 193.915 263.95 194.296C260.516 194.678 257.336 194.932 254.156 194.932ZM241.562 153.463H257.844C257.463 149.902 256.7 147.358 255.428 145.704C254.156 144.05 252.375 143.287 250.212 143.287C245.378 143.287 242.58 146.722 241.562 153.463ZM369.658 123.697C365.714 123.697 362.661 122.807 360.499 121.026C358.336 119.245 357.192 116.701 357.192 113.394C357.192 110.086 358.336 107.67 360.499 105.762C362.661 103.981 365.714 103.09 369.658 103.09C373.601 103.09 376.654 103.981 378.816 105.762C380.979 107.542 382.124 110.086 382.124 113.394C382.124 116.701 380.979 119.118 378.816 121.026C376.654 122.807 373.601 123.697 369.658 123.697ZM357.7 182.721V141.379C357.7 137.817 358.845 135.019 361.008 132.856C363.17 130.694 366.096 129.549 369.658 129.549C373.219 129.549 376.145 130.694 378.308 132.856C380.47 135.019 381.615 137.817 381.615 141.379V182.721C381.615 186.282 380.47 189.462 378.308 191.625C376.145 193.787 373.219 194.932 369.658 194.932C366.096 194.932 363.17 193.787 361.008 191.625C358.845 189.462 357.7 186.282 357.7 182.721ZM426.009 194.932C413.925 194.932 404.893 192.006 398.788 186.282C392.682 180.558 389.629 172.035 389.629 161.096C389.629 154.227 391.028 148.248 393.827 143.287C396.625 138.199 400.441 134.383 405.402 131.584C410.236 128.786 415.833 127.514 422.066 127.514C427.79 127.514 432.878 128.658 437.331 130.821C441.783 133.111 445.217 136.164 447.761 140.234C450.306 144.305 451.578 149.011 451.578 154.354C451.578 157.916 450.433 160.841 448.016 163.004C445.599 165.166 442.292 166.311 438.094 166.311H413.925C414.688 170.382 416.215 173.053 418.632 174.579C420.921 175.979 424.101 176.742 427.917 176.742C429.444 176.742 430.843 176.615 432.115 176.233C433.515 175.979 434.787 175.597 436.059 175.215C438.094 174.452 439.875 174.198 441.401 174.198C443.818 174.198 445.726 174.961 447.507 176.615C449.161 178.268 450.051 180.304 450.051 182.848C450.051 185.01 449.542 186.918 448.398 188.318C447.38 189.717 445.981 190.989 444.327 191.752C441.783 193.024 438.857 193.915 435.804 194.296C432.37 194.678 429.19 194.932 426.009 194.932ZM413.416 153.463H429.698C429.317 149.902 428.554 147.358 427.281 145.704C426.009 144.05 424.229 143.287 422.066 143.287C417.232 143.287 414.434 146.722 413.416 153.463ZM481.598 194.932C478.672 194.932 475.747 194.551 472.694 193.915C469.641 193.279 467.351 192.515 465.443 191.752C463.408 190.862 461.627 189.59 460.1 188.063C458.574 186.537 457.811 184.501 457.811 181.957C457.811 179.668 458.574 177.76 459.973 176.233C461.372 174.707 463.408 173.943 465.952 173.943C466.715 173.943 467.478 174.071 468.369 174.198C469.259 174.452 470.277 174.707 471.422 175.343C473.075 176.106 474.602 176.487 476.001 176.742C477.4 176.996 478.672 177.124 479.817 177.124C484.397 177.124 486.686 175.979 486.686 173.816C486.686 172.544 486.177 171.654 485.033 171.272C483.888 170.89 482.488 170.382 480.708 170C472.566 168.219 466.842 165.675 463.535 162.495C460.228 159.315 458.574 154.863 458.574 149.138C458.574 142.269 461.245 136.8 466.461 133.111C471.676 129.294 478.927 127.386 487.958 127.386C491.011 127.386 493.937 127.641 496.863 128.277C499.788 128.913 502.46 129.803 504.749 131.075C506.149 131.839 507.421 132.856 508.82 134.128C510.219 135.527 510.982 137.436 510.982 139.852C510.982 142.269 510.219 144.177 508.693 145.577C507.166 146.976 505.131 147.739 502.714 147.739C501.951 147.739 501.06 147.612 500.17 147.358C499.28 147.103 498.135 146.722 496.863 146.34C493.81 145.322 491.393 144.813 489.485 144.813C487.704 144.813 486.177 145.068 485.033 145.577C483.888 146.086 483.379 146.976 483.379 147.994C483.379 148.884 483.888 149.647 484.778 150.029C485.669 150.41 487.322 150.919 489.739 151.555C497.626 153.209 503.223 155.626 506.785 158.679C510.219 161.732 512 166.311 512 172.035C512 179.413 509.329 185.01 504.113 188.826C498.643 193.024 491.266 194.932 481.598 194.932ZM343.453 136.927C339.128 131.203 333.023 128.404 325.136 128.404C319.284 128.404 314.96 130.566 311.143 134.764V117.083C311.143 113.648 309.999 110.723 307.836 108.56C305.674 106.398 302.366 105.253 298.804 105.253C295.243 105.253 292.444 106.398 290.282 108.56C288.119 110.723 286.974 113.521 286.974 117.083V174.961C286.974 179.54 288.119 183.357 290.409 186.282C292.699 189.208 295.752 191.243 299.568 192.515C301.857 193.279 304.401 193.915 307.073 194.296C309.744 194.678 309.871 194.932 312.924 194.932C324.754 194.932 333.913 191.879 340.4 185.901C346.888 179.922 350.068 171.145 350.068 159.569C349.941 149.011 347.778 142.651 343.453 136.927ZM324.245 172.671C322.337 175.088 319.666 176.36 316.359 176.36C314.451 176.36 312.67 176.106 311.143 175.724V151.683C312.924 149.393 315.214 148.248 318.267 148.248C324.245 148.248 327.171 152.827 327.171 161.859C327.171 166.693 326.154 170.254 324.245 172.671ZM329.715 234.747C325.772 234.747 322.719 233.857 320.557 232.076C318.394 230.295 317.249 227.751 317.249 224.444C317.249 221.136 318.394 218.72 320.557 216.811C322.719 215.031 325.772 214.14 329.715 214.14C333.659 214.14 336.712 215.031 338.874 216.811C341.037 218.592 342.181 221.136 342.181 224.444C342.181 227.751 341.037 230.295 338.874 232.076C336.839 233.857 333.659 234.747 329.715 234.747Z" fill="white"/>
</g>
<defs>
<clipPath id="clip0_5_60">
<rect width="512" height="305.292" fill="white" transform="translate(0 0.0541992)"/>
</clipPath>
</defs>
</svg>
