<svg width="512" height="160" viewBox="0 0 512 160" fill="none" xmlns="http://www.w3.org/2000/svg">
<g clip-path="url(#clip0_5_58)">
<path d="M80.7551 0.325684V48.6406H129.07V0.325684H80.7551ZM114.299 34.4222C113.471 35.6646 112.229 36.6309 110.71 37.1831C108.916 37.8733 107.121 38.1494 105.189 38.1494H94.4213V10.8169H104.636C106.983 10.6789 109.468 11.3691 111.539 12.7495C113.195 13.9919 114.161 15.9245 114.023 17.9951C114.023 19.2375 113.747 20.3419 113.195 21.3082C112.505 22.2745 111.677 23.1027 110.572 23.5168C112.091 23.931 113.333 24.8973 114.299 26.0016C115.128 27.244 115.68 28.7625 115.542 30.1429C115.542 31.6614 115.128 33.1798 114.299 34.4222ZM107.397 21.1701C108.226 20.4799 108.64 19.5136 108.502 18.5473C108.502 16.3386 106.983 15.3723 104.084 15.3723H99.943V22.1364H104.084C105.189 22.1364 106.431 21.8603 107.397 21.1701ZM104.775 26.2777H99.943V33.594H104.775C106.155 33.732 107.397 33.3179 108.64 32.6277C109.468 32.0755 110.02 30.9711 110.02 30.0048C109.882 27.5201 108.088 26.2777 104.775 26.2777ZM141.218 0.325684V48.6406H189.533V0.325684H141.218ZM174.624 34.4222C173.796 35.6646 172.553 36.6309 171.035 37.1831C169.24 37.8733 167.446 38.1494 165.513 38.1494H154.746V10.8169H164.961C167.446 10.6789 169.793 11.231 172.001 12.6115C173.658 13.8539 174.624 15.7865 174.486 17.8571C174.486 19.0995 174.21 20.2038 173.658 21.1701C172.968 22.1364 172.139 22.9647 171.035 23.3788C172.553 23.7929 173.796 24.7592 174.762 25.8636C175.59 27.1059 176.143 28.6244 176.004 30.0048C175.866 31.6614 175.452 33.1798 174.624 34.4222ZM167.722 21.1701C168.55 20.4799 168.964 19.5136 168.826 18.5473C168.826 16.3386 167.308 15.3723 164.409 15.3723H160.268V22.1364H164.409C165.513 22.1364 166.756 21.8603 167.722 21.1701ZM165.099 26.2777H160.268V33.594H165.099C166.48 33.732 167.722 33.3179 168.964 32.6277C169.793 32.0755 170.345 30.9711 170.345 30.0048C170.207 27.5201 168.412 26.2777 165.099 26.2777ZM201.542 48.6406H249.857V0.325684H201.542V48.6406ZM236.191 36.3548C234.949 37.045 233.706 37.4591 232.326 37.8733C230.807 38.2874 229.289 38.4254 227.632 38.4254C225.7 38.4254 223.629 38.1494 221.835 37.4591C220.178 36.907 218.66 35.9407 217.417 34.6983C216.175 33.4559 215.209 31.9374 214.656 30.2809C213.966 28.3483 213.69 26.4157 213.69 24.4831C213.69 22.5505 213.966 20.6179 214.656 18.8234C215.347 17.1669 216.313 15.6484 217.555 14.406C218.798 13.1636 220.316 12.1973 222.111 11.6452C224.043 10.955 225.976 10.6789 228.047 10.6789C229.427 10.6789 230.945 10.8169 232.326 11.093C233.568 11.3691 234.811 11.7832 236.053 12.4734V17.7191C234.949 17.0288 233.844 16.4767 232.602 16.2006C231.36 15.7865 229.979 15.6484 228.737 15.6484C227.08 15.6484 225.424 15.9245 223.905 16.7528C222.663 17.443 221.559 18.4093 220.868 19.7897C220.178 21.3082 219.764 22.9647 219.764 24.6212C219.764 26.2777 220.04 27.9342 220.73 29.4527C221.421 30.6951 222.387 31.7994 223.629 32.4896C225.148 33.1798 226.666 33.594 228.323 33.594C231.083 33.594 233.706 32.9037 236.053 31.3853L236.191 36.3548ZM276.776 29.4527V42.5667H269.045V6.39956H282.297C286.991 6.39956 290.718 7.36586 293.203 9.4365C295.825 11.5071 297.206 14.6821 297.068 17.9951C297.068 20.2038 296.516 22.2745 295.411 24.069C294.169 25.8636 292.512 27.1059 290.58 27.9342C292.098 30.2809 293.617 32.7657 295.135 35.1124C296.654 37.4591 298.172 39.9439 299.553 42.5667H290.58C288.095 38.1494 285.61 33.732 282.988 29.4527H276.776ZM276.776 23.2408H281.883C283.816 23.3788 285.748 22.9647 287.405 21.9984C288.647 21.0321 289.337 19.5136 289.337 17.8571C289.476 16.2006 288.785 14.6821 287.543 13.7158C285.886 12.7495 283.954 12.3354 282.159 12.3354H277.052L276.776 23.2408ZM330.198 42.5667C329.37 39.9439 328.404 37.3211 327.575 34.6983H312.943C312.114 37.3211 311.148 39.9439 310.32 42.5667H302.037C304.384 36.2168 306.731 30.0048 309.078 23.931C311.424 17.8571 313.909 12.0593 316.256 6.26152H324.676C327.161 12.3354 329.646 18.2712 331.993 24.3451C334.339 30.419 336.686 36.4928 338.895 42.4287L330.198 42.5667ZM315.151 28.2103H325.367L322.882 21.1701C322.054 18.8234 321.225 16.4767 320.259 14.268C318.464 18.9614 316.808 23.5168 315.151 28.2103ZM343.174 6.39956H356.978C360.429 6.26152 363.742 7.08977 366.779 8.4702C369.402 9.85062 371.611 11.9213 372.991 14.6821C374.51 17.7191 375.2 21.0321 375.062 24.4831C375.2 27.9342 374.372 31.2472 372.853 34.2842C371.473 36.907 369.264 39.1157 366.641 40.4961C363.604 42.0146 360.291 42.7048 356.84 42.7048H343.036L343.174 6.39956ZM356.564 35.9407C359.463 36.0787 362.362 35.1124 364.295 33.0418C366.227 30.6951 367.193 27.6581 367.055 24.4831C367.332 21.4462 366.365 18.4093 364.433 16.0625C362.362 13.9919 359.601 12.8876 356.702 13.1636H351.043V35.9407H356.564ZM381.274 6.39956H389.004V42.5667H381.274V6.39956ZM413.3 5.5713C415.784 5.5713 418.407 5.98543 420.754 6.95173C422.963 7.77998 424.895 9.02237 426.414 10.6789C428.07 12.3354 429.313 14.406 430.003 16.6147C430.831 19.0995 431.245 21.7223 431.245 24.4831C431.245 27.1059 430.831 29.7288 430.003 32.2135C429.175 34.4222 427.932 36.4928 426.414 38.1494C424.757 39.8059 422.825 41.0483 420.754 41.8765C415.923 43.6711 410.677 43.6711 405.983 41.8765C403.775 41.0483 401.842 39.8059 400.324 38.1494C398.667 36.4928 397.425 34.4222 396.735 32.2135C395.906 29.7288 395.492 27.1059 395.492 24.4831C395.492 21.8603 395.906 19.2375 396.735 16.6147C397.563 14.406 398.805 12.3354 400.324 10.6789C401.98 9.02237 403.913 7.77998 405.983 6.95173C408.192 5.98543 410.677 5.5713 413.3 5.5713ZM413.3 36.4928C415.232 36.4928 417.027 36.0787 418.545 35.1124C420.064 34.1461 421.306 32.6277 421.996 30.9711C422.825 28.9005 423.239 26.6918 423.101 24.4831C423.101 22.2745 422.825 20.0658 421.996 17.9951C421.306 16.3386 420.064 14.8202 418.545 13.8539C415.232 11.9213 411.229 11.9213 407.916 13.8539C406.398 14.8202 405.155 16.3386 404.465 17.9951C403.637 20.0658 403.223 22.2745 403.361 24.4831C403.361 26.6918 403.637 28.9005 404.465 30.9711C405.155 32.6277 406.398 34.1461 407.916 35.1124C409.573 36.0787 411.367 36.6309 413.3 36.4928ZM43.2075 159.075C36.9956 159.213 30.9217 158.108 25.1239 156.038C20.0163 154.243 15.3229 151.206 11.4577 147.341C7.59251 143.338 4.69361 138.644 2.89906 133.399C0.96646 127.463 -0.137881 121.251 0.000161992 114.901C-0.137881 108.689 0.96646 102.615 3.0371 96.8175C6.90229 86.1882 15.1848 77.9056 25.8141 74.0404C31.6119 71.9698 37.8238 70.8655 43.8977 71.0035C48.3151 71.0035 52.7324 71.4176 57.1498 72.522C61.153 73.4883 65.0182 74.8687 68.7454 76.8013V93.6425C65.5704 91.4338 61.9813 89.7773 58.2541 88.673C54.3889 87.5686 50.3857 86.8784 46.2444 87.0164C41.1369 86.8784 36.0293 87.9827 31.4739 90.3295C27.4706 92.5381 24.1576 95.8512 22.087 99.8544C19.7403 104.548 18.6359 109.793 18.774 115.177C18.6359 120.423 19.7403 125.668 21.9489 130.5C23.8815 134.641 27.0565 137.954 31.0597 140.163C35.4771 142.51 40.4466 143.614 45.5542 143.476C54.1129 143.476 62.3954 141.129 69.5736 136.436V152.863C65.8465 154.933 61.7052 156.59 57.5639 157.556C52.8705 158.523 48.039 159.075 43.2075 159.075ZM127.413 125.254V157.28H109.192V125.254C103.67 116.558 98.2865 107.861 93.0409 99.1642C87.7953 90.4675 82.5496 81.6328 77.5801 72.7981H98.2865C101.461 79.01 104.913 85.2219 108.226 91.4338C111.677 97.6457 115.128 103.858 118.579 109.932C122.168 103.72 125.619 97.6457 128.932 91.4338C132.383 85.2219 135.696 79.01 139.009 72.7981H159.163C154.056 81.6328 148.81 90.4675 143.564 99.1642C138.319 107.861 132.935 116.558 127.413 125.254ZM204.993 141.543C201.542 134.641 198.091 127.601 194.778 120.699C191.465 113.659 188.152 106.757 184.977 99.8544V157.28H167.584V72.66H189.395C193.122 81.3567 196.849 90.0534 200.714 98.612C204.579 107.309 208.583 115.729 212.586 124.15C216.589 115.729 220.454 107.171 224.319 98.612C228.185 90.0534 231.912 81.3567 235.501 72.522H256.759V157.004H239.366V99.5783C236.191 106.618 232.878 113.659 229.427 120.699C226.114 127.739 222.663 134.641 219.35 141.543H204.993ZM290.718 126.497V157.28H272.772V72.66H303.694C314.875 72.66 323.296 75.0067 329.232 79.7002C335.168 84.3936 338.205 91.0197 338.205 99.7164C338.619 109.932 332.545 119.456 322.882 123.184C326.471 128.843 329.922 134.365 333.373 140.025C336.824 145.685 340.275 151.482 343.726 157.418H322.744C317.084 147.065 311.148 136.712 305.074 126.635L290.718 126.497ZM290.718 112.14H302.59C308.249 112.14 312.391 111.174 315.428 109.103C318.326 107.033 319.845 103.858 319.845 99.5783C319.845 95.299 318.464 91.986 315.566 90.0534C312.667 87.9827 308.387 87.0164 302.866 87.0164H290.856L290.718 112.14ZM388.176 159.075C381.412 159.213 374.786 157.832 368.712 154.795C363.328 152.035 359.049 147.617 356.288 142.372C353.251 136.298 351.733 129.534 352.009 122.769V72.66H370.23V124.564C370.23 130.5 371.749 135.193 374.924 138.368C378.099 141.543 382.516 143.2 388.176 143.2C393.974 143.2 398.391 141.543 401.428 138.368C404.603 135.193 406.122 130.638 406.122 124.564V72.66H424.343V122.631C424.481 129.396 423.101 136.16 420.064 142.233C417.303 147.617 412.886 151.896 407.64 154.657C401.566 157.694 394.94 159.213 388.176 159.075ZM512 141.819V157.142H454.022V153.829C454.022 149.964 454.298 146.237 455.127 142.372C455.817 139.059 457.059 135.884 458.716 132.985C460.648 129.81 462.857 127.049 465.618 124.564C468.931 121.527 472.52 118.766 476.385 116.281C479.56 114.211 482.597 112.002 485.496 109.517C487.429 107.999 488.947 106.204 490.189 104.134C491.156 102.477 491.57 100.545 491.57 98.612C491.57 91.4338 487.014 87.8447 477.766 87.8447C473.9 87.8447 470.173 88.3969 466.584 89.6392C462.719 91.0197 459.268 92.9523 455.955 95.437V79.9763C459.82 77.7676 463.823 75.973 468.103 74.7306C472.52 73.6263 476.937 73.0741 481.493 73.0741C486.6 72.9361 491.708 73.9024 496.539 75.973C500.543 77.6295 503.994 80.3904 506.478 83.9795C508.963 87.5686 510.068 91.8479 510.068 96.2653C510.068 99.0261 509.791 101.925 509.101 104.686C508.411 107.171 507.445 109.655 505.926 111.726C504.132 114.211 502.061 116.42 499.714 118.352C496.677 120.837 493.364 123.184 490.051 125.392C487.153 127.187 484.254 129.119 481.631 131.328C479.56 132.847 477.766 134.641 476.109 136.712C474.729 138.368 473.624 140.163 472.934 142.095L512 141.819Z" fill="white"/>
</g>
<defs>
<clipPath id="clip0_5_58">
<rect width="512" height="158.749" fill="white" transform="translate(0 0.325684)"/>
</clipPath>
</defs>
</svg>
