<svg width="512" height="193" viewBox="0 0 512 193" fill="none" xmlns="http://www.w3.org/2000/svg">
<g clip-path="url(#clip0_5_56)">
<path d="M44.6376 0.929199V59.2246H102.933V0.929199H44.6376ZM84.9447 42.0691C83.9453 43.5681 82.4463 44.734 80.6142 45.4002C78.4489 46.233 76.2837 46.5662 73.9518 46.5662H60.9603V13.5876H73.2856C76.2837 13.4211 79.2817 14.2539 81.7801 15.9194C83.7788 17.4185 84.9447 19.7503 84.7781 22.2487C84.7781 23.7477 84.445 25.0801 83.7788 26.246C82.946 27.412 81.9466 28.4113 80.6142 28.911C82.4463 29.4107 83.9453 30.5766 85.1112 31.909C86.1106 33.4081 86.7768 35.2402 86.6103 36.9058C86.4437 38.7379 85.944 40.5701 84.9447 42.0691ZM76.6168 26.0795C77.6161 25.2467 78.1158 24.0808 77.9492 22.9149C77.9492 20.25 76.1171 19.084 72.6194 19.084H67.6226V27.2454H72.6194C74.1184 27.2454 75.4509 26.9123 76.6168 26.0795ZM73.6187 32.2421H67.7892V41.0697H73.6187C75.2843 41.2363 76.7833 40.7366 78.2824 39.9038C79.2817 39.2376 79.9479 37.9051 79.9479 36.7392C79.6148 33.7412 77.6161 32.2421 73.6187 32.2421ZM117.424 0.929199V59.2246H175.719V0.929199H117.424ZM157.731 42.0691C156.731 43.5681 155.232 44.734 153.4 45.4002C151.235 46.233 149.07 46.5662 146.738 46.5662H133.746V13.5876H146.072C149.07 13.4211 152.068 14.2539 154.566 15.9194C156.565 17.4185 157.731 19.7503 157.564 22.2487C157.564 23.7477 157.231 25.0801 156.565 26.246C155.732 27.412 154.733 28.4113 153.4 28.911C155.232 29.4107 156.731 30.5766 157.897 31.909C158.897 33.4081 159.563 35.2402 159.396 36.9058C159.23 38.7379 158.73 40.5701 157.731 42.0691ZM149.403 26.0795C150.402 25.2467 150.902 24.0808 150.735 22.9149C150.735 20.25 148.903 19.084 145.405 19.084H140.409V27.2454H145.405C146.904 27.2454 148.237 26.9123 149.403 26.0795ZM146.405 32.2421H140.575V41.0697H146.405C148.07 41.2363 149.569 40.7366 151.068 39.9038C152.068 39.2376 152.734 37.9051 152.734 36.7392C152.401 33.7412 150.402 32.2421 146.405 32.2421ZM190.209 59.2246H248.505V0.929199H190.209V59.2246ZM232.016 44.4009C230.517 45.2337 229.018 45.7334 227.352 46.233C225.52 46.7327 223.688 46.8993 221.689 46.8993C219.357 46.8993 216.859 46.5662 214.694 45.7334C212.695 45.0671 210.863 43.9012 209.364 42.4022C207.865 40.9032 206.699 39.071 206.033 37.0723C205.2 34.7405 204.867 32.4087 204.867 30.0769C204.867 27.7451 205.2 25.4133 206.033 23.248C206.865 21.2493 208.031 19.4172 209.53 17.9181C211.029 16.4191 212.861 15.2532 215.027 14.587C217.359 13.7542 219.69 13.4211 222.189 13.4211C223.854 13.4211 225.686 13.5876 227.352 13.9207C228.851 14.2539 230.35 14.7535 231.849 15.5863V21.9155C230.517 21.0827 229.184 20.4165 227.685 20.0834C226.186 19.5837 224.52 19.4172 223.021 19.4172C221.023 19.4172 219.024 19.7503 217.192 20.7496C215.693 21.5824 214.36 22.7483 213.528 24.4139C212.695 26.2461 212.195 28.2447 212.195 30.2434C212.195 32.2421 212.528 34.2408 213.361 36.073C214.194 37.572 215.36 38.9045 216.859 39.7373C218.691 40.5701 220.523 41.0697 222.522 41.0697C225.853 41.0697 229.018 40.2369 231.849 38.4048V44.4009H232.016ZM281.15 36.073V51.896H271.823V8.25776H287.813C293.476 8.25776 297.973 9.42367 300.971 11.922C304.135 14.4204 305.801 18.2513 305.634 22.2487C305.634 24.9136 304.968 27.412 303.636 29.5772C302.137 31.7425 300.138 33.2415 297.806 34.2408C299.638 37.0723 301.47 40.0704 303.303 42.9019C305.135 45.7334 306.967 48.7314 308.632 51.896H297.806C294.808 46.5662 291.81 41.2363 288.645 36.073H281.15ZM281.15 28.5779H287.313C289.645 28.7444 291.977 28.2447 293.975 27.0788C295.474 25.9129 296.307 24.0808 296.307 22.0821C296.474 20.0834 295.641 18.2513 294.142 17.0853C292.143 15.9194 289.811 15.4198 287.646 15.4198H281.483L281.15 28.5779ZM345.608 51.896C344.609 48.7314 343.443 45.5668 342.444 42.4022H324.789C323.789 45.5668 322.623 48.7314 321.624 51.896H311.63C314.462 44.2343 317.293 36.7392 320.125 29.4107C322.956 22.0821 325.954 15.0866 328.786 8.0912H338.946C341.944 15.4198 344.942 22.5818 347.774 29.9103C350.605 37.2389 353.437 44.5675 356.102 51.7295L345.608 51.896ZM327.454 34.574H339.779L336.781 26.0795C335.781 23.248 334.782 20.4165 333.616 17.7516C331.451 23.4146 329.452 28.911 327.454 34.574ZM361.265 8.25776H377.921C382.085 8.0912 386.082 9.09055 389.746 10.7561C392.911 12.4217 395.576 14.9201 397.241 18.2513C399.074 21.9155 399.906 25.9129 399.74 30.0769C399.906 34.2408 398.907 38.2382 397.075 41.9025C395.409 45.0671 392.744 47.7321 389.58 49.3976C385.915 51.2298 381.918 52.0626 377.754 52.0626H361.098L361.265 8.25776ZM377.421 43.9012C380.919 44.0678 384.416 42.9019 386.748 40.4035C389.08 37.572 390.246 33.9077 390.079 30.0769C390.413 26.4126 389.247 22.7483 386.915 19.9168C384.416 17.4185 381.085 16.086 377.588 16.4191H370.759V43.9012H377.421ZM407.235 8.25776H416.562V51.896H407.235V8.25776ZM445.71 7.25841C448.708 7.25841 451.873 7.75809 454.704 8.92399C457.369 9.92334 459.701 11.4224 461.533 13.4211C463.532 15.4198 465.031 17.9181 465.863 20.5831C466.863 23.5811 467.362 26.7457 467.362 30.0769C467.362 33.2415 466.863 36.4061 465.863 39.4042C464.864 42.0691 463.365 44.5675 461.533 46.5662C459.534 48.5649 457.202 50.0639 454.704 51.0632C448.874 53.2285 442.545 53.2285 436.882 51.0632C434.217 50.0639 431.886 48.5649 430.053 46.5662C428.055 44.5675 426.556 42.0691 425.723 39.4042C424.724 36.4061 424.224 33.2415 424.224 30.0769C424.224 26.9123 424.724 23.7477 425.723 20.5831C426.722 17.9181 428.221 15.4198 430.053 13.4211C432.052 11.4224 434.384 9.92334 436.882 8.92399C439.714 7.75809 442.712 7.25841 445.71 7.25841ZM445.71 44.5675C448.042 44.5675 450.207 44.0678 452.039 42.9019C453.871 41.736 455.37 39.9038 456.203 37.9051C457.202 35.4068 457.702 32.7418 457.536 30.0769C457.536 27.412 457.202 24.747 456.203 22.2487C455.37 20.25 453.871 18.4178 452.039 17.2519C448.042 14.9201 443.211 14.9201 439.214 17.2519C437.382 18.4178 435.883 20.25 435.05 22.2487C434.051 24.747 433.551 27.412 433.718 30.0769C433.718 32.7418 434.051 35.4068 435.05 37.9051C435.883 39.9038 437.382 41.736 439.214 42.9019C441.213 44.0678 443.545 44.734 445.71 44.5675ZM52.1327 192.471C44.6376 192.638 37.309 191.305 30.3136 188.807C24.1509 186.642 18.4879 182.977 13.8243 178.314C9.16069 173.484 5.66296 167.821 3.49771 161.491C1.16589 154.329 -0.166575 146.834 -1.64302e-05 139.173C-0.166575 131.677 1.16589 124.349 3.66426 117.353C8.3279 104.528 18.3214 94.5349 31.1464 89.8713C38.1418 87.3729 45.6369 86.0405 52.9655 86.207C58.2954 86.207 63.6252 86.7067 68.9551 88.0392C73.7853 89.2051 78.4489 90.8706 82.946 93.2025V113.523C79.1151 110.858 74.7846 108.859 70.2876 107.526C65.6239 106.194 60.7937 105.361 55.797 105.528C49.6343 105.361 43.4717 106.694 37.9753 109.525C33.1451 112.19 29.1477 116.187 26.6493 121.018C23.8178 126.681 22.4853 133.01 22.6519 139.506C22.4853 145.835 23.8178 152.164 26.4827 157.994C28.8146 162.99 32.6454 166.988 37.4756 169.653C42.8055 172.484 48.8015 173.817 54.9642 173.65C65.2908 173.65 75.2843 170.819 83.9453 165.156V184.976C79.4483 187.474 74.4515 189.473 69.4548 190.639C63.7918 191.805 57.9622 192.471 52.1327 192.471ZM153.733 151.664V190.306H131.748V151.664C125.085 141.171 118.589 130.678 112.26 120.185C105.931 109.692 99.6018 99.032 93.6057 88.3723H118.589C122.42 95.8674 126.584 103.363 130.582 110.858C134.746 118.353 138.91 125.848 143.074 133.176C147.404 125.681 151.568 118.353 155.565 110.858C159.729 103.363 163.727 95.8674 167.724 88.3723H192.042C185.879 99.032 179.55 109.692 173.221 120.185C166.891 130.678 160.396 141.171 153.733 151.664ZM247.339 171.318C243.175 162.99 239.011 154.496 235.014 146.168C231.016 137.674 227.019 129.346 223.188 121.018V190.306H202.202V88.2057H228.518C233.015 98.6989 237.512 109.192 242.176 119.519C246.839 130.012 251.669 140.172 256.5 150.332C261.33 140.172 265.994 129.845 270.657 119.519C275.321 109.192 279.818 98.6989 284.148 88.0392H309.798V189.973H288.812V120.685C284.981 129.179 280.984 137.674 276.82 146.168C272.822 154.662 268.658 162.99 264.661 171.318H247.339ZM350.772 153.163V190.306H329.119V88.2057H366.428C379.919 88.2057 390.079 91.0372 397.241 96.7002C404.403 102.363 408.068 110.358 408.068 120.851C408.567 133.176 401.239 144.669 389.58 149.166C393.91 155.995 398.074 162.657 402.238 169.486C406.402 176.315 410.566 183.31 414.73 190.472H389.413C382.584 177.981 375.422 165.489 368.094 153.33L350.772 153.163ZM350.772 135.841H365.096C371.925 135.841 376.921 134.675 380.586 132.177C384.083 129.679 385.915 125.848 385.915 120.685C385.915 115.521 384.25 111.524 380.752 109.192C377.254 106.694 372.091 105.528 365.429 105.528H350.938L350.772 135.841ZM468.362 192.471C460.2 192.638 452.206 190.972 444.877 187.308C438.381 183.977 433.218 178.647 429.887 172.318C426.223 164.989 424.39 156.828 424.724 148.666V88.2057H446.709V150.832C446.709 157.994 448.541 163.657 452.372 167.487C456.203 171.318 461.533 173.317 468.362 173.317C475.357 173.317 480.687 171.318 484.351 167.487C488.182 163.657 490.014 158.16 490.014 150.832V88.2057H512V148.5C512.167 156.661 510.501 164.823 506.837 172.151C503.506 178.647 498.176 183.81 491.846 187.141C484.518 190.806 476.523 192.638 468.362 192.471Z" fill="white"/>
</g>
<defs>
<clipPath id="clip0_5_56">
<rect width="512" height="191.542" fill="white" transform="translate(0 0.929199)"/>
</clipPath>
</defs>
</svg>
