<svg width="512" height="215" viewBox="0 0 512 215" fill="none" xmlns="http://www.w3.org/2000/svg">
<g clip-path="url(#clip0_5_50)">
<path d="M34.4983 0.372681V61.3961H95.5218V0.372681H34.4983ZM76.7477 43.4381C75.6194 44.9779 74.0728 46.1614 72.2917 46.8481C70.0747 47.6997 67.7119 48.1071 65.3377 48.0474H51.6594V13.7214H64.5426C67.65 13.5327 70.7376 14.3305 73.3645 16.0012C74.3899 16.7471 75.2128 17.7372 75.7587 18.8816C76.3047 20.026 76.5564 21.2886 76.491 22.5548C76.5287 24.0487 76.1407 25.5224 75.3722 26.8039C74.5663 28.0559 73.4152 29.0479 72.058 29.6603C73.9034 30.2096 75.5284 31.3272 76.7017 32.8538C77.8026 34.399 78.3677 36.262 78.3109 38.1584C78.361 40.0393 77.8138 41.8877 76.7477 43.4381ZM68.0197 26.6602C68.4946 26.2589 68.8701 25.7531 69.1171 25.1825C69.364 24.6119 69.4756 23.9919 69.4431 23.3709C69.4431 20.6506 67.5918 19.2904 63.8894 19.2904H58.6154V27.8346H63.8894C65.3608 27.9355 66.8214 27.5203 68.0197 26.6602ZM64.7763 33.212H58.6154V42.4784H64.6825C66.3675 42.5831 68.0445 42.1729 69.4909 41.3021C70.0361 40.9281 70.4765 40.4209 70.7706 39.8288C71.0646 39.2367 71.2025 38.5793 71.171 37.9189C71.171 34.7823 69.0395 33.212 64.7763 33.212ZM110.779 0.372681V61.3961H171.802V0.372681H110.779ZM153.028 43.4381C151.899 44.9782 150.352 46.1617 148.57 46.8481C146.353 47.6997 143.99 48.1071 141.616 48.0474H127.938V13.7214H140.821C143.928 13.5327 147.016 14.3305 149.643 16.0012C150.669 16.7469 151.492 17.7369 152.038 18.8813C152.584 20.0257 152.836 21.2884 152.771 22.5548C152.808 24.0488 152.42 25.5226 151.651 26.8039C150.845 28.0559 149.694 29.0479 148.336 29.6603C150.182 30.2096 151.807 31.3272 152.98 32.8538C154.081 34.399 154.646 36.262 154.589 38.1584C154.64 40.0391 154.093 41.8875 153.028 43.4381ZM144.298 26.6602C144.773 26.2591 145.149 25.7534 145.396 25.1828C145.644 24.6121 145.756 23.992 145.723 23.3709C145.723 20.6506 143.871 19.2904 140.168 19.2904H134.894V27.8346H140.168C141.639 27.9355 143.1 27.5203 144.298 26.6602ZM141.055 33.212H134.894V42.4784H140.961C142.646 42.5831 144.323 42.1729 145.769 41.3021C146.314 40.9281 146.755 40.4209 147.049 39.8288C147.343 39.2367 147.481 38.5793 147.449 37.9189C147.449 34.7823 145.318 33.212 141.055 33.212ZM187.057 61.3961H248.08V0.372681H187.059L187.057 61.3961ZM230.885 45.873C229.327 46.7091 227.665 47.334 225.942 47.7313C224.006 48.193 222.022 48.422 220.032 48.4133C217.51 48.4505 215.001 48.0446 212.618 47.214C210.531 46.4816 208.629 45.3006 207.048 43.7542C205.492 42.1905 204.301 40.3027 203.559 38.2255C202.72 35.8624 202.31 33.3687 202.346 30.8614C202.311 28.3963 202.738 25.9464 203.607 23.6391C204.404 21.5544 205.644 19.6675 207.241 18.1084C208.868 16.544 210.808 15.3414 212.933 14.5797C215.32 13.7343 217.839 13.3199 220.371 13.3555C222.189 13.346 224.001 13.5433 225.774 13.9437C227.414 14.3162 229.001 14.8935 230.498 15.6621V22.3441C229.169 21.4642 227.716 20.7899 226.186 20.3441C224.595 19.8838 222.947 19.6541 221.291 19.6621C219.203 19.6019 217.133 20.0544 215.26 20.9801C213.625 21.8302 212.289 23.1606 211.433 24.7924C210.494 26.6743 210.036 28.7593 210.099 30.8614C210.038 32.9651 210.478 35.0532 211.383 36.9534C212.197 38.59 213.501 39.9316 215.115 40.7906C216.952 41.7169 218.992 42.1699 221.05 42.1086C224.525 42.1305 227.935 41.1674 230.885 39.3308V45.873ZM282.272 37.1373V53.7735H272.546V8.02025H289.247C295.263 8.02025 299.881 9.27888 303.102 11.7961C304.711 13.0826 305.99 14.7355 306.83 16.6168C307.671 18.4981 308.049 20.5531 307.933 22.6104C308.015 25.3488 307.267 28.0478 305.788 30.3537C304.274 32.5554 302.15 34.2672 299.677 35.2791C301.597 38.3097 303.497 41.3494 305.374 44.3979C307.25 47.449 309.127 50.5742 311.004 53.7735H299.678C296.607 48.1412 293.429 42.5952 290.144 37.1354L282.272 37.1373ZM282.272 29.394H288.671C291.086 29.5499 293.492 28.9816 295.583 27.7618C296.384 27.1764 297.023 26.3955 297.438 25.4934C297.852 24.5913 298.029 23.5981 297.951 22.6085C298.026 21.6181 297.852 20.6246 297.443 19.7192C297.035 18.8138 296.406 18.0254 295.613 17.4264C293.544 16.183 291.144 15.6028 288.736 15.7636H282.272V29.394ZM349.846 53.7735C348.734 50.4031 347.625 47.0965 346.518 43.8539H327.96C326.85 47.14 325.741 50.4465 324.633 53.7735H314.075C316.976 45.753 319.93 37.9247 322.937 30.2886C325.945 22.6538 328.985 15.231 332.056 8.02025H342.679C345.835 15.6142 348.916 23.24 351.924 30.8978C354.932 38.5543 357.844 46.1789 360.66 53.7716L349.846 53.7735ZM330.776 35.6641H343.639C342.614 32.6782 341.558 29.7024 340.47 26.7369C339.382 23.7739 338.305 20.862 337.238 18.0012C335.02 23.848 332.866 29.7356 330.776 35.6641ZM366.225 8.02025H383.696C387.98 7.90091 392.228 8.82324 396.076 10.708C399.432 12.4231 402.172 15.14 403.915 18.482C405.805 22.3063 406.728 26.536 406.603 30.8001C406.723 35.0883 405.789 39.3404 403.882 43.1833C402.138 46.5478 399.402 49.295 396.045 51.0531C392.194 52.9667 387.93 53.901 383.631 53.7735H366.225V8.02025ZM383.12 45.327C384.93 45.444 386.743 45.1703 388.438 44.5244C390.133 43.8785 391.669 42.8756 392.942 41.5837C395.407 38.5521 396.63 34.6984 396.365 30.8001C396.63 26.9521 395.43 23.1462 393.005 20.1468C391.727 18.8661 390.188 17.8749 388.494 17.2404C386.799 16.6058 384.988 16.3426 383.183 16.4686H376.079V45.327H383.12ZM414.409 8.02025H424.266V53.7735H414.409V8.02025ZM454.787 7.06239C457.989 7.01643 461.171 7.58077 464.162 8.72523C466.868 9.7764 469.312 11.4027 471.327 13.4916C473.359 15.6397 474.919 18.1901 475.904 20.9782C477.013 24.154 477.554 27.5 477.504 30.8633C477.549 34.2169 477.008 37.5527 475.904 40.7197C474.92 43.5269 473.362 46.0982 471.329 48.2696C469.322 50.376 466.875 52.0144 464.162 53.0685C458.11 55.2869 451.466 55.2869 445.413 53.0685C442.701 52.0147 440.254 50.3762 438.247 48.2696C436.213 46.0985 434.654 43.5272 433.67 40.7197C432.566 37.5533 432.025 34.2182 432.07 30.8652C432.02 27.5019 432.561 24.1559 433.67 20.9801C434.655 18.1912 436.214 15.6401 438.247 13.4916C440.262 11.4022 442.707 9.77588 445.413 8.72523C448.404 7.58017 451.585 7.01519 454.787 7.06047V7.06239ZM454.787 46.1585C457.157 46.2225 459.494 45.5883 461.507 44.3347C463.427 43.0661 464.92 41.2491 465.793 39.1201C466.841 36.497 467.342 33.6871 467.264 30.8633C467.341 28.0408 466.841 25.2323 465.793 22.6104C464.925 20.4864 463.43 18.6779 461.507 17.4264C459.463 16.2522 457.146 15.6342 454.788 15.6342C452.43 15.6342 450.113 16.2522 448.068 17.4264C446.144 18.6768 444.648 20.4857 443.781 22.6104C442.733 25.2328 442.232 28.0421 442.31 30.8652C442.232 33.6884 442.732 36.4977 443.781 39.1201C444.653 41.2499 446.147 43.0672 448.068 44.3347C450.081 45.5883 452.417 46.2225 454.787 46.1585ZM0 94.8523H78.2784V115.86H25.2722V144.742H72.0408V165.747H25.2722V212.188H0V94.8523ZM148.677 92.3925C156.889 92.2762 165.049 93.7234 172.72 96.6569C179.659 99.3525 185.93 103.524 191.097 108.883C196.308 114.392 200.305 120.933 202.831 128.082C205.673 136.229 207.063 144.812 206.936 153.439C207.05 162.038 205.662 170.59 202.833 178.711C200.31 185.911 196.314 192.506 191.099 198.075C185.951 203.478 179.677 207.68 172.722 210.384C165.051 213.319 156.892 214.767 148.679 214.65C140.467 214.767 132.308 213.319 124.637 210.384C117.681 207.681 111.405 203.478 106.258 198.075C101.042 192.507 97.0453 185.912 94.5237 178.711C91.6919 170.591 90.3025 162.038 90.4183 153.439C90.2885 144.812 91.6775 136.229 94.5218 128.082C97.0468 120.932 101.044 114.391 106.256 108.883C111.423 103.524 117.693 99.3519 124.633 96.6569C132.304 93.7232 140.465 92.276 148.677 92.3925ZM148.677 192.66C154.756 192.824 160.748 191.197 165.909 187.981C170.835 184.73 174.666 180.07 176.904 174.61C179.591 167.884 180.876 160.681 180.678 153.441C180.876 146.201 179.591 138.996 176.904 132.27C174.677 126.823 170.841 122.184 165.907 118.975C160.728 115.813 154.744 114.218 148.677 114.381C142.61 114.217 136.625 115.812 131.445 118.975C126.511 122.183 122.674 126.821 120.449 132.27C117.761 138.995 116.476 146.199 116.675 153.439C116.476 160.679 117.76 167.883 120.449 174.608C122.685 180.071 126.518 184.732 131.445 187.981C136.606 191.197 142.599 192.824 148.677 192.66ZM273.885 167.715V212.188H248.613V167.715C240.956 155.682 233.463 143.592 226.132 131.446C218.804 119.303 211.639 107.105 204.638 94.8504H233.354C237.838 103.495 242.461 112.139 247.222 120.78C251.981 129.423 256.767 137.957 261.581 146.381C266.504 137.846 271.318 129.285 276.023 120.697C280.724 112.111 285.373 103.495 289.97 94.8504H318.033C310.921 107.106 303.7 119.305 296.37 131.446C289.039 143.592 281.545 155.68 273.887 167.711L273.885 167.715ZM331.487 94.8523H356.759V190.198H412.39V212.19H331.487V94.8523ZM428.143 94.8523H508.881V115.86H453.415V141.293H502.646V162.301H453.415V191.184H512V212.188H428.145L428.143 94.8523Z" fill="white"/>
</g>
<defs>
<clipPath id="clip0_5_50">
<rect width="512" height="214.285" fill="white" transform="translate(0 0.372681)"/>
</clipPath>
</defs>
</svg>
