<svg width="512" height="210" viewBox="0 0 512 210" fill="none" xmlns="http://www.w3.org/2000/svg">
<g clip-path="url(#clip0_5_46)">
<path d="M63.5563 204.25C61.2659 205.396 58.7466 206.541 55.8837 207.342C53.0208 208.258 50.0434 208.831 46.837 209.289C43.745 209.747 40.5386 209.976 37.4467 209.976C31.6064 209.976 26.4531 209.175 21.758 207.457C17.0628 205.739 13.1693 203.334 9.96287 200.013C6.75643 196.692 4.23708 192.799 2.51935 188.218C0.80161 183.638 0 178.37 0 172.644C0 166.918 0.916126 161.88 2.74838 157.299C4.58063 152.718 7.09998 148.825 10.4209 145.504C13.7419 142.183 17.7499 139.778 22.4451 137.946C27.1402 136.228 32.408 135.312 38.2483 135.312C42.5999 135.312 46.7224 135.77 50.7305 136.572C54.7385 137.373 58.403 138.633 61.724 140.236V154.436C58.6321 152.604 55.3111 151.115 51.6466 150.199C47.9821 149.283 44.0886 148.71 39.8515 148.71C34.8128 148.71 30.4612 149.626 26.9112 151.459C23.3612 153.291 20.6128 156.039 18.7806 159.589C16.9483 163.139 16.0322 167.491 16.0322 172.529C16.0322 180.317 17.979 186.271 21.8725 190.394C25.766 194.517 31.2628 196.692 38.4773 196.692C40.3095 196.692 42.0273 196.578 43.8595 196.234C45.6918 196.005 47.4095 195.547 49.1273 195.089V180.66H36.3015V168.521H63.5563V204.25ZM126.311 208.487C124.593 203.22 122.875 198.067 121.158 192.913H92.0707C90.3529 198.067 88.6352 203.22 86.9175 208.487H70.3127C74.8933 195.891 79.4739 183.638 84.1691 171.728C88.8642 159.818 93.6739 148.138 98.4836 136.915H115.088C120.013 148.825 124.822 160.734 129.517 172.759C134.212 184.783 138.793 196.692 143.145 208.602H126.311V208.487ZM102.95 116.875C105.24 118.822 107.645 120.883 110.164 123.173C112.684 125.464 114.974 127.639 117.264 129.815H102.835C100.545 127.983 98.0255 125.922 95.0481 123.746C92.1852 121.57 89.0933 119.28 85.8868 116.989L102.95 116.875ZM96.4223 180.088H116.577C114.974 175.392 113.371 170.812 111.653 166.117C109.935 161.421 108.217 156.955 106.614 152.489C103.064 161.65 99.7432 170.812 96.4223 180.088ZM151.504 136.915H166.964V208.487H151.504V136.915ZM180.591 136.915H207.961C215.519 136.915 221.932 138.289 227.314 141.152C232.696 143.901 236.819 148.023 239.567 153.291C242.315 158.559 243.804 164.971 243.804 172.529C243.804 180.088 242.43 186.5 239.567 191.883C236.704 197.265 232.696 201.387 227.314 204.25C221.932 207.113 215.519 208.487 207.846 208.487H180.591V136.915ZM207.045 195.204C213.686 195.204 218.84 193.257 222.39 189.363C225.94 185.47 227.772 179.859 227.772 172.529C227.772 165.2 226.054 159.704 222.504 155.81C218.954 151.917 213.915 150.084 207.159 150.084H196.051V195.204H207.045ZM299.688 208.487V177.797H268.539V208.487H253.08V136.915H268.539V164.399H299.688V136.915H315.147V208.487H299.688ZM327.172 136.915H376.413V149.741H342.517V165.315H372.52V178.141H342.517V195.776H378.246V208.602H327.057V136.915H327.172ZM439.397 208.487C437.679 203.22 435.962 198.067 434.244 192.913H405.157C403.439 198.067 401.721 203.22 400.004 208.487H383.513C388.094 195.891 392.675 183.638 397.37 171.728C402.065 159.818 406.875 148.138 411.684 136.915H428.289C433.213 148.825 438.023 160.734 442.718 172.759C447.413 184.783 451.994 196.692 456.345 208.602H439.397V208.487ZM409.508 180.088H429.663C428.06 175.392 426.457 170.812 424.739 166.117C423.021 161.421 421.304 156.955 419.7 152.489C416.15 161.65 412.715 170.812 409.508 180.088ZM462.529 136.915H477.989V195.089H511.885V208.487H462.529V136.915ZM219.756 108.973C216.664 103.935 213.457 99.0104 210.365 94.2007C207.274 89.3911 204.067 84.4669 200.746 79.6572H191.356V122.601H200.288V92.8265C203.38 97.5217 206.586 102.446 209.793 107.485C212.999 112.523 216.206 117.562 219.298 122.486H228.688V79.5427H219.756V108.973ZM260.981 79.5427H251.019C248.156 86.2991 245.293 93.2846 242.43 100.385C239.567 107.599 236.819 114.928 234.07 122.372H244.033L247.125 113.096H264.531L267.623 122.372H277.815C275.181 115.272 272.433 108.057 269.57 100.957C266.822 93.8572 263.959 86.7572 260.981 79.5427ZM249.759 105.538C251.706 99.9265 253.767 94.4297 255.828 88.933C256.859 91.5669 257.89 94.3152 258.806 97.1781C259.836 99.9265 260.867 102.789 261.783 105.538H249.759ZM311.712 79.5427V108.859C308.62 103.82 305.414 98.8959 302.322 94.0862C299.23 89.2765 296.023 84.3524 292.702 79.5427H283.312V122.486H292.244V92.8265C295.336 97.5217 298.543 102.446 301.749 107.485C304.955 112.523 308.162 117.562 311.254 122.486H320.644V79.5427H311.712ZM280.793 35.3396V50.9138H271.631V8.08486H287.32C292.931 8.08486 297.283 9.23001 300.375 11.6348C303.352 14.0397 304.955 17.3606 304.955 21.8267C304.955 24.6896 304.268 27.0945 302.894 29.0412C301.52 30.988 299.688 32.5912 297.168 33.6219C299.001 36.4848 300.718 39.3477 302.551 42.2106C304.268 45.0734 306.101 48.0509 307.818 51.0283H297.168C294.306 45.7605 291.328 40.4928 288.236 35.4541H287.32L280.793 35.3396ZM280.793 28.1251H286.747C289.61 28.1251 291.786 27.6671 293.275 26.6364C294.764 25.6058 295.451 24.0025 295.451 21.8267C295.451 19.6509 294.764 18.0477 293.275 17.0171C291.786 15.9864 289.61 15.4139 286.862 15.4139H280.793V28.1251ZM344.12 51.0283C343.089 47.8218 342.059 44.7299 341.028 41.7525H323.622L320.53 51.0283H310.567C313.315 43.4702 316.064 36.1412 318.926 29.0412C321.789 21.8267 324.652 14.9558 327.515 8.19937H337.478C340.455 15.2993 343.318 22.5138 346.181 29.6138C349.044 36.8283 351.678 43.9283 354.426 51.0283H344.12ZM326.255 33.9654H338.28C337.363 31.217 336.333 28.3541 335.302 25.6058C334.272 22.8574 333.241 20.109 332.325 17.3606C330.263 22.8574 328.202 28.4687 326.255 33.9654ZM359.465 8.08486H375.841C380.307 8.08486 384.2 8.88647 387.407 10.6042C390.613 12.3219 393.133 14.7268 394.736 17.9332C396.454 21.1397 397.255 24.9187 397.255 29.4993C397.255 34.0799 396.454 37.859 394.736 41.0654C393.018 44.2718 390.613 46.7912 387.407 48.3944C384.2 50.1121 380.307 50.9138 375.726 50.9138H359.35V8.08486H359.465ZM375.383 43.0122C379.391 43.0122 382.483 41.867 384.544 39.4622C386.72 37.1719 387.75 33.7364 387.75 29.3848C387.75 25.0332 386.72 21.7122 384.544 19.4219C382.483 17.1316 379.391 15.9864 375.383 15.9864H368.741V43.0122H375.383ZM404.699 8.08486H413.975V51.0283H404.699V8.08486ZM442.603 7.16873C445.81 7.16873 448.787 7.74131 451.421 8.77195C454.055 9.80259 456.231 11.2913 458.178 13.2381C460.01 15.1848 461.499 17.4751 462.415 20.2235C463.445 22.9719 463.903 26.0638 463.903 29.4993C463.903 32.9348 463.445 36.0267 462.415 38.7751C461.384 41.5235 460.01 43.9283 458.178 45.8751C456.345 47.8218 454.055 49.3105 451.421 50.3412C448.787 51.3718 445.81 51.9444 442.603 51.9444C439.397 51.9444 436.42 51.3718 433.786 50.3412C431.152 49.3105 428.976 47.8218 427.029 45.8751C425.197 43.9283 423.708 41.5235 422.792 38.7751C421.762 36.0267 421.304 32.9348 421.304 29.4993C421.304 26.0638 421.762 22.9719 422.792 20.2235C423.823 17.4751 425.197 15.1848 427.029 13.2381C428.862 11.2913 431.152 9.80259 433.786 8.77195C436.42 7.62679 439.397 7.16873 442.603 7.16873ZM442.603 43.8138C445.008 43.8138 447.184 43.2412 448.902 42.096C450.62 40.9509 451.994 39.3477 452.91 37.1719C453.826 34.9961 454.284 32.4767 454.284 29.3848C454.284 26.2929 453.826 23.7735 452.91 21.5977C451.994 19.4219 450.62 17.8187 448.902 16.7881C447.184 15.6429 445.008 15.0703 442.603 15.0703C440.199 15.0703 438.023 15.6429 436.305 16.7881C434.587 17.9332 433.213 19.5364 432.297 21.5977C431.381 23.7735 430.923 26.2929 430.923 29.3848C430.923 32.4767 431.381 34.9961 432.297 37.1719C433.213 39.3477 434.587 40.9509 436.305 42.096C438.023 43.2412 440.199 43.8138 442.603 43.8138ZM280.793 35.3396V50.9138H271.631V8.08486H287.32C292.931 8.08486 297.283 9.23001 300.375 11.6348C303.352 14.0397 304.955 17.3606 304.955 21.8267C304.955 24.6896 304.268 27.0945 302.894 29.0412C301.52 30.988 299.688 32.5912 297.168 33.6219C299.001 36.4848 300.718 39.3477 302.551 42.2106C304.268 45.0734 306.101 48.0509 307.818 51.0283H297.168C294.306 45.7605 291.328 40.4928 288.236 35.4541H287.32L280.793 35.3396ZM280.793 28.1251H286.747C289.61 28.1251 291.786 27.6671 293.275 26.6364C294.764 25.6058 295.451 24.0025 295.451 21.8267C295.451 19.6509 294.764 18.0477 293.275 17.0171C291.786 15.9864 289.61 15.4139 286.862 15.4139H280.793V28.1251ZM344.12 51.0283C343.089 47.8218 342.059 44.7299 341.028 41.7525H323.622L320.53 51.0283H310.567C313.315 43.4702 316.064 36.1412 318.926 29.0412C321.789 21.8267 324.652 14.9558 327.515 8.19937H337.478C340.455 15.2993 343.318 22.5138 346.181 29.6138C349.044 36.8283 351.678 43.9283 354.426 51.0283H344.12ZM326.255 33.9654H338.28C337.363 31.217 336.333 28.3541 335.302 25.6058C334.272 22.8574 333.241 20.109 332.325 17.3606C330.263 22.8574 328.202 28.4687 326.255 33.9654ZM359.58 8.08486H375.955C380.421 8.08486 384.315 8.88647 387.521 10.6042C390.728 12.3219 393.247 14.7268 394.85 17.9332C396.568 21.1397 397.37 24.9187 397.37 29.4993C397.37 34.0799 396.568 37.859 394.85 41.0654C393.133 44.2718 390.728 46.7912 387.521 48.3944C384.315 50.1121 380.421 50.9138 375.841 50.9138H359.58V8.08486ZM375.383 43.0122C379.391 43.0122 382.483 41.867 384.544 39.4622C386.72 37.1719 387.75 33.7364 387.75 29.3848C387.75 25.0332 386.72 21.7122 384.544 19.4219C382.483 17.1316 379.391 15.9864 375.383 15.9864H368.741V43.0122H375.383ZM404.699 8.08486H413.975V51.0283H404.699V8.08486ZM442.603 7.16873C445.81 7.16873 448.787 7.74131 451.421 8.77195C454.055 9.80259 456.231 11.2913 458.178 13.2381C460.01 15.1848 461.499 17.4751 462.415 20.2235C463.445 22.9719 463.903 26.0638 463.903 29.4993C463.903 32.9348 463.445 36.0267 462.415 38.7751C461.384 41.5235 460.01 43.9283 458.178 45.8751C456.345 47.8218 454.055 49.3105 451.421 50.3412C448.787 51.3718 445.81 51.9444 442.603 51.9444C439.397 51.9444 436.42 51.3718 433.786 50.3412C431.152 49.3105 428.976 47.8218 427.029 45.8751C425.197 43.9283 423.708 41.5235 422.792 38.7751C421.762 36.0267 421.304 32.9348 421.304 29.4993C421.304 26.0638 421.762 22.9719 422.792 20.2235C423.823 17.4751 425.197 15.1848 427.029 13.2381C428.862 11.2913 431.152 9.80259 433.786 8.77195C436.42 7.62679 439.397 7.16873 442.603 7.16873ZM442.603 43.8138C445.008 43.8138 447.184 43.2412 448.902 42.096C450.62 40.9509 451.994 39.3477 452.91 37.1719C453.826 34.9961 454.284 32.4767 454.284 29.3848C454.284 26.2929 453.826 23.7735 452.91 21.5977C451.994 19.4219 450.62 17.8187 448.902 16.7881C447.184 15.6429 445.008 15.0703 442.603 15.0703C440.199 15.0703 438.023 15.6429 436.305 16.7881C434.587 17.9332 433.213 19.5364 432.297 21.5977C431.381 23.7735 430.923 26.2929 430.923 29.3848C430.923 32.4767 431.381 34.9961 432.297 37.1719C433.213 39.3477 434.587 40.9509 436.305 42.096C438.023 43.2412 440.199 43.8138 442.603 43.8138ZM48.2111 0.870361V58.1282H105.469V0.870361H48.2111ZM88.1771 41.2944C87.1465 42.6686 85.7723 43.6993 83.9401 44.5009C82.1078 45.3025 79.932 45.646 77.4127 45.646H64.5869V13.3526H76.7256C80.2756 13.3526 83.0239 14.0397 84.9707 15.5284C86.9175 16.9026 87.9481 18.9639 87.9481 21.7122C87.9481 23.2009 87.6046 24.5751 86.9175 25.7203C86.2304 26.8654 85.1997 27.7816 83.8255 28.3541C85.7723 29.0412 87.1465 29.9574 88.1771 31.3316C89.2078 32.7057 89.6659 34.309 89.6659 36.2557C89.6659 38.2025 89.0933 39.9202 88.1771 41.2944ZM79.932 25.4913C80.8481 24.8042 81.3062 23.7735 81.3062 22.3993C81.3062 19.88 79.5885 18.6203 76.0385 18.6203H71.1143V26.6364H76.0385C77.7562 26.6364 79.0159 26.2929 79.932 25.4913ZM76.9546 31.6751H71.2288V40.3783H76.9546C78.9014 40.3783 80.3901 40.0348 81.4207 39.2331C82.4514 38.546 83.0239 37.4009 83.0239 36.0267C82.9094 33.1638 80.9626 31.6751 76.9546 31.6751ZM119.783 0.870361V58.1282H177.041V0.870361H119.783ZM159.749 41.2944C158.719 42.6686 157.345 43.6993 155.512 44.5009C153.68 45.3025 151.504 45.646 148.985 45.646H136.159V13.3526H148.298C151.848 13.3526 154.596 14.0397 156.543 15.5284C158.49 16.9026 159.52 18.9639 159.52 21.7122C159.52 23.2009 159.177 24.5751 158.49 25.7203C157.803 26.8654 156.772 27.7816 155.398 28.3541C157.345 29.0412 158.719 29.9574 159.749 31.3316C160.78 32.7057 161.238 34.309 161.238 36.2557C161.238 38.2025 160.666 39.9202 159.749 41.2944ZM151.504 25.4913C152.42 24.8042 152.879 23.7735 152.879 22.3993C152.879 19.88 151.161 18.6203 147.611 18.6203H142.687V26.6364H147.611C149.329 26.6364 150.588 26.2929 151.504 25.4913ZM148.527 31.6751H142.801V40.3783H148.527C150.474 40.3783 151.962 40.0348 152.993 39.2331C154.024 38.546 154.596 37.4009 154.596 36.0267C154.482 33.1638 152.535 31.6751 148.527 31.6751ZM191.356 58.1282H248.614V0.870361H191.356V58.1282ZM232.467 43.5847C231.093 44.2718 229.604 44.9589 227.886 45.3025C226.169 45.7605 224.336 45.9896 222.39 45.9896C219.87 45.9896 217.465 45.646 215.404 44.8444C213.343 44.0428 211.625 43.0122 210.136 41.638C208.762 40.2638 207.617 38.546 206.815 36.4848C206.014 34.4235 205.67 32.1332 205.67 29.6138C205.67 27.0945 206.014 24.8042 206.815 22.8574C207.617 20.7961 208.762 19.0784 210.251 17.7042C211.74 16.2155 213.572 15.1848 215.633 14.3832C217.694 13.5816 219.985 13.2381 222.619 13.2381C224.451 13.2381 226.054 13.4671 227.657 13.8106C229.261 14.1542 230.749 14.7268 232.123 15.4139V21.4832C230.864 20.6816 229.49 19.9945 228.115 19.6509C226.627 19.1929 225.138 18.9639 223.535 18.9639C221.359 18.9639 219.412 19.4219 217.924 20.2235C216.32 21.0251 215.175 22.2848 214.374 23.7735C213.572 25.3767 213.114 27.209 213.114 29.4993C213.114 31.7896 213.572 33.6219 214.374 35.2251C215.175 36.8283 216.32 37.9735 217.924 38.7751C219.412 39.5767 221.359 40.0348 223.535 40.0348C226.856 40.0348 229.948 39.1186 232.811 37.4009V43.5847H232.467Z" fill="white"/>
</g>
<defs>
<clipPath id="clip0_5_46">
<rect width="512" height="209.106" fill="white" transform="translate(0 0.870361)"/>
</clipPath>
</defs>
</svg>
