<svg width="512" height="221" viewBox="0 0 512 221" fill="none" xmlns="http://www.w3.org/2000/svg">
<mask id="mask0_5_32" style="mask-type:luminance" maskUnits="userSpaceOnUse" x="0" y="32" width="512" height="168">
<path d="M0 32.088H512V199.418H0V32.088Z" fill="white"/>
</mask>
<g mask="url(#mask0_5_32)">
<path d="M0.064209 78.9475V152.977H74.1254V78.9475H0.064209ZM51.7147 131.192C50.4504 132.976 48.647 134.356 46.3058 135.328C43.9646 136.3 41.1486 136.785 37.8678 136.785H21.2679V95.1442H36.9039C41.5133 95.1442 45.0816 96.068 47.6101 97.9115C50.1401 99.7565 51.4044 102.404 51.4044 105.862C51.4044 107.841 50.9496 109.56 50.0457 111.018C49.1418 112.475 47.8003 113.629 46.0227 114.48C48.4782 115.295 50.3546 116.585 51.6604 118.35C52.9618 120.116 53.6154 122.263 53.6154 124.786C53.6154 127.271 52.9833 129.408 51.7176 131.194L51.7133 131.189L51.7147 131.192ZM41.1215 110.836C42.2713 109.885 42.852 108.553 42.852 106.846C42.852 103.544 40.6052 101.893 36.1102 101.893H29.7087V112.262H36.1102C38.2997 112.262 39.9716 111.787 41.1215 110.836ZM37.1885 118.785H29.7087V130.026H37.0727C39.6012 130.026 41.5448 129.551 42.9092 128.6C44.2678 127.649 44.9472 126.28 44.9472 124.495C44.9472 120.691 42.3614 118.785 37.1885 118.785ZM92.3744 78.9475V152.977H166.438V78.9475H92.3744ZM144.025 131.192C142.761 132.976 140.957 134.356 138.617 135.328C136.276 136.3 133.459 136.785 130.177 136.785H113.581V95.1442H129.216C133.825 95.1442 137.395 96.068 139.923 97.9115C142.452 99.7565 143.717 102.404 143.717 105.862C143.717 107.841 143.263 109.56 142.359 111.018C141.455 112.475 140.111 113.629 138.334 114.48C140.791 115.295 142.668 116.585 143.973 118.35C145.275 120.116 145.927 122.263 145.927 124.786C145.927 127.271 145.295 129.408 144.031 131.194L144.025 131.189V131.192ZM133.433 110.836C134.583 109.885 135.164 108.553 135.164 106.846C135.164 103.544 132.915 101.893 128.422 101.893H122.02V112.262H128.422C130.61 112.262 132.283 111.787 133.433 110.836ZM129.497 118.785H122.022V130.026H129.384C131.914 130.026 133.858 129.551 135.222 128.6C136.581 127.649 137.259 126.28 137.259 124.495C137.259 120.691 134.673 118.785 129.5 118.785H129.497ZM185.759 152.977H259.823V78.9475H185.759V152.977ZM238.951 134.142C237.226 135.092 235.225 135.844 232.951 136.399C230.679 136.952 228.285 137.228 225.778 137.228C222.442 137.228 219.443 136.742 216.779 135.771C214.113 134.8 211.856 133.4 210.017 131.578C208.172 129.748 206.761 127.513 205.784 124.87C204.801 122.227 204.315 119.245 204.315 115.939C204.315 112.707 204.823 109.786 205.847 107.175C206.865 104.568 208.334 102.332 210.257 100.467C212.175 98.6023 214.479 97.1779 217.165 96.1839C219.851 95.1971 222.861 94.7008 226.189 94.7008C228.505 94.7008 230.689 94.9411 232.748 95.4159C234.808 95.8921 236.72 96.5872 238.48 97.5011V105.607C236.868 104.538 235.103 103.721 233.244 103.183C231.314 102.624 229.313 102.346 227.304 102.358C224.439 102.358 221.999 102.891 219.981 103.957C217.998 104.988 216.377 106.601 215.336 108.579C214.259 110.596 213.721 113.05 213.721 115.945C213.721 118.838 214.239 121.303 215.279 123.336C216.318 125.372 217.829 126.922 219.804 127.989C221.785 129.055 224.183 129.587 227.01 129.587C231.321 129.587 235.304 128.464 238.945 126.217V134.152L238.951 134.142ZM322.806 144.393C318.754 137.89 314.651 131.379 310.495 124.849C306.444 118.482 302.34 112.149 298.186 105.85V144.393H286.657V88.6026H298.809C303.017 94.8953 307.157 101.205 311.234 107.524C315.312 113.844 319.378 120.256 323.429 126.759V88.6026H334.958V144.393H322.806ZM346.765 88.604H385.001V98.5909H358.736V110.684H382.048V120.671H358.736V134.407H386.481V144.393H346.771V88.6026L346.765 88.604ZM438.854 144.393C435.354 131.845 432.003 119.255 428.801 106.627C427.257 112.92 425.655 119.217 424.006 125.511C422.355 131.818 420.654 138.113 418.905 144.393H406.305C403.657 135.22 401.131 126.012 398.728 116.771C396.293 107.417 394 98.027 391.847 88.604H404.837C406.128 95.8485 407.495 103.079 408.936 110.295C410.354 117.418 411.875 124.519 413.497 131.598C416.933 118.087 420.205 104.535 423.315 90.9452H434.911C436.456 97.6055 438.042 104.249 439.665 110.877C441.287 117.512 442.951 124.129 444.652 130.738C446.196 123.873 447.694 116.903 449.134 109.829C450.573 102.773 451.913 95.6974 453.154 88.604H465.911C463.758 98.0268 461.464 107.417 459.031 116.771C456.628 126.012 454.103 135.22 451.454 144.393H438.854ZM489.273 145.466C486.234 145.466 483.235 145.127 480.273 144.456C477.298 143.779 474.426 142.706 471.735 141.267V130.532C477.244 133.902 483.089 135.586 489.273 135.586C492.776 135.586 495.441 134.99 497.271 133.797C499.101 132.605 500.015 130.946 500.015 128.822C500.015 127.217 499.563 125.956 498.664 125.05C497.76 124.147 496.564 123.42 495.072 122.875C493.426 122.285 491.75 121.779 490.052 121.359C487.013 120.63 484.336 119.805 482.019 118.868C479.701 117.938 477.742 116.834 476.147 115.563C474.591 114.342 473.346 112.77 472.514 110.975C471.688 109.187 471.277 107.047 471.277 104.558C471.277 101.032 472.167 97.9973 473.943 95.4617C475.721 92.9231 478.231 90.9623 481.479 89.5922C484.721 88.2207 488.588 87.5314 493.067 87.5314C496.003 87.5314 498.888 87.8703 501.72 88.5411C504.552 89.2147 507.103 90.12 509.368 91.2598V101.837C507.103 100.436 504.542 99.3474 501.683 98.5737C498.876 97.8019 495.978 97.4094 493.067 97.4067C489.924 97.4067 487.491 97.9502 485.766 99.0385C484.04 100.125 483.178 101.68 483.178 103.705C483.178 105.158 483.588 106.308 484.415 107.166C485.236 108.024 486.41 108.721 487.927 109.264C489.69 109.882 491.482 110.415 493.296 110.86C495.92 111.535 498.368 112.272 500.633 113.077C502.9 113.884 504.895 114.903 506.62 116.148C508.33 117.373 509.711 119.003 510.637 120.893C511.588 122.812 512.066 125.172 512.066 127.969C512.066 131.652 511.162 134.801 509.364 137.417C507.561 140.037 504.962 142.031 501.558 143.405C498.16 144.781 494.066 145.466 489.273 145.466Z" fill="white"/>
</g>
</svg>
