<svg width="512" height="165" viewBox="0 0 512 165" fill="none" xmlns="http://www.w3.org/2000/svg">
<g clip-path="url(#clip0_5_42)">
<path d="M43.4272 73.4942C49.5451 73.3939 55.663 74.4971 61.3798 76.7036C66.595 78.7095 71.2086 81.8186 75.12 85.8303C79.0315 89.9424 82.0403 94.8568 83.8456 100.172C85.9518 106.29 86.9547 112.609 86.9547 119.128C87.055 125.547 86.052 131.965 83.8456 137.983C81.94 143.399 78.9312 148.313 75.12 152.425C71.3089 156.437 66.595 159.546 61.3798 161.652C55.663 163.859 49.5451 164.962 43.4272 164.862C37.3092 164.962 31.1913 163.859 25.4746 161.652C20.2593 159.647 15.6458 156.537 11.7343 152.425C7.82286 148.313 4.81405 143.399 3.00876 137.983C0.90259 131.965 -0.100349 125.547 -0.100349 119.128C-0.200643 112.709 0.802296 106.29 3.00876 100.172C4.91434 94.8568 7.92316 89.9424 11.7343 85.8303C15.5455 81.8186 20.2593 78.7095 25.4746 76.7036C31.2916 74.3968 37.3092 73.3939 43.4272 73.4942ZM43.4272 148.313C47.9404 148.414 52.4536 147.21 56.2648 144.803C59.9757 142.396 62.7839 138.886 64.4889 134.874C66.4948 129.859 67.4977 124.443 67.2971 119.028C67.3974 113.612 66.4948 108.296 64.4889 103.281C62.7839 99.1694 59.9757 95.7594 56.2648 93.3524C52.3533 90.9453 47.9404 89.8421 43.4272 89.9424C38.9139 89.8421 34.4007 91.0456 30.5896 93.3524C26.8787 95.7594 24.0705 99.1694 22.3655 103.281C20.3596 108.296 19.3567 113.712 19.5572 119.028C19.4569 124.443 20.3596 129.759 22.3655 134.874C24.0705 138.986 26.8787 142.396 30.5896 144.803C34.501 147.21 38.9139 148.414 43.4272 148.313ZM116.341 130.963V162.756H97.6861V75.2995H129.68C141.214 75.2995 150.04 77.7065 156.157 82.5206C162.275 87.3347 165.384 94.255 165.384 103.181C165.585 108.396 164.081 113.612 161.272 118.025C158.364 122.237 154.352 125.547 149.538 127.452C153.249 133.269 156.859 139.086 160.47 144.903C164.081 150.72 167.691 156.738 171.202 162.856H149.538C143.621 152.125 137.603 141.493 131.285 131.063L116.341 130.963ZM116.341 116.219H128.577C134.394 116.219 138.807 115.216 141.815 113.11C144.824 111.004 146.329 107.694 146.329 103.281C146.329 98.7682 144.824 95.4585 141.815 93.3524C138.807 91.2462 134.494 90.143 128.677 90.143H116.341V116.219ZM203.797 125.146H199.284V162.856H180.429V75.2995H199.284V109.199H204.198C209.413 103.281 214.428 97.665 219.242 92.1488C224.056 86.6327 228.77 81.0162 233.384 75.2995H256.05C250.133 82.2197 244.215 89.14 238.198 95.96C232.18 102.78 225.962 109.7 219.744 116.621C226.463 124.243 233.083 131.865 239.602 139.488C246.221 147.11 252.841 154.933 259.46 162.956H235.49C230.375 156.638 225.16 150.319 220.045 144.201C214.729 137.983 209.413 131.665 203.797 125.146ZM325.253 162.856C318.934 152.626 312.415 142.396 305.896 132.166C299.377 121.936 292.958 112.007 286.539 102.379V162.856H268.386V75.2995H287.442C294.061 85.1283 300.581 95.0574 306.999 104.986C313.418 114.916 319.837 124.945 326.155 135.175V75.2995H344.309V162.856H325.253ZM358.751 75.2995H419.028V90.9453H377.606V109.901H414.314V125.547H377.606V147.11H421.334V162.756H358.751V75.2995ZM479.003 129.659V162.856H460.148V129.659C454.431 120.632 448.815 111.706 443.399 102.579C437.883 93.5529 432.567 84.4262 427.352 75.2995H448.815C452.125 81.7183 455.635 88.2374 459.145 94.6562C462.655 101.075 466.266 107.494 469.877 113.712C473.587 107.393 477.098 100.975 480.608 94.5559C484.118 88.1371 487.629 81.7183 491.039 75.2995H512C506.684 84.4262 501.268 93.5529 495.853 102.579C490.336 111.706 484.72 120.632 479.003 129.659ZM277.613 30.2675V43.9075H269.59V6.39761H283.33C288.244 6.39761 292.056 7.40055 294.763 9.50672C297.371 11.6129 298.775 14.5214 298.775 18.4329C298.876 20.6393 298.274 22.9461 296.97 24.7514C295.766 26.5567 293.961 27.9608 291.955 28.7631C293.56 31.2705 295.064 33.7778 296.669 36.2852C298.173 38.7925 299.778 41.4002 301.283 44.0078H291.855C289.348 39.3943 286.74 34.7808 284.032 30.3678L277.613 30.2675ZM277.613 23.949H282.829C284.834 24.0493 286.74 23.6482 288.545 22.6452C289.849 21.6423 290.651 20.0376 290.451 18.4329C290.551 16.8282 289.849 15.2235 288.545 14.2205C286.84 13.2176 284.834 12.7161 282.929 12.8164H277.613V23.949ZM333.076 44.0078C332.173 41.1996 331.27 38.4916 330.368 35.884H315.123L312.415 44.0078H303.69C306.097 37.3884 308.504 30.9696 311.011 24.7514C313.518 18.4329 316.026 12.4152 318.533 6.49791H327.259C329.866 12.7161 332.374 19.0346 334.881 25.2529C337.388 31.5714 339.695 37.7896 342.102 44.0078H333.076ZM317.43 29.064H327.961C327.158 26.657 326.256 24.1496 325.353 21.7426C324.45 19.3355 323.548 16.9285 322.745 14.5214C320.94 19.3355 319.135 24.2499 317.43 29.064ZM346.515 6.39761H360.857C364.367 6.29732 367.878 7.09967 370.987 8.60408C373.795 10.0082 376.001 12.2147 377.406 15.0229C378.91 18.132 379.712 21.6423 379.612 25.1526C379.712 28.6628 378.91 32.1731 377.406 35.2822C376.001 38.0905 373.695 40.2969 370.987 41.701C367.777 43.3057 364.367 44.0078 360.757 43.9075H346.415V6.39761H346.515ZM360.456 36.9872C363.966 36.9872 366.674 35.9843 368.479 33.8781C370.385 31.8722 371.288 28.8634 371.288 25.0523C371.288 21.2411 370.385 18.3326 368.479 16.3267C366.674 14.3208 363.966 13.3179 360.456 13.3179H354.639V36.9872H360.456ZM386.131 6.39761H394.255V44.0078H386.131V6.39761ZM419.328 5.59526C421.936 5.59526 424.544 5.99644 427.051 6.99938C429.258 7.90202 431.263 9.20584 432.968 10.9108C434.673 12.7161 435.877 14.722 436.679 17.0288C437.582 19.6364 438.083 22.3443 437.983 25.1526C437.983 27.8605 437.582 30.6687 436.679 33.2764C435.877 35.5831 434.573 37.6893 432.968 39.4946C431.364 41.1996 429.358 42.6037 427.051 43.406C422.036 45.2113 416.62 45.2113 411.606 43.406C409.399 42.5034 407.393 41.1996 405.688 39.4946C403.983 37.6893 402.78 35.5831 401.978 33.2764C401.075 30.6687 400.674 27.9608 400.674 25.1526C400.674 22.3443 401.075 19.6364 401.978 17.0288C402.78 14.722 404.084 12.6158 405.688 10.9108C407.393 9.20584 409.399 7.90202 411.606 6.99938C414.113 5.99644 416.721 5.49497 419.328 5.59526ZM419.328 37.6893C421.234 37.7896 423.24 37.1878 424.845 36.1849C426.449 35.1819 427.653 33.6775 428.355 31.8722C429.258 29.7661 429.659 27.359 429.558 25.0523C429.659 22.7455 429.258 20.4387 428.355 18.2323C427.653 16.5273 426.449 15.0229 424.845 14.0199C421.435 12.0141 417.222 12.0141 413.812 14.0199C412.208 15.0229 411.004 16.5273 410.302 18.2323C409.399 20.3385 408.998 22.7455 409.098 25.0523C408.998 27.359 409.399 29.6658 410.302 31.8722C411.004 33.5772 412.208 35.0816 413.812 36.1849C415.417 37.1878 417.423 37.7896 419.328 37.6893ZM73.9165 0.0791016V50.226H124.063V0.0791016H73.9165ZM108.919 35.4828C108.016 36.7866 106.713 37.6893 105.208 38.291C103.403 38.9931 101.397 39.294 99.4914 39.294H88.3588V11.0111H98.99C102.099 11.0111 104.506 11.6129 106.211 12.9167C107.916 14.1202 108.919 16.2264 108.819 18.3326C108.819 19.5361 108.518 20.7396 107.916 21.8429C107.214 22.8458 106.311 23.6482 105.208 24.1496C106.713 24.5508 108.016 25.5537 109.019 26.7573C109.922 28.0611 110.423 29.5655 110.323 31.0699C110.223 32.6746 109.822 34.179 108.919 35.4828ZM101.798 21.6423C102.601 20.9402 103.002 19.9373 103.002 18.9343C103.002 16.7279 101.497 15.6246 98.3882 15.6246H94.0756V22.6452H98.3882C99.5917 22.7455 100.795 22.3443 101.798 21.6423ZM99.0903 27.0581H94.0756V34.6805H99.0903C100.494 34.7808 101.898 34.3796 103.002 33.6775C103.904 33.0758 104.406 31.9725 104.406 30.8693C104.306 28.362 102.601 27.0581 99.0903 27.0581ZM136.6 0.0791016V50.226H186.747V0.0791016H136.6ZM171.603 35.4828C170.7 36.7866 169.396 37.6893 167.892 38.291C166.087 38.9931 164.081 39.294 162.175 39.294H150.942V11.0111H161.573C164.682 11.0111 167.089 11.6129 168.794 12.9167C170.499 14.1202 171.502 16.2264 171.402 18.3326C171.402 19.5361 171.101 20.7396 170.499 21.8429C169.797 22.8458 168.895 23.6482 167.792 24.1496C169.296 24.5508 170.6 25.5537 171.603 26.7573C172.505 28.0611 173.007 29.5655 172.906 31.0699C172.906 32.6746 172.505 34.179 171.603 35.4828ZM164.482 21.6423C165.284 20.9402 165.685 19.9373 165.685 18.9343C165.685 16.7279 164.181 15.6246 161.072 15.6246H156.759V22.6452H161.072C162.275 22.7455 163.479 22.3443 164.482 21.6423ZM161.774 27.0581H156.759V34.6805H161.774C163.178 34.7808 164.582 34.3796 165.685 33.6775C166.588 33.0758 167.089 31.9725 167.089 30.8693C166.989 28.362 165.284 27.0581 161.774 27.0581ZM199.284 50.226H249.431V0.0791016H199.284V50.226ZM235.39 37.4887C234.086 38.1908 232.782 38.6922 231.378 38.9931C229.773 39.3943 228.168 39.5949 226.564 39.5949C224.458 39.5949 222.452 39.294 220.446 38.5919C218.741 37.9902 217.136 36.9872 215.832 35.7837C214.528 34.4799 213.526 32.9755 212.924 31.2705C212.222 29.3649 211.921 27.2587 211.921 25.2529C211.921 23.247 212.222 21.2411 212.924 19.3355C213.626 17.6305 214.629 16.0258 215.933 14.8223C217.236 13.5185 218.841 12.5155 220.646 11.9138C222.652 11.2117 224.658 10.9108 226.764 10.9108C228.269 10.9108 229.773 11.1114 231.177 11.4123C232.481 11.7132 233.785 12.2147 235.089 12.8164V18.132C233.985 17.4299 232.782 16.8282 231.578 16.5273C230.275 16.1261 228.87 15.9255 227.567 15.9255C225.862 15.9255 224.157 16.2264 222.652 17.0288C221.348 17.7308 220.245 18.834 219.543 20.1379C218.741 21.6423 218.44 23.4476 218.44 25.1526C218.34 26.8576 218.741 28.5625 219.543 30.1672C220.245 31.4711 221.248 32.5743 222.652 33.2764C224.157 34.0787 225.862 34.3796 227.567 34.3796C230.375 34.3796 233.183 33.5772 235.69 32.0728L235.39 37.4887Z" fill="white"/>
</g>
<defs>
<clipPath id="clip0_5_42">
<rect width="512" height="164.582" fill="white" transform="translate(0 0.0791016)"/>
</clipPath>
</defs>
</svg>
