<svg width="512" height="184" viewBox="0 0 512 184" fill="none" xmlns="http://www.w3.org/2000/svg">
<g clip-path="url(#clip0_5_40)">
<path d="M116.043 0.870117V39.4286H154.601V0.870117H116.043ZM142.739 28.0816C142.026 29.0544 141.048 29.8019 139.923 30.2355C138.522 30.7737 137.029 31.0312 135.529 30.9936H126.889V9.30518H135.028C137.427 9.30518 139.285 9.78536 140.602 10.7457C141.25 11.217 141.77 11.8426 142.115 12.5658C142.46 13.2889 142.619 14.0867 142.578 14.8869C142.601 15.8305 142.356 16.7613 141.87 17.5706C141.361 18.3615 140.634 18.9882 139.776 19.3751C140.942 19.7223 141.969 20.4286 142.711 21.3933C143.407 22.3694 143.764 23.5465 143.729 24.7448C143.76 25.9336 143.414 27.1018 142.74 28.0816H142.739ZM137.225 17.4796C137.525 17.2262 137.762 16.9067 137.918 16.5463C138.074 16.1859 138.145 15.7943 138.124 15.402C138.124 13.6834 136.954 12.8238 134.614 12.8233H131.283V18.223H134.614C135.544 18.2866 136.467 18.0237 137.225 17.4796ZM135.175 21.6208H131.282V27.4755H135.116C136.181 27.5415 137.24 27.2822 138.154 26.7321C138.498 26.4956 138.777 26.1751 138.962 25.8008C139.148 25.4265 139.235 25.011 139.215 24.5936C139.215 22.6117 137.868 21.6208 135.175 21.6208ZM164.241 0.870117V39.4286H202.799V0.870117H164.241ZM190.937 28.0816C190.224 29.0544 189.247 29.8019 188.121 30.2355C186.72 30.7737 185.227 31.0312 183.727 30.9936H175.086V9.30518H183.226C185.624 9.30518 187.482 9.78536 188.8 10.7457C189.448 11.217 189.968 11.8426 190.313 12.5658C190.658 13.2889 190.817 14.0867 190.775 14.8869C190.799 15.8305 190.553 16.7613 190.067 17.5706C189.558 18.3615 188.831 18.9882 187.974 19.3751C189.14 19.7223 190.167 20.4286 190.908 21.3933C191.604 22.3694 191.961 23.5465 191.926 24.7448C191.957 25.9336 191.611 27.1018 190.937 28.0816ZM185.423 17.4796C185.723 17.2261 185.96 16.9066 186.116 16.5462C186.272 16.1858 186.342 15.7942 186.322 15.402C186.322 13.6834 185.152 12.8238 182.813 12.8233H179.48V18.223H182.812C183.742 18.2866 184.666 18.0237 185.423 17.4796ZM183.373 21.6208H179.48V27.4755H183.314C184.379 27.5415 185.438 27.2822 186.352 26.7321C186.696 26.4956 186.975 26.1751 187.16 25.8008C187.346 25.4265 187.433 25.011 187.413 24.5936C187.413 22.6117 186.066 21.6208 183.373 21.6208ZM212.439 39.4286H250.998V0.870117H212.439V39.4286ZM240.132 29.6193C239.148 30.1476 238.098 30.5426 237.01 30.7938C235.787 31.0858 234.532 31.2305 233.275 31.2249C231.681 31.2483 230.095 30.9917 228.59 30.4669C227.271 30.0043 226.07 29.2583 225.07 28.2814C224.087 27.2933 223.335 26.1004 222.866 24.788C222.336 23.2947 222.077 21.719 222.1 20.1347C222.078 18.5767 222.348 17.0284 222.897 15.5702C223.401 14.2534 224.184 13.0615 225.193 12.0768C226.221 11.088 227.447 10.3279 228.789 9.84654C230.298 9.31276 231.889 9.05112 233.489 9.07383C234.637 9.06776 235.783 9.19247 236.903 9.44553C237.939 9.68071 238.942 10.0452 239.887 10.5306V14.7527C239.048 14.1967 238.129 13.7706 237.163 13.4888C236.158 13.1979 235.116 13.0527 234.07 13.0577C232.751 13.0195 231.442 13.3055 230.259 13.8906C229.226 14.4276 228.382 15.268 227.841 16.2989C227.248 17.4883 226.958 18.8062 226.999 20.1347C226.96 21.4644 227.238 22.7842 227.81 23.9852C228.324 25.0186 229.149 25.8657 230.167 26.4082C231.329 26.9935 232.618 27.2798 233.918 27.2411C236.113 27.2551 238.268 26.6468 240.133 25.4866L240.132 29.6193ZM272.602 24.0993V34.6111H266.456V5.70304H277.009C280.809 5.70304 283.727 6.49812 285.762 8.08827C287.797 9.67894 288.815 11.9565 288.816 14.9208C288.867 16.6509 288.395 18.3562 287.461 19.8131C286.504 21.2047 285.162 22.2867 283.6 22.9264C284.813 24.8409 286.012 26.7614 287.198 28.6878C288.384 30.6157 289.57 32.5901 290.756 34.6111H283.6C281.659 31.0535 279.651 27.5495 277.575 24.0993H272.602ZM272.602 19.207H276.645C278.171 19.3054 279.691 18.9464 281.012 18.1759C281.518 17.8062 281.921 17.313 282.183 16.7434C282.445 16.1738 282.557 15.5466 282.508 14.9216C282.556 14.2958 282.446 13.6679 282.188 13.0956C281.93 12.5234 281.532 12.0251 281.032 11.6465C279.724 10.8606 278.208 10.4938 276.686 10.5953H272.602V19.207ZM315.298 34.6111C314.596 32.4827 313.896 30.3939 313.195 28.3446H301.47C300.769 30.4206 300.068 32.5094 299.368 34.6111H292.697C294.529 29.544 296.396 24.598 298.296 19.773C300.196 14.9486 302.117 10.2586 304.058 5.70304H310.769C312.764 10.5007 314.711 15.3188 316.612 20.1571C318.511 24.9954 320.351 29.8134 322.13 34.6111H315.298ZM303.249 23.1693H311.376C310.729 21.2825 310.062 19.4024 309.374 17.5289C308.687 15.656 308.006 13.8163 307.332 12.0097C305.931 15.7031 304.57 19.4234 303.249 23.1693ZM325.648 5.70227H336.685C339.392 5.62683 342.077 6.20983 344.509 7.40116C346.63 8.48489 348.361 10.2017 349.462 12.3135C350.656 14.7298 351.239 17.4021 351.16 20.0962C351.236 22.8053 350.646 25.4917 349.442 27.9197C348.34 30.046 346.611 31.7821 344.489 32.893C342.055 34.1018 339.361 34.6919 336.645 34.6111H325.648V5.70227ZM336.322 29.2746C339.017 29.2746 341.085 28.486 342.529 26.9087C343.97 25.3319 344.69 23.0611 344.691 20.0962C344.691 17.1585 343.983 14.9144 342.569 13.3638C341.153 11.8143 339.084 11.0395 336.362 11.0395H331.874V29.2746H336.322ZM356.092 5.70304H362.319V34.6111H356.092V5.70304ZM381.605 5.09613C383.628 5.0674 385.638 5.42412 387.527 6.14724C389.237 6.81137 390.782 7.83914 392.056 9.15943C393.34 10.5169 394.324 12.1283 394.947 13.8898C395.647 15.8966 395.989 18.011 395.957 20.1363C395.986 22.255 395.644 24.3625 394.947 26.3635C394.325 28.1371 393.341 29.7618 392.056 31.1339C390.788 32.4649 389.242 33.5001 387.528 34.1662C383.704 35.5677 379.506 35.5677 375.682 34.1662C373.968 33.5004 372.421 32.4651 371.153 31.1339C369.868 29.762 368.883 28.1373 368.262 26.3635C367.565 24.3628 367.223 22.2555 367.251 20.137C367.219 18.0118 367.561 15.8974 368.262 13.8906C368.884 12.1286 369.869 10.5168 371.154 9.15943C372.427 7.83904 373.972 6.81125 375.682 6.14724C377.571 5.42401 379.581 5.06729 381.605 5.09613ZM381.605 29.7998C383.102 29.8402 384.578 29.4396 385.85 28.6477C387.063 27.8462 388.007 26.698 388.559 25.3525C389.221 23.6956 389.538 21.9207 389.489 20.137C389.538 18.3531 389.221 16.578 388.559 14.9208C388.01 13.579 387.065 12.4367 385.85 11.6465C384.558 10.9046 383.094 10.5143 381.605 10.5143C380.115 10.5143 378.651 10.9046 377.359 11.6465C376.143 12.4362 375.198 13.5787 374.65 14.9208C373.987 16.5779 373.671 18.3531 373.72 20.137C373.671 21.9208 373.987 23.6957 374.65 25.3525C375.201 26.6983 376.145 27.8467 377.359 28.6477C378.631 29.4398 380.107 29.8404 381.605 29.7998ZM21.9384 127.433C18.2479 127.434 14.5688 127.023 10.9693 126.208C7.346 125.388 3.84771 124.09 0.566208 122.349V109.354C6.97946 113.349 14.3827 115.47 21.9384 115.475C26.2056 115.475 29.454 114.753 31.6837 113.308C32.7266 112.692 33.5863 111.809 34.174 110.75C34.7616 109.691 35.056 108.494 35.0267 107.283C35.0743 106.45 34.9528 105.616 34.6695 104.831C34.3861 104.047 33.9468 103.327 33.378 102.717C32.1296 101.527 30.6347 100.627 28.9993 100.08C26.9923 99.3651 24.9501 98.7525 22.8808 98.245C19.5473 97.4818 16.2744 96.4748 13.0885 95.2321C10.5229 94.2496 8.11277 92.9015 5.93278 91.2297C4.03648 89.757 2.51917 87.8529 1.50704 85.6757C0.445554 83.2271 -0.0687029 80.5764 0.000169077 77.9085C-0.103043 73.9859 1.0336 70.1307 3.24834 66.8915C5.56861 63.6954 8.75431 61.2292 12.4299 59.7837C16.9244 58.0213 21.7253 57.1732 26.5516 57.2889C30.1019 57.286 33.6404 57.6964 37.0958 58.512C40.3198 59.2481 43.448 60.3538 46.4184 61.8072V74.6117C43.501 72.8513 40.3454 71.5198 37.0487 70.6579C33.6275 69.7249 30.0977 69.2498 26.5516 69.2452C22.7224 69.2452 19.7568 69.9042 17.6546 71.2224C16.6661 71.7901 15.8505 72.6157 15.2947 73.6109C14.7389 74.606 14.4639 75.7335 14.4989 76.8728C14.4597 77.6363 14.5729 78.3999 14.8317 79.1192C15.0905 79.8385 15.4899 80.4991 16.0066 81.0626C17.2212 82.2265 18.6868 83.0961 20.2904 83.6043C22.1412 84.2629 24.3224 84.9063 26.8338 85.5346C30.0342 86.351 33.0155 87.245 35.7778 88.2167C38.3738 89.1054 40.8306 90.3579 43.0747 91.9368C45.1557 93.4182 46.838 95.3914 47.9716 97.6805C49.2087 100.362 49.8048 103.295 49.7129 106.247C49.8284 110.31 48.6768 114.309 46.4177 117.688C44.041 120.998 40.7296 123.522 36.9084 124.937C32.7651 126.6 27.7757 127.432 21.9384 127.433ZM90.6697 127.433C85.7626 127.506 80.8826 126.692 76.2643 125.032C72.1876 123.554 68.4896 121.191 65.437 118.111C62.4007 114.96 60.0875 111.185 58.6585 107.049C57.027 102.31 56.2304 97.3248 56.3041 92.3139C56.2331 87.3873 57.0629 82.4891 58.7525 77.8607C60.2737 73.7032 62.6836 69.9276 65.8139 66.7972C68.9443 63.6669 72.7199 61.2571 76.8774 59.7359C81.5057 58.0479 86.4031 57.2187 91.3291 57.2889C94.8626 57.2695 98.3863 57.6644 101.828 58.4657C105.023 59.2125 108.108 60.3675 111.008 61.9021V75.2711C108.436 73.5154 105.61 72.166 102.628 71.2703C99.5427 70.3496 96.3382 69.8894 93.1182 69.9045C89.0517 69.7856 85.0206 70.692 81.3964 72.5404C78.197 74.2644 75.6013 76.9257 73.9577 80.1672C72.2313 83.4956 71.3681 87.5443 71.3681 92.3132C71.2475 96.5155 72.1019 100.689 73.8644 104.505C75.4232 107.756 77.9573 110.438 81.1134 112.18C84.6697 114.029 88.6404 114.937 92.647 114.816C99.422 114.854 106.062 112.924 111.761 109.26V122.349C108.743 124.017 105.512 125.268 102.157 126.067C98.3984 126.992 94.5404 127.45 90.6697 127.433ZM152.152 57.2889C156.864 57.2223 161.545 58.0527 165.946 59.7359C169.927 61.2824 173.525 63.6758 176.49 66.7504C179.48 69.9112 181.773 73.6637 183.223 77.7658C184.853 82.44 185.65 87.3641 185.577 92.3139C185.642 97.2473 184.845 102.154 183.223 106.813C181.775 110.945 179.482 114.729 176.49 117.924C173.536 121.023 169.936 123.434 165.946 124.985C157.04 128.249 147.264 128.249 138.358 124.985C134.367 123.434 130.767 121.023 127.814 117.924C124.821 114.729 122.528 110.945 121.082 106.813C119.457 102.155 118.66 97.2474 118.727 92.3139C118.653 87.3641 119.449 82.4396 121.081 77.7658C122.53 73.6634 124.823 69.9108 127.813 66.7504C130.778 63.6754 134.376 61.2819 138.358 59.7359C142.759 58.0526 147.441 57.2222 152.152 57.2889ZM152.152 114.816C155.639 114.91 159.077 113.977 162.038 112.132C164.865 110.267 167.063 107.593 168.347 104.459C169.889 100.6 170.626 96.4672 170.513 92.3132C170.626 88.1592 169.888 84.0259 168.346 80.1672C167.069 77.0423 164.868 74.3814 162.038 72.5404C159.03 70.8132 155.621 69.9044 152.152 69.9044C148.683 69.9044 145.274 70.8132 142.266 72.5404C139.435 74.3805 137.234 77.0416 135.957 80.1672C134.414 84.0257 133.677 88.1592 133.791 92.3132C133.677 96.4672 134.414 100.601 135.957 104.459C137.24 107.593 139.439 110.268 142.266 112.132C145.227 113.977 148.665 114.91 152.152 114.816ZM188.682 58.7002H245.551V71.3165H224.367V126.02H209.866V71.3173H188.682V58.7002ZM254.587 58.7002H269.088V113.403H301.005V126.02H254.588L254.587 58.7002ZM360.322 126.02C358.688 121.062 357.056 116.198 355.425 111.427H328.12C326.487 116.26 324.855 121.125 323.225 126.02H307.689C311.957 114.22 316.304 102.702 320.73 91.4657C325.155 80.2307 329.627 69.3089 334.146 58.7002H349.776C354.421 69.8744 358.955 81.0944 363.381 92.3602C367.806 103.628 372.091 114.848 376.234 126.02H360.322ZM332.263 99.3748H351.188C349.681 94.9827 348.127 90.6045 346.527 86.2402C344.927 81.879 343.343 77.5951 341.774 73.3887C338.508 81.9887 335.338 90.6508 332.263 99.3748ZM426.417 126.02C421.522 118.174 416.563 110.312 411.541 102.435C406.519 94.558 401.561 86.916 396.665 79.5087V126.02H382.73V58.7002H397.418C402.503 66.2957 407.509 73.9064 412.436 81.5322C417.363 89.1596 422.274 96.896 427.171 104.741V58.7002H441.106V126.02H426.417ZM452.591 58.7002H478.295C485.387 58.7002 491.46 60.0186 496.514 62.6555C501.452 65.1788 505.483 69.1766 508.047 74.0943C510.683 79.0853 512.001 85.1269 512.001 92.2191C512.001 99.3139 510.668 105.387 508.001 110.437C505.434 115.388 501.408 119.431 496.467 122.019C491.444 124.687 485.356 126.022 478.201 126.021H452.591V58.7002ZM477.448 113.592C483.724 113.592 488.542 111.756 491.9 108.084C495.258 104.412 496.936 99.1236 496.937 92.2191C496.937 85.3783 495.289 80.1528 491.994 76.5427C488.698 72.9337 483.881 71.1291 477.542 71.1291H467.09V113.593L477.448 113.592ZM166.184 145.312H192.716V152.214H174.487V160.573H190.667V167.475H174.487V176.968H193.741V183.87H166.184L166.184 145.312ZM223.887 183.87C222.557 181.462 221.173 179.071 219.735 176.698C218.297 174.325 216.822 171.97 215.312 169.634C213.766 172.005 212.275 174.378 210.837 176.752C209.399 179.125 208.033 181.497 206.739 183.87H197.084C199.243 180.526 201.418 177.201 203.611 173.894C205.803 170.586 208.086 167.26 210.459 163.916C208.301 160.861 206.198 157.77 204.15 154.641C202.101 151.513 200.106 148.404 198.164 145.312H208.033C209.218 147.433 210.431 149.545 211.673 151.648C212.913 153.752 214.198 155.828 215.528 157.877C216.822 155.863 218.099 153.805 219.357 151.702C220.616 149.599 221.839 147.469 223.024 145.312H232.678C230.7 148.404 228.695 151.496 226.664 154.587C224.633 157.679 222.557 160.753 220.435 163.809C222.736 167.116 225.002 170.442 227.232 173.785C229.46 177.129 231.635 180.491 233.756 183.87H223.887ZM235.32 145.312H267.892V152.538H255.759V183.87H247.453V152.538H235.32V145.312ZM279.756 169.849V183.87H271.559V145.312H285.635C290.703 145.312 294.595 146.372 297.31 148.493C300.024 150.615 301.381 153.653 301.382 157.607C301.484 159.89 300.867 162.149 299.619 164.064C298.371 165.979 296.555 167.456 294.424 168.285C296.043 170.838 297.643 173.399 299.224 175.969C300.806 178.54 302.388 181.173 303.97 183.87H294.424C291.836 179.125 289.158 174.451 286.389 169.849H279.756ZM279.756 163.323H285.149C287.701 163.323 289.643 162.865 290.973 161.948C291.649 161.455 292.187 160.797 292.536 160.037C292.885 159.277 293.034 158.44 292.969 157.607C293.032 156.772 292.886 155.935 292.542 155.172C292.198 154.408 291.668 153.744 291 153.239C289.687 152.305 287.754 151.837 285.203 151.837H279.756V163.323ZM336.705 183.87C335.769 181.03 334.834 178.244 333.901 175.511H318.261C317.325 178.28 316.39 181.067 315.457 183.87H306.558C309.003 177.111 311.492 170.514 314.027 164.079C316.561 157.643 319.123 151.388 321.712 145.312H330.664C333.325 151.711 335.922 158.137 338.457 164.591C340.991 171.044 343.445 177.471 345.818 183.87H336.705ZM320.633 168.609H331.473C330.611 166.093 329.721 163.585 328.803 161.086C327.887 158.588 326.979 156.133 326.081 153.724C324.211 158.65 322.395 163.612 320.633 168.609Z" fill="white"/>
</g>
<defs>
<clipPath id="clip0_5_40">
<rect width="512" height="183" fill="white" transform="translate(0 0.870117)"/>
</clipPath>
</defs>
</svg>
