<svg width="512" height="133" viewBox="0 0 512 133" fill="none" xmlns="http://www.w3.org/2000/svg">
<g clip-path="url(#clip0_5_38)">
<path d="M95.5901 0.306152V44.4989H139.783V0.306152H95.5901ZM126.186 31.4932C125.369 32.6079 124.249 33.4646 122.959 33.9616C121.353 34.5788 119.642 34.8744 117.922 34.8314H108.019V9.97264H117.347C119.598 9.83607 121.834 10.4141 123.736 11.6241C124.479 12.1641 125.075 12.8809 125.47 13.7095C125.866 14.5381 126.048 15.4523 126.001 16.3693C126.028 17.4512 125.747 18.5185 125.19 19.4465C124.606 20.3536 123.773 21.0725 122.79 21.5163C124.126 21.9139 125.303 22.723 126.153 23.8283C126.951 24.947 127.361 26.2961 127.32 27.6696C127.356 29.032 126.959 30.3706 126.186 31.4932ZM119.866 19.343C120.21 19.0524 120.482 18.6863 120.661 18.2731C120.84 17.86 120.921 17.4111 120.897 16.9616C120.897 14.9916 119.556 14.0066 116.875 14.0066H113.055V20.194H116.875C117.941 20.267 118.999 19.966 119.866 19.343ZM117.517 24.0881H113.055V30.7985H117.45C118.67 30.8741 119.884 30.5769 120.931 29.9464C121.326 29.6755 121.645 29.3081 121.858 28.8792C122.071 28.4502 122.171 27.974 122.148 27.4956C122.148 25.224 120.604 24.0881 117.517 24.0881ZM150.83 0.306152V44.4989H195.023V0.306152H150.83ZM181.426 31.4932C180.609 32.6079 179.489 33.4646 178.199 33.9616C176.593 34.5788 174.882 34.8744 173.162 34.8314H163.259V9.97264H172.588C174.839 9.83631 177.074 10.4143 178.976 11.6241C179.719 12.1641 180.315 12.8809 180.71 13.7095C181.106 14.5381 181.288 15.4523 181.241 16.3693C181.268 17.4512 180.986 18.5185 180.43 19.4465C179.846 20.3536 179.012 21.0725 178.029 21.5163C179.366 21.9139 180.543 22.723 181.393 23.8283C182.191 24.947 182.601 26.2961 182.56 27.6696C182.596 29.032 182.199 30.3706 181.426 31.4932ZM175.106 19.343C175.45 19.0524 175.722 18.6863 175.901 18.2731C176.08 17.86 176.16 17.4111 176.137 16.9616C176.137 14.9916 174.796 14.0066 172.115 14.0066H168.295V20.194H172.115C173.181 20.267 174.239 19.966 175.106 19.343ZM172.757 24.0881H168.296V30.7985H172.689C173.909 30.8743 175.124 30.5771 176.171 29.9464C176.566 29.6755 176.885 29.3081 177.098 28.8792C177.311 28.4502 177.411 27.974 177.388 27.4956C177.388 25.224 175.844 24.0881 172.757 24.0881ZM206.07 44.4978H250.263V0.306152H206.07V44.4978ZM237.81 33.2559C236.682 33.8612 235.478 34.3136 234.23 34.6013C232.828 34.9362 231.391 35.1025 229.95 35.0967C228.123 35.1232 226.306 34.8288 224.582 34.2269C223.07 33.6968 221.692 32.8419 220.547 31.7222C219.42 30.5897 218.557 29.2225 218.02 27.718C217.413 26.0066 217.115 24.2007 217.142 22.3849C217.116 20.5996 217.426 18.8253 218.055 17.1542C218.632 15.6449 219.53 14.2788 220.686 13.15C221.865 12.017 223.27 11.1461 224.809 10.5947C226.538 9.9827 228.362 9.68261 230.195 9.70841C231.511 9.70155 232.824 9.84449 234.107 10.1345C235.295 10.4041 236.445 10.8221 237.529 11.3786V16.2173C236.567 15.5799 235.514 15.0914 234.405 14.7684C233.254 14.435 232.06 14.2685 230.861 14.2741C229.349 14.2305 227.85 14.5582 226.494 15.2287C225.31 15.8441 224.342 16.8073 223.722 17.9888C223.042 19.352 222.711 20.8624 222.757 22.3849C222.713 23.9087 223.031 25.4212 223.686 26.7976C224.276 27.9823 225.22 28.9534 226.388 29.5753C227.719 30.2462 229.197 30.5743 230.686 30.5299C233.203 30.5459 235.673 29.8484 237.81 28.5184V33.2559ZM275.022 26.9286V38.9765H267.979V5.84511H280.074C284.43 5.84511 287.774 6.75635 290.106 8.57881C291.271 9.51038 292.197 10.7073 292.806 12.0697C293.414 13.432 293.688 14.9202 293.604 16.41C293.664 18.3928 293.123 20.3473 292.052 22.0172C290.956 23.6118 289.417 24.8516 287.626 25.5843C289.017 27.7789 290.392 29.9801 291.752 32.1879C293.11 34.3972 294.469 36.6601 295.828 38.9765H287.626C285.402 34.8993 283.101 30.8833 280.723 26.9286H275.022ZM275.022 21.3225H279.657C281.406 21.435 283.148 21.0233 284.661 20.1401C285.242 19.7162 285.704 19.1509 286.004 18.498C286.304 17.8451 286.432 17.1263 286.376 16.41C286.431 15.6926 286.305 14.9729 286.009 14.3169C285.714 13.6609 285.258 13.0897 284.684 12.6557C283.186 11.7553 281.447 11.3353 279.703 11.4523H275.023L275.022 21.3225ZM323.956 38.9765C323.152 36.5368 322.349 34.1429 321.547 31.7949H308.109C307.305 34.1737 306.502 36.5676 305.699 38.9765H298.052C300.153 33.1693 302.293 27.5008 304.471 21.971C306.649 16.4412 308.85 11.0659 311.075 5.84511H318.766C321.052 11.3441 323.284 16.8662 325.462 22.4114C327.64 27.9566 329.748 33.4783 331.787 38.9765H323.956ZM310.149 25.864H319.463C318.722 23.7017 317.957 21.5467 317.168 19.3991C316.381 17.2522 315.601 15.1439 314.829 13.0741C313.222 17.3069 311.662 21.5699 310.149 25.8629V25.864ZM335.819 5.84401H348.469C351.571 5.75707 354.648 6.42467 357.435 7.78942C359.866 9.03159 361.85 10.9993 363.112 13.4198C364.481 16.1891 365.149 19.252 365.058 22.3398C365.146 25.445 364.47 28.5242 363.09 31.3072C361.826 33.7439 359.845 35.7336 357.413 37.0069C354.624 38.3922 351.536 39.0684 348.423 38.9754H335.819V5.84401ZM348.053 32.8595C349.363 32.9442 350.677 32.7458 351.904 32.2779C353.131 31.81 354.243 31.0836 355.165 30.1478C356.816 28.3408 357.643 25.7381 357.644 22.3398C357.644 18.973 356.833 16.4012 355.211 14.6242C353.589 12.848 351.218 11.9599 348.099 11.9599H342.955V32.8617L348.053 32.8595ZM370.711 5.84401H377.847V38.9754H370.711V5.84401ZM399.951 5.1482C402.27 5.11547 404.574 5.52461 406.74 6.35376C408.699 7.11482 410.47 8.29249 411.93 9.80529C413.401 11.3613 414.529 13.2084 415.243 15.2276C416.045 17.5277 416.437 19.9512 416.401 22.3871C416.434 24.8149 416.042 27.2297 415.243 29.5225C414.53 31.5557 413.402 33.4182 411.93 34.991C410.476 36.5162 408.704 37.7025 406.74 38.4656C402.357 40.0721 397.546 40.0721 393.163 38.4656C391.198 37.7027 389.426 36.5164 387.973 34.991C386.5 33.4184 385.371 31.5559 384.659 29.5225C383.86 27.2297 383.468 24.8149 383.501 22.3871C383.464 19.9512 383.856 17.5277 384.659 15.2276C385.372 13.2082 386.501 11.361 387.973 9.80529C389.432 8.29227 391.203 7.11457 393.163 6.35376C395.328 5.5245 397.632 5.11536 399.951 5.1482ZM399.951 33.4618C401.668 33.508 403.36 33.0486 404.817 32.1406C406.208 31.2221 407.29 29.9062 407.922 28.3643C408.681 26.465 409.043 24.4305 408.987 22.386C409.043 20.3415 408.68 18.307 407.921 16.4078C407.292 14.8702 406.209 13.5612 404.816 12.6557C403.336 11.8054 401.658 11.358 399.951 11.358C398.243 11.358 396.566 11.8054 395.085 12.6557C393.692 13.5609 392.608 14.8705 391.98 16.4089C391.221 18.3081 390.858 20.3425 390.914 22.3871C390.858 24.4314 391.221 26.4655 391.98 28.3643C392.612 29.9066 393.694 31.2227 395.085 32.1406C396.542 33.0488 398.235 33.5083 399.951 33.4618ZM21.9432 132.422C18.2531 132.423 14.5744 132.012 10.9754 131.197C7.35214 130.377 3.85387 129.079 0.572353 127.338V114.344C6.98523 118.339 14.388 120.459 21.9432 120.465C26.2106 120.465 29.4588 119.742 31.6879 118.298C32.7308 117.682 33.5906 116.799 34.1783 115.74C34.7661 114.681 35.0606 113.484 35.0315 112.273C35.0793 111.44 34.958 110.606 34.6747 109.821C34.3914 109.036 33.9522 108.317 33.3834 107.707C32.135 106.517 30.6401 105.617 29.0048 105.071C26.9976 104.355 24.9552 103.742 22.8856 103.234C19.5527 102.471 16.2802 101.465 13.0947 100.222C10.529 99.2399 8.11864 97.8919 5.93846 96.2201C4.04204 94.7474 2.52467 92.8432 1.51258 90.6658C0.451631 88.2178 -0.0623655 85.5678 0.00645636 82.9007C-0.0967567 78.9783 1.03977 75.1234 3.25431 71.8844C5.57468 68.6881 8.76058 66.2219 12.4364 64.7765C16.9306 63.0142 21.7313 62.1661 26.5574 62.2818C30.1076 62.2788 33.6461 62.6893 37.1013 63.5049C40.325 64.241 43.453 65.3467 46.4232 66.8001V79.6044C43.5059 77.844 40.3505 76.5125 37.054 75.6508C33.633 74.7178 30.1033 74.2428 26.5574 74.2383C22.7282 74.2383 19.7629 74.897 17.6616 76.2145C16.673 76.782 15.8571 77.6074 15.3012 78.6026C14.7452 79.5978 14.47 80.7253 14.5051 81.8646C14.4659 82.6282 14.5791 83.392 14.8381 84.1114C15.097 84.8308 15.4966 85.4915 16.0134 86.0549C17.2278 87.2185 18.693 88.0878 20.2962 88.596C22.1473 89.2551 24.3286 89.8984 26.8403 90.5259C30.0405 91.3429 33.0215 92.2372 35.7835 93.209C38.3795 94.0973 40.8364 95.3495 43.0807 96.9281C45.1614 98.4096 46.8434 100.383 47.9767 102.672C49.2137 105.353 49.81 108.286 49.7184 111.237C49.8342 115.301 48.6825 119.299 46.4232 122.679C44.0466 125.988 40.7353 128.513 36.9141 129.927C32.1277 131.703 27.0467 132.549 21.9432 132.422ZM90.6721 132.422C85.7654 132.494 80.8859 131.68 76.2682 130.02C72.1913 128.543 68.4931 126.18 65.4402 123.1C62.4039 119.949 60.0907 116.175 58.6615 112.039C57.0303 107.301 56.2338 102.315 56.3077 97.3046C56.2367 92.3778 57.0665 87.4796 58.7562 82.8511C60.2773 78.6938 62.6871 74.9184 65.8173 71.7881C68.9476 68.6578 72.723 66.2481 76.8803 64.727C81.5085 63.0393 86.4058 62.2103 91.3316 62.2807C94.8648 62.2613 98.3881 62.6563 101.829 63.4576C105.024 64.204 108.109 65.3584 111.009 66.8926V80.2627C108.438 78.5071 105.612 77.1577 102.631 76.2618C99.5452 75.3414 96.3406 74.8813 93.1207 74.8966C89.0542 74.7772 85.023 75.6832 81.3987 77.5312C78.1994 79.2555 75.6039 81.9171 73.9606 85.1587C72.1336 88.94 71.2454 93.1059 71.3711 97.3035C71.2503 101.506 72.1046 105.679 73.867 109.496C75.4259 112.745 77.9599 115.428 81.1157 117.169C84.672 119.019 88.6429 119.926 92.6495 119.805C99.424 119.843 106.064 117.913 111.762 114.25V127.338C108.744 129.006 105.513 130.257 102.159 131.056C98.4002 131.98 94.5425 132.439 90.6721 132.422ZM152.15 62.2807C156.862 62.2137 161.544 63.0439 165.945 64.727C169.926 66.2739 173.524 68.6676 176.488 71.7424C179.478 74.903 181.771 78.6555 183.22 82.7575C184.851 87.4314 185.647 92.3552 185.574 97.3046C185.64 102.238 184.843 107.144 183.22 111.803C181.773 115.934 179.48 119.717 176.488 122.912C173.534 126.011 169.935 128.422 165.944 129.974C157.038 133.238 147.263 133.238 138.357 129.974C134.367 128.423 130.767 126.012 127.813 122.913C124.821 119.718 122.528 115.935 121.081 111.803C119.457 107.144 118.66 102.237 118.727 97.3035C118.653 92.3543 119.449 87.4306 121.081 82.7575C122.53 78.6552 124.823 74.9026 127.813 71.7424C130.778 68.6672 134.376 66.2734 138.357 64.727C142.758 63.0439 147.439 62.2137 152.15 62.2807ZM152.15 119.806C155.638 119.9 159.076 118.966 162.037 117.121C164.863 115.256 167.061 112.582 168.345 109.449C169.888 105.591 170.624 101.458 170.511 97.3046C170.624 93.1502 169.887 89.0166 168.344 85.1576C167.067 82.0324 164.867 79.3713 162.037 77.5301C159.028 75.803 155.62 74.8942 152.151 74.8942C148.682 74.8942 145.273 75.803 142.265 77.5301C139.434 79.3705 137.233 82.0318 135.957 85.1576C134.414 89.0158 133.677 93.1488 133.791 97.3024C133.677 101.456 134.414 105.59 135.957 109.448C137.24 112.582 139.439 115.256 142.266 117.12C145.226 118.965 148.664 119.898 152.151 119.804L152.15 119.806ZM188.68 63.6921H245.545V76.3092H224.362V131.01H209.863V76.3081H188.68V63.6921ZM254.582 63.6921H269.082V118.393H300.997V131.01H254.582V63.6921ZM360.311 131.01C358.678 126.052 357.046 121.187 355.415 116.416H328.111C326.478 121.25 324.846 126.114 323.216 131.01H307.681C311.949 119.209 316.295 107.691 320.721 96.4558C325.147 85.2215 329.619 74.2999 334.137 63.691H349.766C354.41 74.8658 358.945 86.0857 363.37 97.3508C367.796 108.617 372.08 119.837 376.223 131.01H360.311ZM332.254 104.366H351.18C349.672 99.9733 348.118 95.5952 346.518 91.2317C344.918 86.8704 343.333 82.5865 341.764 78.3801C338.499 86.9794 335.329 95.6421 332.254 104.366ZM426.404 131.01C421.508 123.163 416.55 115.302 411.528 107.425C406.507 99.5484 401.549 91.9066 396.653 84.4993V131.01H382.72V63.6921H397.407C402.49 71.2873 407.496 78.8975 412.424 86.5228C417.35 94.1503 422.261 101.886 427.157 109.731V63.6921H441.092V131.01H426.404ZM452.577 63.6921H478.281C484.583 63.5162 490.835 64.8733 496.497 67.6468C501.436 70.1701 505.467 74.168 508.031 79.0858C510.666 84.0769 511.983 90.1182 511.983 97.2099C512.161 103.518 510.788 109.773 507.984 115.427C505.417 120.377 501.391 124.42 496.451 127.008C491.428 129.676 485.34 131.01 478.186 131.01H452.577V63.6921ZM477.432 118.582C483.708 118.582 488.525 116.745 491.884 113.073C495.241 109.401 496.92 104.114 496.921 97.2099C496.921 90.3692 495.273 85.1437 491.978 81.5333C488.683 77.925 483.866 76.1209 477.526 76.1209H467.076V118.582H477.432Z" fill="white"/>
</g>
<defs>
<clipPath id="clip0_5_38">
<rect width="512" height="132.128" fill="white" transform="translate(0 0.306152)"/>
</clipPath>
</defs>
</svg>
