<svg width="512" height="130" viewBox="0 0 512 130" fill="none" xmlns="http://www.w3.org/2000/svg">
<g clip-path="url(#clip0_5_44)">
<path d="M22.3464 129.984C18.5696 129.984 14.7927 129.591 11.1732 128.725C7.47507 127.859 3.93427 126.6 0.550837 124.791V111.572C7.08165 115.663 14.6354 117.788 22.3464 117.788C26.6741 117.788 29.9788 117.08 32.2607 115.585C34.4639 114.326 35.7228 111.965 35.6441 109.447C35.7228 107.716 35.172 106.064 33.9917 104.805C32.7328 103.625 31.1591 102.68 29.5067 102.13C27.4609 101.421 25.4151 100.792 23.2907 100.241C19.9072 99.4543 16.5238 98.4314 13.2977 97.1725C10.7011 96.1496 8.26192 94.812 5.98007 93.0809C4.01296 91.5859 2.51795 89.6188 1.49505 87.4156C0.393468 84.8977 -0.0786386 82.2224 -0.0786386 79.4685C-0.157323 75.4556 0.94426 71.5213 3.22611 68.2166C5.58665 64.9905 8.81271 62.4726 12.5896 60.9776C17.1533 59.1679 22.0317 58.3024 26.9888 58.4597C30.6083 58.4597 34.2278 58.8531 37.7686 59.7187C41.0734 60.5055 44.2207 61.6071 47.2894 63.1021V76.1637C44.2994 74.354 41.0734 73.0164 37.7686 72.1508C34.3065 71.2066 30.687 70.7345 27.0675 70.7345C23.1333 70.7345 20.1433 71.4427 18.0188 72.7803C15.973 73.9606 14.714 76.1637 14.7927 78.5243C14.714 80.098 15.2648 81.6716 16.3664 82.7732C17.6254 83.9535 19.1204 84.819 20.7728 85.3698C22.6612 86.078 24.8643 86.7075 27.4609 87.3369C30.7657 88.2025 33.7557 89.068 36.5883 90.0909C39.2636 91.0351 41.7028 92.2941 44.0634 93.8677C46.1878 95.3627 47.9189 97.4085 49.0205 99.6904C50.2794 102.444 50.9089 105.434 50.8302 108.424C50.9089 112.595 49.8073 116.608 47.4468 120.07C45.0076 123.453 41.6241 126.05 37.7686 127.466C33.441 129.118 28.3265 129.984 22.3464 129.984ZM104.178 128.568V99.0609H74.2782V128.568H59.4855V59.876H74.2782V86.1567H104.1V59.876H118.892V128.489L104.178 128.568ZM131.01 59.876H178.22V72.1508H145.802V87.0222H174.601V99.297H145.802V116.214H180.109V128.489H131.01V59.876ZM185.381 59.876H243.371V72.7803H221.733V128.568H206.94V72.7803H185.302V59.876H185.381ZM250.846 59.876H265.639V115.663H298.214V128.489H250.846V59.876ZM357.306 128.568C355.654 123.532 354.002 118.575 352.349 113.696H324.495L319.538 128.568H303.722C308.05 116.529 312.535 104.805 317.02 93.317C321.505 81.829 326.069 70.7345 330.711 59.876H346.684C351.405 71.2853 356.047 82.6945 360.532 94.1825C365.017 105.67 369.424 117.08 373.673 128.489L357.306 128.568ZM328.744 101.343H348.022C346.448 96.8578 344.874 92.3727 343.301 87.9664C341.648 83.4814 340.074 79.1537 338.422 74.8261C335.117 83.6388 331.891 92.4514 328.744 101.343ZM424.346 128.568C419.388 120.542 414.274 112.516 409.159 104.49C404.045 96.4643 399.009 88.6746 393.973 81.1209V128.568H379.731V59.876H394.681C399.875 67.5871 404.989 75.3769 410.025 83.1667C415.061 90.9564 420.097 98.8249 425.054 106.851V59.876H439.296V128.489H424.346V128.568ZM451.413 59.876H477.615C484.854 59.876 491.07 61.2137 496.184 63.889C501.22 66.4855 505.312 70.5771 507.908 75.5343C510.584 80.6488 511.921 86.7861 511.921 94.0251C511.921 101.264 510.584 107.48 507.83 112.595C505.233 117.63 501.142 121.801 496.106 124.397C490.991 127.151 484.775 128.489 477.458 128.489H451.334L451.413 59.876ZM476.749 115.899C483.123 115.899 488.08 114.011 491.463 110.313C494.925 106.536 496.578 101.185 496.578 94.1038C496.578 87.1009 494.926 81.829 491.542 78.1308C488.159 74.4327 483.28 72.6229 476.828 72.6229H466.206V115.899H476.749ZM272.957 24.5467V35.2478H266.662V5.81979H277.442C281.297 5.81979 284.287 6.60664 286.412 8.25901C288.457 9.91139 289.559 12.1932 289.559 15.2619C289.638 16.993 289.166 18.8027 288.143 20.2191C287.198 21.6354 285.782 22.737 284.208 23.3664C285.467 25.3335 286.648 27.3007 287.907 29.2678C289.087 31.2349 290.346 33.2807 291.526 35.3265H284.208C282.241 31.707 280.196 28.0875 278.071 24.6254L272.957 24.5467ZM272.957 19.5896H277.048C278.622 19.6683 280.117 19.3535 281.533 18.5667C282.556 17.7798 283.186 16.5209 283.028 15.2619C283.107 14.003 282.556 12.744 281.533 11.9572C280.196 11.1703 278.622 10.7769 277.127 10.8556H272.957V19.5896ZM316.469 35.3265C315.761 33.1233 315.053 30.9988 314.345 28.953H302.385L300.26 35.3265H293.415C295.303 30.1333 297.191 25.0975 299.159 20.2191C301.126 15.2619 303.093 10.5409 305.06 5.89848H311.905C313.951 10.7769 315.918 15.734 317.885 20.6125C319.853 25.5696 321.662 30.448 323.551 35.3265H316.469ZM304.194 23.6025H312.456C311.827 21.7141 311.119 19.747 310.41 17.8585C309.702 15.9701 308.994 14.0817 308.365 12.1932C306.948 15.9701 305.532 19.8256 304.194 23.6025ZM327.092 5.81979H338.343C341.097 5.74111 343.851 6.37059 346.291 7.55085C348.494 8.65244 350.225 10.3835 351.326 12.5867C352.507 15.0259 353.136 17.7798 353.057 20.5338C353.136 23.2878 352.507 26.0417 351.326 28.4809C350.225 30.6841 348.415 32.4152 346.291 33.5167C343.773 34.7757 341.097 35.3265 338.265 35.2478H327.013V5.81979H327.092ZM337.95 29.8186C340.704 29.8186 342.828 29.0317 344.245 27.3793C345.74 25.8057 346.448 23.4451 346.448 20.4551C346.448 17.4651 345.74 15.1832 344.245 13.6096C342.828 12.0359 340.704 11.249 337.95 11.249H333.386V29.8186H337.95ZM358.093 5.81979H364.467V35.3265H358.093V5.81979ZM384.138 5.19032C386.184 5.19032 388.229 5.50506 390.196 6.2919C391.928 7.00006 393.501 8.02296 394.839 9.3606C396.176 10.7769 397.121 12.3506 397.75 14.1604C398.458 16.2061 398.852 18.3306 398.773 20.5338C398.773 22.6583 398.458 24.8614 397.75 26.9072C397.121 28.717 396.098 30.3694 394.839 31.7857C393.58 33.1233 392.006 34.2249 390.196 34.8544C386.262 36.2707 382.013 36.2707 378.079 34.8544C376.348 34.1462 374.774 33.1233 373.437 31.7857C372.099 30.3694 371.155 28.717 370.525 26.9072C369.817 24.8614 369.502 22.737 369.502 20.5338C369.502 18.3306 369.817 16.2061 370.525 14.1604C371.155 12.3506 372.178 10.6982 373.437 9.3606C374.774 8.02296 376.348 7.00006 378.079 6.2919C380.046 5.50506 382.092 5.11163 384.138 5.19032ZM384.138 30.3694C385.633 30.448 387.206 29.9759 388.465 29.1891C389.724 28.4022 390.669 27.222 391.219 25.8057C391.928 24.1533 392.242 22.2649 392.164 20.4551C392.242 18.6454 391.928 16.8356 391.219 15.1046C390.669 13.7669 389.724 12.5867 388.465 11.7998C385.79 10.2261 382.485 10.2261 379.81 11.7998C378.551 12.5867 377.607 13.7669 377.056 15.1046C376.348 16.7569 376.033 18.6454 376.112 20.4551C376.033 22.2649 376.348 24.0746 377.056 25.8057C377.607 27.1433 378.551 28.3236 379.81 29.1891C381.148 29.9759 382.643 30.448 384.138 30.3694ZM113.227 0.862671V40.2049H152.569V0.862671H113.227ZM140.609 28.6383C139.901 29.6612 138.878 30.3694 137.698 30.8415C136.282 31.3923 134.708 31.6283 133.213 31.6283H124.4V9.43928H132.741C135.18 9.43928 137.068 9.91139 138.406 10.9343C139.744 11.8785 140.531 13.5309 140.452 15.1832C140.452 16.1275 140.216 17.0717 139.744 17.9372C139.193 18.7241 138.485 19.3535 137.619 19.747C138.799 20.0617 139.822 20.8485 140.609 21.7927C141.317 22.8156 141.711 23.9959 141.632 25.1762C141.711 26.4351 141.317 27.6154 140.609 28.6383ZM135.023 17.7798C135.652 17.229 135.967 16.4422 135.967 15.6554C135.967 13.9243 134.787 13.0588 132.347 13.0588H128.964V18.5667H132.347C133.292 18.6454 134.236 18.3306 135.023 17.7798ZM132.898 22.0288H128.964V28.0088H132.898C134 28.0875 135.101 27.7728 135.967 27.222C136.675 26.7499 137.068 25.8843 137.068 25.0188C137.068 23.0517 135.652 22.0288 132.898 22.0288ZM162.405 0.862671V40.2049H201.747V0.862671H162.405ZM189.787 28.6383C189.079 29.6612 188.056 30.3694 186.876 30.8415C185.459 31.3923 183.886 31.6283 182.391 31.6283H173.578V9.43928H181.919C184.358 9.43928 186.246 9.91139 187.584 10.9343C188.922 11.8785 189.708 13.5309 189.63 15.1832C189.63 16.1275 189.394 17.0717 188.922 17.9372C188.371 18.7241 187.663 19.3535 186.797 19.747C187.977 20.0617 189 20.8485 189.787 21.7927C190.495 22.8156 190.889 23.9959 190.81 25.1762C190.889 26.4351 190.495 27.6154 189.787 28.6383ZM184.2 17.7798C184.83 17.229 185.145 16.4422 185.145 15.6554C185.145 13.9243 183.964 13.0588 181.525 13.0588H178.142V18.5667H181.525C182.469 18.6454 183.414 18.3306 184.2 17.7798ZM182.076 22.0288H178.142V28.0088H182.076C183.178 28.0875 184.279 27.7728 185.145 27.222C185.853 26.7499 186.246 25.8843 186.246 25.0188C186.246 23.0517 184.83 22.0288 182.076 22.0288ZM211.583 40.2049H250.925V0.862671H211.583V40.2049ZM239.83 30.212C238.807 30.7628 237.785 31.1562 236.683 31.3923C235.424 31.707 234.165 31.8644 232.906 31.8644C231.254 31.8644 229.68 31.6283 228.106 31.0775C226.769 30.6054 225.51 29.8186 224.487 28.8744C223.464 27.8515 222.677 26.6712 222.205 25.3335C221.654 23.8385 221.418 22.1862 221.418 20.6125C221.418 19.0388 221.654 17.4651 222.205 15.9701C222.756 14.6325 223.543 13.3735 224.566 12.4293C225.589 11.4064 226.847 10.6195 228.264 10.1474C229.837 9.59665 231.411 9.3606 233.064 9.3606C234.244 9.3606 235.424 9.51797 236.526 9.75402C237.549 9.99007 238.571 10.3835 239.594 10.8556V15.0259C238.729 14.4751 237.785 14.003 236.84 13.7669C235.817 13.4522 234.716 13.2948 233.693 13.2948C232.355 13.2948 231.018 13.5309 229.837 14.1604C228.815 14.7111 227.949 15.5767 227.398 16.5996C226.769 17.7798 226.533 19.1962 226.533 20.5338C226.454 21.8714 226.769 23.2091 227.398 24.468C227.949 25.4909 228.736 26.3564 229.837 26.9072C231.018 27.5367 232.355 27.7728 233.693 27.7728C235.896 27.7728 238.099 27.1433 240.066 25.963L239.83 30.212Z" fill="white"/>
</g>
<defs>
<clipPath id="clip0_5_44">
<rect width="512" height="129.121" fill="white" transform="translate(0 0.862671)"/>
</clipPath>
</defs>
</svg>
