<svg width="512" height="185" viewBox="0 0 512 185" fill="none" xmlns="http://www.w3.org/2000/svg">
<g clip-path="url(#clip0_5_48)">
<path d="M53.4497 0.681274V56.5242H109.293V0.681274H53.4497ZM92.0611 40.0904C91.1038 41.5264 89.6678 42.6433 87.9127 43.2815C85.8386 44.0792 83.7644 44.3983 81.5307 44.3983H69.0857V12.8072H80.8925C83.7644 12.6476 86.6363 13.4454 89.0296 15.0409C90.9442 16.4768 92.0611 18.7106 91.9015 21.1038C91.9015 22.5398 91.5824 23.8162 90.9442 24.9331C90.1465 26.0499 89.1892 27.0072 87.9127 27.4859C89.6678 27.9645 91.1038 29.0814 92.2206 30.3578C93.1779 31.7938 93.8161 33.5488 93.6566 35.1443C93.6566 36.8994 93.1779 38.6545 92.0611 40.0904ZM84.0835 24.7735C85.0408 23.9758 85.5195 22.8589 85.3599 21.742C85.3599 19.1892 83.6049 18.0724 80.2543 18.0724H75.4677V25.8904H80.2543C81.6902 25.8904 83.1262 25.5713 84.0835 24.7735ZM81.2116 30.6769H75.6273V39.1331H81.2116C82.8071 39.2927 84.2431 38.814 85.679 38.0163C86.6363 37.3781 87.2745 36.1017 87.2745 34.9848C86.9554 32.1129 85.0408 30.6769 81.2116 30.6769ZM123.174 0.681274V56.5242H179.017V0.681274H123.174ZM161.785 40.0904C160.828 41.5264 159.392 42.6433 157.637 43.2815C155.562 44.0792 153.488 44.3983 151.255 44.3983H138.81V12.8072H150.616C153.488 12.6476 156.36 13.4454 158.754 15.0409C160.668 16.4768 161.785 18.7106 161.625 21.1038C161.625 22.5398 161.306 23.8162 160.668 24.9331C159.87 26.0499 158.913 27.0072 157.637 27.4859C159.392 27.9645 160.828 29.0814 161.945 30.3578C162.902 31.7938 163.54 33.5488 163.38 35.1443C163.38 36.8994 162.902 38.6545 161.785 40.0904ZM153.807 24.7735C154.765 23.9758 155.243 22.8589 155.084 21.742C155.084 19.1892 153.329 18.0724 149.978 18.0724H145.192V25.8904H149.978C151.414 25.8904 152.85 25.5713 153.807 24.7735ZM150.935 30.6769H145.351V39.1331H150.935C152.531 39.2927 153.967 38.814 155.403 38.0163C156.36 37.3781 156.998 36.1017 156.998 34.9848C156.839 32.1129 154.765 30.6769 150.935 30.6769ZM192.897 56.5242H248.74V0.681274H192.897V56.5242ZM233.104 42.3242C231.668 43.1219 230.232 43.6006 228.637 44.0792C226.882 44.5579 225.127 44.7174 223.212 44.7174C220.978 44.7174 218.585 44.3983 216.511 43.6006C214.596 42.9624 212.841 41.8455 211.405 40.4095C209.969 38.9736 208.853 37.2185 208.214 35.3039C207.417 33.0702 207.098 30.8365 207.098 28.6027C207.098 26.369 207.417 24.1353 208.214 22.0611C209.012 20.1465 210.129 18.3915 211.565 16.9555C213.001 15.5195 214.756 14.4027 216.83 13.7645C219.064 12.9667 221.298 12.6476 223.691 12.6476C225.286 12.6476 227.041 12.8072 228.637 13.1263C230.073 13.4454 231.509 13.924 232.945 14.7218V20.7847C231.668 19.987 230.392 19.3488 228.956 19.0297C227.52 18.551 225.925 18.3915 224.489 18.3915C222.574 18.3915 220.659 18.7106 218.904 19.6679C217.468 20.4656 216.192 21.5825 215.394 23.178C214.596 24.9331 214.118 26.8477 214.118 28.7623C214.118 30.6769 214.437 32.5915 215.235 34.3466C216.032 35.7826 217.149 37.059 218.585 37.8567C220.34 38.6545 222.095 39.1331 224.01 39.1331C227.201 39.1331 230.232 38.3354 232.945 36.5803L233.104 42.3242ZM280.012 34.3466V49.504H271.078V7.70153H286.395C291.819 7.70153 296.127 8.81839 298.999 11.2117C302.031 13.6049 303.626 17.2746 303.466 21.1038C303.466 23.6567 302.828 26.0499 301.552 28.1241C300.116 30.1983 298.201 31.6342 295.968 32.5915C297.723 35.3039 299.478 38.1758 301.233 40.8882C302.988 43.6006 304.743 46.4725 306.338 49.504H295.968C293.096 44.3983 290.224 39.2927 287.192 34.3466H280.012ZM280.012 27.1668H285.916C288.15 27.3263 290.383 26.8477 292.298 25.7308C293.734 24.614 294.532 22.8589 294.532 20.9443C294.691 19.0297 293.893 17.2746 292.457 16.1577C290.543 15.0409 288.309 14.5622 286.235 14.5622H280.332L280.012 27.1668ZM341.759 49.504C340.801 46.4725 339.685 43.441 338.727 40.4095H321.815C320.858 43.441 319.741 46.4725 318.783 49.504H309.21C311.923 42.1646 314.635 34.9848 317.347 27.9645C320.06 20.9443 322.932 14.2431 325.644 7.54198H335.377C338.249 14.5622 341.121 21.4229 343.833 28.4432C346.545 35.4634 349.258 42.4837 351.811 49.3444H341.759V49.504ZM324.368 32.9106H336.174L333.303 24.7735C332.345 22.0611 331.388 19.3488 330.271 16.796C328.197 22.2207 326.282 27.4859 324.368 32.9106ZM356.757 7.70153H372.712C376.701 7.54198 380.53 8.49929 384.04 10.0948C387.071 11.6903 389.624 14.0836 391.22 17.2746C392.975 20.7847 393.773 24.614 393.613 28.6027C393.773 32.5915 392.815 36.4208 391.06 39.9309C389.465 42.9624 386.912 45.5152 383.88 47.1107C380.37 48.8658 376.541 49.6635 372.552 49.6635H356.597V7.70153H356.757ZM372.233 41.8455C375.584 42.0051 378.934 40.8882 381.168 38.4949C383.402 35.7826 384.519 32.2724 384.359 28.6027C384.678 25.0926 383.561 21.5825 381.328 18.8701C378.934 16.4768 375.743 15.2004 372.393 15.5195H365.851V41.8455H372.233ZM400.793 7.70153H409.728V49.504H400.793V7.70153ZM437.649 6.74422C440.521 6.74422 443.553 7.22288 446.265 8.33974C448.818 9.29704 451.051 10.733 452.806 12.6476C454.721 14.5622 456.157 16.9555 456.955 19.5083C457.912 22.3802 458.391 25.4117 458.391 28.6027C458.391 31.6342 457.912 34.6657 456.955 37.5376C455.997 40.0904 454.562 42.4837 452.806 44.3983C450.892 46.3129 448.658 47.7489 446.265 48.7062C440.681 50.7804 434.618 50.7804 429.193 48.7062C426.64 47.7489 424.406 46.3129 422.651 44.3983C420.737 42.4837 419.301 40.0904 418.503 37.5376C417.546 34.6657 417.067 31.6342 417.067 28.6027C417.067 25.5713 417.546 22.5398 418.503 19.5083C419.46 16.9555 420.896 14.5622 422.651 12.6476C424.566 10.733 426.8 9.29704 429.193 8.33974C431.905 7.22288 434.777 6.74422 437.649 6.74422ZM437.649 42.4837C439.883 42.4837 441.957 42.0051 443.712 40.8882C445.467 39.7713 446.903 38.0163 447.701 36.1017C448.658 33.7084 449.137 31.1556 448.977 28.6027C448.977 26.0499 448.658 23.4971 447.701 21.1038C446.903 19.1892 445.467 17.4342 443.712 16.3173C439.883 14.0836 435.256 14.0836 431.427 16.3173C429.672 17.4342 428.236 19.1892 427.438 21.1038C426.481 23.4971 426.002 26.0499 426.161 28.6027C426.161 31.1556 426.481 33.7084 427.438 36.1017C428.236 38.0163 429.672 39.7713 431.427 40.8882C433.341 42.0051 435.575 42.6433 437.649 42.4837ZM41.8024 184.165C33.9844 184.325 26.326 182.729 19.3057 179.219C13.0832 176.028 8.13711 170.922 4.94609 164.86C1.43596 157.68 -0.159552 149.862 -6.99229e-07 142.044V84.2861H21.0608V144.277C21.0608 151.138 22.8158 156.563 26.4855 160.233C30.1552 163.902 35.2608 165.817 41.8024 165.817C48.5036 165.817 53.6092 163.902 57.1194 160.233C60.789 156.563 62.5441 151.298 62.5441 144.277V84.2861H83.6049V142.044C83.7644 149.862 82.1689 157.68 78.6588 164.7C75.4677 170.922 70.3621 175.869 64.2992 179.06C57.2789 182.57 49.6204 184.325 41.8024 184.165ZM99.0813 84.2861H120.142V163.743H166.412V182.091H99.0813V84.2861ZM207.736 184.165C202.311 184.165 197.046 183.527 191.781 182.41C186.515 181.293 181.41 179.379 176.623 176.826V157.839C185.877 163.583 196.727 166.774 207.576 166.774C213.799 166.774 218.426 165.657 221.776 163.583C224.808 161.828 226.722 158.477 226.563 154.808C226.722 152.415 225.765 150.021 224.17 148.107C222.414 146.352 220.181 145.075 217.787 144.277C214.916 143.161 211.884 142.363 208.853 141.565C204.066 140.448 199.28 139.012 194.653 137.257C190.983 135.821 187.473 133.907 184.282 131.513C181.569 129.439 179.336 126.567 177.9 123.376C176.304 119.866 175.666 116.037 175.666 112.048C175.506 106.304 177.102 100.72 180.452 96.0929C183.803 91.4659 188.43 87.7963 193.855 85.7221C200.396 83.1693 207.417 81.8929 214.277 82.0524C219.383 82.0524 224.489 82.6906 229.594 83.8075C234.221 84.9243 238.848 86.5199 243.156 88.594V107.102C238.848 104.549 234.381 102.635 229.594 101.358C224.648 100.082 219.543 99.284 214.277 99.284C208.693 99.284 204.385 100.241 201.354 102.156C198.482 103.911 196.727 106.942 196.727 110.293C196.567 112.527 197.365 114.76 198.96 116.356C200.715 118.111 202.79 119.228 205.183 120.026C207.895 120.983 211.086 121.94 214.756 122.898C219.383 124.014 223.691 125.45 227.68 126.727C231.509 128.003 235.019 129.758 238.21 132.152C241.242 134.226 243.635 137.098 245.39 140.448C247.145 144.277 248.102 148.585 247.943 152.893C248.102 158.797 246.507 164.54 243.156 169.487C239.646 174.273 234.859 177.943 229.275 180.017C222.574 183.048 215.075 184.325 207.736 184.165ZM254.325 84.2861H336.813V102.635H306.019V182.091H284.959V102.635H254.165V84.2861H254.325ZM347.822 84.2861H414.993V101.837H368.723V123.057H409.728V140.608H368.723V164.7H417.546V182.251H347.822V84.2861ZM450.573 146.511V182.091H429.831V84.2861H465.571C478.494 84.2861 488.227 86.9985 495.088 92.4233C501.948 97.848 505.458 105.506 505.458 115.558C505.937 127.365 498.917 138.374 487.748 142.682C491.897 149.223 495.885 155.606 499.874 162.147C503.863 168.689 507.852 175.39 511.84 182.251H487.589C481.047 170.284 474.186 158.318 467.166 146.671L450.573 146.511ZM450.573 129.918H464.294C470.836 129.918 475.622 128.801 479.132 126.408C482.483 124.014 484.238 120.345 484.238 115.399C484.238 110.453 482.643 106.623 479.292 104.39C475.941 101.996 470.995 100.879 464.613 100.879H450.732L450.573 129.918Z" fill="white"/>
</g>
<defs>
<clipPath id="clip0_5_48">
<rect width="512" height="183.484" fill="white" transform="translate(0 0.681274)"/>
</clipPath>
</defs>
</svg>
