<svg width="512" height="201" viewBox="0 0 512 201" fill="none" xmlns="http://www.w3.org/2000/svg">
<g clip-path="url(#clip0_5_52)">
<path d="M35.6038 0.650879V61.4379H96.3908V0.650879H35.6038ZM77.6336 43.5491C76.5916 45.1122 75.0285 46.328 73.118 47.0227C70.8602 47.891 68.6024 48.2384 66.171 48.2384H52.6241V13.8503H65.4763C68.6024 13.6767 71.7286 14.545 74.3338 16.2818C76.4179 17.8449 77.6336 20.2764 77.46 22.8815C77.46 24.4446 77.1126 25.8341 76.4179 27.0498C75.5495 28.2655 74.5075 29.3076 73.118 29.8286C75.0285 30.3497 76.5916 31.5654 77.8073 32.9548C78.8494 34.5179 79.5441 36.4284 79.3704 38.1651C79.1967 40.0756 78.6757 41.986 77.6336 43.5491ZM68.9498 26.8761C69.9919 26.0077 70.5129 24.792 70.3392 23.5763C70.3392 20.7974 68.4288 19.5817 64.7815 19.5817H59.5712V28.0919H64.7815C66.3446 28.0919 67.7341 27.7445 68.9498 26.8761ZM65.8236 33.3022H59.7449V42.5071H65.8236C67.5604 42.6807 69.1235 42.1597 70.6866 41.2913C71.7286 40.5966 72.4233 39.2072 72.4233 37.9915C72.076 34.8653 69.9919 33.3022 65.8236 33.3022ZM111.501 0.650879V61.4379H172.288V0.650879H111.501ZM153.531 43.5491C152.488 45.1122 150.925 46.328 149.015 47.0227C146.757 47.891 144.499 48.2384 142.068 48.2384H128.521V13.8503H141.373C144.499 13.6767 147.626 14.545 150.231 16.2818C152.315 17.8449 153.531 20.2764 153.357 22.8815C153.357 24.4446 153.009 25.8341 152.315 27.0498C151.446 28.2655 150.404 29.3076 149.015 29.8286C150.925 30.3497 152.488 31.5654 153.704 32.9548C154.746 34.5179 155.441 36.4284 155.267 38.1651C155.267 40.0756 154.573 41.986 153.531 43.5491ZM144.847 26.8761C145.889 26.0077 146.41 24.792 146.236 23.5763C146.236 20.7974 144.326 19.5817 140.678 19.5817H135.468V28.0919H140.678C142.242 28.0919 143.631 27.7445 144.847 26.8761ZM141.72 33.3022H135.468V42.5071H141.547C143.284 42.6807 144.847 42.1597 146.41 41.2913C147.452 40.5966 148.147 39.2072 148.147 37.9915C147.973 34.8653 145.889 33.3022 141.72 33.3022ZM187.398 61.4379H248.185V0.650879H187.398V61.4379ZM230.99 45.9806C229.427 46.849 227.864 47.37 226.128 47.891C224.217 48.4121 222.307 48.5858 220.223 48.5858C217.791 48.5858 215.186 48.2384 212.928 47.37C210.844 46.6753 208.934 45.4596 207.37 43.8965C205.807 42.3334 204.592 40.4229 203.897 38.3388C203.028 35.9073 202.681 33.4758 202.681 31.0444C202.681 28.6129 203.028 26.1814 203.897 23.9236C204.765 21.8395 205.981 19.929 207.544 18.3659C209.107 16.8028 211.018 15.5871 213.275 14.8924C215.707 14.024 218.138 13.6767 220.744 13.6767C222.48 13.6767 224.391 13.8503 226.128 14.1977C227.691 14.545 229.254 15.0661 230.817 15.9345V22.5342C229.427 21.6658 228.038 20.9711 226.475 20.6237C224.912 20.1027 223.175 19.929 221.612 19.929C219.528 19.929 217.444 20.2764 215.533 21.3185C213.97 22.1868 212.581 23.4026 211.712 25.1393C210.844 27.0498 210.323 29.1339 210.323 31.218C210.323 33.3022 210.67 35.3863 211.539 37.2967C212.407 38.8598 213.623 40.2493 215.186 41.1176C217.096 41.986 219.007 42.5071 221.091 42.5071C224.564 42.5071 227.864 41.6387 230.817 39.7282L230.99 45.9806ZM282.225 37.2967V53.7961H272.499V8.29267H289.172C295.077 8.29267 299.767 9.50841 302.893 12.1136C306.193 14.7187 307.929 18.7133 307.756 22.8815C307.756 25.6604 307.061 28.2655 305.672 30.5233C304.109 32.7811 302.024 34.3442 299.593 35.3863C301.503 38.3388 303.414 41.465 305.324 44.4175C307.235 47.37 309.145 50.4962 310.882 53.7961H299.593C296.467 48.2384 293.341 42.6807 290.041 37.2967H282.225ZM282.225 29.4813H288.651C291.083 29.655 293.514 29.1339 295.598 27.9182C297.161 26.7024 298.03 24.792 298.03 22.7079C298.204 20.6237 297.335 18.7133 295.772 17.4976C293.688 16.2818 291.256 15.7608 288.999 15.7608H282.573L282.225 29.4813ZM349.438 53.7961C348.396 50.4962 347.18 47.1963 346.138 43.8965H327.729C326.687 47.1963 325.471 50.4962 324.429 53.7961H314.008C316.961 45.8069 319.913 37.9915 322.866 30.3497C325.818 22.7079 328.944 15.4134 331.897 8.11899H342.491C345.617 15.7608 348.744 23.2289 351.696 30.8707C354.649 38.5125 357.601 46.1543 360.38 53.6224L349.438 53.7961ZM330.507 35.7336H343.36L340.233 26.8761C339.191 23.9236 338.149 20.9711 336.934 18.1923C334.676 24.0973 332.592 29.8286 330.507 35.7336ZM365.764 8.29267H383.132C387.474 8.11899 391.642 9.16106 395.463 10.8978C398.763 12.6346 401.541 15.2398 403.278 18.7133C405.189 22.5342 406.057 26.7024 405.883 31.0444C406.057 35.3863 405.015 39.5545 403.104 43.3754C401.368 46.6753 398.589 49.4541 395.289 51.1909C391.468 53.1014 387.3 53.9697 382.958 53.9697H365.59L365.764 8.29267ZM382.611 45.4596C386.258 45.6332 389.905 44.4175 392.336 41.8123C394.768 38.8598 395.984 35.0389 395.81 31.0444C396.157 27.2235 394.942 23.4026 392.51 20.4501C389.905 17.8449 386.431 16.4555 382.784 16.8028H375.663V45.4596H382.611ZM413.699 8.29267H423.425V53.7961H413.699V8.29267ZM453.818 7.25061C456.944 7.25061 460.244 7.77164 463.197 8.98738C465.976 10.0294 468.407 11.5925 470.317 13.6767C472.402 15.7608 473.965 18.3659 474.833 21.1448C475.875 24.271 476.396 27.5708 476.396 31.0444C476.396 34.3442 475.875 37.6441 474.833 40.7703C473.791 43.5491 472.228 46.1543 470.317 48.2384C468.233 50.3225 465.802 51.8856 463.197 52.9277C457.118 55.1855 450.518 55.1855 444.613 52.9277C441.834 51.8856 439.403 50.3225 437.493 48.2384C435.408 46.1543 433.845 43.5491 432.977 40.7703C431.935 37.6441 431.414 34.3442 431.414 31.0444C431.414 27.7445 431.935 24.4446 432.977 21.1448C434.019 18.3659 435.582 15.7608 437.493 13.6767C439.577 11.5925 442.008 10.0294 444.613 8.98738C447.566 7.77164 450.692 7.25061 453.818 7.25061ZM453.818 46.1543C456.25 46.1543 458.507 45.6332 460.418 44.4175C462.328 43.2018 463.891 41.2913 464.76 39.2072C465.802 36.602 466.323 33.8232 466.149 31.0444C466.149 28.2655 465.802 25.4867 464.76 22.8815C463.891 20.7974 462.328 18.887 460.418 17.6712C456.25 15.2398 451.213 15.2398 447.045 17.6712C445.134 18.887 443.571 20.7974 442.703 22.8815C441.661 25.4867 441.14 28.2655 441.313 31.0444C441.313 33.8232 441.661 36.602 442.703 39.2072C443.571 41.2913 445.134 43.2018 447.045 44.4175C449.129 45.6332 451.56 46.328 453.818 46.1543ZM90.4857 198.122L80.5862 162.171C77.2863 150.187 74.1601 138.203 71.2076 126.219C68.2551 138.203 65.1289 150.187 62.0027 162.171C58.8765 174.154 55.5767 186.138 52.1031 198.122H27.7883C22.7517 180.754 17.8887 163.213 13.1995 145.498C8.51018 127.609 4.16825 109.72 0 91.6577H25.0095C27.441 105.378 30.0461 119.272 32.825 132.993C35.6038 146.713 38.5563 160.26 41.6825 173.633C48.2822 147.755 54.7083 121.877 60.6133 96.1733H82.844C85.7965 108.852 88.9227 121.53 92.0488 134.209C95.175 146.887 98.3012 159.392 101.601 172.07C104.554 159.044 107.506 145.671 110.285 132.124C113.064 118.578 115.669 105.204 118.1 91.6577H142.589C138.421 109.72 134.079 127.609 129.389 145.324C124.7 163.039 119.837 180.58 114.801 197.948H90.4857V198.122ZM218.486 198.122C215.881 190.306 213.275 182.664 210.67 175.023H167.598C164.993 182.664 162.388 190.306 159.783 198.122H135.294C142.068 179.538 148.841 161.302 155.962 143.587C162.909 125.872 170.03 108.504 177.151 91.8313H201.813C209.107 109.546 216.402 127.261 223.349 144.977C230.296 162.865 237.069 180.58 243.669 198.122H218.486ZM174.024 155.918H203.897L196.602 135.077C193.997 128.13 191.566 121.356 189.134 114.757C183.924 128.477 178.887 142.198 174.024 155.918ZM257.737 91.6577H280.662V178.149H331.028V198.122H257.737V91.6577ZM344.749 91.6577H417.867V110.762H367.501V133.861H412.136V152.966H367.501V179.191H420.646V198.295H344.575V91.6577H344.749ZM468.233 200.38C462.328 200.38 456.597 199.685 450.866 198.469C445.134 197.253 439.577 195.169 434.366 192.39V171.723C444.44 177.975 456.25 181.449 468.06 181.449C474.833 181.449 479.87 180.233 483.517 177.975C486.817 176.065 488.901 172.418 488.727 168.423C488.901 165.818 487.859 163.213 486.122 161.128C484.212 159.218 481.78 157.829 479.175 156.96C476.049 155.745 472.749 154.876 469.449 154.008C464.239 152.792 459.028 151.229 453.992 149.318C449.997 147.755 446.176 145.671 442.703 143.066C439.75 140.808 437.319 137.682 435.756 134.209C434.019 130.388 433.324 126.219 433.324 121.877C433.151 115.625 434.887 109.546 438.535 104.51C442.182 99.4731 447.218 95.4786 453.123 93.2208C460.244 90.4419 467.886 89.0525 475.354 89.2262C480.912 89.2262 486.469 89.9209 492.027 91.1366C497.064 92.3524 502.1 94.0891 506.79 96.3469V116.493C502.1 113.715 497.237 111.631 492.027 110.241C486.643 108.852 481.085 107.983 475.354 107.983C469.275 107.983 464.586 109.025 461.286 111.109C458.16 113.02 456.25 116.32 456.25 119.967C456.076 122.399 456.944 124.83 458.681 126.567C460.592 128.477 462.849 129.693 465.455 130.561C468.407 131.603 471.881 132.645 475.875 133.688C480.912 134.903 485.601 136.466 489.943 137.856C494.111 139.245 497.932 141.156 501.406 143.761C504.706 146.019 507.311 149.145 509.221 152.792C511.132 156.96 512.174 161.65 512 166.339C512.174 172.765 510.437 179.017 506.79 184.401C502.969 189.612 497.758 193.606 491.68 195.864C484.212 199.164 476.223 200.553 468.233 200.38Z" fill="white"/>
</g>
<defs>
<clipPath id="clip0_5_52">
<rect width="512" height="199.729" fill="white" transform="translate(0 0.650879)"/>
</clipPath>
</defs>
</svg>
