<svg width="512" height="291" viewBox="0 0 512 291" fill="none" xmlns="http://www.w3.org/2000/svg">
<g clip-path="url(#clip0_5_54)">
<path d="M34.9157 0.976196V61.8855H95.825V0.976196H34.9157ZM77.0868 43.9611C75.9601 45.4977 74.4161 46.6786 72.638 47.3635C70.4251 48.2136 68.0666 48.6205 65.6968 48.561H52.0458V14.3007H64.905C68.6943 14.3007 71.6293 15.0592 73.71 16.5763C74.7338 17.3207 75.5555 18.3088 76.1008 19.4511C76.646 20.5935 76.8974 21.8539 76.8322 23.118C76.869 24.6085 76.4812 26.0788 75.7139 27.3572C74.9096 28.6066 73.761 29.5966 72.4065 30.2078C74.2486 30.7563 75.8706 31.8719 77.0417 33.3958C78.1411 34.9378 78.7058 36.7971 78.6498 38.69C78.6996 40.568 78.1516 42.4134 77.0868 43.9611ZM68.3756 27.2135C68.8494 26.813 69.2241 26.3084 69.4705 25.7391C69.7169 25.1698 69.8283 24.5512 69.796 23.9317C69.796 21.2168 67.948 19.8589 64.252 19.8581H58.9882V28.3878H64.252C65.7213 28.4883 67.1797 28.073 68.3756 27.2135ZM65.1376 33.7552H58.9882V43.0036H65.0438C66.7258 43.1082 68.3998 42.6986 69.8435 41.8293C70.3877 41.4558 70.8273 40.9494 71.1207 40.3582C71.4141 39.7669 71.5514 39.1105 71.5197 38.4513C71.5197 35.3205 69.3932 33.7552 65.1376 33.7552ZM111.05 0.976196V61.8855H171.959V0.976196H111.05ZM153.222 43.9611C152.096 45.4977 150.551 46.6786 148.773 47.3635C146.56 48.2136 144.202 48.6205 141.832 48.561H128.181V14.3007H141.039C144.829 14.3007 147.764 15.0592 149.844 16.5763C150.868 17.3207 151.69 18.3088 152.235 19.4511C152.78 20.5935 153.032 21.8539 152.966 23.118C153.003 24.6085 152.615 26.0788 151.848 27.3572C151.043 28.6068 149.894 29.5968 148.54 30.2078C150.382 30.756 152.004 31.8717 153.176 33.3958C154.275 34.9378 154.84 36.7971 154.784 38.69C154.834 40.568 154.287 42.4134 153.222 43.9611ZM144.51 27.2135C144.984 26.8132 145.359 26.3086 145.605 25.7393C145.852 25.17 145.964 24.5513 145.931 23.9317C145.931 21.2168 144.083 19.8589 140.387 19.8581H135.124V28.3878H140.387C141.857 28.4883 143.314 28.073 144.51 27.2135ZM141.272 33.7552H135.124V43.0036H141.179C142.861 43.1082 144.535 42.6986 145.979 41.8293C146.523 41.4558 146.963 40.9494 147.256 40.3582C147.549 39.7669 147.687 39.1105 147.655 38.4513C147.655 35.3205 145.527 33.7552 141.272 33.7552ZM187.189 61.8855H248.098V0.976196H187.189V61.8855ZM230.934 46.3902C229.379 47.2248 227.721 47.8487 226.002 48.2455C224.069 48.7065 222.089 48.9351 220.102 48.9264C217.584 48.9634 215.08 48.5581 212.703 47.729C210.619 46.9983 208.721 45.8199 207.142 44.2766C205.589 42.7159 204.399 40.8316 203.659 38.7582C202.822 36.3994 202.413 33.9102 202.45 31.4077C202.414 28.9467 202.841 26.5008 203.708 24.1973C204.504 22.1171 205.741 20.2344 207.335 18.6789C208.959 17.117 210.896 15.9163 213.017 15.1559C215.4 14.3127 217.913 13.8994 220.441 13.9353C222.254 13.9258 224.063 14.1228 225.832 14.5224C227.469 14.8939 229.053 15.4698 230.547 16.2364V22.906C229.221 22.0277 227.77 21.3545 226.243 20.9094C224.656 20.45 223.011 20.2207 221.359 20.2284C219.274 20.1679 217.207 20.6197 215.338 21.5441C213.706 22.3924 212.372 23.72 211.517 25.3484C210.581 27.2274 210.124 29.3092 210.188 31.4077C210.127 33.5081 210.566 35.5929 211.47 37.4901C212.282 39.1225 213.583 40.4606 215.193 41.3177C217.027 42.2425 219.064 42.6947 221.118 42.6333C224.586 42.6553 227.989 41.6944 230.934 39.8619V46.3902ZM282.226 37.6704V54.2755H272.517V8.61057H289.186C295.19 8.61057 299.8 9.86652 303.014 12.3784C306.228 14.8911 307.836 18.4888 307.837 23.1715C307.918 25.9044 307.172 28.5982 305.697 30.8997C304.186 33.0979 302.066 34.8071 299.597 35.8175C301.514 38.8419 303.409 41.8756 305.282 44.9186C307.155 47.9641 309.028 51.083 310.902 54.2755H299.597C296.531 48.6556 293.359 43.1206 290.081 37.6704H282.226ZM282.226 29.9422H288.613C291.023 30.0976 293.424 29.5305 295.51 28.3135C296.31 27.7294 296.947 26.9504 297.36 26.0506C297.774 25.1508 297.951 24.1601 297.873 23.1728C297.949 22.1841 297.775 21.1923 297.368 20.2883C296.961 19.3843 296.333 18.5972 295.542 17.9991C293.476 16.7576 291.08 16.1781 288.676 16.3387H282.226V29.9422ZM349.669 54.2755C348.562 50.9133 347.455 47.6136 346.349 44.3765H327.826C326.718 47.6559 325.611 50.9555 324.504 54.2755H313.967C316.861 46.2712 319.81 38.4582 322.812 30.8364C325.814 23.2154 328.847 15.8068 331.913 8.61057H342.515C345.666 16.1893 348.742 23.8001 351.744 31.443C354.746 39.0859 357.652 46.6968 360.462 54.2755H349.669ZM330.638 36.2013H343.475C342.452 33.2208 341.398 30.2508 340.312 27.2915C339.227 24.3329 338.152 21.4267 337.088 18.5729C334.873 24.4072 332.723 30.2841 330.638 36.2013ZM366.019 8.60935H383.456C387.731 8.49076 391.972 9.41211 395.813 11.2942C399.163 13.0064 401.897 15.7183 403.636 19.0541C405.523 22.871 406.444 27.0923 406.319 31.348C406.439 35.6275 405.507 39.8712 403.605 43.7065C401.864 47.0651 399.133 49.8076 395.781 51.5626C391.937 53.4723 387.681 54.4046 383.39 54.2767H366.019V8.60935ZM382.881 45.8457C387.138 45.8457 390.406 44.5999 392.685 42.1083C394.961 39.6175 396.1 36.0303 396.102 31.3468C396.102 26.7063 394.984 23.1614 392.748 20.712C390.513 18.2643 387.245 17.0404 382.944 17.0404H375.854V45.8457H382.881ZM414.111 8.61057H423.947V54.2755H414.111V8.61057ZM454.413 7.65186C457.608 7.60647 460.783 8.16997 463.768 9.31224C466.47 10.3613 468.911 11.9849 470.923 14.0705C472.95 16.2148 474.506 18.7603 475.489 21.5428C476.595 24.7129 477.135 28.0529 477.084 31.4101C477.13 34.7571 476.59 38.0862 475.489 41.247C474.507 44.0488 472.952 46.6153 470.923 48.7827C468.919 50.8853 466.476 52.5206 463.768 53.5726C457.727 55.7866 451.097 55.7866 445.056 53.5726C442.348 52.5208 439.906 50.8854 437.903 48.7827C435.873 46.6157 434.317 44.0492 433.334 41.247C432.233 38.0866 431.693 34.7579 431.739 31.4114C431.688 28.0541 432.228 24.7142 433.334 21.5441C434.318 18.7607 435.874 16.2147 437.903 14.0705C439.914 11.9847 442.355 10.3612 445.056 9.31224C448.041 8.1698 451.217 7.6063 454.413 7.65186ZM454.413 46.6752C456.778 46.7391 459.11 46.1062 461.119 44.8553C463.036 43.5892 464.527 41.7754 465.398 39.65C466.444 37.0326 466.944 34.2289 466.866 31.4114C466.944 28.5934 466.444 25.7893 465.398 23.1715C464.532 21.052 463.039 19.2474 461.119 17.9991C459.078 16.8273 456.766 16.2107 454.413 16.2107C452.059 16.2107 449.747 16.8273 447.707 17.9991C445.786 19.2467 444.293 21.0514 443.427 23.1715C442.38 25.7892 441.88 28.5933 441.958 31.4114C441.88 34.229 442.38 37.0328 443.427 39.65C444.298 41.776 445.789 43.59 447.707 44.8553C449.715 46.1065 452.047 46.7394 454.413 46.6752ZM90.4406 198.69C87.0678 186.692 83.7706 174.692 80.5489 162.69C77.3231 150.695 74.1741 138.696 71.1019 126.693C68.1279 138.694 65.0536 150.693 61.879 162.69C58.706 174.691 55.434 186.691 52.0628 198.69H27.8148C22.7586 181.337 17.8996 163.784 13.238 146.032C8.57644 128.28 4.16376 110.38 0 92.3304H24.9899C27.466 106.117 30.0941 119.902 32.874 133.685C35.6482 147.47 38.5731 161.006 41.6486 174.295C48.2917 148.411 54.5894 122.577 60.5414 96.7939H82.8537C85.8277 109.489 88.8772 122.158 92.0023 134.8C95.1249 147.443 98.3231 160.063 101.597 172.659C104.571 159.567 107.447 146.279 110.225 132.794C113 119.306 115.578 105.818 117.959 92.3304H142.503C138.339 110.382 133.926 128.282 129.264 146.032C124.603 163.784 119.743 181.337 114.686 198.69H90.4406ZM218.366 198.69C215.785 190.857 213.206 183.171 210.629 175.632H167.491C164.911 183.27 162.333 190.956 159.757 198.69H135.213C141.956 180.046 148.823 161.849 155.816 144.097C162.807 126.347 169.872 109.092 177.011 92.3304H201.704C209.042 109.985 216.207 127.712 223.199 145.51C230.191 163.312 236.96 181.039 243.506 198.69H218.366ZM174.036 156.593H203.937C201.555 149.654 199.101 142.736 196.573 135.84C194.044 128.951 191.541 122.183 189.061 115.537C183.903 129.124 178.893 142.809 174.036 156.593ZM257.635 92.3304H280.543V178.756H330.969V198.69H257.635V92.3304ZM344.654 92.3304H417.838V111.373H367.563V134.427H412.188V153.47H367.563V179.65H420.666V198.69H344.655L344.654 92.3304ZM468.117 200.922C462.287 200.923 456.474 200.274 450.787 198.986C445.063 197.691 439.537 195.64 434.353 192.889V172.359C444.485 178.67 456.181 182.02 468.117 182.029C474.86 182.029 479.993 180.888 483.515 178.606C485.163 177.633 486.521 176.238 487.449 174.564C488.377 172.891 488.842 171 488.796 169.087C488.871 167.771 488.68 166.453 488.232 165.213C487.784 163.973 487.09 162.836 486.191 161.872C484.219 159.993 481.857 158.571 479.273 157.708C476.103 156.578 472.876 155.61 469.607 154.808C464.341 153.602 459.17 152.01 454.136 150.047C450.083 148.495 446.275 146.365 442.831 143.724C439.835 141.398 437.438 138.389 435.839 134.949C434.162 131.08 433.35 126.893 433.459 122.678C433.296 116.481 435.092 110.39 438.591 105.272C442.256 100.223 447.289 96.3269 453.096 94.0432C460.197 91.2584 467.783 89.9183 475.408 90.1011C481.017 90.0967 486.608 90.7455 492.067 92.0344C497.16 93.1971 502.102 94.9438 506.795 97.2397V117.471C502.186 114.69 497.201 112.586 491.994 111.224C486.588 109.75 481.011 109 475.408 108.993C469.358 108.993 464.672 110.034 461.35 112.116C459.789 113.013 458.5 114.317 457.622 115.89C456.744 117.462 456.31 119.243 456.365 121.043C456.303 122.249 456.482 123.456 456.891 124.592C457.3 125.729 457.931 126.772 458.747 127.663C460.666 129.501 462.982 130.875 465.515 131.678C468.44 132.719 471.886 133.735 475.854 134.727C480.91 136.017 485.621 137.431 489.985 138.966C494.086 140.37 497.967 142.349 501.513 144.843C504.8 147.183 507.457 150.301 509.248 153.917C511.203 158.154 512.146 162.787 512.001 167.451C512.184 173.87 510.364 180.187 506.795 185.525C503.039 190.755 497.807 194.743 491.77 196.979C485.224 199.607 477.34 200.92 468.117 200.922ZM114.121 229.145H156.033V240.048H127.238V253.253H152.796V264.156H127.238V279.15H157.652V290.053H114.121V229.145ZM205.27 290.054C203.169 286.249 200.983 282.473 198.712 278.724C196.439 274.975 194.111 271.256 191.727 267.565C189.285 271.312 186.927 275.06 184.655 278.809C182.384 282.558 180.227 286.306 178.183 290.053H162.931C166.341 284.772 169.778 279.519 173.241 274.295C176.704 269.069 180.31 263.816 184.058 258.534C180.651 253.708 177.33 248.824 174.093 243.881C170.856 238.941 167.704 234.029 164.637 229.145H180.227C182.1 232.496 184.016 235.832 185.977 239.154C187.936 242.477 189.966 245.757 192.068 248.994C194.112 245.813 196.128 242.561 198.116 239.239C200.104 235.917 202.035 232.553 203.909 229.145H219.157C216.033 234.029 212.867 238.913 209.657 243.797C206.449 248.681 203.17 253.537 199.819 258.364C203.453 263.589 207.032 268.842 210.554 274.123C214.074 279.405 217.51 284.715 220.86 290.054H205.27ZM223.331 229.145H274.784V240.559H255.617V290.054H242.497V240.559H223.331V229.145ZM293.526 267.905V290.054H280.576V229.145H302.811C310.818 229.145 316.966 230.82 321.254 234.17C325.541 237.522 327.685 242.32 327.686 248.566C327.847 252.174 326.873 255.741 324.902 258.767C322.931 261.792 320.062 264.124 316.697 265.435C319.252 269.467 321.779 273.513 324.277 277.573C326.776 281.633 329.276 285.794 331.775 290.054H316.697C312.608 282.558 308.377 275.175 304.003 267.905H293.524H293.526ZM293.526 257.597H302.044C306.077 257.597 309.143 256.873 311.244 255.425C312.311 254.646 313.161 253.606 313.713 252.406C314.264 251.205 314.5 249.884 314.397 248.566C314.498 247.248 314.266 245.925 313.723 244.72C313.18 243.514 312.342 242.464 311.288 241.667C309.212 240.191 306.159 239.453 302.13 239.452H293.526V257.597ZM383.484 290.054C382.006 285.568 380.529 281.166 379.054 276.849H354.35C352.872 281.224 351.395 285.626 349.919 290.054H335.864C339.725 279.377 343.657 268.956 347.661 258.791C351.664 248.625 355.711 238.743 359.801 229.145H373.943C378.145 239.253 382.248 249.405 386.252 259.6C390.255 269.793 394.131 279.945 397.879 290.054H383.484ZM358.097 265.946H375.221C373.858 261.972 372.452 258.011 371.003 254.063C369.555 250.116 368.122 246.239 366.702 242.433C363.748 250.215 360.879 258.053 358.097 265.946Z" fill="white"/>
</g>
<defs>
<clipPath id="clip0_5_54">
<rect width="512" height="289.078" fill="white" transform="translate(0 0.976196)"/>
</clipPath>
</defs>
</svg>
