<svg width="512" height="112" viewBox="0 0 512 112" fill="none" xmlns="http://www.w3.org/2000/svg">
<g clip-path="url(#clip0_5_30)">
<path d="M88.3302 0.228027V46.5713H134.673V0.228027H88.3302ZM120.4 32.9463C119.566 34.1513 118.361 34.9854 116.97 35.5416C115.302 36.1904 113.448 36.4684 111.687 36.4684H101.306V10.3309H111.131C114.004 10.3309 116.229 10.887 117.804 12.0919C119.38 13.2041 120.307 15.1505 120.214 17.097C120.214 18.2092 119.936 19.3214 119.38 20.341C118.731 21.2679 117.897 22.0093 116.878 22.4728C118.268 22.8435 119.473 23.7704 120.4 24.8826C121.234 26.0875 121.697 27.4778 121.605 28.8681C121.605 30.3511 121.234 31.7414 120.4 32.9463ZM113.819 20.1556C114.56 19.5068 114.931 18.5799 114.931 17.6531C114.931 15.614 113.541 14.5944 110.668 14.5944H106.682V21.0825H110.668C111.78 21.1752 112.892 20.8044 113.819 20.1556ZM111.316 25.1607H106.682V32.2049H111.316C112.614 32.2975 113.912 31.9268 114.931 31.278C115.765 30.7219 116.229 29.7023 116.229 28.6828C116.136 26.3656 114.56 25.1607 111.316 25.1607ZM146.259 0.228027V46.5713H192.602V0.228027H146.259ZM178.329 32.9463C177.495 34.1513 176.29 34.9854 174.899 35.5416C173.231 36.1904 171.377 36.4684 169.616 36.4684H159.235V10.3309H169.06C171.933 10.3309 174.158 10.887 175.734 12.0919C177.309 13.2041 178.236 15.1505 178.143 17.097C178.143 18.2092 177.865 19.3214 177.309 20.341C176.66 21.2679 175.826 22.0093 174.807 22.4728C176.197 22.8435 177.402 23.7704 178.329 24.8826C179.163 26.0875 179.626 27.4778 179.534 28.8681C179.534 30.3511 179.163 31.7414 178.329 32.9463ZM171.748 20.1556C172.489 19.5068 172.86 18.5799 172.86 17.6531C172.86 15.614 171.47 14.5944 168.597 14.5944H164.611V21.0825H168.597C169.709 21.1752 170.821 20.8044 171.748 20.1556ZM169.245 25.1607H164.611V32.2049H169.245C170.543 32.2975 171.841 31.9268 172.86 31.278C173.694 30.7219 174.158 29.7023 174.158 28.6828C174.065 26.3656 172.49 25.1607 169.245 25.1607ZM204.188 46.5713H250.531V0.228027H204.188V46.5713ZM237.463 34.8001C236.258 35.4489 235.053 35.9123 233.755 36.1904C232.272 36.5611 230.789 36.7465 229.306 36.7465C227.36 36.7465 225.506 36.4684 223.652 35.8196C222.077 35.2635 220.594 34.3366 219.389 33.2244C218.184 32.0195 217.257 30.6292 216.701 29.0535C216.052 27.2925 215.774 25.3461 215.774 23.4923C215.774 21.6386 216.052 19.7849 216.701 18.0238C217.35 16.4482 218.277 14.9652 219.482 13.8529C220.686 12.648 222.169 11.7211 223.838 11.165C225.692 10.5162 227.545 10.2382 229.492 10.2382C230.882 10.2382 232.272 10.4235 233.57 10.7016C234.775 10.9797 235.98 11.4431 237.185 11.9992V16.9116C236.165 16.2628 235.053 15.7067 233.941 15.4286C232.736 15.0579 231.438 14.8725 230.233 14.8725C228.657 14.8725 227.082 15.1505 225.692 15.892C224.487 16.5408 223.467 17.5604 222.818 18.7653C222.077 20.1556 221.799 21.824 221.799 23.3996C221.706 24.9753 222.077 26.551 222.818 28.034C223.467 29.2389 224.394 30.2584 225.692 30.9072C227.082 31.6487 228.657 31.9268 230.233 31.9268C232.828 31.9268 235.424 31.1853 237.741 29.795L237.463 34.8001ZM276.484 28.1267V40.732H269.069V6.06727H281.767C286.308 6.06727 289.831 6.99414 292.333 8.94055C294.743 10.887 296.041 13.5749 296.041 17.1896C296.226 21.4532 293.723 25.2534 289.738 26.829C291.221 29.1462 292.611 31.4634 294.094 33.7805C295.484 36.0977 296.967 38.5075 298.358 40.9174H289.738C287.421 36.6538 285.011 32.3902 282.508 28.312L276.484 28.1267ZM276.484 22.2874H281.303C283.157 22.3801 284.918 22.0093 286.587 21.0825C287.791 20.1556 288.533 18.6726 288.348 17.1896C288.44 15.7067 287.791 14.2237 286.587 13.2968C285.011 12.37 283.157 11.9065 281.396 11.9992H276.484V22.2874ZM327.832 40.8247C326.998 38.2295 326.164 35.7269 325.329 33.3171H311.241L308.739 40.8247H300.675C302.899 34.7074 305.124 28.7755 307.441 23.0289C309.758 17.1896 312.075 11.6285 314.392 6.15996H322.456C324.866 11.9065 327.183 17.7458 329.5 23.4923C331.818 29.3316 333.949 35.0781 336.174 40.8247H327.832ZM313.28 27.0144H323.012C322.271 24.7899 321.437 22.4728 320.602 20.2483C319.768 18.0238 318.934 15.7994 318.193 13.5749C316.524 18.0238 314.949 22.5655 313.28 27.0144ZM340.252 6.06727H353.506C356.75 5.97459 359.994 6.71608 362.867 8.10638C365.463 9.40399 367.502 11.4431 368.799 14.0383C370.19 16.9116 370.931 20.1556 370.839 23.3996C370.931 26.6437 370.19 29.8877 368.799 32.761C367.502 35.3562 365.37 37.3953 362.867 38.6929C359.902 40.1759 356.75 40.8247 353.413 40.732H340.159V6.06727H340.252ZM353.043 34.3366C356.287 34.3366 358.789 33.4098 360.458 31.4634C362.219 29.6096 363.053 26.829 363.053 23.307C363.053 19.7849 362.219 17.097 360.458 15.2432C358.789 13.3895 356.287 12.4626 353.043 12.4626H347.667V34.3366H353.043ZM376.863 6.06727H384.371V40.8247H376.863V6.06727ZM407.542 5.32578C409.952 5.32578 412.362 5.69653 414.679 6.62339C416.718 7.45757 418.572 8.6625 420.148 10.2382C421.723 11.9065 422.836 13.7602 423.577 15.892C425.153 20.7117 425.153 25.9949 423.577 30.9072C422.836 33.039 421.631 34.9854 420.148 36.6538C418.665 38.2295 416.811 39.5271 414.679 40.2686C410.045 41.9369 405.04 41.9369 400.405 40.2686C398.366 39.4344 396.513 38.2295 394.937 36.6538C393.361 34.9854 392.249 33.039 391.508 30.9072C389.932 26.0875 389.932 20.8044 391.508 15.892C392.249 13.7602 393.454 11.8138 394.937 10.2382C396.513 8.6625 398.366 7.45757 400.405 6.62339C402.63 5.69653 405.04 5.2331 407.542 5.32578ZM407.542 34.9854C409.303 35.0781 411.157 34.522 412.64 33.5952C414.123 32.6683 415.235 31.278 415.884 29.6096C416.718 27.6632 417.089 25.4387 416.996 23.307C417.089 21.1752 416.718 19.0434 415.884 17.0043C415.235 15.4286 414.123 14.0383 412.64 13.1114C409.489 11.2577 405.596 11.2577 402.445 13.1114C400.962 14.0383 399.849 15.4286 399.201 17.0043C398.366 18.9507 397.996 21.1752 398.088 23.307C397.996 25.4387 398.366 27.5705 399.201 29.6096C399.849 31.1853 400.962 32.5756 402.445 33.5952C403.928 34.522 405.689 35.0781 407.542 34.9854ZM39.4844 110.247C38.0014 105.056 36.6112 99.7733 35.1282 94.5828C33.7379 89.3924 32.3476 84.1093 31.05 78.9188C29.7524 84.1093 28.4547 89.3924 27.0644 94.5828C25.6741 99.7733 24.2839 105.056 22.8009 110.247H12.1419C9.91745 102.647 7.78566 95.0463 5.74656 87.2606C3.70746 79.5676 1.85373 71.782 0 63.9036H10.937C12.0492 69.9282 13.1615 75.9529 14.3664 81.9775C15.5713 88.0021 16.8689 93.934 18.1665 99.6806C21.0398 88.3729 23.8204 77.1578 26.4156 65.85H36.1477C37.4453 71.4112 38.7429 76.8797 40.1332 82.4409C41.5235 88.0021 42.9138 93.4706 44.3041 98.9391C45.6017 93.1925 46.8993 87.446 48.1043 81.514C49.3092 75.6748 50.4214 69.7429 51.441 63.9036H62.1926C60.3389 71.782 58.4852 79.5676 56.4461 87.3533C54.407 95.139 52.2752 102.739 50.0507 110.34L39.4844 110.247ZM86.1057 62.8841C89.3497 62.8841 92.5938 63.4402 95.6524 64.5524C98.433 65.6647 100.843 67.2403 102.882 69.3721C104.921 71.5039 106.497 74.0991 107.516 76.9724C109.648 83.4605 109.648 90.5046 107.516 96.9927C106.497 99.866 104.921 102.461 102.882 104.686C100.843 106.817 98.3403 108.486 95.6524 109.505C89.5351 111.73 82.769 111.73 76.6517 109.505C73.8711 108.393 71.4613 106.817 69.4222 104.686C67.3831 102.461 65.8074 99.866 64.7878 96.9927C62.656 90.5046 62.656 83.4605 64.7878 76.9724C65.8074 74.0991 67.3831 71.5966 69.4222 69.3721C71.4613 67.2403 73.9638 65.572 76.6517 64.5524C79.6177 63.4402 82.8617 62.8841 86.1057 62.8841ZM86.1057 102.554C88.5156 102.647 90.8327 101.998 92.9645 100.7C94.9109 99.4025 96.3939 97.5488 97.3208 95.417C99.2672 90.0412 99.2672 84.1093 97.3208 78.6408C96.4866 76.509 94.9109 74.6553 92.9645 73.3576C88.7009 70.9478 83.6032 70.9478 79.3396 73.3576C77.3932 74.6553 75.9102 76.4163 74.9833 78.6408C73.0369 84.0166 73.0369 89.9485 74.9833 95.417C75.9102 97.5488 77.3932 99.4025 79.3396 100.7C81.286 101.998 83.6959 102.647 86.1057 102.554ZM124.478 93.3779V110.247H114.653V63.9036H131.615C137.732 63.9036 142.366 65.2012 145.703 67.7038C148.947 70.299 150.615 73.9138 150.615 78.6408C150.708 81.4214 149.967 84.1093 148.484 86.5191C146.908 88.7436 144.776 90.5046 142.274 91.5242C144.22 94.5828 146.167 97.6415 148.02 100.793C149.967 103.851 151.82 107.096 153.767 110.34H142.274C139.122 104.593 135.971 99.0318 132.634 93.4706L124.478 93.3779ZM124.478 85.5923H130.966C134.025 85.5923 136.342 85.0361 138.01 83.9239C139.678 82.719 140.605 80.7726 140.42 78.7335C140.605 76.6944 139.678 74.7479 138.01 73.4503C136.434 72.3381 134.117 71.782 131.059 71.782H124.478V85.5923ZM158.587 63.9036H168.597V101.627H190.563V110.34H158.587V63.9036ZM196.495 63.9036H214.198C218.555 63.8109 222.818 64.7378 226.711 66.5915C230.14 68.3526 232.921 71.0405 234.682 74.4699C236.629 78.3627 237.555 82.6263 237.37 86.9825C237.463 91.3388 236.536 95.6024 234.589 99.4952C232.828 102.925 230.048 105.705 226.618 107.466C222.726 109.413 218.369 110.34 214.013 110.247H196.403L196.495 63.9036ZM213.55 101.72C217.906 101.72 221.15 100.422 223.467 97.9196C225.784 95.417 226.896 91.7096 226.896 86.9825C226.896 82.2555 225.784 78.6408 223.467 76.1382C221.243 73.6357 217.906 72.4308 213.55 72.4308H206.32V101.72H213.55ZM270.644 111.266C268.142 111.266 265.547 110.988 263.044 110.432C260.542 109.876 258.132 108.949 255.907 107.744V98.7537C260.356 101.534 265.454 102.925 270.644 103.017C273.61 103.017 275.835 102.554 277.318 101.534C278.801 100.7 279.635 99.1245 279.635 97.3634C279.728 96.1585 279.264 95.0463 278.523 94.2121C277.689 93.3779 276.669 92.7291 275.464 92.3584C274.074 91.8949 272.684 91.4315 271.201 91.0608C268.883 90.5046 266.659 89.8558 264.434 89.0217C262.673 88.3729 261.005 87.446 259.522 86.2411C258.224 85.2215 257.205 83.9239 256.463 82.4409C255.722 80.7726 255.351 78.9188 255.444 77.0651C255.351 74.3772 256.185 71.6893 257.668 69.4648C259.244 67.2403 261.468 65.572 263.971 64.5524C267.03 63.3475 270.366 62.7914 273.703 62.7914C276.113 62.7914 278.615 63.0694 280.933 63.6256C283.157 64.089 285.289 64.9232 287.328 65.85V74.6553C285.289 73.4503 283.157 72.5235 280.84 71.9673C278.523 71.3185 276.02 71.0405 273.61 71.0405C271.479 70.9478 269.347 71.4112 267.493 72.4308C266.103 73.265 265.269 74.7479 265.361 76.3236C265.269 77.3432 265.639 78.4554 266.381 79.1969C267.215 80.0311 268.235 80.5872 269.347 80.9579C270.644 81.4214 272.127 81.8848 273.888 82.2555C276.113 82.8117 278.152 83.4605 280.006 84.1093C281.767 84.7581 283.528 85.5923 285.011 86.7045C286.401 87.724 287.606 89.1143 288.348 90.69C289.182 92.5437 289.645 94.5828 289.552 96.6219C289.645 99.4025 288.811 102.183 287.328 104.5C285.66 106.817 283.435 108.486 280.747 109.505C277.689 110.803 274.167 111.359 270.644 111.266ZM294.465 63.9036H326.349V72.2454H304.382V82.3482H323.846V90.69H304.382V102.09H327.554V110.432H294.372L294.465 63.9036ZM342.662 93.3779V110.247H332.744V63.9036H349.706C355.823 63.9036 360.458 65.2012 363.794 67.7038C367.038 70.299 368.707 73.9138 368.707 78.6408C368.799 81.4214 368.058 84.1093 366.575 86.5191C364.999 88.7436 362.867 90.5046 360.365 91.5242C362.311 94.5828 364.258 97.6415 366.112 100.793C368.058 103.851 369.912 107.096 371.858 110.34H360.365C357.214 104.593 354.062 99.0318 350.726 93.4706L342.662 93.3779ZM342.662 85.5923H349.15C352.209 85.5923 354.526 85.0361 356.194 83.9239C357.862 82.719 358.789 80.7726 358.604 78.7335C358.789 76.6944 357.862 74.7479 356.194 73.4503C354.618 72.3381 352.301 71.782 349.243 71.782H342.662V85.5923ZM415.791 63.9036C413.011 71.6893 410.138 79.3823 407.172 87.1679C404.206 94.9536 401.147 102.647 398.088 110.34H387.337C384.278 102.647 381.219 94.9536 378.253 87.1679C375.287 79.3823 372.414 71.6893 369.634 63.9036H380.571C382.517 69.9282 384.556 75.9529 386.595 81.9775C388.634 88.0021 390.673 94.0267 392.805 100.051C394.937 94.0267 396.976 88.0021 399.015 81.9775C401.054 75.9529 403.093 69.9282 405.04 63.9036H415.791ZM419.962 63.9036H429.972V110.34H419.962V63.9036ZM458.798 111.266C455.461 111.359 452.032 110.71 448.88 109.598C446.1 108.578 443.505 106.91 441.373 104.871C439.241 102.739 437.665 100.144 436.739 97.2707C435.626 94.0267 435.07 90.5973 435.07 87.0752C434.978 83.6458 435.626 80.3091 436.739 77.1578C438.87 71.3185 443.412 66.7769 449.251 64.6451C452.403 63.4402 455.832 62.8841 459.169 62.9768C461.579 62.9768 463.988 63.2548 466.398 63.8109C468.623 64.3671 470.755 65.1085 472.701 66.2208V75.3041C470.94 74.0991 468.993 73.1723 466.954 72.5235C464.823 71.8747 462.598 71.5966 460.374 71.5966C457.593 71.5039 454.812 72.1527 452.31 73.4503C450.085 74.6553 448.324 76.509 447.212 78.7335C445.915 81.3287 445.358 84.202 445.451 87.0752C445.358 89.9485 445.915 92.8218 447.212 95.5097C448.324 97.7342 449.993 99.5879 452.217 100.793C454.627 102.09 457.408 102.739 460.188 102.647C464.823 102.647 469.457 101.349 473.35 98.8464V107.837C471.311 108.949 469.086 109.876 466.769 110.432C464.174 110.988 461.486 111.266 458.798 111.266ZM478.818 63.9036H510.702V72.2454H488.736V82.3482H508.2V90.69H488.736V102.09H511.907V110.432H478.726V63.9036H478.818Z" fill="white"/>
</g>
<defs>
<clipPath id="clip0_5_30">
<rect width="512" height="111.038" fill="white" transform="translate(0 0.228027)"/>
</clipPath>
</defs>
</svg>
