<svg width="512" height="512" viewBox="0 0 512 512" fill="none" xmlns="http://www.w3.org/2000/svg">
<g clip-path="url(#clip0_2_145)">
<path d="M512 256C512 306.632 496.986 356.127 468.856 398.226C440.727 440.325 400.745 473.137 353.967 492.513C307.189 511.889 255.716 516.959 206.057 507.081C156.398 497.203 110.783 472.822 74.9808 437.019C39.1785 401.217 14.7969 355.602 4.91908 305.943C-4.95873 256.284 0.110921 204.811 19.487 158.033C38.863 111.255 71.6752 71.2734 113.774 43.1438C155.873 15.0141 205.368 0 256 0C323.896 0 389.01 26.9714 437.019 74.9807C485.029 122.99 512 188.105 512 256Z" fill="#542582"/>
<path d="M128.913 274.99C129.042 279.918 127.569 284.754 124.715 288.773C121.652 292.816 117.501 295.902 112.748 297.67C106.781 299.896 100.443 300.96 94.0766 300.803H57.3577V211.205H91.9433C102.134 211.205 110.029 213.189 115.628 217.156C118.361 219.064 120.565 221.634 122.033 224.626C123.502 227.618 124.187 230.933 124.025 234.262C124.121 238.173 123.076 242.028 121.016 245.354C118.829 248.642 115.74 251.23 112.119 252.809C117.042 254.22 121.401 257.134 124.588 261.142C127.535 265.146 129.057 270.021 128.911 274.99H128.913ZM76.0303 248.047H90.1905C95.0352 248.047 98.7318 247.024 101.28 244.977C102.547 243.947 103.554 242.633 104.218 241.141C104.882 239.65 105.185 238.023 105.103 236.392C105.103 229.292 100.132 225.742 90.1905 225.741H76.032L76.0303 248.047ZM76.0303 286.268H92.3204C97.9172 286.268 102.22 285.244 105.228 283.196C106.681 282.24 107.861 280.924 108.652 279.375C109.443 277.827 109.818 276.099 109.74 274.362C109.74 266.176 104.017 262.083 92.5713 262.083H76.032L76.0303 286.268ZM140.44 211.205H202.095V227.244H159.739V246.668H197.332V262.709H159.739V284.762H204.476V300.803H140.442L140.44 211.205ZM237.181 268.221V300.802H218.134V211.205H250.841C262.62 211.205 271.663 213.67 277.97 218.598C284.277 223.528 287.431 230.588 287.432 239.776C287.593 245.139 286.129 250.424 283.233 254.94C280.268 259.252 276.109 262.605 271.266 264.588C275.025 270.52 278.743 276.473 282.419 282.445C286.094 288.419 289.77 294.539 293.446 300.803H271.266C265.251 289.776 259.027 278.916 252.595 268.223H237.181V268.221ZM237.181 253.059H249.713C255.643 253.059 260.154 251.994 263.247 249.865C266.336 247.733 267.881 244.371 267.882 239.776C267.882 235.183 266.357 231.799 263.308 229.625C260.259 227.454 255.768 226.369 249.837 226.369H237.181V253.059ZM328.407 262.207H323.772V300.803H304.473V211.205H323.772V245.917H328.784C334.128 239.902 339.245 234.074 344.134 228.436C349.021 222.797 353.845 217.053 358.607 211.205H381.79C375.776 218.307 369.677 225.345 363.494 232.32C357.312 239.297 351.004 246.336 344.573 253.437C351.422 261.205 358.21 268.995 364.937 276.806C371.661 284.618 378.448 292.617 385.299 300.802H360.738C355.475 294.287 350.211 287.896 344.948 281.631C339.686 275.365 334.172 268.89 328.407 262.207ZM421.639 302.682C416.727 302.684 411.831 302.137 407.04 301.053C402.217 299.962 397.56 298.234 393.192 295.916V278.624C401.729 283.939 411.582 286.76 421.639 286.768C427.319 286.768 431.642 285.807 434.608 283.885C435.996 283.065 437.14 281.89 437.922 280.48C438.703 279.07 439.095 277.477 439.055 275.866C439.119 274.757 438.958 273.647 438.581 272.603C438.204 271.558 437.619 270.601 436.862 269.788C435.201 268.206 433.212 267.008 431.036 266.279C428.364 265.327 425.646 264.511 422.892 263.835C418.455 262.819 414.1 261.478 409.859 259.825C406.446 258.517 403.238 256.723 400.336 254.5C397.813 252.539 395.793 250.004 394.445 247.107C393.032 243.847 392.348 240.319 392.439 236.768C392.303 231.548 393.816 226.417 396.764 222.107C399.851 217.853 404.09 214.571 408.98 212.646C414.963 210.301 421.354 209.172 427.778 209.326C432.504 209.322 437.214 209.869 441.813 210.954C446.104 211.933 450.268 213.405 454.221 215.34V232.383C450.338 230.04 446.138 228.267 441.75 227.12C437.196 225.878 432.498 225.245 427.778 225.239C423.663 225.006 419.565 225.918 415.937 227.872C414.622 228.628 413.537 229.726 412.797 231.05C412.058 232.374 411.692 233.874 411.738 235.39C411.686 236.406 411.836 237.423 412.18 238.381C412.525 239.338 413.056 240.218 413.744 240.968C415.36 242.516 417.31 243.673 419.444 244.35C421.907 245.226 424.811 246.083 428.155 246.919C432.415 248.005 436.383 249.196 440.059 250.491C443.513 251.674 446.783 253.34 449.77 255.44C452.54 257.412 454.779 260.039 456.288 263.086C457.934 266.656 458.728 270.559 458.605 274.488C458.758 279.895 457.226 285.215 454.219 289.712C451.056 294.117 446.648 297.477 441.562 299.361C435.192 301.723 428.431 302.851 421.639 302.682Z" fill="white"/>
</g>
<defs>
<clipPath id="clip0_2_145">
<rect width="512" height="512" fill="white"/>
</clipPath>
</defs>
</svg>
