<svg width="512" height="512" viewBox="0 0 512 512" fill="none" xmlns="http://www.w3.org/2000/svg">
<g clip-path="url(#clip0_2_148)">
<path d="M256 512C397.385 512 512 397.385 512 256C512 114.615 397.385 0 256 0C114.615 0 0 114.615 0 256C0 397.385 114.615 512 256 512Z" fill="#542582"/>
<path d="M111.445 260.096C108.885 257.024 105.472 254.635 101.717 253.611C104.619 252.416 107.008 250.368 108.715 247.808C110.251 245.248 111.104 242.176 111.104 239.104C111.445 233.813 108.885 228.864 104.619 225.792C100.181 222.72 94.0374 221.184 86.1868 221.184H59.2214V291.157H87.8934C92.8428 291.328 97.7921 290.475 102.4 288.768C106.155 287.403 109.397 285.013 111.787 281.771C114.005 278.699 115.2 274.944 115.029 271.019C115.029 266.923 113.835 263.168 111.445 260.096ZM73.5574 232.448H84.6508C92.3308 232.448 96.2561 235.179 96.2561 240.811C96.4268 243.371 95.2321 245.931 93.3548 247.467C90.7948 249.173 87.7228 250.027 84.6508 249.856H73.5574V232.448ZM73.5574 260.779H86.5281C95.4028 260.779 99.8401 264.021 100.011 270.336C100.181 273.067 98.8161 275.797 96.4268 277.163C93.3548 278.869 89.9414 279.723 86.3574 279.552H73.7281V260.779H73.5574ZM149.163 265.557H150.699C155.648 273.92 160.597 282.453 165.205 290.987H182.443C179.541 286.037 176.64 281.259 173.909 276.651C171.008 272.043 168.107 267.264 165.205 262.656C168.96 261.12 172.203 258.56 174.592 255.147C176.811 251.563 178.005 247.467 177.835 243.371C177.835 236.203 175.445 230.741 170.496 226.816C165.547 222.891 158.549 221.013 149.333 221.013H123.733V290.987H138.581V265.557H149.163ZM138.581 232.789H148.48C152.235 232.619 155.819 233.472 159.061 235.349C161.451 237.227 162.816 240.128 162.645 243.2C162.816 246.272 161.451 249.173 159.061 251.051C155.819 252.928 152.235 253.781 148.48 253.611H138.752V232.789H138.581ZM190.464 290.987H205.483V221.013H190.464V290.987ZM255.147 289.792C259.072 288.256 262.485 285.696 265.045 282.283C267.435 278.699 268.629 274.603 268.459 270.336C268.629 267.264 267.947 264.192 266.581 261.461C265.387 259.072 263.68 257.024 261.461 255.488C259.072 253.781 256.512 252.587 253.952 251.563C251.051 250.539 247.979 249.685 244.736 248.832C242.176 248.149 239.787 247.467 237.909 246.784C236.203 246.272 234.667 245.419 233.472 244.224C232.448 243.029 231.765 241.493 231.936 239.787C231.936 237.397 233.131 235.179 235.179 233.984C238.08 232.448 241.152 231.765 244.395 231.936C248.149 231.936 251.733 232.448 255.317 233.472C258.731 234.325 261.973 235.691 265.045 237.568V224.256C261.973 222.72 258.731 221.525 255.317 220.843C251.733 219.989 247.979 219.648 244.395 219.648C239.445 219.477 234.325 220.331 229.717 222.208C225.963 223.744 222.549 226.304 220.16 229.547C217.941 232.96 216.747 236.885 216.747 240.981C216.747 243.712 217.259 246.443 218.283 249.003C219.307 251.221 220.843 253.269 222.891 254.805C225.109 256.512 227.669 257.877 230.4 258.901C233.643 260.267 237.056 261.291 240.64 261.973C242.859 262.485 244.907 263.168 246.955 263.851C248.661 264.363 250.197 265.387 251.563 266.581C252.757 267.947 253.44 269.653 253.269 271.36C253.269 273.92 252.075 276.309 249.856 277.675C246.784 279.381 243.2 280.064 239.787 279.893C231.936 279.893 224.256 277.675 217.6 273.579V287.061C221.013 288.939 224.597 290.304 228.352 291.157C232.107 292.011 235.861 292.352 239.787 292.352C244.907 292.523 250.197 291.669 255.147 289.792ZM273.067 234.155H295.083V290.987H310.101V234.155H332.117V221.013H273.067V234.155ZM354.304 222.037C350.208 223.573 346.453 226.133 343.381 229.376C340.309 232.619 337.92 236.544 336.384 240.811C333.141 250.539 333.141 261.12 336.384 271.019C337.92 275.285 340.309 279.211 343.381 282.624C346.453 285.867 350.208 288.427 354.304 289.963C363.52 293.376 373.76 293.376 382.976 289.963C387.072 288.427 390.827 285.867 393.899 282.624C396.971 279.381 399.36 275.456 400.896 271.019C404.139 261.291 404.139 250.709 400.896 240.811C399.36 236.544 396.971 232.619 393.899 229.376C390.827 226.133 387.072 223.744 382.976 222.037C373.589 218.795 363.52 218.795 354.304 222.037ZM358.229 276.48C355.328 274.603 352.939 271.701 351.744 268.459C348.672 260.267 348.672 251.392 351.744 243.2C353.109 239.957 355.328 237.227 358.229 235.349C364.544 231.765 372.395 231.765 378.709 235.349C381.611 237.227 384 239.957 385.195 243.2C388.267 251.392 388.267 260.267 385.195 268.459C383.829 271.701 381.611 274.432 378.709 276.48C372.565 280.235 364.715 280.235 358.229 276.48ZM413.525 290.987H461.824V277.845H428.715V221.013H413.696V290.987H413.525Z" fill="white"/>
</g>
<defs>
<clipPath id="clip0_2_148">
<rect width="512" height="512" fill="white"/>
</clipPath>
</defs>
</svg>
