<svg width="512" height="512" viewBox="0 0 512 512" fill="none" xmlns="http://www.w3.org/2000/svg">
<g clip-path="url(#clip0_3_17)">
<path d="M256 512C397.385 512 512 397.385 512 256C512 114.615 397.385 0 256 0C114.615 0 0 114.615 0 256C0 397.385 114.615 512 256 512Z" fill="#542582"/>
<path d="M84.1898 302.647C77.7855 302.742 71.4166 301.68 65.3892 299.513C60.0685 297.585 55.242 294.501 51.258 290.481C47.2944 286.369 44.2752 281.442 42.4106 276.043C40.2818 269.859 39.2424 263.352 39.3386 256.812C39.2459 250.383 40.3286 243.991 42.5335 237.95C44.5189 232.525 47.664 227.597 51.7494 223.512C55.8348 219.426 60.7622 216.281 66.1879 214.296C72.2285 212.092 78.6206 211.009 85.05 211.101C89.6614 211.076 94.2598 211.592 98.7511 212.637C102.921 213.612 106.947 215.12 110.732 217.122V234.571C107.376 232.28 103.687 230.518 99.7956 229.349C95.7687 228.148 91.5868 227.548 87.3847 227.567C82.0773 227.412 76.8161 228.595 72.0862 231.008C67.9104 233.257 64.523 236.73 62.3786 240.961C59.9934 245.896 58.8342 251.334 58.9994 256.812C58.8426 262.297 59.9571 267.743 62.2558 272.725C64.2912 276.966 67.5987 280.467 71.7175 282.74C76.3587 285.154 81.5411 286.339 86.7703 286.181C95.6119 286.231 104.278 283.712 111.715 278.931V296.011C107.777 298.19 103.56 299.823 99.1812 300.865C94.2759 302.07 89.2411 302.669 84.1898 302.647ZM187.409 300.803C185.277 294.333 183.146 287.984 181.018 281.757H145.382C143.251 288.066 141.121 294.415 138.993 300.803H118.716C124.286 285.404 129.959 270.371 135.735 255.706C141.51 241.044 147.347 226.79 153.245 212.944H173.643C179.705 227.527 185.624 242.17 191.399 256.874C197.175 271.58 202.766 286.223 208.172 300.803H187.409ZM150.789 266.028H175.488C173.522 260.294 171.494 254.58 169.405 248.887C167.316 243.193 165.248 237.602 163.2 232.113C158.939 243.339 154.802 254.644 150.789 266.028ZM256.712 284.46C253.105 277.251 249.582 270.022 246.144 262.772C242.703 255.522 239.304 248.293 235.945 241.084V300.803H217.882V212.944H240.614C244.463 221.957 248.396 230.947 252.411 239.916C256.424 248.888 260.52 257.756 264.699 266.52C268.795 257.754 272.85 248.928 276.864 240.039C280.877 231.152 284.768 222.12 288.538 212.944H310.656V300.803H292.591V240.838C289.231 248.211 285.811 255.522 282.33 262.772C278.848 270.022 275.346 277.251 271.824 284.46H256.712ZM398.024 275.49C398.15 280.322 396.706 285.065 393.907 289.007C390.904 292.971 386.833 295.998 382.172 297.731C376.321 299.915 370.106 300.957 363.863 300.803H327.859V212.944H361.774C371.767 212.944 379.509 214.89 384.998 218.781C387.678 220.652 389.838 223.172 391.278 226.106C392.718 229.039 393.39 232.29 393.231 235.554C393.326 239.389 392.302 243.168 390.282 246.429C388.137 249.654 385.108 252.192 381.558 253.74C386.385 255.124 390.66 257.981 393.784 261.912C396.674 265.837 398.167 270.618 398.024 275.49ZM346.168 249.071H360.054C364.804 249.071 368.429 248.067 370.929 246.06C372.171 245.05 373.157 243.762 373.808 242.299C374.459 240.837 374.757 239.242 374.676 237.643C374.676 230.68 369.802 227.198 360.054 227.198H346.168V249.071ZM346.168 286.549H362.143C367.63 286.549 371.849 285.546 374.799 283.539C376.224 282.602 377.381 281.311 378.157 279.792C378.932 278.273 379.3 276.579 379.223 274.876C379.223 266.849 373.612 262.835 362.388 262.833H346.168V286.549ZM436.608 302.647C431.792 302.648 426.99 302.112 422.292 301.049C417.563 299.979 412.997 298.284 408.714 296.011V279.054C417.085 284.266 426.747 287.033 436.608 287.041C442.177 287.041 446.417 286.099 449.326 284.215C450.687 283.41 451.809 282.258 452.576 280.875C453.343 279.493 453.727 277.931 453.688 276.35C453.751 275.263 453.593 274.175 453.223 273.15C452.854 272.126 452.28 271.187 451.538 270.391C449.909 268.838 447.958 267.664 445.824 266.95C443.204 266.017 440.538 265.217 437.837 264.554C433.487 263.557 429.215 262.243 425.057 260.622C421.71 259.338 418.564 257.58 415.718 255.399C413.244 253.476 411.264 250.991 409.943 248.149C408.558 244.953 407.887 241.494 407.977 238.012C407.842 232.893 409.326 227.862 412.216 223.635C415.244 219.463 419.401 216.245 424.197 214.357C430.064 212.057 436.33 210.95 442.629 211.101C447.263 211.098 451.882 211.634 456.392 212.698C460.599 213.659 464.681 215.102 468.557 216.999V233.711C464.75 231.414 460.632 229.675 456.33 228.55C451.865 227.332 447.258 226.712 442.629 226.707C438.594 226.478 434.575 227.371 431.017 229.287C429.727 230.028 428.663 231.105 427.938 232.404C427.213 233.702 426.854 235.173 426.9 236.66C426.849 237.656 426.996 238.653 427.334 239.592C427.672 240.53 428.192 241.393 428.867 242.128C430.452 243.647 432.365 244.782 434.458 245.446C436.873 246.306 439.72 247.146 442.998 247.965C447.176 249.031 451.067 250.198 454.671 251.467C458.059 252.627 461.265 254.261 464.195 256.321C466.909 258.255 469.104 260.83 470.584 263.817C472.199 267.317 472.977 271.145 472.858 274.999C473.008 280.301 471.505 285.519 468.557 289.929C465.454 294.248 461.133 297.543 456.146 299.39C449.899 301.706 443.268 302.811 436.608 302.647Z" fill="white"/>
</g>
<defs>
<clipPath id="clip0_3_17">
<rect width="512" height="512" fill="white"/>
</clipPath>
</defs>
</svg>
