<svg width="512" height="512" viewBox="0 0 512 512" fill="none" xmlns="http://www.w3.org/2000/svg">
<g clip-path="url(#clip0_2_153)">
<path d="M256 0C397.312 0 512 114.688 512 256C512 397.312 397.312 512 256 512C114.688 512 0 397.312 0 256C0 114.688 114.688 0 256 0Z" fill="#542582"/>
<path d="M81.0668 282.965C83.7974 282.283 86.3574 281.259 88.7468 280.064V269.653C84.1388 272.555 78.8481 274.091 73.3868 274.091C70.1441 274.261 67.0721 273.408 64.1708 272.043C61.6108 270.677 59.5628 268.459 58.3681 265.899C57.0028 262.827 56.3201 259.584 56.3201 256.171C56.1494 252.757 57.0028 249.515 58.3681 246.443C59.7334 243.883 61.7814 241.664 64.3414 240.299C67.2428 238.763 70.4854 238.08 73.7281 238.251C76.2881 238.251 78.8481 238.592 81.4081 239.275C83.7974 239.957 86.0161 241.152 88.0641 242.517V231.765C85.6748 230.571 83.2854 229.547 80.7254 229.035C77.9948 228.352 75.0934 228.011 72.3628 228.011C68.4374 228.011 64.5121 228.693 60.7574 229.888C54.1014 232.277 48.6401 237.739 46.2508 244.395C44.8854 248.149 44.2028 252.075 44.3734 256C44.3734 259.925 44.8854 264.021 46.2508 267.776C47.4454 271.019 49.3228 274.091 51.7121 276.651C54.1014 279.04 57.1734 281.088 60.4161 282.112C64.1708 283.477 68.0961 284.16 72.0214 283.989C74.9228 283.989 77.9948 283.648 81.0668 282.965ZM108.715 229.888C105.472 231.083 102.571 232.96 100.352 235.52C97.9628 238.08 96.0854 240.981 94.8908 244.395C92.3308 251.904 92.3308 260.096 94.8908 267.605C96.0854 270.848 97.9628 273.92 100.352 276.48C102.741 279.04 105.643 280.917 108.715 282.112C115.883 284.672 123.733 284.672 130.731 282.112C133.973 280.917 136.875 278.869 139.093 276.48C141.483 273.92 143.36 270.848 144.555 267.605C147.115 260.096 147.115 251.904 144.555 244.395C143.36 241.152 141.483 238.08 139.093 235.52C136.704 233.131 133.803 231.083 130.731 229.888C123.563 227.328 115.712 227.328 108.715 229.888ZM111.787 271.872C109.568 270.336 107.691 268.288 106.667 265.728C104.277 259.413 104.277 252.587 106.667 246.272C107.691 243.712 109.397 241.664 111.787 240.128C116.736 237.397 122.709 237.397 127.659 240.128C129.877 241.664 131.755 243.712 132.779 246.272C135.168 252.587 135.168 259.413 132.779 265.728C131.755 268.288 130.048 270.336 127.659 271.872C122.709 274.603 116.565 274.603 111.787 271.872ZM173.227 263.339H174.421C178.347 269.824 182.101 276.309 185.685 282.965H198.997C196.779 279.211 194.56 275.456 192.341 271.872L185.685 261.12C188.587 259.925 191.147 257.877 192.853 255.317C194.56 252.587 195.413 249.344 195.413 246.272C195.755 241.323 193.536 236.544 189.781 233.472C186.027 230.571 180.565 229.035 173.397 229.035H153.6V282.965H165.035V263.339H173.227ZM165.035 238.251H172.715C175.616 238.08 178.347 238.763 180.736 240.128C182.613 241.493 183.637 243.883 183.467 246.272C183.637 248.661 182.613 250.88 180.736 252.416C178.347 253.781 175.445 254.464 172.544 254.293H165.035V238.251ZM250.88 282.965V229.035H239.787V265.899C235.861 259.584 231.936 253.44 228.011 247.296C224.085 241.152 219.989 235.179 216.064 229.035H204.288V282.965H215.381V245.76C219.307 251.733 223.232 257.877 227.328 264.021C231.424 270.336 235.349 276.651 239.275 282.965H250.88ZM315.051 282.965C317.611 274.261 320 265.216 322.389 256.341C324.779 247.296 326.997 238.251 329.045 229.205H316.587C315.392 236.032 314.027 242.859 312.661 249.685C311.296 256.512 309.76 263.168 308.224 269.824C306.517 263.509 304.981 257.024 303.445 250.709C301.909 244.224 300.373 237.909 298.837 231.424H287.573C284.501 244.565 281.429 257.536 278.016 270.677C276.48 264.021 274.944 257.024 273.579 250.197C272.213 243.2 270.848 236.203 269.653 229.205H257.024C259.072 238.421 261.291 247.467 263.68 256.341C266.069 265.387 268.459 274.261 271.019 282.965H283.307C285.013 276.821 286.72 270.848 288.256 264.704C289.792 258.56 291.499 252.587 292.864 246.443C294.4 252.587 295.936 258.56 297.643 264.704C299.349 270.848 300.885 276.821 302.592 282.965H315.051ZM380.245 282.965C377.003 274.091 373.419 265.045 370.005 256C366.421 246.955 362.837 238.08 359.083 229.035H346.624C343.04 237.568 339.456 246.272 335.872 255.317C332.288 264.363 328.875 273.579 325.461 282.965H337.92C339.285 279.04 340.48 275.115 341.845 271.36H363.52C364.885 275.115 366.08 279.04 367.445 282.965H380.245ZM352.597 240.811C353.792 244.224 355.157 247.637 356.352 251.051C357.717 254.464 358.912 258.048 360.107 261.632H344.917C347.477 254.635 350.037 247.637 352.597 240.811ZM386.56 282.965H423.765V272.896H398.165V229.205H386.56V282.965ZM430.592 282.965H467.627V272.896H442.027V229.205H430.421L430.592 282.965Z" fill="white"/>
</g>
<defs>
<clipPath id="clip0_2_153">
<rect width="512" height="512" fill="white"/>
</clipPath>
</defs>
</svg>
