<svg width="512" height="512" viewBox="0 0 512 512" fill="none" xmlns="http://www.w3.org/2000/svg">
<g clip-path="url(#clip0_2_159)">
<path d="M256 0C397.312 0 512 114.688 512 256C512 397.312 397.312 512 256 512C114.688 512 0 397.312 0 256C0 114.688 114.688 0 256 0Z" fill="#542582"/>
<path d="M93.0134 287.915C96.2561 287.232 99.3281 286.037 102.059 284.331V271.872C96.5974 275.285 90.4534 277.163 83.9681 277.163C80.2134 277.333 76.4588 276.48 73.0454 274.603C69.9734 272.896 67.5841 270.336 66.2188 267.264C64.5121 263.68 63.6588 259.755 63.8294 255.659C63.6588 251.733 64.5121 247.808 66.2188 244.224C67.7548 241.152 70.3148 238.592 73.2161 237.056C76.6294 235.349 80.3841 234.496 84.3094 234.496C87.3814 234.496 90.4534 234.837 93.3548 235.861C96.2561 236.715 98.8161 237.909 101.205 239.616V226.987C98.4748 225.451 95.5734 224.427 92.5014 223.744C89.2588 223.061 85.8454 222.549 82.6028 222.549C77.9948 222.549 73.3868 223.232 68.9494 224.939C60.9281 227.84 54.7841 234.155 51.7121 242.176C50.1761 246.613 49.3228 251.221 49.3228 255.829C49.3228 260.608 50.0054 265.216 51.5414 269.824C52.9068 273.749 55.1254 277.333 58.0268 280.235C60.9281 283.136 64.3414 285.355 68.2668 286.72C72.7041 288.256 77.3121 289.109 81.9201 288.939C85.6748 289.28 89.4294 288.768 93.0134 287.915ZM152.917 285.867C157.013 283.819 160.256 280.405 162.304 276.48C164.523 271.872 165.717 266.752 165.547 261.632V224.085H151.893V263.168C152.235 266.923 150.869 270.677 148.309 273.579C142.507 278.357 134.144 278.357 128.171 273.579C125.611 270.677 124.416 266.923 124.587 263.168V224.085H110.933V261.632C110.763 266.752 111.957 271.872 114.176 276.48C116.224 280.576 119.467 283.819 123.563 285.867C132.949 290.304 143.701 290.304 152.917 285.867ZM216.405 275.968C218.965 270.677 221.525 265.557 224.085 260.267C226.645 254.976 229.035 249.685 231.595 244.395V287.915H244.736V224.256H228.693C225.963 230.912 223.061 237.397 220.16 243.883C217.259 250.368 214.357 256.683 211.285 263.168C208.213 256.853 205.312 250.368 202.411 243.883C199.509 237.397 196.608 230.912 193.877 224.256H177.323V287.915H190.464V244.565C192.853 249.856 195.413 254.976 197.803 260.267C200.363 265.557 202.923 270.848 205.483 275.968H216.405ZM303.957 259.584C301.739 256.683 298.667 254.635 295.083 253.611C297.643 252.416 299.861 250.709 301.397 248.32C302.933 245.931 303.616 243.2 303.616 240.469C303.787 235.691 301.568 231.083 297.643 228.352C293.717 225.451 288.085 224.085 280.747 224.085H256.171V287.744H282.283C286.891 287.915 291.328 287.061 295.595 285.525C299.008 284.331 301.909 282.112 304.128 279.211C306.176 276.309 307.2 272.896 307.029 269.483C307.2 265.899 306.005 262.485 303.957 259.584ZM269.483 234.496H279.552C286.549 234.496 290.133 237.056 290.133 242.005C290.304 244.395 289.28 246.613 287.403 248.149C285.013 249.685 282.283 250.539 279.552 250.368H269.483V234.496ZM269.483 260.267H281.259C289.451 260.267 293.547 263.168 293.547 268.971C293.717 271.531 292.523 273.92 290.304 275.285C287.573 276.821 284.331 277.675 281.088 277.504H269.483V260.267ZM338.944 264.704H340.309C344.917 272.384 349.355 280.064 353.621 287.915H369.323C366.763 283.477 364.032 279.04 361.472 274.773C358.912 270.507 356.181 266.24 353.621 262.144C357.035 260.779 360.107 258.389 362.155 255.317C364.203 252.075 365.227 248.32 365.227 244.565C365.227 238.08 363.008 232.96 358.571 229.547C354.133 225.963 347.648 224.256 339.285 224.256H315.733V287.915H329.216V264.704H338.944ZM329.387 234.837H338.432C341.845 234.667 345.088 235.349 347.989 237.227C350.208 238.933 351.403 241.664 351.232 244.395C351.403 247.125 350.208 249.856 347.989 251.563C345.088 253.269 341.675 254.123 338.432 253.781H329.387V234.837ZM376.661 287.915H390.315V224.256H376.661V287.915ZM462.507 287.915C458.581 277.333 454.485 266.752 450.389 256C446.123 245.419 441.856 234.667 437.589 224.085H422.741C418.475 234.155 414.208 244.395 410.112 255.147C405.845 265.728 401.749 276.651 397.824 287.915H412.501L417.109 274.091H442.88C444.416 278.528 445.952 283.136 447.488 287.915H462.507ZM429.909 238.08C431.445 242.005 432.811 246.101 434.347 250.197C435.883 254.293 437.419 258.389 438.784 262.656H420.864C423.765 254.464 426.837 246.101 429.909 238.08Z" fill="white"/>
</g>
<defs>
<clipPath id="clip0_2_159">
<rect width="512" height="512" fill="white"/>
</clipPath>
</defs>
</svg>
