<svg width="512" height="512" viewBox="0 0 512 512" fill="none" xmlns="http://www.w3.org/2000/svg">
<g clip-path="url(#clip0_3_20)">
<path d="M256 0C397.312 0 512 114.688 512 256C512 397.312 397.312 512 256 512C114.688 512 0 397.312 0 256C0 114.688 114.688 0 256 0Z" fill="#542582"/>
<path d="M181.76 296.96C185.856 295.936 189.781 294.4 193.365 292.523V276.48C186.538 280.917 178.346 283.307 170.154 283.136C165.376 283.307 160.426 282.112 156.16 279.893C152.405 277.845 149.333 274.603 147.285 270.507C145.066 265.899 144.042 260.779 144.213 255.659C144.042 250.539 145.066 245.589 147.285 240.981C149.333 237.056 152.405 233.813 156.33 231.765C160.768 229.547 165.546 228.352 170.496 228.523C174.421 228.523 178.346 229.035 182.101 230.229C185.685 231.253 189.098 232.96 192.341 235.008V218.795C188.757 216.917 185.002 215.552 181.248 214.699C177.152 213.675 172.885 213.333 168.448 213.333C162.474 213.333 156.501 214.187 150.869 216.235C140.629 219.989 132.608 228.011 128.853 238.251C126.805 243.883 125.781 249.856 125.952 255.829C125.781 261.973 126.805 267.947 128.853 273.749C130.56 278.699 133.461 283.307 137.045 287.232C140.8 290.987 145.237 293.888 150.186 295.595C155.818 297.643 161.621 298.667 167.594 298.496C172.544 298.496 177.152 297.984 181.76 296.96ZM287.402 296.789C291.328 283.477 295.082 269.995 298.666 256.341C302.25 242.688 305.664 229.035 308.906 215.04H290.133C288.256 225.451 286.378 235.691 284.16 246.101C282.112 256.512 279.893 266.581 277.504 276.651C274.944 266.923 272.554 257.365 270.165 247.637C267.776 237.909 265.386 228.181 263.168 218.453H246.101C241.493 238.251 236.714 258.048 231.594 278.016C229.205 267.776 226.986 257.365 224.938 246.784C222.89 236.203 220.842 225.621 218.965 215.04H199.85C203.093 228.864 206.506 242.688 210.09 256.341C213.674 269.995 217.429 283.477 221.354 296.789H239.957C242.517 287.573 245.077 278.357 247.466 269.141C249.856 259.925 252.245 250.709 254.464 241.493L261.632 269.141C264.021 278.357 266.581 287.573 269.141 296.789H287.402ZM346.965 267.093H348.672C354.474 276.821 360.277 286.72 365.738 296.789H385.877C382.464 291.157 379.221 285.525 375.808 280.064C372.394 274.603 369.152 269.141 365.568 263.851C370.005 261.973 373.76 259.072 376.49 254.976C379.05 250.88 380.416 246.101 380.245 241.152C380.245 232.789 377.344 226.304 371.541 221.867C365.738 217.429 357.546 215.211 346.794 215.211H316.928V296.789H334.506V267.093H346.965ZM334.506 229.035H346.112C351.573 229.035 355.669 230.059 358.4 231.936C361.301 234.155 362.837 237.568 362.496 241.152C362.837 244.736 361.13 248.149 358.229 250.368C355.328 252.245 351.232 253.269 345.941 253.269H334.506V229.035Z" fill="white"/>
</g>
<defs>
<clipPath id="clip0_3_20">
<rect width="512" height="512" fill="white"/>
</clipPath>
</defs>
</svg>
