<svg width="512" height="512" viewBox="0 0 512 512" fill="none" xmlns="http://www.w3.org/2000/svg">
<g clip-path="url(#clip0_2_163)">
<path d="M256 0C397.312 0 512 114.688 512 256C512 397.312 397.312 512 256 512C114.688 512 0 397.312 0 256C0 114.688 114.688 0 256 0Z" fill="#542582"/>
<path d="M71.5093 296.96H102.571C110.251 297.131 117.931 295.595 124.757 292.011C130.731 288.939 135.68 283.989 138.752 277.845C145.237 263.851 145.237 247.637 138.752 233.643C135.68 227.669 130.731 222.72 124.757 219.648C117.931 216.235 110.251 214.699 102.571 214.869H71.3386L71.5093 296.96ZM89.2586 281.771V230.059H101.888C109.568 230.059 115.541 232.277 119.467 236.715C123.392 241.152 125.44 247.467 125.44 255.829C125.44 264.192 123.392 270.677 119.296 275.115C115.2 279.552 109.397 281.771 101.717 281.771H89.2586ZM154.795 296.96H213.333V282.283H172.373V262.144H206.677V247.467H172.373V229.717H211.115V215.04H154.795V296.96ZM254.805 267.093H256.512C262.315 276.821 268.117 286.72 273.579 296.789H293.888C290.475 290.987 287.232 285.525 283.819 280.064L273.579 263.68C278.016 261.803 281.771 258.731 284.501 254.805C287.232 250.709 288.427 245.931 288.256 240.981C288.256 232.619 285.355 226.133 279.552 221.696C273.749 217.259 265.557 214.869 254.805 214.869H224.939V296.789H242.347V267.093H254.805ZM242.517 228.864H254.123C259.584 228.864 263.68 229.888 266.411 231.765C269.312 233.984 270.848 237.397 270.507 240.981C270.848 244.565 269.141 248.149 266.24 250.197C263.339 252.075 259.243 253.099 253.952 253.099H242.517V228.864ZM365.227 260.779C362.325 257.195 358.4 254.464 353.792 253.099C357.035 251.733 359.936 249.344 361.984 246.272C363.861 243.2 364.885 239.787 364.715 236.203C365.056 230.059 362.155 224.085 357.035 220.501C351.915 216.917 344.747 215.04 335.36 215.04H303.787V296.96H337.408C343.211 297.131 349.013 296.107 354.475 294.059C358.741 292.523 362.667 289.621 365.397 285.867C367.957 282.112 369.323 277.845 369.152 273.237C369.323 268.8 367.957 264.363 365.227 260.779ZM320.853 228.352H333.824C342.869 228.352 347.477 231.595 347.477 238.08C347.648 241.152 346.283 244.053 344.064 245.931C341.163 247.979 337.579 249.003 333.995 248.661H320.853V228.352ZM320.853 261.632H336.043C346.453 261.632 351.744 265.387 351.744 272.896C351.915 276.139 350.379 279.211 347.648 280.917C344.917 282.795 340.992 283.648 335.872 283.648H320.853V261.632ZM432.64 240.64C437.76 232.107 442.709 223.573 447.829 215.04H428.203C424.96 221.013 421.717 227.157 418.475 233.131C415.232 239.104 411.819 245.077 408.405 251.051C404.992 245.248 401.749 239.275 398.336 233.131C395.093 227.157 391.851 221.013 388.608 215.04H368.64C373.589 223.573 378.539 232.107 383.659 240.64C388.779 249.173 394.069 257.536 399.36 265.899V296.96H416.939V265.899C422.229 257.536 427.52 249.003 432.64 240.64Z" fill="white"/>
</g>
<defs>
<clipPath id="clip0_2_163">
<rect width="512" height="512" fill="white"/>
</clipPath>
</defs>
</svg>
