<svg width="512" height="512" viewBox="0 0 512 512" fill="none" xmlns="http://www.w3.org/2000/svg">
<g clip-path="url(#clip0_2_166)">
<path d="M256 0C397.312 0 512 114.688 512 256C512 397.312 397.312 512 256 512C114.688 512 0 397.312 0 256C0 114.688 114.688 0 256 0Z" fill="#542582"/>
<path d="M61.0986 296.96H92.16C99.84 297.131 107.52 295.595 114.347 292.181C120.32 289.109 125.269 284.16 128.341 278.187C134.827 264.192 134.827 247.979 128.341 233.984C125.269 228.011 120.32 223.232 114.347 220.16C107.52 216.747 99.84 215.211 92.16 215.381H60.928L61.0986 296.96ZM78.6773 281.771V230.229H91.3066C98.9866 230.229 104.789 232.448 108.885 236.885C112.811 241.323 114.859 247.637 114.859 256C114.859 264.363 112.811 270.848 108.715 275.285C104.619 279.723 98.816 281.941 91.136 281.941L78.6773 281.771ZM142.848 296.96H201.387V282.283H160.427V262.144H194.731V247.467H160.427V229.717H199.168V215.04H142.848V296.96ZM269.141 215.04C265.557 225.792 262.144 236.373 258.56 246.955C254.976 257.536 251.392 268.117 247.637 278.699C243.883 268.117 240.299 257.536 236.715 246.955C233.131 236.373 229.547 225.792 226.133 215.04H206.507C211.456 228.693 216.576 242.347 221.867 256C227.157 269.653 232.448 283.307 237.909 296.789H256.853C262.315 283.136 267.605 269.653 272.896 256C278.187 242.347 283.136 228.693 288.256 215.04H269.141ZM312.661 216.405C307.883 218.283 303.445 221.184 299.861 224.939C296.277 228.864 293.376 233.301 291.669 238.251C287.915 249.685 287.915 262.144 291.669 273.579C293.376 278.528 296.277 283.136 299.861 287.061C303.445 290.816 307.883 293.717 312.661 295.595C323.466 299.52 335.307 299.52 346.112 295.595C350.891 293.717 355.328 290.816 358.912 287.061C362.496 283.136 365.397 278.528 367.104 273.579C370.859 262.144 370.859 249.685 367.104 238.251C365.397 233.301 362.496 228.693 358.912 224.939C355.328 221.184 350.891 218.283 346.112 216.405C335.36 212.309 323.413 212.309 312.661 216.405ZM317.269 280.064C313.856 277.845 311.125 274.603 309.589 270.677C306.005 261.12 306.005 250.709 309.589 241.152C311.125 237.397 313.856 234.155 317.269 231.936C324.779 227.669 333.824 227.669 341.333 231.936C344.747 234.155 347.477 237.397 349.013 241.152C352.597 250.709 352.597 261.12 349.013 270.677C347.477 274.432 344.747 277.675 341.333 280.064C333.995 284.331 324.779 284.331 317.269 280.064ZM450.901 296.96V215.04H434.005V271.019C428.032 261.461 422.059 252.075 416.085 242.859C410.112 233.643 403.968 224.256 397.824 215.04H379.904V296.96H396.8V240.469C402.773 249.515 408.747 258.731 414.891 268.288C421.035 277.845 427.008 287.403 432.981 296.96H450.901Z" fill="white"/>
</g>
<defs>
<clipPath id="clip0_2_166">
<rect width="512" height="512" fill="white"/>
</clipPath>
</defs>
</svg>
