<svg width="512" height="512" viewBox="0 0 512 512" fill="none" xmlns="http://www.w3.org/2000/svg">
<g clip-path="url(#clip0_2_169)">
<path d="M256 0C397.312 0 512 114.688 512 256C512 397.312 397.312 512 256 512C114.688 512 0 397.312 0 256C0 114.688 114.688 0 256 0Z" fill="#542582"/>
<path d="M87.04 296.789H145.408V282.112H104.619V261.973H138.923V247.467H104.619V229.717H143.189V215.04H87.04V296.789ZM198.827 295.595C203.435 293.888 207.531 290.816 210.432 286.72C213.163 282.624 214.528 277.845 214.357 272.896C214.528 269.312 213.675 265.728 212.309 262.485C210.944 259.755 208.896 257.365 206.336 255.488C203.605 253.611 200.704 252.075 197.461 251.051C194.048 249.856 190.464 248.832 186.539 247.808C183.467 247.125 180.907 246.272 178.517 245.419C176.64 244.736 174.763 243.712 173.397 242.347C172.203 240.981 171.52 239.104 171.52 237.227C171.349 234.325 172.885 231.765 175.275 230.4C178.517 228.693 182.272 227.84 186.027 228.011C190.293 228.011 194.56 228.523 198.827 229.717C202.752 230.741 206.677 232.448 210.261 234.496V218.965C206.677 217.259 202.923 215.893 198.997 215.04C194.731 214.016 190.464 213.504 186.197 213.504C180.395 213.333 174.592 214.357 169.131 216.576C164.693 218.283 160.768 221.355 158.037 225.28C155.307 229.205 153.941 233.813 154.112 238.592C154.112 241.835 154.624 245.077 155.989 247.979C157.184 250.539 159.061 252.928 161.28 254.635C164.011 256.683 166.912 258.219 169.984 259.413C173.909 260.949 177.835 262.144 181.931 262.997C184.491 263.68 186.88 264.363 189.44 265.216C191.488 265.899 193.195 266.923 194.731 268.459C196.096 269.995 196.779 271.872 196.779 273.92C196.779 276.992 195.243 279.723 192.683 281.259C189.952 282.965 186.027 283.819 180.907 283.819C171.691 283.819 162.816 281.259 154.965 276.309V292.011C158.891 294.059 163.157 295.765 167.595 296.619C172.032 297.643 176.469 298.155 180.907 298.155C186.88 298.667 193.024 297.643 198.827 295.595ZM268.459 295.595C273.067 293.888 277.163 290.816 280.064 286.72C282.795 282.624 284.16 277.845 283.989 272.896C284.16 269.312 283.307 265.728 281.941 262.485C280.576 259.755 278.528 257.365 275.968 255.488C273.237 253.611 270.336 252.075 267.093 251.051C263.68 249.856 260.096 248.832 256.171 247.808C253.099 247.125 250.539 246.272 248.149 245.419C246.272 244.736 244.395 243.712 243.029 242.347C241.835 240.981 241.152 239.104 241.152 237.227C240.981 234.325 242.517 231.765 244.907 230.4C248.149 228.693 251.904 227.84 255.659 228.011C259.925 228.011 264.192 228.523 268.459 229.717C272.384 230.741 276.309 232.448 279.893 234.496V218.965C276.309 217.259 272.555 215.893 268.629 215.04C264.363 214.016 260.096 213.504 255.829 213.504C250.027 213.333 244.224 214.357 238.763 216.576C234.325 218.283 230.4 221.355 227.669 225.28C224.939 229.205 223.573 233.813 223.744 238.592C223.744 241.835 224.256 245.077 225.621 247.979C226.816 250.539 228.693 252.928 230.912 254.635C233.472 256.683 236.544 258.219 239.616 259.413C243.541 260.949 247.467 262.144 251.563 262.997C254.123 263.68 256.512 264.363 259.072 265.216C261.12 265.899 262.827 266.923 264.363 268.459C265.728 269.995 266.411 271.872 266.411 273.92C266.411 276.992 264.875 279.723 262.315 281.259C259.584 282.965 255.659 283.819 250.539 283.819C241.323 283.819 232.448 281.259 224.597 276.309V292.011C228.523 294.059 232.789 295.765 237.227 296.619C241.664 297.643 246.101 298.155 250.539 298.155C256.512 298.667 262.656 297.643 268.459 295.595ZM294.059 296.789H352.427V282.112H311.637V261.973H345.941V247.467H311.637V229.717H350.208V215.04H294.059V296.789ZM435.029 296.789C430.592 289.621 425.984 282.453 421.205 275.456C416.427 268.459 411.648 261.291 406.869 254.293C411.307 247.808 415.744 241.323 420.011 234.837C424.277 228.352 428.544 221.696 432.811 215.211H412.331C409.771 219.819 407.211 224.256 404.48 228.693C401.749 233.131 399.189 237.568 396.288 241.835C393.387 237.568 390.827 233.131 388.096 228.693C385.536 224.256 382.976 219.819 380.416 215.211H359.595C363.691 221.696 367.957 228.352 372.224 235.008C376.491 241.664 381.099 248.149 385.536 254.635C380.587 261.632 375.637 268.8 371.029 275.797C366.421 282.795 361.813 289.792 357.205 296.96H377.685C380.416 292.011 383.317 286.891 386.389 281.941C389.461 276.992 392.533 271.872 395.947 266.923C399.189 271.872 402.261 276.821 405.333 281.941C408.405 286.891 411.307 292.011 414.208 297.131L435.029 296.789Z" fill="white"/>
</g>
<defs>
<clipPath id="clip0_2_169">
<rect width="512" height="512" fill="white"/>
</clipPath>
</defs>
</svg>
