<svg width="512" height="512" viewBox="0 0 512 512" fill="none" xmlns="http://www.w3.org/2000/svg">
<g clip-path="url(#clip0_2_178)">
<path d="M256 512C397.385 512 512 397.385 512 256C512 114.615 397.385 0 256 0C114.615 0 0 114.615 0 256C0 397.385 114.615 512 256 512Z" fill="#542582"/>
<path d="M170.08 295.663C166.995 297.265 163.764 298.565 160.43 299.546C156.74 300.653 152.97 301.47 149.152 301.989C145.249 302.53 141.313 302.802 137.373 302.804C130.698 302.903 124.058 301.822 117.76 299.609C112.205 297.672 107.157 294.51 102.992 290.356C98.8267 286.202 95.6506 281.163 93.6994 275.613C91.4834 269.337 90.4016 262.718 90.5045 256.063C90.409 249.495 91.5567 242.969 93.8871 236.827C96.0136 231.25 99.3291 226.203 103.603 222.037C107.877 217.871 113.008 214.686 118.637 212.703C124.971 210.457 131.654 209.355 138.373 209.447C143.614 209.428 148.842 209.954 153.974 211.014C158.715 211.982 163.322 213.518 167.695 215.588V233.38C163.775 231.009 159.534 229.216 155.102 228.055C150.294 226.812 145.344 226.201 140.378 226.237C134.784 226.069 129.234 227.274 124.213 229.746C119.866 232.005 116.321 235.55 114.063 239.898C111.59 244.918 110.385 250.469 110.554 256.063C110.554 265.755 112.977 273.211 117.821 278.431C122.666 283.653 129.6 286.264 138.624 286.264C140.889 286.264 143.151 286.096 145.391 285.762C147.64 285.431 149.86 284.929 152.032 284.259V266.213H135.992V251.051H170.078L170.08 295.663ZM185.617 211.326H204.914V284.133H247.395V300.924H185.617V211.326ZM299.65 209.447C305.92 209.357 312.151 210.463 318.008 212.703C323.308 214.762 328.097 217.947 332.044 222.039C336.023 226.246 339.076 231.242 341.004 236.703C345.18 249.25 345.18 262.813 341.004 275.36C339.078 280.859 336.026 285.896 332.044 290.149C328.112 294.273 323.32 297.482 318.008 299.546C306.155 303.891 293.144 303.891 281.291 299.546C275.98 297.482 271.188 294.274 267.257 290.149C263.275 285.896 260.223 280.859 258.297 275.36C254.121 262.813 254.121 249.25 258.297 236.703C260.225 231.242 263.277 226.247 267.257 222.041C271.203 217.949 275.992 214.763 281.291 212.705C287.148 210.463 293.379 209.358 299.65 209.447ZM299.65 286.012C304.291 286.138 308.867 284.896 312.808 282.441C316.569 279.958 319.495 276.399 321.205 272.229C325.048 261.794 325.048 250.332 321.205 239.898C319.505 235.738 316.575 232.196 312.808 229.746C308.804 227.447 304.267 226.237 299.65 226.237C295.032 226.237 290.496 227.447 286.491 229.746C282.724 232.195 279.795 235.737 278.096 239.898C274.254 250.332 274.254 261.794 278.096 272.229C279.804 276.4 282.731 279.959 286.493 282.441C290.434 284.897 295.008 286.138 299.65 286.012ZM384.736 302.805C379.824 302.806 374.927 302.259 370.137 301.174C365.314 300.083 360.657 298.355 356.289 296.037V278.745C364.826 284.06 374.679 286.881 384.736 286.889C390.415 286.889 394.738 285.928 397.705 284.006C399.093 283.187 400.237 282.011 401.019 280.601C401.801 279.191 402.193 277.598 402.154 275.987C402.217 274.878 402.056 273.768 401.679 272.724C401.302 271.679 400.718 270.722 399.961 269.909C398.299 268.326 396.309 267.129 394.132 266.4C391.461 265.448 388.743 264.633 385.988 263.956C381.552 262.94 377.196 261.599 372.956 259.946C369.542 258.638 366.335 256.844 363.433 254.621C360.909 252.66 358.89 250.125 357.542 247.228C356.129 243.968 355.444 240.44 355.536 236.889C355.399 231.669 356.913 226.538 359.861 222.228C362.948 217.974 367.188 214.691 372.079 212.767C378.061 210.422 384.451 209.294 390.874 209.447C395.6 209.443 400.311 209.99 404.91 211.075C409.201 212.054 413.365 213.526 417.318 215.461V232.504C413.434 230.161 409.235 228.388 404.847 227.241C400.293 225.999 395.595 225.366 390.874 225.36C386.76 225.127 382.662 226.039 379.034 227.994C377.719 228.749 376.633 229.847 375.894 231.171C375.154 232.495 374.789 233.996 374.835 235.511C374.783 236.528 374.933 237.544 375.277 238.502C375.621 239.459 376.153 240.339 376.841 241.089C378.457 242.637 380.407 243.794 382.541 244.471C385.005 245.347 387.909 246.204 391.252 247.04C395.511 248.126 399.479 249.317 403.156 250.612C406.61 251.795 409.88 253.461 412.867 255.561C415.636 257.533 417.875 260.159 419.384 263.205C421.031 266.775 421.825 270.68 421.702 274.609C421.855 280.016 420.322 285.337 417.316 289.833C414.152 294.238 409.745 297.598 404.659 299.482C398.289 301.845 391.527 302.972 384.736 302.804V302.805Z" fill="white"/>
</g>
<defs>
<clipPath id="clip0_2_178">
<rect width="512" height="512" fill="white"/>
</clipPath>
</defs>
</svg>
