<svg width="512" height="512" viewBox="0 0 512 512" fill="none" xmlns="http://www.w3.org/2000/svg">
<g clip-path="url(#clip0_2_175)">
<path d="M256 512C397.385 512 512 397.385 512 256C512 114.615 397.385 0 256 0C114.615 0 0 114.615 0 256C0 397.385 114.615 512 256 512Z" fill="#542582"/>
<path d="M96.256 252.757H74.9227V262.315H84.992V273.579L80.896 274.603C79.5307 274.773 77.9947 274.944 76.6293 274.944C70.9973 274.944 66.7307 273.237 63.6587 269.995C60.5867 266.752 59.0507 262.144 59.0507 256C58.88 252.416 59.7333 249.003 61.2693 245.931C62.6347 243.2 64.8533 240.981 67.584 239.616C70.656 238.08 74.24 237.397 77.6533 237.397C80.7253 237.397 83.7973 237.739 86.8693 238.592C89.6 239.275 92.3307 240.469 94.72 242.005V230.912C91.9893 229.547 89.088 228.693 86.1867 228.011C82.944 227.328 79.7013 226.987 76.4587 226.987C72.192 226.987 68.096 227.669 64.1707 229.035C57.0027 231.595 51.3707 237.056 48.64 244.053C47.104 247.979 46.4213 251.904 46.592 256.171C46.592 260.267 47.2747 264.533 48.64 268.459C51.0293 275.456 56.6613 281.088 63.6587 283.477C67.584 284.843 71.68 285.525 75.9467 285.525C78.336 285.525 80.896 285.355 83.2853 285.013C85.6747 284.672 88.064 284.16 90.2827 283.477C92.3307 282.795 94.3787 282.112 96.256 281.088V252.757ZM141.824 282.283C145.408 280.405 148.309 277.504 150.016 274.091C152.064 269.995 153.088 265.557 152.917 261.12V228.011H140.8V262.485C140.971 265.899 139.947 269.141 137.728 271.701C132.608 275.968 125.269 275.968 120.149 271.701C117.931 269.141 116.907 265.899 117.077 262.485V228.011H104.96V261.12C104.789 265.557 105.813 270.165 107.861 274.091C109.739 277.675 112.64 280.576 116.053 282.283C124.245 286.208 133.632 286.208 141.824 282.283ZM162.987 283.989H203.093V273.92H175.104V260.096H198.656V250.027H175.104V237.909H201.557V227.84H162.987V283.989ZM230.571 263.68H231.765C235.861 270.336 239.616 277.163 243.371 283.989H257.195C254.976 280.064 252.587 276.309 250.368 272.555C248.149 268.8 245.76 265.045 243.371 261.461C246.443 260.267 249.003 258.048 250.88 255.488C252.757 252.587 253.611 249.344 253.44 245.931C253.781 240.811 251.563 235.861 247.467 232.619C243.541 229.547 237.909 228.011 230.571 228.011H210.091V283.989H222.037V263.68H230.571ZM222.037 237.397H229.888C232.789 237.227 235.861 237.909 238.251 239.445C240.299 240.981 241.323 243.371 241.152 245.76C241.323 248.149 240.299 250.539 238.251 252.075C235.691 253.611 232.789 254.293 229.717 254.123H221.867V237.397H222.037ZM311.637 283.989V228.011H300.032V266.24C295.936 259.755 291.84 253.269 287.744 246.955C283.648 240.64 279.552 234.325 275.285 228.011H262.997V283.989H274.603V245.248C278.699 251.392 282.795 257.707 287.061 264.363C291.157 270.848 295.424 277.504 299.52 283.989H311.637ZM349.867 283.136C353.109 281.941 355.84 279.893 357.717 277.163C359.595 274.432 360.619 271.019 360.448 267.605C360.448 265.216 360.107 262.656 359.083 260.437C358.059 258.56 356.693 256.853 354.987 255.659C353.109 254.293 351.061 253.269 348.843 252.587C346.624 251.733 344.064 251.051 341.333 250.368C339.285 249.856 337.408 249.344 335.872 248.832C334.507 248.491 333.312 247.637 332.288 246.784C331.435 245.76 330.923 244.565 331.093 243.371C331.093 241.493 332.117 239.616 333.653 238.592C335.872 237.397 338.432 236.885 340.992 236.885C343.893 236.885 346.965 237.227 349.696 238.08C352.427 238.763 354.987 239.957 357.547 241.323V230.741C355.157 229.547 352.427 228.693 349.867 228.011C346.965 227.328 344.064 226.987 341.163 226.987C337.067 226.816 333.141 227.669 329.387 229.035C326.315 230.229 323.755 232.277 321.707 235.008C319.829 237.739 318.976 240.981 318.976 244.224C318.976 246.443 319.317 248.661 320.171 250.709C321.024 252.587 322.219 254.123 323.925 255.317C325.803 256.683 327.68 257.877 329.899 258.731C332.629 259.755 335.36 260.608 338.091 261.291C339.797 261.632 341.504 262.144 343.211 262.827C344.576 263.339 345.771 264.021 346.795 265.045C347.819 266.069 348.331 267.435 348.16 268.8C348.16 270.848 347.136 272.725 345.429 273.749C342.869 275.115 340.139 275.797 337.237 275.627C330.923 275.627 324.779 273.92 319.488 270.507V281.259C322.219 282.624 325.12 283.819 328.192 284.501C331.264 285.184 334.336 285.525 337.408 285.525C341.675 285.355 345.771 284.672 349.867 283.136ZM367.957 283.989H408.064V273.92H380.075V260.096H403.627V250.027H380.075V237.909H406.528V227.84H367.957V283.989ZM455.168 245.419C458.752 239.616 462.165 233.813 465.579 228.011H452.096L445.44 240.299C443.221 244.395 440.832 248.491 438.613 252.587C436.395 248.491 434.005 244.565 431.787 240.299C429.568 236.203 427.349 232.107 425.131 227.84H411.477L421.717 245.248C425.301 251.051 428.715 256.853 432.469 262.656V283.819H444.587V262.827C448 257.024 451.584 251.221 455.168 245.419Z" fill="white"/>
</g>
<defs>
<clipPath id="clip0_2_175">
<rect width="512" height="512" fill="white"/>
</clipPath>
</defs>
</svg>
