<svg width="512" height="512" viewBox="0 0 512 512" fill="none" xmlns="http://www.w3.org/2000/svg">
<g clip-path="url(#clip0_2_181)">
<path d="M256 512C397.385 512 512 397.385 512 256C512 114.615 397.385 0 256 0C114.615 0 0 114.615 0 256C0 397.385 114.615 512 256 512Z" fill="#542582"/>
<path d="M76.9705 246.443V225.963H56.1492V246.443H45.9092V198.656H56.1492V216.917H76.9705V198.656H87.2105V246.443H76.9705ZM97.2799 198.827H130.048V207.36H107.52V217.771H127.488V226.304H107.52V238.08H131.413V246.613H97.2799V198.827ZM148.821 229.205V246.613H138.752V198.827H156.16C162.475 198.827 167.253 200.192 170.667 202.752C174.08 205.483 175.957 209.749 175.787 214.016C176.128 219.819 172.544 225.109 167.253 227.157C169.301 230.4 171.179 233.472 173.227 236.715C175.104 239.957 177.152 243.2 179.029 246.443H167.253C164.011 240.64 160.768 234.837 157.355 229.035L148.821 229.205ZM148.821 221.013H155.477C158.037 221.184 160.427 220.501 162.645 219.307C164.352 218.112 165.205 216.064 165.035 214.016C165.205 211.968 164.352 209.92 162.645 208.555C160.427 207.189 158.037 206.677 155.477 206.848H148.821V221.013ZM184.661 198.827H217.429V207.36H194.901V217.771H215.04V226.304H195.072V238.08H218.965V246.613H184.832L184.661 198.827ZM226.133 198.827H257.877V207.36H236.373V219.136H255.317V227.669H236.373V246.613H226.133V198.827ZM286.549 197.803C289.963 197.803 293.205 198.315 296.277 199.509C299.179 200.533 301.568 202.24 303.787 204.459C305.835 206.677 307.541 209.408 308.565 212.309C310.784 218.965 310.784 226.133 308.565 232.96C307.541 235.861 305.835 238.592 303.787 240.811C301.739 243.029 299.179 244.736 296.277 245.76C289.963 248.149 282.965 248.149 276.651 245.76C273.749 244.736 271.189 243.029 269.141 240.811C267.093 238.592 265.387 235.861 264.363 232.96C262.144 226.304 262.144 219.136 264.363 212.309C265.387 209.408 267.093 206.677 269.141 204.459C271.189 202.24 273.749 200.533 276.651 199.509C279.893 198.315 283.136 197.803 286.549 197.803ZM286.549 238.592C288.939 238.592 291.499 238.08 293.547 236.715C295.595 235.349 297.131 233.472 297.984 231.253C300.032 225.621 300.032 219.648 297.984 214.016C297.131 211.797 295.595 209.92 293.547 208.555C289.28 205.995 283.819 205.995 279.552 208.555C277.504 209.92 275.968 211.797 275.115 214.016C273.067 219.648 273.067 225.621 275.115 231.253C275.968 233.472 277.504 235.349 279.552 236.715C281.6 237.909 283.989 238.592 286.549 238.592ZM328.533 229.205V246.613H318.464V198.827H335.872C342.187 198.827 346.965 200.192 350.379 202.752C353.792 205.483 355.669 209.749 355.499 214.016C355.84 219.819 352.256 225.109 346.965 227.157C349.013 230.4 350.891 233.472 352.939 236.715C354.816 239.957 356.864 243.2 358.741 246.443H346.965C343.723 240.64 340.48 234.837 337.067 229.035L328.533 229.205ZM328.533 221.013H335.189C337.749 221.184 340.139 220.501 342.357 219.307C344.064 218.112 344.917 216.064 344.747 214.016C344.917 211.968 344.064 209.92 342.357 208.555C340.139 207.189 337.749 206.677 335.189 206.848H328.533V221.013ZM364.373 198.827H382.635C387.072 198.656 391.509 199.68 395.605 201.557C399.189 203.264 401.92 206.165 403.797 209.749C407.552 217.941 407.552 227.328 403.797 235.52C401.92 239.104 399.189 241.835 395.605 243.712C391.509 245.76 387.072 246.613 382.635 246.613H364.544L364.373 198.827ZM381.952 237.739C385.707 237.909 389.461 236.544 392.192 233.813C394.581 231.253 395.776 227.499 395.776 222.549C395.776 217.771 394.581 214.016 392.192 211.456C389.461 208.725 385.707 207.36 381.952 207.701H374.613V237.739H381.952ZM461.483 246.443C460.459 245.589 459.605 244.736 458.752 243.712C456.875 244.907 454.656 245.76 452.437 246.272C450.048 246.955 447.488 247.125 445.099 247.125C441.856 247.125 438.784 246.613 435.712 245.589C433.323 244.736 431.104 243.029 429.568 240.981C428.032 238.933 427.349 236.373 427.349 233.813C427.349 231.253 428.203 228.864 429.739 226.816C431.787 224.427 434.176 222.379 437.077 221.013C436.053 219.819 435.2 218.453 434.347 217.088C433.664 215.893 433.152 214.699 432.811 213.504C432.469 212.309 432.299 211.115 432.299 209.749C432.128 205.312 434.859 201.045 438.955 199.168C441.173 198.144 443.733 197.632 446.123 197.632C448.512 197.632 450.901 198.144 452.949 198.997C454.827 199.851 456.363 201.216 457.557 202.923C458.581 204.629 459.264 206.677 459.264 208.896C459.264 211.456 458.411 214.016 456.704 215.893C454.485 218.453 451.755 220.501 448.683 221.867C450.048 223.403 451.584 224.939 453.291 226.645L458.581 231.936C460.288 228.693 461.141 224.939 460.971 221.355H469.675C469.675 224.427 469.163 227.499 468.139 230.4C467.285 232.96 466.091 235.52 464.384 237.739C465.749 239.104 467.115 240.299 468.48 241.664C469.845 243.029 471.381 244.395 472.917 245.931H461.483V246.443ZM437.419 233.131C437.248 235.008 438.101 236.885 439.637 238.08C441.515 239.275 443.733 239.957 445.952 239.787C448.341 239.787 450.731 239.275 452.949 238.251C450.389 235.691 448.171 233.472 446.464 231.595C444.587 229.717 443.051 227.84 441.515 226.304C440.149 226.987 439.125 228.011 438.272 229.205C437.76 230.4 437.419 231.765 437.419 233.131ZM441.003 210.091C441.003 210.773 441.003 211.627 441.344 212.309C441.515 213.163 441.856 213.845 442.368 214.528C443.051 215.552 443.733 216.576 444.587 217.429C446.464 216.576 448 215.552 449.365 214.187C450.389 212.992 450.901 211.627 450.901 210.091C450.901 208.725 450.56 207.36 449.536 206.507C448.683 205.653 447.317 205.141 445.952 205.141C444.587 205.141 443.221 205.653 442.368 206.507C441.515 207.36 441.003 208.725 441.003 210.091ZM89.7705 313.173C88.2345 307.712 86.6985 302.421 85.3332 296.96C83.9678 291.499 82.4318 286.208 81.0665 280.747C79.7012 286.208 78.3358 291.499 76.9705 296.96C75.6052 302.421 74.0692 307.712 72.5332 313.173H61.6105C59.3918 305.323 57.1732 297.472 55.1252 289.621C53.0772 281.6 51.0292 273.579 49.1518 265.557H60.4158C61.6105 271.701 62.6345 277.845 63.9998 284.16C65.1945 290.304 66.5598 296.448 67.9252 302.421C70.8265 290.816 73.7278 279.211 76.4585 267.605H86.5279C87.8932 273.237 89.2585 279.04 90.6238 284.672C91.9892 290.304 93.5252 295.936 94.8905 301.739C96.2558 295.936 97.4505 289.963 98.8158 283.819C100.011 277.845 101.205 271.701 102.229 265.728H113.323C111.445 273.749 109.397 281.771 107.349 289.792C105.301 297.813 103.083 305.664 100.864 313.344H89.7705V313.173ZM140.117 264.533C143.531 264.533 146.773 265.045 149.845 266.24C152.747 267.264 155.136 268.971 157.355 271.189C159.403 273.408 161.109 276.139 162.133 279.04C164.352 285.696 164.352 292.864 162.133 299.691C161.109 302.592 159.403 305.323 157.355 307.541C155.307 309.76 152.747 311.467 149.845 312.491C143.531 314.88 136.533 314.88 130.219 312.491C127.317 311.467 124.757 309.76 122.709 307.541C120.661 305.323 118.955 302.592 117.931 299.691C115.712 293.035 115.712 285.867 117.931 279.04C118.955 276.139 120.661 273.408 122.709 271.189C124.757 268.971 127.317 267.264 130.219 266.24C133.461 265.045 136.875 264.533 140.117 264.533ZM140.117 305.323C142.507 305.323 145.067 304.811 147.115 303.445C149.163 302.08 150.699 300.203 151.552 297.984C153.6 292.352 153.6 286.379 151.552 280.747C150.699 278.528 149.163 276.651 147.115 275.285C142.848 272.725 137.387 272.725 133.12 275.285C131.072 276.651 129.536 278.528 128.683 280.747C126.635 286.379 126.635 292.352 128.683 297.984C129.536 300.203 131.072 302.08 133.12 303.445C135.339 304.64 137.728 305.323 140.117 305.323ZM182.101 295.936V313.344H172.032V265.557H189.44C195.755 265.557 200.533 266.923 203.947 269.483C207.36 272.213 209.237 276.48 209.067 280.747C209.408 286.549 205.824 291.84 200.533 293.888C202.581 297.131 204.459 300.203 206.507 303.445C208.384 306.688 210.432 309.931 212.309 313.173H200.533C197.291 307.371 194.048 301.568 190.635 295.765L182.101 295.936ZM182.101 287.744H188.757C191.317 287.915 193.707 287.232 195.925 286.037C197.632 284.843 198.485 282.795 198.315 280.747C198.485 278.699 197.632 276.651 195.925 275.285C193.707 273.92 191.317 273.408 188.757 273.579H182.101V287.744ZM240.299 314.197C236.885 314.197 233.301 313.685 230.059 312.491C227.157 311.467 224.597 309.76 222.379 307.541C220.16 305.323 218.624 302.592 217.6 299.691C216.405 296.277 215.893 292.864 215.893 289.28C215.893 285.867 216.405 282.283 217.6 279.04C219.819 273.067 224.427 268.459 230.4 266.24C233.643 265.045 237.227 264.533 240.64 264.533C243.2 264.533 245.589 264.875 248.149 265.387C250.368 265.899 252.587 266.752 254.635 267.776V277.333C252.757 276.139 250.88 275.115 248.661 274.432C246.443 273.749 244.224 273.408 242.005 273.408C239.104 273.408 236.202 273.92 233.643 275.285C231.424 276.48 229.547 278.357 228.352 280.747C226.987 283.477 226.475 286.379 226.475 289.28C226.304 292.181 226.987 295.253 228.181 297.984C229.205 300.203 231.083 302.251 233.301 303.445C235.861 304.811 238.592 305.323 241.493 305.323C246.272 305.323 251.051 303.957 254.976 301.397V310.613C252.757 311.808 250.538 312.661 248.149 313.173C245.76 313.856 243.029 314.197 240.299 314.197ZM262.656 265.557H295.424V274.091H272.896V284.501H292.864V293.035H272.896V304.811H296.789V313.344H262.656V265.557ZM317.44 314.197C314.88 314.197 312.149 313.856 309.589 313.344C307.029 312.832 304.469 311.808 302.251 310.613V301.397C306.859 304.299 311.979 305.664 317.44 305.664C319.829 305.835 322.219 305.323 324.267 304.128C325.803 303.275 326.656 301.568 326.656 299.861C326.656 298.667 326.315 297.472 325.461 296.619C324.608 295.765 323.584 295.083 322.389 294.741C321.024 294.229 319.488 293.717 318.123 293.376C315.733 292.864 313.515 292.181 311.125 291.157C309.248 290.475 307.541 289.451 306.005 288.256C304.64 287.232 303.616 285.867 302.933 284.331C302.251 282.624 301.739 280.747 301.909 278.869C301.909 276.139 302.592 273.408 304.128 271.019C305.835 268.8 308.053 266.923 310.613 265.899C313.856 264.704 317.269 264.021 320.683 264.192C323.243 264.192 325.632 264.533 328.192 265.045C330.411 265.557 332.629 266.411 334.848 267.435V276.48C332.8 275.285 330.581 274.261 328.192 273.749C325.803 273.067 323.243 272.725 320.683 272.725C318.464 272.555 316.245 273.067 314.368 274.091C313.003 274.944 312.149 276.48 312.149 278.016C312.149 279.04 312.491 280.235 313.173 280.917C314.027 281.771 315.051 282.283 316.245 282.795C317.611 283.307 319.147 283.648 320.853 284.16C323.072 284.672 325.291 285.355 327.168 286.037C329.045 286.72 330.752 287.573 332.288 288.597C333.824 289.621 335.019 290.987 335.701 292.693C336.555 294.571 337.067 296.619 336.896 298.837C336.896 301.739 336.213 304.469 334.507 307.029C332.8 309.419 330.411 311.125 327.851 312.149C324.779 313.685 321.024 314.368 317.44 314.197ZM339.627 265.557H379.904V274.432H364.885V313.173H354.645V274.432H339.627V265.557ZM386.219 265.557H418.987V274.091H396.459V284.501H416.427V293.035H396.459V304.811H420.352V313.344H386.219V265.557ZM437.589 295.936V313.344H427.52V265.557H444.928C451.243 265.557 456.021 266.923 459.435 269.483C462.848 272.213 464.725 276.48 464.555 280.747C464.896 286.549 461.312 291.84 456.021 293.888C458.069 297.131 459.947 300.203 461.995 303.445C463.872 306.688 465.92 309.931 467.797 313.173H456.021C452.779 307.371 449.536 301.568 446.123 295.765L437.589 295.936ZM437.589 287.744H444.245C446.805 287.915 449.195 287.232 451.413 286.037C453.12 284.843 453.973 282.795 453.803 280.747C453.973 278.699 453.12 276.651 451.413 275.285C449.195 273.92 446.805 273.408 444.245 273.579H437.589V287.744Z" fill="white"/>
</g>
<defs>
<clipPath id="clip0_2_181">
<rect width="512" height="512" fill="white"/>
</clipPath>
</defs>
</svg>
