<svg width="512" height="512" viewBox="0 0 512 512" fill="none" xmlns="http://www.w3.org/2000/svg">
<g clip-path="url(#clip0_2_190)">
<path d="M256 512C397.385 512 512 397.385 512 256C512 114.615 397.385 0 256 0C114.615 0 0 114.615 0 256C0 397.385 114.615 512 256 512Z" fill="#542582"/>
<path d="M98.3825 300.95V264.013H60.9621V300.95H42.4329V214.922H60.9621V247.89H98.3825V214.92H116.912V300.948L98.3825 300.95ZM170.213 302.756C163.354 302.947 156.554 301.438 150.42 298.363C145.011 295.523 140.601 291.093 137.786 285.67C134.706 279.473 133.198 272.614 133.395 265.697V214.92H151.924V267.742C151.924 273.838 153.508 278.51 156.677 281.757C159.845 285.006 164.357 286.631 170.213 286.631C176.067 286.631 180.578 285.006 183.748 281.757C186.916 278.509 188.5 273.836 188.501 267.74V214.919H207.031V265.695C207.226 272.612 205.718 279.471 202.639 285.669C199.812 291.103 195.38 295.534 189.945 298.361C183.828 301.423 177.051 302.934 170.213 302.756ZM262.016 284.948C258.485 277.891 255.036 270.812 251.668 263.712C248.3 256.613 244.971 249.534 241.683 242.476V300.95H223.995V214.922H246.255C250.024 223.747 253.875 232.55 257.806 241.333C261.734 250.116 265.745 258.799 269.838 267.382C273.847 258.799 277.818 250.156 281.75 241.452C285.678 232.749 289.488 223.906 293.18 214.922H314.837V300.95H297.148V242.234C293.857 249.453 290.508 256.613 287.101 263.712C283.691 270.811 280.262 277.89 276.814 284.948H262.016ZM400.384 276.164C400.508 280.896 399.094 285.54 396.353 289.399C393.412 293.281 389.426 296.245 384.862 297.943C379.133 300.08 373.048 301.101 366.935 300.95H331.682V214.922H364.889C374.675 214.922 382.255 216.827 387.63 220.638C390.253 222.47 392.369 224.937 393.779 227.81C395.188 230.682 395.846 233.865 395.691 237.061C395.784 240.816 394.781 244.517 392.805 247.711C390.704 250.868 387.737 253.353 384.261 254.868C388.988 256.224 393.173 259.021 396.233 262.869C399.063 266.713 400.524 271.393 400.384 276.164ZM349.609 250.296H363.206C366.987 250.553 370.743 249.513 373.854 247.349C375.07 246.36 376.036 245.098 376.674 243.666C377.311 242.234 377.602 240.671 377.523 239.106C377.523 232.29 372.75 228.882 363.204 228.879H349.609V250.296ZM349.609 286.993H365.251C370.624 286.993 374.755 286.011 377.643 284.046C379.038 283.128 380.171 281.864 380.931 280.377C381.69 278.89 382.05 277.232 381.976 275.563C381.976 267.704 376.481 263.773 365.491 263.772H349.609V286.993ZM438.164 302.756C433.449 302.757 428.747 302.233 424.148 301.192C419.517 300.143 415.047 298.484 410.853 296.258V279.654C419.049 284.758 428.509 287.467 438.164 287.474C443.619 287.474 447.77 286.552 450.616 284.708C451.949 283.92 453.048 282.792 453.799 281.438C454.549 280.084 454.926 278.555 454.888 277.007C454.95 275.943 454.795 274.877 454.433 273.873C454.072 272.87 453.511 271.951 452.784 271.17C451.188 269.651 449.278 268.5 447.188 267.802C444.622 266.888 442.012 266.106 439.368 265.457C435.108 264.481 430.926 263.194 426.854 261.606C423.576 260.35 420.496 258.628 417.71 256.491C415.287 254.608 413.348 252.174 412.054 249.392C410.698 246.263 410.041 242.876 410.129 239.467C409.997 234.455 411.45 229.528 414.281 225.389C417.246 221.305 421.315 218.154 426.011 216.306C431.755 214.054 437.891 212.969 444.059 213.116C448.597 213.114 453.119 213.639 457.535 214.682C461.655 215.622 465.652 217.035 469.448 218.892V235.255C465.719 233.006 461.688 231.304 457.475 230.202C453.103 229.01 448.593 228.404 444.061 228.398C440.11 228.173 436.174 229.048 432.689 230.924C431.427 231.649 430.385 232.704 429.675 233.976C428.965 235.247 428.614 236.688 428.658 238.143C428.608 239.119 428.752 240.095 429.083 241.014C429.413 241.934 429.923 242.778 430.583 243.499C432.136 244.986 434.009 246.097 436.058 246.746C438.424 247.588 441.211 248.41 444.421 249.212C448.511 250.257 452.321 251.4 455.851 252.643C459.168 253.778 462.307 255.378 465.176 257.394C467.834 259.287 469.984 261.808 471.433 264.733C473.014 268.161 473.776 271.91 473.658 275.683C473.806 280.875 472.335 285.984 469.448 290.302C466.411 294.532 462.179 297.759 457.296 299.568C451.179 301.836 444.686 302.918 438.164 302.756Z" fill="white"/>
</g>
<defs>
<clipPath id="clip0_2_190">
<rect width="512" height="512" fill="white"/>
</clipPath>
</defs>
</svg>
