<svg width="512" height="512" viewBox="0 0 512 512" fill="none" xmlns="http://www.w3.org/2000/svg">
<g clip-path="url(#clip0_2_187)">
<path d="M256 512C397.385 512 512 397.385 512 256C512 114.615 397.385 0 256 0C114.615 0 0 114.615 0 256C0 397.385 114.615 512 256 512Z" fill="#542582"/>
<path d="M95.0613 288.768C99.84 283.819 102.4 276.651 102.4 267.264V217.429H85.8453V266.923C85.8453 276.821 81.0667 281.771 71.5093 281.771C66.3893 281.941 61.44 280.576 57.1733 277.845V292.352C59.5627 293.717 62.1227 294.571 64.8533 295.253C67.9253 295.936 71.168 296.277 74.24 296.277C83.2853 296.277 90.112 293.717 95.0613 288.768ZM116.395 294.571H171.52V280.747H132.949V261.803H165.376V247.979H132.949V231.253H169.472V217.429H116.395V294.571ZM211.115 266.581H212.651C218.112 275.797 223.573 285.184 228.693 294.571H247.808C244.565 289.109 241.493 283.989 238.251 278.699C235.008 273.579 231.936 268.459 228.693 263.339C232.789 261.632 236.373 258.731 238.933 254.976C241.493 251.051 242.688 246.613 242.517 241.835C242.517 233.984 239.787 227.84 234.325 223.573C228.864 219.307 221.184 217.259 210.944 217.259H182.784V294.4H199.168V266.411H211.115C211.285 266.411 211.285 266.581 211.115 266.581ZM199.339 230.4H210.261C215.381 230.4 219.307 231.253 221.867 233.131C224.597 235.179 226.133 238.421 225.792 241.835C226.133 245.248 224.597 248.491 221.867 250.539C219.136 252.416 215.381 253.269 210.261 253.269H199.509L199.339 230.4ZM295.424 293.376C299.861 291.669 303.616 288.939 306.347 285.013C308.907 281.088 310.272 276.48 310.101 271.872C310.272 268.459 309.589 265.045 308.053 261.973C306.688 259.413 304.811 257.024 302.421 255.317C299.861 253.44 296.96 252.075 294.059 251.051C290.816 249.856 287.403 248.832 283.819 247.979C280.917 247.296 278.357 246.443 276.309 245.76C274.432 245.248 272.725 244.224 271.36 242.859C270.165 241.493 269.483 239.787 269.653 238.08C269.653 235.349 271.019 232.96 273.237 231.595C276.309 229.888 279.893 229.205 283.477 229.376C287.573 229.376 291.669 229.888 295.595 230.912C299.349 231.936 302.933 233.472 306.347 235.52V220.843C302.933 219.136 299.349 217.941 295.595 217.088C291.669 216.235 287.573 215.723 283.477 215.723C278.016 215.552 272.384 216.576 267.264 218.624C262.997 220.331 259.413 223.061 256.683 226.816C254.123 230.571 252.757 235.008 252.928 239.445C252.928 242.517 253.44 245.589 254.635 248.32C255.829 250.88 257.536 252.928 259.755 254.635C262.315 256.512 265.045 258.048 267.947 259.243C271.531 260.608 275.285 261.803 279.211 262.656C281.6 263.168 283.989 264.021 286.208 264.704C288.085 265.387 289.792 266.411 291.157 267.776C292.523 269.141 293.205 271.019 293.035 273.067C293.035 275.968 291.669 278.528 289.28 279.893C285.867 281.771 281.941 282.624 278.187 282.453C269.483 282.453 261.12 280.064 253.611 275.456V290.304C257.365 292.352 261.461 293.717 265.557 294.741C269.653 295.595 273.92 296.107 278.187 296.107C284.16 296.277 289.963 295.424 295.424 293.376ZM321.195 294.571H376.32V280.747H337.92V261.803H370.347V247.979H337.92V231.253H374.443V217.429H321.365V294.571H321.195ZM440.661 241.493C445.44 233.472 450.219 225.451 454.827 217.429H436.395C433.323 223.061 430.251 228.864 427.179 234.496C424.107 240.128 420.864 245.76 417.621 251.392C414.379 245.931 411.307 240.299 408.235 234.496C405.163 228.864 402.091 223.061 399.189 217.429H380.245C384.853 225.451 389.632 233.472 394.411 241.493C399.189 249.515 404.139 257.365 409.259 265.387V294.571H425.813V265.387C430.933 257.365 435.883 249.515 440.661 241.493Z" fill="white"/>
</g>
<defs>
<clipPath id="clip0_2_187">
<rect width="512" height="512" fill="white"/>
</clipPath>
</defs>
</svg>
