<svg width="512" height="512" viewBox="0 0 512 512" fill="none" xmlns="http://www.w3.org/2000/svg">
<g clip-path="url(#clip0_2_184)">
<path d="M256 512C397.385 512 512 397.385 512 256C512 114.615 397.385 0 256 0C114.615 0 0 114.615 0 256C0 397.385 114.615 512 256 512Z" fill="#542582"/>
<path d="M142.165 279.381C146.944 285.184 151.723 290.987 156.501 296.96H178.859C172.544 289.451 166.4 282.112 160.256 275.115C154.112 267.947 147.968 260.949 141.653 253.781C147.456 247.296 153.259 240.811 158.891 234.496C164.523 228.181 170.155 221.696 175.616 215.211H154.453C150.187 220.501 145.749 225.792 141.312 230.912C136.875 236.032 132.096 241.323 127.317 246.955H122.88V215.04H105.301V296.96H122.88V261.803H127.147C132.437 267.776 137.387 273.749 142.165 279.381ZM187.563 296.96H246.101V282.283H205.312V262.144H239.616V247.467H205.312V229.717H244.053V215.04H187.733V296.96H187.563ZM328.192 296.96V215.04H311.296V271.019C305.323 261.461 299.349 252.075 293.376 242.859C287.403 233.643 281.259 224.256 275.115 215.04H257.195V296.96H274.091V240.469C280.064 249.515 286.037 258.731 292.181 268.288C298.325 277.845 304.299 287.403 310.272 296.96H328.192ZM337.579 230.4H363.349V296.96H380.928V230.4H406.699V215.04H337.579V230.4Z" fill="white"/>
</g>
<defs>
<clipPath id="clip0_2_184">
<rect width="512" height="512" fill="white"/>
</clipPath>
</defs>
</svg>
