<svg width="512" height="512" viewBox="0 0 512 512" fill="none" xmlns="http://www.w3.org/2000/svg">
<g clip-path="url(#clip0_2_193)">
<path d="M256 512C397.385 512 512 397.385 512 256C512 114.615 397.385 0 256 0C114.615 0 0 114.615 0 256C0 397.385 114.615 512 256 512Z" fill="#542582"/>
<path d="M51.6609 211.466H70.9582V284.273H113.437V301.065H51.6609V211.466ZM192.384 301.065C190.211 294.466 188.039 287.991 185.868 281.641H149.526C147.353 288.076 145.181 294.55 143.01 301.063H122.334C128.015 285.359 133.8 270.03 139.691 255.075C145.58 240.122 151.532 225.586 157.548 211.466H178.347C184.528 226.337 190.564 241.27 196.454 256.266C202.344 271.262 208.046 286.195 213.56 301.065H192.384ZM155.042 265.6H180.228C178.223 259.754 176.155 253.928 174.025 248.12C171.896 242.314 169.786 236.612 167.697 231.015C163.353 242.462 159.136 253.99 155.042 265.6ZM281.105 301.065C274.589 290.622 267.989 280.159 261.306 269.674C254.621 259.19 248.021 249.019 241.507 239.16V301.065H222.959V211.466H242.507C249.274 221.576 255.936 231.705 262.494 241.855C269.051 252.004 275.588 262.301 282.105 272.746V211.466H300.652V301.065H281.105ZM358.17 302.944C351.639 303.041 345.143 301.959 338.997 299.749C333.571 297.783 328.649 294.637 324.586 290.538C320.545 286.344 317.466 281.32 315.564 275.815C313.394 269.508 312.333 262.872 312.431 256.203C312.337 249.646 313.442 243.127 315.691 236.967C317.715 231.434 320.923 226.409 325.089 222.243C329.255 218.076 334.28 214.869 339.813 212.844C345.973 210.597 352.491 209.493 359.047 209.587C363.75 209.561 368.439 210.087 373.019 211.152C377.272 212.146 381.379 213.684 385.239 215.726V233.52C381.816 231.183 378.054 229.387 374.084 228.195C369.978 226.97 365.713 226.358 361.428 226.378C356.015 226.219 350.65 227.426 345.827 229.886C341.569 232.18 338.115 235.722 335.928 240.036C333.496 245.069 332.313 250.615 332.481 256.203C332.321 261.796 333.458 267.35 335.802 272.43C337.878 276.756 341.251 280.326 345.452 282.643C350.184 285.105 355.469 286.313 360.801 286.152C369.818 286.203 378.656 283.634 386.241 278.759V296.177C382.224 298.399 377.924 300.064 373.458 301.126C368.456 302.356 363.321 302.966 358.17 302.944ZM427.341 302.944C422.429 302.945 417.533 302.398 412.742 301.314C407.919 300.223 403.263 298.495 398.896 296.177V278.887C407.432 284.202 417.285 287.023 427.341 287.031C433.021 287.031 437.344 286.07 440.312 284.148C441.699 283.328 442.843 282.153 443.625 280.743C444.407 279.333 444.799 277.74 444.759 276.129C444.823 275.02 444.661 273.91 444.284 272.865C443.907 271.821 443.323 270.864 442.566 270.051C440.905 268.469 438.915 267.271 436.74 266.542C434.068 265.59 431.35 264.774 428.595 264.098C424.158 263.082 419.802 261.741 415.561 260.088C412.148 258.78 408.94 256.986 406.038 254.763C403.515 252.801 401.496 250.267 400.149 247.369C398.736 244.11 398.051 240.582 398.143 237.03C398.006 231.811 399.519 226.68 402.466 222.37C405.554 218.116 409.794 214.833 414.686 212.908C420.668 210.564 427.058 209.435 433.481 209.589C438.207 209.585 442.918 210.131 447.517 211.217C451.808 212.196 455.971 213.668 459.923 215.603V232.646C456.04 230.303 451.841 228.53 447.454 227.383C442.9 226.141 438.202 225.508 433.481 225.502C429.366 225.269 425.267 226.181 421.639 228.135C420.324 228.891 419.239 229.989 418.499 231.313C417.76 232.637 417.394 234.137 417.441 235.653C417.388 236.669 417.538 237.686 417.883 238.643C418.227 239.601 418.758 240.481 419.446 241.231C421.063 242.779 423.014 243.936 425.148 244.613C427.611 245.489 430.514 246.345 433.857 247.182C438.118 248.268 442.086 249.459 445.763 250.754C449.217 251.937 452.487 253.603 455.474 255.703C458.243 257.675 460.481 260.301 461.99 263.347C463.637 266.917 464.431 270.821 464.309 274.751C464.462 280.158 462.929 285.478 459.923 289.975C456.759 294.38 452.352 297.74 447.266 299.624C440.896 301.987 434.133 303.114 427.341 302.945V302.944Z" fill="white"/>
</g>
<defs>
<clipPath id="clip0_2_193">
<rect width="512" height="512" fill="white"/>
</clipPath>
</defs>
</svg>
