<svg width="512" height="512" viewBox="0 0 512 512" fill="none" xmlns="http://www.w3.org/2000/svg">
<g clip-path="url(#clip0_2_196)">
<path d="M256 0C397.312 0 512 114.688 512 256C512 397.312 397.312 512 256 512C114.688 512 0 397.312 0 256C0 114.688 114.688 0 256 0Z" fill="#542582"/>
<path d="M83.2854 296.96H139.605V281.6H100.864V215.04H83.2854V296.96ZM150.016 296.96H208.555V282.283H167.765V262.144H202.069V247.467H167.765V229.717H206.507V215.04H150.187V296.96H150.016ZM218.965 296.96H277.333V282.283H236.544V262.144H270.848V247.467H236.544V229.717H275.285V215.04H218.965V296.96ZM288.256 296.96H319.317C326.997 297.131 334.677 295.595 341.504 292.181C347.477 289.109 352.427 284.16 355.499 278.187C361.984 264.192 361.984 247.979 355.499 233.984C352.427 228.011 347.477 223.232 341.504 220.16C334.677 216.747 326.997 215.211 319.317 215.381H288.085L288.256 296.96ZM305.835 281.771V230.229H318.464C326.144 230.229 331.947 232.448 336.043 236.885C339.968 241.323 342.016 247.637 342.016 256C342.016 264.363 339.968 270.848 335.872 275.285C331.776 279.723 325.973 281.941 318.293 281.941L305.835 281.771ZM413.184 295.595C417.792 293.888 421.888 290.816 424.789 286.72C427.52 282.624 428.885 277.675 428.715 272.896C428.885 269.312 428.032 265.728 426.667 262.485C425.301 259.755 423.253 257.365 420.693 255.488C417.963 253.611 415.061 252.075 411.819 251.051C408.405 249.856 404.821 248.832 400.896 247.808C397.824 247.125 395.264 246.272 392.875 245.419C390.997 244.736 389.12 243.712 387.584 242.347C386.389 240.981 385.707 239.104 385.707 237.227C385.536 234.325 387.072 231.765 389.461 230.4C392.704 228.693 396.459 227.84 400.213 228.011C404.48 228.011 408.747 228.523 413.013 229.717C416.939 230.741 420.864 232.448 424.448 234.496V218.965C420.864 217.259 417.109 215.893 413.184 215.04C408.917 214.016 404.651 213.504 400.384 213.504C394.581 213.333 388.608 214.357 383.147 216.576C378.709 218.283 374.784 221.355 372.053 225.28C369.323 229.205 367.957 233.984 368.128 238.592C368.128 241.835 368.64 245.077 370.005 247.979C371.2 250.539 373.077 252.928 375.467 254.805C378.197 256.853 381.099 258.389 384.171 259.584C388.096 261.12 392.021 262.315 396.117 263.168C398.677 263.851 401.067 264.533 403.627 265.387C405.675 266.069 407.381 267.093 408.917 268.629C410.283 270.165 410.965 272.213 410.965 274.261C410.965 277.333 409.429 280.064 406.869 281.6C404.139 283.307 400.213 284.16 395.093 284.16C385.877 284.16 377.003 281.6 369.152 276.651V292.352C373.077 294.4 377.344 296.107 381.781 296.96C386.219 297.984 390.656 298.496 395.093 298.496C401.067 298.837 407.381 297.813 413.184 295.595Z" fill="white"/>
</g>
<defs>
<clipPath id="clip0_2_196">
<rect width="512" height="512" fill="white"/>
</clipPath>
</defs>
</svg>
