<svg width="512" height="512" viewBox="0 0 512 512" fill="none" xmlns="http://www.w3.org/2000/svg">
<g clip-path="url(#clip0_2_199)">
<path d="M256 512C397.385 512 512 397.385 512 256C512 114.615 397.385 0 256 0C114.615 0 0 114.615 0 256C0 397.385 114.615 512 256 512Z" fill="#542582"/>
<path d="M90.5044 211.084H109.802V283.89H152.282V300.682H90.5044V211.084ZM164.311 211.084H225.966V227.123H183.61V246.545H221.203V262.588H183.61V284.641H228.345V300.682H164.311V211.084ZM242.005 211.084H261.302V300.682H242.005V211.084ZM320.826 302.561C314.295 302.658 307.8 301.576 301.653 299.365C296.227 297.399 291.305 294.254 287.242 290.156C283.2 285.962 280.121 280.937 278.219 275.432C276.049 269.125 274.989 262.49 275.087 255.821C274.993 249.263 276.097 242.744 278.345 236.583C280.37 231.05 283.577 226.026 287.744 221.86C291.91 217.693 296.934 214.486 302.467 212.461C308.627 210.214 315.146 209.109 321.703 209.203C326.406 209.178 331.095 209.704 335.676 210.77C339.928 211.764 344.034 213.301 347.894 215.344V233.138C344.471 230.801 340.709 229.005 336.741 227.813C332.634 226.588 328.369 225.975 324.084 225.995C318.672 225.837 313.307 227.044 308.483 229.504C304.225 231.798 300.771 235.339 298.585 239.654C296.152 244.687 294.969 250.233 295.137 255.821C294.977 261.414 296.114 266.968 298.458 272.048C300.534 276.373 303.907 279.943 308.108 282.26C312.841 284.722 318.125 285.93 323.458 285.769C332.474 285.82 341.311 283.252 348.895 278.376V295.794C344.879 298.017 340.578 299.682 336.112 300.744C331.111 301.973 325.977 302.584 320.826 302.561ZM388.493 302.561C383.582 302.563 378.685 302.016 373.895 300.931C369.071 299.84 364.415 298.113 360.047 295.794V278.501C368.583 283.817 378.437 286.639 388.493 286.647C394.173 286.647 398.497 285.685 401.464 283.762C402.852 282.943 403.996 281.767 404.777 280.358C405.559 278.948 405.951 277.356 405.912 275.744C405.975 274.636 405.814 273.526 405.437 272.481C405.06 271.437 404.476 270.479 403.719 269.667C402.057 268.084 400.068 266.886 397.892 266.158C395.22 265.206 392.501 264.39 389.746 263.714C385.31 262.698 380.954 261.357 376.714 259.703C373.3 258.396 370.093 256.602 367.191 254.379C364.667 252.418 362.648 249.883 361.299 246.985C359.887 243.726 359.203 240.197 359.296 236.646C359.159 231.427 360.671 226.296 363.619 221.986C366.706 217.732 370.945 214.449 375.837 212.524C381.82 210.179 388.21 209.05 394.634 209.203C399.359 209.2 404.069 209.747 408.668 210.833C412.959 211.812 417.123 213.284 421.075 215.219V232.262C417.193 229.918 412.994 228.145 408.607 226.997C404.053 225.755 399.354 225.124 394.634 225.118C390.519 224.884 386.419 225.795 382.79 227.75C381.475 228.505 380.39 229.604 379.651 230.928C378.912 232.253 378.546 233.753 378.593 235.269C378.541 236.285 378.691 237.301 379.035 238.258C379.38 239.216 379.911 240.095 380.598 240.845C382.215 242.394 384.165 243.552 386.299 244.229C388.763 245.105 391.667 245.961 395.01 246.798C399.271 247.884 403.239 249.075 406.914 250.37C410.368 251.553 413.638 253.219 416.624 255.319C419.394 257.291 421.633 259.917 423.142 262.963C424.789 266.533 425.583 270.438 425.46 274.367C425.613 279.774 424.08 285.094 421.074 289.591C417.91 293.996 413.503 297.356 408.417 299.24C402.047 301.602 395.285 302.729 388.493 302.561Z" fill="white"/>
</g>
<defs>
<clipPath id="clip0_2_199">
<rect width="512" height="512" fill="white"/>
</clipPath>
</defs>
</svg>
