<svg width="512" height="512" viewBox="0 0 512 512" fill="none" xmlns="http://www.w3.org/2000/svg">
<g clip-path="url(#clip0_2_202)">
<path d="M256 512C397.385 512 512 397.385 512 256C512 114.615 397.385 0 256 0C114.615 0 0 114.615 0 256C0 397.385 114.615 512 256 512Z" fill="#542582"/>
<path d="M81.3806 211.353H100.676V284.16H143.157V300.95H81.3806V211.353ZM156.691 211.353H175.99V300.95H156.689L156.691 211.353ZM251.177 300.95C244.661 290.508 238.061 280.044 231.378 269.559C224.692 259.077 218.093 248.906 211.579 239.048V300.95H193.032V211.353H212.581C219.347 221.462 226.009 231.591 232.567 241.741C239.124 251.89 245.662 262.187 252.179 272.631V211.353H270.725V300.95H251.177ZM328.743 302.831C322.212 302.928 315.717 301.845 309.571 299.634C304.145 297.669 299.223 294.523 295.159 290.425C291.117 286.231 288.038 281.206 286.136 275.7C283.966 269.394 282.907 262.759 283.005 256.09C282.91 249.533 284.014 243.013 286.263 236.853C288.287 231.32 291.495 226.295 295.661 222.129C299.827 217.963 304.852 214.756 310.385 212.731C316.545 210.483 323.064 209.379 329.62 209.473C334.323 209.447 339.013 209.973 343.593 211.039C347.845 212.034 351.951 213.571 355.811 215.613V233.407C352.388 231.07 348.627 229.275 344.658 228.082C340.551 226.857 336.286 226.245 332.001 226.265C326.589 226.107 321.224 227.313 316.401 229.774C312.143 232.067 308.688 235.609 306.502 239.923C304.069 244.956 302.886 250.502 303.054 256.09C302.894 261.683 304.031 267.237 306.376 272.317C308.451 276.643 311.824 280.213 316.025 282.53C320.758 284.992 326.042 286.2 331.375 286.039C340.391 286.09 349.228 283.521 356.813 278.646V296.064C352.796 298.286 348.496 299.951 344.03 301.013C339.028 302.243 333.894 302.853 328.743 302.831ZM397.914 302.831C393.003 302.832 388.106 302.285 383.316 301.201C378.492 300.11 373.836 298.382 369.468 296.064V278.77C378.004 284.086 387.858 286.908 397.914 286.916C403.594 286.916 407.918 285.955 410.885 284.032C412.273 283.212 413.417 282.037 414.198 280.627C414.98 279.218 415.372 277.625 415.333 276.014C415.396 274.905 415.235 273.795 414.858 272.751C414.481 271.706 413.896 270.749 413.14 269.937C411.478 268.354 409.489 267.156 407.313 266.428C404.641 265.476 401.922 264.66 399.167 263.984C394.731 262.967 390.375 261.627 386.135 259.973C382.721 258.665 379.514 256.872 376.612 254.648C374.089 252.687 372.07 250.152 370.722 247.255C369.309 243.996 368.625 240.467 368.717 236.916C368.579 231.696 370.092 226.566 373.04 222.256C376.127 218.001 380.366 214.719 385.258 212.794C391.24 210.449 397.631 209.319 404.055 209.473C408.78 209.469 413.49 210.016 418.089 211.103C422.38 212.081 426.544 213.553 430.496 215.489V232.532C426.614 230.188 422.415 228.415 418.027 227.266C413.474 226.025 408.775 225.393 404.055 225.387C399.94 225.154 395.841 226.065 392.212 228.019C390.897 228.775 389.812 229.873 389.072 231.198C388.333 232.522 387.967 234.023 388.014 235.539C387.962 236.555 388.112 237.571 388.456 238.528C388.801 239.485 389.332 240.364 390.019 241.114C391.636 242.664 393.587 243.821 395.721 244.499C398.185 245.375 401.088 246.231 404.43 247.067C408.691 248.154 412.659 249.344 416.334 250.638C419.789 251.82 423.058 253.487 426.045 255.587C428.815 257.559 431.054 260.186 432.563 263.233C434.21 266.802 435.003 270.706 434.881 274.635C435.034 280.042 433.501 285.363 430.495 289.86C427.331 294.266 422.924 297.626 417.838 299.51C411.468 301.872 404.706 302.999 397.914 302.831Z" fill="white"/>
</g>
<defs>
<clipPath id="clip0_2_202">
<rect width="512" height="512" fill="white"/>
</clipPath>
</defs>
</svg>
