<svg width="512" height="512" viewBox="0 0 512 512" fill="none" xmlns="http://www.w3.org/2000/svg">
<g clip-path="url(#clip0_3_23)">
<path d="M256 0C397.312 0 512 114.688 512 256C512 397.312 397.312 512 256 512C114.688 512 0 397.312 0 256C0 114.688 114.688 0 256 0Z" fill="#542582"/>
<path d="M54.7842 289.963H101.547V277.333H69.4615V222.208H54.7842V289.963ZM124.758 223.232C120.832 224.768 117.078 227.157 114.176 230.229C111.104 233.472 108.886 237.227 107.35 241.323C104.107 250.88 104.107 261.12 107.35 270.507C108.886 274.603 111.104 278.528 114.176 281.771C117.078 284.843 120.832 287.403 124.758 288.939C133.803 292.181 143.531 292.181 152.576 288.939C156.672 287.403 160.256 285.013 163.158 281.771C166.23 278.528 168.448 274.773 169.984 270.507C173.227 260.949 173.227 250.709 169.984 241.323C168.448 237.227 166.23 233.472 163.158 230.229C160.256 227.157 156.502 224.768 152.576 223.232C143.531 219.819 133.632 219.819 124.758 223.232ZM128.683 275.968C125.782 274.091 123.563 271.36 122.368 268.288C119.467 260.437 119.467 251.733 122.368 243.883C123.734 240.811 125.952 238.08 128.683 236.203C134.827 232.619 142.507 232.619 148.651 236.203C151.552 238.08 153.771 240.811 154.966 243.883C157.867 251.733 157.867 260.437 154.966 268.288C153.6 271.36 151.382 274.091 148.651 275.968C142.507 279.552 134.827 279.552 128.683 275.968ZM240.128 289.963V222.208H226.134V268.629C221.184 260.779 216.235 252.928 211.286 245.248C206.336 237.568 201.216 229.888 196.096 222.208H181.248V289.963H195.243V243.2C200.192 250.709 205.142 258.389 210.262 266.24C215.382 274.091 220.331 282.112 225.28 289.963H240.128ZM253.27 289.963H279.04C285.355 290.133 291.67 288.768 297.472 285.867C302.422 283.307 306.518 279.211 309.078 274.261C314.368 262.656 314.368 249.344 309.078 237.739C306.518 232.789 302.422 228.693 297.472 226.304C291.84 223.573 285.526 222.208 279.211 222.379H253.27V289.963ZM267.776 277.333V234.496H278.358C284.672 234.496 289.622 236.373 292.864 239.957C296.107 243.541 297.814 248.832 297.814 255.829C297.814 262.827 296.107 268.117 292.694 271.872C289.28 275.627 284.502 277.333 278.187 277.333H267.776ZM340.992 223.232C337.067 224.768 333.312 227.157 330.411 230.229C327.339 233.472 325.12 237.227 323.584 241.323C320.342 250.88 320.342 261.12 323.584 270.507C325.12 274.603 327.339 278.528 330.411 281.771C333.312 284.843 337.067 287.403 340.992 288.939C350.038 292.181 359.766 292.181 368.811 288.939C372.907 287.403 376.491 285.013 379.392 281.771C382.464 278.528 384.683 274.773 386.219 270.507C389.462 260.949 389.462 250.709 386.219 241.323C384.683 237.227 382.464 233.472 379.392 230.229C376.491 227.157 372.736 224.768 368.811 223.232C359.766 219.819 350.038 219.819 340.992 223.232ZM344.918 275.968C342.016 274.091 339.797 271.36 338.603 268.288C335.702 260.437 335.702 251.733 338.603 243.883C339.968 240.811 342.187 238.08 344.918 236.203C351.062 232.619 358.742 232.619 364.886 236.203C367.787 238.08 370.006 240.811 371.2 243.883C374.102 251.733 374.102 260.437 371.2 268.288C369.835 271.36 367.616 274.091 364.886 275.968C358.742 279.552 351.062 279.552 344.918 275.968ZM457.216 289.963V222.208H443.222V268.629C438.272 260.779 433.323 252.928 428.374 245.248C423.424 237.568 418.304 229.888 413.184 222.208H398.336V289.963H412.331V243.2C417.28 250.709 422.229 258.389 427.349 266.24C432.47 274.091 437.419 282.112 442.368 289.963H457.216Z" fill="white"/>
</g>
<defs>
<clipPath id="clip0_3_23">
<rect width="512" height="512" fill="white"/>
</clipPath>
</defs>
</svg>
