<svg width="512" height="512" viewBox="0 0 512 512" fill="none" xmlns="http://www.w3.org/2000/svg">
<g clip-path="url(#clip0_2_205)">
<path d="M256 512C397.385 512 512 397.385 512 256C512 114.615 397.385 0 256 0C114.615 0 0 114.615 0 256C0 397.385 114.615 512 256 512Z" fill="#542582"/>
<path d="M111.369 284.339C107.691 276.989 104.099 269.616 100.593 262.221C97.0838 254.828 93.6164 247.455 90.1906 240.104V301.005H71.7705V211.408H94.9522C98.8786 220.598 102.889 229.766 106.984 238.913C111.076 248.062 115.252 257.105 119.515 266.044C123.69 257.105 127.825 248.104 131.92 239.039C136.012 229.976 139.98 220.765 143.824 211.408H166.383V301.005H147.96V239.855C144.534 247.373 141.046 254.83 137.498 262.224C133.944 269.616 130.372 276.989 126.781 284.343L111.369 284.339ZM247.834 301.005C245.66 294.406 243.488 287.932 241.318 281.583H204.976C202.803 288.017 200.631 294.491 198.46 301.005H177.784C183.464 285.3 189.25 269.97 195.14 255.015C201.029 240.063 206.981 225.527 212.995 211.408H233.8C239.98 226.279 246.015 241.212 251.906 256.208C257.795 271.204 263.496 286.136 269.01 301.005H247.834ZM210.49 265.54H235.677C233.672 259.696 231.605 253.87 229.475 248.062C227.345 242.256 225.236 236.554 223.147 230.956C218.802 242.402 214.583 253.931 210.49 265.542V265.54ZM338.558 301.005C332.042 290.562 325.443 280.099 318.761 269.614C312.075 259.132 305.475 248.961 298.96 239.102V301.005H280.414V211.408H299.964C306.73 221.517 313.392 231.646 319.949 241.795C326.507 251.946 333.045 262.242 339.562 272.686V211.408H358.108V301.005H338.558ZM417.128 302.886C410.597 302.983 404.102 301.9 397.955 299.689C392.53 297.723 387.608 294.578 383.544 290.48C379.503 286.286 376.423 281.262 374.521 275.756C372.351 269.45 371.291 262.814 371.389 256.145C371.295 249.588 372.399 243.068 374.648 236.908C376.672 231.375 379.88 226.35 384.046 222.184C388.212 218.018 393.237 214.81 398.77 212.786C404.93 210.538 411.449 209.434 418.005 209.527C422.708 209.502 427.398 210.028 431.978 211.094C436.23 212.089 440.336 213.626 444.196 215.668V233.462C440.773 231.125 437.012 229.329 433.043 228.137C428.936 226.912 424.671 226.3 420.386 226.319C414.974 226.161 409.609 227.368 404.786 229.828C400.528 232.122 397.073 235.664 394.887 239.978C392.454 245.011 391.272 250.556 391.439 256.143C391.279 261.737 392.416 267.291 394.761 272.372C396.836 276.697 400.209 280.268 404.41 282.585C409.143 285.047 414.427 286.255 419.76 286.094C428.776 286.144 437.613 283.576 445.198 278.7V296.119C441.181 298.341 436.881 300.006 432.415 301.068C427.413 302.297 422.279 302.908 417.128 302.886Z" fill="white"/>
</g>
<defs>
<clipPath id="clip0_2_205">
<rect width="512" height="512" fill="white"/>
</clipPath>
</defs>
</svg>
