<svg width="512" height="512" viewBox="0 0 512 512" fill="none" xmlns="http://www.w3.org/2000/svg">
<g clip-path="url(#clip0_2_213)">
<path d="M256 512C397.385 512 512 397.385 512 256C512 114.615 397.385 0 256 0C114.615 0 0 114.615 0 256C0 397.385 114.615 512 256 512Z" fill="#542582"/>
<path d="M76.6258 280.286C73.5083 274.056 70.463 267.806 67.49 261.537C64.5159 255.266 61.5764 249.015 58.6717 242.784V294.416H43.0557V218.457H62.7096C66.0376 226.246 69.4373 234.018 72.9087 241.773C76.3778 249.531 79.9191 257.198 83.5327 264.776C87.0734 257.198 90.5789 249.567 94.0492 241.881C97.5194 234.196 100.884 226.388 104.142 218.457H123.266V294.416H107.65V242.57C104.744 248.945 101.786 255.267 98.7766 261.537C95.7661 267.804 92.7384 274.053 89.6937 280.286H76.6258ZM137.714 218.457H189.984V232.054H154.076V248.522H185.948V262.119H154.074V280.819H192.003V294.416H137.714V218.457ZM220.58 266.793V294.416H204.433V218.457H232.161C242.147 218.457 249.814 220.546 255.162 224.724C260.509 228.904 263.183 234.889 263.183 242.678C263.32 247.224 262.079 251.706 259.623 255.534C257.11 259.19 253.584 262.033 249.479 263.714C252.666 268.743 255.817 273.789 258.934 278.852C262.049 283.916 265.165 289.104 268.283 294.417H249.477C244.379 285.069 239.102 275.861 233.648 266.793H220.58ZM220.58 253.939H231.205C236.233 253.939 240.057 253.036 242.678 251.232C244.008 250.26 245.068 248.964 245.756 247.466C246.445 245.969 246.738 244.321 246.61 242.678C246.736 241.034 246.447 239.384 245.769 237.881C245.092 236.377 244.047 235.068 242.732 234.073C240.146 232.231 236.339 231.31 231.311 231.312H220.58V253.939ZM299.941 296.011C295.777 296.012 291.626 295.548 287.565 294.629C283.476 293.703 279.528 292.238 275.825 290.273V275.611C283.062 280.119 291.415 282.511 299.941 282.518C303.764 282.757 307.576 281.909 310.938 280.074C312.114 279.38 313.084 278.383 313.747 277.188C314.41 275.993 314.743 274.643 314.709 273.277C314.763 272.337 314.626 271.395 314.306 270.509C313.987 269.624 313.491 268.812 312.849 268.123C311.441 266.781 309.755 265.765 307.91 265.148C305.645 264.34 303.34 263.649 301.005 263.076C297.243 262.215 293.551 261.079 289.956 259.676C287.061 258.567 284.342 257.046 281.881 255.161C279.743 253.498 278.031 251.35 276.888 248.894C275.69 246.13 275.11 243.139 275.188 240.128C275.071 235.702 276.354 231.353 278.854 227.699C281.471 224.092 285.065 221.309 289.212 219.677C294.284 217.689 299.702 216.732 305.148 216.861C309.155 216.859 313.148 217.322 317.047 218.244C320.685 219.073 324.214 220.32 327.564 221.961V236.409C324.272 234.424 320.712 232.922 316.993 231.948C313.133 230.895 309.15 230.359 305.148 230.354C301.66 230.157 298.185 230.929 295.108 232.586C293.993 233.227 293.074 234.158 292.447 235.28C291.82 236.403 291.51 237.674 291.55 238.959C291.505 239.821 291.632 240.682 291.924 241.494C292.216 242.306 292.667 243.051 293.25 243.687C294.62 245 296.274 245.982 298.083 246.556C300.171 247.298 302.632 248.024 305.466 248.733C309.078 249.654 312.443 250.663 315.559 251.761C318.488 252.765 321.26 254.178 323.792 255.959C326.14 257.631 328.038 259.857 329.317 262.439C330.713 265.465 331.386 268.775 331.283 272.106C331.413 276.69 330.113 281.201 327.564 285.014C324.881 288.748 321.145 291.597 316.834 293.195C311.433 295.198 305.7 296.154 299.941 296.011ZM342.118 218.457H394.388V232.054H358.478V248.522H390.35V262.119H358.478V280.819H396.407V294.416H342.118V218.457ZM446.657 265.626V294.417H430.297V265.626C425.338 257.837 420.487 250.01 415.742 242.145C410.995 234.286 406.356 226.39 401.824 218.457H420.417C423.319 224.051 426.312 229.646 429.394 235.242C432.474 240.836 435.572 246.36 438.688 251.814C441.876 246.291 444.993 240.749 448.039 235.189C451.083 229.629 454.092 224.051 457.067 218.457H475.237C470.631 226.388 465.956 234.285 461.213 242.145C456.466 250.008 451.614 257.834 446.657 265.626Z" fill="white"/>
</g>
<defs>
<clipPath id="clip0_2_213">
<rect width="512" height="512" fill="white"/>
</clipPath>
</defs>
</svg>
