<svg width="512" height="512" viewBox="0 0 512 512" fill="none" xmlns="http://www.w3.org/2000/svg">
<g clip-path="url(#clip0_2_216)">
<path d="M256 512C397.385 512 512 397.385 512 256C512 114.615 397.385 0 256 0C114.615 0 0 114.615 0 256C0 397.385 114.615 512 256 512Z" fill="#542582"/>
<path d="M73.2502 282.105C69.5229 276.132 65.7477 270.146 61.9248 264.148C58.1019 258.152 54.3267 252.334 50.5994 246.695V282.105H39.9907V230.854H51.1728C55.0435 236.636 58.8545 242.43 62.6058 248.237C66.357 254.043 70.0963 259.932 73.8237 265.904V230.854H84.4323V282.105H73.2502ZM93.0339 230.854H128.3V240.029H104.073V251.14H125.577V260.313H104.073V272.93H129.662V282.105H93.0339V230.854ZM177.616 282.105C175.99 276.323 174.402 270.541 172.85 264.759C171.295 258.978 169.778 253.196 168.296 247.412C166.863 253.194 165.381 258.977 163.852 264.759C162.323 270.541 160.746 276.323 159.121 282.105H147.439C145.001 273.743 142.659 265.284 140.413 256.729C138.167 248.175 136.04 239.55 134.033 230.854H146.077C147.271 237.496 148.536 244.139 149.874 250.781C151.212 257.424 152.623 263.946 154.105 270.35C157.306 257.877 160.34 245.428 163.207 233.003H173.959C175.393 239.121 176.863 245.226 178.369 251.319C179.873 257.412 181.414 263.492 182.991 269.561C184.424 263.253 185.81 256.85 187.148 250.351C188.485 243.852 189.728 237.353 190.877 230.854H202.704C200.696 239.551 198.569 248.176 196.323 256.729C194.077 265.285 191.736 273.744 189.298 282.105H177.616ZM230.873 283.181C227.137 283.236 223.422 282.617 219.906 281.353C216.802 280.228 213.987 278.429 211.663 276.084C209.351 273.685 207.589 270.811 206.502 267.662C205.26 264.054 204.653 260.259 204.71 256.444C204.655 252.693 205.287 248.964 206.573 245.441C207.732 242.276 209.566 239.402 211.949 237.019C214.332 234.635 217.207 232.801 220.372 231.643C223.895 230.357 227.624 229.725 231.375 229.779C234.065 229.764 236.747 230.065 239.367 230.675C241.799 231.243 244.148 232.123 246.356 233.291V243.47C244.398 242.133 242.246 241.105 239.976 240.422C237.627 239.722 235.188 239.373 232.737 239.384C229.641 239.293 226.571 239.984 223.812 241.391C221.377 242.703 219.401 244.728 218.15 247.195C216.758 250.075 216.082 253.247 216.178 256.444C216.087 259.643 216.737 262.82 218.078 265.726C219.265 268.2 221.195 270.242 223.597 271.567C226.305 272.976 229.328 273.667 232.378 273.575C237.536 273.604 242.591 272.135 246.929 269.346V279.31C244.632 280.581 242.172 281.533 239.618 282.141C236.756 282.844 233.819 283.193 230.873 283.181ZM290.796 282.105C289.553 278.33 288.311 274.627 287.068 270.995H266.281C265.039 274.674 263.796 278.378 262.554 282.105H250.727C253.976 273.121 257.286 264.353 260.656 255.799C264.024 247.245 267.429 238.93 270.87 230.854H282.768C286.304 239.36 289.757 247.902 293.127 256.48C296.495 265.057 299.756 273.599 302.91 282.105H290.796ZM269.435 261.82H283.843C282.696 258.475 281.513 255.141 280.295 251.819C279.077 248.5 277.871 245.239 276.676 242.036C274.19 248.583 271.777 255.178 269.435 261.82ZM323.053 283.181C320.244 283.181 317.443 282.869 314.703 282.249C311.944 281.623 309.281 280.635 306.782 279.31V269.418C311.665 272.459 317.301 274.073 323.053 274.077C325.632 274.237 328.203 273.666 330.471 272.429C331.265 271.96 331.92 271.287 332.367 270.481C332.815 269.674 333.039 268.763 333.017 267.841C333.053 267.207 332.961 266.571 332.746 265.974C332.53 265.376 332.196 264.828 331.762 264.363C330.812 263.458 329.674 262.773 328.429 262.357C326.901 261.813 325.346 261.346 323.77 260.96C321.233 260.378 318.741 259.612 316.315 258.666C314.362 257.917 312.526 256.891 310.866 255.618C309.423 254.497 308.269 253.047 307.499 251.39C306.69 249.526 306.299 247.507 306.352 245.475C306.274 242.49 307.139 239.555 308.825 237.09C310.591 234.657 313.016 232.778 315.814 231.677C319.236 230.336 322.891 229.691 326.566 229.779C329.269 229.777 331.963 230.089 334.594 230.709C337.048 231.27 339.429 232.112 341.69 233.218V242.968C339.469 241.627 337.066 240.614 334.556 239.957C331.952 239.247 329.265 238.885 326.566 238.882C324.211 238.748 321.866 239.27 319.79 240.388C319.038 240.82 318.418 241.448 317.995 242.206C317.573 242.963 317.364 243.821 317.391 244.688C317.361 245.269 317.447 245.85 317.644 246.398C317.841 246.945 318.145 247.448 318.538 247.876C319.462 248.763 320.577 249.425 321.797 249.813C323.208 250.314 324.869 250.803 326.781 251.281C329.217 251.904 331.487 252.585 333.59 253.324C335.566 254.002 337.437 254.956 339.146 256.157C340.728 257.285 342.008 258.787 342.871 260.528C343.814 262.57 344.269 264.804 344.199 267.053C344.287 270.146 343.41 273.189 341.69 275.762C339.88 278.281 337.359 280.203 334.45 281.281C330.806 282.632 326.939 283.276 323.053 283.181ZM347.208 230.854H390.503V240.459H374.375V282.105H363.336V240.459H347.208V230.854ZM396.522 230.854H407.561V272.5H431.86V282.105H396.522V230.854ZM438.168 230.854H473.435V240.029H449.207V251.14H470.711V260.313H449.207V272.93H474.796V282.105H438.17L438.168 230.854Z" fill="white"/>
</g>
<defs>
<clipPath id="clip0_2_216">
<rect width="512" height="512" fill="white"/>
</clipPath>
</defs>
</svg>
