<svg width="512" height="512" viewBox="0 0 512 512" fill="none" xmlns="http://www.w3.org/2000/svg">
<g clip-path="url(#clip0_2_210)">
<path d="M256 512C397.385 512 512 397.385 512 256C512 114.615 397.385 0 256 0C114.615 0 0 114.615 0 256C0 397.385 114.615 512 256 512Z" fill="#542582"/>
<path d="M105.472 286.55V225.451H92.8428V267.264C88.4054 260.096 83.9681 253.099 79.5308 246.272C75.0934 239.275 70.4854 232.448 65.8774 225.622H52.5654V286.72H65.1948V244.566C69.6321 251.222 74.0694 258.219 78.6774 265.387C83.2854 272.555 87.7228 279.723 92.1601 286.72H105.472V286.55ZM132.267 226.475C128.683 227.84 125.44 230.059 122.709 232.79C119.979 235.691 117.931 239.104 116.565 242.859C113.664 251.392 113.664 260.608 116.565 269.142C117.931 272.896 119.979 276.31 122.709 279.211C125.44 281.942 128.683 284.16 132.267 285.696C140.288 288.598 149.163 288.598 157.355 285.696C160.939 284.331 164.181 282.112 166.912 279.211C169.643 276.31 171.691 272.896 173.056 269.142C175.957 260.608 175.957 251.392 173.056 242.859C171.691 239.104 169.643 235.691 166.912 232.79C164.181 230.059 160.939 227.84 157.355 226.475C149.163 223.403 140.288 223.403 132.267 226.475ZM135.68 273.92C133.12 272.214 131.072 269.824 129.877 266.923C127.317 259.755 127.317 252.075 129.877 244.907C131.072 242.006 132.949 239.616 135.68 237.91C141.312 234.667 148.139 234.667 153.6 237.91C156.16 239.616 158.208 242.006 159.403 244.907C161.963 252.075 161.963 259.755 159.403 266.923C158.208 269.824 156.331 272.214 153.6 273.92C148.139 277.163 141.312 277.163 135.68 273.92ZM205.312 264.363H206.677C211.115 271.702 215.381 279.04 219.477 286.55H234.667C232.107 282.283 229.717 278.187 227.157 274.091C224.597 269.995 222.037 265.899 219.477 261.974C222.72 260.608 225.621 258.39 227.669 255.318C229.717 252.246 230.571 248.662 230.571 244.907C230.912 239.275 228.523 233.984 224.085 230.4C219.819 226.987 213.675 225.28 205.653 225.28H183.296V286.379H196.267V264.192L205.312 264.363ZM196.096 235.862H204.8C208.043 235.691 211.285 236.374 214.016 238.08C216.235 239.787 217.259 242.347 217.088 245.078C217.259 247.808 216.064 250.368 213.845 251.904C211.115 253.611 207.872 254.294 204.629 254.123H196.096V235.862ZM241.835 286.55H254.976V262.315H279.381V251.392H254.976V236.374H282.624V225.451H241.835V286.55ZM305.835 226.475C302.251 227.84 299.008 230.059 296.277 232.79C293.547 235.691 291.499 239.104 290.133 242.859C287.232 251.392 287.232 260.608 290.133 269.142C291.499 272.896 293.547 276.31 296.277 279.211C299.008 281.942 302.251 284.16 305.835 285.696C313.856 288.598 322.731 288.598 330.923 285.696C334.507 284.331 337.749 282.112 340.48 279.211C343.211 276.31 345.259 272.896 346.624 269.142C349.525 260.608 349.525 251.392 346.624 242.859C345.259 239.104 343.211 235.691 340.48 232.79C337.749 230.059 334.507 227.84 330.923 226.475C322.731 223.403 313.856 223.403 305.835 226.475ZM309.419 273.92C306.859 272.214 304.811 269.824 303.616 266.923C301.056 259.755 301.056 252.075 303.616 244.907C304.811 242.006 306.688 239.616 309.419 237.91C315.051 234.667 321.877 234.667 327.339 237.91C329.899 239.616 331.947 242.006 333.141 244.907C335.701 252.075 335.701 259.755 333.141 266.923C331.947 269.824 330.069 272.214 327.339 273.92C321.707 277.163 314.88 277.163 309.419 273.92ZM356.523 286.55H398.677V275.115H369.664V225.451H356.523V286.55ZM433.493 273.408C437.077 277.675 440.661 282.112 444.245 286.55H460.971C456.363 280.918 451.755 275.456 447.147 270.166L433.323 254.294C437.76 249.515 442.027 244.736 446.293 239.958C450.56 235.179 454.656 230.4 458.752 225.622H442.88C439.637 229.547 436.395 233.472 432.981 237.398C429.739 241.323 426.155 245.248 422.571 249.344H419.157V225.622H406.016V286.72H419.157V260.438H422.4C426.155 264.704 429.909 269.142 433.493 273.408Z" fill="white"/>
</g>
<defs>
<clipPath id="clip0_2_210">
<rect width="512" height="512" fill="white"/>
</clipPath>
</defs>
</svg>
