<svg width="512" height="512" viewBox="0 0 512 512" fill="none" xmlns="http://www.w3.org/2000/svg">
<g clip-path="url(#clip0_2_219)">
<path d="M256 512C397.385 512 512 397.385 512 256C512 114.615 397.385 0 256 0C114.615 0 0 114.615 0 256C0 397.385 114.615 512 256 512Z" fill="#542582"/>
<path d="M72.7211 281.723C69.1269 275.964 65.4865 270.192 61.8001 264.409C58.1137 258.626 54.474 253.015 50.8809 247.578V281.723H40.6494V232.301H51.4321C55.164 237.878 58.8391 243.465 62.4572 249.064C66.0753 254.663 69.6809 260.342 73.2741 266.102V232.301H83.5038V281.723H72.7211ZM115.091 231.265C118.55 231.216 121.987 231.825 125.218 233.063C128.141 234.198 130.782 235.955 132.96 238.212C135.155 240.533 136.839 243.289 137.902 246.301C140.206 253.222 140.206 260.702 137.902 267.623C136.839 270.656 135.156 273.434 132.96 275.78C130.791 278.055 128.148 279.825 125.218 280.964C118.68 283.359 111.504 283.359 104.965 280.964C102.035 279.825 99.3922 278.054 97.2237 275.779C95.0272 273.433 93.3438 270.655 92.2812 267.623C89.9772 260.702 89.9772 253.22 92.2812 246.299C93.3447 243.287 95.0285 240.532 97.2237 238.212C99.4008 235.955 102.042 234.198 104.965 233.063C108.196 231.825 111.632 231.216 115.091 231.265ZM115.091 273.499C117.651 273.568 120.175 272.883 122.349 271.529C124.423 270.159 126.037 268.196 126.979 265.895C129.1 260.14 129.1 253.817 126.979 248.061C126.042 245.767 124.427 243.814 122.349 242.463C120.141 241.195 117.638 240.528 115.092 240.528C112.545 240.528 110.043 241.195 107.834 242.463C105.756 243.813 104.14 245.766 103.204 248.061C101.083 253.817 101.083 260.14 103.204 265.895C104.146 268.196 105.759 270.158 107.834 271.527C110.007 272.882 112.531 273.567 115.091 273.499ZM157.461 263.754V281.725H146.954V232.301H164.995C171.492 232.301 176.48 233.661 179.96 236.38C181.698 237.77 183.079 239.555 183.987 241.588C184.895 243.62 185.304 245.84 185.178 248.062C185.267 251.02 184.46 253.935 182.863 256.425C181.227 258.803 178.933 260.653 176.261 261.746C178.335 265.02 180.386 268.303 182.414 271.597C184.441 274.892 186.469 278.268 188.496 281.723H176.261C172.945 275.64 169.512 269.65 165.963 263.752L157.461 263.754ZM157.461 255.387H164.373C166.981 255.556 169.58 254.943 171.837 253.626C172.703 252.994 173.393 252.151 173.841 251.177C174.288 250.203 174.48 249.131 174.396 248.062C174.478 246.993 174.29 245.92 173.849 244.942C173.408 243.964 172.729 243.112 171.873 242.465C169.638 241.12 167.045 240.492 164.442 240.666H157.462L157.461 255.387ZM188.773 232.301H230.521V241.565H214.968V281.723H204.324V241.565H188.773V232.301ZM269.295 281.723V260.506H247.8V281.725H237.155V232.303H247.8V251.242H269.295V232.303H279.939V281.725L269.295 281.723ZM324.314 281.723C323.116 278.082 321.919 274.511 320.722 271.01H300.677C299.478 274.559 298.279 278.13 297.081 281.723H285.677C288.81 273.061 292.001 264.605 295.252 256.355C298.499 248.108 301.781 240.091 305.099 232.301H316.573C319.983 240.505 323.313 248.742 326.562 257.014C329.811 265.286 332.955 273.522 335.997 281.723H324.314ZM303.718 262.161H317.612C316.506 258.937 315.366 255.723 314.191 252.519C313.016 249.318 311.853 246.174 310.7 243.086C308.303 249.398 305.976 255.757 303.72 262.163L303.718 262.161ZM373.806 281.723C370.212 275.964 366.572 270.192 362.885 264.409C359.199 258.626 355.558 253.015 351.964 247.578V281.723H341.734V232.301H352.517C356.249 237.878 359.924 243.465 363.542 249.064C367.159 254.663 370.765 260.342 374.359 266.102V232.301H384.589V281.723H373.806ZM390.948 232.301H432.696V241.565H417.143V281.723H406.501V241.565H390.948V232.301ZM453.016 282.759C450.307 282.76 447.606 282.459 444.964 281.861C442.304 281.259 439.736 280.307 437.327 279.028V269.49C442.035 272.421 447.47 273.977 453.016 273.982C455.503 274.137 457.983 273.586 460.17 272.393C460.936 271.94 461.567 271.292 461.998 270.514C462.43 269.737 462.646 268.858 462.624 267.969C462.66 267.357 462.571 266.745 462.363 266.168C462.155 265.592 461.832 265.064 461.414 264.615C460.498 263.743 459.401 263.083 458.201 262.682C456.727 262.156 455.227 261.706 453.707 261.333C451.26 260.773 448.857 260.034 446.519 259.122C444.635 258.4 442.866 257.41 441.266 256.183C439.875 255.101 438.761 253.703 438.018 252.106C437.239 250.308 436.861 248.362 436.912 246.404C436.836 243.524 437.67 240.694 439.296 238.316C440.999 235.969 443.338 234.158 446.036 233.097C449.336 231.803 452.86 231.181 456.404 231.265C459.01 231.264 461.608 231.565 464.145 232.165C466.512 232.704 468.808 233.516 470.989 234.583V243.983C468.847 242.692 466.531 241.715 464.111 241.082C461.599 240.397 459.007 240.048 456.404 240.044C454.134 239.916 451.874 240.418 449.872 241.495C449.147 241.912 448.548 242.518 448.14 243.248C447.732 243.979 447.53 244.806 447.556 245.642C447.527 246.203 447.61 246.763 447.8 247.291C447.99 247.819 448.283 248.304 448.662 248.718C449.554 249.572 450.63 250.211 451.808 250.585C453.166 251.068 454.767 251.541 456.61 252.001C458.961 252.601 461.15 253.258 463.177 253.973C465.083 254.625 466.886 255.545 468.533 256.703C470.06 257.791 471.295 259.239 472.127 260.919C473.036 262.887 473.474 265.041 473.407 267.208C473.492 270.19 472.646 273.125 470.987 275.605C469.243 278.035 466.812 279.89 464.007 280.929C460.493 282.231 456.763 282.852 453.016 282.759Z" fill="white"/>
</g>
<defs>
<clipPath id="clip0_2_219">
<rect width="512" height="512" fill="white"/>
</clipPath>
</defs>
</svg>
