<svg width="512" height="512" viewBox="0 0 512 512" fill="none" xmlns="http://www.w3.org/2000/svg">
<g clip-path="url(#clip0_2_225)">
<path d="M256 512C397.385 512 512 397.385 512 256C512 114.615 397.385 0 256 0C114.615 0 0 114.615 0 256C0 397.385 114.615 512 256 512Z" fill="#542582"/>
<path d="M107.989 300.803C101.472 290.361 94.872 279.897 88.1886 269.412C81.5042 258.929 74.9051 248.758 68.3913 238.899V300.803H49.8416V211.205H69.3931C76.1595 221.314 82.8212 231.444 89.3782 241.594C95.9363 251.743 102.474 262.04 108.991 272.484V211.205H127.539V300.803H107.989ZM183.299 209.326C189.57 209.236 195.801 210.341 201.658 212.582C206.957 214.641 211.745 217.826 215.692 221.918C219.671 226.125 222.724 231.121 224.652 236.581C228.828 249.129 228.828 262.692 224.652 275.239C222.726 280.738 219.674 285.774 215.692 290.027C211.761 294.152 206.969 297.36 201.658 299.424C189.805 303.77 176.794 303.77 164.941 299.424C159.63 297.361 154.838 294.152 150.907 290.027C146.924 285.775 143.873 280.738 141.947 275.239C137.77 262.692 137.77 249.129 141.947 236.581C143.875 231.121 146.927 226.126 150.907 221.919C154.853 217.828 159.642 214.642 164.941 212.584C170.798 210.342 177.028 209.237 183.299 209.326ZM183.299 285.89C187.941 286.016 192.517 284.775 196.458 282.32C200.219 279.837 203.145 276.278 204.855 272.107C208.698 261.673 208.698 250.211 204.855 239.776C203.155 235.616 200.225 232.075 196.458 229.625C192.454 227.326 187.917 226.116 183.299 226.116C178.682 226.116 174.145 227.326 170.141 229.625C166.373 232.074 163.443 235.616 161.744 239.776C157.902 250.211 157.902 261.673 161.744 272.107C163.453 276.278 166.379 279.838 170.141 282.32C174.082 284.775 178.658 286.017 183.299 285.89ZM230.666 211.207H306.355V227.997H278.159V300.803H258.86V227.997H230.666V211.207ZM316.628 211.207H392.318V227.997H364.121V300.803H344.824V227.997H316.629L316.628 211.207ZM429.157 302.684C424.245 302.685 419.348 302.137 414.558 301.052C409.735 299.961 405.078 298.234 400.71 295.915V278.623C409.247 283.939 419.1 286.76 429.157 286.768C434.837 286.768 439.16 285.807 442.127 283.885C443.515 283.065 444.659 281.889 445.441 280.48C446.223 279.07 446.614 277.477 446.575 275.865C446.639 274.757 446.477 273.647 446.1 272.602C445.723 271.558 445.139 270.6 444.382 269.788C442.72 268.205 440.731 267.007 438.555 266.279C435.883 265.327 433.164 264.511 430.409 263.835C425.973 262.819 421.618 261.478 417.377 259.824C413.964 258.516 410.756 256.723 407.854 254.5C405.331 252.538 403.312 250.004 401.964 247.106C400.552 243.847 399.867 240.319 399.959 236.767C399.822 231.547 401.335 226.417 404.282 222.107C407.37 217.853 411.609 214.57 416.5 212.645C422.483 210.301 428.873 209.172 435.297 209.326C440.023 209.322 444.732 209.868 449.331 210.954C453.622 211.933 457.786 213.404 461.739 215.34V232.383C457.856 230.04 453.657 228.267 449.27 227.12C444.716 225.878 440.018 225.245 435.297 225.239C431.182 225.006 427.083 225.917 423.455 227.872C422.14 228.628 421.055 229.726 420.315 231.05C419.576 232.374 419.21 233.874 419.256 235.39C419.204 236.406 419.354 237.423 419.698 238.38C420.043 239.338 420.574 240.217 421.262 240.967C422.879 242.516 424.829 243.673 426.964 244.35C429.427 245.226 432.33 246.082 435.673 246.919C439.934 248.005 443.902 249.196 447.577 250.491C451.032 251.673 454.302 253.34 457.289 255.44C460.059 257.412 462.297 260.039 463.805 263.086C465.452 266.655 466.246 270.559 466.123 274.488C466.276 279.895 464.743 285.215 461.737 289.712C458.574 294.117 454.167 297.477 449.082 299.361C442.712 301.723 435.949 302.851 429.157 302.682V302.684Z" fill="white"/>
</g>
<defs>
<clipPath id="clip0_2_225">
<rect width="512" height="512" fill="white"/>
</clipPath>
</defs>
</svg>
