<svg width="512" height="512" viewBox="0 0 512 512" fill="none" xmlns="http://www.w3.org/2000/svg">
<g clip-path="url(#clip0_2_222)">
<path d="M256 0C397.312 0 512 114.688 512 256C512 397.312 397.312 512 256 512C114.688 512 0 397.312 0 256C0 114.688 114.688 0 256 0Z" fill="#542582"/>
<path d="M67.0721 221.013C62.8054 222.72 58.8801 225.28 55.8081 228.523C52.5654 231.936 50.1761 235.861 48.6401 240.299C45.2267 250.368 45.2267 261.291 48.6401 271.531C50.1761 275.968 52.7361 280.064 55.8081 283.477C59.0507 286.72 62.8054 289.451 67.0721 290.987C76.6294 294.571 87.0401 294.571 96.5974 290.987C100.864 289.28 104.789 286.72 107.861 283.477C111.104 280.064 113.493 275.968 115.029 271.531C118.443 261.461 118.443 250.539 115.029 240.299C113.493 235.861 110.933 231.936 107.861 228.523C104.619 225.28 100.864 222.72 96.5974 221.013C87.0401 217.429 76.6294 217.429 67.0721 221.013ZM71.1681 277.163C68.0961 275.115 65.7067 272.213 64.3414 268.971C61.2694 260.608 61.2694 251.392 64.3414 242.859C65.7067 239.445 68.0961 236.715 71.1681 234.667C77.6534 230.912 85.8454 230.912 92.3307 234.667C95.4027 236.715 97.7921 239.445 99.1574 242.859C102.229 251.221 102.229 260.437 99.1574 268.971C97.7921 272.384 95.4027 275.285 92.3307 277.163C85.8454 281.088 77.8241 281.088 71.1681 277.163ZM186.027 292.181C182.101 285.867 178.005 279.552 173.739 273.237C169.643 266.923 165.376 260.779 160.939 254.464C164.864 248.661 168.789 243.029 172.544 237.227L183.808 219.819H165.717C163.499 223.915 161.28 227.84 158.891 231.765C156.501 235.691 154.112 239.616 151.723 243.371C149.163 239.616 146.773 235.691 144.555 231.765C142.165 227.84 139.947 223.915 137.728 219.819H119.296C122.88 225.621 126.635 231.424 130.56 237.227L142.336 254.635C137.899 260.949 133.632 267.093 129.536 273.408C125.44 279.552 121.344 285.867 117.248 292.181H135.339C137.728 287.744 140.288 283.307 143.019 278.869C145.749 274.432 148.48 269.995 151.381 265.557C154.283 269.995 157.013 274.432 159.744 278.869C162.475 283.307 165.035 287.744 167.595 292.352L186.027 292.181ZM195.925 292.181H211.456V263.509H240.299V250.539H211.456V232.789H244.053V219.819H195.925V292.181ZM271.701 221.013C267.435 222.72 263.509 225.28 260.437 228.523C257.195 231.936 254.805 235.861 253.269 240.299C249.856 250.368 249.856 261.291 253.269 271.531C254.805 275.968 257.365 280.064 260.437 283.477C263.68 286.72 267.435 289.451 271.701 290.987C281.259 294.571 291.669 294.571 301.227 290.987C305.493 289.28 309.419 286.72 312.491 283.477C315.733 280.064 318.123 275.968 319.659 271.531C323.072 261.461 323.072 250.539 319.659 240.299C318.123 235.861 315.563 231.936 312.491 228.523C309.248 225.28 305.493 222.72 301.227 221.013C291.84 217.429 281.259 217.429 271.701 221.013ZM275.968 277.163C272.896 275.115 270.507 272.213 269.141 268.971C266.069 260.608 266.069 251.392 269.141 242.859C270.507 239.445 272.896 236.715 275.968 234.667C282.453 230.912 290.645 230.912 297.131 234.667C300.203 236.715 302.592 239.445 303.957 242.859C307.029 251.221 307.029 260.437 303.957 268.971C302.592 272.384 300.203 275.285 297.131 277.163C290.645 281.088 282.453 281.088 275.968 277.163ZM358.4 265.899H359.936C365.056 274.603 370.176 283.307 374.955 292.181H392.875C389.973 287.061 386.901 282.112 384 277.333C381.099 272.555 378.027 267.776 374.955 262.997C378.88 261.461 382.293 258.731 384.683 255.147C387.072 251.563 388.267 247.296 388.096 242.859C388.096 235.52 385.536 229.717 380.416 225.792C375.296 221.867 367.957 219.819 358.571 219.819H332.117V292.011H347.477V265.728L358.4 265.899ZM347.477 232.107H357.717C362.496 232.107 366.08 232.96 368.64 234.667C371.2 236.544 372.565 239.616 372.395 242.859C372.565 246.101 371.2 249.173 368.64 251.051C365.397 252.928 361.472 253.952 357.717 253.611H347.648L347.477 232.107ZM401.92 292.181H429.397C436.224 292.352 442.88 290.987 449.024 287.915C454.315 285.184 458.581 280.747 461.483 275.456C467.115 263.168 467.285 248.832 461.483 236.373C458.75 231.051 454.384 226.744 449.024 224.085C442.88 221.184 436.224 219.648 429.397 219.819H401.749L401.92 292.181ZM417.451 278.869V233.301H428.715C435.541 233.301 440.661 235.179 444.245 239.104C447.829 243.029 449.536 248.661 449.536 256C449.536 263.339 447.659 269.141 444.075 273.067C440.491 276.992 435.371 279.04 428.544 279.04L417.451 278.869Z" fill="white"/>
</g>
<defs>
<clipPath id="clip0_2_222">
<rect width="512" height="512" fill="white"/>
</clipPath>
</defs>
</svg>
