<svg width="512" height="512" viewBox="0 0 512 512" fill="none" xmlns="http://www.w3.org/2000/svg">
<g clip-path="url(#clip0_2_228)">
<path d="M256 512C397.385 512 512 397.385 512 256C512 114.615 397.385 0 256 0C114.615 0 0 114.615 0 256C0 397.385 114.615 512 256 512Z" fill="#542582"/>
<path d="M56.8474 288.341C53.6364 288.341 50.4354 287.984 47.3037 287.275C44.1508 286.561 41.1067 285.432 38.2515 283.916V272.611C43.8318 276.086 50.2733 277.931 56.8474 277.936C59.7945 278.119 62.7336 277.467 65.3261 276.053C66.2337 275.517 66.9816 274.748 67.4929 273.826C68.0041 272.904 68.26 271.863 68.2343 270.809C68.2757 270.084 68.17 269.359 67.9237 268.676C67.6773 267.994 67.2953 267.368 66.8007 266.837C65.7146 265.802 64.4141 265.019 62.9914 264.543C61.2448 263.921 59.4675 263.388 57.6666 262.946C54.7665 262.282 51.9189 261.405 49.1469 260.325C46.9149 259.47 44.8179 258.297 42.921 256.843C41.2716 255.561 39.9517 253.904 39.0707 252.01C38.1475 249.879 37.7002 247.573 37.76 245.251C37.6701 241.838 38.6591 238.484 40.5863 235.665C42.6051 232.885 45.3762 230.739 48.5735 229.48C52.4846 227.947 56.662 227.21 60.8615 227.311C63.9508 227.308 67.0299 227.666 70.0365 228.376C72.8412 229.016 75.5626 229.978 78.1466 231.243V242.382C75.6084 240.851 72.8633 239.693 69.9955 238.943C67.0187 238.131 63.9471 237.718 60.8615 237.715C58.1718 237.562 55.4925 238.157 53.12 239.433C52.2604 239.927 51.5511 240.646 51.0678 241.511C50.5844 242.377 50.3452 243.358 50.3757 244.349C50.3413 245.013 50.4394 245.678 50.6645 246.304C50.8895 246.93 51.2369 247.505 51.6864 247.996C52.744 249.007 54.019 249.763 55.4138 250.206C57.0237 250.78 58.9216 251.341 61.1072 251.887C63.8925 252.597 66.4866 253.375 68.8896 254.22C71.1483 254.994 73.2858 256.084 75.2384 257.457C77.0485 258.747 78.5118 260.463 79.4983 262.455C80.5748 264.788 81.0936 267.339 81.0138 269.908C81.1139 273.442 80.1119 276.921 78.1466 279.861C76.0786 282.741 73.1975 284.937 69.8727 286.169C65.7082 287.713 61.2876 288.451 56.8474 288.341ZM128.116 287.112V261.961H102.639V287.111H90.0233V228.538H102.639V250.986H128.116V228.54H140.732V287.112H128.116ZM152.201 228.54H192.505V239.024H164.816V251.721H189.392V262.207H164.816V276.625H194.062V287.111H152.201V228.54ZM203.319 228.54H242.394V239.024H215.934V253.443H239.282V263.927H215.934V287.111H203.319V228.54ZM251.242 228.54H290.316V239.024H263.858V253.443H287.205V263.927H263.858V287.111H251.24L251.242 228.54ZM299.491 228.54H312.107V287.112H299.491V228.54ZM323.576 228.54H363.88V239.024H336.191V251.721H360.767V262.207H336.191V276.625H365.437V287.111H323.576V228.54ZM374.038 228.54H386.654V276.133H414.425V287.111H374.038V228.54ZM422.615 228.54H444.979C450.464 228.386 455.904 229.566 460.832 231.979C465.13 234.175 468.637 237.654 470.868 241.934C473.141 246.896 474.315 252.291 474.307 257.749C474.3 263.207 473.112 268.599 470.825 273.555C468.592 277.862 465.088 281.38 460.79 283.631C455.859 286.08 450.4 287.276 444.897 287.112H422.615V228.54ZM444.242 276.297C449.703 276.297 453.895 274.7 456.817 271.505C459.738 268.31 461.199 263.71 461.199 257.703C461.199 251.75 459.766 247.204 456.899 244.063C454.031 240.923 449.84 239.353 444.326 239.353H435.232V276.297H444.242Z" fill="white"/>
</g>
<defs>
<clipPath id="clip0_2_228">
<rect width="512" height="512" fill="white"/>
</clipPath>
</defs>
</svg>
