<svg width="512" height="512" viewBox="0 0 512 512" fill="none" xmlns="http://www.w3.org/2000/svg">
<g clip-path="url(#clip0_2_234)">
<path d="M256 512C397.385 512 512 397.385 512 256C512 114.615 397.385 0 256 0C114.615 0 0 114.615 0 256C0 397.385 114.615 512 256 512Z" fill="#542582"/>
<path d="M62.7711 296.289C58.507 296.29 54.2561 295.815 50.0974 294.873C45.9101 293.926 41.8674 292.426 38.0756 290.413V275.4C45.4864 280.015 54.0406 282.465 62.7711 282.472C66.6867 282.716 70.5914 281.848 74.0351 279.968C75.2397 279.256 76.2325 278.235 76.9111 277.011C77.5897 275.787 77.9296 274.404 77.8956 273.005C77.9512 272.043 77.8113 271.079 77.4843 270.172C77.1572 269.265 76.6498 268.434 75.9926 267.728C74.5497 266.354 72.8221 265.314 70.9324 264.682C68.6129 263.855 66.253 263.147 63.8616 262.56C60.01 261.678 56.2281 260.514 52.5465 259.079C49.5823 257.942 46.7974 256.385 44.2777 254.454C42.0868 252.752 40.3334 250.552 39.1628 248.037C37.9358 245.207 37.3416 242.143 37.422 239.06C37.303 234.527 38.6169 230.072 41.1766 226.33C43.8573 222.637 47.5374 219.787 51.7836 218.115C56.9782 216.079 62.5265 215.099 68.1044 215.231C72.2075 215.229 76.2968 215.704 80.29 216.648C84.0149 217.497 87.6291 218.774 91.0608 220.453V235.25C87.6899 233.216 84.0442 231.678 80.2354 230.682C76.2817 229.604 72.2024 229.055 68.1044 229.05C64.5321 228.847 60.9735 229.638 57.8235 231.335C56.6816 231.991 55.7393 232.945 55.0973 234.095C54.4552 235.244 54.1375 236.547 54.178 237.863C54.1325 238.745 54.263 239.627 54.5619 240.458C54.8607 241.289 55.322 242.052 55.9188 242.703C57.322 244.048 59.0153 245.053 60.8682 245.64C63.0072 246.403 65.5274 247.147 68.4287 247.873C72.1287 248.817 75.5745 249.85 78.766 250.972C81.7652 252 84.6037 253.447 87.1969 255.271C89.6018 256.982 91.546 259.262 92.8562 261.907C94.2867 265.006 94.9762 268.397 94.8701 271.809C95.0029 276.503 93.6716 281.123 91.0608 285.027C88.3139 288.852 84.4873 291.769 80.0716 293.405C74.5408 295.456 68.6682 296.435 62.7711 296.289ZM156.993 294.656V261.256H123.156V294.656H106.4V216.866H123.156V246.676H156.993V216.866H173.749V294.658L156.993 294.656ZM205.517 266.37V294.656H188.979V216.866H217.376C227.604 216.866 235.456 219.006 240.932 223.285C246.407 227.565 249.145 233.694 249.146 241.672C249.352 246.28 248.109 250.836 245.591 254.7C243.074 258.564 239.408 261.541 235.11 263.214C238.375 268.366 241.602 273.534 244.794 278.719C247.985 283.905 251.177 289.218 254.368 294.659H235.11C229.888 285.084 224.485 275.654 218.9 266.371L205.517 266.37ZM205.517 253.204H216.397C221.546 253.204 225.463 252.279 228.147 250.429C229.51 249.435 230.596 248.107 231.301 246.574C232.006 245.041 232.307 243.353 232.175 241.671C232.303 239.987 232.007 238.297 231.313 236.757C230.619 235.217 229.549 233.876 228.202 232.858C225.553 230.972 221.654 230.03 216.506 230.03H205.517V253.204ZM297.561 215.231C303.006 215.154 308.415 216.114 313.501 218.061C318.102 219.848 322.26 222.614 325.687 226.167C329.141 229.82 331.791 234.156 333.465 238.896C337.092 249.79 337.092 261.566 333.465 272.461C331.793 277.235 329.143 281.607 325.687 285.3C322.272 288.881 318.112 291.666 313.501 293.46C303.209 297.232 291.912 297.232 281.62 293.46C277.009 291.667 272.849 288.881 269.435 285.3C265.978 281.608 263.329 277.235 261.658 272.461C258.031 261.566 258.031 249.79 261.658 238.896C263.331 234.155 265.981 229.818 269.436 226.166C272.863 222.613 277.021 219.847 281.622 218.061C286.708 216.115 292.118 215.155 297.562 215.233L297.561 215.231ZM297.561 281.709C301.59 281.818 305.563 280.739 308.985 278.608C312.251 276.452 314.791 273.363 316.276 269.742C319.613 260.682 319.613 250.73 316.276 241.671C314.8 238.059 312.256 234.984 308.985 232.858C305.509 230.862 301.57 229.811 297.561 229.811C293.553 229.811 289.614 230.862 286.138 232.858C282.866 234.983 280.322 238.059 278.847 241.671C275.51 250.73 275.51 260.682 278.847 269.742C280.331 273.363 282.872 276.453 286.138 278.608C289.559 280.739 293.531 281.818 297.561 281.709ZM348.587 294.656V216.866H376.549C386.558 216.866 394.246 219.078 399.614 223.503C404.981 227.928 407.665 234.275 407.666 242.543C407.817 247.422 406.551 252.24 404.021 256.415C401.458 260.333 397.755 263.37 393.412 265.119C388.015 267.253 382.241 268.27 376.439 268.11H365.124V294.658L348.587 294.656ZM365.124 254.943H375.569C380.501 254.943 384.255 253.947 386.83 251.953C389.403 249.959 390.691 246.821 390.693 242.541C390.693 238.263 389.405 235.108 386.83 233.076C384.255 231.046 380.538 230.031 375.678 230.03H365.124V254.943ZM442.481 296.289C438.216 296.29 433.964 295.815 429.805 294.873C425.618 293.926 421.575 292.426 417.783 290.413V275.4C425.195 280.015 433.749 282.465 442.481 282.472C446.396 282.715 450.3 281.848 453.743 279.968C454.947 279.256 455.94 278.235 456.619 277.011C457.297 275.787 457.637 274.404 457.603 273.005C457.659 272.043 457.519 271.079 457.192 270.172C456.865 269.265 456.358 268.434 455.7 267.728C454.257 266.354 452.53 265.314 450.64 264.682C448.321 263.855 445.961 263.147 443.569 262.56C439.718 261.678 435.936 260.514 432.254 259.079C429.29 257.942 426.505 256.385 423.985 254.454C421.795 252.752 420.041 250.552 418.871 248.037C417.643 245.207 417.049 242.143 417.13 239.06C417.011 234.527 418.325 230.072 420.884 226.33C423.565 222.637 427.245 219.787 431.491 218.115C436.686 216.079 442.234 215.099 447.812 215.231C451.915 215.229 456.005 215.704 459.998 216.648C463.723 217.497 467.337 218.774 470.769 220.453V235.25C467.398 233.216 463.752 231.678 459.943 230.682C455.989 229.604 451.91 229.055 447.812 229.05C444.24 228.847 440.681 229.638 437.531 231.335C436.389 231.991 435.447 232.945 434.805 234.095C434.163 235.244 433.845 236.547 433.886 237.863C433.84 238.745 433.971 239.627 434.27 240.458C434.568 241.289 435.03 242.052 435.627 242.703C437.03 244.048 438.723 245.053 440.576 245.64C442.715 246.403 445.236 247.147 448.138 247.873C451.837 248.817 455.282 249.85 458.474 250.972C461.474 252 464.313 253.448 466.906 255.273C469.311 256.984 471.254 259.264 472.564 261.908C473.994 265.008 474.684 268.397 474.578 271.809C474.711 276.503 473.379 281.123 470.769 285.027C468.022 288.852 464.195 291.77 459.779 293.407C454.248 295.457 448.378 296.436 442.481 296.289Z" fill="white"/>
</g>
<defs>
<clipPath id="clip0_2_234">
<rect width="512" height="512" fill="white"/>
</clipPath>
</defs>
</svg>
