<svg width="512" height="512" viewBox="0 0 512 512" fill="none" xmlns="http://www.w3.org/2000/svg">
<g clip-path="url(#clip0_3_26)">
<path d="M256 512C397.385 512 512 397.385 512 256C512 114.615 397.385 0 256 0C114.615 0 0 114.615 0 256C0 397.385 114.615 512 256 512Z" fill="#542582"/>
<path d="M76.9281 259.712C72.9601 259.712 68.8641 259.328 65.0241 258.432C61.0561 257.536 57.3441 256.128 53.7601 254.208V240.128C61.0561 244.608 68.8641 246.784 77.0561 246.784C81.6641 246.784 85.2481 246.016 87.6801 244.48C90.1121 242.944 91.2641 240.768 91.2641 237.952C91.2641 235.776 90.6241 234.24 89.4721 232.96C88.3201 231.808 86.6561 230.784 84.7361 230.144C82.8161 229.376 80.5121 228.736 78.0801 228.096C74.1121 227.2 70.5281 226.048 67.4561 224.768C64.3841 223.488 61.8241 222.08 59.6481 220.416C57.4721 218.752 55.9361 216.704 54.7841 214.4C53.6321 212.096 53.1201 209.28 53.1201 205.952C53.1201 201.344 54.2721 197.376 56.7041 193.92C59.0081 190.592 62.3361 188.032 66.6881 186.24C71.0401 184.448 76.1601 183.552 82.0481 183.552C85.8881 183.552 89.7281 183.936 93.5681 184.832C97.2801 185.728 100.736 186.88 103.68 188.416V202.24C100.736 200.448 97.2801 198.912 93.4401 197.888C89.6001 196.864 85.8881 196.352 82.0481 196.352C77.8241 196.352 74.6241 197.12 72.3201 198.528C70.0161 199.936 68.8641 201.984 68.8641 204.672C68.8641 206.592 69.3761 208.128 70.5281 209.28C71.6801 210.432 73.2161 211.328 75.1361 212.096C77.1841 212.864 79.4881 213.504 82.3041 214.144C85.7601 215.04 89.0881 216.064 92.0321 217.088C94.9761 218.112 97.6641 219.52 99.9681 221.184C102.272 222.848 104.064 224.896 105.344 227.456C106.624 230.016 107.264 233.088 107.264 236.8C107.264 241.664 106.112 245.76 103.68 249.216C101.248 252.672 97.7921 255.232 93.3121 257.152C88.8321 259.072 83.2001 259.712 76.9281 259.712ZM150.4 183.424C155.904 183.424 160.896 184.32 165.376 186.112C169.856 187.904 173.696 190.464 176.896 193.792C180.096 197.12 182.528 201.088 184.192 205.824C185.856 210.56 186.752 215.808 186.752 221.696C186.752 227.456 185.856 232.704 184.192 237.44C182.528 242.176 180.096 246.144 176.896 249.472C173.696 252.8 169.856 255.36 165.376 257.152C160.896 258.944 155.904 259.84 150.4 259.84C144.896 259.84 139.904 258.944 135.424 257.152C130.944 255.36 127.104 252.8 123.904 249.472C120.704 246.144 118.272 242.048 116.608 237.44C114.944 232.704 114.048 227.456 114.048 221.696C114.048 215.808 114.944 210.56 116.608 205.824C118.272 201.088 120.704 197.12 123.904 193.792C127.104 190.464 130.944 187.904 135.424 186.112C139.904 184.32 144.896 183.424 150.4 183.424ZM150.4 246.016C154.624 246.016 158.208 244.992 161.152 243.072C164.096 241.152 166.4 238.336 168.064 234.752C169.6 231.168 170.368 226.688 170.368 221.568C170.368 216.32 169.6 211.968 168.064 208.384C166.528 204.8 164.224 201.984 161.152 200.064C158.208 198.144 154.624 197.248 150.4 197.248C146.176 197.248 142.592 198.144 139.648 200.064C136.704 201.984 134.4 204.8 132.736 208.384C131.2 211.968 130.432 216.448 130.432 221.568C130.432 226.816 131.2 231.168 132.736 234.752C134.272 238.336 136.576 241.152 139.648 243.072C142.72 244.992 146.304 246.016 150.4 246.016ZM197.248 184.96H212.992V244.48H247.68V258.176H197.248V184.96ZM259.584 184.96H310.016V198.016H275.456V213.888H306.176V226.944H275.456V244.992H312.064V258.048H259.712V184.96H259.584ZM370.944 258.176C365.568 249.6 360.192 241.152 354.816 232.576C349.312 224 343.936 215.68 338.688 207.616V258.176H323.584V184.96H339.584C345.088 193.28 350.592 201.472 355.968 209.792C361.344 218.112 366.72 226.56 371.968 235.008V184.96H387.072V258.176H370.944ZM396.8 184.96H458.624V198.656H435.584V258.176H419.84V198.656H396.8V184.96ZM117.632 277.888H136.448C141.696 277.888 146.176 278.912 149.76 280.832C153.472 282.752 156.288 285.568 158.208 289.28C160.128 292.992 161.152 297.344 161.152 302.592C161.152 307.84 160.128 312.32 158.208 315.904C156.288 319.616 153.472 322.432 149.76 324.352C146.048 326.272 141.568 327.296 136.32 327.296H117.632V277.888ZM135.808 318.208C140.416 318.208 144 316.8 146.432 314.112C148.864 311.424 150.144 307.584 150.144 302.464C150.144 297.472 148.992 293.632 146.56 290.944C144.128 288.256 140.544 286.976 135.936 286.976H128.256V318.208H135.808ZM191.616 276.864C195.328 276.864 198.784 277.504 201.728 278.656C204.8 279.808 207.36 281.6 209.408 283.776C211.584 285.952 213.248 288.768 214.4 291.84C215.552 295.04 216.192 298.496 216.192 302.464C216.192 306.432 215.552 309.888 214.4 313.088C213.248 316.288 211.584 318.976 209.408 321.28C207.232 323.584 204.672 325.248 201.728 326.4C198.656 327.552 195.328 328.192 191.616 328.192C187.904 328.192 184.448 327.552 181.504 326.4C178.432 325.248 175.872 323.456 173.824 321.28C171.648 318.976 169.984 316.288 168.832 313.088C167.68 309.888 167.04 306.304 167.04 302.464C167.04 298.496 167.552 294.912 168.832 291.84C169.984 288.64 171.648 285.952 173.824 283.776C176 281.6 178.56 279.808 181.504 278.656C184.448 277.376 187.904 276.864 191.616 276.864ZM191.616 319.104C194.432 319.104 196.864 318.464 198.912 317.184C200.96 315.904 202.496 313.984 203.52 311.552C204.544 309.12 205.056 306.176 205.056 302.592C205.056 299.136 204.544 296.064 203.52 293.632C202.496 291.2 200.96 289.28 198.912 288C196.864 286.72 194.432 286.08 191.616 286.08C188.8 286.08 186.368 286.72 184.32 288C182.272 289.28 180.736 291.2 179.712 293.632C178.688 296.064 178.176 299.008 178.176 302.592C178.176 306.048 178.688 309.12 179.712 311.552C180.736 313.984 182.272 315.904 184.32 317.184C186.368 318.336 188.8 319.104 191.616 319.104ZM233.472 309.248V327.168H222.976V277.76H241.024C247.552 277.76 252.544 279.168 256 281.856C259.456 284.544 261.248 288.512 261.248 293.504C261.248 296.832 260.48 299.52 258.944 301.824C257.408 304.128 255.232 305.92 252.288 307.2C254.336 310.528 256.384 313.728 258.432 317.056C260.48 320.384 262.528 323.712 264.576 327.168H252.288C248.96 321.024 245.504 315.136 242.048 309.248H233.472ZM233.472 300.928H240.384C243.712 300.928 246.144 300.288 247.808 299.136C249.472 297.984 250.368 296.064 250.368 293.632C250.368 291.072 249.472 289.28 247.808 288C246.144 286.848 243.712 286.208 240.384 286.208H233.344V300.928H233.472ZM285.568 328.32C282.88 328.32 280.192 328.064 277.504 327.424C274.816 326.784 272.256 325.888 269.824 324.608V315.008C274.816 317.952 279.936 319.488 285.568 319.488C288.64 319.488 291.072 318.976 292.736 317.952C294.4 316.928 295.168 315.392 295.168 313.472C295.168 312.064 294.784 310.912 294.016 310.144C293.248 309.376 292.096 308.736 290.816 308.224C289.536 307.712 288 307.328 286.336 306.816C283.648 306.176 281.216 305.408 279.168 304.64C277.12 303.872 275.328 302.848 273.92 301.696C272.512 300.544 271.36 299.264 270.72 297.6C269.952 296.064 269.568 294.144 269.568 291.84C269.568 288.768 270.336 285.952 272 283.776C273.536 281.472 275.84 279.808 278.784 278.528C281.728 277.248 285.184 276.736 289.152 276.736C291.84 276.736 294.4 276.992 296.832 277.632C299.392 278.272 301.696 279.04 303.616 280.064V289.408C301.568 288.128 299.264 287.232 296.704 286.464C294.144 285.824 291.584 285.44 289.024 285.44C286.208 285.44 284.032 285.952 282.496 286.848C280.96 287.872 280.192 289.152 280.192 290.944C280.192 292.224 280.576 293.248 281.344 294.016C282.112 294.784 283.136 295.424 284.544 295.936C285.952 296.448 287.488 296.832 289.408 297.344C291.712 297.984 293.888 298.624 295.936 299.264C297.984 300.032 299.776 300.928 301.312 301.952C302.848 303.104 304 304.512 304.896 306.176C305.792 307.84 306.176 310.016 306.176 312.448C306.176 315.776 305.408 318.464 303.744 320.896C302.08 323.2 299.776 324.992 296.704 326.272C293.504 327.68 289.92 328.32 285.568 328.32ZM312.96 277.888H347.008V286.72H323.584V297.472H344.32V306.304H323.584V318.464H348.288V327.296H312.96V277.888ZM353.536 277.888H395.264V287.104H379.776V327.296H369.152V287.104H353.536V277.888Z" fill="white"/>
</g>
<defs>
<clipPath id="clip0_3_26">
<rect width="512" height="512" fill="white"/>
</clipPath>
</defs>
</svg>
