<svg width="512" height="512" viewBox="0 0 512 512" fill="none" xmlns="http://www.w3.org/2000/svg">
<g clip-path="url(#clip0_2_231)">
<path d="M256 0C397.312 0 512 114.688 512 256C512 397.312 397.312 512 256 512C114.688 512 0 397.312 0 256C0 114.688 114.688 0 256 0Z" fill="#542582"/>
<path d="M94.8906 291.67C99.1572 290.134 102.741 287.403 105.301 283.648C107.861 279.894 109.056 275.627 108.885 271.019C109.056 267.776 108.373 264.534 107.008 261.632C105.813 259.072 103.936 257.024 101.717 255.318C99.3279 253.611 96.5972 252.246 93.6959 251.222C90.6239 250.198 87.3812 249.174 83.9679 248.32C81.2372 247.638 78.8479 246.955 76.7999 246.272C75.0932 245.76 73.3866 244.736 72.0212 243.542C70.8266 242.347 70.3146 240.64 70.3146 238.934C70.3146 236.374 71.5092 233.984 73.7279 232.79C76.7999 231.254 80.0426 230.4 83.4559 230.571C87.3812 230.571 91.1359 231.083 94.8906 232.107C98.4746 233.131 101.888 234.496 105.131 236.374V222.379C101.888 220.843 98.4746 219.648 94.8906 218.795C91.1359 217.942 87.2106 217.43 83.2852 217.43C77.9946 217.259 72.7039 218.283 67.7546 220.16C63.6586 221.696 60.2452 224.427 57.6852 228.011C55.2959 231.595 53.9306 235.862 54.1012 240.128C54.1012 243.03 54.6132 245.931 55.8079 248.662C57.0026 251.051 58.5386 253.099 60.5866 254.806C62.9759 256.683 65.7066 258.048 68.4372 259.243C71.8506 260.608 75.6052 261.632 79.1892 262.486C81.4079 262.998 83.6266 263.68 85.8452 264.534C87.7226 265.216 89.2586 266.07 90.6239 267.435C91.8186 268.8 92.5012 270.678 92.5012 272.384C92.5012 275.115 91.1359 277.675 88.9172 279.04C85.6746 280.747 81.9199 281.6 78.1652 281.43C69.8026 281.43 61.7812 279.04 54.7839 274.774V289.11C58.3679 290.987 62.2932 292.523 66.2186 293.376C70.1439 294.23 74.2399 294.742 78.1652 294.742C84.1386 294.571 89.7706 293.718 94.8906 291.67ZM137.387 220.16C132.949 221.867 129.024 224.427 125.781 227.84C122.539 231.254 119.979 235.35 118.443 239.958C115.029 250.368 115.029 261.462 118.443 271.872C119.979 276.48 122.539 280.576 125.781 283.99C129.024 287.403 132.949 289.963 137.387 291.67C147.115 295.254 157.867 295.254 167.595 291.67C172.032 289.963 175.957 287.403 179.2 283.99C182.443 280.406 185.003 276.31 186.539 271.872C189.952 261.462 189.952 250.368 186.539 239.958C185.003 235.52 182.443 231.424 179.2 227.84C175.957 224.427 172.032 221.867 167.595 220.16C157.867 216.576 147.115 216.576 137.387 220.16ZM141.653 277.675C138.581 275.627 136.192 272.726 134.656 269.312C131.413 260.779 131.413 251.222 134.656 242.688C136.021 239.275 138.411 236.374 141.653 234.326C148.309 230.4 156.672 230.4 163.328 234.326C166.4 236.374 168.789 239.275 170.325 242.688C173.568 251.222 173.568 260.779 170.325 269.312C168.96 272.726 166.571 275.627 163.328 277.675C156.672 281.6 148.309 281.6 141.653 277.675ZM199.509 292.864H250.368V279.04H215.381V218.966H199.509V292.864ZM260.096 292.864H312.832V279.723H275.968V261.632H307.029V248.491H275.968V232.448H310.955V219.307H260.096V292.864ZM387.413 292.864V218.966H372.053V269.654C366.763 261.12 361.301 252.587 355.84 244.224C350.379 235.862 344.917 227.499 339.285 219.136H323.243V293.035H338.603V242.006C343.893 250.198 349.355 258.56 354.987 267.094C360.448 275.798 365.909 284.331 371.371 293.035H387.413V292.864ZM395.605 232.96H418.816V293.035H434.688V232.96H457.899V219.136H395.605V232.96Z" fill="white"/>
</g>
<defs>
<clipPath id="clip0_2_231">
<rect width="512" height="512" fill="white"/>
</clipPath>
</defs>
</svg>
