<svg width="512" height="512" viewBox="0 0 512 512" fill="none" xmlns="http://www.w3.org/2000/svg">
<g clip-path="url(#clip0_3_29)">
<path d="M256 512C397.385 512 512 397.385 512 256C512 114.615 397.385 0 256 0C114.615 0 0 114.615 0 256C0 397.385 114.615 512 256 512Z" fill="#542582"/>
<path d="M77.9945 283.136C81.2371 281.941 83.9678 279.893 85.8451 277.162C87.7225 274.432 88.7465 271.018 88.5758 267.605C88.5758 265.216 88.2345 262.656 87.0398 260.437C86.0158 258.56 84.6505 256.853 82.9438 255.658C81.0664 254.293 79.0185 253.269 76.7998 252.586C74.5811 251.733 72.0211 251.05 69.2904 250.368C67.2424 249.856 65.3651 249.344 63.8291 248.832C62.4638 248.49 61.2691 247.637 60.2451 246.784C59.3918 245.76 58.8798 244.565 59.0504 243.37C59.0504 241.493 60.0744 239.616 61.6104 238.592C63.8291 237.397 66.3891 236.714 68.9491 236.885C71.8505 236.885 74.9225 237.226 77.6531 238.08C80.3838 238.762 83.1144 239.957 85.5038 241.322V230.57C83.1144 229.376 80.3838 228.522 77.6531 227.84C74.7518 227.157 71.8505 226.816 68.9491 226.816C64.8531 226.645 60.9278 227.498 57.1731 228.864C54.1011 230.058 51.5411 232.106 49.4931 234.837C47.6158 237.568 46.7625 240.81 46.7625 244.053C46.7625 246.272 47.1038 248.49 47.9571 250.538C48.8105 252.416 50.0051 253.952 51.7118 255.146C53.5891 256.512 55.4665 257.706 57.6851 258.56C60.4158 259.584 63.1465 260.437 65.8771 261.12C67.5838 261.461 69.2904 261.973 70.9971 262.656C72.3624 263.168 73.5571 263.85 74.5811 264.874C75.6051 265.898 76.1171 267.264 75.9465 268.629C75.9465 270.677 74.9225 272.554 73.2158 273.578C70.6558 274.944 67.9251 275.626 65.0238 275.456C58.7091 275.456 52.5651 273.749 47.2745 270.336V281.088C50.0051 282.624 52.9065 283.648 55.9785 284.33C59.0505 285.013 62.1225 285.354 65.1945 285.354C69.8025 285.354 74.0691 284.672 77.9945 283.136ZM110.592 228.864C107.349 230.229 104.277 232.106 101.888 234.666C99.3278 237.226 97.4505 240.469 96.2558 243.882C93.6958 251.733 93.6958 260.266 96.2558 268.117C97.4505 271.53 99.3278 274.773 101.888 277.333C104.277 279.893 107.349 281.941 110.592 283.136C117.93 285.866 126.122 285.866 133.632 283.136C136.874 281.77 139.946 279.893 142.336 277.333C144.896 274.602 146.773 271.53 147.968 268.117C150.528 260.266 150.528 251.733 147.968 243.882C146.773 240.469 144.896 237.397 142.336 234.666C139.946 232.106 136.874 230.058 133.632 228.864C126.122 226.133 117.93 226.133 110.592 228.864ZM113.834 272.554C111.445 271.018 109.568 268.8 108.544 266.24C106.154 259.754 106.154 252.586 108.544 245.93C109.568 243.37 111.445 241.152 113.834 239.616C118.954 236.714 125.269 236.714 130.389 239.616C132.778 241.152 134.656 243.37 135.68 245.93C138.069 252.416 138.069 259.584 135.68 266.24C134.656 268.8 132.778 271.018 130.389 272.554C125.269 275.456 118.954 275.456 113.834 272.554ZM191.488 273.578L198.144 259.754C200.362 255.146 202.581 250.538 204.629 245.76V283.989H216.234V227.84H202.069C199.68 233.642 197.12 239.445 194.56 245.077C192 250.709 189.44 256.341 186.709 261.973C183.978 256.341 181.418 250.709 178.858 244.906C176.298 239.104 173.738 233.472 171.349 227.669H157.184V283.818H168.789V245.76C171.008 250.368 173.056 254.976 175.274 259.584C177.493 264.192 179.712 268.8 182.101 273.408L191.488 273.578ZM225.962 283.989H266.069V273.92H238.08V260.096H261.632V250.026H238.08V237.909H264.533V227.84H225.962V283.989ZM293.546 263.68H294.741C298.837 270.336 302.592 277.162 306.346 284.16H320.17C317.952 280.234 315.562 276.48 313.344 272.725C311.125 268.97 308.736 265.216 306.346 261.461C309.418 260.266 311.978 258.048 313.856 255.488C315.733 252.586 316.586 249.344 316.416 245.93C316.757 240.81 314.538 235.861 310.442 232.618C306.517 229.546 300.885 228.01 293.376 228.01H272.896V284.16H284.842V263.68H293.546ZM285.013 237.397H292.864C295.765 237.226 298.837 237.909 301.226 239.445C303.274 240.981 304.298 243.37 304.128 245.76C304.298 248.149 303.274 250.538 301.226 252.074C298.666 253.61 295.765 254.293 292.693 254.122H284.842L285.013 237.397ZM354.986 283.136C358.229 281.941 360.96 279.893 362.837 277.162C364.714 274.432 365.738 271.018 365.568 267.605C365.568 265.216 365.226 262.656 364.032 260.437C363.008 258.56 361.642 256.853 359.936 255.658C358.058 254.293 356.01 253.269 353.792 252.586C351.573 251.733 349.013 251.05 346.282 250.368C344.234 249.856 342.357 249.344 340.821 248.832C339.456 248.49 338.261 247.637 337.237 246.784C336.384 245.76 335.872 244.565 336.042 243.37C336.042 241.493 337.066 239.616 338.602 238.592C340.821 237.397 343.381 236.714 345.941 236.885C348.842 236.885 351.914 237.226 354.645 238.08C357.376 238.762 359.936 239.957 362.496 241.322V230.57C360.106 229.376 357.376 228.522 354.645 227.84C351.744 227.157 348.842 226.816 345.941 226.816C341.845 226.645 337.92 227.498 334.165 228.864C331.093 230.058 328.533 232.106 326.485 234.837C324.608 237.568 323.754 240.81 323.754 244.053C323.754 246.272 324.096 248.49 324.949 250.538C325.802 252.416 326.997 253.952 328.704 255.146C330.581 256.512 332.458 257.706 334.677 258.56C337.408 259.584 340.138 260.437 342.869 261.12C344.576 261.461 346.282 261.973 347.989 262.656C349.354 263.168 350.549 263.85 351.573 264.874C352.597 265.898 353.109 267.264 352.938 268.629C352.938 270.677 351.914 272.554 350.208 273.578C347.648 274.944 344.917 275.626 342.016 275.456C335.701 275.456 329.557 273.749 324.266 270.336V281.088C326.997 282.624 329.898 283.648 332.97 284.33C336.042 285.013 339.114 285.354 342.186 285.354C346.794 285.354 351.232 284.672 354.986 283.136ZM372.906 283.989H413.013V273.92H385.024V260.096H408.576V250.026H385.024V237.909H411.477V227.84H372.906V283.989ZM417.792 238.421H435.541V283.989H447.658V238.421H465.237V227.84H417.792V238.421Z" fill="white"/>
</g>
<defs>
<clipPath id="clip0_3_29">
<rect width="512" height="512" fill="white"/>
</clipPath>
</defs>
</svg>
