<svg width="512" height="512" viewBox="0 0 512 512" fill="none" xmlns="http://www.w3.org/2000/svg">
<g clip-path="url(#clip0_2_241)">
<path d="M256 0C397.312 0 512 114.688 512 256C512 397.312 397.312 512 256 512C114.688 512 0 397.312 0 256C0 114.688 114.688 0 256 0Z" fill="#542582"/>
<path d="M116.053 295.595C120.661 293.888 124.757 290.816 127.658 286.72C130.389 282.624 131.754 277.845 131.584 272.896C131.754 269.312 130.901 265.728 129.536 262.485C128.17 259.755 126.122 257.365 123.562 255.488C120.832 253.611 117.93 252.075 114.688 251.051C111.274 249.856 107.69 248.832 103.765 247.808C100.693 247.125 98.1331 246.272 95.7438 245.419C93.8665 244.736 91.9891 243.712 90.6238 242.347C89.4291 240.981 88.7465 239.104 88.7465 237.227C88.5758 234.325 90.1118 231.765 92.5011 230.4C95.7438 228.693 99.4985 227.84 103.253 228.011C107.52 228.011 111.786 228.523 116.053 229.717C119.978 230.741 123.904 232.448 127.488 234.496V218.965C123.904 217.259 120.149 215.893 116.224 215.04C111.957 214.016 107.69 213.504 103.424 213.504C97.6211 213.333 91.8185 214.357 86.3571 216.576C81.9198 218.283 77.9945 221.355 75.2638 225.28C72.5331 229.205 71.1678 233.813 71.3385 238.592C71.3385 241.835 71.8505 245.077 73.2158 247.979C74.4105 250.539 76.2878 252.928 78.5065 254.805C81.2371 256.853 84.1385 258.389 87.2105 259.584C91.1358 261.12 95.0611 262.315 99.1571 263.168C101.717 263.851 104.106 264.533 106.666 265.387C108.714 266.069 110.421 267.093 111.957 268.629C113.322 270.165 114.005 272.213 114.005 274.091C114.005 277.163 112.469 279.893 109.909 281.429C107.178 283.136 103.253 283.989 98.1331 283.989C88.9171 283.989 80.0425 281.429 72.1918 276.48V292.181C76.1171 294.229 80.3838 295.936 84.8211 296.789C89.2585 297.813 93.6958 298.325 98.1331 298.325C104.106 298.667 110.25 297.643 116.053 295.595ZM136.533 230.4H162.304V296.789H179.882V230.4H205.653V215.04H136.533V230.4ZM232.277 216.405C227.498 218.283 223.061 221.184 219.477 224.939C215.893 228.693 212.992 233.301 211.285 238.251C207.53 249.685 207.53 262.144 211.285 273.579C212.992 278.528 215.893 283.136 219.477 287.061C223.061 290.816 227.498 293.717 232.277 295.595C243.082 299.52 254.923 299.52 265.728 295.595C270.506 293.717 274.944 290.816 278.528 287.061C282.112 283.136 285.013 278.528 286.72 273.579C290.474 262.144 290.474 249.685 286.72 238.251C285.013 233.301 282.112 228.693 278.528 224.939C274.944 221.184 270.506 218.283 265.728 216.405C254.976 212.48 243.2 212.48 232.277 216.405ZM237.056 280.064C233.642 277.845 230.912 274.603 229.376 270.677C225.792 261.12 225.792 250.709 229.376 241.152C230.912 237.397 233.642 234.155 237.056 231.936C244.565 227.669 253.61 227.669 261.12 231.936C264.533 234.155 267.264 237.397 268.8 241.152C272.384 250.709 272.384 261.12 268.8 270.677C267.264 274.432 264.533 277.675 261.12 280.064C253.61 284.331 244.565 284.331 237.056 280.064ZM336.213 279.381C340.992 285.013 345.77 290.987 350.549 296.789H372.906C366.592 289.28 360.448 282.112 354.304 274.944C348.16 267.776 342.016 260.779 335.701 253.611C341.504 247.125 347.306 240.64 352.938 234.325C358.57 228.011 364.202 221.525 369.664 215.04H348.501C344.234 220.331 339.797 225.621 335.36 230.741C330.922 235.861 326.314 241.152 321.365 246.613H316.757V214.869H299.178V296.619H316.757V261.461H321.024C326.314 267.776 331.434 273.579 336.213 279.381ZM382.293 296.789H440.661V282.112H399.872V261.973H434.176V247.467H399.872V229.717H438.613V215.04H382.293V296.789Z" fill="white"/>
</g>
<defs>
<clipPath id="clip0_2_241">
<rect width="512" height="512" fill="white"/>
</clipPath>
</defs>
</svg>
