<svg width="512" height="512" viewBox="0 0 512 512" fill="none" xmlns="http://www.w3.org/2000/svg">
<g clip-path="url(#clip0_2_247)">
<path d="M256 0C397.312 0 512 114.688 512 256C512 397.312 397.312 512 256 512C114.688 512 0 397.312 0 256C0 114.688 114.688 0 256 0Z" fill="#542582"/>
<path d="M87.7228 287.232C91.3068 285.867 94.5494 283.478 96.7681 280.235C98.9868 276.992 100.011 273.238 99.8401 269.312C100.011 266.411 99.3281 263.68 98.1334 261.12C97.1094 258.902 95.4028 257.024 93.5254 255.659C91.3068 254.123 89.0881 252.928 86.5281 252.075C83.7974 251.222 81.0668 250.368 77.9948 249.515C75.6054 248.832 73.5574 248.32 71.6801 247.638C70.1441 247.126 68.7788 246.272 67.5841 245.248C66.5601 244.224 66.0481 242.688 66.2188 241.152C66.2188 238.934 67.2428 236.886 69.2908 235.691C71.8508 234.326 74.9228 233.643 77.8241 233.814C81.2374 233.814 84.6508 234.326 87.8934 235.179C90.9654 236.032 94.0374 237.227 96.9388 238.934V226.646C94.0374 225.28 91.1361 224.256 88.0641 223.574C84.8214 222.72 81.4081 222.379 77.9948 222.379C73.3868 222.208 68.7788 223.062 64.5121 224.768C60.9281 226.134 57.8561 228.523 55.6374 231.595C53.5894 234.667 52.3948 238.422 52.5654 242.176C52.5654 244.736 52.9068 247.296 53.9308 249.686C54.9548 251.734 56.3201 253.611 58.1974 254.976C60.2454 256.512 62.6348 257.878 65.0241 258.731C68.0961 259.926 71.1681 260.95 74.4108 261.632C76.4588 262.144 78.3361 262.656 80.2134 263.339C81.7494 263.851 83.2854 264.704 84.4801 265.899C85.5041 267.094 86.1868 268.63 86.0161 270.336C86.0161 272.726 84.8214 274.944 82.7734 276.139C79.8721 277.675 76.6294 278.358 73.3868 278.187C66.2188 278.187 59.0508 276.139 52.9068 272.384V284.843C55.9788 286.55 59.3921 287.744 62.8054 288.598C66.2188 289.451 69.8028 289.792 73.3868 289.792C78.1654 289.792 83.1148 288.939 87.7228 287.232ZM150.699 286.379C154.795 284.331 158.037 280.918 160.256 276.822C162.645 272.214 163.669 267.094 163.499 261.803V223.744H149.675V263.339C150.016 267.094 148.651 271.019 146.091 273.92C140.288 278.87 131.755 278.87 125.781 273.92C123.221 271.019 122.027 267.264 122.197 263.339V223.744H108.373V261.803C108.203 266.923 109.397 272.214 111.616 276.822C113.664 280.918 117.077 284.16 121.003 286.379C130.389 290.646 141.312 290.646 150.699 286.379ZM175.275 288.256H189.099V262.656H214.869V251.051H189.269V235.179H218.283V223.574H175.275V288.256ZM227.157 288.256H240.981V262.656H266.752V251.051H240.981V235.179H270.165V223.574H227.157V288.256ZM294.4 224.768C290.645 226.304 287.061 228.523 284.331 231.424C281.429 234.496 279.211 238.08 277.845 242.006C274.773 251.051 274.773 260.779 277.845 269.824C279.211 273.75 281.429 277.334 284.331 280.406C287.232 283.307 290.645 285.696 294.4 287.232C302.933 290.304 312.32 290.304 320.853 287.232C324.608 285.696 328.192 283.478 330.923 280.406C333.824 277.334 336.043 273.75 337.408 269.824C340.48 260.779 340.48 251.051 337.408 242.006C336.043 238.08 333.824 234.496 330.923 231.424C328.021 228.523 324.608 226.134 320.853 224.768C312.32 221.696 302.933 221.696 294.4 224.768ZM298.155 274.944C295.424 273.238 293.376 270.678 292.181 267.606C289.451 260.096 289.451 251.904 292.181 244.395C293.376 241.323 295.595 238.934 298.155 237.056C303.957 233.643 311.296 233.643 317.099 237.056C319.829 238.763 321.877 241.323 323.072 244.395C325.803 251.904 325.803 260.096 323.072 267.606C321.877 270.678 319.659 273.238 317.099 274.944C311.296 278.358 303.957 278.358 298.155 274.944ZM348.672 288.256H393.216V276.139H362.667V223.744H348.843V288.256H348.672ZM430.251 274.432C434.005 278.87 437.76 283.478 441.685 288.256H459.435C454.485 282.283 449.536 276.651 444.757 271.019C439.979 265.387 435.029 259.755 430.08 254.123C434.688 249.003 439.296 243.883 443.733 238.934C448.171 233.984 452.608 228.864 456.875 223.744H440.149C436.736 228.011 433.323 232.107 429.739 236.203C426.155 240.299 422.571 244.395 418.645 248.832H415.061V223.915H401.237V288.427H415.061V260.608H418.475C422.571 265.216 426.496 269.995 430.251 274.432Z" fill="white"/>
</g>
<defs>
<clipPath id="clip0_2_247">
<rect width="512" height="512" fill="white"/>
</clipPath>
</defs>
</svg>
