<svg width="512" height="512" viewBox="0 0 512 512" fill="none" xmlns="http://www.w3.org/2000/svg">
<g clip-path="url(#clip0_2_250)">
<path d="M256 512C397.385 512 512 397.385 512 256C512 114.615 397.385 0 256 0C114.615 0 0 114.615 0 256C0 397.385 114.615 512 256 512Z" fill="#542582"/>
<path d="M93.696 291.157C97.792 289.621 101.376 286.89 103.936 283.306C106.325 279.722 107.691 275.285 107.52 271.018C107.691 267.776 107.008 264.704 105.643 261.802C104.448 259.413 102.571 257.194 100.352 255.658C97.9627 253.952 95.232 252.586 92.5014 251.733C89.6 250.709 86.3574 249.685 82.7734 248.832C80.0427 248.149 77.6534 247.466 75.776 246.784C74.0694 246.272 72.5334 245.248 71.168 244.053C69.9734 242.858 69.4614 241.152 69.4614 239.616C69.4614 237.056 70.656 234.837 72.8747 233.472C75.776 231.936 79.1894 231.082 82.432 231.424C86.1867 231.424 90.112 231.936 93.696 232.96C97.28 233.813 100.693 235.349 103.765 237.226V223.402C100.523 221.866 97.1094 220.672 93.696 219.818C89.9414 218.965 86.1867 218.453 82.2614 218.453C77.1414 218.282 71.8507 219.306 67.072 221.184C63.1467 222.72 59.7334 225.45 57.1734 228.864C54.784 232.277 53.5894 236.544 53.5894 240.81C53.5894 243.712 54.1014 246.613 55.296 249.173C56.32 251.562 58.0267 253.61 60.0747 255.146C62.464 257.024 65.024 258.389 67.7547 259.413C71.168 260.778 74.752 261.802 78.336 262.656C80.5547 263.168 82.7734 263.85 84.992 264.704C86.6987 265.216 88.4054 266.24 89.7707 267.605C90.9654 268.97 91.648 270.677 91.4774 272.554C91.4774 275.285 90.112 277.674 87.8934 279.04C84.6507 280.746 81.0667 281.6 77.312 281.429C69.12 281.429 61.0987 279.21 54.272 274.773V288.768C57.856 290.645 61.6107 292.01 65.536 292.864C69.4614 293.717 73.3867 294.229 77.312 294.229C83.1147 293.888 88.576 293.034 93.696 291.157ZM165.888 290.133C170.496 287.744 174.251 283.989 176.64 279.381C179.2 274.09 180.565 268.288 180.395 262.485V219.648H164.693V264.192C164.693 269.312 163.328 273.237 160.768 275.968C154.112 281.429 144.555 281.429 137.899 275.968C135.168 273.237 133.803 269.312 133.803 264.192V219.648H118.101V262.485C117.931 268.288 119.125 274.09 121.856 279.381C124.245 283.989 128 287.744 132.437 290.133C143.189 295.082 155.307 295.082 165.888 290.133ZM220.843 265.898H222.379C227.669 274.602 232.619 283.306 237.568 292.352H255.488C252.587 287.232 249.515 282.282 246.613 277.504C243.712 272.725 240.64 267.776 237.568 262.997C241.493 261.461 244.907 258.73 247.296 255.146C249.685 251.562 250.88 247.125 250.709 242.858C250.709 235.349 248.149 229.717 243.029 225.621C237.909 221.696 230.571 219.648 221.013 219.648H194.56V292.181H209.92V265.728H220.843V265.898ZM209.92 231.936H220.16C224.939 231.936 228.523 232.789 231.083 234.496C233.643 236.373 235.008 239.445 234.837 242.688C235.008 245.93 233.643 249.002 231.083 250.88C227.84 252.757 223.915 253.781 220.16 253.44H209.92V231.936ZM289.792 265.898H291.328C296.619 274.602 301.568 283.306 306.517 292.352H324.437C321.536 287.232 318.464 282.282 315.563 277.504C312.661 272.725 309.589 267.776 306.517 262.997C310.443 261.461 313.856 258.73 316.245 255.146C318.635 251.562 319.829 247.125 319.659 242.858C319.659 235.349 317.099 229.717 311.979 225.621C306.859 221.696 299.52 219.648 289.963 219.648H263.509V292.181H278.869V265.728H289.792V265.898ZM278.869 231.936H289.109C293.888 231.936 297.472 232.789 300.032 234.496C302.592 236.373 303.957 239.445 303.787 242.688C303.957 245.93 302.592 249.002 300.032 250.88C296.789 252.757 292.864 253.781 289.109 253.44H279.04L278.869 231.936ZM332.288 292.352H384.171V279.381H347.989V261.461H378.368V248.49H347.989V232.789H382.293V219.818H332.288V292.352ZM444.757 242.346C449.365 234.837 453.803 227.328 458.24 219.648H440.832C437.931 224.938 435.029 230.4 432.128 235.69C429.227 240.981 426.155 246.272 423.253 251.562C420.352 246.272 417.28 241.152 414.379 235.69C411.477 230.4 408.576 224.938 405.845 219.648H388.096C392.363 227.157 396.8 234.837 401.408 242.346C406.016 249.856 410.624 257.365 415.232 264.704V292.181H430.933V264.704C435.541 257.365 440.149 249.856 444.757 242.346Z" fill="white"/>
</g>
<defs>
<clipPath id="clip0_2_250">
<rect width="512" height="512" fill="white"/>
</clipPath>
</defs>
</svg>
