<svg width="512" height="512" viewBox="0 0 512 512" fill="none" xmlns="http://www.w3.org/2000/svg">
<g clip-path="url(#clip0_2_244)">
<path d="M256 512C397.385 512 512 397.385 512 256C512 114.615 397.385 0 256 0C114.615 0 0 114.615 0 256C0 397.385 114.615 512 256 512Z" fill="#542582"/>
<path d="M96.256 292.693C100.523 291.157 104.277 288.256 107.008 284.501C109.568 280.746 110.763 276.138 110.763 271.701C110.933 268.458 110.251 265.045 108.885 262.144C107.691 259.584 105.643 257.365 103.424 255.658C100.864 253.952 98.1334 252.416 95.232 251.392C92.16 250.368 88.7467 249.344 85.1627 248.32C82.2614 247.637 79.872 246.954 77.824 246.101C75.9467 245.589 74.4107 244.565 73.0453 243.2C71.8507 242.005 71.3387 240.298 71.3387 238.421C71.3387 235.861 72.704 233.301 74.9227 232.106C77.9947 230.4 81.408 229.717 84.992 229.888C88.9174 229.888 93.0134 230.4 96.768 231.424C100.523 232.448 103.936 233.813 107.349 235.861V221.525C103.936 219.818 100.523 218.624 96.9387 217.77C93.0133 216.917 89.088 216.405 85.1627 216.405C79.7014 216.234 74.4107 217.258 69.2907 219.136C65.1947 220.842 61.6107 223.573 59.0507 227.157C56.4907 230.741 55.296 235.178 55.4667 239.616C55.4667 242.688 55.9787 245.589 57.1734 248.32C58.368 250.709 60.0747 252.928 62.1227 254.634C64.512 256.512 67.2427 258.048 70.144 259.072C73.728 260.437 77.4827 261.632 81.2373 262.485C83.6267 262.997 85.8453 263.68 88.064 264.533C89.9413 265.216 91.648 266.24 93.0134 267.434C94.3787 268.8 94.8907 270.677 94.8907 272.554C94.8907 275.285 93.5254 277.845 91.136 279.381C87.7227 281.258 83.968 282.112 80.2134 281.77C71.68 281.77 63.3174 279.381 56.1494 274.944V289.621C59.904 291.498 63.8293 293.034 67.9253 293.888C72.0213 294.741 76.1173 295.253 80.2134 295.253C85.1627 295.594 90.9654 294.57 96.256 292.693ZM169.813 291.498C174.592 288.938 178.517 285.184 180.907 280.405C183.637 274.944 185.003 268.97 184.832 262.826V218.112H168.448V264.533C168.448 269.824 167.083 274.09 164.352 276.821C161.621 279.722 157.525 281.088 152.405 281.088C147.285 281.088 143.36 279.722 140.459 276.821C137.728 273.92 136.192 269.824 136.192 264.533V218.112H119.808V262.826C119.637 268.97 121.003 274.944 123.733 280.405C126.293 285.184 130.048 289.109 134.827 291.498C146.091 296.789 158.891 296.789 169.813 291.498ZM236.544 292.693C240.811 291.157 244.565 288.256 247.296 284.501C249.856 280.746 251.051 276.138 251.051 271.701C251.221 268.458 250.539 265.045 249.173 262.144C247.979 259.584 245.931 257.365 243.712 255.658C241.152 253.952 238.421 252.416 235.52 251.392C232.448 250.368 229.035 249.344 225.451 248.32C222.549 247.637 220.16 246.954 218.112 246.101C216.235 245.589 214.699 244.565 213.333 243.2C212.139 242.005 211.627 240.298 211.627 238.421C211.627 235.861 212.992 233.301 215.211 232.106C218.283 230.4 221.696 229.717 225.28 229.888C229.205 229.888 233.301 230.4 237.056 231.424C240.811 232.448 244.224 233.813 247.637 235.861V221.525C244.224 219.818 240.811 218.624 237.227 217.77C233.301 216.917 229.376 216.405 225.451 216.405C219.989 216.234 214.699 217.258 209.579 219.136C205.483 220.842 201.899 223.573 199.339 227.157C196.779 230.741 195.584 235.178 195.755 239.616C195.755 242.688 196.267 245.589 197.461 248.32C198.656 250.709 200.363 252.928 202.411 254.634C204.8 256.512 207.531 258.048 210.432 259.072C214.016 260.437 217.771 261.632 221.525 262.485C223.915 262.997 226.133 263.68 228.352 264.533C230.229 265.216 231.936 266.24 233.301 267.434C234.667 268.8 235.179 270.677 235.179 272.554C235.179 275.285 233.813 277.845 231.424 279.381C228.011 281.258 224.256 282.112 220.501 281.77C211.968 281.77 203.605 279.381 196.437 274.944V289.621C200.192 291.498 204.117 293.034 208.213 293.888C212.309 294.741 216.405 295.253 220.501 295.253C225.451 295.594 231.253 294.57 236.544 292.693ZM300.544 292.693C304.811 291.157 308.565 288.256 311.296 284.501C313.856 280.746 315.051 276.138 315.051 271.701C315.221 268.458 314.539 265.045 313.173 262.144C311.979 259.584 309.931 257.365 307.712 255.658C305.152 253.952 302.421 252.416 299.52 251.392C296.448 250.368 293.035 249.344 289.451 248.32C286.549 247.637 284.16 246.954 282.112 246.101C280.235 245.589 278.699 244.565 277.333 243.2C276.139 242.005 275.627 240.298 275.627 238.421C275.627 235.861 276.992 233.301 279.211 232.106C282.283 230.4 285.696 229.717 289.28 229.888C293.205 229.888 297.301 230.4 301.056 231.424C304.811 232.448 308.224 233.813 311.637 235.861V221.525C308.224 219.818 304.811 218.624 301.227 217.77C297.301 216.917 293.376 216.405 289.451 216.405C283.989 216.234 278.699 217.258 273.579 219.136C269.483 220.842 265.899 223.573 263.339 227.157C260.779 230.741 259.584 235.178 259.755 239.616C259.755 242.688 260.267 245.589 261.461 248.32C262.656 250.709 264.363 252.928 266.411 254.634C268.8 256.512 271.531 258.048 274.432 259.072C278.016 260.437 281.771 261.632 285.525 262.485C287.915 262.997 290.133 263.68 292.352 264.533C294.229 265.216 295.936 266.24 297.301 267.434C298.667 268.8 299.179 270.677 299.179 272.554C299.179 275.285 297.813 277.845 295.424 279.381C292.011 281.258 288.256 282.112 284.501 281.77C275.968 281.77 267.605 279.381 260.437 274.944V289.621C264.192 291.498 268.117 293.034 272.213 293.888C276.309 294.741 280.405 295.253 284.501 295.253C289.451 295.594 295.253 294.57 300.544 292.693ZM325.632 293.888H379.733V280.405H342.016V261.802H373.76V248.32H342.016V231.936H377.856V218.453H325.803L325.632 293.888ZM457.216 293.888C453.12 287.232 448.853 280.576 444.416 274.09C439.979 267.605 435.541 260.949 431.104 254.464C435.2 248.49 439.296 242.517 443.392 236.373C447.317 230.229 451.243 224.256 455.168 218.112H436.224C433.835 222.378 431.445 226.474 429.056 230.57C426.667 234.666 424.107 238.762 421.547 242.688C418.987 238.592 416.427 234.666 414.037 230.4C411.648 226.304 409.259 222.208 406.869 217.941H387.584C391.339 224.085 395.264 230.058 399.36 236.202C403.456 242.346 407.552 248.49 411.819 254.464C407.211 260.949 402.603 267.605 398.336 274.09C394.069 280.576 389.803 287.061 385.536 293.717H404.48C407.04 289.109 409.771 284.33 412.501 279.722C415.403 275.114 418.304 270.336 421.205 265.728L429.909 279.552C432.811 284.16 435.371 288.938 438.101 293.546L457.216 293.888Z" fill="white"/>
</g>
<defs>
<clipPath id="clip0_2_244">
<rect width="512" height="512" fill="white"/>
</clipPath>
</defs>
</svg>
