<svg width="512" height="512" viewBox="0 0 512 512" fill="none" xmlns="http://www.w3.org/2000/svg">
<g clip-path="url(#clip0_3_32)">
<path d="M256 512C397.385 512 512 397.385 512 256C512 114.615 397.385 0 256 0C114.615 0 0 114.615 0 256C0 397.385 114.615 512 256 512Z" fill="#542582"/>
<path d="M118.784 230.401H144.555V296.79H162.133V230.401H187.733V215.041H118.613V230.401H118.784ZM198.485 296.79H256.853V282.113H216.064V261.974H250.368V247.467H216.064V229.718H254.635V215.041H198.315L198.485 296.79ZM267.776 296.79H326.144V282.113H285.355V261.974H319.659V247.467H285.355V229.718H323.925V215.041H267.605L267.776 296.79ZM379.733 295.595C384.341 293.889 388.437 290.817 391.339 286.721C394.069 282.625 395.435 277.846 395.264 272.897C395.435 269.313 394.581 265.729 393.216 262.486C391.851 259.755 389.803 257.366 387.243 255.489C384.512 253.611 381.611 252.075 378.368 251.051C374.955 249.857 371.371 248.833 367.445 247.809C364.373 247.126 361.813 246.273 359.424 245.419C357.547 244.737 355.669 243.713 354.304 242.347C353.109 240.982 352.427 239.105 352.427 237.227C352.256 234.326 353.792 231.766 356.181 230.401C359.424 228.694 363.179 227.841 366.933 228.011C371.2 228.011 375.467 228.523 379.733 229.718C383.659 230.742 387.584 232.449 391.168 234.497V218.966C387.584 217.259 383.829 215.894 379.904 215.041C375.637 214.017 371.371 213.505 367.104 213.505C361.301 213.334 355.499 214.358 350.037 216.577C345.6 218.283 341.675 221.355 338.944 225.281C336.213 229.206 334.848 233.814 335.019 238.593C335.019 241.835 335.531 245.078 336.896 247.979C338.091 250.539 339.968 252.929 342.187 254.806C344.917 256.854 347.819 258.39 350.891 259.585C354.816 261.121 358.741 262.315 362.837 263.169C365.397 263.851 367.787 264.534 370.347 265.387C372.395 266.07 374.101 267.094 375.637 268.63C377.003 270.166 377.685 272.214 377.685 274.091C377.685 277.163 376.149 279.894 373.589 281.43C370.859 283.137 366.933 283.99 361.813 283.99C352.597 283.99 343.723 281.43 335.872 276.481V292.182C339.797 294.23 344.064 295.937 348.501 296.79C352.939 297.814 357.376 298.326 361.813 298.326C367.787 298.667 373.931 297.643 379.733 295.595Z" fill="white"/>
</g>
<defs>
<clipPath id="clip0_3_32">
<rect width="512" height="512" fill="white"/>
</clipPath>
</defs>
</svg>
