<svg width="512" height="512" viewBox="0 0 512 512" fill="none" xmlns="http://www.w3.org/2000/svg">
<g clip-path="url(#clip0_2_255)">
<path d="M256 512C397.385 512 512 397.385 512 256C512 114.615 397.385 0 256 0C114.615 0 0 114.615 0 256C0 397.385 114.615 512 256 512Z" fill="#542582"/>
<path d="M119.979 184.32H169.984V195.414H151.381V243.542H138.581V195.414H119.979V184.32ZM216.064 243.542V218.112H190.293V243.542H177.493V184.32H190.293V207.019H216.064V184.32H228.864V243.542H216.064ZM253.952 222.038V243.542H241.323V184.32H262.997C270.848 184.32 276.821 186.027 280.917 189.27C288.597 195.926 289.28 207.531 282.624 215.04C280.917 216.918 278.869 218.624 276.48 219.648C279.04 223.574 281.429 227.499 283.819 231.424C286.208 235.35 288.597 239.446 291.157 243.542H276.48C272.555 236.203 268.459 229.035 264.192 222.038H253.952ZM253.952 211.968H262.315C265.387 212.139 268.629 211.456 271.189 209.92C273.237 208.384 274.432 205.824 274.261 203.264C274.432 200.704 273.237 198.144 271.189 196.608C268.459 195.072 265.387 194.219 262.315 194.39H253.952V211.968ZM298.496 184.32H339.285V194.902H311.296V207.702H336.213V218.283H311.296V232.79H340.821V243.371H298.496V184.32ZM349.696 184.32H390.485V194.902H362.496V207.702H387.413V218.283H362.496V232.79H392.021V243.371H349.696V184.32ZM75.9467 327.68C71.68 327.68 67.4133 326.998 63.3173 325.632C59.7333 324.267 56.4907 322.219 53.76 319.488C51.0293 316.758 48.9813 313.344 47.7867 309.76C46.4213 305.664 45.568 301.227 45.7387 296.79C45.7387 292.523 46.4213 288.086 47.9573 284.16C50.688 276.822 56.4907 270.848 63.8293 268.288C67.9254 266.752 72.192 266.07 76.4587 266.07C79.5307 266.07 82.6027 266.411 85.6747 267.094C88.4053 267.776 91.136 268.8 93.696 270.166V281.942C91.4773 280.406 88.9173 279.211 86.3573 278.358C83.6267 277.504 80.896 277.163 77.9947 277.163C74.4107 276.992 70.8267 277.846 67.7547 279.552C65.024 281.088 62.6347 283.478 61.2694 286.208C59.7333 289.451 58.88 293.206 59.0507 296.96C58.88 300.715 59.7333 304.299 61.2694 307.712C62.6347 310.614 64.8533 313.003 67.584 314.539C70.656 316.246 74.24 316.928 77.6533 316.928C83.6267 316.928 89.4293 315.222 94.3787 311.979V323.414C91.648 324.95 88.9174 325.974 86.016 326.656C82.7733 327.168 79.36 327.68 75.9467 327.68ZM129.707 265.899C133.803 265.899 137.899 266.582 141.824 268.118C145.408 269.483 148.48 271.531 151.04 274.262C153.6 276.992 155.648 280.406 157.013 283.99C159.744 292.352 159.744 301.227 157.013 309.59C155.819 313.174 153.771 316.587 151.04 319.318C148.48 322.048 145.237 324.096 141.824 325.462C133.973 328.363 125.44 328.363 117.589 325.462C114.005 324.096 110.933 322.048 108.373 319.318C105.813 316.587 103.765 313.174 102.4 309.59C99.6693 301.227 99.6693 292.352 102.4 283.99C103.595 280.406 105.643 277.163 108.373 274.262C110.933 271.531 114.176 269.483 117.589 268.118C121.344 266.582 125.611 265.899 129.707 265.899ZM129.707 316.587C132.779 316.587 135.851 315.904 138.411 314.198C140.971 312.491 142.848 310.272 143.872 307.371C146.432 300.544 146.432 292.864 143.872 286.038C142.677 283.307 140.8 280.918 138.411 279.382C132.949 276.31 126.464 276.31 121.003 279.382C118.443 280.918 116.565 283.307 115.541 286.038C112.981 292.864 112.981 300.544 115.541 307.371C116.736 310.102 118.613 312.491 121.003 314.198C123.563 315.734 126.635 316.587 129.707 316.587ZM194.219 327.68C189.44 327.851 184.832 326.827 180.565 324.608C176.811 322.731 173.739 319.659 171.861 315.904C169.813 311.638 168.789 306.859 168.789 302.08V267.094H181.589V303.446C181.419 307.03 182.613 310.443 184.832 313.174C190.293 317.611 197.973 317.611 203.435 313.174C205.824 310.443 207.019 307.03 206.677 303.446V267.094H219.477V302.08C219.648 306.859 218.624 311.638 216.405 315.904C214.528 319.659 211.456 322.731 207.701 324.608C203.605 326.656 198.997 327.68 194.219 327.68ZM270.336 326.315C266.069 319.488 261.632 312.491 257.195 305.494C252.757 298.496 248.491 291.84 244.053 285.355V326.315H231.765V267.094H244.736C249.173 273.75 253.611 280.406 257.877 287.232C262.144 293.888 266.581 300.715 270.848 307.712V267.264H283.136V326.486H270.336V326.315ZM290.816 267.094H340.821V278.187H322.219V326.315H309.419V278.187H290.816V267.094ZM348.501 267.094H361.301V326.315H348.501V267.094ZM373.76 267.094H414.549V277.675H386.56V290.475H411.307V301.056H386.389V315.563H415.915V326.144H373.76V267.094ZM441.856 327.68C438.613 327.68 435.371 327.339 432.128 326.656C428.885 325.974 425.813 324.779 422.912 323.243V311.808C428.544 315.392 435.029 317.27 441.685 317.27C444.587 317.44 447.659 316.758 450.219 315.392C452.096 314.368 453.291 312.32 453.12 310.102C453.12 308.566 452.608 307.2 451.755 306.006C450.731 304.982 449.365 304.128 447.829 303.616C446.123 302.934 444.245 302.422 442.368 302.08C439.467 301.398 436.565 300.544 433.835 299.35C431.616 298.496 429.397 297.302 427.52 295.766C425.813 294.4 424.448 292.864 423.595 290.816C422.741 288.598 422.229 286.379 422.229 283.99C422.059 280.576 423.083 277.163 425.131 274.262C427.179 271.531 429.909 269.312 433.152 267.947C437.077 266.411 441.344 265.728 445.611 265.728C448.683 265.728 451.925 266.07 454.827 266.752C457.728 267.435 460.459 268.288 463.019 269.654V280.918C460.459 279.382 457.728 278.187 454.827 277.504C451.755 276.651 448.683 276.31 445.611 276.31C442.88 276.139 440.149 276.822 437.76 278.016C436.053 279.04 434.859 280.918 435.029 282.966C435.029 284.331 435.371 285.696 436.395 286.72C437.419 287.744 438.784 288.427 440.149 288.939C441.856 289.451 443.733 290.134 445.952 290.646C448.683 291.328 451.413 292.182 453.803 293.035C456.021 293.888 458.24 294.912 460.288 296.278C462.165 297.643 463.531 299.35 464.555 301.398C465.579 303.787 466.091 306.347 466.091 308.907C466.261 312.491 465.237 316.075 463.189 318.976C461.141 321.878 458.24 324.096 454.827 325.291C450.731 326.998 446.293 327.68 441.856 327.68Z" fill="white"/>
</g>
<defs>
<clipPath id="clip0_2_255">
<rect width="512" height="512" fill="white"/>
</clipPath>
</defs>
</svg>
