<svg width="512" height="512" viewBox="0 0 512 512" fill="none" xmlns="http://www.w3.org/2000/svg">
<g clip-path="url(#clip0_2_258)">
<path d="M256 512C397.385 512 512 397.385 512 256C512 114.615 397.385 0 256 0C114.615 0 0 114.615 0 256C0 397.385 114.615 512 256 512Z" fill="#542582"/>
<path d="M87.4275 282.665C85.5706 276.057 83.7547 269.448 81.9798 262.838C80.2049 256.231 78.4709 249.623 76.7779 243.014C75.1395 249.622 73.4465 256.23 71.6988 262.838C69.9512 269.447 68.149 276.055 66.2921 282.665H52.9392C50.1539 273.107 47.4778 263.44 44.911 253.663C42.343 243.89 39.9127 234.033 37.6201 224.092H51.3827C52.748 231.681 54.1953 239.272 55.7244 246.864C57.2525 254.456 58.8636 261.912 60.5577 269.23C64.2157 254.974 67.6836 240.747 70.9616 226.55H83.2496C84.888 233.539 86.5673 240.515 88.2876 247.478C90.008 254.442 91.7692 261.391 93.5715 268.327C95.2099 261.119 96.7937 253.802 98.3228 246.374C99.8509 238.947 101.271 231.519 102.583 224.092H116.099C113.806 234.032 111.375 243.889 108.809 253.663C106.241 263.441 103.565 273.109 100.78 282.665H87.4275ZM123.634 224.092H136.252V282.665H123.634V224.092ZM147.719 224.092H160.336V271.686H188.107V282.665H147.719V224.092ZM182.043 224.092H231.523V235.069H213.091V282.665H200.475V235.069H182.043V224.092ZM255.935 283.892C252.724 283.893 249.523 283.536 246.392 282.827C243.238 282.115 240.194 280.986 237.339 279.47V268.165C242.92 271.64 249.361 273.484 255.935 273.49C258.883 273.673 261.822 273.019 264.414 271.604C265.321 271.068 266.069 270.299 266.58 269.378C267.092 268.456 267.348 267.415 267.322 266.361C267.364 265.636 267.258 264.911 267.012 264.228C266.766 263.546 266.383 262.92 265.889 262.39C264.802 261.354 263.501 260.571 262.078 260.094C260.331 259.473 258.553 258.939 256.753 258.497C253.853 257.833 251.006 256.958 248.235 255.877C246.003 255.022 243.906 253.849 242.009 252.395C240.359 251.113 239.039 249.456 238.157 247.562C237.234 245.431 236.787 243.124 236.848 240.802C236.759 237.389 237.747 234.035 239.674 231.217C241.693 228.437 244.464 226.291 247.661 225.032C251.572 223.5 255.75 222.762 259.949 222.861C263.039 222.859 266.118 223.216 269.124 223.926C271.929 224.567 274.65 225.529 277.234 226.794V237.935C274.696 236.404 271.951 235.245 269.083 234.494C266.107 233.682 263.035 233.269 259.949 233.265C257.259 233.113 254.58 233.709 252.208 234.987C251.348 235.481 250.639 236.2 250.156 237.065C249.672 237.931 249.433 238.912 249.464 239.903C249.429 240.566 249.528 241.231 249.753 241.856C249.978 242.482 250.325 243.056 250.774 243.546C251.832 244.558 253.107 245.316 254.502 245.76C256.112 246.332 258.009 246.892 260.195 247.439C262.98 248.149 265.574 248.927 267.977 249.772C270.236 250.545 272.374 251.635 274.326 253.01C276.137 254.299 277.6 256.015 278.586 258.007C279.663 260.34 280.182 262.892 280.102 265.46C280.202 268.995 279.2 272.474 277.234 275.415C275.165 278.293 272.285 280.489 268.96 281.721C264.796 283.264 260.375 284.001 255.935 283.892ZM326.876 282.663V257.514H301.399V282.665H288.783V224.092H301.399V246.536H326.876V224.092H339.492V282.665L326.876 282.663ZM350.633 224.09H363.249V282.663H350.633V224.09ZM386.842 261.364V282.663H374.39V224.09H395.771C403.471 224.09 409.383 225.701 413.507 228.924C415.567 230.571 417.204 232.687 418.28 235.096C419.356 237.504 419.84 240.136 419.692 242.77C419.797 246.275 418.84 249.73 416.947 252.682C415.009 255.501 412.29 257.693 409.124 258.99C411.582 262.867 414.012 266.758 416.415 270.662C418.818 274.567 421.221 278.568 423.624 282.665H409.124C405.192 275.455 401.123 268.355 396.918 261.366L386.842 261.364ZM386.842 251.452H395.034C398.125 251.651 401.205 250.925 403.881 249.364C404.907 248.615 405.724 247.615 406.254 246.461C406.785 245.307 407.011 244.036 406.912 242.77C407.009 241.502 406.787 240.23 406.264 239.07C405.742 237.911 404.936 236.901 403.922 236.134C401.273 234.542 398.2 233.798 395.116 234.004H386.842V251.452ZM430.833 224.092H471.137V234.576H443.448V247.274H468.024V257.759H443.448V272.177H472.694V282.665H430.831L430.833 224.092Z" fill="white"/>
</g>
<defs>
<clipPath id="clip0_2_258">
<rect width="512" height="512" fill="white"/>
</clipPath>
</defs>
</svg>
