<svg width="512" height="512" viewBox="0 0 512 512" fill="none" xmlns="http://www.w3.org/2000/svg">
<g clip-path="url(#clip0_3_35)">
<path d="M256 512C397.385 512 512 397.385 512 256C512 114.615 397.385 0 256 0C114.615 0 0 114.615 0 256C0 397.385 114.615 512 256 512Z" fill="#542582"/>
<path d="M241.493 296.96C245.418 283.648 249.173 270.165 252.757 256.341C256.341 242.688 259.754 228.864 262.997 215.04H244.053C242.176 225.451 240.298 235.861 238.08 246.101C235.861 256.512 233.642 266.752 231.424 276.821C228.864 267.093 226.474 257.365 224.085 247.637C221.696 237.909 219.306 228.181 217.088 218.453H199.85C195.242 238.251 190.464 258.219 185.344 278.187C182.954 267.947 180.736 257.536 178.517 246.955C176.298 236.373 174.421 225.792 172.373 215.04H153.258C156.501 228.864 159.914 242.688 163.498 256.341C167.082 269.995 170.837 283.477 174.762 296.96H193.365C195.925 287.744 198.485 278.528 200.874 269.312L208.042 241.664C210.432 250.88 212.821 260.096 215.381 269.312C217.941 278.528 220.33 287.744 223.061 296.96H241.493ZM322.56 281.771C325.802 275.115 329.045 268.288 332.288 261.632C335.53 254.805 338.773 247.979 341.845 241.152V296.96H358.741V215.04H338.09C334.506 223.573 330.922 231.936 327.168 240.299C323.413 248.661 319.658 256.853 315.904 265.045C311.978 256.853 308.224 248.661 304.469 240.299C300.714 231.936 297.13 223.573 293.546 215.211H272.384V297.131H289.28V241.493C292.352 248.149 295.594 254.976 298.837 261.632C302.08 268.459 305.322 275.115 308.736 281.771H322.56Z" fill="white"/>
</g>
<defs>
<clipPath id="clip0_3_35">
<rect width="512" height="512" fill="white"/>
</clipPath>
</defs>
</svg>
