<svg width="512" height="512" viewBox="0 0 512 512" fill="none" xmlns="http://www.w3.org/2000/svg">
<g clip-path="url(#clip0_2_263)">
<path d="M256 512C397.385 512 512 397.385 512 256C512 114.615 397.385 0 256 0C114.615 0 0 114.615 0 256C0 397.385 114.615 512 256 512Z" fill="#542582"/>
<path d="M158.72 240.64C163.84 232.106 168.789 223.744 173.739 215.21H154.283L144.555 233.13C141.312 239.104 137.899 245.077 134.485 251.05C131.072 245.248 127.829 239.274 124.416 233.301C121.173 227.328 117.931 221.354 114.688 215.21H94.8906C99.84 223.744 104.789 232.277 109.909 240.64C115.029 249.173 120.149 257.536 125.611 265.898V296.789H143.189V265.898C148.48 257.536 153.6 249.173 158.72 240.64ZM196.779 216.405C192 218.282 187.563 221.184 183.979 224.938C180.395 228.693 177.493 233.301 175.787 238.25C172.032 249.685 172.032 261.973 175.787 273.408C177.493 278.357 180.395 282.965 183.979 286.89C187.563 290.645 192 293.546 196.779 295.424C207.583 299.349 219.425 299.349 230.229 295.424C235.008 293.546 239.445 290.645 243.029 286.89C246.613 282.965 249.515 278.357 251.221 273.408C254.976 261.973 254.976 249.685 251.221 238.25C249.515 233.301 246.613 228.693 243.029 224.938C239.445 221.184 235.008 218.282 230.229 216.405C219.307 212.48 207.531 212.48 196.779 216.405ZM201.387 280.064C197.973 277.845 195.243 274.602 193.707 270.677C190.123 261.12 190.123 250.709 193.707 241.152C195.243 237.397 197.973 234.154 201.387 231.936C208.896 227.669 217.941 227.669 225.451 231.936C228.864 234.154 231.595 237.397 233.131 241.152C236.715 250.709 236.715 261.12 233.131 270.677C231.595 274.432 228.864 277.674 225.451 280.064C218.112 284.33 208.896 284.33 201.387 280.064ZM294.571 267.093H296.277C302.08 276.821 307.883 286.72 313.344 296.789H333.483C330.069 291.157 326.827 285.525 323.413 280.064C320 274.602 316.587 269.141 313.173 263.85C317.611 261.973 321.365 259.072 324.096 254.976C326.656 250.88 328.021 246.101 327.851 241.152C327.851 232.789 324.949 226.304 319.147 221.866C313.344 217.429 305.152 215.21 294.4 215.21H264.533V296.789H281.941V267.093H294.571ZM282.283 229.034H293.888C299.349 229.034 303.445 230.058 306.176 231.936C309.077 234.154 310.613 237.568 310.272 241.152C310.613 244.736 308.907 248.149 306.005 250.368C303.104 252.245 299.008 253.269 293.717 253.269H282.283V229.034ZM380.245 279.381C385.024 285.013 389.803 290.986 394.581 296.789H416.939C410.624 289.28 404.48 282.112 398.336 274.944C392.192 267.776 386.048 260.778 379.733 253.61C385.536 247.125 391.339 240.81 396.971 234.325C402.603 228.01 408.235 221.525 413.696 215.04H392.533C388.267 220.33 383.829 225.621 379.392 230.741C374.955 235.861 370.347 241.152 365.397 246.613H360.789V215.04H343.211V296.618H360.789V261.461H365.056C370.517 267.776 375.467 273.578 380.245 279.381Z" fill="white"/>
</g>
<defs>
<clipPath id="clip0_2_263">
<rect width="512" height="512" fill="white"/>
</clipPath>
</defs>
</svg>
