<svg width="512" height="220" viewBox="0 0 512 220" fill="none" xmlns="http://www.w3.org/2000/svg">
<g clip-path="url(#clip0_5_122)">
<path d="M12.2667 162.166V183.119H0V125.366H21.1048C28.7238 125.366 34.5143 126.966 38.5524 130.166C42.5905 133.366 44.6476 137.862 44.6476 143.804C44.9524 150.814 40.7619 157.214 34.2095 159.804C36.6476 163.614 39.0095 167.5 41.3714 171.309C43.7333 175.195 46.0952 179.081 48.4571 183.119H34.1333C30.2476 176.033 26.2857 169.023 22.0952 162.166H12.2667ZM12.2667 152.414H20.3429C24.1524 152.414 27.0476 151.728 29.0286 150.357C31.0095 148.985 32 146.852 32 143.881C32 140.909 31.0095 138.776 29.0286 137.328C27.0476 135.957 24.1524 135.195 20.3429 135.195H12.1905L12.2667 152.414ZM97.1429 183.195C95.7714 178.928 94.3238 174.738 92.9524 170.7H69.5619C68.1905 174.814 66.7429 179.004 65.3714 183.195H52.0381C55.6952 173.062 59.4286 163.233 63.2381 153.557C67.0476 143.957 70.8571 134.585 74.7429 125.443H88.1524C92.1143 135.043 96 144.643 99.8095 154.319C103.619 163.995 107.276 173.595 110.857 183.195H97.1429ZM73.0667 160.338H89.2952C88 156.604 86.7048 152.795 85.3333 149.062C83.9619 145.328 82.5905 141.671 81.2191 138.014C78.4 145.404 75.7333 152.871 73.0667 160.338ZM117.79 125.443H139.81C145.219 125.29 150.552 126.433 155.429 128.871C159.695 131.004 163.124 134.433 165.333 138.7C167.619 142.966 168.762 148.147 168.762 154.243C168.914 159.652 167.771 164.985 165.333 169.862C163.124 174.128 159.695 177.557 155.429 179.766C151.086 182.052 145.905 183.195 139.733 183.195H117.79V125.443ZM139.124 172.528C144.533 172.528 148.648 170.928 151.543 167.804C154.438 164.681 155.886 160.109 155.886 154.166C155.886 148.3 154.438 143.804 151.619 140.757C148.8 137.633 144.686 136.109 139.2 136.109H130.21V172.528H139.124ZM178.59 125.443H191.01V183.195H178.59V125.443ZM229.562 124.223C233.6 124.147 237.638 124.909 241.371 126.357C244.8 127.652 247.848 129.709 250.438 132.376C253.029 135.119 254.933 138.319 256.229 141.823C258.895 149.9 258.895 158.662 256.229 166.738C255.01 170.243 253.029 173.519 250.438 176.262C247.924 178.928 244.8 180.985 241.371 182.357C233.752 185.176 225.371 185.176 217.752 182.357C214.324 181.062 211.276 178.928 208.686 176.262C206.095 173.519 204.19 170.243 202.895 166.738C200.229 158.662 200.229 149.9 202.895 141.823C204.114 138.319 206.095 135.119 208.686 132.376C211.2 129.709 214.324 127.652 217.752 126.357C221.486 124.909 225.448 124.223 229.562 124.223ZM229.562 173.595C232.533 173.671 235.505 172.909 238.019 171.309C240.457 169.709 242.362 167.423 243.429 164.757C245.867 158.052 245.867 150.662 243.429 143.957C242.362 141.29 240.457 139.004 238.019 137.404C232.762 134.357 226.286 134.357 221.029 137.404C218.59 139.004 216.686 141.29 215.619 143.957C213.105 150.662 213.105 158.052 215.619 164.757C216.686 167.423 218.59 169.709 221.029 171.309C223.619 172.833 226.514 173.671 229.562 173.595ZM402.286 0.261581C341.714 0.261581 292.571 49.4044 292.571 109.976C292.571 170.547 341.714 219.69 402.286 219.69C462.857 219.69 512 170.547 512 109.976C512 49.4044 462.857 0.261581 402.286 0.261581ZM424.99 184.566H393.448V69.5949C387.733 72.5663 381.943 75.5378 376.152 78.6616C370.362 81.7092 364.876 84.7568 359.695 87.7283V58.6997C365.257 55.4997 371.505 52.0711 378.362 48.4902C385.219 44.9092 392.457 41.3283 400 37.6711H424.99V184.566ZM0 36.9092V110.052H73.1429V36.9092H0ZM51.0476 88.4902C49.6762 90.3187 47.8476 91.7663 45.7143 92.6044C43.0476 93.5949 40.2286 94.1283 37.4095 94.0521H21.0286V52.9092H36.4952C41.0667 52.9092 44.5714 53.8235 47.0857 55.6521C49.6 57.4806 50.9714 60.4521 50.819 63.4997C50.8952 65.3282 50.3619 67.0806 49.4476 68.6044C48.4571 70.1282 47.0857 71.2711 45.4857 72.033C47.6952 72.7187 49.6762 74.014 51.0476 75.8425C52.3429 77.6711 53.0286 79.9568 52.9524 82.2425C52.9524 84.4521 52.3429 86.6616 51.0476 88.4902ZM40.5333 68.3759C41.6762 67.3854 42.2857 65.9378 42.2095 64.414C42.2095 61.1378 40 59.5378 35.581 59.5378H29.2571V69.7473H35.581C37.4095 69.8997 39.1619 69.4425 40.5333 68.3759ZM36.6476 76.2235H29.2571V87.3473H36.4952C38.5524 87.4997 40.5333 86.9663 42.2857 85.8997C43.581 84.9854 44.3429 83.4616 44.2667 81.8616C44.3429 78.1283 41.7524 76.2235 36.6476 76.2235ZM91.5048 36.9092V110.052H164.648V36.9092H91.5048ZM142.476 88.4902C141.105 90.3187 139.276 91.7663 137.143 92.6044C134.476 93.5949 131.657 94.1283 128.838 94.0521H112.457V52.9092H127.924C132.495 52.9092 136 53.8235 138.514 55.6521C141.029 57.4806 142.4 60.4521 142.248 63.4997C142.324 65.3282 141.79 67.0806 140.876 68.6044C139.886 70.1282 138.514 71.2711 136.914 72.033C139.124 72.7187 141.105 74.014 142.476 75.8425C143.771 77.6711 144.457 79.9568 144.381 82.2425C144.457 84.4521 143.771 86.6616 142.476 88.4902ZM132.038 68.3759C133.181 67.3854 133.79 65.9378 133.714 64.414C133.714 61.1378 131.505 59.5378 127.086 59.5378H120.762V69.7473H127.086C128.838 69.8997 130.59 69.4425 132.038 68.3759ZM128.152 76.2235H120.762V87.3473H128C130.057 87.4997 132.038 86.9663 133.79 85.8997C135.086 84.9854 135.848 83.4616 135.771 81.8616C135.848 78.1283 133.257 76.2235 128.152 76.2235ZM182.933 110.052H256.076V36.9092H182.933V110.052ZM235.505 91.4616C233.6 92.4521 231.619 93.214 229.562 93.6711C227.276 94.2044 224.838 94.5092 222.476 94.5092C219.429 94.5854 216.457 94.0521 213.562 93.0616C211.048 92.1473 208.762 90.7759 206.857 88.9473C205.029 87.0425 203.581 84.833 202.667 82.3187C201.676 79.4997 201.143 76.5283 201.219 73.4806C201.143 70.5092 201.676 67.614 202.743 64.7949C203.733 62.2806 205.181 60.0711 207.086 58.1663C209.067 56.2616 211.352 54.814 213.943 53.8997C216.838 52.9092 219.81 52.3759 222.857 52.4521C225.067 52.4521 227.2 52.6806 229.333 53.1378C231.314 53.5949 233.219 54.2806 234.971 55.1949V63.1949C233.371 62.1283 231.619 61.3663 229.79 60.833C227.886 60.2997 225.905 59.9949 223.924 59.9949C221.41 59.9187 218.971 60.4521 216.686 61.5949C214.705 62.5854 213.105 64.1854 212.114 66.1663C210.971 68.4521 210.438 70.8902 210.514 73.4806C210.438 75.9949 210.971 78.5092 212.038 80.7949C213.029 82.7759 214.552 84.3759 216.533 85.3663C218.743 86.5092 221.181 87.0425 223.619 86.9663C227.81 86.9663 231.848 85.8235 235.429 83.614L235.505 91.4616Z" fill="black"/>
</g>
<defs>
<clipPath id="clip0_5_122">
<rect width="512" height="219.429" fill="white" transform="translate(0 0.261581)"/>
</clipPath>
</defs>
</svg>
