<svg width="512" height="220" viewBox="0 0 512 220" fill="none" xmlns="http://www.w3.org/2000/svg">
<g clip-path="url(#clip0_5_125)">
<path d="M12.8001 162.121V182.996H0.515503V125.439H21.5625C29.1222 125.439 34.9638 126.985 39.0014 130.164C43.039 133.342 45.1007 137.895 45.1007 143.823C45.1007 147.603 44.2417 150.867 42.4376 153.53C40.6336 156.193 38.0564 158.255 34.7061 159.715C37.1115 163.495 39.5168 167.361 41.8363 171.227C44.2417 175.093 46.5611 179.044 48.9665 182.996H34.7061C30.8403 175.866 26.8027 168.907 22.6793 162.035L12.8001 162.121ZM12.8001 152.328H20.8752C24.6551 152.328 27.5759 151.64 29.5517 150.266C31.5276 148.891 32.5585 146.744 32.5585 143.823C32.5585 140.902 31.6135 138.668 29.6377 137.294C27.6618 135.919 24.8269 135.232 20.9611 135.232H12.8001V152.328ZM97.4175 182.996C96.043 178.787 94.5826 174.577 93.2081 170.54H69.8417C68.4672 174.663 67.0068 178.872 65.6323 182.996H52.4028C56.0967 172.859 59.7907 163.066 63.5705 153.444C67.3504 143.823 71.2162 134.459 75.0819 125.439H88.4833C92.435 134.975 96.3007 144.596 100.167 154.217C103.946 163.839 107.64 173.46 111.162 182.996H97.4175ZM73.4497 160.231H89.686C88.3974 156.451 87.1088 152.757 85.7343 148.977C84.3598 145.197 82.9853 141.589 81.6967 137.981C78.7759 145.369 76.0269 152.757 73.4497 160.231ZM118.035 125.439H140.027C146.126 125.439 151.281 126.556 155.576 128.789C159.871 131.023 163.222 134.287 165.455 138.583C167.689 142.878 168.805 148.032 168.805 154.132C168.805 160.231 167.689 165.385 165.369 169.681C163.05 173.976 159.785 177.326 155.49 179.56C151.195 181.879 145.954 182.996 139.855 182.996H117.949L118.035 125.439ZM139.34 172.43C144.752 172.43 148.789 170.883 151.71 167.705C154.545 164.526 156.005 160.059 156.005 154.132C156.005 148.29 154.631 143.823 151.796 140.73C148.961 137.638 144.838 136.091 139.426 136.091H130.491V172.43H139.34ZM178.771 125.439H191.141V182.996H178.771V125.439ZM229.541 124.236C233.922 124.236 237.788 124.924 241.31 126.298C244.832 127.672 247.839 129.734 250.33 132.311C252.822 134.889 254.711 138.067 256.086 141.761C257.46 145.455 258.062 149.579 258.062 154.217C258.062 158.77 257.375 162.894 256.086 166.588C254.711 170.282 252.822 173.46 250.33 176.124C247.839 178.787 244.832 180.762 241.31 182.137C237.788 183.511 233.836 184.199 229.541 184.199C225.246 184.199 221.294 183.511 217.772 182.137C214.25 180.762 211.243 178.701 208.752 176.124C206.26 173.46 204.371 170.282 202.996 166.588C201.622 162.894 201.02 158.77 201.02 154.217C201.02 149.579 201.707 145.455 202.996 141.761C204.371 138.067 206.26 134.975 208.752 132.311C211.243 129.734 214.25 127.672 217.772 126.298C221.294 124.924 225.246 124.236 229.541 124.236ZM229.541 173.46C232.805 173.46 235.64 172.687 237.96 171.141C240.365 169.595 242.083 167.447 243.372 164.612C244.575 161.777 245.262 158.341 245.262 154.217C245.262 150.094 244.66 146.658 243.372 143.823C242.169 140.988 240.365 138.84 237.96 137.294C235.554 135.834 232.805 135.06 229.541 135.06C226.277 135.06 223.442 135.834 221.122 137.294C218.717 138.84 216.999 140.988 215.71 143.823C214.507 146.658 213.82 150.094 213.82 154.217C213.82 158.341 214.422 161.777 215.71 164.612C216.913 167.447 218.717 169.681 221.122 171.141C223.442 172.687 226.277 173.46 229.541 173.46ZM0.515503 37.0416V110.062H73.5356V37.0416H0.515503ZM51.4578 88.5853C50.1692 90.3893 48.4511 91.6779 46.1316 92.6228C43.8121 93.5678 41.0632 94.0832 37.7987 94.0832H21.3907V53.0201H36.7679C41.3209 53.0201 44.843 53.9651 47.3343 55.7691C49.8256 57.5732 51.1142 60.2363 51.1142 63.5866C51.1142 65.5624 50.6846 67.1946 49.7397 68.655C48.8806 70.1154 47.5061 71.2322 45.788 72.0913C48.1934 72.8644 50.0833 74.153 51.3719 75.8712C52.6605 77.5893 53.2618 79.7369 53.2618 82.2282C53.3477 84.7195 52.6605 86.7812 51.4578 88.5853ZM40.9772 68.4832C42.094 67.5383 42.6954 66.2497 42.6954 64.5316C42.6954 61.2671 40.4618 59.6349 36.0806 59.6349H29.8095V69.8577H36.0806C38.2283 69.8577 39.8605 69.4282 40.9772 68.4832ZM37.1115 76.3007H29.7236V87.3826H37.0256C39.5169 87.3826 41.4068 86.953 42.7813 86.0081C44.1558 85.0631 44.7571 83.6886 44.7571 81.9705C44.7571 78.1906 42.1799 76.3007 37.1115 76.3007ZM91.8336 37.0416V110.062H164.854V37.0416H91.8336ZM142.69 88.5853C141.401 90.3893 139.683 91.6779 137.364 92.6228C135.044 93.5678 132.295 94.0832 129.031 94.0832H112.623V53.0201H128C132.553 53.0201 136.075 53.9651 138.566 55.7691C141.058 57.5732 142.346 60.2363 142.346 63.5866C142.346 65.5624 141.917 67.1946 140.972 68.655C140.113 70.1154 138.738 71.2322 137.02 72.0913C139.426 72.8644 141.315 74.153 142.604 75.8712C143.893 77.5893 144.494 79.7369 144.494 82.2282C144.58 84.7195 143.979 86.7812 142.69 88.5853ZM132.295 68.4832C133.412 67.5383 134.013 66.2497 134.013 64.5316C134.013 61.2671 131.78 59.6349 127.399 59.6349H121.128V69.8577H127.399C129.546 69.8577 131.179 69.4282 132.295 68.4832ZM128.43 76.3007H121.042V87.3826H128.344C130.835 87.3826 132.725 86.953 134.099 86.0081C135.474 85.0631 136.075 83.6886 136.075 81.9705C136.075 78.1906 133.498 76.3007 128.43 76.3007ZM183.066 110.062H256.086V37.0416H183.066V110.062ZM235.554 91.5061C233.836 92.451 231.86 93.2242 229.627 93.7396C227.393 94.2551 224.988 94.5987 222.583 94.5987C219.318 94.5987 216.311 94.0832 213.734 93.1383C211.071 92.1933 208.924 90.8188 207.034 89.0148C205.23 87.2108 203.855 84.9772 202.824 82.4C201.879 79.8228 201.364 76.8161 201.364 73.5517C201.364 70.3732 201.879 67.4524 202.91 64.8752C203.941 62.298 205.401 60.0644 207.291 58.2604C209.181 56.4564 211.415 54.996 214.078 54.051C216.741 53.106 219.662 52.5906 223.012 52.5906C225.332 52.5906 227.479 52.8483 229.455 53.2779C231.517 53.7074 233.407 54.3946 235.125 55.3396V63.3289C233.579 62.298 231.86 61.4389 229.971 60.9235C228.081 60.4081 226.191 60.0644 224.129 60.0644C221.294 60.0644 218.889 60.5799 216.913 61.6107C214.937 62.6416 213.391 64.1879 212.36 66.1638C211.329 68.1396 210.728 70.545 210.728 73.4658C210.728 76.3007 211.243 78.792 212.274 80.7678C213.305 82.7436 214.765 84.2899 216.741 85.3208C218.717 86.3517 221.036 86.8671 223.871 86.8671C228.081 86.8671 232.032 85.7503 235.64 83.5168V91.5061H235.554ZM501.262 155.764C499.114 149.149 496.881 142.62 494.819 136.435H458.738C456.591 142.878 454.443 149.321 452.21 155.764L452.038 156.193H429.702L429.96 155.334C435.715 139.442 441.643 123.721 447.656 108.515C453.584 93.396 459.769 78.4483 465.869 64.102L466.04 63.7584H487.946L488.118 64.102C494.389 79.2215 500.575 94.5128 506.588 109.718C508.048 113.498 509.509 117.192 510.969 120.972C511.313 117.364 511.485 113.67 511.485 109.89C511.485 49.4121 462.432 0.445652 402.04 0.445652C341.562 0.445652 292.596 49.498 292.596 109.89C292.596 170.368 341.648 219.334 402.04 219.334C446.024 219.334 483.995 193.391 501.348 155.936L501.262 155.764ZM424.634 184.37H393.192V69.6859C387.436 72.6067 381.681 75.6134 375.925 78.7061C370.083 81.7987 364.671 84.8054 359.431 87.7262V58.7758C365.015 55.5973 371.2 52.1611 378.073 48.6389C384.945 45.1168 392.161 41.5087 399.635 37.8148H424.548V184.37H424.634ZM476.693 86.094C472.569 96.9181 468.532 108 464.666 118.91H488.548C486.572 113.24 484.596 107.57 482.534 101.987C480.558 96.5745 478.669 91.2483 476.693 86.094Z" fill="black"/>
</g>
<defs>
<clipPath id="clip0_5_125">
<rect width="512" height="219.919" fill="white" transform="translate(0 0.0161362)"/>
</clipPath>
</defs>
</svg>
