<svg width="512" height="224" viewBox="0 0 512 224" fill="none" xmlns="http://www.w3.org/2000/svg">
<g clip-path="url(#clip0_5_128)">
<path d="M12.4332 164.875V186.112H0V127.575H21.3912C29.1137 127.575 34.9828 129.197 39.0757 132.44C43.1686 135.684 45.2537 140.24 45.2537 146.264C45.5626 153.368 41.3152 159.855 34.6739 162.481C37.1451 166.342 39.5391 170.203 41.933 174.142C44.327 178.08 46.721 182.019 49.1149 186.112H34.5967C30.6582 178.93 26.6425 171.825 22.3952 164.875H12.4332ZM12.4332 154.99H20.619C24.4802 154.99 27.4148 154.295 29.4226 152.905C31.4305 151.515 32.4344 149.353 32.4344 146.341C32.4344 143.329 31.4305 141.167 29.4226 139.7C27.4148 138.309 24.4802 137.537 20.619 137.537H12.356V154.99H12.4332ZM98.4615 186.189C97.0715 181.864 95.6042 177.617 94.2142 173.524H70.5062C69.1161 177.694 67.6489 181.941 66.2588 186.189H52.7445C56.4513 175.918 60.2353 165.956 64.0965 156.148C67.9578 146.418 71.819 136.919 75.7575 127.652H89.349C93.3647 137.383 97.3032 147.113 101.164 156.921C105.026 166.728 108.732 176.459 112.362 186.189H98.4615ZM74.0585 163.021H90.5074C89.1946 159.237 87.8818 155.376 86.4917 151.592C85.1017 147.808 83.7116 144.101 82.3216 140.395C79.4643 147.885 76.7614 155.453 74.0585 163.021ZM119.389 127.652H141.707C147.885 127.652 153.137 128.811 157.538 131.05C161.863 133.213 165.338 136.688 167.578 141.012C169.894 145.337 171.053 150.588 170.976 156.766C170.976 162.944 169.817 168.195 167.5 172.597C165.261 176.922 161.786 180.397 157.461 182.636C153.059 184.953 147.808 186.112 141.553 186.112H119.312V127.652H119.389ZM141.012 175.377C146.495 175.377 150.665 173.756 153.6 170.589C156.535 167.423 158.002 162.79 158.002 156.766C158.002 150.82 156.535 146.264 153.677 143.175C150.82 140.008 146.65 138.464 141.09 138.464H131.977V175.377H141.012ZM181.015 127.652H193.602V186.189H181.015V127.652ZM232.678 126.417C236.771 126.34 240.864 127.112 244.648 128.579C248.123 129.892 251.212 131.977 253.838 134.68C256.463 137.46 258.394 140.703 259.707 144.256C262.41 152.442 262.41 161.322 259.707 169.508C258.471 173.061 256.463 176.381 253.838 179.161C251.289 181.864 248.123 183.949 244.648 185.262C236.925 188.119 228.431 188.119 220.708 185.262C217.233 183.949 214.144 181.787 211.519 179.161C208.893 176.381 206.962 173.061 205.649 169.508C202.947 161.322 202.947 152.442 205.649 144.256C206.885 140.703 208.893 137.46 211.519 134.68C214.067 131.977 217.233 129.892 220.708 128.579C224.492 127.112 228.508 126.417 232.678 126.417ZM232.678 176.459C235.69 176.536 238.702 175.763 241.25 174.142C243.721 172.52 245.652 170.203 246.733 167.5C249.204 160.705 249.204 153.214 246.733 146.418C245.652 143.715 243.721 141.398 241.25 139.777C235.922 136.688 229.357 136.688 224.029 139.777C221.558 141.398 219.627 143.715 218.546 146.418C215.998 153.214 215.998 160.705 218.546 167.5C219.627 170.203 221.558 172.52 224.029 174.142C226.655 175.686 229.589 176.536 232.678 176.459ZM0 37.9173V112.053H74.1357V37.9173H0ZM51.7406 90.1985C50.3505 92.0519 48.4971 93.5191 46.3348 94.3686C43.632 95.3725 40.7747 95.9131 37.9174 95.8359H21.314V54.1345H36.9906C41.6241 54.1345 45.1765 55.0612 47.7249 56.9146C50.2733 58.768 51.5089 61.3937 51.5089 64.8688C51.5861 66.7222 51.0455 68.4983 50.1188 70.0428C49.1149 71.5873 47.7249 72.7457 46.1032 73.5179C48.3427 74.213 50.3505 75.5258 51.7406 77.3792C53.0534 79.2326 53.7484 81.5493 53.6712 83.7888C53.6712 86.1056 53.0534 88.3451 51.7406 90.1985ZM41.0836 69.8112C42.2419 68.8072 42.8597 67.34 42.7825 65.7955C42.7825 62.4748 40.543 60.8531 36.064 60.8531H29.6543V71.2012H36.064C38.3035 71.2784 39.9252 70.8151 41.0836 69.8112ZM37.1451 77.7653H29.6543V89.0401H36.9906C39.5391 89.0401 41.4697 88.5768 42.8597 87.5728C44.1725 86.6461 44.9448 85.1017 44.8676 83.4799C44.9448 79.6959 42.3192 77.7653 37.1451 77.7653ZM92.7469 37.9173V112.053H166.883V37.9173H92.7469ZM144.41 90.1985C143.02 92.0519 141.167 93.5191 139.005 94.3686C136.302 95.3725 133.444 95.9131 130.587 95.8359H113.984V54.1345H129.66C134.294 54.1345 137.846 55.0612 140.395 56.9146C142.943 58.768 144.179 61.3937 144.179 64.8688C144.256 66.7222 143.715 68.4983 142.789 70.0428C141.785 71.5873 140.395 72.7457 138.773 73.5179C141.012 74.213 143.02 75.5258 144.41 77.3792C145.723 79.2326 146.418 81.5493 146.341 83.7888C146.418 86.1056 145.723 88.3451 144.41 90.1985ZM133.83 69.8112C134.989 68.8072 135.607 67.34 135.529 65.7955C135.529 62.4748 133.29 60.8531 128.811 60.8531H122.401V71.2012H128.811C130.973 71.2784 132.672 70.8151 133.83 69.8112ZM129.892 77.7653H122.401V89.0401H129.738C132.286 89.0401 134.217 88.5768 135.607 87.5728C136.919 86.6461 137.692 85.1017 137.614 83.4799C137.692 79.6959 135.066 77.7653 129.892 77.7653ZM185.417 112.053H259.552V37.9173H185.417V112.053ZM238.702 93.2102C236.771 94.2142 234.763 94.9864 232.678 95.4498C230.361 95.9903 227.89 96.2992 225.496 96.2992C222.407 96.3765 219.395 95.8359 216.461 94.832C213.913 93.9053 211.596 92.5152 209.665 90.6618C207.812 88.7312 206.344 86.4917 205.418 83.9433C204.414 81.086 203.873 78.0742 203.951 74.9852C203.873 71.9735 204.414 69.0389 205.495 66.1816C206.499 63.6332 207.966 61.3937 209.897 59.463C211.905 57.5324 214.221 56.0651 216.847 55.1385C219.782 54.1345 222.793 53.594 225.882 53.6712C228.122 53.6712 230.284 53.9029 232.446 54.3662C234.454 54.8296 236.385 55.5246 238.161 56.4513V64.5599C236.539 63.4787 234.763 62.7065 232.91 62.1659C230.979 61.6253 228.971 61.3164 226.963 61.3164C224.415 61.2392 221.944 61.7798 219.627 62.9382C217.619 63.9421 215.998 65.5638 214.994 67.5716C213.835 69.8884 213.295 72.3596 213.372 74.9852C213.295 77.5336 213.835 80.082 214.916 82.3988C215.92 84.4066 217.465 86.0283 219.473 87.0323C221.712 88.1906 224.183 88.7312 226.655 88.654C230.902 88.654 234.995 87.4956 238.624 85.2561V93.2102H238.702ZM481.805 85.7195H468.677V140.858H481.651C489.914 140.858 496.401 138.464 500.88 133.676C505.359 128.888 507.598 122.015 507.598 113.134C507.598 104.331 505.359 97.5348 501.034 92.8241C496.632 88.1134 490.145 85.7195 481.805 85.7195ZM482.964 161.786H447.826V64.8688H483.118C492.925 64.8688 501.343 66.7994 508.293 70.5834C509.529 71.2784 510.687 71.9734 511.846 72.7457C490.223 15.2905 426.049 -13.746 368.594 7.95415C311.138 29.6543 282.102 93.7508 303.802 151.206C325.425 208.661 389.599 237.698 447.054 215.998C475.782 205.186 498.717 182.945 510.533 154.604C509.838 155.067 509.065 155.531 508.293 155.917C501.343 159.778 492.848 161.786 482.964 161.786ZM430.76 187.579H398.789V71.0468C392.997 74.0585 387.128 77.0703 381.259 80.2365C375.389 83.3255 369.829 86.4145 364.578 89.4262V60.0036C370.215 56.7602 376.548 53.2851 383.498 49.6555C390.448 46.0259 397.785 42.3964 405.43 38.6896H430.76V187.579Z" fill="black"/>
</g>
<defs>
<clipPath id="clip0_5_128">
<rect width="512" height="223.952" fill="white"/>
</clipPath>
</defs>
</svg>
