<svg width="512" height="222" viewBox="0 0 512 222" fill="none" xmlns="http://www.w3.org/2000/svg">
<path d="M12.2538 163.407V184.366H0V126.726H21.0407C28.618 126.726 34.4356 128.313 38.4936 131.485C42.551 134.656 44.5798 139.197 44.5798 145.109C44.7329 148.522 43.8121 151.898 41.9468 154.761C40.0816 157.624 37.3658 159.83 34.1815 161.068C36.5992 164.885 38.9906 168.714 41.3556 172.557C43.7201 176.4 46.0848 180.336 48.4498 184.366H34.1815C30.3117 177.272 26.3078 170.285 22.1697 163.407H12.2538ZM12.2538 153.654H20.3157C24.1297 153.654 27.0318 152.969 29.022 151.598C31.0091 150.225 32.0032 148.062 32.0042 145.109C32.0042 142.152 31.0235 139.975 29.0623 138.576C27.0995 137.179 24.2106 136.481 20.3956 136.481H12.2538V153.654ZM96.978 184.366C95.5797 180.122 94.1824 175.958 92.7861 171.872H69.4076C68.0093 176.009 66.612 180.174 65.2157 184.366H51.9144C55.5686 174.264 59.2906 164.402 63.0802 154.78C66.8679 145.162 70.6968 135.811 74.5671 126.726H87.9491C91.9254 136.293 95.8082 145.9 99.5973 155.548C103.386 165.195 107.054 174.801 110.601 184.366H96.978ZM72.9551 161.553H89.158C87.8682 157.79 86.5384 154.042 85.1685 150.309C83.7981 146.572 82.4409 142.904 81.0968 139.304C78.3018 146.666 75.5878 154.082 72.9551 161.553ZM117.615 126.726H139.623C145.695 126.726 150.895 127.855 155.222 130.112C159.45 132.274 162.901 135.698 165.097 139.909C167.354 144.18 168.482 149.352 168.482 155.425C168.482 161.5 167.34 166.699 165.056 171.024C162.858 175.263 159.411 178.725 155.182 180.941C150.881 183.227 145.668 184.368 139.543 184.366H117.615V126.726ZM138.898 173.727C144.27 173.727 148.395 172.154 151.272 169.009C154.146 165.867 155.584 161.339 155.585 155.425C155.585 149.57 154.174 145.096 151.353 142.005C148.531 138.914 144.406 137.369 138.979 137.37H130.03V173.727H138.898ZM178.317 126.726H190.731V184.366H178.317V126.726ZM229.184 125.517C233.218 125.46 237.226 126.172 240.994 127.615C244.403 128.938 247.484 130.988 250.023 133.621C252.582 136.326 254.546 139.539 255.787 143.051C258.474 151.124 258.474 159.85 255.787 167.922C254.547 171.459 252.584 174.698 250.023 177.433C247.494 180.088 244.411 182.153 240.994 183.481C233.368 186.275 224.999 186.275 217.373 183.481C213.956 182.153 210.874 180.088 208.346 177.433C205.784 174.698 203.82 171.459 202.582 167.922C199.895 159.85 199.895 151.124 202.582 143.051C203.821 139.539 205.785 136.326 208.346 133.621C210.884 130.987 213.964 128.938 217.373 127.615C221.141 126.172 225.15 125.46 229.184 125.517ZM229.184 174.773C232.17 174.854 235.113 174.055 237.649 172.477C240.067 170.878 241.949 168.589 243.05 165.907C245.521 159.194 245.521 151.821 243.05 145.109C241.957 142.432 240.072 140.153 237.649 138.576C235.073 137.098 232.154 136.32 229.184 136.32C226.214 136.32 223.296 137.098 220.72 138.576C218.296 140.152 216.411 142.432 215.318 145.109C212.846 151.821 212.846 159.195 215.318 165.907C216.418 168.59 218.301 170.879 220.72 172.477C223.255 174.056 226.199 174.854 229.184 174.773ZM0 38.2752V111.344H73.0677V38.276L0 38.2752ZM50.955 89.8419C49.6032 91.6851 47.7506 93.1014 45.6175 93.9227C42.9629 94.9429 40.1337 95.4315 37.2908 95.3605H20.9159V54.259H36.3406C40.8854 54.259 44.4063 55.1694 46.9031 56.9902C49.3985 58.811 50.6467 61.4263 50.6477 64.8361C50.6922 66.6247 50.2271 68.3892 49.3064 69.9233C48.3415 71.4225 46.9633 72.6105 45.3382 73.3438C47.5481 74.0011 49.4942 75.3389 50.8995 77.1667C52.2182 79.017 52.8953 81.248 52.8273 83.5191C52.8871 85.7714 52.2317 87.9854 50.955 89.8419ZM40.5043 69.7514C41.0728 69.271 41.5225 68.6655 41.8182 67.9824C42.1138 67.2993 42.2474 66.557 42.2084 65.8136C42.2084 62.557 39.9915 60.9282 35.5578 60.9272H29.2433V71.1596H35.5578C37.7183 71.1596 39.3672 70.6902 40.5043 69.7514ZM36.6198 77.5973H29.2426V88.6916H36.508C39.0033 88.6916 40.9222 88.2225 42.2647 87.2842C42.9178 86.8361 43.4454 86.2285 43.7975 85.519C44.1496 84.8096 44.3143 84.0219 44.2762 83.2308C44.2762 79.4756 41.7241 77.5978 36.6198 77.5973ZM91.3346 38.276V111.344H164.403V38.276H91.3346ZM142.29 89.8411C140.938 91.6845 139.086 93.1011 136.953 93.9227C134.298 94.943 131.469 95.4316 128.625 95.3605H112.25V54.259H127.675C132.221 54.259 135.741 55.1694 138.238 56.9902C140.734 58.811 141.982 61.4263 141.982 64.8361C142.027 66.6247 141.562 68.3892 140.641 69.9233C139.676 71.4225 138.298 72.6105 136.673 73.3438C138.883 74.0012 140.829 75.339 142.234 77.1667C143.553 79.017 144.23 81.248 144.162 83.5191C144.222 85.7713 143.567 87.9846 142.29 89.8411H142.29ZM131.839 69.7514C132.407 69.271 132.857 68.6655 133.153 67.9824C133.448 67.2993 133.582 66.557 133.543 65.8136C133.543 62.557 131.326 60.9282 126.893 60.9272H120.578V71.1596H126.892C129.053 71.1596 130.702 70.6902 131.839 69.7514ZM127.954 77.5973H120.578V88.6916H127.843C130.339 88.6916 132.257 88.2225 133.599 87.2842C134.252 86.8362 134.78 86.2286 135.132 85.5191C135.485 84.8097 135.65 84.0219 135.612 83.2308C135.612 79.4756 133.059 77.5978 127.954 77.5973ZM182.669 111.344H255.738V38.276H182.67L182.669 111.344ZM235.147 92.7549C233.283 93.7559 231.293 94.5042 229.231 94.9801C226.912 95.5336 224.536 95.8081 222.152 95.798C219.133 95.8421 216.128 95.3556 213.277 94.3609C210.777 93.4846 208.499 92.0712 206.605 90.22C204.742 88.3473 203.316 86.0865 202.428 83.599C201.424 80.7695 200.933 77.7836 200.978 74.7816C200.935 71.8295 201.447 68.8956 202.486 66.1324C203.441 63.637 204.925 61.3784 206.837 59.5122C208.786 57.6385 211.109 56.1982 213.654 55.2861C216.512 54.2746 219.527 53.7787 222.559 53.8216C224.735 53.8102 226.905 54.0465 229.028 54.5261C230.992 54.9717 232.892 55.6626 234.684 56.5824V64.5827C233.093 63.5294 231.352 62.7222 229.521 62.1886C227.617 61.6374 225.643 61.3622 223.661 61.3715C221.161 61.299 218.681 61.8407 216.438 62.9493C214.481 63.967 212.881 65.5597 211.855 67.5132C210.731 69.7671 210.183 72.2643 210.26 74.7816C210.187 77.3011 210.714 79.8018 211.798 82.0774C212.772 84.0362 214.333 85.6418 216.264 86.6702C218.465 87.7791 220.908 88.3212 223.371 88.2473C227.532 88.2739 231.615 87.1212 235.148 84.9227L235.147 92.7549ZM442.524 136.171C448.689 128.183 454.887 120.315 461.118 112.568C454.887 104.822 448.689 96.9541 442.525 88.9655C436.361 80.9753 430.298 72.9254 424.335 64.8155V160.32C430.299 152.212 436.362 144.162 442.524 136.171ZM457.663 160.32H424.335V185.757H392.851V70.9428C387.111 73.8809 381.339 76.8892 375.534 79.9678C369.726 83.0479 364.234 86.0565 359.057 88.9936V60.0287C364.652 56.8102 370.878 53.4163 377.738 49.8473C384.593 46.2793 391.799 42.6758 399.358 39.0367H424.335V64.8155L457.663 64.8148C464.44 75.3459 471.687 85.9982 479.406 96.7718C487.094 86.0449 494.312 75.4379 501.061 64.9509C490.551 42.402 472.684 24.099 450.394 13.0499C428.105 2.00084 402.719 -1.13702 378.41 4.15203C354.101 9.44108 332.315 22.8424 316.631 42.1535C300.947 61.4647 292.299 85.5368 292.108 110.414C291.917 135.291 300.195 159.493 315.581 179.042C330.967 198.592 352.545 212.326 376.77 217.987C400.995 223.648 426.426 220.9 448.882 210.194C471.338 199.489 489.485 181.462 500.339 159.077C493.793 148.95 486.815 138.712 479.406 128.363C471.685 139.137 464.437 149.789 457.663 160.319V160.32ZM510.324 96.6158C506.128 101.981 501.919 107.299 497.695 112.568C501.815 117.69 505.919 122.872 510.007 128.114C511.613 117.683 511.721 107.077 510.324 96.6158Z" fill="black"/>
</svg>
