<svg width="512" height="220" viewBox="0 0 512 220" fill="none" xmlns="http://www.w3.org/2000/svg">
<g clip-path="url(#clip0_5_131)">
<path d="M34.2095 160.168C40.7619 157.654 44.9524 151.178 44.6476 144.169C44.6476 138.226 42.5905 133.73 38.5524 130.53C34.5143 127.33 28.6476 125.73 21.1048 125.807H0V183.559H12.2667V162.607H22.1714C26.2857 169.464 30.3238 176.473 34.2095 183.559H48.5333C46.1714 179.521 43.8095 175.559 41.4476 171.749C39.0095 167.788 36.6476 163.978 34.2095 160.168ZM29.0286 150.645C27.0476 152.016 24.1524 152.702 20.3429 152.702H12.2667V135.559H20.419C24.2286 135.559 27.1238 136.245 29.1048 137.692C31.0857 139.064 32.0762 141.273 32.0762 144.245C32.0762 147.14 31.0857 149.273 29.0286 150.645ZM88.0762 125.73H74.6667C70.7809 134.797 66.9714 144.169 63.1619 153.845C59.3524 163.521 55.619 173.349 51.9619 183.483H65.2952C66.6667 179.292 68.1143 175.102 69.4857 170.988H92.9524C94.3238 175.102 95.7714 179.216 97.1429 183.483H110.781C107.2 173.883 103.543 164.283 99.7333 154.607C95.9238 144.93 92.1143 135.33 88.0762 125.73ZM73.0667 160.626C75.7333 153.159 78.4 145.692 81.219 138.378C82.5905 141.959 83.8857 145.616 85.3333 149.426C86.7809 153.235 88.0762 156.892 89.2952 160.702H73.0667V160.626ZM155.429 129.159C151.086 126.873 145.905 125.807 139.81 125.807H117.79V183.559H139.733C145.829 183.559 151.086 182.416 155.429 180.13C159.695 177.921 163.124 174.492 165.333 170.226C167.619 165.883 168.762 160.702 168.762 154.607C168.762 148.511 167.619 143.33 165.333 139.064C163.124 134.721 159.695 131.292 155.429 129.159ZM151.467 168.092C148.571 171.216 144.457 172.816 139.048 172.816H130.21V136.397H139.2C144.61 136.397 148.724 137.921 151.619 141.045C154.438 144.168 155.886 148.588 155.886 154.454C155.81 160.397 154.362 164.968 151.467 168.092ZM178.59 125.73H191.01V183.483H178.59V125.73ZM256.152 142.111C254.933 138.607 252.952 135.407 250.362 132.664C247.848 129.997 244.724 127.94 241.295 126.645C233.676 123.826 225.295 123.826 217.676 126.645C214.248 127.94 211.2 129.997 208.61 132.664C206.019 135.407 204.114 138.607 202.819 142.111C200.152 150.188 200.152 158.949 202.819 167.026C204.038 170.53 206.019 173.807 208.61 176.549C211.124 179.216 214.248 181.273 217.676 182.645C225.295 185.464 233.676 185.464 241.295 182.645C244.724 181.349 247.771 179.292 250.362 176.626C252.952 173.883 254.933 170.683 256.152 167.102C258.895 158.949 258.895 150.188 256.152 142.111ZM243.429 164.968C242.362 167.635 240.457 169.921 238.019 171.521C232.762 174.568 226.286 174.568 221.105 171.521C218.667 169.921 216.762 167.635 215.695 164.968C213.257 158.264 213.257 150.873 215.695 144.169C216.762 141.502 218.667 139.216 221.105 137.616C226.362 134.645 232.838 134.645 238.019 137.616C240.457 139.216 242.362 141.502 243.429 144.169C245.867 150.873 245.867 158.264 243.429 164.968ZM73.219 37.1971H0V110.34H73.219V37.1971ZM51.0476 88.8542C49.6762 90.6828 47.8476 92.1304 45.7143 92.9685C43.0476 93.959 40.2286 94.4923 37.3333 94.4161H20.9524V53.2733H36.419C40.9905 53.2733 44.4952 54.1876 47.0095 56.0161C49.5238 57.8447 50.7429 60.4352 50.7429 63.8637C50.819 65.6161 50.3619 67.4447 49.3714 68.9685C48.381 70.4923 47.0095 71.6352 45.4095 72.3971C47.619 73.0828 49.6 74.378 50.9714 76.2066C52.2667 78.0352 52.9524 80.3209 52.8762 82.6066C52.9524 84.7399 52.3429 86.9495 51.0476 88.8542ZM40.5333 68.7399C41.6762 67.7495 42.2857 66.3018 42.2095 64.778C42.2095 61.5018 40 59.9018 35.5809 59.9018H29.2571V70.1114H35.5809C37.7905 70.1114 39.3905 69.6542 40.5333 68.7399ZM36.6476 76.5876H29.2571V87.7114H36.5714C39.0857 87.7114 40.9905 87.2542 42.3619 86.2637C43.6571 85.3495 44.4952 83.8256 44.3429 82.2256C44.3429 78.4161 41.7524 76.5876 36.6476 76.5876ZM164.648 37.1971H91.5048V110.34H164.648V37.1971ZM142.476 88.8542C141.105 90.6828 139.276 92.1304 137.143 92.9685C134.476 93.959 131.657 94.4923 128.838 94.4161H112.457V53.2733H127.924C132.495 53.2733 136 54.1876 138.514 56.0161C141.029 57.8447 142.248 60.4352 142.248 63.8637C142.324 65.6161 141.79 67.4447 140.876 68.9685C139.886 70.4923 138.514 71.6352 136.914 72.3971C139.124 73.0828 141.105 74.378 142.476 76.2066C143.771 78.0352 144.457 80.3209 144.381 82.6066C144.457 84.7399 143.771 86.9495 142.476 88.8542ZM132.038 68.7399C133.181 67.7495 133.79 66.3018 133.714 64.778C133.714 61.5018 131.505 59.9018 127.086 59.9018H120.762V70.1114H127.086C129.219 70.1114 130.895 69.6542 132.038 68.7399ZM128.152 76.5876H120.762V87.7114H128C130.514 87.7114 132.419 87.2542 133.79 86.2637C135.086 85.3495 135.848 83.8256 135.771 82.2256C135.771 78.4161 133.257 76.5876 128.152 76.5876ZM256.152 37.1971H182.933V110.34H256.076L256.152 37.1971ZM229.562 93.959C227.276 94.4923 224.838 94.7971 222.476 94.7971C219.429 94.8733 216.457 94.3399 213.562 93.3495C211.048 92.4352 208.762 91.0637 206.857 89.2352C205.029 87.3304 203.581 85.1209 202.667 82.6066C201.676 79.7875 201.143 76.8161 201.219 73.7685C201.143 70.7971 201.676 67.9018 202.743 65.0828C203.733 62.5685 205.181 60.359 207.086 58.4542C209.067 56.5495 211.352 55.1018 213.943 54.1875C216.838 53.1971 219.81 52.6637 222.857 52.7399C225.067 52.7399 227.2 52.9685 229.333 53.4256C231.314 53.8828 233.219 54.5685 234.971 55.4828V63.4828C233.371 62.4161 231.619 61.578 229.79 61.1209C227.886 60.5876 225.905 60.2828 223.924 60.2828C221.41 60.2066 218.971 60.7399 216.686 61.8828C214.705 62.8733 213.105 64.4733 212.114 66.4542C210.971 68.7399 210.438 71.178 210.514 73.7685C210.438 76.2828 210.971 78.7971 212.038 81.0828C213.029 83.0637 214.552 84.6637 216.533 85.6542C218.743 86.7971 221.181 87.3304 223.619 87.2542C227.81 87.2542 231.848 86.1114 235.429 83.9018V91.7495C233.676 92.7399 231.619 93.5018 229.562 93.959Z" fill="black"/>
<path d="M402.286 0.549469C341.714 0.549469 292.571 49.6923 292.571 110.264C292.571 170.835 341.714 219.978 402.286 219.978C462.857 219.978 512 170.835 512 110.264C512 49.6923 462.857 0.549469 402.286 0.549469ZM456 183.711H354.133V181.045C354.057 174.111 354.667 167.102 356.038 160.321C357.257 154.378 359.39 148.588 362.362 143.33C365.638 137.692 369.676 132.588 374.4 128.092C380.267 122.53 386.514 117.426 393.219 112.93C398.781 109.121 404.19 105.007 409.371 100.664C413.333 97.2352 416.076 93.959 417.676 90.8352C419.276 87.7114 420.114 84.2828 420.038 80.8542C420.038 67.8257 411.962 61.2733 395.733 61.2733C389.029 61.2733 382.4 62.4161 376.076 64.6257C369.371 67.0638 363.048 70.5685 357.486 75.0638V46.4161C364.19 42.3018 371.352 39.1019 378.895 36.9685C386.514 34.9114 394.438 33.9209 402.362 33.9971C412.495 33.9971 421.257 35.7495 428.8 39.178C435.886 42.3018 441.981 47.3304 446.248 53.8066C450.438 60.1304 452.495 67.5971 452.495 76.2066C452.571 81.3114 451.962 86.4161 450.819 91.4447C449.752 96.0161 447.848 100.359 445.181 104.245C442.133 108.664 438.476 112.702 434.362 116.207C428.952 120.854 423.314 125.045 417.295 128.93C412.114 132.207 407.162 135.788 402.438 139.673C398.933 142.569 395.657 145.769 392.762 149.349C390.4 152.321 388.495 155.673 387.124 159.254H455.924L456 183.711Z" fill="#FF881D"/>
</g>
<defs>
<clipPath id="clip0_5_131">
<rect width="512" height="219.429" fill="white" transform="translate(0 0.549469)"/>
</clipPath>
</defs>
</svg>
