<svg width="512" height="220" viewBox="0 0 512 220" fill="none" xmlns="http://www.w3.org/2000/svg">
<g clip-path="url(#clip0_5_138)">
<path d="M402.296 0.559357C380.598 0.559357 359.388 6.9934 341.347 19.0479C323.306 31.1023 309.245 48.2358 300.942 68.2817C292.639 88.3275 290.466 110.385 294.699 131.666C298.932 152.947 309.38 172.494 324.723 187.836C340.065 203.179 359.613 213.627 380.893 217.86C402.174 222.093 424.232 219.921 444.278 211.617C464.324 203.314 481.457 189.253 493.511 171.212C505.566 153.171 512 131.961 512 110.264C512 95.8571 509.163 81.5916 503.649 68.2816C498.136 54.9716 490.056 42.8778 479.869 32.6908C469.682 22.5038 457.588 14.423 444.278 8.9099C430.968 3.39678 416.702 0.559257 402.296 0.559357ZM452.025 167.24C447.181 173.768 440.302 178.787 431.387 182.297C422.469 185.805 411.834 187.56 399.482 187.561C391.96 187.592 384.452 186.922 377.054 185.561C369.807 184.179 362.765 181.878 356.099 178.716V151.972C362.427 154.962 369.019 157.359 375.79 159.132C382.92 160.888 390.244 161.737 397.587 161.659C407.133 161.659 414.399 159.939 419.384 156.5C424.366 153.061 426.858 148.112 426.86 141.652C426.86 135.055 424.403 130.071 419.49 126.7C414.573 123.33 407.413 121.646 398.008 121.646H375.685V96.7963H396.955C405.939 96.7963 412.783 95.111 417.488 91.7403C422.19 88.3717 424.541 83.6684 424.542 77.6306C424.617 75.1488 424.033 72.6915 422.849 70.5089C421.665 68.3263 419.924 66.4964 417.803 65.2054C413.308 62.2564 406.92 60.7823 398.639 60.7834C393.911 60.7574 389.189 61.1451 384.529 61.9422C380.239 62.7002 376.014 63.7916 371.893 65.2062C367.614 66.7024 363.46 68.5333 359.469 70.682V44.5677C372.525 38.1119 386.986 34.8829 402.852 34.8809C413.803 34.8809 423.28 36.4603 431.283 39.6192C439.285 42.778 445.427 47.2707 449.71 53.0973C453.991 58.9258 456.132 65.8404 456.133 73.8409C456.268 81.1346 454.013 88.2723 449.71 94.1632C445.426 99.9917 439.423 104.45 431.703 107.537C440.406 110.484 447.181 115.047 452.026 121.226C456.87 127.404 459.291 134.915 459.291 143.758C459.291 152.886 456.868 160.713 452.025 167.24Z" fill="#CD1F2B"/>
<path d="M12.272 162.485V183.475H0V125.75H21.072C28.6606 125.75 34.4869 127.339 38.5509 130.515C42.6144 133.691 44.6461 138.239 44.6461 144.159C44.7996 147.577 43.8774 150.958 42.0094 153.825C40.1414 156.692 37.4215 158.901 34.2324 160.142C36.6532 163.964 39.0481 167.799 41.4171 171.647C43.7851 175.495 46.1534 179.438 48.5219 183.475H34.2324C30.3568 176.371 26.3472 169.374 22.2034 162.485H12.272ZM12.272 152.717H20.3459C24.1656 152.717 27.072 152.031 29.0651 150.658C31.0547 149.284 32.0503 147.118 32.0518 144.159C32.0518 141.198 31.0697 139.018 29.1055 137.618C27.1393 136.219 24.2461 135.519 20.4259 135.519H12.272V152.717ZM97.1223 183.475C95.7224 179.225 94.323 175.054 92.9242 170.962H69.5109C68.111 175.106 66.7116 179.277 65.3128 183.475H51.9924C55.6521 173.358 59.3796 163.481 63.1749 153.845C66.9686 144.212 70.8033 134.847 74.6789 125.749H88.0808C92.063 135.331 95.9515 144.952 99.7463 154.614C103.541 164.276 107.214 173.896 110.766 183.475H97.1223ZM73.0636 160.627H89.2922C88 156.859 86.6677 153.105 85.2952 149.366C83.9238 145.625 82.5646 141.952 81.2175 138.346C78.4178 145.719 75.6998 153.146 73.0636 160.627ZM117.79 125.75H139.831C145.911 125.75 151.119 126.88 155.453 129.141C159.688 131.306 163.144 134.734 165.342 138.952C167.603 143.23 168.733 148.409 168.733 154.491C168.733 160.574 167.589 165.781 165.302 170.113C163.101 174.358 159.648 177.825 155.413 180.045C151.106 182.334 145.885 183.477 139.75 183.476H117.79V125.75H117.79ZM139.105 172.82C144.485 172.82 148.616 171.245 151.498 168.095C154.376 164.948 155.816 160.413 155.816 154.491C155.816 148.627 154.404 144.147 151.579 141.051C148.753 137.955 144.621 136.408 139.186 136.408H130.223V172.819H139.105V172.82ZM178.581 125.749H191.015V183.475H178.581V125.749ZM229.525 124.538C233.566 124.481 237.58 125.194 241.353 126.639C244.768 127.965 247.853 130.017 250.395 132.654C252.959 135.364 254.926 138.581 256.169 142.098C258.86 150.183 258.86 158.922 256.169 167.007C254.928 170.549 252.961 173.793 250.395 176.531C247.863 179.19 244.776 181.258 241.353 182.588C233.716 185.386 225.335 185.386 217.698 182.588C214.275 181.259 211.188 179.191 208.657 176.531C206.091 173.793 204.125 170.549 202.884 167.007C200.193 158.922 200.193 150.183 202.884 142.098C204.125 138.581 206.092 135.363 208.657 132.654C211.198 130.017 214.283 127.964 217.698 126.639C221.471 125.195 225.485 124.481 229.525 124.538ZM229.525 173.867C232.515 173.948 235.463 173.149 238.003 171.568C240.425 169.967 242.31 167.674 243.413 164.988C245.887 158.266 245.887 150.882 243.413 144.159C242.317 141.479 240.43 139.197 238.003 137.618C235.423 136.137 232.5 135.358 229.526 135.358C226.551 135.358 223.628 136.137 221.048 137.618C218.62 139.196 216.733 141.478 215.639 144.159C213.162 150.881 213.162 158.266 215.639 164.988C216.741 167.675 218.626 169.967 221.048 171.568C223.588 173.149 226.535 173.948 229.525 173.867ZM0.00152297 37.1895V110.366H73.1771V37.1895H0.00152297ZM51.0309 88.8314C49.6774 90.677 47.8226 92.0955 45.6869 92.9182C43.0282 93.9404 40.1945 94.4296 37.3471 94.3582H20.9478V53.1963H36.3954C40.9476 53.1963 44.4737 54.1075 46.9737 55.93C49.4738 57.7535 50.7238 60.373 50.7238 63.7883C50.7687 65.58 50.3025 67.3474 49.3798 68.8839C48.4136 70.385 47.0336 71.5744 45.4065 72.3087C47.6194 72.967 49.5682 74.3068 50.9752 76.1373C52.2959 77.9903 52.974 80.2247 52.9059 82.4992C52.9667 84.7548 52.3105 86.9716 51.0316 88.8306L51.0309 88.8314ZM40.5653 68.711C41.1346 68.2297 41.5849 67.6233 41.8809 66.9392C42.177 66.2551 42.3108 65.5118 42.272 64.7674C42.272 61.5064 40.0518 59.8752 35.6114 59.8737H29.2876V70.1213H35.6114C37.7752 70.1213 39.4265 69.6507 40.5653 68.711ZM36.675 76.5693H29.2876V87.6809H36.5638C39.0629 87.6809 40.9844 87.2108 42.3284 86.2706C42.9823 85.8219 43.5106 85.2134 43.8631 84.5031C44.2157 83.7927 44.3808 83.0041 44.3429 82.2119C44.3429 78.4502 41.7869 76.5693 36.675 76.5693ZM91.4712 37.1895V110.366H164.648V37.1895H91.4712ZM142.502 88.8314C141.149 90.6773 139.294 92.0958 137.157 92.9182C134.499 93.9403 131.665 94.4295 128.818 94.3582H112.419V53.1963H127.867C132.419 53.1963 135.945 54.1075 138.445 55.93C140.945 57.7535 142.194 60.373 142.194 63.7883C142.239 65.5799 141.773 67.3474 140.851 68.8839C139.885 70.3851 138.504 71.5745 136.877 72.3087C139.09 72.9668 141.039 74.3067 142.446 76.1373C143.767 77.9904 144.445 80.2247 144.376 82.4992C144.437 84.7548 143.781 86.9724 142.502 88.8314ZM132.035 68.711C132.604 68.2298 133.055 67.6235 133.351 66.9394C133.647 66.2552 133.781 65.5118 133.742 64.7674C133.742 61.5064 131.522 59.8752 127.082 59.8737H120.757V70.1213H127.081C129.245 70.1213 130.897 69.6507 132.035 68.711ZM128.146 76.5693H120.758V87.6809H128.034C130.534 87.6809 132.455 87.2108 133.799 86.2706C134.453 85.822 134.981 85.2136 135.334 84.5032C135.687 83.7929 135.852 83.0041 135.814 82.2119C135.814 78.4502 133.258 76.5693 128.146 76.5693ZM182.942 110.366H256.118V37.1895H182.942V110.366ZM235.498 91.7487C233.63 92.7515 231.637 93.5012 229.572 93.978C227.25 94.5319 224.87 94.8066 222.483 94.7963C219.459 94.8405 216.45 94.3534 213.594 93.3571C211.091 92.4792 208.81 91.0637 206.912 89.21C205.047 87.3348 203.618 85.0709 202.729 82.5799C201.724 79.7462 201.232 76.7559 201.277 73.7495C201.234 70.7927 201.747 67.8543 202.788 65.0866C203.744 62.5878 205.23 60.326 207.145 58.4573C209.097 56.5808 211.423 55.1387 213.972 54.2256C216.834 53.2123 219.853 52.7155 222.889 52.7582C225.068 52.7466 227.241 52.9831 229.367 53.463C231.334 53.9093 233.238 54.6015 235.032 55.5232V63.5354C233.439 62.4804 231.696 61.6718 229.861 61.1369C227.954 60.585 225.978 60.3095 223.993 60.3186C221.489 60.2458 219.005 60.7881 216.76 61.898C214.799 62.9171 213.197 64.5122 212.17 66.4687C211.044 68.7257 210.495 71.2263 210.572 73.7472C210.499 76.2703 211.026 78.7747 212.111 81.0538C213.087 83.0156 214.651 84.6236 216.585 85.6535C218.789 86.7641 221.236 87.3072 223.703 87.2336C227.87 87.2605 231.959 86.1061 235.497 83.9041V91.7487H235.498Z" fill="black"/>
</g>
<defs>
<clipPath id="clip0_5_138">
<rect width="512" height="219.429" fill="white" transform="translate(0 0.549469)"/>
</clipPath>
</defs>
</svg>
