<svg width="512" height="222" viewBox="0 0 512 222" fill="none" xmlns="http://www.w3.org/2000/svg">
<path d="M12.8077 163.131V184.123H0.522306V126.393H21.6177C29.2141 126.393 35.047 127.982 39.1162 131.158C43.1838 134.334 45.218 138.883 45.218 144.804C45.218 148.626 44.3147 151.882 42.5115 154.573C40.704 157.264 38.1328 159.335 34.7927 160.789C37.2165 164.611 39.6136 168.445 41.9857 172.295C44.3561 176.144 46.7264 180.086 49.0977 184.123H34.7927C30.926 177.042 26.9107 170.043 22.7495 163.131H12.8077ZM12.8077 153.361H20.8902C24.7147 153.361 27.6247 152.675 29.6193 151.303C31.6121 149.928 32.6094 147.762 32.6094 144.804C32.6094 141.842 31.6267 139.663 29.6598 138.261C27.6919 136.862 24.7966 136.163 20.9713 136.163H12.8077V153.361ZM97.7514 184.123C96.3737 179.944 94.9727 175.772 93.5486 171.609H70.1095C68.6999 175.777 67.299 179.948 65.9066 184.123H52.5713C56.2346 174.004 59.9669 164.128 63.7655 154.49C67.4753 145.072 71.3148 135.705 75.2829 126.393H88.6992C92.6864 135.977 96.5795 145.599 100.378 155.259C104.147 164.845 107.825 174.466 111.41 184.123H97.7514ZM73.6659 161.273H89.9111C88.6179 157.505 87.2844 153.751 85.9108 150.011C84.5609 146.333 83.2005 142.66 81.8295 138.99C79.0193 146.385 76.2979 153.813 73.6659 161.273ZM118.443 126.393H140.507C146.595 126.393 151.808 127.524 156.146 129.783C160.482 132.045 163.783 135.315 166.047 139.596C168.309 143.874 169.44 149.054 169.44 155.136C169.44 161.22 168.296 166.428 166.006 170.759C163.715 175.093 160.415 178.403 156.106 180.692C151.794 182.981 146.568 184.123 140.427 184.123H118.443V126.393ZM139.78 173.465C145.166 173.465 149.302 171.89 152.186 168.74C155.068 165.594 156.51 161.059 156.51 155.136C156.51 149.271 155.095 144.79 152.267 141.695C149.438 138.599 145.302 137.052 139.86 137.052H130.888V173.465H139.78ZM179.3 126.393H191.747V184.123H179.3V126.393ZM230.3 125.181C234.663 125.181 238.61 125.884 242.14 127.283C245.669 128.682 248.686 130.687 251.192 133.298C253.698 135.908 255.623 139.057 256.971 142.742C258.317 146.43 258.992 150.59 258.992 155.219C258.992 159.794 258.317 163.937 256.971 167.652C255.623 171.365 253.698 174.543 251.192 177.178C248.686 179.818 245.669 181.836 242.14 183.236C238.61 184.635 234.663 185.334 230.3 185.334C225.936 185.334 221.988 184.635 218.458 183.236C214.929 181.836 211.912 179.818 209.407 177.178C206.901 174.543 204.974 171.365 203.629 167.652C202.28 163.937 201.608 159.794 201.608 155.219C201.608 150.59 202.28 146.43 203.629 142.742C204.974 139.057 206.901 135.908 209.407 133.298C211.912 130.687 214.929 128.682 218.458 127.283C221.988 125.884 225.936 125.181 230.3 125.181ZM230.3 174.514C233.585 174.514 236.414 173.747 238.786 172.214C241.156 170.679 242.96 168.486 244.202 165.635C245.44 162.78 246.06 159.309 246.06 155.219C246.06 151.129 245.44 147.655 244.202 144.804C242.96 141.949 241.156 139.77 238.786 138.261C236.414 136.755 233.585 136.002 230.3 136.002C227.012 136.002 224.184 136.755 221.813 138.261C219.442 139.77 217.637 141.949 216.398 144.804C215.158 147.655 214.538 151.129 214.538 155.219C214.538 159.309 215.158 162.78 216.398 165.635C217.637 168.486 219.442 170.679 221.813 172.214C224.184 173.747 227.012 174.514 230.3 174.514ZM0.522306 37.8035V110.986H73.7797V37.8035H0.522306ZM51.6094 89.45C50.3578 91.2162 48.5736 92.5789 46.2584 93.5383C43.9415 94.4976 41.1591 94.9769 37.9095 94.9769H21.4928V53.8126H36.9571C41.5142 53.8126 45.0439 54.7245 47.547 56.5467C50.0493 58.3706 51.3008 60.9901 51.3008 64.406C51.3008 66.3635 50.8526 68.0615 49.9562 69.501C49.0597 70.9404 47.7332 72.0834 45.9782 72.9264C48.4064 73.7323 50.2647 75.0089 51.5534 76.7552C52.842 78.5024 53.4867 80.6228 53.4867 83.1173C53.4867 85.5738 52.8601 87.6856 51.6094 89.45ZM41.1315 69.3286C42.2701 68.3882 42.8407 67.0737 42.8407 65.3843C42.8407 62.1227 40.6178 60.491 36.1727 60.491H29.8416V70.7387H36.1727C38.3388 70.7387 39.992 70.269 41.1315 69.3286ZM37.2372 77.187H29.8416V88.2985H37.1251C39.6274 88.2985 41.5513 87.8295 42.8968 86.8883C44.2414 85.9479 44.9137 84.5955 44.9137 82.8294C44.9137 79.0678 42.3546 77.187 37.2372 77.187ZM92.0936 37.8035V110.986H165.351V37.8035H92.0936ZM143.181 89.45C141.928 91.2162 140.145 92.5789 137.83 93.5383C135.513 94.4976 132.73 94.9769 129.481 94.9769H113.063V53.8126H128.528C133.085 53.8126 136.615 54.7245 139.118 56.5467C141.621 58.3706 142.872 60.9901 142.872 64.406C142.872 66.3635 142.424 68.0615 141.527 69.501C140.631 70.9404 139.304 72.0834 137.55 72.9264C139.977 73.7323 141.836 75.0089 143.125 76.7552C144.413 78.5024 145.057 80.6228 145.057 83.1173C145.057 85.5738 144.431 87.6856 143.181 89.45ZM132.703 69.3286C133.841 68.3882 134.412 67.0737 134.412 65.3843C134.412 62.1227 132.188 60.491 127.744 60.491H121.412V70.7387H127.744C129.91 70.7387 131.562 70.269 132.703 69.3286ZM128.808 77.187H121.412V88.2985H128.696C131.199 88.2985 133.123 87.8295 134.467 86.8883C135.812 85.9479 136.485 84.5955 136.485 82.8294C136.485 79.0678 133.926 77.187 128.808 77.187ZM183.665 110.986H256.922V37.8035H183.665V110.986ZM236.278 92.3686C234.572 93.309 232.595 94.052 230.347 94.5967C228.097 95.1424 225.731 95.4156 223.25 95.4156C219.954 95.4156 216.987 94.9355 214.351 93.977C211.714 93.0176 209.485 91.6342 207.662 89.8293C205.839 88.0226 204.443 85.8134 203.474 83.1983C202.505 80.584 202.02 77.6395 202.02 74.3667C202.02 71.1689 202.524 68.2813 203.533 65.7041C204.541 63.1277 205.995 60.9168 207.895 59.0731C209.794 57.2302 212.072 55.8201 214.729 54.8409C217.384 53.8634 220.361 53.3738 223.657 53.3738C225.944 53.3738 228.106 53.6092 230.142 54.0789C232.178 54.5504 234.068 55.2365 235.814 56.139V64.1526C234.219 63.0971 232.473 62.2884 230.637 61.7537C228.776 61.209 226.817 60.9357 224.763 60.9357C221.931 60.9357 219.517 61.4633 217.521 62.5157C215.524 63.5699 213.992 65.0929 212.926 67.0866C211.859 69.0812 211.327 71.5076 211.327 74.3667C211.327 77.2258 211.84 79.6625 212.868 81.6743C213.895 83.687 215.388 85.2204 217.347 86.2737C219.304 87.327 221.68 87.8537 224.471 87.8537C228.736 87.8537 232.672 86.7444 236.278 84.524V92.3686Z" fill="black"/>
<path d="M511.658 128.162C510.953 131.812 509.836 135.162 508.26 138.14C505.384 143.568 501.175 147.773 495.746 150.64C490.378 153.476 483.348 154.914 476.026 154.914C468.628 154.914 462.175 153.475 456.843 150.637C451.452 147.77 447.262 143.564 444.39 138.14C441.552 132.781 440.112 126.28 440.112 118.813V67.7116H460.927V120.705C460.927 125.824 462.232 129.756 464.806 132.392C467.403 135.052 471.074 136.346 476.026 136.346C480.978 136.346 484.649 135.052 487.247 132.392C489.821 129.754 491.127 125.823 491.127 120.705V67.7116H504.173C487.384 28.5961 448.493 1.19293 403.192 1.19293C342.538 1.19293 293.367 50.313 293.367 110.906C293.367 171.498 342.538 220.619 403.192 220.619C458.19 220.619 503.745 180.232 511.764 127.528C511.729 127.741 511.693 127.957 511.658 128.162ZM432.798 167.885C427.948 174.414 421.061 179.435 412.136 182.944C403.209 186.452 392.562 188.209 380.196 188.209C372.322 188.209 364.839 187.541 357.743 186.209C350.643 184.875 343.649 182.595 336.765 179.363V152.616C343.37 155.706 349.942 158.091 356.477 159.777C363.013 161.462 370.287 162.304 378.298 162.304C387.855 162.304 395.129 160.586 400.119 157.144C405.106 153.705 407.604 148.756 407.604 142.295C407.604 135.697 405.143 130.713 400.225 127.341C395.303 123.973 388.135 122.287 378.72 122.287H356.373V97.436H377.666C386.659 97.436 393.511 95.7509 398.221 92.3798C402.929 89.0104 405.284 84.3085 405.284 78.2696C405.284 72.935 403.035 68.7924 398.538 65.8428C394.038 62.8941 387.644 61.4202 379.352 61.4202C374.292 61.4202 369.582 61.8098 365.227 62.5786C360.932 63.3371 356.702 64.4284 352.577 65.8428C348.499 67.2487 344.355 69.0743 340.139 71.3197V45.2034C353.209 38.7474 367.684 35.5159 383.569 35.5159C394.532 35.5159 404.02 37.0941 412.031 40.2541C420.043 43.4122 426.189 47.9082 430.478 53.7333C434.764 59.5618 436.908 66.4755 436.908 74.4787C436.908 82.2027 434.764 88.9777 430.478 94.8019C426.189 100.63 420.181 105.09 412.452 108.177C421.165 111.125 427.948 115.69 432.798 121.867C437.646 128.046 440.07 135.556 440.07 144.401C440.07 153.531 437.646 161.357 432.798 167.885Z" fill="#CD1F2B"/>
</svg>
