<svg width="512" height="220" viewBox="0 0 512 220" fill="none" xmlns="http://www.w3.org/2000/svg">
<g clip-path="url(#clip0_5_158)">
<path d="M368.608 131.95H411.256V72.4985C403.83 82.5836 396.546 92.5622 389.406 102.434C382.263 112.308 375.331 122.146 368.608 131.95ZM402.296 0.201355C380.598 0.201355 359.388 6.6354 341.347 18.6899C323.306 30.7443 309.245 47.8778 300.942 67.9237C292.639 87.9695 290.466 110.027 294.699 131.308C298.932 152.589 309.38 172.136 324.723 187.478C340.065 202.821 359.613 213.269 380.893 217.502C402.174 221.735 424.232 219.563 444.278 211.259C464.324 202.956 481.457 188.895 493.511 170.854C505.566 152.813 512 131.603 512 109.906C512 95.4991 509.163 81.2336 503.649 67.9236C498.136 54.6136 490.056 42.5198 479.869 32.3328C469.682 22.1458 457.588 14.065 444.278 8.5519C430.968 3.03877 416.702 0.201255 402.296 0.201355ZM456.842 156.321H441.086V184.471H411.256V156.321H340.038V131.742C350.82 115.915 361.779 100.368 372.914 85.1019C384.049 69.8389 395.989 54.0134 408.734 37.6254H441.086V131.949H456.842V156.321Z" fill="#004BE1"/>
<path d="M12.272 162.127V183.117H0V125.392H21.072C28.6606 125.392 34.4869 126.981 38.5509 130.157C42.6144 133.333 44.6461 137.881 44.6461 143.801C44.7996 147.219 43.8774 150.6 42.0094 153.467C40.1414 156.334 37.4215 158.543 34.2324 159.784C36.6532 163.606 39.0481 167.441 41.4171 171.289C43.7851 175.138 46.1534 179.08 48.5219 183.117H34.2324C30.3568 176.013 26.3472 169.016 22.2034 162.127H12.272ZM12.272 152.359H20.3459C24.1656 152.359 27.072 151.673 29.0651 150.3C31.0547 148.926 32.0503 146.76 32.0518 143.801C32.0518 140.84 31.0697 138.66 29.1055 137.26C27.1393 135.861 24.2461 135.161 20.4259 135.161H12.272V152.359ZM97.1223 183.117C95.7224 178.867 94.323 174.696 92.9242 170.604H69.5109C68.111 174.748 66.7116 178.919 65.3128 183.117H51.9924C55.6521 173 59.3796 163.123 63.1749 153.487C66.9686 143.854 70.8033 134.489 74.6789 125.391H88.0808C92.063 134.973 95.9515 144.594 99.7463 154.256C103.541 163.918 107.214 173.538 110.766 183.117H97.1223ZM73.0636 160.269H89.2922C88 156.501 86.6677 152.747 85.2952 149.008C83.9238 145.267 82.5646 141.594 81.2175 137.988C78.4178 145.361 75.6998 152.788 73.0636 160.269ZM117.79 125.392H139.831C145.911 125.392 151.119 126.522 155.453 128.783C159.688 130.948 163.144 134.376 165.342 138.594C167.603 142.872 168.733 148.051 168.733 154.133C168.733 160.216 167.589 165.423 165.302 169.755C163.101 174 159.648 177.467 155.413 179.687C151.106 181.976 145.885 183.119 139.75 183.118H117.79V125.392H117.79ZM139.105 172.462C144.485 172.462 148.616 170.887 151.498 167.737C154.376 164.59 155.816 160.055 155.816 154.133C155.816 148.269 154.404 143.789 151.579 140.693C148.753 137.597 144.621 136.05 139.186 136.05H130.223V172.461H139.105V172.462ZM178.581 125.391H191.015V183.117H178.581V125.391ZM229.525 124.18C233.566 124.123 237.58 124.837 241.353 126.281C244.768 127.607 247.853 129.659 250.395 132.296C252.959 135.006 254.926 138.223 256.169 141.74C258.86 149.825 258.86 158.564 256.169 166.649C254.928 170.191 252.961 173.435 250.395 176.173C247.863 178.832 244.776 180.9 241.353 182.23C233.716 185.028 225.335 185.028 217.698 182.23C214.275 180.901 211.188 178.833 208.657 176.173C206.091 173.435 204.125 170.191 202.884 166.649C200.193 158.564 200.193 149.825 202.884 141.74C204.125 138.223 206.092 135.005 208.657 132.296C211.198 129.659 214.283 127.606 217.698 126.281C221.471 124.837 225.485 124.123 229.525 124.18ZM229.525 173.509C232.515 173.59 235.463 172.791 238.003 171.21C240.425 169.609 242.31 167.316 243.413 164.63C245.887 157.908 245.887 150.524 243.413 143.801C242.317 141.121 240.43 138.839 238.003 137.26C235.423 135.779 232.5 135 229.526 135C226.551 135 223.628 135.779 221.048 137.26C218.62 138.838 216.733 141.12 215.639 143.801C213.162 150.524 213.162 157.908 215.639 164.63C216.741 167.317 218.626 169.609 221.048 171.21C223.588 172.791 226.535 173.59 229.525 173.509ZM0.00152297 36.8315V110.008H73.1771V36.8315H0.00152297ZM51.0309 88.4734C49.6774 90.319 47.8226 91.7375 45.6869 92.5602C43.0282 93.5824 40.1945 94.0717 37.3471 94.0002H20.9478V52.8383H36.3954C40.9476 52.8383 44.4737 53.7496 46.9737 55.5721C49.4738 57.3955 50.7238 60.015 50.7238 63.4303C50.7687 65.222 50.3025 66.9895 49.3798 68.526C48.4136 70.027 47.0336 71.2165 45.4065 71.9507C47.6194 72.609 49.5682 73.9488 50.9752 75.7793C52.2959 77.6324 52.974 79.8667 52.9059 82.1412C52.9667 84.3968 52.3105 86.6136 51.0316 88.4726L51.0309 88.4734ZM40.5653 68.353C41.1346 67.8718 41.5849 67.2654 41.8809 66.5812C42.177 65.8971 42.3108 65.1538 42.272 64.4094C42.272 61.1484 40.0518 59.5172 35.6114 59.5157H29.2876V69.7633H35.6114C37.7752 69.7633 39.4265 69.2927 40.5653 68.353ZM36.675 76.2113H29.2876V87.3229H36.5638C39.0629 87.3229 40.9844 86.8528 42.3284 85.9126C42.9823 85.4639 43.5106 84.8555 43.8631 84.1451C44.2157 83.4348 44.3808 82.6461 44.3429 81.854C44.3429 78.0922 41.7869 76.2113 36.675 76.2113ZM91.4712 36.8315V110.008H164.648V36.8315H91.4712ZM142.502 88.4734C141.149 90.3194 139.294 91.7379 137.157 92.5602C134.499 93.5823 131.665 94.0716 128.818 94.0002H112.419V52.8383H127.867C132.419 52.8383 135.945 53.7496 138.445 55.5721C140.945 57.3955 142.194 60.015 142.194 63.4303C142.239 65.222 141.773 66.9894 140.851 68.526C139.885 70.0271 138.504 71.2166 136.877 71.9507C139.09 72.6089 141.039 73.9487 142.446 75.7793C143.767 77.6325 144.445 79.8668 144.376 82.1412C144.437 84.3968 143.781 86.6144 142.502 88.4734ZM132.035 68.353C132.604 67.8719 133.055 67.2655 133.351 66.5814C133.647 65.8973 133.781 65.1539 133.742 64.4094C133.742 61.1484 131.522 59.5172 127.082 59.5157H120.757V69.7633H127.081C129.245 69.7633 130.897 69.2927 132.035 68.353ZM128.146 76.2113H120.758V87.3229H128.034C130.534 87.3229 132.455 86.8528 133.799 85.9126C134.453 85.464 134.981 84.8556 135.334 84.1453C135.687 83.4349 135.852 82.6462 135.814 81.854C135.814 78.0922 133.258 76.2113 128.146 76.2113ZM182.942 110.008H256.118V36.8315H182.942V110.008ZM235.498 91.3907C233.63 92.3935 231.637 93.1432 229.572 93.6201C227.25 94.1739 224.87 94.4487 222.483 94.4383C219.459 94.4826 216.45 93.9954 213.594 92.9991C211.091 92.1212 208.81 90.7057 206.912 88.8521C205.047 86.9768 203.618 84.7129 202.729 82.222C201.724 79.3882 201.232 76.3979 201.277 73.3915C201.234 70.4348 201.747 67.4963 202.788 64.7286C203.744 62.2298 205.23 59.9681 207.145 58.0993C209.097 56.2229 211.423 54.7807 213.972 53.8677C216.834 52.8543 219.853 52.3575 222.889 52.4002C225.068 52.3887 227.241 52.6251 229.367 53.105C231.334 53.5514 233.238 54.2435 235.032 55.1652V63.1774C233.439 62.1224 231.696 61.3138 229.861 60.7789C227.954 60.227 225.978 59.9515 223.993 59.9606C221.489 59.8878 219.005 60.4301 216.76 61.5401C214.799 62.5592 213.197 64.1542 212.17 66.1107C211.044 68.3677 210.495 70.8683 210.572 73.3892C210.499 75.9123 211.026 78.4168 212.111 80.6959C213.087 82.6576 214.651 84.2657 216.585 85.2955C218.789 86.4061 221.236 86.9492 223.703 86.8757C227.87 86.9025 231.959 85.7481 235.497 83.5462V91.3907H235.498Z" fill="black"/>
</g>
<defs>
<clipPath id="clip0_5_158">
<rect width="512" height="219.429" fill="white" transform="translate(0 0.191467)"/>
</clipPath>
</defs>
</svg>
