<svg width="512" height="220" viewBox="0 0 512 220" fill="none" xmlns="http://www.w3.org/2000/svg">
<g clip-path="url(#clip0_5_154)">
<path d="M12.272 162.127V183.117H0V125.391H21.072C28.6606 125.391 34.4869 126.98 38.5509 130.156C42.6144 133.333 44.6463 137.881 44.6469 143.801C44.8003 147.219 43.8779 150.6 42.0096 153.467C40.1413 156.335 37.4211 158.544 34.2316 159.785C36.6535 163.606 39.0486 167.441 41.4171 171.289C43.7851 175.139 46.1534 179.081 48.5219 183.117H34.2324C30.3568 176.012 26.3469 169.015 22.2027 162.127H12.272ZM12.272 152.358H20.3459C24.1656 152.358 27.072 151.672 29.0651 150.3C31.0552 148.925 32.0508 146.759 32.0518 143.801C32.0518 140.839 31.0697 138.659 29.1055 137.259C27.1398 135.86 24.2466 135.161 20.4259 135.161H12.272V152.358ZM97.1223 183.116C95.7219 178.867 94.3225 174.696 92.9242 170.604H69.5109C68.1105 174.747 66.7111 178.919 65.3128 183.117H51.9916C55.6513 173 59.3788 163.123 63.1741 153.487C66.9674 143.855 70.802 134.49 74.6781 125.391H88.08C92.0622 134.973 95.9507 144.594 99.7455 154.255C103.54 163.917 107.214 173.537 110.766 183.116H97.1223ZM73.0636 160.27H89.2907C87.999 156.502 86.6672 152.748 85.2952 149.008C83.9228 145.267 82.5636 141.593 81.2175 137.988C78.4183 145.361 75.7003 152.788 73.0636 160.27ZM117.79 125.391H139.831C145.912 125.391 151.119 126.522 155.453 128.782C159.688 130.947 163.144 134.376 165.342 138.594C167.603 142.871 168.733 148.05 168.733 154.133C168.733 160.216 167.589 165.423 165.302 169.754C163.101 174 159.649 177.467 155.413 179.686C151.106 181.975 145.885 183.119 139.751 183.117H117.79V125.391ZM139.105 172.462C144.485 172.462 148.616 170.887 151.497 167.737C154.376 164.59 155.815 160.055 155.816 154.133C155.816 148.269 154.404 143.788 151.578 140.692C148.752 137.597 144.621 136.05 139.186 136.051H130.223V172.462H139.105ZM178.582 125.391H191.015V183.117H178.582V125.391ZM229.525 124.18C233.565 124.123 237.579 124.836 241.352 126.281C244.767 127.607 247.852 129.659 250.395 132.295C252.958 135.005 254.925 138.222 256.168 141.74C258.859 149.825 258.859 158.564 256.168 166.649C254.926 170.19 252.96 173.434 250.395 176.172C247.863 178.832 244.775 180.9 241.352 182.23C233.716 185.027 225.334 185.027 217.698 182.23C214.275 180.9 211.188 178.832 208.656 176.172C206.09 173.434 204.124 170.19 202.883 166.649C200.192 158.564 200.192 149.825 202.883 141.74C204.125 138.222 206.092 135.004 208.656 132.295C211.198 129.658 214.283 127.606 217.698 126.281C221.471 124.837 225.485 124.123 229.525 124.18ZM229.525 173.509C232.515 173.59 235.463 172.79 238.002 171.209C240.424 169.608 242.309 167.316 243.412 164.63C245.887 157.908 245.887 150.523 243.412 143.801C242.317 141.12 240.429 138.838 238.002 137.259C235.422 135.779 232.5 135 229.525 135C226.551 135 223.628 135.779 221.048 137.259C218.621 138.837 216.733 141.12 215.639 143.801C213.162 150.523 213.162 157.908 215.639 164.63C216.741 167.317 218.626 169.609 221.048 171.209C223.587 172.79 226.535 173.59 229.525 173.509ZM0.000761486 36.8315V110.009H73.1771V36.8315H0.000761486ZM51.0309 88.4741C49.6773 90.3202 47.8222 91.739 45.6861 92.5618C43.0273 93.5834 40.1937 94.0724 37.3463 94.001H20.947V52.8391H36.3947C40.9468 52.8391 44.4729 53.7509 46.9729 55.5743C49.4725 57.3973 50.7225 60.0165 50.7231 63.4319C50.7677 65.2232 50.3018 66.9902 49.3798 68.5267C48.4137 70.028 47.0337 71.2177 45.4065 71.9522C47.6192 72.6106 49.5679 73.9501 50.9752 75.7801C52.2959 77.6331 52.974 79.8674 52.9059 82.142C52.9662 84.3977 52.3101 86.6146 51.0316 88.4741H51.0309ZM40.5646 68.3538C41.134 67.8726 41.5843 67.2663 41.8804 66.5821C42.1765 65.898 42.3102 65.1546 42.2712 64.4102C42.2717 61.1492 40.0518 59.5182 35.6114 59.5172H29.2876V69.7648H35.6114C37.7752 69.7648 39.4263 69.2945 40.5646 68.3538ZM36.675 76.212H29.2869V87.3229H36.563C39.0621 87.3229 40.9836 86.8528 42.3276 85.9126C42.9817 85.464 43.5102 84.8557 43.8629 84.1453C44.2156 83.4349 44.3808 82.6462 44.3429 81.854C44.3429 78.0932 41.7869 76.2126 36.675 76.212ZM91.4712 36.8315V110.009H164.648V36.8315H91.4712ZM142.501 88.4741C141.148 90.3202 139.293 91.739 137.157 92.5618C134.498 93.5833 131.665 94.0723 128.818 94.001H112.418V52.8391H127.866C132.418 52.8391 135.944 53.7509 138.444 55.5743C140.943 57.3973 142.193 60.0165 142.194 63.4319C142.239 65.2233 141.773 66.9903 140.85 68.5267C139.884 70.028 138.504 71.2177 136.877 71.9522C139.09 72.6106 141.038 73.9501 142.446 75.7801C143.767 77.633 144.445 79.8674 144.377 82.142C144.437 84.3978 143.781 86.6147 142.502 88.4741H142.501ZM132.035 68.3538C132.605 67.8727 133.055 67.2664 133.351 66.5822C133.648 65.8981 133.781 65.1547 133.742 64.4102C133.742 61.1492 131.522 59.5182 127.082 59.5172H120.758V69.7648H127.082C129.246 69.7648 130.897 69.2945 132.036 68.3538H132.035ZM128.146 76.212H120.757V87.3229H128.034C130.533 87.3229 132.454 86.8528 133.798 85.9126C134.452 85.464 134.981 84.8557 135.333 84.1453C135.686 83.4349 135.851 82.6462 135.813 81.854C135.813 78.0932 133.257 76.2126 128.146 76.212ZM182.942 110.009H256.118V36.8315H182.942V110.009ZM235.498 91.3922C233.63 92.3948 231.637 93.1443 229.572 93.6208C227.25 94.1748 224.87 94.4495 222.483 94.4391C219.459 94.4835 216.45 93.9966 213.594 93.0006C211.091 92.1227 208.81 90.7069 206.913 88.8528C205.048 86.9775 203.619 84.7136 202.73 82.2227C201.724 79.389 201.232 76.3987 201.277 73.3922C201.234 70.4355 201.746 67.4969 202.788 64.7294C203.744 62.2305 205.231 59.9687 207.146 58.1001C209.097 56.2236 211.423 54.7813 213.972 53.8677C216.834 52.8544 219.854 52.3576 222.89 52.4002C225.069 52.3888 227.243 52.6255 229.368 53.1058C231.335 53.5521 233.239 54.244 235.033 55.1652V63.1781C233.44 62.123 231.697 61.3144 229.862 60.7797C227.955 60.2279 225.979 59.9526 223.994 59.9622C221.49 59.8895 219.006 60.4321 216.76 61.5423C214.8 62.5613 213.198 64.1561 212.171 66.1122C211.045 68.3695 210.496 70.8704 210.573 73.3915C210.5 75.9149 211.027 78.4196 212.113 80.6989C213.089 82.6604 214.653 84.2682 216.587 85.2978C218.791 86.4085 221.237 86.9516 223.704 86.878C227.871 86.9046 231.96 85.7502 235.498 83.5484V91.3922Z" fill="black"/>
<path d="M511.054 95.4623C506.909 100.762 502.749 106.015 498.577 111.22C502.647 116.281 506.702 121.399 510.741 126.576C512.307 116.271 512.413 105.797 511.054 95.4623ZM352.675 131.942H395.323V72.4901C387.896 82.5752 380.613 92.5536 373.472 102.425C366.329 112.299 359.397 122.138 352.675 131.942V131.942ZM458.51 158.999H425.153V184.462H395.322V158.999H324.104V131.734C334.886 115.906 345.844 100.36 356.98 85.0936C368.114 69.8311 380.054 54.0058 392.8 37.6177H425.152V131.942H445.62C451.045 124.947 456.494 118.04 461.968 111.22C455.731 103.467 449.528 95.5926 443.358 87.5972C437.189 79.6002 431.121 71.5433 425.152 63.4265H458.509C465.291 73.9667 472.546 84.6283 480.272 95.4113C487.924 84.7329 495.111 74.1737 501.834 63.7336C491.347 41.133 473.479 22.7754 451.17 11.6814C428.862 0.587296 403.441 -2.58235 379.091 2.69395C354.741 7.97025 332.912 21.3782 317.197 40.7116C301.481 60.045 292.815 84.1522 292.624 109.067C292.433 133.981 300.728 158.218 316.145 177.79C331.563 197.363 353.183 211.104 377.449 216.753C401.715 222.402 427.182 219.623 449.658 208.872C472.134 198.122 490.282 180.04 501.114 157.603C494.593 147.522 487.646 137.331 480.272 127.03C472.544 137.814 465.29 148.47 458.51 158.999Z" fill="#004BE1"/>
</g>
<defs>
<clipPath id="clip0_5_154">
<rect width="512" height="219.429" fill="white" transform="translate(0 0.191467)"/>
</clipPath>
</defs>
</svg>
