<svg width="512" height="220" viewBox="0 0 512 220" fill="none" xmlns="http://www.w3.org/2000/svg">
<g clip-path="url(#clip0_5_170)">
<path d="M417.297 121.09C421.504 125.228 423.607 130.942 423.608 138.233C423.703 142.698 422.767 147.125 420.872 151.17C419.178 154.744 416.472 157.743 413.09 159.795C409.451 161.899 405.301 162.954 401.1 162.843C392.686 162.843 386.13 159.618 381.432 153.168C376.733 146.718 373.963 137.182 373.124 124.56C376.842 121.514 381.035 119.099 385.534 117.408C390.11 115.709 394.956 114.854 399.838 114.884C407.269 114.884 413.089 116.953 417.297 121.09ZM512 109.95C512 131.646 505.566 152.855 493.512 170.895C481.458 188.935 464.325 202.995 444.28 211.298C424.236 219.601 402.179 221.773 380.899 217.54C359.62 213.308 340.073 202.86 324.732 187.518C309.39 172.176 298.942 152.63 294.71 131.35C290.477 110.071 292.65 88.0139 300.952 67.9691C309.255 47.9242 323.316 30.7916 341.356 18.7378C359.395 6.6839 380.605 0.250183 402.301 0.250183C431.395 0.250183 459.297 11.8077 479.87 32.3803C500.443 52.9528 512 80.8552 512 109.949V109.95ZM454.739 138.442C454.739 128.767 452.811 120.423 448.955 113.411C445.206 106.509 439.497 100.873 432.548 97.2148C425.465 93.4286 417.086 91.535 407.41 91.534C395.065 91.4366 383.077 95.6811 373.544 103.526C376.769 75.0588 391.003 60.8247 416.245 60.8231C421.516 60.7873 426.774 61.3522 431.917 62.507C437.197 63.7744 442.366 65.4624 447.377 67.5546V41.6818C442.155 39.4246 436.732 37.6637 431.179 36.4224C425.646 35.2665 420.005 34.7026 414.352 34.7401C403.132 34.7401 393.035 36.6332 384.062 40.4193C375.292 44.0572 367.481 49.6725 361.239 56.8269C354.997 63.9782 350.229 72.6728 346.935 82.9108C343.638 93.1477 341.99 104.647 341.991 117.408C341.991 132.274 344.34 144.895 349.039 155.27C353.735 165.651 360.571 173.574 369.548 179.04C378.52 184.51 389.318 187.245 401.941 187.244C409.24 187.335 416.499 186.161 423.397 183.774C429.573 181.623 435.258 178.262 440.12 173.888C444.81 169.623 448.508 164.381 450.953 158.533C453.557 152.16 454.845 145.326 454.739 138.442Z" fill="#00F320"/>
<path d="M12.2712 162.163V183.152H0V125.43H21.0705C28.659 125.43 34.4851 127.018 38.5486 130.195C42.6121 133.37 44.6441 137.918 44.6446 143.838C44.7979 147.256 43.8757 150.637 42.0077 153.504C40.1396 156.371 37.4198 158.58 34.2309 159.82C36.6522 163.642 39.0471 167.477 41.4156 171.325C43.7831 175.174 46.1511 179.116 48.5196 183.152H34.2309C30.3553 176.048 26.3457 169.051 22.2019 162.163H12.2712ZM12.2712 152.395H20.3444C24.1646 152.395 27.071 151.709 29.0636 150.336C31.0537 148.962 32.0493 146.795 32.0503 143.837C32.0503 140.876 31.0682 138.696 29.104 137.296C27.1383 135.897 24.2453 135.198 20.4251 135.198H12.2712V152.395ZM97.117 183.152C95.7171 178.902 94.3177 174.731 92.9189 170.64H69.5086C68.1082 174.783 66.7088 178.954 65.3105 183.152H51.9901C55.6493 173.036 59.3765 163.159 63.1718 153.523C66.9651 143.891 70.7995 134.527 74.6751 125.43H88.0762C92.0584 135.01 95.9469 144.631 99.7417 154.292C103.537 163.953 107.21 173.573 110.762 183.152H97.117ZM73.0598 160.306H89.2869C87.9952 156.538 86.6631 152.784 85.2907 149.045C83.9192 145.304 82.5603 141.631 81.2137 138.025C78.4145 145.398 75.6965 152.824 73.0598 160.306ZM117.785 125.43H139.825C145.905 125.43 151.112 126.56 155.446 128.82C159.68 130.985 163.136 134.414 165.335 138.63C167.595 142.908 168.725 148.087 168.725 154.169C168.725 160.252 167.582 165.459 165.294 169.79C163.093 174.036 159.641 177.503 155.405 179.722C151.099 182.01 145.878 183.154 139.744 183.152H117.785V125.43ZM139.099 172.497C144.478 172.497 148.609 170.922 151.49 167.772C154.369 164.626 155.808 160.091 155.809 154.169C155.809 148.305 154.396 143.825 151.571 140.729C148.745 137.634 144.614 136.087 139.179 136.087H130.217V172.497H139.099ZM178.573 125.43H191.006V183.152H178.574L178.573 125.43ZM229.515 124.218C233.554 124.162 237.568 124.875 241.341 126.32C244.756 127.645 247.841 129.697 250.383 132.333C252.946 135.043 254.913 138.26 256.155 141.777C258.846 149.861 258.846 158.599 256.155 166.684C254.914 170.225 252.948 173.469 250.383 176.208C247.851 178.868 244.764 180.936 241.341 182.265C233.704 185.063 225.323 185.063 217.687 182.265C214.264 180.936 211.177 178.868 208.646 176.208C206.08 173.47 204.114 170.226 202.874 166.684C200.183 158.6 200.183 149.862 202.874 141.777C204.116 138.26 206.082 135.042 208.646 132.333C211.188 129.696 214.273 127.644 217.687 126.32C221.46 124.875 225.474 124.162 229.515 124.218ZM229.515 173.545C232.505 173.625 235.452 172.826 237.992 171.245C240.414 169.644 242.299 167.352 243.401 164.666C245.876 157.944 245.876 150.56 243.401 143.838C242.306 141.158 240.419 138.875 237.992 137.296C235.412 135.816 232.489 135.037 229.515 135.037C226.541 135.037 223.618 135.816 221.038 137.296C218.611 138.875 216.723 141.157 215.629 143.838C213.153 150.56 213.153 157.944 215.629 164.666C216.731 167.353 218.616 169.645 221.038 171.245C223.577 172.826 226.525 173.626 229.515 173.545ZM0 36.8513V110.025H73.1733V36.8513H0ZM51.0286 88.491C49.6751 90.3371 47.82 91.7558 45.6838 92.5786C43.0251 93.6002 40.1914 94.0892 37.344 94.0178H20.9455V52.8574H36.3924C40.9445 52.8574 44.4706 53.7689 46.9707 55.5919C49.4697 57.4154 50.7197 60.0346 50.7208 63.4494C50.7654 65.2408 50.2996 67.0078 49.3775 68.5443C48.4112 70.0457 47.0309 71.2354 45.4034 71.9698C47.6164 72.628 49.5654 73.9675 50.9729 75.7976C52.2934 77.6508 52.9712 79.8851 52.9029 82.1595C52.9631 84.4151 52.3069 86.6317 51.0286 88.491ZM40.5623 68.3713C41.1316 67.8903 41.5819 67.284 41.8779 66.6C42.174 65.916 42.3078 65.1728 42.269 64.4285C42.269 61.167 40.0493 59.536 35.6099 59.5355H29.2853V69.7816H35.6091C37.773 69.7816 39.424 69.3118 40.5623 68.3721V68.3713ZM36.6728 76.2296H29.2853V87.3397H36.5608C39.0598 87.3397 40.9813 86.8696 42.3253 85.9294C42.9795 85.4809 43.508 84.8725 43.8607 84.1622C44.2134 83.4518 44.3786 82.663 44.3406 81.8708C44.3406 78.11 41.7846 76.2296 36.6728 76.2296ZM91.4667 36.8506V110.024H164.64V36.8506H91.4667ZM142.494 88.491C141.141 90.337 139.286 91.7557 137.15 92.5786C134.492 93.6002 131.658 94.0892 128.811 94.0178H112.412V52.8574H127.859C132.411 52.8574 135.937 53.7689 138.437 55.5919C140.936 57.4154 142.186 60.0346 142.187 63.4494C142.232 65.2408 141.766 67.0079 140.843 68.5443C139.877 70.0456 138.497 71.2353 136.87 71.9698C139.083 72.6281 141.032 73.9676 142.439 75.7976C143.76 77.6507 144.438 79.885 144.37 82.1595C144.43 84.4151 143.774 86.6317 142.495 88.491H142.494ZM132.029 68.3713C132.598 67.8903 133.049 67.284 133.345 66.6C133.641 65.916 133.775 65.1728 133.736 64.4285C133.736 61.167 131.516 59.536 127.076 59.5355H120.752V69.7816H127.076C129.24 69.7816 130.891 69.3118 132.029 68.3721V68.3713ZM128.139 76.2296H120.752V87.3397H128.027C130.526 87.3397 132.448 86.8696 133.792 85.9294C134.446 85.4809 134.975 84.8725 135.327 84.1622C135.68 83.4518 135.845 82.663 135.807 81.8708C135.807 78.11 133.251 76.2296 128.139 76.2296ZM182.933 110.024H256.107V36.8506H182.933V110.024ZM235.487 91.4091C233.62 92.4116 231.627 93.1611 229.561 93.6376C227.239 94.1916 224.86 94.4663 222.473 94.4559C219.449 94.5001 216.44 94.0129 213.584 93.0167C211.081 92.139 208.8 90.7235 206.903 88.8696C205.038 86.9944 203.609 84.7305 202.72 82.2395C201.715 79.4058 201.222 76.4155 201.267 73.4091C201.224 70.4528 201.737 67.5148 202.778 64.7477C203.734 62.2485 205.221 59.9865 207.136 58.1176C209.087 56.2415 211.414 54.7993 213.962 53.886C216.824 52.873 219.844 52.3764 222.88 52.4193C225.059 52.4077 227.232 52.6442 229.358 53.1241C231.325 53.5704 233.228 54.2623 235.022 55.1835V63.1957C233.429 62.1408 231.686 61.3325 229.851 60.798C227.945 60.2461 225.969 59.9705 223.984 59.9797C221.48 59.9071 218.996 60.4496 216.75 61.5599C214.79 62.5791 213.188 64.1741 212.161 66.1306C211.035 68.3876 210.486 70.8882 210.563 73.4091C210.49 75.9322 211.018 78.4367 212.103 80.7157C213.079 82.6771 214.642 84.2849 216.576 85.3146C218.78 86.4253 221.226 86.9685 223.693 86.8948C227.86 86.9215 231.949 85.7671 235.487 83.5652V91.4091Z" fill="black"/>
</g>
<defs>
<clipPath id="clip0_5_170">
<rect width="512" height="219.429" fill="white" transform="translate(0 0.235718)"/>
</clipPath>
</defs>
</svg>
