<svg width="512" height="220" viewBox="0 0 512 220" fill="none" xmlns="http://www.w3.org/2000/svg">
<g clip-path="url(#clip0_5_182)">
<path d="M421.851 123.837H381.297C387.885 104.836 394.678 85.9696 401.675 67.2374C405.036 76.3986 408.432 85.729 411.864 95.2285C415.294 104.735 418.623 114.271 421.851 123.837ZM511.62 110.347C511.62 132.012 505.195 153.19 493.159 171.204C481.122 189.218 464.014 203.259 443.998 211.55C423.982 219.841 401.957 222.01 380.708 217.783C359.459 213.556 339.94 203.124 324.621 187.804C309.301 172.484 298.868 152.966 294.642 131.717C290.415 110.468 292.584 88.4429 300.875 68.4269C309.166 48.4108 323.206 31.3028 341.22 19.2662C359.234 7.22966 380.413 0.805176 402.078 0.805176C431.13 0.805176 458.993 12.3461 479.536 32.8891C500.079 53.4321 511.62 81.2944 511.62 110.347ZM331.772 173.158H364.805C367.343 165.446 369.88 157.73 372.42 150.087H430.93C433.477 157.657 436.024 165.372 438.572 173.158H472.315C464.433 151.705 456.322 130.173 447.979 108.561C438.496 84.022 428.778 59.5835 418.824 35.2454H385.333C375.649 58.3515 366.065 82.1396 356.583 106.61C348.178 128.301 339.908 150.484 331.772 173.158Z" fill="#C100BB"/>
<path d="M12.6342 162.49V183.449H0.380386V125.809H21.4211C28.9984 125.809 34.816 127.395 38.874 130.568C42.9309 133.739 44.9596 138.28 44.9602 144.191C45.1136 147.605 44.1929 150.981 42.3277 153.844C40.4624 156.707 37.7465 158.913 34.5619 160.152C36.9796 163.968 39.371 167.797 41.736 171.64C44.1005 175.483 46.4652 179.419 48.8302 183.449H34.5619C30.6921 176.355 26.6882 169.368 22.5501 162.49H12.6342ZM12.6342 152.736H20.6953C24.5103 152.736 27.4127 152.051 29.4023 150.681C31.389 149.308 32.3831 147.145 32.3846 144.192C32.3846 141.235 31.4039 139.057 29.4427 137.659C27.4799 136.262 24.591 135.564 20.7759 135.564H12.6342V152.736ZM97.3576 183.448C95.9593 179.205 94.562 175.04 93.1658 170.954H69.7872C68.3894 175.092 66.9921 179.257 65.5953 183.449H52.2955C55.9493 173.347 59.6712 163.485 63.4614 153.863C67.249 144.245 71.078 134.894 74.9483 125.809H88.3303C92.3066 135.376 96.1893 144.983 99.9785 154.63C103.768 164.277 107.436 173.883 110.982 183.448H97.3576ZM73.3347 160.636H89.5391C88.2489 156.873 86.9185 153.125 85.5481 149.391C84.1782 145.655 82.821 141.987 81.4765 138.387C78.6819 145.749 75.968 153.165 73.3347 160.636ZM117.996 125.809H140.003C146.075 125.809 151.275 126.938 155.602 129.195C159.831 131.357 163.282 134.781 165.477 138.992C167.734 143.262 168.863 148.434 168.863 154.508C168.863 160.582 167.721 165.782 165.437 170.106C163.239 174.345 159.792 177.807 155.562 180.023C151.262 182.309 146.049 183.451 139.923 183.449H117.996V125.809ZM139.278 172.81C144.651 172.81 148.775 171.237 151.652 168.091C154.527 164.949 155.964 160.422 155.964 154.508C155.964 148.652 154.554 144.179 151.732 141.088C148.91 137.997 144.786 136.451 139.358 136.452H130.41V172.81H139.278ZM178.696 125.809H191.111V183.449H178.696V125.809ZM229.564 124.6C233.598 124.543 237.606 125.255 241.373 126.698C244.783 128.021 247.864 130.07 250.403 132.703C252.962 135.409 254.926 138.621 256.167 142.133C258.854 150.206 258.854 158.932 256.167 167.005C254.927 170.541 252.964 173.78 250.403 176.515C247.874 179.17 244.791 181.235 241.373 182.563C233.748 185.357 225.379 185.357 217.754 182.563C214.336 181.235 211.253 179.17 208.726 176.515C206.163 173.781 204.2 170.542 202.961 167.005C200.274 158.932 200.274 150.206 202.961 142.133C204.201 138.621 206.165 135.408 208.726 132.703C211.263 130.07 214.344 128.021 217.754 126.698C221.522 125.255 225.53 124.543 229.564 124.6ZM229.564 173.855C232.549 173.936 235.493 173.137 238.028 171.559C240.447 169.961 242.329 167.672 243.43 164.99C245.901 158.277 245.901 150.904 243.43 144.191C242.336 141.515 240.452 139.236 238.028 137.659C235.452 136.181 232.534 135.403 229.564 135.403C226.594 135.403 223.676 136.181 221.1 137.659C218.675 139.235 216.791 141.514 215.698 144.191C213.225 150.903 213.225 158.277 215.698 164.99C216.798 167.672 218.68 169.961 221.1 171.559C223.635 173.138 226.578 173.936 229.564 173.855ZM0.380386 37.3588V110.426H73.448V37.3588H0.380386ZM51.3347 88.9239C49.9832 90.7676 48.1309 92.1844 45.9978 93.0062C43.3432 94.026 40.514 94.514 37.6712 94.4426H21.2963V53.3426H36.721C41.2658 53.3426 44.7867 54.2527 47.2835 56.073C49.7789 57.8938 51.0271 60.5091 51.0281 63.9189C51.0724 65.7076 50.607 67.472 49.6861 69.0061C48.7213 70.5052 47.3435 71.6932 45.7186 72.4266C47.9284 73.084 49.8745 74.4218 51.2799 76.2495C52.5986 78.0998 53.2756 80.3308 53.2077 82.6019C53.2673 84.8543 52.6116 87.0676 51.3347 88.9239ZM40.8839 68.8342C41.4526 68.3539 41.9024 67.7484 42.1982 67.0653C42.494 66.3822 42.6277 65.6398 42.5888 64.8964C42.5888 61.6398 40.3719 60.011 35.9381 60.01H29.6237V70.2424H35.9381C38.0987 70.2424 39.7468 69.773 40.8839 68.8342ZM37.0002 76.6801H29.623V87.7744H36.8884C39.3837 87.7744 41.3026 87.3053 42.6451 86.367C43.2982 85.9189 43.8258 85.3113 44.1779 84.6018C44.5299 83.8924 44.6947 83.1047 44.6566 82.3136C44.6566 78.5584 42.1045 76.6806 37.0002 76.6801ZM91.7149 37.3588V110.426H164.783V37.3588H91.7149ZM142.67 88.9239C141.318 90.7674 139.466 92.184 137.332 93.0055C134.678 94.0257 131.849 94.5143 129.006 94.4433H112.631V53.3418H128.056C132.6 53.3418 136.121 54.252 138.618 56.0722C141.113 57.893 142.362 60.5083 142.363 63.9181C142.407 65.7068 141.942 67.4712 141.021 69.0054C140.056 70.5046 138.678 71.6925 137.053 72.4258C139.263 73.0832 141.209 74.421 142.614 76.2487C143.933 78.099 144.61 80.33 144.542 82.6011C144.602 84.8534 143.947 87.0667 142.67 88.9232V88.9239ZM132.219 68.8342C132.788 68.3538 133.238 67.7483 133.533 67.0652C133.829 66.3821 133.962 65.6398 133.923 64.8964C133.923 61.6398 131.706 60.011 127.273 60.01H120.958V70.2424H127.273C129.433 70.2424 131.082 69.773 132.219 68.8342ZM128.335 76.6801H120.958V87.7744H128.224C130.719 87.7744 132.638 87.3053 133.98 86.367C134.633 85.9189 135.16 85.3113 135.512 84.6018C135.865 83.8924 136.029 83.1047 135.991 82.3136C135.991 78.5584 133.439 76.6806 128.335 76.6801ZM183.05 110.426H256.118V37.3588H183.05V110.426ZM235.528 91.8377C233.663 92.8388 231.673 93.5871 229.61 94.0629C227.292 94.6163 224.916 94.8909 222.533 94.8808C219.513 94.9249 216.509 94.4384 213.657 93.4437C211.157 92.5674 208.88 91.154 206.985 89.3028C205.122 87.4301 203.696 85.1693 202.808 82.6818C201.804 79.8523 201.313 76.8664 201.358 73.8644C201.315 70.9123 201.826 67.9784 202.866 65.2152C203.821 62.7197 205.306 60.4611 207.218 58.595C209.166 56.7213 211.489 55.281 214.034 54.3689C216.892 53.3574 219.908 52.8615 222.939 52.9044C225.115 52.893 227.285 53.1294 229.407 53.6089C231.371 54.0545 233.272 54.7454 235.064 55.6652V63.6655C233.473 62.6122 231.732 61.805 229.9 61.2714C227.996 60.7203 226.023 60.4451 224.041 60.4543C221.541 60.3818 219.061 60.9235 216.819 62.0321C214.861 63.0497 213.261 64.6424 212.235 66.596C211.111 68.85 210.564 71.3471 210.64 73.8644C210.567 76.3838 211.094 78.8845 212.177 81.1602C213.152 83.1191 214.713 84.7248 216.644 85.753C218.845 86.8618 221.288 87.4039 223.751 87.3301C227.912 87.3567 231.995 86.204 235.528 84.0055V91.8377Z" fill="black"/>
</g>
<defs>
<clipPath id="clip0_5_182">
<rect width="512" height="219.103" fill="white" transform="translate(0 0.795288)"/>
</clipPath>
</defs>
</svg>
