<svg width="512" height="310" viewBox="0 0 512 310" fill="none" xmlns="http://www.w3.org/2000/svg">
<path d="M104.116 2.31836V88.4766H190.274V2.31836H104.116ZM164.2 63.1294C162.724 65.209 160.626 66.8114 157.905 67.946C155.18 69.0711 151.909 69.64 148.085 69.64H128.778V21.1707H146.963C152.326 21.1707 156.473 22.2453 159.422 24.3912C162.364 26.5341 163.837 29.6187 163.837 33.642C163.837 35.946 163.309 37.9498 162.254 39.6438C161.198 41.3378 159.64 42.6842 157.573 43.6734C160.43 44.6184 162.614 46.126 164.134 48.1803C165.648 50.2346 166.406 52.7314 166.406 55.6675C166.406 58.5625 165.673 61.0498 164.2 63.1294ZM151.878 39.4352C153.218 38.329 153.888 36.7835 153.888 34.7924C153.888 30.9556 151.274 29.0309 146.047 29.0309H138.597V41.0976H146.047C148.594 41.0976 150.538 40.5414 151.878 39.4352ZM147.298 48.686H138.6V61.7673H147.168C150.111 61.7673 152.377 61.2142 153.954 60.1048C155.537 58.9987 156.324 57.4058 156.324 55.3262C156.324 50.9015 153.319 48.686 147.298 48.686ZM211.816 2.31836V88.4766H297.975V2.31836H211.816ZM271.901 63.1294C270.428 65.209 268.332 66.8114 265.605 67.946C262.88 69.0711 259.603 69.64 255.785 69.64H236.478V21.1707H254.666C260.023 21.1707 264.176 22.2453 267.125 24.3912C270.067 26.5341 271.54 29.6187 271.54 33.642C271.54 35.946 271.012 37.9498 269.957 39.6438C268.901 41.3378 267.343 42.6842 265.276 43.6734C268.127 44.6184 270.317 46.126 271.837 48.1803C273.351 50.2346 274.11 52.7314 274.11 55.6675C274.107 58.5625 273.373 61.0498 271.901 63.1294ZM259.578 39.4352C260.918 38.329 261.588 36.7835 261.588 34.7924C261.588 30.9556 258.974 29.0309 253.747 29.0309H246.297V41.0976H253.747C256.294 41.0976 258.238 40.5414 259.578 39.4352ZM254.998 48.686H246.301V61.7673H254.869C257.811 61.7673 260.077 61.2142 261.654 60.1048C263.238 58.9987 264.025 57.4058 264.025 55.3262C264.025 50.9015 261.019 48.686 254.998 48.686ZM319.517 88.4829H405.675V2.31836H319.517V88.4829ZM381.396 66.5617C379.386 67.6679 377.063 68.5434 374.417 69.1881C371.772 69.8328 368.991 70.1552 366.074 70.1552C362.199 70.1552 358.71 69.5895 355.606 68.4612C352.503 67.3329 349.883 65.7052 347.74 63.5814C345.597 61.4575 343.953 58.8564 342.816 55.7718C341.675 52.6935 341.103 49.2296 341.103 45.3738C341.103 41.6065 341.694 38.2089 342.879 35.1749C344.008 32.2325 345.758 29.5686 348.012 27.3653C350.308 25.156 353.046 23.4575 356.046 22.3812C359.168 21.2276 362.67 20.6555 366.548 20.6555C369.241 20.6555 371.782 20.9337 374.177 21.4868C376.493 22.0126 378.734 22.8281 380.846 23.914V33.3449C378.97 32.1017 376.916 31.1491 374.756 30.5194C372.511 29.8671 370.184 29.5414 367.847 29.5523C364.519 29.5523 361.678 30.1718 359.329 31.4139C357.019 32.6115 355.134 34.4905 353.928 36.7962C352.673 39.1476 352.048 41.9984 352.048 45.3643C352.048 48.7302 352.651 51.5968 353.862 53.9671C355.072 56.3375 356.823 58.139 359.127 59.3811C361.431 60.6232 364.225 61.2426 367.509 61.2426C372.415 61.2731 377.23 59.9132 381.396 57.3204V66.5617ZM112.409 307.104C108.784 307.104 105.848 306.017 103.595 303.833C101.341 301.649 100.216 298.754 100.216 295.129V239.14C100.216 235.367 101.363 232.342 103.655 230.051C105.946 227.76 108.974 226.612 112.744 226.612H131.815C143.268 226.612 152.033 228.923 158.091 233.54C164.15 238.164 167.181 244.87 167.181 253.666C167.181 258.249 166.182 262.351 164.188 265.97C162.19 269.595 159.346 272.588 155.651 274.952C157.273 277.322 158.884 279.683 160.474 282.047C162.064 284.418 163.559 286.779 164.968 289.143C165.781 290.47 166.41 291.782 166.855 293.077C167.301 294.373 167.519 295.647 167.519 296.902C167.519 299.787 166.482 302.208 164.415 304.164C162.348 306.121 159.611 307.101 156.214 307.101C153.704 307.101 151.539 306.468 149.732 305.214C147.924 303.959 146.274 302.072 144.801 299.56C142.952 296.308 141.107 293.166 139.258 290.135C137.409 287.104 135.522 284.038 133.604 280.935H124.622V295.125C124.622 298.751 123.515 301.649 121.294 303.829C119.065 306.013 116.104 307.104 112.409 307.104ZM124.609 261.643H130.816C134.659 261.643 137.415 260.942 139.078 259.538C140.74 258.135 141.568 256.179 141.568 253.66C141.568 251.071 140.737 249.134 139.078 247.838C137.415 246.546 134.621 245.901 130.709 245.901H124.612L124.609 261.643ZM197.556 307.483C189.946 307.483 184.086 304.765 179.981 299.319C175.872 293.88 173.818 286.102 173.818 275.979C173.818 264.949 176.915 256.561 183.122 250.812C189.323 245.07 198.052 242.197 209.32 242.197C212.211 242.197 214.926 242.383 217.483 242.769C220.034 243.148 222.407 243.72 224.616 244.482C228.267 245.699 231.178 247.702 233.346 250.477C235.517 253.258 236.598 256.852 236.598 261.261V294.478C236.598 298.207 235.473 301.232 233.232 303.548C230.985 305.871 228.08 307.031 224.503 307.031C221.766 307.031 219.383 306.254 217.369 304.686C216.396 303.957 215.578 303.042 214.961 301.995C214.344 300.947 213.941 299.788 213.776 298.583C211.801 301.551 209.474 303.779 206.817 305.261C204.136 306.743 201.052 307.483 197.556 307.483ZM211.475 284.31V262.857C210.142 262.46 208.757 262.267 207.366 262.285C204.778 262.285 202.724 263.391 201.203 265.594C199.683 267.803 198.925 270.995 198.925 275.18C198.925 283.324 201.241 287.392 205.884 287.392C208.245 287.395 210.11 286.365 211.475 284.31ZM267.748 307.483C260.137 307.483 254.278 304.765 250.172 299.319C246.063 293.88 244.009 286.102 244.009 275.979C244.009 268.982 245.207 262.967 247.603 257.945C249.998 252.923 253.424 249.042 257.871 246.305C262.321 243.568 267.631 242.197 273.794 242.197C276.686 242.197 279.312 242.576 281.666 243.338V232.27C281.666 228.54 282.826 225.516 285.149 223.199C287.466 220.882 290.494 219.716 294.22 219.716C297.946 219.716 300.974 220.876 303.291 223.199C305.607 225.522 306.773 228.543 306.773 232.27V294.471C306.773 298.201 305.645 301.225 303.408 303.542C301.16 305.865 298.256 307.025 294.678 307.025C291.941 307.025 289.558 306.247 287.545 304.68C286.572 303.951 285.753 303.036 285.136 301.989C284.519 300.941 284.117 299.781 283.951 298.577C281.976 301.544 279.65 303.773 276.992 305.255C274.328 306.737 271.243 307.483 267.748 307.483ZM281.666 284.31V262.857C280.334 262.46 278.948 262.267 277.558 262.285C274.969 262.285 272.915 263.391 271.395 265.594C269.875 267.803 269.116 270.995 269.116 275.18C269.116 283.324 271.433 287.392 276.076 287.392C278.433 287.395 280.301 286.365 281.666 284.31ZM316.479 294.471V255.212C316.479 251.482 317.639 248.458 319.962 246.141C322.279 243.818 325.307 242.658 329.033 242.658C332.759 242.658 335.787 243.818 338.103 246.141C340.42 248.464 341.586 251.485 341.586 255.212V294.471C341.586 298.201 340.426 301.225 338.103 303.542C335.78 305.865 332.759 307.025 329.033 307.025C325.307 307.025 322.279 305.865 319.962 303.542C317.636 301.219 316.479 298.197 316.479 294.471ZM380.391 307.483C373.921 307.483 368.352 306.149 363.672 303.491C358.991 300.833 355.379 297.041 352.828 292.136C350.278 287.231 349.004 281.459 349.004 274.841C349.004 268.144 350.278 262.364 352.828 257.497C355.379 252.629 358.991 248.862 363.672 246.198C368.352 243.54 373.921 242.206 380.391 242.206C386.86 242.206 392.429 243.54 397.11 246.198C401.791 248.862 405.403 252.629 407.953 257.497C410.504 262.364 411.778 268.151 411.778 274.841C411.778 281.459 410.504 287.221 407.953 292.136C405.403 297.041 401.791 300.827 397.11 303.491C392.429 306.156 386.857 307.483 380.391 307.483ZM380.391 287.619C384.575 287.619 386.668 283.362 386.668 274.838C386.668 266.314 384.575 262.057 380.391 262.057C376.206 262.057 374.114 266.321 374.114 274.838C374.114 283.359 376.206 287.619 380.391 287.619ZM42.6573 197.175C33.868 197.175 26.2986 195.535 19.9428 192.245C13.5871 188.961 8.71357 184.23 5.32236 178.061C1.92167 171.892 0.224487 164.49 0.224487 155.849C0.224487 147.575 2.01333 140.359 5.60049 134.19C9.18133 128.021 14.2223 123.22 20.7235 119.788C27.2183 116.355 34.8287 114.636 43.5485 114.636C45.6914 114.636 48.0554 114.841 50.6375 115.249C53.2197 115.654 55.7354 116.355 58.169 117.354C60.6089 118.353 62.6379 119.699 64.2593 121.396C65.2896 122.433 66.1081 123.65 66.6991 125.053C67.2902 126.456 67.5873 128.046 67.5873 129.816C67.6222 132.314 66.6665 134.724 64.9293 136.519C63.1594 138.4 60.906 139.345 58.169 139.345C56.9143 139.345 55.8239 139.215 54.8979 138.959C53.9736 138.702 53.0659 138.388 52.1799 138.02C51.1279 137.598 50.0551 137.228 48.9656 136.914C47.7109 136.548 46.1591 136.361 44.3102 136.361C41.0581 136.361 38.0714 137.12 35.3344 138.634C32.5974 140.147 30.442 142.341 28.8522 145.226C27.2625 148.106 26.4692 151.652 26.4692 155.861C26.4692 162.138 28.0906 166.98 31.3427 170.374C34.5949 173.775 39.0638 175.466 44.7464 175.466C46.5162 175.466 48.106 175.267 49.5092 174.853C50.8299 174.477 52.1242 174.015 53.384 173.469C54.2721 173.023 55.1728 172.71 56.102 172.53C57.0217 172.343 57.8909 172.252 58.7031 172.252C61.7277 172.252 64.0918 173.25 65.7921 175.245C67.4924 177.242 68.3426 179.527 68.3426 182.116C68.3426 184.113 67.9381 185.823 67.1258 187.267C66.3315 188.686 65.2789 189.943 64.0222 190.975C62.1733 192.526 59.961 193.743 57.3725 194.631C54.7841 195.519 52.183 196.164 49.563 196.569C46.9555 196.976 44.6452 197.175 42.6573 197.175ZM88.219 195.532C84.4517 195.532 81.4207 194.385 79.1294 192.093C76.838 189.802 75.6908 186.774 75.6908 183.004V128.808C75.6908 125.04 76.838 122.009 79.1294 119.718C81.4207 117.427 84.4485 116.279 88.219 116.279H109.723C119.625 116.279 127.159 118.128 132.333 121.823C137.504 125.518 140.092 130.805 140.092 137.673C140.092 144.323 137.248 149.461 131.556 153.08C140.124 156.557 144.413 162.871 144.413 172.034C144.413 179.347 141.527 185.096 135.765 189.268C130.004 193.44 121.948 195.532 111.603 195.532H88.219ZM99.7516 146.873H107.896C110.769 146.873 112.918 146.295 114.353 145.128C115.788 143.962 116.502 142.372 116.502 140.356C116.502 136.241 113.629 134.187 107.887 134.187H99.7453L99.7516 146.873ZM99.7516 177.024H111.155C117.593 177.024 120.813 174.894 120.813 170.624C120.813 168.377 120.055 166.683 118.541 165.564C117.027 164.436 114.562 163.876 111.148 163.876H99.7453V177.024H99.7516ZM187.108 197.109C175.069 197.109 165.977 194.217 159.836 188.43C153.695 182.643 150.629 174.246 150.629 163.225C150.629 156.383 152.026 150.438 154.82 145.397C157.614 140.362 161.451 136.466 166.331 133.713C171.21 130.957 176.76 129.579 182.974 129.579C188.716 129.579 193.795 130.698 198.201 132.945C202.61 135.186 206.067 138.314 208.593 142.331C211.112 146.342 212.373 151.067 212.373 156.497C212.373 160.115 211.194 163.014 208.833 165.175C206.472 167.337 203.166 168.421 198.918 168.421H174.715C175.502 172.432 177.06 175.169 179.377 176.623C181.694 178.077 184.785 178.807 188.64 178.807C190.135 178.807 191.551 178.652 192.891 178.336C194.231 178.02 195.524 177.666 196.785 177.274C198.833 176.566 200.603 176.212 202.098 176.212C204.462 176.212 206.481 177.024 208.175 178.633C209.87 180.248 210.713 182.315 210.713 184.834C210.713 187.037 210.179 188.87 209.117 190.327C208.055 191.784 206.696 192.947 205.043 193.81C202.358 195.098 199.492 195.972 196.545 196.404C193.479 196.878 190.331 197.109 187.108 197.109ZM174.598 155.672H190.837C190.508 152.119 189.677 149.537 188.359 147.925C187.032 146.317 185.3 145.511 183.151 145.511C178.442 145.508 175.588 148.899 174.598 155.672ZM254.142 197.109C242.103 197.109 233.011 194.217 226.87 188.43C220.729 182.643 217.663 174.246 217.663 163.225C217.663 156.383 219.06 150.438 221.854 145.397C224.648 140.362 228.485 136.466 233.365 133.713C238.244 130.957 243.794 129.579 250.014 129.579C255.757 129.579 260.836 130.698 265.241 132.945C269.65 135.186 273.108 138.314 275.633 142.331C278.152 146.342 279.413 151.067 279.413 156.497C279.413 160.115 278.234 163.014 275.873 165.175C273.509 167.337 270.207 168.421 265.959 168.421H241.756C242.543 172.432 244.101 175.169 246.417 176.623C248.734 178.077 251.825 178.807 255.681 178.807C257.176 178.807 258.592 178.652 259.932 178.336C261.272 178.02 262.564 177.666 263.825 177.274C265.873 176.566 267.643 176.212 269.138 176.212C271.502 176.212 273.522 177.024 275.216 178.633C276.91 180.248 277.754 182.315 277.754 184.834C277.754 187.037 277.226 188.87 276.158 190.327C275.089 191.789 273.692 192.982 272.081 193.81C269.395 195.098 266.53 195.972 263.582 196.404C260.516 196.878 257.369 197.109 254.142 197.109ZM241.626 155.672H257.865C257.536 152.119 256.705 149.537 255.387 147.925C254.066 146.317 252.328 145.511 250.178 145.511C245.469 145.508 242.619 148.899 241.626 155.672ZM369.686 125.884C365.745 125.884 362.683 124.99 360.505 123.185C358.327 121.39 357.234 118.865 357.234 115.613C357.234 112.36 358.321 109.838 360.505 108.04C362.683 106.245 365.745 105.341 369.686 105.341C373.627 105.341 376.69 106.242 378.867 108.04C381.045 109.835 382.139 112.367 382.139 115.613C382.139 118.865 381.051 121.387 378.867 123.185C376.69 124.987 373.63 125.884 369.686 125.884ZM357.67 184.935V143.615C357.67 140.119 358.776 137.278 360.998 135.103C363.22 132.926 366.109 131.839 369.683 131.839C373.258 131.839 376.146 132.926 378.368 135.103C380.59 137.281 381.696 140.119 381.696 143.615V184.935C381.696 188.43 380.584 191.67 378.368 193.844C376.146 196.022 373.248 197.109 369.683 197.109C366.115 197.109 363.22 196.022 360.998 193.844C358.786 191.67 357.67 188.43 357.67 184.935ZM425.924 197.109C413.886 197.109 404.793 194.217 398.652 188.43C392.511 182.643 389.446 174.246 389.446 163.225C389.446 156.383 390.843 150.438 393.636 145.397C396.43 140.362 400.267 136.466 405.147 133.713C410.027 130.957 415.577 129.579 421.796 129.579C427.539 129.579 432.618 130.698 437.024 132.945C441.433 135.186 444.89 138.314 447.415 142.331C449.934 146.342 451.195 151.067 451.195 156.497C451.195 160.115 450.017 163.014 447.656 165.175C445.292 167.337 441.989 168.421 437.741 168.421H413.538C414.325 172.432 415.883 175.169 418.2 176.623C420.516 178.077 423.607 178.807 427.463 178.807C428.958 178.807 430.374 178.652 431.714 178.336C433.054 178.02 434.347 177.666 435.608 177.274C437.656 176.566 439.426 176.212 440.921 176.212C443.285 176.212 445.304 177.024 446.998 178.633C448.692 180.248 449.536 182.315 449.536 184.834C449.536 187.037 449.008 188.87 447.94 190.327C446.871 191.789 445.475 192.982 443.863 193.81C441.177 195.098 438.312 195.972 435.364 196.404C432.292 196.878 429.145 197.109 425.924 197.109ZM413.408 155.672H429.647C429.318 152.119 428.487 149.537 427.169 147.925C425.848 146.317 424.11 145.511 421.961 145.511C417.252 145.508 414.401 148.899 413.408 155.672ZM481.552 197.109C478.641 197.109 475.686 196.774 472.699 196.104C469.706 195.434 467.304 194.707 465.5 193.92C463.526 193.027 461.726 191.788 460.187 190.263C458.692 188.769 457.946 186.724 457.946 184.129C457.946 181.85 458.673 179.938 460.13 178.405C461.584 176.872 463.575 176.101 466.091 176.101C466.799 176.101 467.586 176.206 468.455 176.398C469.318 176.597 470.342 176.97 471.527 177.517C473 178.17 474.546 178.645 476.132 178.933C477.38 179.155 478.644 179.273 479.912 179.287C484.475 179.287 486.754 178.187 486.754 175.984C486.754 174.73 486.201 173.879 485.098 173.446C483.677 172.923 482.218 172.51 480.733 172.211C472.627 170.403 466.897 167.903 463.556 164.717C460.209 161.531 458.54 157.062 458.54 151.32C458.54 144.392 461.154 139.041 466.388 135.261C471.622 131.481 478.802 129.595 487.93 129.595C490.916 129.595 493.871 129.911 496.782 130.54C499.693 131.169 502.332 132.117 504.696 133.371C506.036 134.079 507.414 135.103 508.83 136.443C510.246 137.783 510.954 139.708 510.954 142.224C510.954 144.664 510.189 146.589 508.65 148.011C507.117 149.427 505.129 150.135 502.689 150.135C501.902 150.135 501.055 150.018 500.151 149.781C499.016 149.472 497.893 149.118 496.785 148.719C493.793 147.695 491.359 147.186 489.466 147.186C487.658 147.186 486.176 147.464 485.035 148.011C483.894 148.564 483.322 149.389 483.322 150.489C483.322 151.434 483.774 152.123 484.681 152.556C485.582 152.985 487.219 153.482 489.58 154.028C497.446 155.684 503.113 158.064 506.583 161.168C510.047 164.278 511.779 168.747 511.779 174.565C511.779 181.964 509.14 187.571 503.865 191.389C498.593 195.203 491.15 197.115 481.552 197.109ZM343.495 139.146C339.206 133.466 333.085 130.622 325.139 130.622C319.261 130.622 314.909 132.727 311.097 136.936V119.348C311.097 115.853 310.01 113.011 307.832 110.837C305.655 108.659 302.32 107.572 298.825 107.572C295.329 107.572 292.488 108.659 290.314 110.837C288.136 113.015 287.049 115.853 287.049 119.348V177.195C287.049 181.806 288.183 185.557 290.449 188.456C292.716 191.36 295.756 193.446 299.568 194.713C301.872 195.507 304.352 196.104 307.017 196.502C309.675 196.9 309.849 197.1 312.87 197.1C324.709 197.1 333.846 194.1 340.284 188.099C346.722 182.097 349.936 173.342 349.936 161.816C349.933 151.269 347.787 144.831 343.495 139.146ZM324.27 174.922C322.377 177.388 319.731 178.623 316.337 178.623C314.57 178.646 312.807 178.431 311.097 177.985V153.984C312.842 151.686 315.225 150.539 318.23 150.539C324.147 150.539 327.108 155.09 327.108 164.196C327.108 168.88 326.163 172.451 324.27 174.922ZM329.033 236.783C325.092 236.783 322.029 235.882 319.852 234.084C317.674 232.289 316.58 229.763 316.58 226.511C316.58 223.259 317.668 220.737 319.852 218.939C322.029 217.143 325.092 216.24 329.033 216.24C332.974 216.24 336.036 217.14 338.214 218.939C340.392 220.74 341.485 223.265 341.485 226.511C341.485 229.763 340.398 232.285 338.214 234.084C336.04 235.888 332.974 236.783 329.033 236.783Z" fill="#EBDF3A"/>
</svg>
