<svg width="512" height="192" viewBox="0 0 512 192" fill="none" xmlns="http://www.w3.org/2000/svg">
<g clip-path="url(#clip0_7_253)">
<path d="M44.6402 0.316162V58.5019H102.826V0.316162H44.6402ZM84.9357 41.3784C83.8282 42.8266 82.38 43.9341 80.6761 44.6157C78.5463 45.4676 76.3314 45.8083 74.0312 45.7232H60.9969V13.0097H73.2645C76.8425 13.0097 79.6538 13.7764 81.6984 15.2246C83.6578 16.6729 84.7653 19.0583 84.6801 21.4436C84.6801 22.8919 84.3394 24.2549 83.5726 25.5328C82.8059 26.7255 81.6984 27.6626 80.4205 28.2589C82.2096 28.7701 83.743 29.8776 84.8505 31.3258C85.8728 32.7741 86.4691 34.5631 86.3839 36.3521C86.4691 38.1411 85.8728 39.9301 84.9357 41.3784ZM76.5869 25.4476C77.524 24.6809 78.0352 23.4882 77.95 22.2955C77.95 19.7398 76.161 18.3767 72.6681 18.3767H67.6418V26.5551H72.6681C74.0312 26.6403 75.3943 26.2143 76.5869 25.4476ZM73.5201 31.6666H67.6418V40.5265H73.4349C75.0535 40.6117 76.6721 40.2709 78.0352 39.419C79.0575 38.6523 79.739 37.4596 79.6538 36.1817C79.5686 33.1148 77.524 31.6666 73.5201 31.6666ZM117.308 0.316162V58.5019H175.494V0.316162H117.308ZM157.604 41.3784C156.496 42.8266 155.048 43.9341 153.344 44.6157C151.215 45.4676 149 45.8083 146.699 45.7232H133.665V13.0097H145.933C149.511 13.0097 152.322 13.7764 154.367 15.2246C156.326 16.6729 157.434 19.0583 157.348 21.4436C157.348 22.8919 157.008 24.2549 156.241 25.5328C155.474 26.7255 154.367 27.6626 153.089 28.2589C154.878 28.7701 156.411 29.8776 157.519 31.3258C158.541 32.7741 159.137 34.5631 159.052 36.3521C159.137 38.1411 158.626 39.9301 157.604 41.3784ZM149.255 25.4476C150.192 24.6809 150.703 23.4882 150.618 22.2955C150.618 19.7398 148.829 18.3767 145.336 18.3767H140.31V26.5551H145.336C146.785 26.6403 148.148 26.2143 149.255 25.4476ZM146.188 31.6666H140.31V40.5265H146.103C147.722 40.6117 149.34 40.2709 150.703 39.419C151.726 38.6523 152.407 37.4596 152.322 36.1817C152.322 33.1148 150.277 31.6666 146.188 31.6666ZM190.062 58.5019H248.247V0.316162H190.062V58.5019ZM231.806 43.7637C230.357 44.5305 228.739 45.1268 227.12 45.5528C225.246 45.9787 223.372 46.2343 221.497 46.2343C219.112 46.2343 216.727 45.8935 214.427 45.1268C212.467 44.4453 210.593 43.3378 209.145 41.8043C207.696 40.3561 206.504 38.4819 205.822 36.5225C205.055 34.3075 204.63 31.9222 204.63 29.5368C204.63 27.1514 204.97 24.8513 205.822 22.6363C206.589 20.6769 207.782 18.8879 209.315 17.3544C210.849 15.821 212.723 14.7135 214.767 14.032C217.067 13.2652 219.453 12.8393 221.838 12.8393C223.542 12.8393 225.331 13.0097 226.95 13.4356C228.483 13.7764 230.017 14.3727 231.465 15.0543V21.4436C230.187 20.5917 228.824 19.9954 227.376 19.5694C225.842 19.1434 224.309 18.8879 222.69 18.8879C220.731 18.8027 218.686 19.2286 216.982 20.1657C215.449 21.0177 214.171 22.2103 213.319 23.829C212.382 25.618 211.956 27.5774 212.041 29.622C211.956 31.6666 212.382 33.626 213.234 35.415C214.001 36.9484 215.278 38.2263 216.812 39.0782C218.601 39.9301 220.475 40.3561 222.435 40.3561C225.757 40.3561 228.994 39.419 231.806 37.7152V43.7637ZM280.791 35.415V51.2606H271.505V7.64261H287.436C293.143 7.64261 297.573 8.8353 300.64 11.2207C303.707 13.606 305.241 17.0989 305.241 21.5288C305.496 26.8107 302.344 31.6666 297.403 33.626C299.192 36.5225 301.066 39.419 302.855 42.3155C304.644 45.212 306.433 48.1937 308.222 51.2606H297.403C294.506 45.8935 291.44 40.6117 288.287 35.415H280.791ZM280.791 28.0033H286.924C289.821 28.0033 292.036 27.4922 293.484 26.4699C295.018 25.4476 295.699 23.829 295.699 21.5288C295.869 19.5694 295.018 17.7804 293.484 16.5877C292.036 15.5654 289.821 14.9691 286.924 14.9691H280.791V28.0033ZM345.195 51.2606C344.173 48.0233 343.065 44.8712 342.043 41.8043H324.323C323.301 44.9564 322.194 48.1085 321.171 51.2606H311.119C313.845 43.5934 316.741 36.1817 319.553 28.8553C322.449 21.614 325.346 14.5431 328.242 7.64261H338.38C341.362 14.8839 344.343 22.1251 347.155 29.4516C350.051 36.7781 352.777 44.0193 355.503 51.2606H345.195ZM327.049 33.9667H339.317C338.38 31.1554 337.358 28.2589 336.335 25.4476C335.313 22.6363 334.291 19.825 333.268 17.0989C331.054 22.7215 329.009 28.3441 327.049 33.9667ZM360.87 7.64261H377.483C381.572 7.55742 385.576 8.40933 389.324 10.1984C392.562 11.817 395.117 14.4579 396.821 17.61C398.61 21.2732 399.462 25.2772 399.377 29.3664C399.462 33.4556 398.61 37.5448 396.821 41.208C395.117 44.4453 392.562 47.001 389.324 48.7048C385.661 50.4939 381.572 51.431 377.483 51.2606H360.87V7.64261ZM376.972 43.1674C381.061 43.1674 384.128 41.9747 386.343 39.5894C388.558 37.204 389.58 33.7964 389.58 29.2812C389.58 24.8513 388.472 21.4436 386.343 19.1434C384.213 16.8433 381.061 15.6506 376.972 15.6506H370.241V43.1674H376.972ZM406.789 7.64261H416.16V51.2606H406.789V7.64261ZM445.295 6.70551C448.362 6.62032 451.344 7.21666 454.24 8.32414C456.796 9.34644 459.181 10.8799 461.055 12.8393C463.015 14.8839 464.463 17.3544 465.4 19.9954C467.445 26.1291 467.445 32.6889 465.4 38.8226C464.463 41.4636 463.015 43.9341 461.055 45.9787C459.181 48.0233 456.796 49.5568 454.24 50.5791C448.447 52.7088 442.143 52.7088 436.35 50.5791C433.794 49.5568 431.409 48.0233 429.535 45.9787C427.575 43.9341 426.127 41.4636 425.19 38.8226C423.145 32.6889 423.145 26.1291 425.19 19.9954C426.127 17.3544 427.575 14.8839 429.535 12.8393C431.494 10.8799 433.794 9.26125 436.35 8.32414C439.161 7.21666 442.228 6.70551 445.295 6.70551ZM445.295 44.0193C447.595 44.1045 449.81 43.5082 451.684 42.3155C453.473 41.1228 454.922 39.3338 455.774 37.3744C457.648 32.2629 457.648 26.7255 455.774 21.614C454.922 19.5694 453.559 17.8656 451.684 16.6729C447.68 14.3727 442.825 14.3727 438.906 16.6729C437.032 17.8656 435.668 19.5694 434.817 21.614C432.942 26.7255 432.942 32.2629 434.817 37.3744C435.668 39.419 437.032 41.1228 438.906 42.3155C440.78 43.423 442.995 44.0193 445.295 44.0193Z" fill="black"/>
<path d="M52.0519 191.656C44.6402 191.741 37.2286 190.548 30.2429 187.993C24.1091 185.778 18.4865 182.2 13.8862 177.514C9.28583 172.743 5.79299 167.036 3.66321 160.731C1.19266 153.575 -2.49683e-05 145.993 0.0851664 138.411C-2.49683e-05 130.914 1.19266 123.503 3.83359 116.517C8.51911 103.738 18.5717 93.771 31.2652 89.0855C38.2509 86.5298 45.6625 85.2519 53.1594 85.4223C58.5264 85.4223 63.8083 86.0186 69.0902 87.2113C73.9461 88.3188 78.6316 90.1078 82.9763 92.408V112.684C79.0575 110.043 74.798 107.998 70.2828 106.635C65.5973 105.272 60.7414 104.505 55.8855 104.59C48.985 104.59 43.0216 105.953 38.1657 108.594C33.3098 111.235 29.391 115.239 26.9204 120.18C24.2795 125.207 23.0016 131.34 23.0016 138.582C23.0016 145.823 24.2795 151.957 26.7501 157.068C29.1354 162.009 32.969 166.013 37.7397 168.654C42.5105 171.295 48.3887 172.658 55.204 172.658C65.4269 172.743 75.4795 169.762 84.169 164.224V184.074C79.5687 186.63 74.7128 188.504 69.6013 189.697C63.7231 190.974 57.9301 191.656 52.0519 191.656ZM153.515 150.849V189.441H131.535V150.849C124.89 140.371 118.416 129.892 112.027 119.328C105.637 108.765 99.4183 98.201 93.3697 87.5521H118.331C122.25 95.0489 126.254 102.546 130.343 110.043C134.517 117.539 138.606 124.951 142.781 132.278C147.04 124.866 151.215 117.454 155.304 109.957C159.393 102.461 163.397 95.0489 167.401 87.5521H191.766C185.632 98.201 179.328 108.765 172.938 119.328C166.634 129.892 160.16 140.371 153.515 150.849ZM247.14 170.528C242.966 162.18 238.877 153.746 234.873 145.397C230.869 136.963 226.95 128.614 223.031 120.266V189.526H202.074V87.5521H228.398C232.828 98.0306 237.428 108.424 242.114 118.817C246.799 129.211 251.485 139.519 256.341 149.657C261.111 139.519 265.797 129.211 270.482 118.902C275.168 108.594 279.683 98.1158 284.028 87.4669H309.671V189.356H288.713V119.84C284.795 128.359 280.876 136.878 276.787 145.312C272.783 153.746 268.693 162.095 264.604 170.443H247.14V170.528ZM350.477 152.383V189.441H328.839V87.5521H366.067C379.442 87.5521 389.75 90.3634 396.906 95.986C404.063 101.609 407.641 109.617 407.641 120.095C407.641 126.825 406.022 132.618 402.87 137.304C399.462 142.245 394.777 145.993 389.239 148.294C393.499 155.024 397.758 161.839 401.933 168.569C406.107 175.384 410.281 182.285 414.456 189.441H389.239C382.424 176.918 375.353 164.565 368.027 152.383H350.477ZM350.477 135.174H364.704C371.434 135.174 376.546 133.981 380.124 131.511C383.617 129.125 385.406 125.292 385.406 120.01C385.406 114.813 383.702 110.98 380.209 108.424C376.716 105.953 371.605 104.761 364.874 104.761H350.477V135.174ZM467.871 191.656C458.755 191.656 450.918 189.952 444.443 186.459C438.054 183.052 432.772 177.855 429.45 171.466C425.957 164.906 424.253 156.983 424.253 147.782V87.6373H446.232V150.168C446.232 157.409 448.106 162.946 451.855 166.78C455.603 170.614 460.97 172.573 467.871 172.573C474.771 172.573 480.138 170.614 483.887 166.78C487.635 162.946 489.509 157.409 489.509 150.168V87.6373H511.489V147.782C511.489 156.983 509.785 164.906 506.292 171.466C502.97 177.94 497.688 183.137 491.298 186.459C484.739 189.867 476.901 191.656 467.871 191.656Z" fill="#2B6ECC"/>
</g>
<defs>
<clipPath id="clip0_7_253">
<rect width="512" height="191.681" fill="white" transform="translate(0 0.0605469)"/>
</clipPath>
</defs>
</svg>
