<svg width="512" height="160" viewBox="0 0 512 160" fill="none" xmlns="http://www.w3.org/2000/svg">
<g clip-path="url(#clip0_7_246)">
<path d="M81.4778 0.889404V49.0276H129.616V0.889404H81.4778ZM114.817 34.8243C113.967 36.015 112.691 36.9505 111.33 37.5459C109.544 38.2263 107.758 38.5665 105.802 38.4814H95.0007V11.4356H105.122C108.098 11.4356 110.395 12.0309 112.096 13.2216C113.712 14.4123 114.647 16.3685 114.562 18.4097C114.562 19.6004 114.307 20.7911 113.712 21.7266C113.116 22.7472 112.181 23.5127 111.075 23.9379C112.521 24.3632 113.797 25.2137 114.732 26.4894C115.583 27.6801 116.008 29.211 116.008 30.6568C116.093 32.1877 115.668 33.6336 114.817 34.8243ZM107.928 21.6416C108.694 20.9612 109.119 20.0256 109.034 19.005C109.034 16.8788 107.588 15.7731 104.611 15.7731H100.444V22.4921H104.611C105.802 22.6622 106.993 22.322 107.928 21.6416ZM105.377 26.7445H100.529V34.0588H105.292C106.653 34.1439 107.928 33.8037 109.119 33.1233C109.969 32.5279 110.48 31.5073 110.48 30.4867C110.395 28.0203 108.694 26.8296 105.377 26.7445ZM141.608 0.889404V49.0276H189.746V0.889404H141.608ZM174.948 34.8243C174.097 36.015 172.821 36.9505 171.461 37.5459C169.674 38.2263 167.888 38.5665 165.932 38.4814H155.216V11.4356H165.337C168.314 11.4356 170.61 12.0309 172.311 13.2216C173.927 14.4123 174.862 16.3685 174.777 18.4097C174.777 19.6004 174.522 20.7911 173.927 21.7266C173.332 22.7472 172.396 23.5127 171.29 23.9379C172.736 24.3632 174.012 25.2137 174.948 26.4894C175.798 27.6801 176.223 29.211 176.223 30.6568C176.223 32.1877 175.798 33.6336 174.948 34.8243ZM168.059 21.6416C168.824 20.9612 169.249 20.0256 169.164 19.005C169.164 16.8788 167.718 15.7731 164.742 15.7731H160.574V22.4921H164.742C166.017 22.6622 167.123 22.322 168.059 21.6416ZM165.507 26.7445H160.659V34.0588H165.422C166.783 34.1439 168.059 33.8037 169.249 33.1233C170.1 32.5279 170.61 31.5073 170.61 30.4867C170.525 28.0203 168.909 26.8296 165.507 26.7445ZM201.823 49.0276H249.961V0.889404H201.823V49.0276ZM236.354 36.7804C235.163 37.4608 233.802 37.9711 232.441 38.2263C230.91 38.5665 229.379 38.7366 227.763 38.7366C225.807 38.7366 223.766 38.4814 221.895 37.801C220.279 37.2057 218.748 36.2701 217.472 35.0794C216.282 33.8037 215.346 32.3578 214.751 30.7419C214.07 28.8708 213.73 26.9146 213.815 24.9585C213.815 23.0024 214.156 21.0462 214.836 19.2602C215.431 17.6442 216.452 16.1133 217.728 14.9226C219.003 13.6469 220.534 12.7113 222.235 12.116C224.106 11.4356 226.063 11.0954 228.104 11.1804C229.55 11.1804 230.995 11.3505 232.356 11.6057C233.632 11.8608 234.908 12.3711 236.098 12.9665V18.2396C235.078 17.5592 233.887 17.0489 232.696 16.6236C231.421 16.2834 230.145 16.1133 228.869 16.1133C227.253 16.0283 225.552 16.4535 224.106 17.1339C222.831 17.8143 221.725 18.8349 221.13 20.1107C220.364 21.5565 220.024 23.2575 220.109 24.8735C220.024 26.5745 220.449 28.1904 221.13 29.7213C221.81 30.997 222.831 32.1027 224.106 32.7831C225.552 33.5485 227.168 33.8887 228.784 33.8037C231.506 33.8037 234.227 33.0382 236.524 31.5924L236.354 36.7804ZM276.922 29.8914V42.9891H269.268V6.92793H282.451C287.213 6.92793 290.87 7.94853 293.337 9.90468C295.888 11.8608 297.164 14.7525 297.164 18.4097C297.334 22.8323 294.783 26.8296 290.615 28.4455C292.146 30.8269 293.592 33.2083 295.123 35.6748C296.569 38.0562 298.1 40.5226 299.546 43.0741H290.615C288.234 38.6515 285.682 34.2289 283.131 29.9764L276.922 29.8914ZM276.922 23.7678H281.94C283.811 23.8529 285.767 23.4276 287.383 22.4921C288.659 21.5565 289.34 20.0256 289.255 18.4097C289.34 16.7937 288.659 15.2628 287.383 14.3273C286.193 13.4768 284.322 13.0515 281.94 13.0515H276.837V23.7678H276.922ZM330.249 42.9891C329.398 40.3525 328.463 37.716 327.612 35.1645H312.983C312.133 37.716 311.197 40.3525 310.347 42.9891H302.012C304.308 36.6954 306.605 30.4867 308.986 24.4482C311.367 18.4097 313.749 12.5412 316.215 6.84289H324.635C327.102 12.7964 329.568 18.8349 331.95 24.8735C334.331 30.912 336.627 36.9505 338.839 42.904H330.249V42.9891ZM315.195 28.7007H325.316C324.55 26.3193 323.7 24.023 322.849 21.6416L320.298 14.7525C318.512 19.4303 316.811 24.023 315.195 28.7007ZM343.176 6.92793H356.954C360.356 6.84289 363.673 7.52328 366.735 9.05418C369.371 10.415 371.583 12.5412 372.944 15.1778C375.75 21.3864 375.75 28.4455 372.944 34.6542C371.583 37.2907 369.371 39.502 366.735 40.8628C363.673 42.3937 360.356 43.0741 356.954 42.9891H343.176V6.92793ZM356.444 36.3552C359.846 36.3552 362.397 35.3346 364.183 33.3784C365.969 31.4223 366.905 28.6156 366.905 24.8735C366.905 21.2163 366.055 18.4097 364.268 16.4535C362.482 14.4974 359.931 13.5618 356.529 13.5618H350.916V36.3552H356.444ZM381.108 6.92793H388.848V42.9891H381.108V6.92793ZM413.002 6.16249C415.554 6.16249 418.02 6.58774 420.401 7.43824C422.528 8.28874 424.484 9.56448 426.015 11.1804C427.631 12.8814 428.821 14.9226 429.587 17.0489C431.288 22.0668 431.288 27.595 429.587 32.613C428.821 34.8243 427.546 36.8655 426.015 38.5665C424.399 40.2675 422.528 41.5432 420.401 42.3937C415.639 44.1798 410.366 44.1798 405.603 42.3937C403.476 41.5432 401.52 40.2675 399.989 38.5665C398.373 36.8655 397.183 34.8243 396.417 32.613C394.716 27.595 394.716 22.0668 396.417 17.0489C397.183 14.8376 398.459 12.7964 399.989 11.1804C401.605 9.56448 403.476 8.28874 405.603 7.43824C407.984 6.58774 410.451 6.16249 413.002 6.16249ZM413.002 37.0356C414.873 37.1206 416.744 36.6103 418.275 35.5897C419.806 34.5691 420.997 33.1233 421.677 31.5073C423.208 27.3399 423.208 22.6622 421.677 18.4947C420.997 16.7937 419.806 15.4329 418.275 14.4123C414.958 12.5412 410.961 12.5412 407.644 14.4123C406.113 15.4329 404.922 16.7937 404.242 18.4947C402.711 22.6622 402.711 27.3399 404.242 31.5073C404.922 33.2083 406.113 34.6542 407.644 35.5897C409.26 36.5253 411.131 37.0356 413.002 37.0356Z" fill="black"/>
<path d="M43.8857 159.167C37.7621 159.252 31.6385 158.232 25.8551 156.191C20.7521 154.319 16.0744 151.343 12.3322 147.515C8.50492 143.603 5.61322 138.84 3.82718 133.652C1.78598 127.699 0.765382 121.49 0.850432 115.197C0.765382 108.988 1.78598 102.864 3.91222 97.0809C7.73947 86.5347 16.0744 78.1999 26.6205 74.3726C32.4039 72.2464 38.5275 71.2258 44.7362 71.3108C49.1587 71.3108 53.5813 71.8211 57.9189 72.7567C61.9162 73.6922 65.7435 75.1381 69.4006 77.0942V93.849C66.1687 91.6377 62.6817 89.9367 58.9395 88.8311C55.1122 87.6404 51.0298 87.1301 47.0325 87.1301C41.3342 87.1301 36.4013 88.2357 32.3189 90.447C28.3215 92.5733 25.0896 95.9753 22.9634 99.9726C20.8371 104.14 19.7315 109.243 19.7315 115.197C19.7315 121.15 20.7521 126.253 22.8783 130.506C24.8345 134.588 27.9813 137.905 31.9787 140.116C35.976 142.327 40.7388 143.433 46.4372 143.433C54.9421 143.518 63.277 141.052 70.4212 136.459V152.874C66.679 155 62.5966 156.531 58.4292 157.551C53.5813 158.572 48.7335 159.167 43.8857 159.167ZM127.915 125.403V157.381H109.714V125.403C104.186 116.727 98.8278 108.052 93.5548 99.3773C88.2817 90.6171 83.1787 81.857 78.0757 73.0969H98.7428C101.975 79.3055 105.292 85.5141 108.694 91.7228C112.096 97.9314 115.583 104.055 118.985 110.094C122.557 103.97 125.959 97.8464 129.361 91.6377C132.763 85.4291 136.08 79.3055 139.397 73.0969H159.553C154.45 81.942 149.262 90.7022 143.989 99.3773C138.801 108.052 133.358 116.812 127.915 125.403ZM205.395 141.732C201.908 134.843 198.591 127.869 195.274 120.895C191.957 113.921 188.726 107.032 185.494 100.058V157.381H168.143V73.0969H190.001C193.658 81.7719 197.486 90.362 201.313 98.952C205.14 107.542 209.052 116.047 213.135 124.467C217.047 116.047 220.959 107.542 224.787 99.0371C228.614 90.5321 232.356 81.857 236.013 73.0118H257.276V157.296H239.926V99.7175C236.694 106.777 233.377 113.836 230.06 120.81C226.743 127.784 223.341 134.673 219.939 141.647L205.395 141.732ZM290.87 126.763V157.466H272.925V73.1819H303.713C314.769 73.1819 323.274 75.4783 329.228 80.156C335.181 84.8337 338.158 91.4676 338.158 100.058C338.158 105.671 336.882 110.434 334.246 114.346C331.439 118.428 327.527 121.575 323.019 123.446C326.591 129.06 330.078 134.673 333.48 140.286C336.967 145.9 340.369 151.683 343.856 157.551H323.019C317.321 147.175 311.537 136.969 305.414 126.848L290.87 126.763ZM290.87 112.475H302.692C308.306 112.475 312.558 111.454 315.45 109.498C318.341 107.457 319.787 104.31 319.787 99.9726C319.787 95.6351 318.341 92.4882 315.45 90.447C312.558 88.4058 308.391 87.3852 302.777 87.3852H290.87V112.475ZM387.997 159.167C380.428 159.167 373.964 157.721 368.606 154.83C363.333 152.023 358.995 147.686 356.189 142.412C353.297 136.969 351.851 130.42 351.851 122.851V73.0969H370.052V124.892C370.052 130.846 371.583 135.438 374.729 138.67C377.876 141.817 382.214 143.433 387.997 143.433C393.696 143.433 398.118 141.817 401.265 138.67C404.412 135.523 405.943 130.931 405.943 124.892V73.0969H424.143V122.851C424.143 130.506 422.698 136.969 419.806 142.412C416.999 147.771 412.662 152.108 407.389 154.83C401.945 157.721 395.482 159.167 387.997 159.167ZM511.49 142.072V157.381H453.741V154.064C453.741 150.237 454.081 146.41 454.761 142.668C455.442 139.351 456.633 136.204 458.334 133.312C460.205 130.25 462.501 127.359 465.138 124.977C468.454 121.915 472.027 119.109 475.769 116.642C478.916 114.601 481.977 112.305 484.869 109.923C486.74 108.478 488.356 106.606 489.547 104.565C490.482 102.864 490.908 100.993 490.908 99.1221C490.908 91.9779 486.315 88.4058 477.13 88.4058C473.302 88.4058 469.56 89.0012 465.988 90.1919C462.161 91.5527 458.589 93.4238 455.442 95.8902V80.241C459.269 77.9447 463.351 76.2437 467.604 75.053C471.941 73.9474 476.449 73.352 480.957 73.4371C486.06 73.352 491.163 74.2876 495.926 76.2437C499.923 77.9447 503.325 80.6663 505.791 84.2384C508.173 87.8955 509.449 92.148 509.363 96.4856C509.363 99.2922 509.108 102.099 508.428 104.82C507.833 107.372 506.727 109.668 505.281 111.88C503.495 114.346 501.454 116.557 499.157 118.428C496.096 120.98 492.864 123.276 489.462 125.403C486.57 127.189 483.763 129.145 481.042 131.271C479.001 132.887 477.215 134.588 475.599 136.544C474.238 138.16 473.132 140.031 472.452 141.987L511.49 142.072Z" fill="#00CAA4"/>
</g>
<defs>
<clipPath id="clip0_7_246">
<rect width="512" height="159.043" fill="white" transform="translate(0 0.37915)"/>
</clipPath>
</defs>
</svg>
