<svg width="512" height="216" viewBox="0 0 512 216" fill="none" xmlns="http://www.w3.org/2000/svg">
<g clip-path="url(#clip0_6_242)">
<path d="M35.3148 1.52808V62.4054H96.1912V1.52808H35.3148ZM77.4629 44.4911C76.3367 46.0268 74.7934 47.2069 73.0162 47.8913C70.8043 48.7413 68.4468 49.1481 66.0779 49.0888H52.4358V14.8438H65.2865C69.0736 14.8438 72.0072 15.6021 74.0871 17.1188C75.1101 17.8628 75.9312 18.8504 76.476 19.9921C77.0208 21.1337 77.272 22.3933 77.2069 23.6566C77.2439 25.1469 76.8562 26.6169 76.0891 27.8951C75.2852 29.1438 74.1372 30.1332 72.7836 30.744C74.6244 31.292 76.2455 32.4067 77.416 33.9294C78.5146 35.4707 79.0787 37.3291 79.0223 39.221C79.0725 41.0978 78.5266 42.9422 77.4629 44.4892V44.4911ZM68.7561 27.7526C69.2299 27.3522 69.6047 26.8475 69.851 26.2781C70.0973 25.7087 70.2084 25.0901 70.1758 24.4705C70.1758 21.7574 68.3288 20.4008 64.6348 20.4008H59.3741V28.9248H64.6348C66.1031 29.0256 67.5606 28.6111 68.7561 27.7526ZM65.519 34.2886H59.3732V43.5327H65.4262C67.107 43.6372 68.7798 43.2281 70.2227 42.3596C70.7666 41.9864 71.2061 41.4804 71.4994 40.8895C71.7927 40.2987 71.93 39.6427 71.8984 38.9838C71.8984 35.8543 69.7719 34.2895 65.519 34.2895V34.2886ZM111.411 1.52808V62.4054H172.288V1.52808H111.411ZM153.559 44.4901C152.433 46.0261 150.89 47.2065 149.113 47.8913C146.901 48.7414 144.543 49.1483 142.174 49.0888H128.532V14.8438H141.383C145.17 14.8438 148.103 15.6021 150.183 17.1188C151.206 17.8628 152.027 18.8504 152.572 19.9921C153.117 21.1337 153.368 22.3933 153.303 23.6566C153.34 25.1468 152.953 26.6168 152.186 27.8951C151.382 29.1439 150.233 30.1333 148.879 30.744C150.72 31.292 152.341 32.4067 153.512 33.9294C154.611 35.4706 155.175 37.329 155.119 39.221C155.169 41.0982 154.623 42.943 153.559 44.4901ZM144.852 27.7517C145.326 27.3515 145.7 26.8472 145.947 26.2782C146.193 25.7091 146.305 25.0908 146.272 24.4715C146.272 21.7583 144.425 20.4014 140.731 20.4008H135.47V28.9248H140.731C142.199 29.0256 143.656 28.6101 144.852 27.7517ZM141.616 34.2895H135.47V43.5327H141.523C143.203 43.637 144.876 43.2279 146.318 42.3596C146.863 41.9865 147.302 41.4805 147.596 40.8897C147.889 40.2988 148.027 39.6427 147.995 38.9838C147.995 35.8543 145.869 34.2895 141.616 34.2895ZM187.506 62.4054H248.384V1.52808H187.506V62.4054ZM231.229 46.9179C229.675 47.752 228.017 48.3754 226.298 48.7718C224.367 49.2326 222.387 49.4612 220.402 49.4526C217.886 49.4895 215.383 49.0846 213.007 48.256C210.924 47.5257 209.027 46.3478 207.448 44.8052C205.896 43.2451 204.708 41.3617 203.968 39.2895C203.132 36.9321 202.722 34.4444 202.759 31.9433C202.723 29.4837 203.15 27.0392 204.016 24.7369C204.811 22.6578 206.048 20.7759 207.641 19.2211C209.265 17.6602 211.201 16.4606 213.321 15.7009C215.702 14.8579 218.214 14.4445 220.74 14.48C222.553 14.4706 224.361 14.6675 226.129 15.067C227.766 15.4383 229.349 16.0139 230.842 16.7802V23.4466C229.516 22.5687 228.066 21.896 226.54 21.4511C224.954 20.9918 223.31 20.7626 221.658 20.7703C219.575 20.7099 217.509 21.1613 215.641 22.085C214.01 22.9328 212.677 24.2598 211.823 25.8875C210.886 27.7653 210.429 29.8459 210.493 31.9433C210.432 34.0426 210.871 36.1264 211.774 38.0226C212.586 39.6546 213.887 40.9922 215.497 41.8486C217.33 42.7721 219.365 43.2237 221.416 43.1623C224.883 43.1848 228.285 42.2247 231.229 40.3932V46.9179ZM282.493 38.2027V54.7995H272.789V9.15838H289.451C295.451 9.15838 300.058 10.4137 303.271 12.9243C306.483 15.4355 308.09 19.0314 308.091 23.7119C308.212 26.4152 307.483 29.0885 306.005 31.3558C304.528 33.623 302.377 35.3702 299.856 36.3516C301.77 39.3736 303.664 42.4056 305.537 45.4476C307.409 48.4908 309.281 51.6081 311.154 54.7995H299.855C296.791 49.1819 293.621 43.6493 290.344 38.2017H282.493V38.2027ZM282.493 30.4786H288.876C291.897 30.4786 294.195 29.936 295.77 28.8507C296.569 28.2669 297.206 27.4882 297.62 26.5887C298.033 25.6892 298.21 24.6989 298.132 23.7119C298.208 22.7239 298.034 21.7326 297.627 20.8292C297.22 19.9257 296.592 19.139 295.802 18.5413C294.248 17.4354 291.961 16.8821 288.94 16.8815H282.493V30.4786ZM349.901 54.7995C348.794 51.4381 347.688 48.1401 346.582 44.9055H328.07C326.963 48.1826 325.856 51.4803 324.75 54.7986H314.218C317.111 46.7991 320.058 38.9903 323.059 31.3722C326.06 23.7554 329.092 16.3504 332.155 9.15744H342.751C345.9 16.733 348.975 24.3402 351.976 31.9789C354.976 39.6183 357.88 47.2252 360.689 54.7995H349.901ZM330.879 36.7342H343.709C342.688 33.7559 341.635 30.7877 340.549 27.8295C339.464 24.8725 338.389 21.9681 337.325 19.1161C335.112 24.9469 332.963 30.8196 330.879 36.7342ZM366.242 9.15838H383.669C387.942 9.0389 392.181 9.95892 396.021 11.8394C399.369 13.5501 402.102 16.2604 403.841 19.5944C405.726 23.4098 406.647 27.6294 406.521 31.8833C406.641 36.1605 405.71 40.4018 403.809 44.2351C402.068 47.5919 399.338 50.3328 395.989 52.0867C392.147 53.9953 387.893 54.927 383.605 54.7995H366.242V9.15838ZM383.095 46.3731C387.349 46.3731 390.615 45.1284 392.893 42.639C395.169 40.1497 396.307 36.5645 396.309 31.8833C396.309 27.2447 395.191 23.7016 392.956 21.2541C390.723 18.8079 387.456 17.5845 383.158 17.5839H376.072V46.3731H383.095ZM414.308 9.15838H424.139V54.7995H414.307L414.308 9.15838ZM454.588 8.20096C457.783 8.15567 460.956 8.71896 463.939 9.86074C466.639 10.9089 469.079 12.5311 471.09 14.615C473.116 16.7584 474.67 19.3028 475.653 22.084C477.78 28.476 477.78 35.3853 475.653 41.7773C474.672 44.578 473.117 47.1435 471.09 49.3101C469.087 51.4114 466.645 53.0458 463.939 54.0972C457.901 56.3101 451.274 56.3101 445.236 54.0972C442.531 53.046 440.09 51.4116 438.087 49.3101C436.058 47.1438 434.504 44.5783 433.522 41.7773C431.395 35.3856 431.395 28.4767 433.522 22.085C434.505 19.3034 436.06 16.7589 438.087 14.616C440.097 12.5312 442.537 10.9083 445.236 9.8598C448.22 8.71773 451.394 8.15537 454.588 8.20096ZM454.588 47.203C456.952 47.2666 459.283 46.634 461.29 45.3838C463.206 44.1184 464.696 42.3056 465.567 40.1813C467.524 34.8659 467.524 29.0273 465.567 23.7119C464.701 21.5936 463.21 19.7901 461.291 18.5422C459.252 17.3709 456.941 16.7546 454.588 16.7546C452.236 16.7546 449.925 17.3709 447.886 18.5422C445.966 19.7891 444.474 21.5929 443.609 23.7119C441.651 29.0271 441.651 34.8661 443.609 40.1813C444.478 42.306 445.969 44.119 447.885 45.3838C449.892 46.6347 452.224 47.2673 454.588 47.203Z" fill="black"/>
<path d="M0.900183 95.7792H78.9896V116.736H26.111V145.549H72.7668V166.504H26.111V212.833H0.900183V95.7792ZM149.217 93.3261C157.409 93.2102 165.549 94.654 173.201 97.5806C180.124 100.27 186.379 104.432 191.534 109.778C196.733 115.273 200.721 121.798 203.241 128.931C208.698 145.324 208.698 163.044 203.241 179.437C200.725 186.62 196.737 193.199 191.535 198.754C186.399 204.143 180.14 208.335 173.201 211.032C157.716 216.708 140.719 216.708 125.233 211.032C118.294 208.335 112.034 204.143 106.899 198.754C101.696 193.199 97.7085 186.62 95.1926 179.437C89.7356 163.044 89.7356 145.324 95.1926 128.931C97.7118 121.798 101.7 115.273 106.899 109.778C112.054 104.431 118.309 100.269 125.232 97.5806C132.885 94.6537 141.024 93.2098 149.217 93.3261ZM149.217 193.351C155.873 193.351 161.603 191.795 166.407 188.684C171.321 185.44 175.143 180.792 177.375 175.344C179.883 169.56 181.139 162.52 181.141 154.226C181.141 145.933 179.886 138.893 177.375 133.106C175.154 127.673 171.328 123.046 166.407 119.845C161.602 116.791 155.872 115.263 149.217 115.261C142.559 115.261 136.829 116.789 132.027 119.845C127.105 123.045 123.278 127.672 121.059 133.106C118.548 138.893 117.293 145.933 117.293 154.225C117.293 162.52 118.548 169.56 121.059 175.344C123.289 180.793 127.112 185.442 132.027 188.684C136.83 191.795 142.56 193.351 149.217 193.351ZM274.124 168.466V212.833H248.913V168.466C241.273 156.462 233.797 144.402 226.484 132.287C219.173 120.173 212.025 108.004 205.039 95.7792H233.688C238.162 104.403 242.773 113.025 247.522 121.645C252.269 130.269 257.044 138.783 261.846 147.185C266.758 138.672 271.561 130.131 276.254 121.565C280.944 112.998 285.582 104.403 290.168 95.7792H318.162C311.068 108.005 303.865 120.174 296.553 132.287C289.239 144.403 281.762 156.463 274.124 168.466ZM331.586 95.7792H356.796V190.895H412.293V212.833H331.586V95.7792ZM428.009 95.7792H508.551V116.736H453.219V142.109H502.331V163.066H453.219V191.879H511.662V212.833H428.008L428.009 95.7792Z" fill="#2CB851"/>
</g>
<defs>
<clipPath id="clip0_6_242">
<rect width="512" height="214.74" fill="white" transform="translate(0 0.702881)"/>
</clipPath>
</defs>
</svg>
