<svg width="512" height="211" viewBox="0 0 512 211" fill="none" xmlns="http://www.w3.org/2000/svg">
<g clip-path="url(#clip0_5_222)">
<path d="M220.091 79.3322H228.993V122.24H219.635C216.516 117.219 213.397 112.274 210.125 107.253C206.93 102.231 203.735 97.3625 200.616 92.6457V122.24H191.715V79.3322H201.072C204.343 84.2011 207.463 88.994 210.658 93.8629C213.777 98.7318 216.896 103.677 220.015 108.622V79.3322H220.091ZM269.922 100.71C272.737 107.861 275.476 115.012 278.138 122.164H268.02C266.955 118.968 265.966 115.925 264.901 112.882H247.479C246.414 115.925 245.425 119.044 244.36 122.164H234.47C237.209 114.632 239.948 107.329 242.763 100.177C245.577 93.0261 248.392 86.103 251.283 79.3322H261.249C264.216 86.4073 267.107 93.5586 269.922 100.71ZM262.162 105.198C261.173 102.384 260.184 99.6448 259.195 96.8299C258.206 94.0151 257.141 91.3524 256.152 88.6136C254.098 94.0911 252.044 99.6448 250.066 105.198H262.162ZM64.1331 168.19H36.8974V180.287H49.6784V194.665C47.9286 195.198 46.1789 195.578 44.353 195.883C42.5272 196.187 40.7774 196.263 38.9515 196.263C31.7242 196.263 26.2466 194.209 22.3667 190.025C18.4867 185.84 16.5848 179.906 16.5848 172.146C16.5848 167.049 17.4977 162.789 19.3997 159.213C21.3016 155.714 23.9643 152.975 27.4639 151.149C30.9634 149.247 35.2998 148.334 40.397 148.334C44.5812 148.334 48.5373 148.791 52.1129 149.78C55.6885 150.769 59.112 152.138 62.1551 154.04V139.814C58.8077 138.216 55.156 136.999 51.2 136.162C47.2439 135.325 43.0597 134.945 38.7233 134.945C32.9414 134.945 27.6921 135.781 22.9753 137.531C18.2585 139.281 14.2264 141.792 10.9551 145.063C7.60769 148.334 5.02106 152.214 3.27129 156.779C1.44543 161.343 0.608582 166.441 0.608582 172.146C0.608582 177.928 1.44543 183.178 3.1952 187.742C4.8689 192.307 7.37946 196.263 10.5747 199.458C13.846 202.729 17.726 205.164 22.3667 206.838C27.0074 208.511 32.1806 209.424 38.0386 209.424C41.1578 209.424 44.2769 209.196 47.4722 208.74C50.5913 208.283 53.6344 207.674 56.4493 206.762C59.3402 205.925 61.8508 204.86 64.1331 203.642V168.19ZM143.71 207.979C139.297 196.111 134.733 184.167 130.092 172.222C125.375 160.278 120.582 148.334 115.637 136.466H99.0526C94.2597 147.726 89.4668 159.365 84.8261 171.233C80.1093 183.178 75.5447 195.426 70.9801 207.903H87.4888C89.2386 202.729 90.9884 197.556 92.6621 192.383H121.648C123.397 197.48 125.147 202.653 126.821 207.903L143.71 207.979ZM86.4998 116.458C89.6951 118.816 92.7381 121.022 95.6291 123.229C98.52 125.435 101.107 127.489 103.389 129.315H117.768C115.485 127.109 113.127 124.902 110.692 122.696C108.258 120.49 105.823 118.36 103.465 116.458H86.4998ZM107.041 152.062C108.714 156.551 110.388 161.115 112.062 165.68C113.735 170.321 115.409 174.961 117.007 179.602H96.9224C100.27 170.397 103.617 161.191 107.041 152.062ZM152.002 207.979H167.37V136.466H152.002V207.979ZM180.988 207.979H208.223C215.831 207.979 222.298 206.533 227.623 203.718C232.949 200.904 237.057 196.795 239.872 191.394C242.686 185.992 244.132 179.602 244.132 172.07C244.132 164.539 242.762 158.148 239.948 152.823C237.133 147.497 233.101 143.465 227.699 140.65C222.298 137.836 215.907 136.466 208.376 136.466H181.064V207.979H180.988ZM196.355 194.817V149.704H207.463C214.157 149.704 219.331 151.606 222.83 155.485C226.33 159.289 228.08 164.843 228.08 172.146C228.08 179.45 226.33 185.08 222.754 189.036C219.179 192.915 214.081 194.894 207.387 194.894H196.355V194.817ZM315.416 207.979V136.466H300.049V163.854H268.933V136.466H253.565V207.979H268.933V177.244H300.049V207.979H315.416ZM327.36 207.979H378.484V195.198H342.804V177.624H372.779V164.843H342.804V149.323H376.582V136.542H327.36V207.979ZM456.311 207.979C451.899 196.111 447.334 184.167 442.694 172.222C437.977 160.278 433.184 148.334 428.239 136.466H411.578C406.785 147.726 401.992 159.365 397.352 171.233C392.635 183.178 388.07 195.426 383.505 207.903H400.014C401.764 202.729 403.514 197.556 405.187 192.383H434.173C435.923 197.48 437.672 202.653 439.346 207.903L456.311 207.979ZM419.718 152.062C421.392 156.551 423.066 161.115 424.739 165.68C426.413 170.321 428.087 174.961 429.684 179.602H409.6C412.871 170.397 416.219 161.191 419.718 152.062ZM462.626 207.979H511.924V194.589H477.993V136.466H462.626V207.979ZM311.917 79.3322V108.622C308.798 103.601 305.678 98.7318 302.559 93.8629C299.44 88.994 296.245 84.125 292.973 79.3322H283.616V122.24H292.517V92.6457C295.636 97.3625 298.755 102.231 302.027 107.253C305.222 112.274 308.417 117.295 311.536 122.24H320.894V79.3322H311.917Z" fill="#0096DC"/>
<path d="M281.029 35.1312V50.7271H271.9V7.81948H287.572C293.202 7.81948 297.538 9.03672 300.581 11.3951C303.624 13.7535 305.146 17.1009 305.146 21.5134C305.146 24.3282 304.461 26.7627 303.168 28.7407C301.799 30.7187 299.897 32.2403 297.462 33.3814C299.288 36.1963 301.038 39.0872 302.788 41.9021C304.537 44.793 306.287 47.684 308.037 50.651H297.462C294.571 45.4016 291.604 40.1523 288.561 35.0551H287.648L281.029 35.1312ZM281.029 27.9039H287.04C289.854 27.9039 292.061 27.3713 293.506 26.3823C294.952 25.3933 295.712 23.7196 295.712 21.5895C295.712 19.3832 294.952 17.7856 293.506 16.7205C292.061 15.6554 289.93 15.199 287.04 15.199H280.953V27.9039H281.029ZM344.326 50.7271C343.261 47.6079 342.272 44.4887 341.207 41.4456H323.785C322.72 44.4887 321.731 47.6079 320.666 50.7271H310.776C313.514 43.1954 316.253 35.892 319.068 28.7407C321.883 21.5895 324.698 14.6664 327.589 7.89555H337.555C340.522 15.0468 343.413 22.122 346.228 29.3493C349.042 36.5006 351.781 43.6519 354.444 50.8031H344.326V50.7271ZM326.448 33.7618H338.544C337.555 30.947 336.566 28.2082 335.577 25.3933C334.588 22.5785 333.523 19.9158 332.534 17.177C330.404 22.6545 328.426 28.2082 326.448 33.7618ZM359.693 7.81948H376.05C380.538 7.81948 384.418 8.65633 387.614 10.33C390.809 12.0037 393.243 14.4382 394.993 17.6334C396.667 20.8287 397.504 24.6326 397.504 29.1972C397.504 33.6857 396.667 37.5657 394.993 40.837C393.319 44.0323 390.809 46.5428 387.614 48.2165C384.418 49.8902 380.538 50.7271 375.974 50.7271H359.693V7.81948ZM375.517 42.815C379.549 42.815 382.593 41.6739 384.723 39.3155C386.853 36.9571 387.918 33.6097 387.918 29.1972C387.918 24.8608 386.853 21.5134 384.799 19.2311C382.669 16.9487 379.626 15.8076 375.593 15.8076H368.975V42.815H375.517ZM404.807 7.81948H414.012V50.7271H404.807V7.81948ZM442.694 6.98263C445.965 6.98263 448.856 7.51517 451.443 8.50417C454.029 9.56926 456.311 11.0147 458.137 12.9927C459.963 14.8947 461.409 17.2531 462.398 19.9918C463.387 22.7306 463.919 25.8498 463.919 29.2733C463.919 32.6967 463.387 35.7398 462.398 38.4786C461.409 41.2174 459.963 43.5758 458.137 45.5538C456.311 47.5318 454.029 48.9773 451.443 50.0424C448.856 51.1074 445.889 51.5639 442.694 51.5639C439.422 51.5639 436.531 51.0314 433.945 50.0424C431.358 48.9773 429.076 47.5318 427.25 45.5538C425.424 43.5758 423.979 41.2174 422.99 38.4786C422.001 35.7398 421.468 32.6207 421.468 29.2733C421.468 25.8498 422.001 22.7306 422.99 19.9918C423.979 17.2531 425.424 14.8947 427.25 12.9927C429.076 11.0908 431.358 9.56926 433.945 8.50417C436.455 7.43909 439.422 6.98263 442.694 6.98263ZM442.694 43.5758C445.128 43.5758 447.258 43.0432 449.008 41.9021C450.758 40.7609 452.127 39.1633 453.04 37.0331C453.953 34.903 454.409 32.3164 454.409 29.2733C454.409 26.2302 453.953 23.6435 453.04 21.5134C452.127 19.3832 450.758 17.7856 449.008 16.6444C447.258 15.5033 445.128 14.9707 442.694 14.9707C440.259 14.9707 438.129 15.5033 436.379 16.6444C434.629 17.7856 433.26 19.3832 432.347 21.5134C431.434 23.6435 430.978 26.2302 430.978 29.2733C430.978 32.3164 431.434 34.903 432.347 37.0331C433.26 39.1633 434.629 40.7609 436.379 41.9021C438.129 43.0432 440.183 43.5758 442.694 43.5758ZM281.029 35.1312V50.7271H271.9V7.81948H287.572C293.202 7.81948 297.538 9.03672 300.581 11.3951C303.624 13.7535 305.146 17.1009 305.146 21.5134C305.146 24.3282 304.461 26.7627 303.168 28.7407C301.799 30.7187 299.897 32.2403 297.462 33.3814C299.288 36.1963 301.038 39.0872 302.788 41.9021C304.537 44.793 306.287 47.684 308.037 50.651H297.462C294.571 45.4016 291.604 40.1523 288.561 35.0551H287.648L281.029 35.1312ZM281.029 27.9039H287.04C289.854 27.9039 292.061 27.3713 293.506 26.3823C294.952 25.3933 295.712 23.7196 295.712 21.5895C295.712 19.3832 294.952 17.7856 293.506 16.7205C292.061 15.6554 289.93 15.199 287.04 15.199H280.953V27.9039H281.029ZM344.326 50.7271C343.261 47.6079 342.272 44.4887 341.207 41.4456H323.785C322.72 44.4887 321.731 47.6079 320.666 50.7271H310.776C313.514 43.1954 316.253 35.892 319.068 28.7407C321.883 21.5895 324.698 14.6664 327.589 7.89555H337.555C340.522 15.0468 343.413 22.122 346.228 29.3493C349.042 36.5006 351.781 43.6519 354.444 50.8031H344.326V50.7271ZM326.448 33.7618H338.544C337.555 30.947 336.566 28.2082 335.577 25.3933C334.588 22.5785 333.523 19.9158 332.534 17.177C330.48 22.6545 328.426 28.2082 326.448 33.7618ZM359.693 7.81948H376.05C380.538 7.81948 384.418 8.65633 387.614 10.33C390.809 12.0037 393.243 14.4382 394.993 17.6334C396.667 20.8287 397.504 24.6326 397.504 29.1972C397.504 33.6857 396.667 37.5657 394.993 40.837C393.319 44.0323 390.809 46.5428 387.614 48.2165C384.418 49.8902 380.538 50.7271 375.974 50.7271H359.693V7.81948ZM375.517 42.815C379.549 42.815 382.593 41.6739 384.723 39.3155C386.853 36.9571 387.918 33.6097 387.918 29.1972C387.918 24.8608 386.853 21.5134 384.799 19.2311C382.669 16.9487 379.626 15.8076 375.593 15.8076H368.975V42.815H375.517ZM404.807 7.81948H414.012V50.7271H404.807V7.81948ZM442.694 6.98263C445.965 6.98263 448.856 7.51517 451.443 8.50417C454.029 9.56926 456.311 11.0147 458.137 12.9927C459.963 14.8947 461.409 17.2531 462.398 19.9918C463.387 22.7306 463.919 25.8498 463.919 29.2733C463.919 32.6967 463.387 35.7398 462.398 38.4786C461.409 41.2174 459.963 43.5758 458.137 45.5538C456.311 47.5318 454.029 48.9773 451.443 50.0424C448.856 51.1074 445.889 51.5639 442.694 51.5639C439.422 51.5639 436.531 51.0314 433.945 50.0424C431.358 48.9773 429.076 47.5318 427.25 45.5538C425.424 43.5758 423.979 41.2174 422.99 38.4786C422.001 35.7398 421.468 32.6207 421.468 29.2733C421.468 25.8498 422.001 22.7306 422.99 19.9918C423.979 17.2531 425.424 14.8947 427.25 12.9927C429.076 11.0908 431.358 9.56926 433.945 8.50417C436.531 7.51517 439.422 6.98263 442.694 6.98263ZM442.694 43.5758C445.128 43.5758 447.258 43.0432 449.008 41.9021C450.758 40.7609 452.127 39.1633 453.04 37.0331C453.953 34.903 454.409 32.3164 454.409 29.2733C454.409 26.2302 453.953 23.6435 453.04 21.5134C452.127 19.3832 450.758 17.7856 449.008 16.6444C447.258 15.5033 445.128 14.9707 442.694 14.9707C440.259 14.9707 438.129 15.5033 436.379 16.6444C434.629 17.7856 433.26 19.3832 432.347 21.5134C431.434 23.6435 430.978 26.2302 430.978 29.2733C430.978 32.3164 431.434 34.903 432.347 37.0331C433.26 39.1633 434.629 40.7609 436.379 41.9021C438.129 43.0432 440.259 43.5758 442.694 43.5758ZM48.8416 0.668213V57.8783H106.052V0.668213H48.8416ZM88.7061 41.0652C87.7171 42.4346 86.3477 43.4997 84.5219 44.2605C82.696 45.0213 80.5658 45.4016 77.9792 45.4016H65.1982V13.221H77.2945C80.8701 13.221 83.6089 13.9057 85.5869 15.3511C87.5649 16.7966 88.5539 18.8507 88.5539 21.5134C88.5539 23.0349 88.1736 24.4043 87.4889 25.4694C86.8042 26.6106 85.7391 27.5235 84.3697 28.1321C86.2716 28.7407 87.7171 29.7297 88.7061 31.0991C89.6951 32.4685 90.2277 34.1422 90.2277 36.0441C90.1516 38.0221 89.6951 39.6959 88.7061 41.0652ZM80.4898 25.3173C81.4027 24.5565 81.8592 23.5675 81.8592 22.1981C81.8592 19.6875 80.1094 18.3942 76.6859 18.3942H71.7409V26.3823H76.6859C78.3596 26.4584 79.6529 26.078 80.4898 25.3173ZM77.4467 31.4795H71.6648V40.1523H77.3706C79.3486 40.1523 80.7941 39.7719 81.8592 39.0872C82.9242 38.3265 83.4568 37.2614 83.4568 35.892C83.4568 32.925 81.4788 31.4795 77.4467 31.4795ZM120.278 0.668213V57.8783H177.488V0.668213H120.278ZM160.143 41.0652C159.154 42.4346 157.784 43.4997 155.958 44.2605C154.133 45.0213 152.002 45.4016 149.416 45.4016H136.635V13.221H148.731C152.307 13.221 155.045 13.9057 157.023 15.3511C159.001 16.7966 159.99 18.8507 159.99 21.5134C159.99 23.0349 159.61 24.4043 158.925 25.4694C158.241 26.6106 157.176 27.5235 155.806 28.1321C157.708 28.7407 159.154 29.7297 160.143 31.0991C161.132 32.4685 161.664 34.1422 161.664 36.0441C161.664 38.0221 161.132 39.6959 160.143 41.0652ZM152.002 25.3173C152.915 24.5565 153.372 23.5675 153.372 22.1981C153.372 19.6875 151.622 18.3942 148.199 18.3942H143.253V26.3823H148.199C149.796 26.4584 151.089 26.078 152.002 25.3173ZM148.959 31.4795H143.177V40.1523H148.883C150.861 40.1523 152.307 39.7719 153.372 39.0872C154.437 38.3265 154.969 37.2614 154.969 35.892C154.969 32.925 152.915 31.4795 148.959 31.4795ZM191.791 57.8783H249.001V0.668213H191.791V57.8783ZM232.796 43.3476C231.427 44.1083 229.906 44.6409 228.156 45.0973C226.406 45.5538 224.58 45.706 222.602 45.706C220.015 45.706 217.733 45.3256 215.679 44.5648C213.625 43.804 211.875 42.7389 210.43 41.2935C208.984 39.848 207.919 38.1743 207.158 36.1202C206.398 34.0661 206.017 31.7838 206.017 29.1972C206.017 26.6866 206.398 24.4804 207.234 22.4263C207.995 20.4483 209.136 18.6985 210.658 17.2531C212.103 15.8076 213.929 14.7425 215.983 13.9817C218.037 13.221 220.396 12.8406 222.982 12.8406C224.732 12.8406 226.482 12.9927 228.08 13.3731C229.677 13.7535 231.123 14.286 232.492 14.9707V21.2091C231.275 20.3722 229.905 19.7636 228.46 19.3071C227.015 18.8507 225.493 18.6985 223.895 18.6985C221.689 18.6985 219.787 19.0789 218.266 19.9158C216.744 20.7526 215.527 21.8938 214.69 23.4914C213.853 25.0129 213.473 26.9149 213.473 29.1972C213.473 31.4034 213.853 33.3054 214.69 34.903C215.527 36.5006 216.668 37.6418 218.19 38.4786C219.711 39.3155 221.537 39.6959 223.743 39.6959C227.091 39.6959 230.134 38.859 232.949 37.1092V43.3476H232.796Z" fill="black"/>
</g>
<defs>
<clipPath id="clip0_5_222">
<rect width="512" height="209.973" fill="white" transform="translate(0 0.135742)"/>
</clipPath>
</defs>
</svg>
