<svg width="512" height="333" viewBox="0 0 512 333" fill="none" xmlns="http://www.w3.org/2000/svg">
<path d="M0.0537109 1.72058V147.45H145.417V1.72058H0.0537109ZM101.429 104.563C98.9463 108.079 95.4077 110.795 90.8129 112.706C86.218 114.619 80.6901 115.575 74.2494 115.575H41.6741V33.6057H72.3618C81.4079 33.6057 88.4132 35.4253 93.3765 39.0547C98.341 42.6842 100.823 47.8975 100.823 54.7042C100.823 58.6016 99.9308 61.9847 98.1567 64.8533C96.3827 67.7219 93.7461 69.9948 90.259 71.6708C95.0799 73.2738 98.762 75.8134 101.326 79.2898C103.88 82.7649 105.162 86.9913 105.162 91.957C105.162 96.9239 103.92 101.057 101.438 104.573L101.429 104.563ZM80.6387 64.4932C82.8948 62.6223 84.0337 60 84.0337 56.6374C84.0337 50.1393 79.6231 46.8902 70.803 46.8902H58.2387V67.3008H70.803C75.1 67.3008 78.3825 66.3642 80.6387 64.4932ZM72.9156 80.1427H58.2387V102.27H72.6895C77.654 102.27 81.4689 101.334 84.1461 99.4635C86.8126 97.5914 88.1464 94.8974 88.1464 91.3816C88.1464 83.8954 83.0695 80.1427 72.9156 80.1427ZM181.261 1.72058V147.45H326.625V1.72058H181.261ZM282.635 104.563C280.154 108.079 276.615 110.795 272.02 112.706C267.425 114.619 261.896 115.575 255.456 115.575H222.881V33.6057H253.569C262.615 33.6057 269.619 35.4253 274.584 39.0547C279.548 42.6842 282.031 47.8975 282.031 54.7042C282.031 58.6016 281.138 61.9847 279.363 64.8533C277.589 67.7219 274.953 69.9948 271.466 71.6708C276.286 73.2738 279.968 75.8134 282.533 79.2898C285.087 82.7649 286.368 86.9913 286.368 91.957C286.368 96.9239 285.128 101.057 282.645 104.573L282.635 104.563ZM261.846 64.4932C264.102 62.6223 265.24 60 265.24 56.6374C265.24 50.1393 260.83 46.8902 252.009 46.8902H239.446V67.3008H252.009C256.307 67.3008 259.589 66.3642 261.846 64.4932ZM254.123 80.1427H239.446V102.27H253.897C258.861 102.27 262.676 101.334 265.353 99.4635C268.02 97.5914 269.354 94.8974 269.354 91.3816C269.354 83.8954 264.277 80.1427 254.123 80.1427ZM360.477 147.45H505.84V1.72058H360.477V147.45ZM464.877 110.372C461.491 112.244 457.564 113.724 453.102 114.814C448.64 115.904 443.943 116.449 439.02 116.449C432.476 116.449 426.589 115.493 421.358 113.581C416.128 111.668 411.697 108.913 408.087 105.324C404.467 101.726 401.697 97.3246 399.779 92.1221C397.851 86.9183 396.897 81.0471 396.897 74.5394C396.897 68.0306 397.892 62.4261 399.902 57.2857C401.902 52.155 404.784 47.7539 408.558 44.0826C412.323 40.4125 416.846 37.6048 422.118 35.6513C427.39 33.7086 433.297 32.7313 439.831 32.7313C444.374 32.7313 448.661 33.205 452.702 34.1405C456.743 35.0759 460.497 36.4433 463.953 38.2424V54.2006C460.79 52.0971 457.324 50.4884 453.676 49.4299C449.984 48.3401 446.097 47.8054 442.015 47.8054C436.394 47.8054 431.605 48.8545 427.645 50.9515C423.687 53.0486 420.64 56.0823 418.528 60.0515C416.415 64.0207 415.359 68.8524 415.359 74.549C415.359 80.2456 416.374 85.0988 418.415 89.0991C420.456 93.109 423.42 96.163 427.297 98.2601C431.184 100.357 435.891 101.406 441.441 101.406C449.902 101.406 457.717 99.1956 464.866 94.7742V110.393L464.877 110.372Z" fill="black"/>
<path d="M82.0168 329.113C72.7826 314.149 63.4776 299.228 54.102 284.352C44.9181 269.773 35.6129 255.271 26.1873 240.847V329.113H0.0537109V201.35H27.612C37.1233 215.716 46.5171 230.16 55.7923 244.679C65.0394 259.154 74.2566 273.833 83.4319 288.73V201.35H109.575V329.113H82.0168ZM135.461 201.35H221.743V224.22H162.467V251.921H215.081V274.791H162.467V306.243H225.069V329.113H135.461V201.35ZM346.418 329.113C342.417 314.721 338.502 300.305 334.674 285.866C330.85 271.477 327.112 257.064 323.459 242.63C319.919 257.069 316.269 271.482 312.51 285.866C308.732 300.311 304.844 314.727 300.847 329.113H272.051C266 308.106 260.227 287.02 254.735 265.86C249.173 244.436 243.93 222.93 239.008 201.35H268.69C271.638 217.941 274.758 234.5 278.051 251.025C281.298 267.332 284.771 283.593 288.471 299.804C296.328 268.864 303.808 237.829 310.911 206.707H337.414C340.945 221.948 344.568 237.168 348.283 252.365C351.989 267.546 355.788 282.703 359.681 297.837C363.257 281.911 366.672 265.949 369.927 249.954C373.217 233.797 376.28 217.594 379.116 201.35H408.267C403.345 222.93 398.102 244.436 392.54 265.86C387.048 287.02 381.275 308.106 375.224 329.113H346.418ZM459.541 331.109C452.593 331.111 445.666 330.342 438.888 328.816C432.066 327.276 425.478 324.838 419.297 321.565V297.155C431.939 304.823 445.356 308.647 459.531 308.647C467.564 308.647 473.685 307.291 477.875 304.578C482.065 301.866 484.17 298.094 484.17 293.26C484.17 289.611 483.138 286.745 481.063 284.686C479 282.626 476.251 280.975 472.816 279.731C469.393 278.497 465.55 277.344 461.299 276.284C454.329 274.632 448.177 272.746 442.863 270.625C437.549 268.505 433.053 265.996 429.393 263.111C425.725 260.226 422.955 256.748 421.065 252.68C419.175 248.611 418.224 243.748 418.224 238.089C418.224 230.075 420.257 223.171 424.335 217.401C428.412 211.63 434.177 207.174 441.617 204.044C449.056 200.923 457.926 199.354 468.207 199.354C474.942 199.354 481.565 200.118 488.064 201.648C494.563 203.177 500.409 205.247 505.611 207.836V231.89C500.409 228.709 494.533 226.231 487.972 224.467C481.411 222.702 474.82 221.816 468.207 221.816C461.003 221.816 455.413 223.049 451.458 225.527C447.493 228.005 445.52 231.543 445.52 236.141C445.52 239.445 446.46 242.065 448.361 244.013C450.251 245.96 452.939 247.551 456.424 248.784C459.91 250.019 464.018 251.232 468.739 252.415C474.769 253.944 480.379 255.626 485.58 257.451C490.783 259.277 495.361 261.612 499.316 264.436C503.23 267.218 506.397 270.923 508.534 275.223C510.721 279.588 511.814 284.951 511.814 291.313C511.814 299.684 509.75 306.852 505.611 312.796C501.472 318.751 495.503 323.289 487.706 326.419C479.909 329.539 470.517 331.109 459.521 331.109H459.541Z" fill="#EB0000"/>
</svg>
