<svg width="512" height="166" viewBox="0 0 512 166" fill="none" xmlns="http://www.w3.org/2000/svg">
<g clip-path="url(#clip0_5_202)">
<path d="M43.5012 74.1574C49.6284 74.0702 55.7162 75.1508 61.4392 77.3415C66.617 79.3526 71.2959 82.4651 75.1519 86.4634C79.0399 90.5741 82.0223 95.4545 83.9067 100.79C87.9881 113.05 87.9881 126.303 83.9067 138.564C82.024 143.936 79.0423 148.856 75.1519 153.011C71.3107 157.042 66.6289 160.177 61.4392 162.194C55.7161 164.384 49.6283 165.465 43.5012 165.378C37.374 165.465 31.2862 164.385 25.5632 162.194C20.3725 160.178 15.69 157.043 11.8488 153.011C7.95779 148.856 4.97606 143.936 3.09407 138.564C-0.987413 126.303 -0.987413 113.05 3.09407 100.79C4.97774 95.4542 7.96027 90.5736 11.8488 86.4634C15.7048 82.4644 20.3844 79.3518 25.5632 77.3415C31.286 75.1504 37.3739 74.0698 43.5012 74.1574ZM43.5012 148.971C48.0359 149.093 52.5065 147.88 56.3568 145.481C60.0316 143.054 62.8905 139.577 64.5611 135.503C66.4368 131.176 67.3752 125.911 67.3763 119.707C67.3763 113.504 66.4379 108.239 64.5611 103.912C62.9003 99.8479 60.0383 96.3875 56.3576 93.9937C52.4452 91.7467 48.0122 90.5642 43.5004 90.5642C38.9886 90.5642 34.5555 91.7467 30.6431 93.9937C26.9617 96.3861 24.0998 99.847 22.4413 103.912C20.5618 108.24 19.6228 113.505 19.6245 119.707C19.6245 125.911 20.5634 131.176 22.4413 135.503C24.1095 139.578 26.9682 143.056 30.6439 145.481C34.4946 147.88 38.9659 149.094 43.5012 148.971ZM116.352 131.706V163.541H97.7413V75.9944H129.698C141.208 75.9944 150.045 78.4023 156.209 83.218C162.371 88.0354 165.452 94.9335 165.454 103.912C165.454 109.709 164.086 114.647 161.351 118.728C158.454 122.941 154.39 126.218 149.657 128.155C153.329 133.952 156.963 139.768 160.557 145.604C164.148 151.441 167.739 157.42 171.33 163.541H149.656C143.778 152.767 137.697 142.155 131.413 131.706H116.352ZM116.352 116.891H128.596C134.392 116.891 138.8 115.851 141.819 113.769C144.84 111.687 146.35 108.401 146.351 103.912C146.351 99.4237 144.861 96.1175 141.881 93.9937C138.9 91.871 134.513 90.8097 128.72 90.8097H116.352V116.891ZM203.779 125.829H199.247V163.542H180.392V75.9936H199.247V109.911H204.147C209.368 104.033 214.368 98.3397 219.144 92.8299C223.921 87.3189 228.634 81.7068 233.286 75.9936H255.939C250.062 82.932 244.103 89.8091 238.062 96.6249C232.02 103.442 225.857 110.32 219.573 117.258C226.265 124.849 232.898 132.461 239.47 140.093C246.04 147.726 252.673 155.542 259.367 163.541H235.369C230.225 157.174 225.082 150.929 219.94 144.807C214.798 138.685 209.411 132.359 203.778 125.829L203.779 125.829ZM325.239 163.542C318.873 153.339 312.425 143.115 305.895 132.87C299.362 122.626 292.913 112.688 286.547 103.054V163.541H268.427V75.9944H287.528C294.139 85.8718 300.649 95.7694 307.058 105.687C313.465 115.605 319.853 125.666 326.221 135.87V75.9944H344.342V163.541L325.239 163.542ZM358.79 75.9944H419.031V91.6668H377.646V110.646H414.378V126.319H377.645V147.869H421.358V163.541H358.79V75.9944ZM479.028 130.36V163.541H460.173V130.36C454.457 121.381 448.866 112.361 443.399 103.3C437.929 94.2374 432.582 85.1357 427.359 75.9944H448.786C452.131 82.4437 455.579 88.8923 459.131 95.34C462.683 101.79 466.254 108.158 469.845 114.443C473.519 108.075 477.111 101.687 480.62 95.2794C484.129 88.8715 487.598 82.4432 491.028 75.9944H511.966C506.661 85.1373 501.274 94.2391 495.805 103.3C490.335 112.361 484.743 121.381 479.028 130.36Z" fill="#7826FC"/>
<path d="M277.59 30.9948V44.6659H269.598V7.07068H283.322C288.264 7.07068 292.058 8.10505 294.705 10.1738C297.351 12.2419 298.675 15.2038 298.675 19.0593C298.775 21.2859 298.174 23.4877 296.957 25.3552C295.741 27.2226 293.969 28.6618 291.892 29.4703C293.469 31.9599 295.029 34.4572 296.572 36.9622C298.114 39.4693 299.656 42.0375 301.198 44.6667H291.892C289.368 40.0391 286.756 35.4818 284.057 30.9948H277.59ZM277.59 24.6333H282.849C285.337 24.6333 287.23 24.1862 288.527 23.2919C289.185 22.8111 289.71 22.1697 290.05 21.4288C290.391 20.688 290.536 19.8722 290.473 19.0593C290.535 18.2455 290.392 17.4291 290.056 16.6849C289.721 15.9408 289.204 15.2929 288.553 14.8006C287.273 13.8894 285.389 13.4336 282.901 13.4331H277.59V24.6333ZM333.114 44.6659C332.202 41.897 331.291 39.1805 330.38 36.5164H315.132C314.22 39.2154 313.309 41.9319 312.398 44.6659H303.722C306.105 38.0764 308.533 31.644 311.005 25.3686C313.476 19.0948 315.973 12.9955 318.497 7.07068H327.225C329.819 13.3106 332.352 19.5765 334.824 25.8683C337.294 32.1606 339.686 38.4265 342.001 44.6659H333.114ZM317.446 29.786H328.014C327.172 27.3323 326.305 24.8874 325.411 22.4511C324.517 20.0149 323.632 17.6223 322.756 15.2733C320.934 20.0765 319.163 24.9141 317.446 29.786ZM346.574 7.07068H360.929C364.449 6.97219 367.941 7.73001 371.104 9.279C373.861 10.6885 376.112 12.9212 377.544 15.6675C379.004 18.8524 379.758 22.3154 379.753 25.8188C379.748 29.3222 378.986 32.7832 377.518 35.9643C376.085 38.7292 373.836 40.9868 371.077 42.4314C367.913 44.0035 364.409 44.771 360.877 44.6659H346.573L346.574 7.07068ZM360.456 37.7253C363.961 37.7253 366.651 36.7002 368.527 34.65C370.401 32.5987 371.339 29.6453 371.341 25.7898C371.341 21.9697 370.42 19.0514 368.58 17.035C366.739 15.0198 364.049 14.0119 360.508 14.0113H354.672V37.7253H360.456ZM386.167 7.07068H394.264V44.6659H386.167V7.07068ZM419.345 6.28224C421.976 6.24508 424.59 6.70918 427.047 7.64975C429.271 8.51337 431.281 9.84982 432.937 11.5666C434.606 13.3321 435.887 15.4279 436.696 17.7188C438.449 22.9839 438.449 28.675 436.696 33.9401C435.888 36.2467 434.607 38.3595 432.937 40.1438C431.287 41.8748 429.277 43.2213 427.048 44.0876C422.075 45.9105 416.616 45.9105 411.642 44.0876C409.414 43.2216 407.403 41.875 405.753 40.1438C404.082 38.3598 402.801 36.2469 401.993 33.9401C400.24 28.675 400.24 22.9839 401.993 17.7188C402.802 15.4277 404.083 13.3318 405.753 11.5666C407.409 9.84938 409.418 8.51261 411.642 7.64893C414.099 6.70858 416.714 6.24421 419.345 6.28224ZM419.345 38.409C421.293 38.4615 423.212 37.9404 424.866 36.9106C426.444 35.8682 427.671 34.3748 428.389 32.6249C430.001 28.2467 430.001 23.4375 428.389 19.0593C427.675 17.3142 426.446 15.8284 424.866 14.8006C423.186 13.8359 421.283 13.3282 419.345 13.3282C417.408 13.3282 415.504 13.8359 413.824 14.8006C412.243 15.8277 411.014 17.3137 410.301 19.0593C408.688 23.4374 408.688 28.2468 410.301 32.6249C411.017 34.3752 412.245 35.8688 413.824 36.9106C415.477 37.9407 417.397 38.4618 419.344 38.409H419.345ZM73.9906 0.786011V50.9309H124.134V0.786011H73.9906ZM108.959 36.1745C108.031 37.4397 106.76 38.4119 105.296 38.9758C103.474 39.6756 101.533 40.0105 99.5816 39.9614H88.3438V11.7556H98.9289C102.048 11.7556 104.464 12.3802 106.178 13.6293C107.021 14.2422 107.697 15.0556 108.146 15.996C108.594 16.9363 108.801 17.9738 108.748 19.0144C108.778 20.2417 108.459 21.4523 107.828 22.5051C107.165 23.534 106.219 24.3493 105.104 24.8525C106.62 25.3037 107.956 26.2219 108.92 27.4763C109.825 28.746 110.29 30.277 110.244 31.8356C110.285 33.3814 109.835 34.9004 108.959 36.1745ZM101.786 22.3873C102.176 22.0577 102.485 21.6422 102.688 21.1734C102.891 20.7046 102.983 20.1952 102.956 19.685C102.956 17.4495 101.435 16.3317 98.3924 16.3317H94.0576V23.3533H98.3916C99.6009 23.4361 100.801 23.0945 101.786 22.3873ZM99.1211 27.7715H94.0576V35.3861H99.0434C100.428 35.472 101.806 35.1348 102.994 34.4193C103.442 34.1119 103.804 33.6951 104.046 33.2084C104.287 32.7217 104.4 32.1813 104.374 31.6385C104.374 29.0611 102.624 27.7721 99.1211 27.7715ZM136.671 0.786822V50.9309H186.815V0.786011L136.671 0.786822ZM171.639 36.1745C170.711 37.4397 169.44 38.4119 167.976 38.9758C166.154 39.6756 164.213 40.0105 162.262 39.9614H151.024V11.7556H161.61C164.729 11.7556 167.145 12.3802 168.859 13.6293C169.701 14.2423 170.377 15.0558 170.826 15.9961C171.275 16.9364 171.481 17.9739 171.428 19.0144C171.458 20.2417 171.139 21.4523 170.507 22.5051C169.845 23.534 168.899 24.3493 167.784 24.8525C169.3 25.3037 170.636 26.2219 171.6 27.4763C172.505 28.746 172.97 30.277 172.924 31.8356C172.965 33.3813 172.515 34.9003 171.639 36.1745ZM164.467 22.3873C164.857 22.0576 165.165 21.6421 165.368 21.1733C165.571 20.7045 165.663 20.1951 165.636 19.685C165.636 17.4495 164.115 16.3317 161.072 16.3317H156.738V23.3533H161.073C162.282 23.4361 163.483 23.0945 164.467 22.3873H164.467ZM161.801 27.7715H156.738V35.3861H161.724C163.109 35.472 164.486 35.1348 165.675 34.4193C166.123 34.112 166.485 33.6952 166.727 33.2085C166.969 32.7218 167.082 32.1814 167.056 31.6385C167.056 29.0611 165.304 27.7721 161.801 27.7715ZM199.35 50.9309H249.495V0.786011H199.35V50.9309ZM235.365 38.1743C234.085 38.8612 232.719 39.3748 231.304 39.7013C229.713 40.0811 228.082 40.2694 226.446 40.2623C224.373 40.2925 222.312 39.9586 220.355 39.276C218.639 38.6745 217.076 37.7043 215.776 36.4338C214.498 35.1487 213.52 33.5973 212.91 31.8904C212.221 29.9485 211.884 27.8992 211.915 25.8388C211.885 23.813 212.236 21.7997 212.95 19.9034C213.605 18.1908 214.623 16.6407 215.936 15.36C217.273 14.0744 218.867 13.0863 220.614 12.4606C222.575 11.7661 224.645 11.4254 226.725 11.4546C228.218 11.4468 229.708 11.6089 231.164 11.938C232.512 12.244 233.816 12.7182 235.046 13.3496V18.8401C233.954 18.1173 232.76 17.5633 231.503 17.197C230.196 16.8189 228.842 16.6303 227.482 16.6367C225.766 16.5868 224.064 16.9583 222.525 17.7188C221.182 18.4172 220.084 19.5104 219.38 20.8513C218.608 22.3979 218.232 24.1114 218.285 25.8388C218.234 27.5682 218.596 29.2847 219.34 30.8468C220.008 32.1909 221.08 33.2926 222.405 33.9981C223.915 34.759 225.592 35.1309 227.282 35.0802C230.138 35.0986 232.94 34.3077 235.365 32.7991V38.1743Z" fill="black"/>
</g>
<defs>
<clipPath id="clip0_5_202">
<rect width="512" height="165.214" fill="white" transform="translate(0 0.47522)"/>
</clipPath>
</defs>
</svg>
