<svg width="512" height="134" viewBox="0 0 512 134" fill="none" xmlns="http://www.w3.org/2000/svg">
<g clip-path="url(#clip0_5_210)">
<path d="M95.7296 1.08032V45.2205H139.87V1.08032H95.7296ZM126.291 32.2314C125.475 33.345 124.355 34.2007 123.067 34.6968C121.463 35.3133 119.754 35.6086 118.036 35.5658H108.144V10.7359H117.462C120.208 10.7359 122.335 11.2857 123.843 12.3852C124.585 12.9246 125.18 13.6406 125.575 14.4683C125.97 15.2961 126.153 16.2093 126.105 17.1253C126.132 18.206 125.851 19.2721 125.294 20.199C124.712 21.1044 123.879 21.8219 122.898 22.2649C124.233 22.6619 125.408 23.4698 126.257 24.5736C127.054 25.6914 127.463 27.0393 127.422 28.4114C127.458 29.7722 127.062 31.1096 126.291 32.2314ZM119.978 20.0942C120.321 19.804 120.593 19.4384 120.772 19.0257C120.95 18.6131 121.031 18.1647 121.008 17.7156C121.008 15.7483 119.668 14.7643 116.989 14.7638H113.174V20.9452H116.989C118.054 21.0181 119.111 20.7171 119.978 20.0942ZM117.631 24.8342H113.175V31.5371H117.563C118.782 31.6126 119.995 31.3158 121.041 30.686C121.435 30.4154 121.754 30.0485 121.967 29.6199C122.18 29.1914 122.279 28.7155 122.256 28.2376C122.256 25.9693 120.715 24.8348 117.631 24.8342ZM150.905 1.08032V45.2205H195.047V1.08032H150.905ZM181.467 32.2314C180.65 33.345 179.531 34.2007 178.243 34.6968C176.639 35.3133 174.93 35.6086 173.212 35.5658H163.32V10.7359H172.639C175.384 10.7359 177.511 11.2857 179.019 12.3852C179.761 12.9247 180.356 13.6408 180.751 14.4685C181.146 15.2962 181.328 16.2094 181.281 17.1253C181.308 18.2059 181.027 19.272 180.471 20.199C179.888 21.1045 179.056 21.822 178.074 22.2649C179.409 22.6619 180.584 23.4698 181.433 24.5736C182.23 25.6913 182.639 27.0392 182.598 28.4114C182.635 29.7723 182.239 31.1097 181.467 32.2314ZM175.154 20.0942C175.497 19.804 175.769 19.4384 175.947 19.0257C176.126 18.6131 176.207 18.1647 176.183 17.7156C176.183 15.7483 174.844 14.7643 172.166 14.7638H168.351V20.9452H172.166C173.23 21.0179 174.287 20.7169 175.154 20.0942ZM172.807 24.8342H168.351V31.5371H172.739C173.958 31.6126 175.171 31.3158 176.217 30.686C176.611 30.4154 176.93 30.0485 177.143 29.6199C177.356 29.1914 177.455 28.7155 177.432 28.2376C177.432 25.9693 175.89 24.8348 172.806 24.8342H172.807ZM206.081 45.2205H250.222V1.08032H206.081V45.2205ZM237.784 33.9914C236.657 34.5962 235.455 35.0483 234.209 35.3358C232.809 35.6701 231.373 35.836 229.933 35.8299C228.109 35.8562 226.294 35.5621 224.571 34.9609C223.062 34.4315 221.686 33.5778 220.542 32.4597C219.416 31.3285 218.554 29.9628 218.018 28.46C217.411 26.7505 217.115 24.9466 217.142 23.133C217.116 21.3497 217.425 19.5774 218.053 17.9082C218.63 16.4009 219.527 15.0365 220.681 13.9093C221.859 12.7773 223.262 11.9072 224.8 11.3561C226.526 10.745 228.347 10.4453 230.179 10.471C231.493 10.4642 232.804 10.6071 234.086 10.8969C235.273 11.1661 236.421 11.5834 237.503 12.139V16.9728C236.542 16.3364 235.491 15.8487 234.385 15.5262C233.234 15.1931 232.042 15.0267 230.845 15.0321C229.334 14.9886 227.836 15.3162 226.481 15.9863C225.299 16.6007 224.333 17.5624 223.713 18.7422C223.034 20.1038 222.703 21.6123 222.75 23.133C222.706 24.6551 223.024 26.1659 223.679 27.5408C224.267 28.7241 225.21 29.6941 226.377 30.3154C227.706 30.9853 229.182 31.3127 230.67 31.2679C233.183 31.2839 235.65 30.5877 237.784 29.2599V33.9914ZM274.954 27.672V39.7061H267.919V6.61181H279.999C284.35 6.61181 287.691 7.52221 290.02 9.34304C292.35 11.1639 293.514 13.7713 293.515 17.1653C293.603 19.1253 293.074 21.0634 292.003 22.7072C290.932 24.351 289.372 25.6178 287.544 26.3293C288.933 28.521 290.306 30.7195 291.664 32.9249C293.021 35.1319 294.379 37.3923 295.737 39.7061H287.544C285.322 35.6328 283.023 31.6214 280.648 27.672H274.954ZM274.954 22.0715H279.583C281.329 22.1841 283.07 21.773 284.582 20.8907C285.161 20.4674 285.623 19.9029 285.923 19.2508C286.222 18.5987 286.35 17.8808 286.294 17.1653C286.349 16.449 286.223 15.7304 285.928 15.0755C285.633 14.4206 285.178 13.8502 284.605 13.4169C283.108 12.517 281.372 12.0969 279.63 12.2131H274.954V22.0715ZM323.831 39.7061C323.029 37.2691 322.226 34.8777 321.425 32.5321H308.001C307.198 34.9084 306.396 37.2997 305.594 39.7061H297.957C300.055 33.9051 302.192 28.2427 304.367 22.7189C306.543 17.1963 308.741 11.8272 310.963 6.61181H318.647C320.93 12.1049 323.16 17.6208 325.335 23.1594C327.51 28.6985 329.616 34.2141 331.653 39.7061H323.831ZM310.039 26.6071H319.342C318.601 24.4477 317.837 22.2955 317.05 20.1504C316.263 18.0064 315.484 15.9005 314.713 13.8326C313.109 18.0604 311.551 22.3185 310.039 26.6071ZM335.68 6.61265H348.316C351.415 6.5258 354.488 7.19264 357.272 8.55587C359.7 9.79672 361.682 11.7624 362.942 14.1802C364.227 16.9836 364.89 20.0317 364.886 23.1155C364.882 26.1992 364.211 29.2456 362.92 32.0457C361.658 34.4798 359.678 36.4673 357.249 37.739C354.463 39.1232 351.379 39.7991 348.27 39.7069H335.68V6.61265ZM347.899 33.5962C350.985 33.5962 353.353 32.6937 355.004 30.8888C356.654 29.0839 357.48 26.4841 357.481 23.0895C357.481 19.7273 356.671 17.1585 355.05 15.3831C353.431 13.6088 351.062 12.7217 347.945 12.7217H342.808V33.5962H347.899ZM370.532 6.61181H377.66V39.7061H370.532V6.61181ZM399.738 5.91834C402.055 5.88518 404.356 6.29343 406.52 7.12124C408.477 7.88173 410.246 9.05838 411.703 10.5698C413.173 12.1236 414.3 13.9682 415.012 15.9846C416.555 20.6195 416.555 25.6294 415.012 30.2643C414.301 32.2947 413.174 34.1545 411.703 35.7251C410.251 37.2489 408.481 38.4342 406.519 39.1966C402.141 40.801 397.336 40.801 392.958 39.1966C390.996 38.4347 389.226 37.2497 387.773 35.7259C386.302 34.1553 385.175 32.2952 384.464 30.2643C382.921 25.6294 382.921 20.6195 384.464 15.9846C385.176 13.968 386.303 12.1234 387.773 10.5698C389.231 9.05807 391 7.88138 392.958 7.12124C395.121 6.29339 397.422 5.88515 399.738 5.91834ZM399.738 34.1985C401.453 34.2445 403.143 33.7856 404.599 32.8788C405.988 31.9613 407.068 30.6469 407.699 29.1066C409.118 25.2526 409.118 21.0193 407.699 17.1653C407.071 15.6293 405.99 14.3216 404.599 13.4169C403.12 12.5676 401.444 12.1206 399.738 12.1206C398.033 12.1206 396.357 12.5676 394.878 13.4169C393.487 14.321 392.405 15.6289 391.777 17.1653C390.358 21.0192 390.358 25.2527 391.777 29.1066C392.408 30.6472 393.489 31.9619 394.878 32.8788C396.334 33.7859 398.024 34.2448 399.738 34.1985Z" fill="black"/>
<path d="M22.1677 133.043C18.4816 133.044 14.8071 132.633 11.212 131.819C7.59309 131 4.09894 129.704 0.821263 127.965V114.985C7.22677 118.975 14.6211 121.093 22.1677 121.099C26.4306 121.099 29.6753 120.378 31.9016 118.935C32.9435 118.32 33.8023 117.437 34.3894 116.379C34.9765 115.321 35.2705 114.126 35.2411 112.916C35.2886 112.084 35.1672 111.251 34.8842 110.468C34.6012 109.684 34.1624 108.966 33.5944 108.356C32.3475 107.168 30.8542 106.269 29.2207 105.723C27.2162 105.008 25.1766 104.396 23.1099 103.889C19.7806 103.127 16.5118 102.121 13.3299 100.879C10.7673 99.8984 8.35989 98.5521 6.18236 96.8823C4.28794 95.4114 2.7721 93.5095 1.76093 91.3346C0.700963 88.8891 0.187524 86.2416 0.256449 83.5771C0.153356 79.6594 1.28857 75.809 3.50053 72.5738C5.81777 69.3813 8.99947 66.9179 12.6705 65.474C17.16 63.7136 21.9556 62.8664 26.7765 62.9821C30.3228 62.9791 33.8573 63.3891 37.3087 64.2038C40.5285 64.9389 43.6527 66.0432 46.6193 67.4947V80.2845C43.7057 78.5261 40.5542 77.196 37.2619 76.335C33.8445 75.4031 30.3186 74.9287 26.7765 74.9242C22.952 74.9242 19.9899 75.5825 17.8902 76.899C16.9028 77.466 16.088 78.2905 15.5328 79.2846C14.9777 80.2786 14.703 81.4049 14.7381 82.5429C14.6991 83.3054 14.8121 84.0681 15.0707 84.7866C15.3293 85.505 15.7282 86.1648 16.2443 86.7275C17.4576 87.8901 18.9216 88.7586 20.5235 89.2662C22.3721 89.9239 24.5505 90.5665 27.0585 91.1941C30.2554 92.0097 33.2332 92.9027 35.9917 93.8734C38.5848 94.7607 41.0389 96.0116 43.2806 97.5885C45.3588 99.0683 47.0387 101.039 48.1706 103.325C49.4064 106.004 50.0019 108.933 49.9102 111.882C50.0257 115.94 48.8755 119.934 46.6193 123.309C44.2452 126.615 40.9374 129.136 37.1204 130.549C32.3399 132.323 27.2651 133.169 22.1677 133.043V133.043ZM90.8174 133.043C85.9162 133.116 81.0421 132.303 76.4294 130.644C72.3574 129.169 68.6635 126.808 65.6144 123.732C62.5814 120.585 60.2708 116.814 58.8434 112.683C57.214 107.95 56.4184 102.971 56.4921 97.966C56.4214 93.0453 57.2503 88.153 58.9379 83.5303C60.4573 79.3778 62.8643 75.6067 65.9909 72.4801C69.1176 69.3535 72.8886 66.9465 77.0411 65.4271C81.6637 63.7409 86.5551 62.9124 91.4751 62.9821C95.0047 62.9627 98.5244 63.3573 101.962 64.1578C105.153 64.904 108.234 66.0579 111.13 67.591V80.9439C108.562 79.1905 105.739 77.8429 102.761 76.9484C99.6793 76.0286 96.4786 75.5688 93.2624 75.5836C89.2007 75.4647 85.1744 76.37 81.5545 78.216C78.3589 79.9384 75.7665 82.5968 74.125 85.8347C72.3001 89.6117 71.4129 93.7731 71.5386 97.966C71.4183 102.163 72.2718 106.331 74.0322 110.143C75.5893 113.389 78.1204 116.069 81.2726 117.808C84.8245 119.655 88.7905 120.561 92.7921 120.44C99.559 120.479 106.191 118.551 111.884 114.892V127.964C108.869 129.631 105.642 130.881 102.291 131.679C98.5368 132.602 94.6834 133.061 90.8174 133.043ZM152.225 62.983C156.931 62.9165 161.606 63.746 166.002 65.4271C169.979 66.9718 173.572 69.3624 176.534 72.4333C179.52 75.5902 181.811 79.3384 183.259 83.4357C186.393 92.8526 186.393 103.032 183.259 112.448C181.813 116.574 179.522 120.354 176.534 123.545C173.584 126.641 169.988 129.049 166.002 130.599C157.107 133.859 147.343 133.859 138.447 130.599C134.461 129.049 130.865 126.641 127.916 123.545C124.927 120.354 122.636 116.575 121.191 112.448C118.056 103.032 118.056 92.8526 121.191 83.4357C122.638 79.3381 124.929 75.5898 127.916 72.4333C130.877 69.3621 134.47 66.9714 138.447 65.4271C142.843 63.7457 147.519 62.9163 152.225 62.983ZM152.225 120.441C155.708 120.535 159.142 119.603 162.099 117.76C164.921 115.897 167.117 113.227 168.399 110.097C171.284 102.267 171.284 93.665 168.399 85.8347C167.124 82.7131 164.926 80.0552 162.1 78.216C159.094 76.4908 155.69 75.583 152.225 75.583C148.759 75.583 145.355 76.4908 142.35 78.216C139.522 80.0543 137.324 82.7125 136.05 85.8347C133.165 93.665 133.165 102.267 136.05 110.097C137.331 113.227 139.527 115.898 142.35 117.76C145.307 119.603 148.742 120.536 152.225 120.441ZM188.712 64.392H245.511V76.9944H224.352V131.632H209.87V76.9944H188.712V64.392ZM254.537 64.392H269.02V119.03H300.898V131.632H254.537V64.392ZM360.144 131.632C358.513 126.679 356.883 121.821 355.254 117.056H327.982C326.35 121.883 324.72 126.742 323.092 131.632H307.576C311.838 119.846 316.18 108.342 320.601 97.1191C325.02 85.8977 329.487 74.9887 334 64.392H349.612C354.251 75.5532 358.78 86.7599 363.2 98.012C367.62 109.266 371.899 120.473 376.038 131.633L360.144 131.632ZM332.12 105.018H351.022C349.517 100.631 347.966 96.2584 346.367 91.8995C344.769 87.5434 343.186 83.2648 341.618 79.0637C338.357 87.6532 335.191 96.305 332.119 105.019L332.12 105.018ZM426.16 131.632C421.271 123.795 416.318 115.942 411.302 108.075C406.287 100.208 401.334 92.5748 396.444 85.1762V131.632H382.526V64.392H397.196C402.275 71.9792 407.275 79.5811 412.196 87.1978C417.116 94.8156 422.022 102.542 426.913 110.378V64.392H440.832V131.632H426.16ZM452.303 64.392H477.977C485.059 64.392 491.125 65.7091 496.173 68.3432C501.106 70.8635 505.132 74.8565 507.693 79.7682C510.326 84.7536 511.642 90.788 511.642 97.8714C511.642 104.958 510.31 111.023 507.647 116.068C505.083 121.013 501.061 125.051 496.126 127.635C491.11 130.301 485.028 131.633 477.883 131.632H452.303V64.392ZM477.129 119.219C483.398 119.219 488.21 117.385 491.565 113.716C494.918 110.049 496.595 104.767 496.596 97.8714C496.596 91.039 494.95 85.8197 491.658 82.2132C488.367 78.6091 483.556 76.807 477.224 76.807H466.786V119.219H477.129Z" fill="#7826FC"/>
</g>
<defs>
<clipPath id="clip0_5_210">
<rect width="512" height="132.898" fill="white" transform="translate(0 0.633057)"/>
</clipPath>
</defs>
</svg>
