<svg width="512" height="185" viewBox="0 0 512 185" fill="none" xmlns="http://www.w3.org/2000/svg">
<g clip-path="url(#clip0_5_206)">
<path d="M116.631 0.718018V39.2192H155.132V0.718018H116.631ZM143.288 27.8898C142.576 28.8612 141.6 29.6076 140.476 30.0405C139.077 30.5779 137.586 30.8351 136.088 30.7974H127.46V9.14053H135.587C137.982 9.14053 139.837 9.62007 141.153 10.5792C141.8 11.0497 142.319 11.6744 142.664 12.3964C143.008 13.1184 143.167 13.915 143.126 14.7139C143.149 15.6563 142.904 16.5859 142.419 17.3942C141.91 18.1841 141.184 18.81 140.328 19.1964C141.493 19.5428 142.518 20.2478 143.259 21.211C143.954 22.186 144.31 23.3616 144.274 24.5583C144.306 25.7452 143.96 26.9115 143.288 27.8898H143.288ZM137.78 17.3036C138.08 17.0505 138.318 16.7315 138.474 16.3714C138.63 16.0114 138.7 15.6201 138.68 15.2282C138.68 13.5124 137.511 12.6543 135.175 12.6538H131.847V18.0454H135.175C136.103 18.109 137.025 17.8467 137.781 17.3036H137.78ZM135.734 21.4377H131.847V27.2834H135.675C136.738 27.3495 137.796 27.0909 138.709 26.5417C139.053 26.3057 139.331 25.9856 139.516 25.6118C139.702 25.2381 139.789 24.823 139.769 24.4062C139.769 22.4277 138.424 21.4382 135.735 21.4377H135.734ZM164.757 0.718018V39.2192H203.259V0.718018H164.757ZM191.415 27.8898C190.703 28.8612 189.726 29.6076 188.602 30.0405C187.203 30.5779 185.712 30.8351 184.214 30.7974H175.586V9.14053H183.714C186.108 9.14053 187.964 9.62007 189.279 10.5792C189.926 11.0497 190.446 11.6743 190.79 12.3963C191.135 13.1183 191.294 13.915 191.253 14.7139C191.276 15.6564 191.031 16.586 190.545 17.3942C190.037 18.1841 189.311 18.81 188.455 19.1964C189.619 19.5428 190.645 20.2478 191.385 21.211C192.08 22.186 192.437 23.3616 192.401 24.5583C192.432 25.7452 192.088 26.9115 191.415 27.8898ZM185.908 17.3036C186.207 17.0504 186.444 16.7313 186.6 16.3712C186.756 16.0112 186.826 15.62 186.805 15.2282C186.805 13.5124 185.637 12.6543 183.301 12.6538H179.974V18.0454H183.301C184.23 18.109 185.152 17.8467 185.908 17.3036ZM183.861 21.4377H179.974V27.2834H183.802C184.865 27.3495 185.923 27.0909 186.835 26.5417C187.179 26.3057 187.457 25.9856 187.643 25.6118C187.829 25.2381 187.916 24.823 187.896 24.4062C187.896 22.4277 186.551 21.4382 183.861 21.4377ZM212.885 39.2192H251.385V0.718018H212.884L212.885 39.2192ZM240.536 29.425C239.553 29.9524 238.505 30.3467 237.418 30.5974C236.197 30.8888 234.945 31.0334 233.689 31.028C232.097 31.0513 230.514 30.7951 229.011 30.271C227.695 29.8092 226.495 29.0644 225.497 28.0891C224.515 27.1024 223.763 25.9111 223.295 24.6002C222.766 23.1092 222.508 21.5359 222.531 19.9542C222.508 18.3988 222.778 16.853 223.325 15.3971C223.828 14.082 224.611 12.8917 225.618 11.9082C226.645 10.921 227.869 10.1621 229.21 9.68144C230.716 9.14851 232.305 8.88731 233.903 8.91002C235.049 8.90381 236.192 9.02811 237.311 9.28052C238.346 9.5155 239.347 9.87972 240.291 10.3646V14.5801C239.453 14.0251 238.536 13.5999 237.571 13.3187C236.568 13.0283 235.528 12.8833 234.484 12.8881C233.166 12.8499 231.859 13.1354 230.678 13.7196C229.646 14.2557 228.804 15.0946 228.263 16.1237C227.671 17.3115 227.382 18.6275 227.422 19.9542C227.384 21.2817 227.661 22.5993 228.232 23.7983C228.746 24.8304 229.568 25.6764 230.586 26.2184C231.745 26.8029 233.033 27.0887 234.331 27.0499C236.523 27.0637 238.674 26.4562 240.536 25.2978V29.425ZM272.958 23.9125V34.4096H266.821V5.5436H277.358C281.153 5.5436 284.066 6.33759 286.098 7.92558C288.13 9.51407 289.146 11.7883 289.147 14.7482C289.223 16.4578 288.762 18.1484 287.828 19.5822C286.893 21.016 285.533 22.1209 283.939 22.7416C285.15 24.6537 286.347 26.5714 287.532 28.4946C288.715 30.4193 289.9 32.391 291.084 34.4096H283.939C282.001 30.8568 279.996 27.3577 277.923 23.9125H272.958ZM272.958 19.0283H276.995C278.518 19.1262 280.036 18.7676 281.354 17.9982C281.86 17.629 282.263 17.1365 282.524 16.5676C282.786 15.9988 282.897 15.3724 282.848 14.7482C282.896 14.1234 282.786 13.4965 282.529 12.9252C282.271 12.3539 281.875 11.8564 281.375 11.4784C280.069 10.6936 278.555 10.3272 277.035 10.4285H272.958V19.0283ZM315.59 34.4096C314.889 32.2835 314.189 30.1975 313.49 28.1515H301.783C301.083 30.2243 300.383 32.3104 299.683 34.4096H293.023C294.853 29.35 296.717 24.411 298.615 19.5928C300.511 14.7756 302.429 10.0925 304.367 5.5436H311.069C313.06 10.3344 315.005 15.1453 316.903 19.9762C318.8 24.8076 320.636 29.6188 322.413 34.4096H315.59ZM303.559 22.9843H311.673C311.028 21.1006 310.361 19.2233 309.675 17.3523C308.989 15.4818 308.309 13.6448 307.636 11.8413C306.237 15.5295 304.878 19.2438 303.559 22.9843ZM325.924 5.5436H336.946C339.649 5.46811 342.33 6.05003 344.758 7.23936C346.875 8.32149 348.603 10.0356 349.703 12.1441C350.823 14.5894 351.402 17.2482 351.399 19.9381C351.395 22.6279 350.81 25.2853 349.683 27.7277C348.582 29.8506 346.856 31.584 344.738 32.6933C342.308 33.9007 339.617 34.4902 336.905 34.4096H325.924V5.5436ZM336.582 29.0804C339.273 29.0804 341.339 28.293 342.78 26.7182C344.219 25.1439 344.939 22.8765 344.94 19.9161C344.94 16.9826 344.233 14.7418 342.819 13.1939C341.407 11.647 339.341 10.8733 336.623 10.8728H332.142V29.0804H336.582ZM356.324 5.5436H362.541V34.4096H356.324V5.5436ZM381.798 4.93803C383.818 4.90938 385.826 5.26568 387.712 5.98789C389.42 6.65097 390.963 7.67709 392.235 8.99523C393.516 10.3508 394.499 11.9599 395.12 13.7189C396.466 17.7614 396.466 22.131 395.12 26.1735C394.5 27.9447 393.517 29.5672 392.235 30.9374C390.968 32.2665 389.424 33.3003 387.712 33.9653C383.894 35.3648 379.703 35.3648 375.884 33.9653C374.172 33.3005 372.629 32.2667 371.362 30.9374C370.079 29.5674 369.096 27.9449 368.476 26.1735C367.13 22.131 367.13 17.7614 368.476 13.7189C369.097 11.9598 370.08 10.3506 371.362 8.99523C372.634 7.6769 374.176 6.65076 375.884 5.98789C377.771 5.26557 379.778 4.90927 381.798 4.93803ZM381.798 29.6053C383.294 29.6455 384.768 29.2452 386.037 28.4543C387.249 27.6539 388.191 26.5074 388.742 25.1639C389.979 21.8025 389.979 18.1103 388.742 14.7489C388.194 13.4088 387.251 12.2678 386.037 11.4784C384.747 10.7377 383.286 10.3479 381.798 10.3479C380.311 10.3479 378.849 10.7377 377.559 11.4784C376.345 12.267 375.401 13.4079 374.854 14.7482C373.616 18.1097 373.616 21.8024 374.854 25.1639C375.404 26.5078 376.347 27.6545 377.559 28.4543C378.829 29.2454 380.303 29.6457 381.798 29.6053Z" fill="black"/>
<path d="M22.6656 127.093C18.9808 127.094 15.3074 126.684 11.7135 125.87C8.09565 125.051 4.60257 123.755 1.32595 122.016V109.041C7.72949 113.03 15.1215 115.147 22.6656 115.153C26.9275 115.153 30.1712 114.432 32.3967 112.99C33.4382 112.375 34.2968 111.493 34.8836 110.435C35.4704 109.377 35.7643 108.182 35.7349 106.973C35.7826 106.141 35.6614 105.308 35.3786 104.525C35.0958 103.741 34.6572 103.023 34.0894 102.414C32.8429 101.226 31.3502 100.327 29.7172 99.7813C27.7131 99.0668 25.6739 98.4548 23.6075 97.9479C20.2791 97.1859 17.0111 96.1805 13.83 94.9397C11.2682 93.9588 8.86162 92.6128 6.68484 90.9434C4.79126 89.4729 3.27614 87.5715 2.26551 85.3974C1.20572 82.9528 0.692175 80.3064 0.760702 77.6428C0.657769 73.7259 1.79293 69.8764 4.00464 66.642C6.32129 63.4507 9.50205 60.9882 13.1719 59.5448C17.6601 57.785 22.4542 56.9383 27.2736 57.054C30.8188 57.0509 34.3523 57.4607 37.8027 58.2751C41.0214 59.0101 44.1445 60.1142 47.11 61.5654V74.3517C44.1973 72.5939 41.0469 71.2641 37.7556 70.4033C34.3393 69.4717 30.8146 68.9974 27.2736 68.9928C23.4495 68.9928 20.488 69.6509 18.3893 70.967C17.4025 71.534 16.5881 72.3583 16.0333 73.352C15.4784 74.3456 15.2039 75.4714 15.239 76.6089C15.1998 77.3712 15.3126 78.1337 15.571 78.8519C15.8293 79.5701 16.228 80.2298 16.7438 80.7924C17.9568 81.9544 19.4203 82.8224 21.0216 83.3296C22.8698 83.9879 25.0476 84.6305 27.5551 85.2574C30.7509 86.073 33.728 86.9658 36.4866 87.9361C39.0787 88.8233 41.5318 90.0738 43.7725 91.6502C45.8504 93.1295 47.5301 95.0998 48.662 97.3856C49.8971 100.064 50.4923 102.992 50.4004 105.94C50.5156 109.997 49.3657 113.989 47.11 117.363C44.7369 120.668 41.4304 123.189 37.6148 124.602C33.4777 126.262 28.4947 127.093 22.6656 127.094V127.093ZM91.2957 127.093C86.3958 127.165 81.5231 126.353 76.9118 124.695C72.8411 123.22 69.1486 120.86 66.1004 117.785C63.0683 114.639 60.7583 110.869 59.3311 106.739C57.702 102.008 56.9066 97.0295 56.9803 92.026C56.9095 87.1066 57.7382 82.2157 59.4254 77.5941C60.9444 73.4427 63.3508 69.6727 66.4767 66.5469C69.6026 63.4212 73.3727 61.015 77.5242 59.4961C82.1454 57.8109 87.0354 56.9831 91.9538 57.0533C95.4821 57.0337 99.0007 57.4279 102.437 58.2279C105.627 58.9736 108.708 60.1268 111.603 61.659V75.0083C109.035 73.2555 106.213 71.9084 103.236 71.0142C100.155 70.0948 96.9552 69.6352 93.7401 69.6502C89.6795 69.5315 85.6543 70.4367 82.0356 72.2824C78.841 74.0039 76.2493 76.6612 74.6081 79.8977C72.8842 83.2213 72.0223 87.2641 72.0223 92.026C71.902 96.222 72.7554 100.389 74.5153 104.2C76.0718 107.445 78.6017 110.123 81.7526 111.862C85.3035 113.709 89.2685 114.615 93.2691 114.495C100.034 114.533 106.664 112.606 112.355 108.947V122.016C109.341 123.682 106.114 124.931 102.764 125.729C99.0115 126.652 95.1603 127.11 91.2957 127.093ZM152.685 57.0533C157.39 56.9866 162.065 57.8156 166.459 59.4961C170.435 61.0405 174.027 63.4304 176.988 66.5005C179.973 69.6566 182.263 73.4037 183.711 77.4998C186.844 86.914 186.844 97.0901 183.711 106.504C182.265 110.629 179.975 114.408 176.988 117.598C174.038 120.693 170.443 123.1 166.459 124.649C157.566 127.908 147.805 127.908 138.912 124.649C134.927 123.1 131.332 120.693 128.383 117.598C125.395 114.408 123.106 110.629 121.661 106.504C118.527 97.09 118.527 86.914 121.661 77.4998C123.108 73.4035 125.398 69.6563 128.383 66.5005C131.344 63.43 134.936 61.04 138.912 59.4961C143.307 57.8156 147.981 56.9865 152.685 57.0533ZM152.685 114.495C156.168 114.588 159.601 113.656 162.557 111.814C165.379 109.952 167.574 107.282 168.856 104.153C171.74 96.3256 171.74 87.7264 168.856 79.8985C167.581 76.7778 165.383 74.1208 162.557 72.2824C159.553 70.5579 156.149 69.6504 152.685 69.6504C149.221 69.6504 145.818 70.5579 142.814 72.2824C139.987 74.1197 137.789 76.7767 136.514 79.8977C133.631 87.7258 133.631 96.3254 136.514 104.153C137.796 107.283 139.991 109.953 142.814 111.814C145.77 113.657 149.203 114.589 152.685 114.495ZM189.161 58.4622H245.946V71.0606H224.793V125.683H210.315V71.0606H189.161V58.4622ZM254.969 58.4622H269.447V113.084H301.318V125.683H254.969V58.4622ZM360.546 125.683C358.915 120.732 357.285 115.874 355.657 111.11H328.392C326.761 115.937 325.132 120.794 323.504 125.683H307.992C312.253 113.9 316.594 102.399 321.013 91.1793C325.432 79.9614 329.897 69.0557 334.409 58.4622H350.015C354.653 69.6202 359.181 80.8236 363.601 92.0724C368.019 103.323 372.297 114.527 376.435 125.683L360.546 125.683ZM332.529 99.0768H351.427C349.921 94.6912 348.37 90.3193 346.772 85.9611C345.175 81.607 343.592 77.3296 342.025 73.1292C338.765 81.7163 335.6 90.3655 332.529 99.0768ZM426.543 125.683C421.655 117.848 416.704 109.997 411.689 102.131C406.675 94.2665 401.724 86.6359 396.835 79.2397V125.683H382.922V58.4622H397.587C402.664 66.0466 407.662 73.646 412.582 81.2603C417.502 88.8766 422.406 96.6018 427.295 104.436V58.4622H441.21V125.683H426.543ZM452.679 58.4622H478.345C485.426 58.4622 491.489 59.7786 496.535 62.4114C501.466 64.9311 505.491 68.9231 508.051 73.8336C510.684 78.8177 512 84.8504 512 91.9317C512 99.0155 510.669 105.079 508.006 110.122C505.443 115.066 501.423 119.103 496.489 121.687C491.473 124.352 485.394 125.684 478.251 125.683H452.679V58.4622ZM477.497 113.273C483.765 113.273 488.575 111.439 491.929 107.772C495.281 104.106 496.957 98.8253 496.958 91.9317C496.958 85.1009 495.313 79.883 492.022 76.278C488.732 72.675 483.922 70.8735 477.592 70.8735H467.157V113.273H477.497ZM166.697 144.945H193.19V151.838H174.989V160.184H191.144V167.076H174.989V176.554H194.214V183.447H166.697L166.697 144.945ZM224.314 183.447C222.985 181.041 221.603 178.654 220.168 176.285C218.732 173.915 217.26 171.564 215.753 169.231C214.209 171.599 212.719 173.969 211.283 176.339C209.848 178.708 208.484 181.077 207.191 183.447H197.552C199.707 180.108 201.879 176.787 204.068 173.485C206.257 170.182 208.536 166.861 210.906 163.522C208.752 160.472 206.652 157.384 204.607 154.26C202.56 151.138 200.568 148.033 198.629 144.945H208.484C209.667 147.063 210.879 149.172 212.118 151.272C213.356 153.373 214.64 155.446 215.967 157.492C217.26 155.481 218.534 153.426 219.791 151.326C221.048 149.226 222.268 147.099 223.453 144.945H233.092C231.117 148.033 229.115 151.12 227.087 154.207C225.059 157.294 222.986 160.363 220.867 163.415C223.165 166.717 225.427 170.038 227.654 173.376C229.879 176.715 232.051 180.072 234.168 183.447H224.314ZM235.73 144.945H268.254V152.161H256.138V183.447H247.846V152.161H235.73V144.945ZM280.1 169.446V183.447H271.915V144.945H285.97C291.031 144.945 294.917 146.004 297.628 148.122C300.337 150.241 301.693 153.274 301.694 157.222C301.796 159.502 301.18 161.757 299.934 163.67C298.688 165.582 296.874 167.056 294.747 167.884C296.363 170.433 297.96 172.991 299.54 175.557C301.119 178.124 302.699 180.754 304.279 183.447H294.746C292.162 178.708 289.488 174.041 286.724 169.446H280.1ZM280.1 162.93H285.484C288.034 162.93 289.972 162.472 291.301 161.557C292.628 160.642 293.292 159.197 293.294 157.222C293.357 156.389 293.211 155.553 292.867 154.791C292.524 154.029 291.995 153.365 291.328 152.861C290.016 151.928 288.087 151.461 285.538 151.461H280.1V162.93ZM336.964 183.447C336.029 180.61 335.096 177.828 334.164 175.099H318.547C317.613 177.865 316.68 180.647 315.747 183.447H306.862C309.303 176.697 311.789 170.11 314.32 163.685C316.851 157.259 319.409 151.012 321.993 144.945H330.932C333.589 151.335 336.183 157.752 338.713 164.195C341.244 170.639 343.694 177.057 346.063 183.447H336.964ZM320.917 168.207H331.74C330.879 165.695 329.99 163.191 329.074 160.696C328.159 158.201 327.253 155.751 326.355 153.345C324.488 158.264 322.675 163.218 320.917 168.207Z" fill="#7826FC"/>
</g>
<defs>
<clipPath id="clip0_5_206">
<rect width="512" height="184.107" fill="white" transform="translate(0 0.0288086)"/>
</clipPath>
</defs>
</svg>
