<svg width="512" height="130" viewBox="0 0 512 130" fill="none" xmlns="http://www.w3.org/2000/svg">
<g clip-path="url(#clip0_5_218)">
<path d="M22.9374 129.521C19.1836 129.522 15.4413 129.105 11.7799 128.277C8.094 127.443 4.53541 126.122 1.19749 124.349V111.133C7.721 115.197 15.2517 117.353 22.9374 117.359C27.2786 117.359 30.5827 116.624 32.8497 115.156C33.9107 114.529 34.7852 113.631 35.3829 112.553C35.9807 111.476 36.2801 110.258 36.2502 109.026C36.2989 108.179 36.1755 107.331 35.8874 106.532C35.5993 105.734 35.1525 105.002 34.5739 104.381C33.3038 103.172 31.7833 102.256 30.1201 101.7C28.0781 100.972 26.0005 100.348 23.8951 99.8313C20.5042 99.0552 17.1749 98.0307 13.9343 96.7662C11.3248 95.7668 8.8732 94.3961 6.65522 92.6965C4.72736 91.1976 3.18446 89.2608 2.15441 87.0467C1.07551 84.5559 0.552904 81.8597 0.623033 79.1462C0.517437 75.1556 1.6737 71.2335 3.92713 67.9385C6.28733 64.6882 9.52673 62.1797 13.2642 60.708C17.8365 58.9163 22.72 58.0536 27.6295 58.1704C31.2418 58.1674 34.8421 58.5853 38.3576 59.4157C41.6368 60.1639 44.8186 61.2887 47.8396 62.7676V75.792C44.8719 74.0018 41.6622 72.6475 38.309 71.7708C34.8285 70.8209 31.2373 70.3373 27.6295 70.3327C23.735 70.3327 20.7185 71.0035 18.58 72.3452C17.5748 72.9226 16.7452 73.7623 16.18 74.7745C15.6147 75.7866 15.3351 76.9334 15.3708 78.0921C15.3307 78.8687 15.4457 79.6454 15.7088 80.3771C15.972 81.1088 16.3782 81.7808 16.9037 82.3539C18.1396 83.5377 19.6305 84.4222 21.2619 84.9393C23.1443 85.6102 25.3625 86.2648 27.9163 86.9033C31.1744 87.733 34.2076 88.6423 37.0159 89.6314C39.6564 90.536 42.1554 91.8101 44.4384 93.4159C46.5556 94.9219 48.2672 96.9285 49.4203 99.2568C50.6786 101.985 51.2853 104.969 51.1923 107.972C51.3095 112.105 50.1377 116.171 47.8396 119.608C45.421 122.975 42.0522 125.544 38.1648 126.984C33.9511 128.675 28.8753 129.521 22.9374 129.521ZM104.537 128.085V98.6824H74.7505V128.085H60.0027V59.6069H74.7505V85.8492H104.537V59.6069H119.286V128.085H104.537ZM131.352 59.6069H178.471V71.8671H146.1V86.7105H174.832V98.9708H146.1V115.827H180.293V128.085H131.352V59.6069ZM185.559 59.6069H243.406V72.4416H221.858V128.085H207.109V72.4416H185.56L185.559 59.6069ZM250.875 59.6069H265.623V115.251H298.091V128.085H250.875V59.6069ZM357.088 128.085C355.426 123.042 353.766 118.094 352.107 113.241H324.333C322.672 118.158 321.013 123.105 319.354 128.085H303.549C307.891 116.081 312.313 104.366 316.815 92.937C321.316 81.508 325.866 70.398 330.464 59.6069H346.36C351.085 70.9717 355.698 82.3847 360.2 93.8461C364.701 105.307 369.059 116.72 373.274 128.085H357.088ZM328.547 100.981H347.798C346.266 96.5128 344.685 92.0595 343.056 87.6212C341.429 83.1838 339.817 78.8257 338.221 74.5467C334.9 83.2959 331.675 92.1073 328.547 100.981ZM423.937 128.085C418.957 120.104 413.913 112.107 408.805 104.094C403.695 96.0823 398.651 88.3087 393.672 80.7732V128.085H379.499V59.6069H394.439C399.61 67.3332 404.702 75.0749 409.715 82.832C414.727 90.5911 419.723 98.4606 424.703 106.44V59.6069H438.877V128.085L423.937 128.085ZM450.945 59.6069H477.09C484.305 59.6069 490.482 60.9478 495.621 63.6296C500.645 66.1964 504.746 70.263 507.354 75.2653C510.036 80.3432 511.376 86.489 511.377 93.7027C511.377 100.919 510.02 107.096 507.306 112.235C504.695 117.271 500.6 121.384 495.575 124.016C490.465 126.73 484.272 128.087 476.995 128.085H450.945V59.6069ZM476.229 115.443C482.612 115.443 487.512 113.575 490.929 109.841C494.344 106.106 496.052 100.727 496.053 93.7027C496.053 86.7444 494.377 81.4291 491.026 77.7567C487.673 74.0848 482.773 72.2488 476.324 72.2488H465.693V115.443H476.229Z" fill="#7826FC"/>
<path d="M272.898 24.3667V35.0663H266.643V5.64172H277.384C281.252 5.64172 284.222 6.45137 286.294 8.07065C288.364 9.68992 289.4 12.0081 289.4 15.0251C289.478 16.7677 289.008 18.491 288.056 19.9526C287.103 21.4141 285.717 22.5404 284.091 23.1731C285.326 25.1214 286.547 27.0763 287.754 29.038C288.961 30.9996 290.168 33.0091 291.376 35.0663H284.091C282.116 31.4453 280.072 27.8788 277.96 24.3667H272.898ZM272.898 19.3871H277.014C278.566 19.4873 280.113 19.1222 281.457 18.3384C281.973 17.962 282.383 17.4599 282.65 16.8799C282.917 16.2999 283.03 15.6614 282.98 15.0251C283.029 14.3881 282.917 13.7491 282.655 13.1666C282.392 12.5842 281.988 12.077 281.478 11.6917C280.147 10.8918 278.604 10.5186 277.054 10.6222H272.898L272.898 19.3871ZM316.355 35.0663C315.642 32.8996 314.928 30.7734 314.215 28.6879H302.28C301.567 30.8007 300.854 32.9268 300.141 35.0663H293.351C295.216 29.9088 297.116 24.8746 299.05 19.9638C300.985 15.0531 302.94 10.2793 304.915 5.6425H311.746C313.776 10.526 315.758 15.4301 317.693 20.3548C319.627 25.2794 321.499 30.1835 323.31 35.0671L316.355 35.0663ZM304.092 23.4206H312.363C311.705 21.5006 311.026 19.5871 310.326 17.6799C309.627 15.7728 308.934 13.9 308.248 12.0618C306.821 15.8211 305.436 19.6079 304.092 23.4206ZM326.89 5.6425H338.124C340.88 5.56522 343.613 6.15821 346.088 7.3705C348.247 8.47373 350.009 10.2213 351.129 12.371C352.272 14.8635 352.861 17.5737 352.858 20.3154C352.854 23.0572 352.257 25.7658 351.109 28.2553C349.987 30.4195 348.227 32.1867 346.067 33.3175C343.59 34.5479 340.848 35.1486 338.083 35.0663H326.89V5.6425ZM337.754 29.6348C340.497 29.6348 342.603 28.8321 344.072 27.2267C345.539 25.6218 346.273 23.3106 346.273 20.2931C346.273 17.3028 345.553 15.0186 344.113 13.4405C342.672 11.8634 340.566 11.0748 337.795 11.0748H333.228V29.6348H337.754ZM357.877 5.6425H364.216V35.0671H357.877V5.6425ZM383.845 5.02563C385.904 4.99618 387.951 5.35915 389.874 6.09513C391.615 6.77113 393.187 7.8172 394.484 9.16096C395.79 10.5426 396.792 12.1828 397.425 13.9756C398.797 18.0964 398.797 22.5507 397.425 26.6715C396.793 28.4771 395.791 30.131 394.484 31.5278C393.192 32.8824 391.619 33.9359 389.874 34.6137C385.982 36.0403 381.709 36.0403 377.817 34.6137C376.072 33.9362 374.498 32.8826 373.207 31.5278C371.899 30.1312 370.897 28.4773 370.265 26.6715C368.893 22.5507 368.893 18.0964 370.265 13.9756C370.898 12.1826 371.9 10.5424 373.207 9.16096C374.503 7.81701 376.076 6.77091 377.817 6.09513C379.74 5.35886 381.786 4.99639 383.845 5.02563ZM383.845 30.1691C385.369 30.2105 386.872 29.8029 388.166 28.9971C389.401 28.1813 390.362 27.0125 390.924 25.6429C392.185 22.2161 392.185 18.4519 390.924 15.0251C390.365 13.6591 389.403 12.4961 388.166 11.6917C386.851 10.9365 385.361 10.5391 383.845 10.5391C382.329 10.5391 380.839 10.9365 379.524 11.6917C378.287 12.4958 377.325 13.6589 376.767 15.0251C375.505 18.4518 375.505 22.2162 376.767 25.6429C377.328 27.0127 378.289 28.1817 379.524 28.9971C380.818 29.8032 382.321 30.2108 383.845 30.1691ZM113.546 0.723755V39.9696H152.793V0.723755H113.546ZM140.915 28.4211C140.189 29.4109 139.194 30.1715 138.048 30.6125C136.622 31.1604 135.103 31.4226 133.576 31.3844H124.78V9.30823H133.065C135.507 9.30823 137.398 9.79711 138.739 10.7748C139.398 11.2545 139.928 11.8912 140.279 12.6272C140.63 13.3632 140.792 14.1752 140.75 14.9896C140.774 15.9504 140.524 16.8982 140.03 17.7223C139.511 18.5274 138.771 19.1653 137.898 19.559C139.085 19.9123 140.13 20.6308 140.885 21.6124C141.593 22.6062 141.957 23.8046 141.92 25.0245C141.953 26.2343 141.601 27.4231 140.915 28.4203V28.4211ZM135.301 17.6298C135.607 17.3718 135.849 17.0466 136.008 16.6797C136.166 16.3127 136.238 15.914 136.217 15.5147C136.217 13.7654 135.027 12.8904 132.645 12.8899H129.252V18.3862H132.645C133.592 18.4508 134.531 18.1833 135.301 17.6298ZM133.216 21.8438H129.253V27.8035H133.155C134.238 27.8708 135.317 27.607 136.247 27.047C136.598 26.8065 136.881 26.4802 137.07 26.0992C137.26 25.7182 137.348 25.2952 137.328 24.8703C137.328 22.8531 135.957 21.8443 133.216 21.8438ZM162.604 0.723755V39.9696H201.851V0.723755H162.604ZM189.973 28.4211C189.247 29.4109 188.252 30.1715 187.106 30.6125C185.68 31.1604 184.161 31.4226 182.634 31.3844H173.839V9.30823H182.123C184.565 9.30823 186.456 9.79711 187.797 10.7748C188.456 11.2545 188.986 11.8912 189.337 12.6272C189.688 13.3632 189.85 14.1752 189.808 14.9896C189.832 15.9504 189.582 16.8982 189.088 17.7223C188.569 18.5274 187.829 19.1653 186.956 19.559C188.143 19.9123 189.188 20.6308 189.943 21.6124C190.651 22.6062 191.015 23.8046 190.978 25.0245C191.011 26.2343 190.659 27.4231 189.973 28.4203V28.4211ZM184.359 17.6298C184.665 17.3718 184.907 17.0466 185.065 16.6797C185.224 16.3127 185.296 15.914 185.275 15.5147C185.275 13.7654 184.085 12.8904 181.703 12.8899H178.311V18.3862H181.703C182.649 18.4508 183.589 18.1833 184.359 17.6298ZM182.274 21.8438H178.311V27.8035H182.213C183.296 27.8708 184.375 27.607 185.305 27.047C185.656 26.8065 185.939 26.4802 186.128 26.0992C186.317 25.7182 186.406 25.2952 186.386 24.8703C186.386 22.8531 185.015 21.8443 182.274 21.8438ZM211.662 39.9696H250.909V0.723755H211.662V39.9696ZM239.849 29.9856C238.847 30.5233 237.778 30.9253 236.67 31.1808C235.425 31.4781 234.149 31.6257 232.869 31.6203C231.247 31.644 229.633 31.3828 228.101 30.8485C226.759 30.3776 225.536 29.6183 224.518 28.6239C223.518 27.6181 222.751 26.4038 222.274 25.0677C221.735 23.5478 221.471 21.9441 221.496 20.3317C221.472 18.746 221.747 17.1701 222.305 15.6859C222.818 14.3453 223.616 13.132 224.643 12.1296C225.69 11.1235 226.937 10.3501 228.304 9.86033C229.839 9.31705 231.459 9.05074 233.087 9.07382C234.256 9.06752 235.422 9.19428 236.562 9.45166C237.617 9.69118 238.637 10.0624 239.6 10.5566V14.8539C238.745 14.288 237.81 13.8544 236.826 13.5677C235.804 13.2715 234.744 13.1235 233.679 13.1282C232.336 13.0895 231.004 13.3807 229.8 13.9764C228.748 14.5229 227.889 15.3783 227.338 16.4277C226.734 17.6383 226.44 18.9795 226.481 20.3317C226.442 21.6849 226.725 23.028 227.307 24.2503C227.83 25.3026 228.669 26.1652 229.706 26.7178C230.888 27.3133 232.201 27.6043 233.524 27.5644C235.758 27.5786 237.951 26.9594 239.849 25.7786V29.9856Z" fill="black"/>
</g>
<defs>
<clipPath id="clip0_5_218">
<rect width="512" height="129.542" fill="white" transform="translate(0 0.351318)"/>
</clipPath>
</defs>
</svg>
