<svg width="512" height="185" viewBox="0 0 512 185" fill="none" xmlns="http://www.w3.org/2000/svg">
<g clip-path="url(#clip0_5_226)">
<path d="M53.4888 0.572632V56.3501H109.266V0.572632H53.4888ZM92.0583 39.9051C91.0411 41.3461 89.6 42.3634 87.9894 43.0415C85.955 43.8044 83.8358 44.2283 81.6318 44.1435H69.1709V12.7792H80.9537C84.4292 12.7792 87.1417 13.4574 89.0066 14.8985C90.8715 16.2547 91.9735 18.5435 91.8888 20.917C91.8888 22.2733 91.5497 23.6296 90.8715 24.8163C90.1086 25.9183 89.0914 26.8508 87.8199 27.4442C89.5153 27.9528 90.9563 28.97 92.0583 30.3263C93.0755 31.7673 93.5841 33.4627 93.4994 35.1581C93.5841 36.8534 93.0755 38.5488 92.0583 39.9051ZM84.0901 24.562C84.9378 23.7991 85.4464 22.6971 85.3616 21.5952C85.3616 19.1369 83.6662 17.8653 80.2755 17.8653H75.4437V25.664H80.2755C81.7166 25.7488 82.9881 25.4097 84.0901 24.562ZM81.1232 30.5806H75.5285V39.0574H81.0384C82.5643 39.1422 84.0901 38.8031 85.4464 37.9554C86.4636 37.2773 87.057 36.0905 86.9722 34.9038C86.9722 32.0216 85.0225 30.5806 81.1232 30.5806ZM123.168 0.572632V56.3501H178.946V0.572632H123.168ZM161.823 39.9051C160.805 41.3461 159.364 42.3634 157.754 43.0415C155.719 43.8044 153.6 44.2283 151.396 44.1435H138.935V12.7792H150.718C154.193 12.7792 156.906 13.4574 158.771 14.8985C160.636 16.2547 161.738 18.5435 161.653 20.917C161.653 22.2733 161.314 23.6296 160.636 24.8163C159.873 25.9183 158.856 26.8508 157.584 27.4442C159.279 27.9528 160.721 28.97 161.823 30.3263C162.84 31.7673 163.348 33.4627 163.264 35.1581C163.264 36.8534 162.755 38.5488 161.823 39.9051ZM153.854 24.562C154.702 23.7991 155.211 22.6971 155.126 21.5952C155.126 19.1369 153.43 17.8653 150.04 17.8653H145.208V25.664H150.04C151.396 25.7488 152.752 25.4097 153.854 24.562ZM150.887 30.5806H145.293V39.0574H150.803C152.328 39.1422 153.854 38.8031 155.211 37.9554C156.228 37.2773 156.821 36.0905 156.736 34.9038C156.736 32.0216 154.787 30.5806 150.887 30.5806ZM192.932 56.3501H248.71V0.572632H192.932V56.3501ZM232.943 42.1938C231.502 42.9567 229.976 43.5501 228.45 43.8892C226.67 44.313 224.89 44.4826 223.025 44.4826C220.736 44.4826 218.448 44.1435 216.244 43.3806C214.294 42.7024 212.599 41.6004 211.158 40.2442C209.717 38.8031 208.615 37.1077 207.936 35.1581C207.174 33.0389 206.834 30.7501 206.834 28.4614C206.834 26.1726 207.174 23.9687 208.021 21.8495C208.784 19.9846 209.886 18.2044 211.327 16.7634C212.853 15.3223 214.548 14.2203 216.498 13.5422C218.702 12.7793 220.991 12.3554 223.279 12.4402C224.975 12.4402 226.585 12.6097 228.196 12.9488C229.722 13.2879 231.163 13.7965 232.519 14.5594V20.6627C231.332 19.8998 229.976 19.2216 228.62 18.7978C227.179 18.374 225.653 18.2044 224.127 18.2044C222.178 18.1197 220.313 18.5435 218.617 19.3912C217.091 20.1541 215.905 21.4256 215.142 22.8667C214.294 24.562 213.87 26.5117 213.955 28.3766C213.87 30.3263 214.294 32.1912 215.142 33.9713C215.905 35.4971 217.091 36.6839 218.532 37.4468C220.228 38.2945 222.093 38.7183 223.958 38.6336C227.094 38.6336 230.23 37.7859 232.943 36.0905V42.1938ZM279.905 34.1408V49.3144H271.004V7.52362H286.262C291.772 7.52362 296.011 8.71038 298.893 10.9991C301.86 13.2879 303.301 16.5938 303.301 20.917C303.555 26.0031 300.503 30.6653 295.756 32.5302C297.536 35.3276 299.232 38.0402 300.927 40.8375C302.623 43.6349 304.318 46.517 306.098 49.3991H295.841C293.044 44.2283 290.162 39.2269 287.11 34.2256L279.905 34.1408ZM279.905 27.1051H285.754C288.551 27.1051 290.585 26.5965 292.111 25.5793C293.637 24.4773 294.4 22.6971 294.315 20.8322C294.485 18.9673 293.637 17.1872 292.196 16.0852C290.755 15.068 288.636 14.5594 285.923 14.5594H279.989V27.1051H279.905ZM341.701 49.3991C340.683 46.3475 339.666 43.2958 338.649 40.3289H321.695C320.678 43.2958 319.661 46.3475 318.644 49.3991H308.98C311.608 42.1091 314.321 34.9038 317.118 27.9528C319.83 21.0018 322.628 14.2203 325.425 7.6084H335.174C338.056 14.5594 340.853 21.5104 343.65 28.5461C346.363 35.5819 349.076 42.5329 351.619 49.4839L341.701 49.3991ZM324.238 32.7846H336.021C335.089 30.072 334.156 27.3594 333.139 24.6468C332.122 21.9342 331.189 19.3064 330.172 16.6786C328.138 22.019 326.188 27.4442 324.238 32.7846ZM356.62 7.52362H372.556C376.456 7.43885 380.355 8.28654 383.83 9.98191C386.882 11.5077 389.425 14.0508 391.036 17.1024C392.731 20.5779 393.579 24.4773 393.494 28.3766C393.579 32.2759 392.731 36.1753 391.036 39.6508C389.425 42.7024 386.967 45.2455 383.83 46.8561C380.27 48.6362 376.456 49.4839 372.472 49.3144H356.535L356.62 7.52362ZM372.048 41.6852C375.947 41.6852 378.914 40.5832 381.033 38.2945C383.152 36.0057 384.17 32.6998 384.17 28.4614C384.17 24.223 383.152 21.0018 381.118 18.713C379.083 16.5091 376.117 15.3223 372.132 15.3223H365.605V41.6852H372.048ZM400.699 7.52362H409.685V49.3144H400.699V7.52362ZM437.574 6.67594C440.54 6.67594 443.423 7.18455 446.135 8.20177C448.593 9.13422 450.882 10.6601 452.662 12.525C454.527 14.4746 455.968 16.8481 456.816 19.3912C458.766 25.2402 458.766 31.5978 456.816 37.4468C455.883 39.9899 454.527 42.3634 452.662 44.313C450.797 46.2627 448.593 47.7038 446.135 48.721C440.625 50.7554 434.522 50.7554 429.012 48.721C426.554 47.7885 424.265 46.2627 422.485 44.313C420.62 42.3634 419.179 39.9899 418.331 37.4468C416.381 31.5978 416.381 25.2402 418.331 19.3912C419.264 16.8481 420.62 14.4746 422.485 12.525C424.35 10.5753 426.554 9.13422 429.012 8.20177C431.725 7.18455 434.607 6.67594 437.574 6.67594ZM437.574 42.4481C439.778 42.5329 441.897 41.9395 443.677 40.7528C445.457 39.566 446.813 37.9554 447.576 36.0057C449.356 31.174 449.356 25.7488 447.576 20.917C446.813 18.9673 445.457 17.3567 443.677 16.17C439.862 13.966 435.2 13.966 431.385 16.17C429.605 17.272 428.249 18.9673 427.486 20.917C425.706 25.7488 425.706 31.174 427.486 36.0057C428.249 37.9554 429.69 39.6508 431.385 40.7528C433.25 41.8547 435.37 42.4481 437.574 42.4481Z" fill="black"/>
<path d="M41.7907 183.926C33.0596 183.926 25.5152 182.231 19.3272 178.925C13.2238 175.704 8.13775 170.703 5.00133 164.514C1.69537 158.242 0 150.697 0 141.881V84.239H21.0225V144.255C21.0225 151.206 22.8026 156.461 26.4477 160.191C30.0079 163.921 35.1788 165.701 41.7907 165.701C48.4027 165.701 53.5735 163.836 57.1338 160.191C60.694 156.461 62.5589 151.206 62.5589 144.255V84.1542H83.5815V141.797C83.5815 150.612 81.8861 158.157 78.5801 164.514C75.3589 170.703 70.3576 175.704 64.1695 178.925C57.8967 182.231 50.4371 183.926 41.7907 183.926ZM99.094 84.1542H120.117V163.497H166.4V181.807H99.0093V84.1542H99.094ZM207.682 183.926C202.342 183.926 197.001 183.333 191.746 182.146C186.49 180.959 181.404 179.095 176.657 176.552V157.733C185.981 163.497 196.747 166.634 207.682 166.634C213.87 166.634 218.617 165.616 221.838 163.497C224.89 161.717 226.755 158.326 226.67 154.766C226.84 152.308 225.907 149.934 224.297 148.154C222.517 146.459 220.313 145.103 217.939 144.34C215.057 143.322 212.09 142.39 209.038 141.712C204.207 140.61 199.46 139.169 194.797 137.304C191.068 135.863 187.592 133.913 184.371 131.455C181.658 129.336 179.454 126.538 177.928 123.402C176.403 119.842 175.64 116.027 175.724 112.128C175.555 106.448 177.25 100.854 180.472 96.1065C183.862 91.4443 188.44 87.884 193.78 85.7648C199.544 83.3913 206.326 82.1198 214.294 82.1198C219.465 82.1198 224.551 82.7131 229.637 83.8999C234.299 85.0019 238.877 86.6125 243.2 88.6469V107.211C238.962 104.668 234.384 102.718 229.637 101.447C224.636 100.091 219.55 99.4125 214.379 99.4125C208.784 99.4125 204.546 100.345 201.494 102.295C198.612 103.99 196.832 107.126 196.917 110.517C196.832 112.721 197.595 114.925 199.121 116.62C200.901 118.316 203.02 119.587 205.309 120.35C208.021 121.283 211.158 122.215 214.803 123.148C219.465 124.334 223.788 125.606 227.772 127.047C231.502 128.318 235.147 130.183 238.368 132.472C241.42 134.591 243.793 137.473 245.489 140.779C247.269 144.679 248.117 148.917 248.032 153.24C248.032 159.683 246.421 165.277 243.285 169.855C240.064 174.432 235.486 177.993 229.468 180.366C223.364 182.74 216.159 183.926 207.682 183.926ZM254.305 84.1542H336.869V102.464H306.013V181.807H284.991V102.464H254.305V84.1542ZM347.719 84.1542H414.94V101.616H368.742V122.809H409.77V140.271H368.742V164.345H417.483V181.807H347.634V84.1542H347.719ZM450.458 146.374V181.892H429.69V84.1542H465.377C478.262 84.1542 488.095 86.8668 494.962 92.2072C501.828 97.5476 505.303 105.261 505.303 115.264C505.303 121.706 503.777 127.216 500.726 131.794C497.505 136.456 492.927 140.186 487.672 142.305C491.74 148.748 495.809 155.275 499.793 161.802C503.777 168.329 507.846 175.026 511.83 181.807H487.672C481.144 169.77 474.363 157.903 467.327 146.289L450.458 146.374ZM450.458 129.844H464.106C470.548 129.844 475.465 128.657 478.856 126.369C482.246 124.08 483.942 120.35 483.942 115.349C483.942 110.348 482.246 106.618 478.94 104.244C475.634 101.871 470.718 100.684 464.276 100.684H450.458V129.844Z" fill="#28A000"/>
</g>
<defs>
<clipPath id="clip0_5_226">
<rect width="512" height="183.947" fill="white" transform="translate(0 0.148804)"/>
</clipPath>
</defs>
</svg>
