<svg width="512" height="291" viewBox="0 0 512 291" fill="none" xmlns="http://www.w3.org/2000/svg">
<g clip-path="url(#clip0_6_234)">
<path d="M35.2084 0.72583V61.5544H96.0369V0.72583H35.2084ZM77.3242 43.6544C76.199 45.1888 74.6569 46.368 72.8813 47.0518C70.6713 47.9008 68.3159 48.3072 65.9492 48.2478H52.3164V14.0324H65.1573C68.9413 14.0324 71.8724 14.7899 73.9507 16.3048C74.973 17.0482 75.7936 18.035 76.3379 19.1758C76.8823 20.3165 77.1333 21.5751 77.0682 22.8374C77.1053 24.3264 76.718 25.7951 75.9517 27.0722C75.1485 28.3203 74.0012 29.3093 72.6484 29.9199C74.4877 30.4672 76.1075 31.5808 77.2772 33.1021C78.3751 34.6424 78.9389 36.4995 78.8826 38.3902C78.9328 40.2656 78.3872 42.1086 77.3242 43.6544ZM68.6241 26.9288C69.0973 26.5289 69.4717 26.0249 69.7178 25.4562C69.9639 24.8876 70.0752 24.2697 70.0429 23.6509C70.0429 20.9398 68.1974 19.584 64.5065 19.5835H59.2492V28.1016H64.5065C65.9736 28.202 67.4298 27.7868 68.6241 26.9288ZM65.3902 33.4607H59.2492V42.6967H65.2969C66.9762 42.8012 68.6476 42.3924 70.0892 41.5247C70.6328 41.1518 71.072 40.6461 71.3651 40.0557C71.6582 39.4652 71.7955 38.8096 71.7639 38.1512C71.7639 35.0247 69.6393 33.4612 65.3902 33.4607ZM111.244 0.72583V61.5544H172.073V0.72583H111.244ZM153.359 43.6544C152.234 45.1888 150.692 46.368 148.916 47.0518C146.706 47.9008 144.351 48.3072 141.984 48.2478H128.352V14.0324H141.193C144.977 14.0324 147.908 14.7899 149.987 16.3048C151.009 17.0483 151.829 18.0352 152.373 19.1759C152.918 20.3166 153.169 21.5752 153.103 22.8374C153.14 24.3264 152.753 25.7951 151.987 27.0722C151.184 28.3203 150.036 29.3093 148.683 29.9199C150.523 30.4671 152.143 31.5807 153.313 33.1021C154.411 34.6424 154.975 36.4995 154.918 38.3902C154.968 40.2657 154.423 42.1087 153.359 43.6544ZM144.659 26.9296C145.133 26.5296 145.507 26.0254 145.753 25.4566C145.999 24.8879 146.11 24.2698 146.078 23.6509C146.078 20.9398 144.233 19.584 140.542 19.5835H135.284V28.1016H140.542C142.009 28.202 143.465 27.7875 144.659 26.9296ZM141.426 33.4607H135.284V42.6967H141.333C143.012 42.8012 144.683 42.3924 146.125 41.5247C146.669 41.1518 147.108 40.6461 147.401 40.0557C147.694 39.4652 147.831 38.8096 147.8 38.1512C147.8 35.0247 145.675 33.4612 141.426 33.4607ZM187.28 61.5544H248.109V0.72583H187.28V61.5544ZM230.967 46.0795C229.415 46.913 227.758 47.5362 226.041 47.9324C224.111 48.3928 222.133 48.6211 220.149 48.6125C217.635 48.6493 215.134 48.2445 212.76 47.4165C210.679 46.6869 208.783 45.5102 207.206 43.969C205.655 42.4101 204.467 40.5281 203.728 38.4573C202.892 36.1017 202.483 33.6158 202.521 31.1166C202.485 28.6589 202.911 26.2165 203.777 23.9162C204.572 21.8389 205.808 19.9587 207.399 18.4053C209.021 16.8453 210.955 15.6463 213.074 14.8868C215.453 14.0448 217.963 13.632 220.487 13.6677C222.298 13.6581 224.105 13.8547 225.872 14.2537C227.507 14.6247 229.089 15.1998 230.581 15.9655V22.6262C229.257 21.7492 227.807 21.0772 226.282 20.6329C224.697 20.1741 223.055 19.9451 221.404 19.9528C219.323 19.8926 217.258 20.3437 215.392 21.2667C213.762 22.1139 212.43 23.4397 211.576 25.0659C210.641 26.9422 210.184 29.021 210.248 31.1166C210.187 33.2143 210.626 35.2964 211.528 37.1912C212.34 38.8215 213.64 40.1577 215.247 41.0134C217.079 41.9368 219.113 42.3884 221.163 42.3274C224.627 42.3494 228.026 41.3896 230.967 39.5592V46.0795ZM282.191 37.3708V53.9546H272.495V8.34954H289.143C295.139 8.34954 299.742 9.60384 302.952 12.1124C306.162 14.6221 307.767 18.2153 307.767 22.8922C307.888 25.5931 307.16 28.264 305.684 30.5293C304.208 32.7945 302.059 34.5403 299.54 35.521C301.453 38.5411 303.346 41.5709 305.217 44.6106C307.087 47.6512 308.958 50.7659 310.829 53.9546H299.539C296.477 48.3416 293.31 42.8137 290.036 37.3708H282.191ZM282.191 29.6531H288.569C291.588 29.6531 293.884 29.1107 295.457 28.0261C297.03 26.9424 297.817 25.2311 297.817 22.8922C297.817 20.5543 297.041 18.8322 295.489 17.7259C293.936 16.6207 291.651 16.0681 288.633 16.0681H282.191V29.6531ZM349.545 53.9546C348.438 50.5962 347.333 47.3009 346.228 44.0685H327.732C326.625 47.343 325.52 50.6384 324.414 53.9546H313.891C316.782 45.961 319.726 38.1581 322.724 30.546C325.722 22.9354 328.752 15.5366 331.814 8.34954H342.401C345.547 15.919 348.62 23.5199 351.618 31.1521C354.615 38.7853 357.517 46.3861 360.325 53.9546H349.545ZM330.538 35.9035H343.358C342.337 32.9281 341.285 29.9625 340.201 27.0067C339.116 24.0514 338.042 21.149 336.98 18.2996C334.768 24.1259 332.621 29.9939 330.538 35.9035ZM365.873 8.34954H383.287C387.557 8.23024 391.792 9.14949 395.628 11.0283C398.974 12.7379 401.705 15.4462 403.442 18.7777C405.326 22.5898 406.246 26.806 406.121 31.0564C406.241 35.3302 405.31 39.5682 403.41 43.3984C401.671 46.7525 398.943 49.4911 395.596 51.2434C392.194 53.0514 388.07 53.9551 383.223 53.9546H365.873V8.34954ZM382.712 45.5351C386.963 45.5351 390.227 44.2913 392.503 41.8038C394.777 39.3163 395.914 35.7338 395.915 31.0564C395.915 26.4222 394.799 22.8822 392.567 20.4363C390.334 17.9914 387.07 16.769 382.775 16.769H375.696V45.5351H382.712ZM413.901 8.34954H423.725V53.9546H413.901V8.34954ZM454.149 7.3934C457.34 7.34788 460.511 7.91051 463.493 9.05123C466.19 10.0989 468.627 11.7201 470.637 13.8026C472.662 15.9443 474.215 18.4868 475.197 21.266C476.302 24.4319 476.842 27.7675 476.791 31.1204C476.837 34.4626 476.297 37.787 475.197 40.9433C474.216 43.7415 472.663 46.3045 470.637 48.4691C468.635 50.5688 466.196 52.2021 463.493 53.2529C457.459 55.464 450.838 55.464 444.805 53.2529C442.101 52.2025 439.661 50.5691 437.66 48.4691C435.634 46.3048 434.081 43.7416 433.1 40.9433C432 37.7868 431.46 34.4621 431.506 31.1197C431.455 27.7668 431.995 24.4311 433.1 21.2652C434.082 18.4861 435.635 15.9439 437.66 13.8026C439.669 11.7198 442.107 10.0986 444.805 9.05123C447.786 7.91033 450.957 7.34769 454.149 7.3934ZM454.149 46.364C456.511 46.4278 458.84 45.7958 460.846 44.5466C462.76 43.2821 464.249 41.4706 465.12 39.3479C466.164 36.7341 466.663 33.9342 466.586 31.1204C466.663 28.3064 466.164 25.5063 465.12 22.8922C464.254 20.7752 462.763 18.9728 460.846 17.7259C458.808 16.5556 456.499 15.9398 454.149 15.9398C451.799 15.9398 449.49 16.5556 447.452 17.7259C445.534 18.972 444.043 20.7747 443.178 22.8922C442.133 25.5059 441.634 28.3058 441.711 31.1197C441.633 33.9338 442.133 36.734 443.178 39.3479C444.048 41.4711 445.537 43.2829 447.452 44.5466C449.457 45.7963 451.786 46.4278 454.149 46.364Z" fill="black"/>
<path d="M90.6602 198.177C87.2921 186.195 83.9991 174.211 80.7811 162.226C77.56 150.246 74.4155 138.262 71.3476 126.276C68.3774 138.261 65.3069 150.244 62.1362 162.226C58.9671 174.21 55.6992 186.194 52.3327 198.177H28.1175C23.068 180.847 18.2155 163.318 13.5602 145.59C8.90392 127.861 4.49692 109.984 0.339233 91.959H25.2969C27.7695 105.727 30.3938 119.493 33.1697 133.258C35.9404 147.025 38.8616 160.543 41.9331 173.814C48.567 147.964 54.8562 122.165 60.8007 96.4167H83.0835C86.0537 109.095 89.0987 121.747 92.2185 134.372C95.3378 146.999 98.5322 159.601 101.802 172.18C104.772 159.106 107.644 145.835 110.418 132.368C113.189 118.898 115.764 105.429 118.142 91.959H142.654C138.495 109.985 134.088 127.862 129.433 145.589C124.776 163.318 119.923 180.847 114.874 198.177L90.6602 198.177ZM218.415 198.177C215.838 190.354 213.263 182.678 210.689 175.151H167.608C165.031 182.777 162.457 190.453 159.885 198.177H135.372C142.106 179.558 148.965 161.385 155.948 143.656C162.93 125.931 169.986 108.698 177.116 91.959H201.777C209.105 109.59 216.26 127.293 223.242 145.068C230.224 162.846 236.984 180.549 243.521 198.177H218.415ZM174.145 156.136H204.005C201.627 149.206 199.176 142.298 196.651 135.412C194.126 128.531 191.626 121.772 189.15 115.135C183.999 128.704 178.997 142.371 174.145 156.136ZM257.633 91.959H280.511V178.27H330.87V198.177H257.632L257.633 91.959ZM344.536 91.959H417.623V110.976H367.414V134H411.98V153.017H367.414V179.163H420.448V198.177H344.536V91.959ZM467.836 200.406C462.013 200.407 456.208 199.759 450.529 198.474C444.812 197.179 439.293 195.131 434.115 192.384V171.882C444.234 178.185 455.915 181.53 467.836 181.538C474.57 181.538 479.695 180.399 483.211 178.121C484.857 177.149 486.214 175.755 487.141 174.084C488.068 172.413 488.533 170.524 488.486 168.613C488.486 165.546 487.62 163.144 485.886 161.408C483.917 159.532 481.558 158.111 478.977 157.249C475.811 156.12 472.589 155.154 469.323 154.353C464.064 153.149 458.9 151.56 453.873 149.599C449.825 148.049 446.023 145.922 442.583 143.284C439.591 140.961 437.197 137.956 435.6 134.521C433.925 130.658 433.114 126.476 433.222 122.267C433.222 115.53 434.931 109.736 438.348 104.884C441.766 100.033 446.595 96.2951 452.834 93.6693C459.072 91.0451 466.5 89.7329 475.117 89.7329C480.718 89.7284 486.301 90.376 491.753 91.663C496.839 92.8242 501.775 94.5686 506.461 96.8616V117.066C501.859 114.288 496.88 112.187 491.68 110.827C486.281 109.355 480.712 108.605 475.117 108.598C469.074 108.598 464.395 109.638 461.078 111.717C459.519 112.613 458.232 113.916 457.356 115.486C456.479 117.056 456.045 118.834 456.1 120.632C456.038 121.836 456.217 123.041 456.625 124.176C457.033 125.311 457.663 126.353 458.478 127.242C460.395 129.079 462.707 130.45 465.238 131.252C468.158 132.292 471.599 133.307 475.562 134.298C480.612 135.586 485.316 136.998 489.673 138.531C493.769 139.933 497.646 141.909 501.187 144.401C504.47 146.738 507.125 149.851 508.913 153.462C510.744 157.126 511.66 161.632 511.661 166.979C511.661 174.014 509.928 180.031 506.461 185.03C502.994 190.031 497.992 193.844 491.457 196.467C484.92 199.091 477.046 200.404 467.836 200.406ZM114.309 228.591H156.165V239.481H127.409V252.668H152.932V263.557H127.409V278.531H157.782V289.42H114.309L114.309 228.591ZM205.337 289.42C203.239 285.621 201.056 281.849 198.787 278.105C196.517 274.361 194.192 270.646 191.811 266.96C189.372 270.703 187.018 274.446 184.749 278.19C182.481 281.934 180.327 285.677 178.285 289.42H163.055C166.46 284.145 169.891 278.899 173.35 273.682C176.809 268.463 180.41 263.217 184.154 257.942C180.751 253.122 177.433 248.244 174.2 243.308C170.968 238.375 167.82 233.47 164.757 228.591H180.326C182.197 231.938 184.111 235.27 186.068 238.587C188.025 241.906 190.053 245.182 192.152 248.414C194.193 245.238 196.206 241.99 198.192 238.672C200.178 235.355 202.106 231.994 203.976 228.591H219.205C216.085 233.469 212.923 238.347 209.718 243.224C206.514 248.102 203.239 252.951 199.893 257.772C203.522 262.99 207.095 268.236 210.613 273.51C214.129 278.785 217.56 284.089 220.906 289.42H205.337ZM223.373 228.591H274.758V239.991H255.617V289.42H242.515V239.991H223.373V228.591ZM293.474 267.301V289.42H280.544V228.591H302.748C310.744 228.591 316.883 230.264 321.167 233.61C325.448 236.958 327.589 241.75 327.59 247.988C327.751 251.591 326.778 255.153 324.81 258.174C322.841 261.196 319.975 263.524 316.615 264.833C319.168 268.861 321.692 272.902 324.187 276.956C326.682 281.012 329.178 285.167 331.674 289.42H316.615C312.532 281.934 308.306 274.561 303.939 267.301H293.475H293.474ZM293.474 257.006H301.982C306.009 257.006 309.072 256.283 311.17 254.837C313.268 253.391 314.317 251.108 314.319 247.988C314.319 244.87 313.284 242.573 311.213 241.098C309.141 239.623 306.092 238.886 302.067 238.885H293.475L293.474 257.006ZM383.314 289.42C381.839 284.94 380.365 280.544 378.892 276.233H354.218C352.743 280.602 351.268 284.998 349.795 289.42H335.757C339.613 278.757 343.541 268.35 347.539 258.198C351.538 248.045 355.579 238.176 359.663 228.591H373.785C377.982 238.687 382.08 248.825 386.079 259.005C390.078 269.186 393.948 279.324 397.691 289.42H383.314ZM357.961 265.344H375.062C373.702 261.375 372.298 257.419 370.851 253.477C369.405 249.535 367.973 245.663 366.555 241.862C363.604 249.633 360.739 257.46 357.961 265.344Z" fill="#FF7D10"/>
</g>
<defs>
<clipPath id="clip0_6_234">
<rect width="512" height="289.928" fill="white" transform="translate(0 0.109009)"/>
</clipPath>
</defs>
</svg>
