<svg width="512" height="200" viewBox="0 0 512 200" fill="none" xmlns="http://www.w3.org/2000/svg">
<g clip-path="url(#clip0_6_238)">
<path d="M36.1514 0.613403V61.2404H96.7784V0.613403H36.1514ZM78.0973 43.3377C76.973 44.8945 75.4162 46.0188 73.6865 46.7107C71.5243 47.5756 69.1027 47.9215 66.7676 47.9215H53.1892V13.8458H65.9892C69.7946 13.8458 72.6487 14.6242 74.7243 16.0945C76.8 17.5647 77.9243 20.0729 77.8378 22.581C77.8378 24.0512 77.4919 25.5215 76.7135 26.8188C75.9351 28.0296 74.8108 29.0675 73.427 29.6729C75.2432 30.1918 76.8865 31.3161 78.0108 32.8729C79.1351 34.4296 79.6541 36.2458 79.5676 38.1485C79.7406 39.9648 79.1351 41.8675 78.0973 43.3377ZM69.4487 26.7323C70.4 25.9539 70.9189 24.7431 70.8324 23.4458C70.8324 20.7647 69.0162 19.381 65.2973 19.381H60.0216V27.8566H65.2973C66.7676 27.9431 68.2379 27.5972 69.4487 26.7323ZM66.2487 33.2188H60.1081V42.3864H66.1622C67.8054 42.4729 69.5351 42.0404 70.9189 41.1756C72.0433 40.3972 72.6487 39.1864 72.5622 37.8026C72.5622 34.7756 70.4865 33.2188 66.2487 33.2188ZM111.914 0.613403V61.2404H172.541V0.613403H111.914ZM153.859 43.3377C152.735 44.8945 151.178 46.0188 149.449 46.7107C147.286 47.5756 144.865 47.9215 142.53 47.9215H128.951V13.8458H141.751C145.557 13.8458 148.411 14.6242 150.486 16.0945C152.562 17.5647 153.686 20.0729 153.6 22.581C153.6 24.0512 153.254 25.5215 152.476 26.8188C151.697 28.0296 150.573 29.0675 149.189 29.6729C151.005 30.1918 152.649 31.3161 153.773 32.8729C154.897 34.4296 155.416 36.2458 155.33 38.1485C155.416 39.9648 154.897 41.8675 153.859 43.3377ZM145.124 26.7323C146.076 25.9539 146.595 24.7431 146.508 23.4458C146.508 20.7647 144.692 19.381 140.973 19.381H135.697V27.8566H140.973C142.53 27.9431 144 27.5972 145.124 26.7323ZM141.924 33.2188H135.784V42.3864H141.838C143.481 42.4729 145.211 42.0404 146.595 41.1756C147.719 40.3972 148.324 39.1864 148.238 37.8026C148.324 34.7756 146.162 33.2188 141.924 33.2188ZM187.589 61.2404H248.216V0.613403H187.589V61.2404ZM231.092 45.7593C229.535 46.6242 227.892 47.2296 226.162 47.5756C224.259 48.008 222.27 48.2675 220.281 48.2675C217.773 48.2675 215.265 47.9215 212.93 47.0566C210.854 46.3648 208.951 45.1539 207.395 43.5972C205.838 42.0404 204.627 40.1377 203.935 38.1485C203.07 35.8134 202.724 33.3053 202.724 30.7972C202.724 28.3756 203.07 25.9539 203.935 23.6188C204.714 21.5431 205.924 19.6404 207.568 18.1702C209.211 16.6134 211.114 15.4026 213.189 14.6242C215.524 13.7593 218.032 13.4134 220.541 13.4134C222.357 13.4134 224.173 13.5864 225.903 14.0188C227.546 14.3648 229.103 14.9702 230.573 15.7485V22.408C229.276 21.5431 227.805 20.8512 226.249 20.4188C224.692 19.9864 223.049 19.7269 221.405 19.7269C219.33 19.6404 217.254 20.0729 215.438 21.0242C213.795 21.8891 212.497 23.1864 211.632 24.8296C210.681 26.7323 210.249 28.808 210.335 30.8837C210.249 32.9594 210.681 35.035 211.632 36.9377C212.411 38.581 213.708 39.8783 215.351 40.7431C217.168 41.6945 219.243 42.1269 221.232 42.0404C224.692 42.0404 228.065 41.0891 231.005 39.2729L231.092 45.7593ZM282.119 37.1107V53.6296H272.432V8.22422H289.038C295.005 8.22422 299.589 9.43503 302.789 11.9431C305.989 14.4512 307.546 17.9972 307.546 22.6675C307.805 28.2026 304.519 33.2188 299.33 35.208C301.232 38.235 303.135 41.2621 304.951 44.2891C306.854 47.3161 308.67 50.4296 310.573 53.6296H299.33C296.303 48.008 293.103 42.5593 289.903 37.1107H282.119ZM282.119 29.4134H288.432C291.459 29.4134 293.708 28.8945 295.265 27.7702C296.822 26.7323 297.6 25.0026 297.6 22.6675C297.6 20.3323 296.822 18.6026 295.265 17.5648C293.708 16.4404 291.459 15.9215 288.432 15.9215H282.032L282.119 29.4134ZM349.232 53.6296C348.108 50.2567 347.07 46.9702 345.946 43.7702H327.524C326.4 47.0566 325.362 50.3431 324.238 53.6296H313.687C316.541 45.6729 319.481 37.8891 322.508 30.2783C325.535 22.6675 328.476 15.3161 331.589 8.13773H342.141C345.254 15.662 348.368 23.2729 351.308 30.8837C354.335 38.4945 357.189 46.0188 359.957 53.6296H349.232ZM330.292 35.6404H343.092L339.978 26.8188C338.941 23.8783 337.816 21.0242 336.778 18.1702C334.53 23.8783 332.368 29.7593 330.292 35.6404ZM365.492 8.22422H382.876C387.114 8.13773 391.351 9.00259 395.157 10.9053C398.53 12.635 401.211 15.3161 402.941 18.6026C404.843 22.408 405.708 26.5593 405.622 30.7972C405.708 35.035 404.843 39.2729 402.941 43.0783C401.211 46.4512 398.53 49.1323 395.157 50.8621C391.351 52.7648 387.114 53.7161 382.789 53.5431H365.492V8.22422ZM382.27 45.2404C386.508 45.2404 389.795 44.0296 392.043 41.5215C394.292 39.0134 395.416 35.4675 395.416 30.7972C395.416 26.2134 394.292 22.6675 392.043 20.2458C389.795 17.8242 386.595 16.6134 382.27 16.6134H375.178V45.2404H382.27ZM413.319 8.22422H423.092V53.6296H413.319V8.22422ZM453.449 7.27286C456.649 7.18637 459.762 7.79179 462.789 8.91611C465.47 9.95395 467.892 11.5972 469.881 13.6729C471.87 15.835 473.427 18.3431 474.465 21.1107C476.541 27.5107 476.541 34.3431 474.465 40.7431C473.513 43.5107 471.957 46.1053 469.881 48.2675C467.892 50.3431 465.47 51.9864 462.789 53.0242C456.822 55.1864 450.162 55.1864 444.195 53.0242C441.514 51.9864 439.092 50.3431 437.103 48.2675C435.114 46.1053 433.557 43.5972 432.519 40.7431C430.443 34.3431 430.443 27.5107 432.519 21.1107C433.47 18.3431 435.027 15.835 437.103 13.6729C439.092 11.5972 441.514 9.95395 444.195 8.91611C447.049 7.79179 450.249 7.18637 453.449 7.27286ZM453.449 46.1053C455.784 46.1918 458.119 45.4999 460.108 44.2891C462.011 42.9918 463.481 41.2621 464.346 39.0999C466.335 33.8242 466.335 28.0296 464.346 22.6675C463.481 20.5918 462.011 18.7756 460.108 17.5648C455.957 15.2296 450.941 15.2296 446.789 17.5648C444.886 18.7756 443.416 20.5918 442.551 22.6675C440.562 27.9431 440.562 33.7377 442.551 39.0999C443.416 41.1756 444.886 42.9918 446.789 44.2891C448.778 45.4999 451.027 46.1053 453.449 46.1053Z" fill="black"/>
<path d="M90.8108 197.629C87.4378 185.694 84.1513 173.673 80.9513 161.738C77.7513 149.802 74.5513 137.781 71.5243 125.846C68.5837 137.781 65.4702 149.802 62.3567 161.738C59.1567 173.673 55.9567 185.694 52.5837 197.629H28.3675C23.3513 180.332 18.5081 162.775 13.8378 145.046C9.16751 127.316 4.7567 109.5 0.605347 91.4241H25.5135C28.0216 105.175 30.6162 118.927 33.3837 132.678C36.1513 146.429 39.0918 159.921 42.1189 173.24C48.7783 147.381 55.0053 121.608 60.9729 95.9214H83.1999C86.1405 108.548 89.1675 121.262 92.3675 133.889C95.481 146.516 98.681 159.056 101.968 171.684C104.908 158.624 107.762 145.392 110.616 131.9C113.384 118.408 115.978 105.002 118.313 91.5106H142.789C138.638 109.5 134.227 127.402 129.557 145.132C124.886 162.862 120.043 180.332 115.027 197.716L90.8108 197.629ZM218.465 197.629C215.87 189.846 213.276 182.148 210.768 174.624H167.697C165.103 182.235 162.508 189.932 160 197.629H135.524C142.27 179.035 149.103 160.873 156.108 143.143C163.113 125.413 170.119 108.202 177.297 91.5106H201.946C209.297 109.154 216.389 126.797 223.395 144.613C230.4 162.343 237.146 180.073 243.632 197.716L218.465 197.629ZM174.27 155.597H204.108C201.773 148.678 199.265 141.759 196.757 134.927C194.249 128.094 191.74 121.262 189.232 114.689C184.13 128.181 179.113 141.846 174.27 155.597ZM257.73 91.4241H280.562V177.651H330.897V197.543H257.73V91.4241ZM344.562 91.4241H417.557V110.451H367.394V133.456H411.935V152.484H367.394V178.602H420.411V197.629H344.562V91.4241ZM467.719 199.792C461.924 199.792 456.13 199.186 450.422 197.889C444.713 196.592 439.178 194.516 433.989 191.835V171.338C444.108 177.651 455.784 180.938 467.719 181.024C474.465 181.024 479.567 179.9 483.113 177.651C486.486 175.662 488.476 172.029 488.389 168.138C488.389 165.111 487.524 162.689 485.795 160.959C483.805 159.056 481.47 157.673 478.876 156.808C475.676 155.684 472.476 154.732 469.189 153.954C463.913 152.743 458.811 151.186 453.795 149.197C449.73 147.64 445.924 145.565 442.551 142.884C439.524 140.548 437.189 137.521 435.546 134.148C433.903 130.256 433.038 126.105 433.211 121.867C433.211 115.121 434.94 109.327 438.313 104.484C441.946 99.4673 446.962 95.5754 452.757 93.2403C458.984 90.6457 466.422 89.3484 474.984 89.3484C480.605 89.3484 486.14 89.9538 491.589 91.2511C496.692 92.3754 501.622 94.1916 506.292 96.4403V116.505C501.708 113.738 496.692 111.662 491.503 110.278C486.14 108.808 480.519 108.029 474.984 108.029C468.93 108.029 464.259 109.067 460.973 111.143C457.773 112.959 455.87 116.419 455.957 120.051C455.87 122.473 456.649 124.894 458.292 126.624C460.195 128.44 462.53 129.824 465.038 130.602C467.978 131.64 471.351 132.678 475.33 133.629C480.346 134.927 485.103 136.311 489.427 137.867C493.492 139.251 497.384 141.24 500.93 143.748C504.216 146.084 506.897 149.197 508.627 152.829C510.443 156.462 511.394 160.959 511.394 166.321C511.394 173.327 509.665 179.381 506.205 184.397C502.746 189.413 497.73 193.219 491.243 195.813C484.757 198.494 476.973 199.792 467.719 199.792Z" fill="#FF7D10"/>
</g>
<defs>
<clipPath id="clip0_6_238">
<rect width="512" height="199.784" fill="white" transform="translate(0 0.180908)"/>
</clipPath>
</defs>
</svg>
