<svg width="512" height="113" viewBox="0 0 512 113" fill="none" xmlns="http://www.w3.org/2000/svg">
<g clip-path="url(#clip0_5_186)">
<path d="M88.117 0.541626V46.8246H134.4V0.541626H88.117ZM120.195 33.166C119.337 34.3367 118.166 35.1953 116.839 35.7416C115.122 36.366 113.327 36.6782 111.532 36.6782H101.151V10.6099H110.907C113.795 10.6099 115.98 11.1563 117.619 12.327C119.18 13.4977 120.117 15.3709 119.961 17.3221C119.961 18.4928 119.727 19.5855 119.102 20.5221C118.478 21.4587 117.619 22.2392 116.605 22.7075C118.01 23.0977 119.258 23.9563 120.117 25.127C120.976 26.2977 121.366 27.7026 121.366 29.1855C121.444 30.5904 120.976 31.9953 120.195 33.166ZM113.561 20.4441C114.263 19.8197 114.654 18.8831 114.654 17.9465C114.654 15.9172 113.249 14.8246 110.439 14.8246H106.458V21.3026H110.439C111.532 21.3807 112.624 21.0685 113.561 20.4441ZM111.141 25.4392H106.458V32.4636H111.063C112.312 32.5416 113.639 32.2294 114.732 31.605C115.59 31.0587 116.058 30.0441 115.98 29.0294C115.98 26.6099 114.341 25.4392 111.141 25.4392ZM146.029 0.541626V46.8246H192.312V0.541626H146.029ZM178.029 33.166C177.171 34.3367 176 35.1953 174.673 35.7416C172.956 36.366 171.161 36.6782 169.366 36.6782H158.985V10.6099H168.741C171.629 10.6099 173.815 11.1563 175.454 12.327C177.015 13.4977 177.951 15.3709 177.795 17.3221C177.795 18.4928 177.561 19.5855 176.937 20.5221C176.312 21.4587 175.454 22.2392 174.439 22.7075C175.844 23.0977 177.093 23.9563 177.951 25.127C178.81 26.2977 179.2 27.7026 179.2 29.1855C179.278 30.5904 178.888 31.9953 178.029 33.166ZM171.395 20.4441C172.097 19.8197 172.488 18.8831 172.488 17.9465C172.488 15.9172 171.083 14.8246 168.273 14.8246H164.293V21.3026H168.273C169.444 21.3807 170.537 21.0685 171.395 20.4441ZM168.976 25.4392H164.293V32.4636H168.897C170.146 32.5416 171.473 32.2294 172.566 31.605C173.424 31.0587 173.893 30.0441 173.815 29.0294C173.815 26.6099 172.176 25.4392 168.976 25.4392ZM203.863 46.8246H250.146V0.541626H203.863V46.8246ZM237.112 35.0392C235.941 35.6636 234.693 36.1319 233.366 36.4441C231.883 36.7563 230.4 36.9904 228.917 36.9904C226.966 36.9904 225.093 36.6782 223.297 36.0538C221.737 35.5075 220.254 34.5709 219.083 33.4002C217.912 32.2294 216.976 30.7465 216.429 29.1855C215.805 27.3904 215.493 25.5172 215.493 23.566C215.493 21.6928 215.805 19.8197 216.429 18.1026C217.054 16.5416 217.99 15.0587 219.161 13.888C220.41 12.7172 221.893 11.7806 223.454 11.2343C225.249 10.6099 227.2 10.2977 229.073 10.2977C230.478 10.2977 231.805 10.4538 233.21 10.766C234.458 11.0782 235.629 11.4685 236.8 12.0928V17.166C235.785 16.4636 234.693 15.9953 233.522 15.6831C232.351 15.3709 231.102 15.1367 229.776 15.1367C228.215 15.0587 226.654 15.4489 225.171 16.1514C223.922 16.7758 222.907 17.7904 222.283 19.0392C221.58 20.4441 221.19 22.0831 221.268 23.6441C221.19 25.205 221.58 26.8441 222.205 28.2489C222.829 29.4977 223.844 30.5124 225.015 31.1367C226.419 31.8392 227.98 32.1514 229.541 32.1514C232.195 32.1514 234.771 31.4489 237.034 30.0441V35.0392H237.112ZM276.058 28.405V41.0489H268.644V6.31723H281.366C285.893 6.31723 289.405 7.25383 291.902 9.20505C294.322 11.0782 295.571 13.8099 295.571 17.4002C295.727 21.6148 293.229 25.5172 289.327 27.0002C290.81 29.2636 292.215 31.605 293.619 33.9465C295.024 36.288 296.429 38.6294 297.912 41.0489H289.327C286.985 36.7563 284.566 32.5416 282.068 28.405H276.058ZM276.058 22.5514H280.897C283.161 22.5514 284.956 22.1611 286.127 21.3026C287.376 20.366 288.078 18.8831 287.922 17.4002C288 15.8392 287.376 14.3563 286.127 13.4977C284.956 12.6392 283.239 12.2489 280.897 12.2489H275.98V22.5514H276.058ZM327.337 40.9709C326.478 38.3953 325.619 35.8977 324.839 33.4782H310.79C309.932 35.9758 309.073 38.4733 308.293 40.9709H300.254C302.439 34.8831 304.702 28.9514 306.966 23.1758C309.229 17.4002 311.571 11.7806 313.912 6.31723H321.951C324.371 12.0928 326.712 17.8685 328.976 23.6441C331.239 29.4197 333.502 35.2733 335.61 40.9709H327.337ZM312.897 27.3124H322.654C321.873 25.0489 321.093 22.7855 320.234 20.5221C319.376 18.2587 318.595 16.0733 317.815 13.888C316.097 18.3368 314.458 22.7855 312.897 27.3124ZM339.746 6.31723H353.015C356.293 6.23918 359.493 6.94163 362.38 8.3465C364.956 9.67333 366.985 11.7026 368.312 14.2782C371.044 20.2099 371.044 27.0782 368.312 33.0099C366.985 35.5855 364.878 37.6148 362.38 38.9416C359.493 40.4245 356.215 41.127 352.937 40.9709H339.746V6.31723ZM352.624 34.5709C355.824 34.5709 358.322 33.6343 360.039 31.7611C361.756 29.888 362.615 27.1563 362.615 23.566C362.615 20.0538 361.756 17.3221 360.039 15.4489C358.322 13.5758 355.824 12.6392 352.624 12.6392H347.239V34.4928L352.624 34.5709ZM376.351 6.31723H383.844V41.0489H376.351V6.31723ZM406.946 5.6148C409.366 5.6148 411.785 6.00505 414.049 6.86358C416.078 7.64407 417.951 8.89284 419.512 10.4538C421.073 12.0928 422.244 14.0441 422.946 16.1514C424.585 20.9904 424.585 26.2977 422.946 31.1367C422.166 33.2441 420.995 35.1953 419.512 36.8343C417.951 38.3953 416.156 39.6441 414.049 40.5026C409.444 42.2197 404.449 42.2197 399.844 40.5026C397.815 39.7221 395.941 38.4733 394.38 36.8343C392.819 35.1953 391.649 33.2441 390.946 31.1367C389.307 26.2977 389.307 20.9904 390.946 16.1514C391.727 14.0441 392.897 12.0928 394.38 10.4538C395.941 8.89284 397.737 7.64407 399.844 6.86358C402.107 6.00505 404.527 5.53675 406.946 5.6148ZM406.946 35.1953C408.741 35.2733 410.537 34.727 412.019 33.7904C413.502 32.8538 414.595 31.4489 415.297 29.8099C416.78 25.7514 416.78 21.3026 415.297 17.3221C414.673 15.6831 413.502 14.3563 412.019 13.4197C408.898 11.6246 404.995 11.6246 401.795 13.4197C400.312 14.3563 399.219 15.7611 398.517 17.3221C397.034 21.3806 397.034 25.8294 398.517 29.8099C399.141 31.4489 400.312 32.7758 401.795 33.7904C403.356 34.805 405.151 35.2733 406.946 35.1953Z" fill="black"/>
<path d="M39.3366 110.434C37.8537 105.205 36.4488 99.9759 35.0439 94.7466C33.639 89.5174 32.2342 84.2881 30.9073 79.0588L26.9268 94.7466C25.522 99.9759 24.1171 105.205 22.6341 110.434H12.0976C9.9122 102.864 7.80488 95.2149 5.77561 87.4881C3.74634 79.7612 1.79512 71.9564 0 64.0734H10.8488C11.9415 70.0832 13.0341 76.093 14.2829 82.1027C15.4537 88.1125 16.7805 94.0442 18.1073 99.8198C20.9951 88.5808 23.7268 77.2637 26.3024 66.0247H36.0585C37.3854 71.5661 38.7122 77.1076 40.039 82.571C41.3659 88.1125 42.7707 93.5759 44.2537 99.0393C45.5805 93.3417 46.8293 87.5661 48 81.6344C49.1707 75.7808 50.3415 69.8491 51.3561 63.9954H62.0488C60.2537 71.8783 58.3024 79.6832 56.2732 87.41C54.2439 95.1368 52.1366 102.786 49.9512 110.356H39.3366V110.434ZM85.9317 63.1369C89.2098 63.0588 92.4098 63.6832 95.4537 64.8539C98.1854 65.9466 100.683 67.5856 102.712 69.693C104.741 71.8783 106.38 74.4539 107.317 77.2637C109.502 83.7417 109.502 90.7661 107.317 97.2442C106.302 100.054 104.741 102.708 102.712 104.893C100.683 107 98.1854 108.717 95.4537 109.732C89.2878 111.995 82.5756 111.995 76.4878 109.732C73.7561 108.639 71.2585 107 69.2293 104.893C67.2 102.708 65.561 100.054 64.6244 97.2442C62.439 90.7661 62.439 83.7417 64.6244 77.2637C65.639 74.4539 67.2 71.8783 69.2293 69.693C71.2585 67.5856 73.7561 65.9466 76.4878 64.8539C79.4537 63.6832 82.6537 63.0588 85.9317 63.1369ZM85.9317 102.708C88.3512 102.786 90.6927 102.161 92.722 100.834C94.6732 99.5856 96.1561 97.7125 97.0927 95.5271C99.0439 90.1417 99.0439 84.21 97.0927 78.8246C96.2341 76.6393 94.6732 74.8442 92.722 73.5954C88.5073 71.1759 83.3561 71.1759 79.1415 73.5954C77.1902 74.8442 75.7073 76.7173 74.7707 78.8246C72.8195 84.21 72.8195 90.1417 74.7707 95.5271C75.6293 97.7125 77.1902 99.5076 79.1415 100.834C81.1707 102.161 83.5122 102.786 85.9317 102.708ZM124.254 93.5759V110.434H114.341V64.0734H131.278C137.366 64.0734 142.049 65.3222 145.327 67.8978C148.605 70.4734 150.244 74.0637 150.244 78.8246C150.322 81.6344 149.541 84.3661 148.059 86.6295C146.498 88.8929 144.39 90.61 141.893 91.6247C143.844 94.6686 145.795 97.7905 147.668 100.834C149.541 103.956 151.493 107.078 153.366 110.356H141.893C138.771 104.659 135.571 99.0393 132.215 93.4978L124.254 93.5759ZM124.254 85.771H130.732C133.776 85.771 136.117 85.2247 137.756 84.132C139.317 83.0393 140.176 81.3222 140.176 78.9027C140.176 76.5612 139.395 74.7661 137.834 73.6735C136.273 72.5808 133.932 71.9564 130.888 71.9564H124.332V85.771H124.254ZM158.361 64.0734H168.351V101.693H190.283V110.356H158.361V64.0734ZM196.137 64.0734H213.854C218.224 63.9173 222.517 64.8539 226.42 66.8051C229.854 68.5222 232.585 71.332 234.38 74.6881C236.176 78.1222 237.112 82.2588 237.112 87.1759C237.268 91.5466 236.254 95.8393 234.38 99.7417C232.585 103.176 229.854 105.908 226.42 107.703C222.985 109.576 218.771 110.434 213.854 110.434H196.215V64.0734H196.137ZM213.229 101.849C217.522 101.849 220.878 100.6 223.141 98.0247C225.483 95.5271 226.576 91.8588 226.576 87.0978C226.576 82.4149 225.405 78.8247 223.141 76.3271C220.878 73.8295 217.522 72.5808 213.229 72.5808H206.049V101.771H213.229V101.849ZM270.283 111.371C267.707 111.371 265.21 111.059 262.712 110.512C260.215 109.966 257.795 109.03 255.532 107.859V98.8832C259.98 101.615 265.054 103.098 270.205 103.098C273.171 103.098 275.356 102.63 276.917 101.615C278.4 100.756 279.259 99.1954 279.181 97.4783C279.259 96.3076 278.868 95.2149 278.01 94.3564C277.151 93.5759 276.137 92.9515 274.966 92.5612C273.561 92.0929 272.156 91.6246 270.751 91.3125C268.488 90.7661 266.224 90.0637 264.039 89.2052C262.244 88.5027 260.605 87.5661 259.122 86.4734C257.795 85.4588 256.781 84.132 256.078 82.6491C255.376 80.932 254.985 79.1368 255.063 77.2637C254.985 74.532 255.766 71.8783 257.327 69.693C258.888 67.5076 261.151 65.7905 263.649 64.7759C266.771 63.5271 270.049 62.9808 273.405 63.0588C275.824 63.0588 278.322 63.371 280.663 63.9173C282.849 64.3856 285.034 65.1661 287.063 66.1808V75.0003C285.034 73.7515 282.849 72.8929 280.585 72.2686C278.244 71.6442 275.824 71.332 273.327 71.332C270.673 71.332 268.644 71.8003 267.239 72.6588C265.834 73.4393 265.054 74.9222 265.054 76.5612C264.976 77.6539 265.366 78.6686 266.068 79.4491C266.927 80.2295 267.941 80.8539 269.034 81.1661C270.283 81.6344 271.844 82.0247 273.561 82.493C275.746 83.0393 277.854 83.6637 279.727 84.3661C281.522 84.9905 283.239 85.8491 284.722 86.9417C286.127 87.9564 287.298 89.2832 288.078 90.9222C288.937 92.7954 289.327 94.8247 289.249 96.8539C289.327 99.6637 288.546 102.395 286.985 104.737C285.346 107 283.083 108.717 280.429 109.732C277.307 110.903 273.795 111.527 270.283 111.371ZM294.088 64.0734H326.01V72.3466H304.078V82.4149H323.512V90.6881H304.078V102.083H327.181V110.356H294.088V64.0734ZM342.166 93.5759V110.434H332.332V64.0734H349.268C355.356 64.0734 360.039 65.3222 363.317 67.8978C366.595 70.4734 368.234 74.0637 368.234 78.8246C368.312 81.6344 367.532 84.3661 366.049 86.6295C364.488 88.8929 362.38 90.61 359.883 91.6247C361.834 94.6686 363.785 97.7905 365.659 100.834C367.532 103.956 369.483 107.078 371.356 110.356H359.883C356.761 104.659 353.561 99.0393 350.205 93.4978L342.166 93.5759ZM342.166 85.771H348.644C351.688 85.771 354.029 85.2247 355.668 84.132C357.229 83.0393 358.088 81.3222 358.088 78.9027C358.088 76.5612 357.307 74.7661 355.746 73.6735C354.185 72.5808 351.844 71.9564 348.8 71.9564H342.244L342.166 85.771ZM415.22 64.0734C412.41 71.8003 409.522 79.5271 406.556 87.2539C403.59 94.9808 400.546 102.708 397.502 110.356H386.732C383.688 102.63 380.644 94.9808 377.678 87.2539C374.712 79.5271 371.824 71.8003 369.015 64.0734H379.941C381.893 70.1612 383.922 76.171 385.951 82.1808C387.981 88.1905 390.088 94.2003 392.195 100.21C394.302 94.2003 396.41 88.1905 398.439 82.1808C400.468 76.171 402.498 70.1612 404.449 64.0734H415.22ZM419.434 64.0734H429.424V110.434H419.434V64.0734ZM458.224 111.371C454.868 111.449 451.512 110.825 448.312 109.732C445.502 108.717 442.927 107.078 440.898 104.971C438.79 102.786 437.229 100.21 436.215 97.3222C435.122 94.0442 434.576 90.61 434.576 87.1759C434.498 83.8198 435.122 80.3856 436.293 77.2637C438.4 71.4881 443.005 66.8832 448.781 64.7759C451.981 63.6052 455.337 63.0588 458.693 63.0588C461.112 63.0588 463.532 63.293 465.951 63.8393C468.137 64.3856 470.244 65.1661 472.273 66.1808V75.4686C470.478 74.2978 468.527 73.3612 466.498 72.7369C464.39 72.1125 462.205 71.8003 459.941 71.8003C457.132 71.7222 454.4 72.3466 451.902 73.5954C449.717 74.7661 447.922 76.6393 446.751 78.8246C445.502 81.4003 444.878 84.2881 444.956 87.1759C444.878 90.0637 445.424 92.9515 446.673 95.6051C447.766 97.8686 449.483 99.6637 451.668 100.912C454.088 102.161 456.82 102.786 459.629 102.708C464.312 102.708 468.839 101.381 472.82 98.8832V107.859C470.712 109.03 468.527 109.888 466.185 110.434C463.532 111.137 460.878 111.449 458.224 111.371ZM478.205 64.0734H510.049V72.3466H488.195V82.4149H507.629V90.6881H488.195V102.083H511.298V110.356H478.205V64.0734Z" fill="#B80000"/>
</g>
<defs>
<clipPath id="clip0_5_186">
<rect width="512" height="111.61" fill="white" transform="translate(0 0.541626)"/>
</clipPath>
</defs>
</svg>
