<svg width="512" height="512" viewBox="0 0 512 512" fill="none" xmlns="http://www.w3.org/2000/svg">
<g clip-path="url(#clip0_2_10)">
<path d="M256 0C114.688 0 0 114.688 0 256C0 397.312 114.688 512 256 512C397.312 512 512 397.312 512 256C512 114.688 397.312 0 256 0Z" fill="black"/>
<path d="M313.173 430.08H239.616V161.792C226.133 168.619 212.651 175.616 199.168 182.955C185.685 190.293 172.715 197.291 160.597 204.117V136.363C173.739 128.853 188.245 120.832 204.288 112.64C220.331 104.448 237.056 95.9147 254.805 87.3813H313.173V430.08Z" fill="white"/>
</g>
<defs>
<clipPath id="clip0_2_10">
<rect width="512" height="512" fill="white"/>
</clipPath>
</defs>
</svg>
