<svg width="512" height="512" viewBox="0 0 512 512" fill="none" xmlns="http://www.w3.org/2000/svg">
<g clip-path="url(#clip0_3_4)">
<path d="M488.033 363.09C483.061 347.988 478.006 332.914 472.868 317.868H388.473C383.414 332.851 378.359 347.923 373.302 363.094L372.975 364.079H320.692L321.391 362.15C334.82 325.017 348.718 288.192 362.696 252.697C376.648 217.273 390.947 182.355 405.195 148.909L405.568 148.034H456.971L457.34 148.92C475.668 193.02 493.458 237.342 510.705 281.875C511.568 273.277 512 264.641 512 256C512 114.616 397.384 0 256 0C114.614 0 0 114.616 0 256C0 397.386 114.614 512 256 512C358.881 512 447.573 451.301 488.258 363.769L488.033 363.09ZM308.987 430.006H235.454V161.851C221.923 168.781 208.441 175.807 195.01 182.929C181.444 190.123 168.611 197.144 156.527 204.011V136.359C169.593 128.843 184.14 120.916 200.157 112.582C216.167 104.248 233.002 95.8392 250.651 87.3318H308.988V430.006H308.987ZM430.658 200.077C421.019 225.556 411.663 251.141 402.592 276.827H458.464C453.9 263.562 449.203 250.344 444.373 237.174C439.83 224.797 435.258 212.431 430.658 200.076V200.077Z" fill="black"/>
<path d="M500.43 255.531C486.415 219.854 472.051 184.316 457.34 148.92L456.971 148.034H405.567L405.195 148.909C390.947 182.355 376.648 217.273 362.696 252.697C348.718 288.191 334.82 325.017 321.39 362.15L320.692 364.079H372.973L373.301 363.094C378.359 347.923 383.413 332.851 388.473 317.868H472.869C478.007 332.914 483.062 347.988 488.034 363.089L488.256 363.766C500.275 337.919 507.863 310.235 510.702 281.871C507.299 273.083 503.875 264.303 500.43 255.531ZM402.592 276.827C411.663 251.14 421.018 225.555 430.657 200.076C435.258 212.431 439.83 224.797 444.373 237.174C449.181 250.281 453.918 263.611 458.464 276.827H402.592ZM308.988 430.006V87.3318H250.651C233.002 95.8382 216.166 104.248 200.157 112.582C184.14 120.916 169.593 128.843 156.526 136.359V204.011C168.612 197.144 181.443 190.123 195.009 182.929C208.441 175.807 221.923 168.781 235.454 161.851V430.006H308.988Z" fill="white"/>
</g>
<defs>
<clipPath id="clip0_3_4">
<rect width="512" height="512" fill="white"/>
</clipPath>
</defs>
</svg>
