<svg width="512" height="512" viewBox="0 0 512 512" fill="none" xmlns="http://www.w3.org/2000/svg">
<g clip-path="url(#clip0_2_54)">
<path d="M426.423 195.595H396.188V322.541H426.142C445.231 322.541 460.134 316.956 470.438 305.937C480.689 294.972 485.884 279.063 485.884 258.66C485.884 238.434 480.781 222.709 470.716 211.925C460.602 201.088 445.7 195.595 426.423 195.595ZM429.161 370.596H348.273V147.539H429.463C451.983 147.539 471.511 151.949 487.497 160.649C490.288 162.189 492.996 163.877 495.61 165.705C474.599 109.964 434.808 63.2962 383.09 33.7382C331.372 4.18025 270.965 -6.41693 212.275 3.772C153.584 13.9609 100.284 44.2981 61.5547 89.558C22.8255 134.818 1.09213 192.167 0.0980537 251.727C-0.896021 311.287 18.9114 369.33 56.1086 415.857C93.3059 462.384 145.564 494.483 203.882 506.625C262.2 518.767 322.927 510.191 375.602 482.376C428.277 454.56 469.604 409.246 492.463 354.238C490.795 355.311 489.09 356.361 487.332 357.333C471.45 366.133 451.876 370.596 429.161 370.596ZM308.894 430.005H235.36V161.852C221.954 168.714 208.473 175.74 194.916 182.929C181.35 190.123 168.521 197.15 156.431 204.011V136.358C169.498 128.842 184.043 120.916 200.064 112.58C216.073 104.247 232.904 95.8315 250.558 87.3323H308.894V430.005Z" fill="black"/>
<path d="M200.064 112.58C184.046 120.914 169.502 128.841 156.433 136.358V204.011C168.518 197.144 181.345 190.117 194.916 182.929C208.473 175.744 221.954 168.718 235.36 161.852V430.005H308.894V87.3323H250.558C232.908 95.8386 216.078 104.255 200.064 112.58ZM495.61 165.705C492.996 163.878 490.288 162.19 487.497 160.649C471.509 151.949 451.983 147.539 429.464 147.539H348.273V370.596H429.161C451.878 370.596 471.45 366.133 487.332 357.333C489.075 356.357 490.787 355.325 492.463 354.238C517.378 294.065 518.503 226.675 495.61 165.705ZM470.438 305.937C460.134 316.956 445.231 322.541 426.142 322.541H396.19V195.595H426.424C445.7 195.595 460.602 201.088 470.716 211.925C480.781 222.709 485.884 238.434 485.884 258.66C485.884 279.063 480.689 294.97 470.438 305.937Z" fill="white"/>
</g>
<defs>
<clipPath id="clip0_2_54">
<rect width="512" height="512" fill="white"/>
</clipPath>
</defs>
</svg>
