<svg width="512" height="513" viewBox="0 0 512 513" fill="none" xmlns="http://www.w3.org/2000/svg">
<g clip-path="url(#clip0_2_48)">
<path d="M351.377 314.253C365.776 295.595 380.251 277.22 394.803 259.127C380.251 241.034 365.776 222.658 351.377 204C336.983 185.339 322.822 166.538 308.894 147.597V370.654C322.825 351.717 336.986 332.917 351.377 314.253ZM386.733 370.654H308.894V430.065H235.36V161.909C221.954 168.772 208.473 175.797 194.916 182.987C181.351 190.18 168.523 197.207 156.431 204.068V136.418C169.5 128.9 184.044 120.974 200.064 112.64C216.074 104.306 232.905 95.8891 250.558 87.3899H308.894V147.597H386.733C402.562 172.193 419.491 197.072 437.519 222.234C455.472 197.18 472.33 172.407 488.094 147.915C463.548 95.2496 421.816 52.5014 369.757 26.6953C317.698 0.889183 258.408 -6.43945 201.632 5.91375C144.856 18.267 93.9714 49.5671 57.3404 94.6702C20.7095 139.773 0.511642 195.996 0.0662124 254.099C-0.379217 312.201 18.9543 368.727 54.8894 414.387C90.8246 460.046 141.223 492.123 197.803 505.345C254.383 518.567 313.778 512.148 366.227 487.143C418.676 462.138 461.058 420.035 486.409 367.753C471.12 344.101 454.823 320.189 437.519 296.017C419.485 321.182 402.556 346.061 386.733 370.654ZM509.728 221.869C499.929 234.399 490.097 246.817 480.232 259.125C489.855 271.089 499.44 283.192 508.988 295.435C512.74 271.073 512.989 246.301 509.728 221.869Z" fill="black"/>
<path d="M308.894 87.3899H250.558C232.908 95.8948 216.076 104.311 200.062 112.638C184.045 120.972 169.502 128.898 156.433 136.416V204.068C168.518 197.202 181.345 190.175 194.916 182.987C208.473 175.802 221.954 168.776 235.36 161.909V430.063H308.894V87.3899ZM509.726 221.867C506.315 196.26 499.02 171.323 488.094 147.915C472.331 172.395 455.472 197.168 437.517 222.234C419.483 197.069 402.555 172.19 386.733 147.597H308.894C322.825 166.534 336.985 185.335 351.375 204C365.775 222.657 380.251 241.032 394.803 259.125C380.251 277.216 365.775 295.591 351.375 314.251C336.982 332.912 322.822 351.713 308.894 370.654H386.733C402.561 346.058 419.489 321.179 437.517 296.017C454.839 320.191 471.136 344.102 486.406 367.75C497.504 344.909 505.116 320.533 508.988 295.435C499.483 283.267 489.897 271.164 480.23 259.125C490.147 246.773 499.979 234.353 509.726 221.867Z" fill="white"/>
</g>
<defs>
<clipPath id="clip0_2_48">
<rect width="512" height="512.119" fill="white"/>
</clipPath>
</defs>
</svg>
