<svg width="512" height="512" viewBox="0 0 512 512" fill="none" xmlns="http://www.w3.org/2000/svg">
<g clip-path="url(#clip0_2_45)">
<path d="M256 0C114.688 0 0 114.688 0 256C0 397.312 114.688 512 256 512C397.312 512 512 397.312 512 256C512 114.688 397.312 0 256 0Z" fill="#EF7015"/>
<path d="M381.269 370.005V427.349H143.531V421.205C143.36 404.992 144.896 388.779 147.968 372.736C150.699 358.741 155.819 345.429 162.816 333.141C170.496 320 179.883 308.053 190.976 297.472C204.629 284.501 219.307 272.555 234.837 262.144C247.808 253.269 260.437 243.712 272.384 233.472C281.6 225.451 288.085 217.771 291.84 210.603C295.595 203.435 297.472 195.413 297.472 187.221C297.472 156.672 278.699 141.483 240.811 141.483C225.109 141.483 209.749 144.043 194.901 149.333C179.2 155.136 164.523 163.328 151.552 173.739V107.008C167.083 97.4507 183.979 89.9413 201.557 84.992C219.477 80.2133 237.909 77.824 256.341 77.9947C279.893 77.9947 300.544 82.0907 317.952 90.112C334.507 97.4507 348.672 109.227 358.741 124.245C368.469 138.923 373.248 156.331 373.248 176.469C373.419 188.416 372.053 200.363 369.323 212.139C366.763 222.72 362.325 232.96 356.181 242.005C349.013 252.416 340.48 261.632 330.923 269.824C318.293 280.576 305.152 290.475 291.157 299.52C279.04 307.2 267.605 315.563 256.512 324.437C248.32 331.264 240.64 338.773 233.984 347.136C228.352 354.133 223.915 361.813 220.843 370.176H381.269V370.005Z" fill="white"/>
</g>
<defs>
<clipPath id="clip0_2_45">
<rect width="512" height="512" fill="white"/>
</clipPath>
</defs>
</svg>
