<svg width="512" height="512" viewBox="0 0 512 512" fill="none" xmlns="http://www.w3.org/2000/svg">
<g clip-path="url(#clip0_2_42)">
<path d="M256 0C114.688 0 0 114.688 0 256C0 397.312 114.688 512 256 512C397.312 512 512 397.312 512 256C512 114.688 397.312 0 256 0Z" fill="#CD1F2B"/>
<path d="M372.053 388.949C360.789 404.139 344.747 415.915 323.925 424.107C303.104 432.299 278.357 436.395 249.515 436.395C231.936 436.565 214.528 435.029 197.12 431.787C180.224 428.544 163.84 423.253 148.139 415.744V353.28C162.987 360.277 178.347 365.909 194.048 370.005C210.603 374.101 227.84 376.149 244.907 375.979C267.264 375.979 284.16 372.053 295.765 364.032C307.371 356.011 313.173 344.576 313.173 329.387C313.173 314.027 307.371 302.421 295.936 294.4C284.501 286.549 267.776 282.624 245.76 282.624H193.707V224.597H243.371C264.363 224.597 280.235 220.672 291.328 212.821C302.251 204.971 307.712 194.048 307.712 179.883C308.053 168.107 302.08 157.013 292.011 150.869C281.6 144.043 266.581 140.629 247.296 140.629C236.203 140.629 225.28 141.483 214.357 143.36C204.288 145.067 194.56 147.627 184.832 151.04C174.763 154.453 165.205 158.891 155.819 163.84V102.741C186.197 87.7227 219.989 80.2133 257.024 80.2133C282.624 80.2133 304.64 83.968 323.413 91.3067C342.187 98.6453 356.352 109.227 366.421 122.709C376.491 136.363 381.44 152.576 381.44 171.179C381.781 188.245 376.491 204.8 366.421 218.624C356.352 232.277 342.357 242.688 324.437 249.856C344.747 256.683 360.619 267.264 371.883 281.771C383.147 296.277 388.779 313.856 388.779 334.336C388.949 355.499 383.317 373.76 372.053 388.949Z" fill="white"/>
</g>
<defs>
<clipPath id="clip0_2_42">
<rect width="512" height="512" fill="white"/>
</clipPath>
</defs>
</svg>
