<svg width="512" height="513" viewBox="0 0 512 513" fill="none" xmlns="http://www.w3.org/2000/svg">
<g clip-path="url(#clip0_3_7)">
<path d="M508.713 296.385C507.071 304.903 504.47 312.719 500.796 319.667C494.095 332.332 484.287 342.145 471.638 348.835C459.129 355.451 442.747 358.807 425.688 358.807C408.45 358.807 393.411 355.449 380.986 348.829C368.426 342.136 358.663 332.323 351.97 319.666C345.355 307.163 342.003 291.991 342.003 274.572V155.332H390.502V278.986C390.502 290.929 393.545 300.103 399.542 306.254C405.594 312.463 414.148 315.482 425.688 315.482C437.226 315.482 445.779 312.463 451.835 306.254C457.833 300.1 460.874 290.925 460.874 278.986V155.332H491.272C452.153 64.06 361.531 0.119385 255.972 0.119385C114.637 0.119385 0.0615 114.734 0.0615 256.119C0.0615 397.504 114.636 512.119 255.971 512.119C384.125 512.119 490.276 417.884 508.96 294.903C508.878 295.403 508.796 295.906 508.713 296.385ZM324.958 389.074C313.657 404.307 297.607 416.025 276.814 424.212C256.011 432.398 231.203 436.496 202.388 436.496C184.042 436.496 166.603 434.939 150.068 431.828C133.526 428.717 117.229 423.397 101.188 415.855V353.446C116.578 360.655 131.891 366.22 147.119 370.153C162.349 374.085 179.299 376.051 197.967 376.051C220.235 376.051 237.183 372.042 248.813 364.011C260.433 355.987 266.251 344.438 266.251 329.363C266.251 313.968 260.518 302.337 249.058 294.47C237.59 286.61 220.886 282.677 198.948 282.677H146.875V224.69H196.493C217.449 224.69 233.414 220.757 244.391 212.892C255.36 205.03 260.849 194.057 260.849 179.967C260.849 167.52 255.606 157.853 245.128 150.972C234.643 144.091 219.743 140.652 200.421 140.652C188.631 140.652 177.656 141.559 167.507 143.355C157.353 145.161 147.527 147.702 138.031 150.972C128.528 154.252 118.872 158.512 109.048 163.751V102.811C139.506 87.7472 173.233 80.2064 210.248 80.2064C235.793 80.2064 257.901 83.8898 276.569 91.2615C295.237 98.6323 309.559 109.122 319.554 122.715C329.541 136.314 334.538 152.447 334.538 171.121C334.538 189.144 329.541 204.954 319.554 218.543C309.559 232.144 295.559 242.549 277.551 249.752C297.853 256.63 313.657 267.281 324.958 281.696C336.257 296.114 341.905 313.636 341.905 334.276C341.905 355.58 336.257 373.841 324.958 389.074Z" fill="#CD1F2B"/>
<path d="M277.551 249.752C295.559 242.55 309.559 232.144 319.553 218.544C329.541 204.954 334.538 189.145 334.538 171.121C334.538 152.447 329.541 136.315 319.553 122.715C309.559 109.122 295.236 98.6323 276.569 91.2615C257.9 83.8897 235.793 80.2064 210.248 80.2064C173.233 80.2064 139.506 87.7472 109.048 102.811V163.749C118.872 158.512 128.528 154.252 138.031 150.972C147.527 147.702 157.353 145.161 167.507 143.355C177.656 141.559 188.631 140.652 200.421 140.652C219.743 140.652 234.641 144.091 245.128 150.972C255.606 157.853 260.849 167.52 260.849 179.967C260.849 194.057 255.36 205.03 244.391 212.892C233.414 220.757 217.448 224.689 196.493 224.689H146.875V282.677H198.948C220.886 282.677 237.589 286.609 249.057 294.47C260.518 302.337 266.251 313.967 266.251 329.363C266.251 344.438 260.433 355.987 248.812 364.011C237.183 372.042 220.235 376.05 197.966 376.05C179.298 376.05 162.349 374.086 147.119 370.152C131.891 366.22 116.577 360.654 101.187 353.446V415.855C117.23 423.397 133.525 428.717 150.068 431.828C166.603 434.938 184.041 436.497 202.387 436.497C231.203 436.497 256.011 432.398 276.814 424.212C297.608 416.025 313.657 404.307 324.958 389.073C336.257 373.84 341.905 355.579 341.905 334.276C341.905 313.636 336.257 296.114 324.958 281.696C313.657 267.281 297.853 256.63 277.551 249.752ZM491.299 155.332H460.874V278.986C460.874 290.926 457.832 300.1 451.835 306.254C445.779 312.463 437.225 315.482 425.688 315.482C414.148 315.482 405.595 312.463 399.542 306.254C393.545 300.103 390.502 290.929 390.502 278.986V155.332H342.003V274.572C342.003 291.991 345.355 307.164 351.97 319.667C358.662 332.323 368.426 342.136 380.986 348.829C393.411 355.449 408.45 358.807 425.688 358.807C442.748 358.807 459.129 355.451 471.638 348.835C484.286 342.145 494.095 332.332 500.796 319.667C504.469 312.719 507.07 304.903 508.714 296.385C510.633 285.403 512.062 268.969 512.062 256.119C512.062 220.332 504.556 186.265 491.299 155.332Z" fill="white"/>
</g>
<defs>
<clipPath id="clip0_3_7">
<rect width="512" height="512" fill="white" transform="translate(0 0.119385)"/>
</clipPath>
</defs>
</svg>
