<svg width="512" height="513" viewBox="0 0 512 513" fill="none" xmlns="http://www.w3.org/2000/svg">
<g clip-path="url(#clip0_2_39)">
<path d="M512 256.119C512 397.431 397.312 512.119 256 512.119C114.688 512.119 0 397.431 0 256.119C0 114.807 114.688 0.119385 256 0.119385C397.312 0.119385 512 114.807 512 256.119Z" fill="#004BE1"/>
<path d="M225.963 238.711C242.688 215.671 259.584 192.461 276.992 168.909V307.661H177.493C193.024 284.621 209.237 261.751 225.963 238.711ZM383.317 307.49H346.453V87.3301H271.019C241.323 125.559 213.333 162.423 187.392 198.093C161.451 233.762 135.851 269.943 110.592 306.978V370.637H276.821V430.199H346.453V370.637H383.147L383.317 307.49Z" fill="white"/>
</g>
<defs>
<clipPath id="clip0_2_39">
<rect width="512" height="512" fill="white" transform="translate(0 0.119385)"/>
</clipPath>
</defs>
</svg>
