<svg width="512" height="513" viewBox="0 0 512 513" fill="none" xmlns="http://www.w3.org/2000/svg">
<g clip-path="url(#clip0_2_27)">
<path d="M511.878 256.113C511.882 269.133 510.901 282.134 508.941 295.006C499.51 282.958 490.05 271.016 480.561 259.18C490.302 247.07 500.005 234.815 509.671 222.416C511.141 233.588 511.878 244.845 511.878 256.113ZM140.168 307.524H239.666V168.821C222.339 192.351 205.346 215.631 188.689 238.662C172.024 261.697 155.852 284.651 140.168 307.524ZM387.084 370.648H309.26V430.057H239.664V370.648H73.5094V307.037C98.6659 270.113 124.234 233.843 150.214 198.227C176.191 162.618 204.046 125.696 233.78 87.4626H309.26V307.524H357.015C369.67 291.204 382.383 275.09 395.153 259.18C380.602 241.092 366.129 222.721 351.734 204.067C337.344 185.408 323.187 166.611 309.262 147.674H387.084C402.909 172.266 419.833 197.14 437.857 222.296C455.711 197.383 472.479 172.748 488.163 148.392C463.697 95.6648 422.011 52.8361 369.964 26.9534C317.917 1.07067 258.61 -6.32425 201.801 5.9854C144.992 18.2951 94.0648 49.576 57.3999 94.6812C20.735 139.786 0.516118 196.029 0.070042 254.155C-0.376034 312.28 18.9773 368.827 54.9456 414.489C90.9139 460.152 141.355 492.211 197.968 505.391C254.581 518.571 313.995 512.087 366.433 487.006C418.871 461.925 461.21 419.741 486.482 367.396C471.269 343.874 455.061 320.097 437.857 296.064C419.827 321.223 402.903 346.083 387.084 370.648Z" fill="#004BE1"/>
<path d="M509.671 222.416C506.307 196.791 499.054 171.83 488.163 148.392C472.475 172.741 455.706 197.376 437.857 222.296C419.827 197.137 402.903 172.263 387.084 147.676H309.262C323.19 166.609 337.347 185.406 351.734 204.067C366.129 222.719 380.602 241.09 395.153 259.18C382.377 275.063 369.664 291.177 357.013 307.524H309.26V87.4626H233.782C204.044 125.685 176.188 162.607 150.214 198.227C124.235 233.843 98.6673 270.113 73.5094 307.037V370.648H239.664V430.055H309.26V370.648H387.084C402.909 346.059 419.833 321.197 437.857 296.062C455.082 320.099 471.291 343.876 486.482 367.393C497.546 344.522 505.116 320.121 508.941 295.004C499.511 282.959 490.051 271.018 480.561 259.18C490.347 246.991 500.051 234.736 509.671 222.416ZM239.664 307.524H140.166C155.85 284.657 172.024 261.703 188.689 238.662C205.356 215.627 222.348 192.347 239.664 168.821V307.524Z" fill="white"/>
</g>
<defs>
<clipPath id="clip0_2_27">
<rect width="511.878" height="512" fill="white" transform="translate(0 0.119385)"/>
</clipPath>
</defs>
</svg>
