<svg width="512" height="513" viewBox="0 0 512 513" fill="none" xmlns="http://www.w3.org/2000/svg">
<g clip-path="url(#clip0_2_36)">
<path d="M256 512.119C397.385 512.119 512 397.504 512 256.119C512 114.734 397.385 0.119385 256 0.119385C114.615 0.119385 0 114.734 0 256.119C0 397.504 114.615 512.119 256 512.119Z" fill="#00E5DF"/>
<path d="M364.885 384.973C353.621 401.698 337.408 414.327 316.075 423.202C294.912 432.077 269.141 436.514 239.104 436.514C221.355 436.514 203.776 434.978 186.368 431.906C169.472 428.834 152.917 423.714 137.045 416.887V355.106C167.765 369.271 201.216 376.781 235.008 376.61C258.56 376.61 276.48 372.173 288.597 363.127C300.885 354.082 307.029 341.282 307.029 324.727C307.029 290.765 280.917 273.698 228.523 273.698C215.723 273.698 203.093 274.21 190.464 275.405C177.835 276.599 163.499 278.477 147.627 281.037L164.352 87.3301H364.373V147.575H225.963L219.819 220.621C227.328 219.255 235.179 218.402 242.176 217.89C249.173 217.378 255.659 217.207 261.461 217.207C286.208 217.207 307.712 221.474 325.632 230.007C342.869 237.858 357.376 250.829 367.104 267.042C376.661 283.255 381.611 302.541 381.611 325.069C381.781 348.45 376.149 368.418 364.885 384.973Z" fill="black"/>
</g>
<defs>
<clipPath id="clip0_2_36">
<rect width="512" height="512" fill="white" transform="translate(0 0.119385)"/>
</clipPath>
</defs>
</svg>
