<svg width="512" height="513" viewBox="0 0 512 513" fill="none" xmlns="http://www.w3.org/2000/svg">
<g clip-path="url(#clip0_2_21)">
<path d="M179.125 219.548C186.376 218.269 193.626 217.416 200.876 216.776C207.7 216.349 213.884 216.136 219.642 216.136C243.738 216.136 264.636 220.401 282.122 228.718C298.969 236.608 313.043 249.402 322.426 265.396C331.808 281.389 336.5 300.581 336.5 322.972C336.5 326.81 336.287 330.648 336.073 334.274C341.191 327.663 346.309 320.839 351.427 314.229C365.714 295.676 380.215 277.124 394.929 259.212C380.428 241.086 365.928 222.747 351.427 204.194C337.14 185.642 322.852 166.663 308.991 147.898H184.883L179.125 219.548ZM509.441 221.894C499.632 234.475 489.823 246.843 480.013 259.212C489.609 271.153 499.205 283.308 508.801 295.463C512.427 271.153 512.853 246.417 509.441 221.894ZM386.612 370.525H326.477C324.558 374.577 322.426 378.415 319.867 382.254C308.991 398.673 292.998 411.468 272.526 420.211C251.842 428.954 226.892 433.219 197.678 433.219C180.405 433.219 163.345 431.726 146.499 428.528C130.079 425.329 113.873 420.424 98.5189 413.814V352.613C128.373 366.687 160.786 373.937 193.839 373.937C216.656 373.937 234.142 369.459 246.084 360.503C258.026 351.546 263.997 338.965 263.997 322.332C263.997 288.639 238.621 271.793 187.655 271.793C175.287 271.793 162.919 272.433 150.764 273.499C138.609 274.565 124.535 276.484 108.968 279.043L125.175 87.1232H308.778V147.258H386.612C402.392 171.781 419.452 196.731 437.364 221.894C455.277 196.944 472.123 171.995 487.903 147.685C428.195 19.5247 275.938 -35.9188 147.778 23.7896C19.6185 83.4981 -35.8251 235.755 23.8834 363.915C83.5918 492.075 235.848 547.518 364.008 487.81C417.319 462.86 460.395 420.424 486.197 367.54C470.844 343.87 454.637 319.986 437.364 295.89C419.239 321.266 402.392 346.002 386.612 370.525Z" fill="#00E5DF"/>
<path d="M509.441 221.894C506.029 196.304 498.779 171.355 487.903 147.898C472.123 172.421 455.277 197.157 437.364 222.107C419.239 196.944 402.392 171.994 386.612 147.471H308.778C322.639 166.45 336.926 185.216 351.214 203.768C365.501 222.32 380.002 240.872 394.715 258.785C380.215 276.911 365.714 295.25 351.214 313.802C346.096 320.413 340.978 327.236 335.86 333.847C336.073 330.222 336.286 326.383 336.286 322.545C336.286 300.154 331.595 280.962 322.212 264.969C312.83 248.976 298.755 236.181 281.909 228.291C264.423 219.974 243.525 215.709 219.429 215.709C213.671 215.709 207.487 215.923 200.663 216.349C193.413 216.776 186.162 217.842 178.912 219.121L184.67 147.258H308.565V87.5496H125.174L108.968 279.47C124.535 276.911 138.396 274.991 150.764 273.925C162.919 272.859 175.287 272.219 187.655 272.219C238.407 272.219 263.997 289.066 263.997 322.758C263.997 339.178 258.026 351.973 246.084 360.929C234.142 369.885 216.87 374.363 193.839 374.363C160.786 374.363 128.373 367.113 98.5189 353.039V413.814C113.873 420.637 129.866 425.542 146.499 428.527C163.345 431.726 180.618 433.219 197.678 433.219C226.892 433.219 251.842 428.954 272.526 420.211C293.211 411.468 308.991 398.887 319.867 382.253C322.426 378.628 324.558 374.577 326.477 370.525H386.612C402.392 346.002 419.452 321.052 437.364 295.889C454.637 319.986 471.057 343.869 486.197 367.54C497.286 344.722 504.963 320.413 508.801 295.25C499.205 283.095 489.609 270.94 480.013 258.998C489.823 246.843 499.632 234.475 509.441 221.894Z" fill="black"/>
</g>
<defs>
<clipPath id="clip0_2_21">
<rect width="511.787" height="512" fill="white" transform="translate(0 0.119385)"/>
</clipPath>
</defs>
</svg>
