<svg width="513" height="513" viewBox="0 0 513 513" fill="none" xmlns="http://www.w3.org/2000/svg">
<g clip-path="url(#clip0_2_24)">
<path d="M256.787 512.119C398.172 512.119 512.787 397.504 512.787 256.119C512.787 114.734 398.172 0.119385 256.787 0.119385C115.402 0.119385 0.786743 114.734 0.786743 256.119C0.786743 397.504 115.402 512.119 256.787 512.119Z" fill="#00F320"/>
<path d="M291.773 282.061C301.672 291.789 306.451 305.101 306.451 321.997C306.621 332.407 304.573 342.818 300.136 352.205C296.211 360.567 289.896 367.565 282.045 372.343C273.512 377.293 263.955 379.682 254.056 379.511C234.429 379.511 219.069 372.002 208.147 356.983C197.224 341.965 190.739 319.607 188.691 290.253C197.395 283.085 207.123 277.453 217.704 273.527C228.456 269.602 239.72 267.554 251.155 267.725C268.392 267.725 282.045 272.503 291.773 282.061ZM379.155 322.679C379.155 300.151 374.717 280.695 365.672 264.311C356.938 248.236 343.635 235.11 327.443 226.594C310.888 217.719 291.432 213.282 268.733 213.282C239.891 213.111 211.901 223.01 189.715 241.271C197.224 174.882 230.504 141.602 289.384 141.602C301.672 141.602 313.96 142.797 325.907 145.527C338.195 148.429 350.312 152.354 361.917 157.303V96.7168C349.8 91.4261 337 87.3301 324.2 84.4288C311.229 81.6981 298.088 80.5034 284.947 80.5034C258.835 80.5034 235.283 84.9408 214.291 93.8154C193.811 102.349 175.549 115.319 161.043 132.045C146.365 148.77 135.272 169.079 127.592 192.973C119.912 216.866 115.987 243.661 115.987 273.527C115.987 308.173 121.448 337.698 132.371 361.933C143.293 386.167 159.336 404.599 180.157 417.399C201.149 430.199 226.237 436.514 255.763 436.514C272.829 436.855 289.725 434.125 305.939 428.493C320.275 423.543 333.587 415.693 345.021 405.453C355.944 395.554 364.648 383.266 370.28 369.613C376.424 354.765 379.325 338.722 379.155 322.679Z" fill="black"/>
</g>
<defs>
<clipPath id="clip0_2_24">
<rect width="512" height="512" fill="white" transform="translate(0.786743 0.119385)"/>
</clipPath>
</defs>
</svg>
