<svg width="512" height="513" viewBox="0 0 512 513" fill="none" xmlns="http://www.w3.org/2000/svg">
<g clip-path="url(#clip0_2_18)">
<path d="M512 256.119C512 397.431 397.312 512.119 256 512.119C114.688 512.119 0 397.431 0 256.119C0 114.807 114.688 0.119385 256 0.119385C397.312 0.119385 512 114.807 512 256.119Z" fill="#C100BB"/>
<path d="M302.251 287.693H207.531C222.891 243.319 238.763 199.287 255.147 155.426C262.997 176.759 271.019 198.605 279.04 220.791C287.061 242.978 294.741 265.335 302.251 287.693ZM91.648 402.893H168.96C174.933 384.802 180.736 366.882 186.709 348.962H323.413C329.387 366.711 335.36 384.631 341.333 402.893H420.181C401.749 352.717 382.805 302.37 363.349 251.853C341.163 194.509 318.464 137.335 295.253 80.5034H216.917C194.219 134.434 171.861 190.071 149.675 247.245C130.048 298.103 110.763 349.986 91.648 402.893Z" fill="white"/>
</g>
<defs>
<clipPath id="clip0_2_18">
<rect width="512" height="512" fill="white" transform="translate(0 0.119385)"/>
</clipPath>
</defs>
</svg>
