<svg width="512" height="513" viewBox="0 0 512 513" fill="none" xmlns="http://www.w3.org/2000/svg">
<g clip-path="url(#clip0_2_13)">
<path d="M256 512.119C337.872 512.119 410.592 473.543 457.456 413.719C458.432 319.527 435.904 197.095 430.208 179.543C416.816 138.343 395.04 121.175 366.992 116.247C330.544 109.847 243.52 102.055 189.888 102.055C180.24 102.055 171.68 102.311 164.688 102.871C121.792 106.295 93.4721 138.311 82.5921 175.047C60.9441 248.103 51.8401 343.783 52.0161 410.343C98.7521 472.055 172.608 512.119 256 512.119Z" fill="url(#paint0_linear_2_13)"/>
<path d="M51.9363 410.695C18.1589 366.25 -0.0879361 311.943 0.000318646 256.119C0.000318646 114.727 114.608 0.119141 256 0.119141C397.392 0.119141 512 114.727 512 256.119C512 315.735 491.6 370.583 457.44 414.103L457.472 413.719C458.448 319.527 435.92 197.095 430.224 179.543C416.832 138.343 395.056 121.175 367.008 116.247C330.56 109.847 243.536 102.055 189.904 102.055C180.256 102.055 171.696 102.311 164.704 102.871C121.808 106.295 93.4883 138.311 82.6083 175.047C60.9603 248.103 51.8563 343.783 52.0323 410.343L51.9363 410.695Z" fill="#1079EB"/>
<path d="M247.36 261.255L343.696 255.719C346.891 255.516 350.047 256.515 352.544 258.519C353.726 259.464 354.701 260.642 355.408 261.98C356.115 263.318 356.54 264.786 356.656 266.295C358.528 296.999 333.216 323.319 300.016 325.239C266.816 327.143 238.176 303.927 235.92 273.255C235.824 271.753 236.045 270.247 236.569 268.836C237.093 267.425 237.907 266.139 238.96 265.063C241.171 262.768 244.176 261.405 247.36 261.255ZM267.04 226.567C265.939 226.567 264.849 226.35 263.832 225.929C262.814 225.508 261.89 224.89 261.112 224.111C260.333 223.333 259.715 222.409 259.294 221.392C258.873 220.374 258.656 219.284 258.656 218.183C258.656 204.567 247.328 193.495 233.408 193.495C219.488 193.495 208.16 204.567 208.16 218.183C208.16 220.407 207.277 222.539 205.704 224.111C204.132 225.684 202 226.567 199.776 226.567C197.552 226.567 195.42 225.684 193.848 224.111C192.275 222.539 191.392 220.407 191.392 218.183C191.392 195.319 210.24 176.711 233.408 176.711C256.576 176.711 275.44 195.319 275.44 218.183C275.436 220.408 274.549 222.541 272.974 224.112C271.399 225.684 269.265 226.567 267.04 226.567ZM385.792 225.351C383.568 225.351 381.436 224.468 379.864 222.895C378.291 221.323 377.408 219.191 377.408 216.967C377.408 203.351 366.08 192.279 352.16 192.279C338.24 192.279 326.912 203.351 326.912 216.967C326.912 219.191 326.029 221.323 324.456 222.895C322.884 224.468 320.752 225.351 318.528 225.351C316.304 225.351 314.172 224.468 312.6 222.895C311.027 221.323 310.144 219.191 310.144 216.967C310.144 194.103 329.008 175.495 352.176 175.495C375.344 175.495 394.208 194.103 394.208 216.967C394.2 219.194 393.309 221.326 391.732 222.897C390.154 224.469 388.018 225.351 385.792 225.351Z" fill="black"/>
<path d="M318.72 289.479C329.281 288.81 339.701 292.179 347.872 298.903C334.064 319.815 307.12 329.975 281.424 323.943C282.72 305.431 298.688 290.679 318.72 289.479Z" fill="#E52530"/>
</g>
<defs>
<linearGradient id="paint0_linear_2_13" x1="254.752" y1="102.071" x2="254.752" y2="583.447" gradientUnits="userSpaceOnUse">
<stop stop-color="#FFE725"/>
<stop offset="0.007" stop-color="#FFE725"/>
<stop offset="0.422" stop-color="#FEE525"/>
<stop offset="0.584" stop-color="#FDDE25"/>
<stop offset="0.703" stop-color="#FBD125"/>
<stop offset="0.8" stop-color="#F8C025"/>
<stop offset="0.884" stop-color="#F5AA25"/>
<stop offset="0.957" stop-color="#F18E25"/>
<stop offset="1" stop-color="#EE7B25"/>
</linearGradient>
<clipPath id="clip0_2_13">
<rect width="512" height="512" fill="white" transform="translate(0 0.119141)"/>
</clipPath>
</defs>
</svg>
