<svg width="512" height="513" viewBox="0 0 512 513" fill="none" xmlns="http://www.w3.org/2000/svg">
<g clip-path="url(#clip0_2_102)">
<path d="M256 0.119141C397.312 0.119141 512 114.807 512 256.119C512 397.431 397.312 512.119 256 512.119C114.688 512.119 0 397.431 0 256.119C0 114.807 114.688 0.119141 256 0.119141Z" fill="#008482"/>
<path d="M77.4827 293.495C72.192 293.495 67.072 292.642 62.1227 290.935C57.856 289.399 53.9307 286.839 50.688 283.597C47.4454 280.183 45.056 276.258 43.52 271.821C41.8134 266.701 40.96 261.41 40.96 256.119C40.96 250.829 41.8134 245.709 43.52 240.759C46.7627 231.714 53.76 224.717 62.8054 221.474C67.7547 219.597 72.8747 218.743 78.1654 218.914C81.92 218.914 85.6747 219.255 89.2587 220.109C92.672 220.962 95.9147 222.157 98.9867 223.693V237.858C96.256 235.981 93.184 234.615 90.112 233.591C86.8694 232.567 83.456 232.055 80.0427 232.226C75.776 232.055 71.5094 233.079 67.584 234.957C64.1707 236.834 61.44 239.565 59.7334 242.978C57.856 247.074 56.832 251.511 57.0027 255.949C56.832 260.386 57.856 264.823 59.7334 268.919C61.44 272.333 64 275.234 67.4134 277.111C71.168 279.159 75.4347 280.013 79.7014 279.842C86.8694 279.842 94.0373 277.794 100.011 273.869V287.693C96.768 289.399 93.3547 290.765 89.7707 291.618C85.8454 292.813 81.5787 293.495 77.4827 293.495ZM146.432 264.994V292.13H131.072V264.994C126.464 257.655 121.856 250.317 117.419 242.978C112.981 235.639 108.544 228.13 104.277 220.621H121.685C124.416 225.911 127.147 231.202 130.048 236.322C132.949 241.613 135.851 246.733 138.752 251.853C141.824 246.733 144.725 241.442 147.627 236.151C150.528 230.861 153.259 225.741 156.16 220.45H173.227C168.96 227.959 164.523 235.298 160.085 242.807C155.648 250.317 151.04 257.655 146.432 264.994ZM211.627 278.647C208.725 272.845 205.824 266.871 203.093 261.069C200.363 255.095 197.461 249.293 194.731 243.49V291.959H180.053V220.45H198.485C201.557 227.789 204.8 235.127 208.043 242.295C211.285 249.634 214.699 256.802 218.112 263.97C221.525 256.802 224.768 249.634 228.011 242.466C231.253 235.298 234.496 227.959 237.568 220.45H255.488V291.959H240.811V243.149C238.08 249.122 235.349 255.095 232.448 260.898C229.547 266.871 226.816 272.674 223.915 278.477L211.627 278.647ZM282.795 266.018V291.959H267.605V220.45H293.547C302.933 220.45 310.101 222.498 315.221 226.423C320.171 230.349 322.731 235.981 322.731 243.319C322.901 247.586 321.707 251.853 319.317 255.437C316.928 258.85 313.685 261.581 309.76 263.117C312.832 267.895 315.733 272.674 318.635 277.282C321.536 282.061 324.437 286.839 327.509 291.959H309.76C304.981 283.085 300.032 274.551 294.912 266.018H282.795ZM282.795 253.901H292.864C296.619 254.071 300.373 253.218 303.616 251.341C306.176 249.463 307.541 246.391 307.371 243.319C307.541 240.247 306.176 237.175 303.787 235.298C300.544 233.421 296.789 232.397 293.035 232.738H282.965L282.795 253.901ZM363.52 293.495C357.888 293.666 352.256 292.471 347.136 289.911C342.699 287.522 338.944 283.938 336.725 279.33C334.165 274.21 332.971 268.578 333.141 262.775V220.621H348.501V264.482C348.16 268.749 349.696 272.845 352.427 276.087C358.912 281.549 368.469 281.549 374.955 276.087C377.685 272.845 379.051 268.749 378.88 264.482V220.621H394.24V262.775C394.411 268.578 393.216 274.21 390.656 279.33C388.267 283.767 384.512 287.522 380.075 289.911C374.955 292.301 369.323 293.495 363.52 293.495ZM471.04 278.989V291.959H422.059V289.229C422.059 285.986 422.4 282.743 422.912 279.671C423.424 276.941 424.448 274.21 425.984 271.821C427.691 269.261 429.568 266.871 431.787 264.653C434.517 262.093 437.589 259.703 440.832 257.655C443.563 255.949 446.123 254.071 448.512 252.023C450.048 250.829 451.413 249.122 452.437 247.415C453.12 246.05 453.632 244.343 453.632 242.807C453.632 236.663 449.707 233.762 442.027 233.762C438.784 233.762 435.712 234.274 432.64 235.298C429.397 236.493 426.496 238.029 423.765 240.077V226.765C427.008 224.887 430.421 223.351 434.005 222.327C437.76 221.303 441.515 220.962 445.269 220.962C449.536 220.791 453.973 221.645 457.899 223.351C461.312 224.717 464.213 227.106 466.261 230.178C468.309 233.25 469.333 236.834 469.333 240.589C469.333 242.978 469.163 245.367 468.48 247.757C467.968 249.975 467.115 251.853 465.749 253.73C464.213 255.778 462.507 257.655 460.629 259.191C458.069 261.41 455.339 263.287 452.437 265.165C449.877 266.701 447.659 268.407 445.269 270.114C443.563 271.479 442.027 273.015 440.661 274.551C439.467 275.917 438.613 277.453 437.931 279.159L471.04 278.989Z" fill="white"/>
</g>
<defs>
<clipPath id="clip0_2_102">
<rect width="512" height="512" fill="white" transform="translate(0 0.119141)"/>
</clipPath>
</defs>
</svg>
