<svg width="512" height="513" viewBox="0 0 512 513" fill="none" xmlns="http://www.w3.org/2000/svg">
<g clip-path="url(#clip0_2_99)">
<path d="M256 0.119141C397.312 0.119141 512 114.807 512 256.119C512 397.431 397.312 512.119 256 512.119C114.688 512.119 0 397.431 0 256.119C0 114.807 114.688 0.119141 256 0.119141Z" fill="#2B6ECC"/>
<path d="M87.2107 300.834C80.896 301.004 74.752 299.81 68.7787 297.762C63.488 295.884 58.88 292.812 54.9547 288.887C51.0293 284.791 48.128 280.012 46.2507 274.722C44.2027 268.748 43.1787 262.263 43.1787 255.948C43.008 249.634 44.2027 243.319 46.2507 237.516C50.176 226.764 58.7093 218.231 69.4613 214.306C75.4347 212.087 81.5787 211.063 87.8933 211.234C92.3307 211.234 96.9387 211.746 101.376 212.77C105.472 213.794 109.397 215.159 113.152 217.207V234.274C109.909 232.055 106.325 230.348 102.4 229.154C98.4747 227.959 94.3787 227.447 90.2827 227.447C85.1627 227.276 79.872 228.471 75.264 230.86C71.168 233.079 67.9253 236.492 65.7067 240.588C63.3173 245.367 62.2933 250.658 62.464 256.119C62.2933 261.41 63.3173 266.871 65.7067 271.65C67.7547 275.746 70.9973 279.159 74.9227 281.378C79.5307 283.767 84.48 284.962 89.6 284.791C98.304 284.791 106.667 282.402 114.005 277.623V294.348C110.08 296.396 105.984 298.103 101.717 299.127C97.1093 300.322 92.16 301.004 87.2107 300.834ZM170.325 266.53V299.127H151.723V266.53C146.091 257.655 140.629 248.78 135.168 239.906C129.877 231.031 124.587 221.986 119.467 213.111H140.459C143.701 219.426 147.115 225.74 150.699 232.055C154.112 238.37 157.696 244.684 161.28 250.828C164.864 244.514 168.448 238.37 171.861 232.055L182.101 213.111H202.581C197.291 222.156 192 231.031 186.709 239.906C181.419 248.78 175.957 257.655 170.325 266.53ZM248.832 283.084C245.248 276.087 241.835 268.919 238.421 261.922C235.008 254.754 231.765 247.756 228.523 240.759V299.127H210.773V213.111H232.96C236.715 221.986 240.64 230.69 244.565 239.564C248.491 248.268 252.416 256.972 256.512 265.676C260.437 257.143 264.533 248.439 268.459 239.735C272.384 231.031 276.139 222.156 279.893 213.282H301.568V299.298H283.819V240.588C280.576 247.756 277.163 254.924 273.749 262.092C270.336 269.26 266.923 276.258 263.509 283.255H248.832V283.084ZM334.336 267.895V299.127H316.075V213.111H347.477C358.741 213.111 367.445 215.5 373.589 220.279C379.563 225.058 382.635 231.714 382.635 240.588C382.805 245.708 381.44 250.828 378.539 255.095C375.637 259.191 371.712 262.434 367.104 264.311C370.688 269.943 374.272 275.746 377.856 281.378C381.44 287.18 384.853 292.983 388.437 298.956H367.104C361.301 288.375 355.328 277.964 349.184 267.724L334.336 267.895ZM334.336 253.218H346.283C351.915 253.218 356.352 252.194 359.253 250.146C362.325 247.927 364.032 244.172 363.691 240.418C364.032 236.663 362.325 232.908 359.253 230.69C356.352 228.642 352.085 227.618 346.283 227.618H334.165L334.336 253.218ZM431.445 300.834C424.619 301.004 417.792 299.468 411.648 296.396C406.187 293.495 401.92 289.058 399.019 283.767C395.947 277.623 394.411 270.796 394.581 263.799V213.111H413.013V265.847C413.013 271.991 414.549 276.599 417.792 279.842C421.035 283.084 425.472 284.791 431.275 284.791C437.077 284.791 441.685 283.084 444.757 279.842C448 276.599 449.536 271.991 449.536 265.847V213.111H467.968V263.799C468.139 270.796 466.603 277.623 463.531 283.767C460.629 289.228 456.192 293.666 450.901 296.396C445.099 299.639 438.272 301.004 431.445 300.834Z" fill="white"/>
</g>
<defs>
<clipPath id="clip0_2_99">
<rect width="512" height="512" fill="white" transform="translate(0 0.119141)"/>
</clipPath>
</defs>
</svg>
