<svg width="512" height="513" viewBox="0 0 512 513" fill="none" xmlns="http://www.w3.org/2000/svg">
<g clip-path="url(#clip0_2_88)">
<path d="M256 0.119141C397.312 0.119141 512 114.807 512 256.119C512 397.431 397.312 512.119 256 512.119C114.688 512.119 0 397.431 0 256.119C0 114.807 114.688 0.119141 256 0.119141Z" fill="#00874A"/>
<path d="M69.9733 213.282H127.317V228.642H88.4053V249.804H122.709V265.164H88.4053V299.127H69.9733V213.282ZM177.664 211.575C183.637 211.404 189.611 212.599 195.243 214.647C200.363 216.524 204.971 219.596 208.725 223.522C212.48 227.618 215.381 232.226 217.259 237.516C221.184 249.634 221.184 262.434 217.259 274.551C215.381 279.842 212.48 284.62 208.725 288.716C204.971 292.642 200.363 295.714 195.243 297.762C183.808 301.858 171.52 301.858 160.085 297.762C154.965 295.714 150.357 292.642 146.603 288.716C142.848 284.62 139.947 279.842 138.069 274.551C134.144 262.434 134.144 249.634 138.069 237.516C139.947 232.226 142.848 227.447 146.603 223.522C150.357 219.596 154.965 216.524 160.085 214.647C165.717 212.428 171.691 211.404 177.664 211.575ZM177.664 284.962C182.101 285.132 186.539 283.938 190.293 281.548C193.877 279.159 196.608 275.746 198.315 271.82C202.069 261.751 202.069 250.828 198.315 240.759C196.608 236.834 193.877 233.42 190.293 231.031C182.443 226.594 172.885 226.594 165.035 231.031C161.451 233.42 158.72 236.834 157.013 240.759C153.259 250.828 153.259 261.751 157.013 271.82C158.72 275.746 161.451 279.159 165.035 281.548C168.789 283.938 173.227 285.132 177.664 284.962ZM269.141 266.7V299.298H250.539V266.7C244.907 257.826 239.445 248.951 233.984 240.076C228.693 231.202 223.403 222.156 218.283 213.282H239.275C242.517 219.596 245.931 225.911 249.515 232.226C252.928 238.54 256.512 244.855 260.096 250.999C263.68 244.684 267.264 238.54 270.677 232.226L280.917 213.282H301.397C296.107 222.327 290.816 231.202 285.525 240.076C280.235 248.951 274.773 257.826 269.141 266.7ZM310.613 213.282H329.216V283.084H370.005V299.127H310.613V213.282ZM380.587 213.282H439.808V228.642H399.189V247.244H435.2V262.604H399.189V283.767H442.027V299.127H380.587V213.282Z" fill="white"/>
</g>
<defs>
<clipPath id="clip0_2_88">
<rect width="512" height="512" fill="white" transform="translate(0 0.119141)"/>
</clipPath>
</defs>
</svg>
