<svg width="512" height="513" viewBox="0 0 512 513" fill="none" xmlns="http://www.w3.org/2000/svg">
<g clip-path="url(#clip0_2_78)">
<path d="M512 256.119C512 397.431 397.312 512.119 256 512.119C114.688 512.119 0 397.431 0 256.119C0 114.807 114.688 0.119141 256 0.119141C397.312 0.119141 512 114.807 512 256.119Z" fill="#007CC2"/>
<path d="M467.797 316.023V327.287H426.667V267.554H439.467V316.023H467.797ZM129.877 261.751H141.824C139.947 259.874 137.899 257.996 135.851 256.119C133.803 254.242 131.755 252.364 129.877 250.828L115.712 250.999C118.443 252.876 121.003 254.754 123.392 256.631C125.781 258.508 128 260.215 129.877 261.751ZM74.5813 294.178V304.247H85.3333V316.194C83.968 316.706 82.432 317.047 80.896 317.218C79.36 317.388 77.9946 317.559 76.4586 317.559C71.3386 317.9 66.2187 315.852 62.6347 312.268C59.2213 308.172 57.5147 302.882 57.856 297.42C57.856 293.666 58.5387 290.082 60.2453 286.668C61.7813 283.767 64.1707 281.378 67.072 279.842C70.3146 278.135 74.0693 277.282 77.824 277.452C81.0666 277.452 84.3093 277.794 87.552 278.647C90.4533 279.5 93.3547 280.695 95.9147 282.231V270.455C93.0133 269.09 89.9413 268.066 86.6987 267.383C83.2853 266.7 79.7013 266.359 76.288 266.359C71.8507 266.359 67.4133 267.042 63.1467 268.578C55.4667 271.308 49.4933 277.111 46.592 284.62C45.056 288.716 44.3733 292.983 44.3733 297.42C44.2027 301.858 44.8853 306.295 46.4213 310.391C48.9813 317.9 54.9546 323.874 62.464 326.434C66.7306 327.799 71.168 328.482 75.6053 328.482C78.1653 328.482 80.896 328.311 83.456 327.97C86.016 327.628 88.576 326.946 90.9653 326.263C93.184 325.58 95.4026 324.727 97.4506 323.703L97.28 294.178H74.5813ZM152.064 297.591C155.989 307.66 159.744 317.559 163.499 327.458L149.333 327.287C147.968 322.85 146.432 318.583 145.067 314.316H120.661C119.296 318.583 117.76 322.85 116.395 327.287H102.571C106.325 316.876 110.251 306.636 114.176 296.738C118.101 286.839 122.027 277.111 126.123 267.724H139.947C144.043 277.623 148.139 287.522 152.064 297.591ZM141.141 303.564C139.776 299.639 138.411 295.714 137.045 291.959C135.68 288.034 134.144 284.279 132.779 280.524C129.877 288.204 127.147 295.884 124.416 303.564H141.141ZM303.787 202.359C308.053 208.844 312.491 215.671 316.928 222.668C321.365 229.495 325.803 236.492 330.069 243.49L343.211 243.66V183.927H330.923V224.716C326.485 217.719 322.219 210.892 317.781 204.066C313.344 197.239 308.907 190.412 304.469 183.756H291.499V243.49H303.787V202.359ZM181.248 202.359C185.515 208.844 189.952 215.671 194.389 222.668C198.827 229.495 203.264 236.492 207.531 243.49L220.672 243.66V183.927H208.384V224.716C203.947 217.719 199.68 210.892 195.243 204.066C190.805 197.239 186.368 190.412 181.931 183.756H168.96V243.49H181.248V202.359ZM239.787 243.49H225.963C229.717 233.079 233.643 222.839 237.568 212.94C241.493 203.042 245.419 193.314 249.515 183.927H263.339C267.435 193.826 271.531 203.724 275.456 213.794C279.381 223.863 283.136 233.762 286.891 243.66L272.555 243.49C271.189 239.052 269.653 234.786 268.288 230.519H244.053C242.688 234.786 241.152 239.052 239.787 243.49ZM247.637 219.938H264.363C262.997 216.012 261.632 212.087 260.267 208.332C258.901 204.407 257.365 200.652 256 196.898C253.099 204.578 250.368 212.258 247.637 219.938ZM410.283 297.591C414.208 307.66 417.963 317.559 421.717 327.458L407.381 327.287C406.016 322.85 404.48 318.583 403.115 314.316H378.88C377.515 318.583 375.979 322.85 374.613 327.287H360.789C364.544 316.876 368.469 306.636 372.395 296.738C376.32 286.839 380.245 277.111 384.341 267.724H398.165C402.261 277.623 406.357 287.522 410.283 297.591ZM399.189 303.564C397.824 299.639 396.459 295.714 395.093 291.959C393.728 288.034 392.192 284.279 390.827 280.524C387.925 288.204 385.195 295.884 382.464 303.564H399.189ZM326.144 302.028H351.232V291.276H326.144V278.306H354.304V267.554H313.344V327.458H356.011V316.706H326.144V302.028ZM241.835 281.207C246.443 291.447 246.443 303.223 241.835 313.463C239.616 317.9 236.032 321.484 231.595 323.703C226.645 326.263 221.013 327.458 215.381 327.287H192.683V267.554H215.381C221.013 267.383 226.645 268.578 231.595 271.138C235.861 273.356 239.445 276.94 241.835 281.207ZM231.936 297.25C232.277 292.3 230.741 287.351 227.499 283.426C224.085 280.012 219.477 278.306 214.699 278.647H205.483V316.194H214.699C219.477 316.535 224.085 314.658 227.499 311.244C230.571 307.319 232.277 302.37 231.936 297.25ZM290.987 290.423H265.045V267.554H252.245V327.287H265.045V301.687H290.987V327.287H303.787V267.554H290.987V290.423ZM169.131 327.287H181.931V267.554H169.131V327.287Z" fill="white"/>
</g>
<defs>
<clipPath id="clip0_2_78">
<rect width="512" height="512" fill="white" transform="translate(0 0.119141)"/>
</clipPath>
</defs>
</svg>
