<svg width="512" height="513" viewBox="0 0 512 513" fill="none" xmlns="http://www.w3.org/2000/svg">
<g clip-path="url(#clip0_3_10)">
<mask id="mask0_3_10" style="mask-type:luminance" maskUnits="userSpaceOnUse" x="0" y="0" width="512" height="513">
<path d="M0 0.119385H512V512.119H0V0.119385Z" fill="white"/>
</mask>
<g mask="url(#mask0_3_10)">
<path d="M256 0.119385C397.312 0.119385 512 114.807 512 256.119C512 397.431 397.312 512.119 256 512.119C114.688 512.119 0 397.431 0 256.119C0 114.807 114.688 0.119385 256 0.119385Z" fill="#EB0000"/>
<path d="M138.955 298.12C132.723 288.187 126.442 278.283 120.114 268.411C113.912 258.733 107.631 249.107 101.272 239.532V298.12H83.6216V213.319H102.224C108.642 222.853 114.981 232.439 121.242 242.077C127.483 251.682 133.707 261.43 139.907 271.315V213.319H157.554V298.12H138.952H138.955ZM174.331 213.319H232.948V228.5H192.681V246.879H228.422V262.062H192.681V282.938H235.216V298.12H174.331V213.319ZM316.073 298.12C310.704 279.046 305.56 259.909 300.643 240.713C298.271 250.279 295.813 259.852 293.282 269.416C290.746 279.004 288.136 288.573 285.45 298.12H266.107C262.045 284.177 258.168 270.181 254.476 256.135C250.74 241.917 247.219 227.644 243.915 213.319H263.856C265.838 224.332 267.935 235.322 270.147 246.291C272.325 257.117 274.659 267.912 277.147 278.671C282.423 258.135 287.447 237.535 292.221 216.876H310.023C314.762 237.098 319.747 257.261 324.975 277.362C327.377 266.792 329.671 256.198 331.856 245.581C334.063 234.856 336.12 224.101 338.028 213.319H357.61C354.305 227.644 350.784 241.917 347.047 256.135C343.36 270.182 339.483 284.178 335.416 298.12H316.073ZM392.75 299.977C388.074 299.977 383.461 299.457 378.904 298.434C374.329 297.398 369.912 295.759 365.769 293.56V277.161C374.243 282.306 383.237 284.88 392.75 284.88C398.138 284.88 402.239 283.969 405.053 282.148C407.868 280.325 409.276 277.792 409.276 274.548C409.276 272.094 408.579 270.169 407.197 268.786C405.806 267.402 403.966 266.293 401.673 265.462C399.139 264.559 396.562 263.785 393.95 263.144C389.272 262.033 385.155 260.77 381.59 259.34C378.025 257.916 375.011 256.23 372.557 254.288C370.101 252.348 368.239 250.013 366.968 247.28C365.696 244.546 365.065 241.278 365.065 237.474C365.065 232.088 366.432 227.452 369.166 223.577C371.9 219.701 375.762 216.704 380.759 214.61C385.748 212.517 391.695 211.461 398.587 211.461C403.103 211.461 407.54 211.981 411.897 213.004C416.254 214.035 420.18 215.417 423.665 217.159V233.318C420.18 231.176 416.239 229.514 411.841 228.331C407.521 227.153 403.064 226.554 398.587 226.55C393.75 226.55 390.007 227.381 387.354 229.043C384.7 230.705 383.372 233.079 383.372 236.172C383.372 238.394 384.003 240.152 385.275 241.462C386.538 242.773 388.345 243.836 390.68 244.668C393.015 245.499 395.773 246.313 398.939 247.105C402.75 248.066 406.516 249.196 410.226 250.492C413.713 251.723 416.782 253.281 419.436 255.184C422.064 257.051 424.188 259.542 425.615 262.432C427.08 265.364 427.815 268.969 427.815 273.244C427.815 278.871 426.424 283.682 423.658 287.677C420.883 291.681 416.886 294.726 411.65 296.828C406.421 298.929 400.121 299.977 392.75 299.977Z" fill="white"/>
</g>
</g>
<defs>
<clipPath id="clip0_3_10">
<rect width="512" height="512" fill="white" transform="translate(0 0.119385)"/>
</clipPath>
</defs>
</svg>
