<svg width="512" height="513" viewBox="0 0 512 513" fill="none" xmlns="http://www.w3.org/2000/svg">
<g clip-path="url(#clip0_2_69)">
<path d="M512 256.119C512 397.431 397.312 512.119 256 512.119C114.688 512.119 0 397.431 0 256.119C0 114.807 114.688 0.119385 256 0.119385C397.312 0.119385 512 114.807 512 256.119Z" fill="#7826FC"/>
<path d="M75.264 218.402C80.384 218.402 85.3333 219.256 90.112 220.962C94.3786 222.669 98.304 225.229 101.547 228.472C104.789 231.885 107.179 235.981 108.715 240.418C112.128 250.658 112.128 261.581 108.715 271.821C107.179 276.258 104.619 280.354 101.547 283.768C98.304 287.181 94.5493 289.741 90.112 291.448C80.5546 295.032 69.9733 295.032 60.416 291.448C56.1493 289.741 52.224 287.181 48.9813 283.768C45.7386 280.354 43.3493 276.258 41.8133 271.821C38.4 261.581 38.4 250.658 41.8133 240.418C43.3493 235.981 45.9093 231.885 48.9813 228.472C52.224 225.229 55.9786 222.498 60.416 220.962C65.1946 219.085 70.144 218.232 75.264 218.402ZM75.264 280.354C79.0186 280.525 82.7733 279.501 85.8453 277.453C88.9173 275.405 91.3066 272.504 92.672 269.09C95.744 260.557 95.744 251.341 92.672 242.978C91.3066 239.565 88.9173 236.664 85.8453 234.786C79.1893 231.032 71.168 231.032 64.512 234.786C61.44 236.834 59.0506 239.565 57.6853 242.978C54.6133 251.512 54.6133 260.728 57.6853 269.09C59.0506 272.504 61.44 275.405 64.512 277.453C67.7546 279.501 71.5093 280.354 75.264 280.354ZM139.093 266.018V292.472H123.733V219.938H150.187C159.744 219.938 167.083 221.986 172.203 225.912C177.323 229.837 179.883 235.64 179.883 242.978C180.224 251.853 174.933 259.874 166.741 263.117C169.813 267.896 172.885 272.674 175.787 277.624C178.688 282.573 181.76 287.352 184.661 292.472H166.741C161.963 283.597 156.843 274.722 151.552 266.018H139.093ZM139.093 253.73H149.163C152.917 253.901 156.843 253.048 160.085 251.17C162.645 249.293 164.011 246.221 163.84 242.978C164.011 239.736 162.645 236.664 160.085 234.786C157.696 233.08 153.941 232.226 149.163 232.226H138.923L139.093 253.73ZM212.992 261.069H209.237V292.301H193.707V219.768H209.237V247.928H213.333C217.6 243.149 221.867 238.37 225.792 233.762C229.717 229.154 233.643 224.546 237.568 219.768H256.341C251.392 225.57 246.443 231.202 241.493 236.834C236.544 242.466 231.424 248.098 226.133 253.901C231.765 260.216 237.227 266.53 242.688 272.845C248.149 279.16 253.611 285.645 259.243 292.301H239.445C235.179 287.01 230.912 281.89 226.645 276.77C222.379 271.65 217.6 266.53 212.992 261.069ZM314.709 292.472C309.419 284.109 304.128 275.576 298.667 267.042C293.205 258.509 287.915 250.317 282.624 242.296V292.472H267.605V219.938H283.477C288.939 228.13 294.4 236.322 299.691 244.514C304.981 252.706 310.272 261.069 315.563 269.602V219.938H330.581V292.472H314.709ZM345.941 219.768H395.947V232.738H361.643V248.44H392.021V261.41H361.472V279.33H397.653V292.301H345.771V219.768H345.941ZM445.44 264.824V292.301H429.739V264.824C424.96 257.314 420.352 249.805 415.915 242.466C411.307 234.957 406.869 227.448 402.603 219.768H420.352C423.083 225.058 425.984 230.52 428.885 235.81C431.787 241.101 434.688 246.392 437.76 251.682C440.832 246.392 443.733 241.101 446.635 235.81C449.536 230.52 452.437 225.229 455.168 219.768H472.747C468.309 227.277 463.872 234.957 459.264 242.466C454.827 249.976 450.219 257.485 445.44 264.824Z" fill="white"/>
</g>
<defs>
<clipPath id="clip0_2_69">
<rect width="512" height="512" fill="white" transform="translate(0 0.119385)"/>
</clipPath>
</defs>
</svg>
