<svg width="512" height="513" viewBox="0 0 512 513" fill="none" xmlns="http://www.w3.org/2000/svg">
<g clip-path="url(#clip0_2_75)">
<path d="M256 0.119385C397.312 0.119385 512 114.807 512 256.119C512 397.431 397.312 512.119 256 512.119C114.688 512.119 0 397.431 0 256.119C0 114.807 114.688 0.119385 256 0.119385Z" fill="#7826FC"/>
<path d="M92.8426 223.352C93.8666 225.4 94.208 227.789 94.208 230.008C94.3786 233.25 93.3546 236.322 91.648 238.882C89.7706 241.442 87.2106 243.49 84.1386 244.514C80.384 245.88 76.4586 246.562 72.3626 246.392C69.4613 246.392 66.56 246.05 63.8293 245.368C60.928 244.685 58.1973 243.661 55.6373 242.296V232.056C60.5866 235.128 66.3893 236.834 72.3626 236.834C75.0933 237.005 77.6533 236.322 80.0426 235.128C81.7493 234.104 82.7733 232.397 82.6026 230.349C82.6026 228.984 82.2613 227.789 81.2373 226.765C80.2133 225.912 79.0186 225.058 77.824 224.717C76.4586 224.205 74.752 223.693 73.0453 223.352C70.4853 222.84 67.9253 221.986 65.3653 220.962C63.3173 220.28 61.44 219.085 59.7333 217.89C58.1973 216.696 57.1733 215.16 56.32 213.453C55.4666 211.576 55.1253 209.528 55.1253 207.309C55.1253 204.237 55.9786 201.165 57.6853 198.605C59.5005 196.094 61.984 194.142 64.8533 192.973C68.4373 191.608 72.192 190.925 75.9466 191.096C78.6773 191.096 81.5786 191.437 84.3093 192.12C86.8693 192.632 89.2586 193.485 91.648 194.68V204.749C89.4293 203.384 86.8693 202.36 84.3093 201.677C81.5786 200.994 78.848 200.482 76.1173 200.653C73.728 200.482 71.3386 200.994 69.12 202.189C67.584 203.042 66.56 204.749 66.7306 206.626C66.7306 207.821 67.072 209.016 67.9253 209.869C68.9493 210.722 70.144 211.405 71.3386 211.917L76.4586 213.453C79.0186 214.136 81.2373 214.818 83.456 215.501C85.504 216.184 87.3813 217.208 89.2586 218.402C90.7946 219.938 91.9893 221.474 92.8426 223.352ZM149.163 297.08H171.349V287.693H149.163V276.258H174.08V266.872H137.899V319.608H175.616V310.221H149.163V297.08ZM142.848 242.637V232.397C138.411 235.298 133.12 236.834 127.829 236.834C124.757 237.005 121.515 236.152 118.784 234.786C116.395 233.421 114.347 231.373 113.152 228.813C111.787 225.741 111.104 222.498 111.275 219.256C111.104 216.013 111.957 212.77 113.323 209.698C114.688 207.138 116.565 205.09 119.125 203.725C122.027 202.189 125.099 201.506 128.341 201.677C130.901 201.677 133.461 202.018 135.851 202.701C138.24 203.384 140.459 204.408 142.507 205.773V195.362C140.288 194.168 137.728 193.314 135.339 192.632C132.608 191.949 129.877 191.778 127.147 191.778C123.221 191.778 119.467 192.461 115.883 193.656C109.227 196.045 104.107 201.336 101.717 207.821C100.352 211.405 99.6693 215.33 99.84 219.085C99.84 223.01 100.352 226.936 101.717 230.69C102.912 233.933 104.619 236.834 107.008 239.394C109.397 241.784 112.299 243.661 115.541 244.856C119.125 246.221 123.051 246.733 126.805 246.733C129.877 246.733 132.779 246.392 135.851 245.709C138.069 244.856 140.629 243.832 142.848 242.637ZM219.819 245.538H231.253V202.701H247.808V192.802H203.264V202.701H219.819V245.538ZM308.736 245.538H296.619C300.032 236.322 303.445 227.277 306.859 218.402C310.272 209.528 313.856 200.994 317.44 192.802H329.728C333.312 201.506 336.896 210.381 340.309 219.256C343.723 228.13 347.136 236.834 350.379 245.709H337.92C336.555 241.784 335.36 238.029 334.165 234.274H312.832C311.296 237.858 309.931 241.613 308.736 245.538ZM315.733 224.546H330.581L326.997 214.306L323.243 204.237C320.683 211.064 318.123 217.72 315.733 224.546ZM291.328 235.64H266.24V192.632H254.805V245.368H291.157L291.328 235.64ZM320 308.856C322.219 312.44 324.267 316.024 326.485 319.608H313.344C309.76 313.122 306.176 306.808 302.421 300.493H293.376V319.608H282.112V266.872H301.397C308.395 266.872 313.685 268.408 317.44 271.309C321.195 274.381 323.243 278.989 323.072 283.768C323.413 290.253 319.488 296.056 313.515 298.445C315.733 301.688 317.781 305.272 320 308.856ZM311.467 283.597C311.637 281.208 310.613 278.989 308.736 277.624C306.347 276.258 303.616 275.576 300.885 275.746H293.376V291.448H300.715C303.445 291.618 306.347 290.936 308.736 289.57C310.613 288.205 311.637 285.986 311.467 283.597ZM373.76 293.154C377.173 302.029 380.587 310.733 383.829 319.608H371.371C370.005 315.682 368.811 311.928 367.616 308.173H346.112C344.747 311.928 343.552 315.853 342.357 319.608H330.24C333.653 310.392 337.067 301.346 340.48 292.472C343.893 283.597 347.477 275.064 351.061 266.872H363.349C366.763 275.576 370.176 284.28 373.76 293.154ZM364.203 298.616L360.619 288.376L356.693 278.306C354.133 285.133 351.573 291.789 349.184 298.616H364.203ZM390.144 228.813C386.389 222.669 382.464 216.525 378.539 210.552L366.763 192.632H355.157V245.368H366.08V208.845C369.835 214.648 373.76 220.621 377.685 226.765C381.611 232.909 385.536 239.053 389.291 245.197H400.725V192.461H389.803L390.144 228.813ZM185.344 244.685C178.347 247.245 170.667 247.245 163.669 244.685C160.597 243.49 157.696 241.613 155.477 239.224C153.088 236.664 151.381 233.762 150.187 230.52C147.797 223.181 147.797 215.16 150.187 207.65C151.381 204.408 153.088 201.506 155.477 198.946C157.867 196.557 160.597 194.68 163.669 193.485C170.667 190.925 178.347 190.925 185.344 193.485C188.416 194.68 191.317 196.557 193.536 198.946C195.925 201.506 197.632 204.408 198.827 207.65C201.216 214.989 201.216 223.01 198.827 230.52C197.632 233.762 195.925 236.664 193.536 239.224C191.317 241.613 188.416 243.49 185.344 244.685ZM187.221 228.642C189.44 222.498 189.44 215.672 187.221 209.528C186.197 207.138 184.491 204.92 182.272 203.554C177.493 200.824 171.52 200.824 166.741 203.554C164.523 204.92 162.816 207.138 161.792 209.528C159.573 215.672 159.573 222.498 161.792 228.642C162.816 231.032 164.523 233.25 166.741 234.616C171.52 237.346 177.493 237.346 182.272 234.616C184.491 233.08 186.197 231.032 187.221 228.642ZM456.704 218.914C456.875 223.864 455.68 228.813 453.632 233.25C451.584 237.176 448.512 240.248 444.587 242.296C440.149 244.514 435.2 245.538 430.251 245.368H410.112V192.632H430.251C435.2 192.461 440.149 193.485 444.587 195.704C448.512 197.752 451.584 200.824 453.632 204.578C455.851 209.186 456.875 214.136 456.704 218.914ZM444.928 218.914C444.928 213.624 443.563 209.528 441.003 206.626C438.443 203.725 434.688 202.36 429.739 202.36H421.547V235.64H429.739C434.005 235.981 438.101 234.274 441.003 231.373C443.563 228.472 444.928 224.376 444.928 218.914ZM212.139 292.13C215.04 287.864 217.941 283.768 220.672 279.501C223.403 275.234 226.133 270.968 228.864 266.872H215.552C214.016 269.773 212.309 272.674 210.603 275.576C208.896 278.477 207.189 281.208 205.312 284.109C203.435 281.378 201.728 278.477 200.021 275.576C198.315 272.674 196.608 269.773 195.072 266.872H181.589L189.781 279.672C192.512 283.938 195.413 288.205 198.485 292.301C195.243 296.909 192.171 301.346 189.099 305.954C186.027 310.562 183.125 315 180.224 319.608H193.365C195.072 316.365 196.949 313.122 198.997 309.88C201.045 306.637 202.923 303.394 205.141 300.152L211.285 309.88C213.333 313.122 215.211 316.365 216.917 319.778H230.4C227.499 315.17 224.597 310.562 221.525 305.954C218.453 301.176 215.211 296.568 212.139 292.13ZM232.448 276.77H249.173V319.608H260.608V276.6H277.163V266.701H232.619V276.77H232.448Z" fill="white"/>
</g>
<defs>
<clipPath id="clip0_2_75">
<rect width="512" height="512" fill="white" transform="translate(0 0.119385)"/>
</clipPath>
</defs>
</svg>
