<svg width="512" height="513" viewBox="0 0 512 513" fill="none" xmlns="http://www.w3.org/2000/svg">
<g clip-path="url(#clip0_2_81)">
<path d="M256 0.119385C397.312 0.119385 512 114.807 512 256.119C512 397.431 397.312 512.119 256 512.119C114.688 512.119 0 397.431 0 256.119C0 114.807 114.688 0.119385 256 0.119385Z" fill="#7826FC"/>
<path d="M58.0267 286.157C54.784 286.157 51.712 285.815 48.64 285.133C45.568 284.45 42.496 283.255 39.7653 281.89V270.797C45.2267 274.21 51.5413 276.087 58.0267 276.087C60.928 276.258 63.8293 275.575 66.3893 274.21C68.2667 273.186 69.2907 271.138 69.2907 269.09C69.2907 267.725 68.7787 266.189 67.9253 265.165C66.9013 264.141 65.536 263.458 64.1707 262.946C62.464 262.263 60.7573 261.751 58.88 261.41C55.9787 260.727 53.248 259.874 50.5173 258.85C48.2987 257.997 46.2507 256.802 44.3733 255.437C42.6667 254.242 41.472 252.535 40.6187 250.658C39.7653 248.61 39.2533 246.221 39.2533 244.002C39.0827 240.589 40.1067 237.346 41.984 234.615C44.032 231.885 46.7627 229.837 49.8347 228.471C53.76 226.935 57.856 226.253 61.952 226.253C65.024 226.253 68.096 226.594 70.9973 227.277C73.728 227.959 76.4587 228.813 79.0187 230.178V241.101C76.4587 239.565 73.8987 238.37 70.9973 237.687C68.096 236.834 65.024 236.493 61.952 236.493C59.2213 236.322 56.6613 237.005 54.272 238.199C52.5653 239.223 51.5413 241.101 51.5413 242.978C51.5413 244.343 51.8827 245.538 52.9067 246.562C53.9307 247.586 55.1253 248.269 56.6613 248.781C58.1973 249.293 60.0747 249.975 62.2933 250.487C65.024 251.17 67.584 252.023 69.9733 252.706C72.192 253.389 74.24 254.583 76.288 255.949C77.9947 257.143 79.5307 258.85 80.5547 260.898C81.5787 263.117 82.0907 265.677 82.0907 268.237C82.2613 271.65 81.2373 275.063 79.1893 277.965C77.1413 280.866 74.24 282.914 70.9973 284.109C66.7307 285.645 62.464 286.327 58.0267 286.157ZM116.395 286.157C112.128 286.157 108.032 285.474 104.107 284.109C100.693 282.914 97.4507 280.866 94.8907 278.135C92.3307 275.405 90.2827 272.162 89.088 268.578C87.7227 264.482 87.04 260.215 87.04 255.949C87.04 251.682 87.7227 247.586 89.088 243.49C91.648 236.322 97.4507 230.519 104.619 227.959C108.544 226.594 112.811 225.741 117.077 225.911C120.149 225.911 123.051 226.253 126.123 226.935C128.853 227.618 131.584 228.642 133.973 229.837V241.271C131.755 239.735 129.365 238.541 126.805 237.858C124.245 237.005 121.344 236.663 118.613 236.663C115.2 236.493 111.616 237.346 108.544 238.882C105.813 240.418 103.595 242.637 102.229 245.367C100.693 248.61 99.84 252.194 100.011 255.778C99.84 259.362 100.693 262.946 102.229 266.189C103.595 268.919 105.813 271.309 108.373 272.845C111.445 274.381 114.859 275.234 118.272 275.063C124.075 275.063 129.707 273.527 134.656 270.285V281.549C132.096 282.914 129.365 284.109 126.464 284.791C122.88 285.815 119.637 286.157 116.395 286.157ZM167.424 226.082C171.52 226.082 175.445 226.765 179.2 228.13C182.613 229.495 185.685 231.543 188.245 234.103C190.805 236.834 192.853 240.077 194.048 243.49C196.779 251.511 196.779 260.386 194.048 268.407C192.853 271.991 190.805 275.234 188.245 277.965C185.685 280.695 182.613 282.743 179.2 283.938C171.52 286.669 163.157 286.669 155.477 283.938C152.064 282.573 148.992 280.525 146.432 277.965C143.872 275.234 141.824 271.991 140.629 268.407C137.899 260.386 137.899 251.511 140.629 243.49C141.824 239.906 143.872 236.834 146.432 234.103C148.992 231.543 152.064 229.495 155.477 228.13C159.403 226.765 163.328 226.082 167.424 226.082ZM167.424 275.405C170.496 275.405 173.397 274.722 175.957 273.186C178.347 271.65 180.224 269.261 181.419 266.53C183.808 259.874 183.808 252.365 181.419 245.709C180.395 242.978 178.517 240.759 175.957 239.223C170.667 236.151 164.181 236.151 159.061 239.223C156.672 240.759 154.795 243.149 153.6 245.709C151.04 252.413 151.04 259.826 153.6 266.53C154.624 269.261 156.501 271.479 159.061 273.186C161.451 274.722 164.352 275.405 167.424 275.405ZM197.632 227.277H246.443V238.029H228.352V284.962H215.893V238.029H197.803L197.632 227.277ZM253.099 227.277H265.557V274.21H292.864V284.962H253.099V227.277ZM342.869 284.962C341.504 280.695 340.139 276.599 338.603 272.503H315.221C313.856 276.599 312.491 280.866 310.955 284.962H297.643C301.227 274.893 304.981 264.994 308.736 255.266C312.491 245.709 316.416 236.322 320.171 227.106H333.483C337.408 236.663 341.333 246.221 345.088 255.949C348.843 265.677 352.597 275.234 356.181 284.791H342.869V284.962ZM318.805 262.093H335.019C333.653 258.338 332.459 254.583 331.093 250.829C329.728 247.074 328.363 243.49 326.997 239.735C324.096 247.245 321.365 254.583 318.805 262.093ZM400.213 284.962C395.947 278.306 391.851 271.479 387.413 264.823C383.147 257.997 378.88 251.511 374.613 245.197V285.133H362.667V227.447H375.296C379.733 233.933 384 240.418 388.096 247.074C392.363 253.559 396.459 260.215 400.725 267.042V227.618H412.672V285.303H400.213V284.962ZM421.888 227.277H443.904C449.365 227.106 454.656 228.301 459.435 230.69C463.701 232.909 467.115 236.322 469.333 240.418C473.941 250.317 473.771 261.751 469.333 271.65C467.115 275.917 463.701 279.33 459.435 281.549C454.656 283.938 449.195 285.133 443.733 284.962H421.717L421.888 227.277ZM443.051 274.381C448.512 274.381 452.608 272.845 455.509 269.602C458.411 266.53 459.776 261.922 459.776 255.949C459.776 250.146 458.411 245.538 455.509 242.466C452.608 239.394 448.512 237.858 443.051 237.858H434.176V274.21L443.051 274.381Z" fill="white"/>
</g>
<defs>
<clipPath id="clip0_2_81">
<rect width="512" height="512" fill="white" transform="translate(0 0.119385)"/>
</clipPath>
</defs>
</svg>
