<svg width="512" height="513" viewBox="0 0 512 513" fill="none" xmlns="http://www.w3.org/2000/svg">
<g clip-path="url(#clip0_2_72)">
<path d="M512 256.119C512 397.431 397.312 512.119 256 512.119C114.688 512.119 0 397.431 0 256.119C0 114.807 114.688 0.119141 256 0.119141C397.312 0.119141 512 114.807 512 256.119Z" fill="#7826FC"/>
<path d="M57.0027 285.986C53.9307 285.986 50.688 285.645 47.616 284.962C44.544 284.279 41.472 283.085 38.7413 281.719V270.626C44.2027 274.039 50.5173 275.746 57.0027 275.746C59.904 275.917 62.8053 275.234 65.3653 273.869C67.2427 272.845 68.2667 270.797 68.2667 268.749C68.4373 267.383 67.9253 265.847 66.9013 264.823C65.8773 263.799 64.512 263.117 63.1467 262.605C61.44 261.922 59.7333 261.41 57.856 261.069C54.9547 260.386 52.224 259.533 49.4933 258.509C47.2747 257.655 45.2267 256.461 43.3493 255.095C41.8133 253.901 40.448 252.194 39.5947 250.317C38.7413 248.269 38.2293 246.05 38.2293 243.661C38.0587 240.247 39.0827 237.005 40.96 234.274C43.008 231.543 45.568 229.495 48.8107 228.301C52.5653 226.765 56.6613 226.082 60.7573 226.253C63.8293 226.253 66.7307 226.594 69.8027 227.277C72.5333 227.959 75.264 228.813 77.6533 230.007V240.93C75.0933 239.394 72.5333 238.199 69.632 237.517C66.7307 236.663 63.6587 236.322 60.7573 236.322C58.1973 236.151 55.4667 236.834 53.248 238.029C51.5413 239.053 50.5173 240.93 50.5173 242.807C50.5173 244.173 50.8587 245.367 51.8827 246.391C52.9067 247.415 54.1013 248.098 55.4667 248.61C57.0027 249.122 58.88 249.634 61.0987 250.317C63.8293 250.999 66.3893 251.853 68.7787 252.535C70.9973 253.218 73.0453 254.413 74.9227 255.778C76.6293 256.973 78.1653 258.679 79.0187 260.727C80.0427 262.946 80.5547 265.506 80.5547 268.066C80.7253 271.479 79.7013 274.893 77.824 277.794C75.776 280.525 73.0453 282.743 69.8027 283.938C65.7067 285.303 61.44 285.986 57.0027 285.986ZM127.488 284.791V260.215H102.571V284.791H90.2827V227.447H102.571V249.463H127.488V227.447H139.776V284.791H127.488ZM151.893 227.447H191.317V237.687H164.352V250.146H188.416V260.386H164.352V274.551H192.853V284.791H151.893V227.447ZM196.779 227.447H245.248V238.199H227.328V284.791H215.04V238.199H196.949L196.779 227.447ZM252.587 227.447H264.875V274.039H292.011V284.791H252.587V227.447ZM340.651 284.791C339.285 280.525 337.92 276.429 336.384 272.333H313.173C311.808 276.429 310.443 280.525 309.077 284.791H295.765C299.349 274.722 303.104 264.994 306.859 255.437C310.613 245.879 314.368 236.663 318.293 227.618H331.605C335.531 237.175 339.456 246.733 343.211 256.29C346.965 265.847 350.549 275.405 354.133 284.962L340.651 284.791ZM316.757 262.093H332.8C331.435 258.338 330.24 254.583 328.875 250.999C327.509 247.415 326.144 243.661 324.779 240.077C322.048 247.245 319.317 254.754 316.757 262.093ZM398.336 284.791C394.24 278.135 389.973 271.479 385.707 264.653C381.44 257.826 377.173 251.341 373.077 245.197V284.791H361.301V227.447H373.931L386.731 246.903C390.997 253.389 395.093 260.045 399.36 266.701V227.447H411.307V284.791H398.336ZM422.912 227.447H444.757C450.048 227.277 455.509 228.471 460.288 230.861C464.555 233.079 467.968 236.322 470.187 240.589C474.624 250.487 474.624 261.751 470.187 271.479C467.968 275.746 464.555 279.159 460.288 281.378C455.509 283.767 450.048 284.962 444.757 284.791H422.912V227.447ZM444.075 274.21C449.365 274.21 453.461 272.674 456.363 269.431C459.264 266.189 460.629 261.751 460.629 255.949C460.629 250.146 459.264 245.709 456.363 242.637C453.632 239.565 449.536 238.029 444.075 238.029H435.2V274.21H444.075Z" fill="white"/>
</g>
<defs>
<clipPath id="clip0_2_72">
<rect width="512" height="512" fill="white" transform="translate(0 0.119141)"/>
</clipPath>
</defs>
</svg>
