<svg width="512" height="513" viewBox="0 0 512 513" fill="none" xmlns="http://www.w3.org/2000/svg">
<g clip-path="url(#clip0_2_85)">
<path d="M256 0.119141C397.312 0.119141 512 114.807 512 256.119C512 397.431 397.312 512.119 256 512.119C114.688 512.119 0 397.431 0 256.119C0 114.807 114.688 0.119141 256 0.119141Z" fill="#258900"/>
<path d="M77.312 298.103C70.8267 298.274 64.512 296.908 58.7093 294.007C53.5893 291.276 49.4933 287.18 46.9333 282.06C44.032 276.258 42.6667 269.772 42.8373 263.287V215.671H60.2453V265.164C60.2453 270.967 61.7813 275.234 64.6827 278.306C67.584 281.378 71.8507 282.914 77.312 282.914C82.7733 282.914 87.04 281.378 89.9413 278.306C92.8427 275.234 94.3787 270.796 94.3787 265.164V215.671H111.787V263.287C111.957 269.772 110.592 276.258 107.691 282.06C104.96 287.18 100.864 291.276 95.744 294.007C90.112 296.908 83.6267 298.274 77.312 298.103ZM125.781 215.671H143.189V281.207H181.419V296.396H125.781V215.671ZM215.723 298.103C211.285 298.103 206.848 297.591 202.581 296.567C198.315 295.543 194.048 294.007 190.123 291.959V276.428C197.803 281.207 206.677 283.767 215.723 283.767C219.819 283.938 223.744 283.084 227.328 281.207C229.888 279.671 231.424 276.94 231.253 274.039C231.424 271.991 230.741 269.943 229.205 268.578C227.669 267.212 225.963 266.018 223.915 265.335C221.525 264.482 219.136 263.799 216.576 263.116C212.48 262.263 208.555 261.068 204.8 259.532C201.728 258.338 198.827 256.802 196.267 254.754C194.048 253.047 192.171 250.658 190.976 248.098C189.781 245.196 189.099 241.954 189.099 238.711C188.928 233.932 190.293 229.324 193.024 225.57C195.755 221.815 199.509 218.743 203.947 217.036C209.408 214.988 215.04 213.964 220.843 213.964C225.109 213.964 229.376 214.476 233.472 215.5C237.397 216.354 240.981 217.719 244.565 219.426V234.786C240.981 232.738 237.227 231.031 233.301 230.007C229.205 228.812 224.939 228.3 220.672 228.3C216.917 228.13 213.333 228.983 210.091 230.69C207.701 232.055 206.165 234.786 206.336 237.516C206.165 239.394 206.848 241.271 208.213 242.466C209.749 243.831 211.456 244.855 213.333 245.538C215.552 246.391 218.112 247.074 221.184 247.927C224.939 248.951 228.523 249.975 231.936 251.17C235.008 252.194 237.909 253.73 240.64 255.607C243.2 257.314 245.077 259.703 246.443 262.434C247.979 265.676 248.661 269.09 248.491 272.674C248.661 277.452 247.296 282.402 244.565 286.327C241.664 290.252 237.739 293.324 233.131 295.031C227.669 297.25 221.696 298.274 215.723 298.103ZM254.293 215.671H322.56V230.86H297.131V296.396H279.723V230.86H254.293V215.671ZM333.141 215.671H388.608V230.178H350.379V247.756H384.171V262.263H350.379V282.06H390.827V296.567H333.141V215.671ZM418.645 267.042V296.396H401.408V215.671H430.933C441.515 215.671 449.707 217.89 455.339 222.327C460.971 226.764 463.872 233.079 463.872 241.442C464.043 246.22 462.677 250.999 460.117 255.095C457.387 258.85 453.632 261.922 449.365 263.799C452.779 269.09 456.021 274.551 459.435 279.842C462.677 285.303 466.091 290.764 469.333 296.396H449.365C443.904 286.498 438.272 276.599 432.469 267.042H418.645ZM418.645 253.388H429.909C435.2 253.388 439.296 252.364 442.027 250.487C444.928 248.439 446.464 245.026 446.123 241.442C446.464 237.858 444.757 234.444 442.027 232.226C439.296 230.348 435.2 229.324 429.909 229.324H418.475V253.388H418.645Z" fill="white"/>
</g>
<defs>
<clipPath id="clip0_2_85">
<rect width="512" height="512" fill="white" transform="translate(0 0.119141)"/>
</clipPath>
</defs>
</svg>
