<svg width="512" height="513" viewBox="0 0 512 513" fill="none" xmlns="http://www.w3.org/2000/svg">
<g clip-path="url(#clip0_2_96)">
<path d="M256 512.119C397.385 512.119 512 397.504 512 256.119C512 114.734 397.385 0.119141 256 0.119141C114.615 0.119141 0 114.734 0 256.119C0 397.504 114.615 512.119 256 512.119Z" fill="#D44100"/>
<path d="M375.979 240.589H320.683V163.106H373.931V176.93H337.237V193.655H369.664V207.479H337.237V226.594H375.979V240.589ZM310.613 225.911H273.92V162.935H257.195V240.418H310.613V225.911ZM167.936 240.418C172.885 226.765 177.835 213.623 182.955 200.653C188.075 187.682 193.195 175.223 198.485 162.935H216.405C221.696 175.735 226.987 188.706 232.107 201.677C237.227 214.647 242.176 227.618 246.955 240.418H228.693C226.816 234.786 224.939 229.154 223.061 223.693H191.659C189.781 229.325 187.904 234.786 186.027 240.418H167.936ZM196.267 209.698H218.112C216.405 204.578 214.528 199.629 212.821 194.509C211.115 189.389 209.067 184.61 207.36 179.661C203.435 189.73 199.851 199.799 196.267 209.698ZM97.1093 316.194H129.536V302.37H97.1093V285.645H133.632V271.821H80.5546V349.303H135.851V335.479H97.1093V316.194ZM107.349 240.418C109.739 231.714 112.128 223.01 114.517 214.135C116.907 205.431 119.125 196.727 121.173 187.853C123.392 196.557 125.781 205.261 128 214.135C130.219 222.839 132.608 231.543 135.168 240.418H152.917C156.672 227.789 160.085 214.989 163.499 202.018C166.912 189.047 170.155 176.077 173.056 162.935H155.477C153.771 172.834 151.893 182.562 149.845 192.461C147.797 202.359 145.749 211.917 143.531 221.474C141.141 212.429 138.923 203.213 136.533 193.997L129.877 166.349H113.664C109.397 185.122 104.789 203.895 99.84 222.839C97.6213 213.111 95.4026 203.383 93.5253 193.314C91.4773 183.245 89.6 173.175 87.7226 163.277H69.4613C72.5333 176.418 75.776 189.389 79.0186 202.359C82.432 215.33 86.016 228.13 89.6 240.759L107.349 240.418ZM189.44 309.026C193.707 302.882 197.803 296.738 201.899 290.423C205.995 284.279 209.92 277.965 214.016 271.821H194.56C192.171 276.087 189.781 280.354 187.221 284.621C184.661 288.887 182.101 292.983 179.541 297.079C176.811 292.983 174.251 288.717 171.861 284.621C169.472 280.525 166.912 276.087 164.523 271.991H144.725C148.651 278.135 152.576 284.45 156.672 290.765C160.768 297.079 165.035 303.223 169.301 309.367C164.523 316.023 159.915 322.85 155.477 329.335C151.04 335.991 146.773 342.647 142.336 349.303H161.792C164.352 344.525 167.083 339.746 169.984 334.967C172.885 330.189 175.787 325.41 179.029 320.631C182.101 325.41 185.003 330.018 187.904 334.797C190.805 339.575 193.536 344.354 196.267 349.133H216.064C211.797 342.306 207.36 335.479 202.923 328.823C198.485 322.167 194.048 315.682 189.44 309.026ZM219.307 286.327H243.712V349.303H260.437V286.327H284.843V271.821H219.477L219.307 286.327ZM347.648 333.431C350.891 338.551 353.963 343.842 357.205 349.303H337.92C332.8 339.746 327.339 330.359 321.707 321.143H308.395V349.303H292.011V271.821H320.341C330.581 271.821 338.261 273.869 343.723 278.135C349.184 282.402 351.915 288.546 351.915 296.397C352.256 305.783 346.624 314.487 337.92 317.901C341.163 323.021 344.405 328.311 347.648 333.431ZM335.019 296.567C335.189 293.154 333.824 289.911 331.093 287.863C328.363 285.986 324.608 285.133 319.488 285.133H308.565V308.173H319.488C324.608 308.173 328.533 307.319 331.264 305.442C333.824 303.223 335.36 299.981 335.019 296.567ZM426.496 310.562C431.616 323.533 436.565 336.503 441.344 349.303H423.083C421.205 343.671 419.328 338.039 417.451 332.578H386.048C384.171 338.21 382.293 343.671 380.416 349.303H362.496C367.445 335.65 372.395 322.509 377.515 309.538C382.635 296.567 387.755 284.109 392.875 271.821H410.795C416.085 284.791 421.376 297.591 426.496 310.562ZM412.331 318.583C410.624 313.463 408.747 308.514 407.04 303.394C405.163 298.445 403.456 293.495 401.579 288.546C397.824 298.445 394.24 308.343 390.656 318.413H412.331V318.583ZM392.192 200.482C394.752 202.359 397.483 203.895 400.384 205.09C404.139 206.455 407.893 207.65 411.648 208.503C414.037 209.015 416.427 209.869 418.645 210.551C420.523 211.234 422.229 212.258 423.765 213.623C425.131 214.989 425.813 216.866 425.643 218.914C425.643 221.815 424.277 224.375 421.888 225.911C418.475 227.789 414.549 228.642 410.624 228.471C401.92 228.471 393.387 226.082 386.048 221.474V236.493C389.803 238.541 393.899 239.906 397.995 240.93C402.091 241.954 406.357 242.295 410.624 242.295C416.427 242.466 422.4 241.442 427.861 239.394C432.299 237.687 436.053 234.786 438.784 231.031C441.344 227.106 442.709 222.498 442.539 217.89C442.709 214.477 442.027 211.063 440.491 207.991C439.125 205.431 437.248 203.042 434.859 201.335C432.299 199.458 429.397 198.093 426.496 197.069C423.253 195.874 419.84 194.85 416.256 193.997C413.355 193.314 410.795 192.461 408.747 191.778C406.869 191.266 405.163 190.242 403.797 188.877C402.603 187.511 401.92 185.805 402.091 184.098C402.091 181.367 403.456 178.978 405.675 177.613C408.747 175.906 412.331 175.223 415.915 175.394C420.011 175.394 424.107 175.906 428.032 176.93C431.787 177.954 435.371 179.49 438.784 181.538V166.861C435.371 165.154 431.787 163.959 428.032 163.106C424.107 162.253 420.011 161.741 415.915 161.741C410.283 161.57 404.821 162.594 399.701 164.642C395.435 166.349 391.851 169.25 389.12 172.834C385.024 179.319 384.171 187.341 387.072 194.509C388.267 196.557 389.973 198.775 392.192 200.482Z" fill="white"/>
</g>
<defs>
<clipPath id="clip0_2_96">
<rect width="512" height="512" fill="white" transform="translate(0 0.119141)"/>
</clipPath>
</defs>
</svg>
