<svg width="512" height="513" viewBox="0 0 512 513" fill="none" xmlns="http://www.w3.org/2000/svg">
<g clip-path="url(#clip0_2_91)">
<path d="M256 0.119141C397.312 0.119141 512 114.807 512 256.119C512 397.431 397.312 512.119 256 512.119C114.688 512.119 0 397.431 0 256.119C0 114.807 114.688 0.119141 256 0.119141Z" fill="#D44100"/>
<path d="M125.099 299.127C122.368 289.399 119.637 279.671 117.077 270.114C114.517 260.386 111.957 250.658 109.397 241.101C107.008 250.829 104.448 260.557 101.888 270.114C99.328 279.842 96.5973 289.57 94.0373 299.127H74.5813C70.4853 285.133 66.56 270.967 62.8053 256.631C59.0507 242.295 55.4667 227.789 52.0533 213.282H72.192C74.24 224.375 76.288 235.639 78.5067 246.733C80.7253 257.826 83.1147 268.749 85.6747 279.501C90.9653 258.509 96.0853 237.687 100.864 216.866H118.955C121.344 227.106 123.904 237.346 126.293 247.586C128.853 257.826 131.413 268.066 133.973 278.135C136.363 267.554 138.752 256.802 140.971 245.879C143.189 234.957 145.237 224.034 147.285 213.111H167.253C163.84 227.618 160.256 242.125 156.501 256.461C152.747 270.797 148.821 284.962 144.725 298.957L125.099 299.127ZM227.669 299.127C225.621 292.813 223.573 286.669 221.355 280.525H186.539C184.491 286.669 182.443 292.983 180.224 299.127H160.427C165.888 284.109 171.349 269.431 177.152 254.925C182.784 240.589 188.587 226.594 194.219 213.111H214.187C220.16 227.447 225.963 241.783 231.595 256.119C237.227 270.455 242.688 284.791 247.979 299.127H227.669ZM191.829 264.994H216.064C214.187 259.362 212.139 253.73 210.091 248.269C208.043 242.637 205.995 237.175 203.947 231.885C199.851 242.807 195.755 253.901 191.829 264.994ZM256.853 213.111H275.285V282.914H316.075V298.957H256.853V213.111ZM325.803 213.111H385.024V228.471H344.405V247.074H380.416V262.434H344.405V283.597H387.243V298.957H325.803V213.111ZM424.448 300.834C419.669 300.834 415.061 300.322 410.453 299.298C405.845 298.274 401.408 296.567 397.141 294.349V277.794C405.333 282.914 414.72 285.645 424.448 285.645C429.909 285.645 434.005 284.791 436.907 282.914C439.637 281.378 441.173 278.306 441.173 275.234C441.344 273.186 440.491 270.967 439.125 269.431C437.589 267.895 435.541 266.701 433.493 266.018C430.933 265.165 428.373 264.311 425.643 263.629C421.376 262.605 417.28 261.41 413.184 259.703C409.941 258.509 406.699 256.802 403.968 254.583C401.579 252.706 399.531 250.317 398.336 247.415C396.971 244.343 396.288 240.93 396.459 237.517C396.288 232.567 397.824 227.618 400.555 223.522C403.456 219.426 407.552 216.354 412.331 214.477C418.133 212.258 424.277 211.063 430.421 211.234C435.029 211.234 439.467 211.746 443.904 212.77C448 213.794 452.096 215.159 455.851 217.037V233.421C452.096 231.202 448.171 229.495 443.904 228.301C439.467 227.106 435.029 226.423 430.421 226.423C426.496 226.253 422.571 227.106 418.987 228.983C416.427 230.519 414.891 233.25 414.891 236.151C414.72 238.029 415.403 240.077 416.768 241.442C418.304 242.978 420.181 244.002 422.229 244.685C424.96 245.709 427.691 246.391 430.592 247.074C434.688 248.098 438.443 249.293 442.027 250.487C445.269 251.682 448.512 253.218 451.413 255.266C454.144 257.143 456.192 259.703 457.728 262.605C459.264 266.018 460.117 269.773 459.947 273.527C460.117 278.818 458.581 283.938 455.68 288.205C452.608 292.471 448.512 295.714 443.563 297.421C437.419 299.981 430.933 301.005 424.448 300.834Z" fill="white"/>
</g>
<defs>
<clipPath id="clip0_2_91">
<rect width="512" height="512" fill="white" transform="translate(0 0.119141)"/>
</clipPath>
</defs>
</svg>
