<svg width="512" height="513" viewBox="0 0 512 513" fill="none" xmlns="http://www.w3.org/2000/svg">
<g clip-path="url(#clip0_2_30)">
<path d="M256 0.119385C397.44 0.119385 512 114.679 512 256.119C512 397.559 397.44 512.119 256 512.119C114.56 512.119 0 397.559 0 256.119C0 114.679 114.56 0.119385 256 0.119385Z" fill="#B80000"/>
<path d="M134.4 248.013C132.053 239.906 129.92 232.013 127.787 223.906C125.653 215.799 123.52 207.906 121.387 199.799C119.467 207.906 117.333 215.799 115.2 223.906C113.067 232.013 110.933 239.906 108.587 248.013H92.3734C88.96 236.493 85.76 224.546 82.56 212.813C79.36 200.866 76.5867 188.919 73.6 176.759H90.24C91.9467 185.933 93.6534 195.319 95.5733 204.493C97.4934 213.666 99.4133 222.839 101.547 231.799C106.027 214.519 110.293 197.239 114.133 179.959H129.067C130.987 188.493 133.12 197.026 135.253 205.346C137.387 213.879 139.52 222.199 141.653 230.733C143.573 221.986 145.493 213.026 147.413 204.066C149.333 195.106 151.04 185.933 152.533 176.973H168.96C166.187 189.133 163.2 201.079 160 213.026C156.8 224.973 153.6 236.706 150.187 248.226H134.4V248.013ZM205.867 175.266C210.773 175.266 215.893 176.119 220.373 177.826C224.64 179.533 228.48 182.093 231.467 185.293C234.667 188.706 237.013 192.546 238.507 197.026C241.92 207.053 241.92 217.719 238.507 227.746C237.013 232.013 234.453 236.066 231.467 239.479C228.267 242.679 224.427 245.239 220.373 246.946C210.987 250.359 200.533 250.359 191.147 246.946C186.88 245.239 183.04 242.679 180.053 239.479C176.853 236.066 174.507 232.013 173.013 227.746C169.6 217.791 169.6 206.982 173.013 197.026C174.507 192.759 177.067 188.706 180.053 185.293C183.253 182.093 187.093 179.533 191.147 177.826C196.053 176.119 200.96 175.266 205.867 175.266ZM205.867 236.066C209.493 236.066 213.12 235.213 216.32 233.293C219.307 231.373 221.653 228.386 222.933 225.186C225.92 216.866 225.92 207.693 222.933 199.586C221.653 196.173 219.307 193.399 216.32 191.479C209.92 187.853 201.813 187.853 195.413 191.479C192.427 193.399 190.08 196.173 188.8 199.586C185.813 207.906 185.813 217.079 188.8 225.186C190.08 228.599 192.427 231.373 195.413 233.293C198.613 235.213 202.24 236.279 205.867 236.066ZM264.747 222.199V248.013H249.6V176.759H275.627C285.013 176.759 292.267 178.679 297.173 182.733C302.293 186.786 305.067 192.973 304.64 199.586C304.853 203.853 303.573 208.119 301.227 211.746C298.88 215.159 295.467 217.933 291.627 219.426C294.613 224.119 297.6 228.813 300.587 233.719C303.573 238.413 306.347 243.319 309.333 248.226H291.627C286.933 239.479 281.813 230.733 276.693 222.413H264.747V222.199ZM264.747 210.039H274.773C278.613 210.253 282.24 209.399 285.44 207.479C288 205.559 289.28 202.573 289.067 199.373C289.28 196.173 288 193.186 285.44 191.266C282.24 189.346 278.4 188.493 274.773 188.706H264.747V210.039ZM317.227 176.759H332.587V234.573H366.293V248.013H317.227V176.759ZM375.467 176.759H402.56C409.173 176.546 415.787 178.039 421.76 181.026C426.88 183.799 431.147 187.853 433.92 193.186C439.467 205.346 439.467 219.426 433.92 231.586C431.147 236.919 426.88 241.186 421.76 243.746C415.787 246.733 409.173 248.226 402.347 248.013H375.467V176.759ZM401.707 234.786C408.32 234.786 413.44 232.866 417.067 229.026C420.693 225.186 422.4 219.639 422.4 212.173C422.4 204.919 420.693 199.373 417.067 195.533C413.653 191.693 408.533 189.773 401.707 189.773H390.613V234.786H401.707ZM82.3467 336.973C78.5067 336.973 74.4534 336.546 70.8267 335.693C66.9867 334.839 63.36 333.346 59.7334 331.639V317.986C66.56 322.253 74.4533 324.386 82.3467 324.386C85.9734 324.599 89.6 323.746 92.5867 322.039C94.9334 320.759 96.2133 318.199 96.2133 315.639C96.2133 313.933 95.7867 312.013 94.5067 310.733C93.2267 309.453 91.52 308.599 89.8134 307.959C87.68 307.106 85.5467 306.466 83.4133 306.039C79.7867 305.186 76.3734 304.119 72.96 302.839C70.1867 301.773 67.6267 300.279 65.4934 298.573C63.5734 297.079 61.8667 294.946 60.8 292.599C59.7334 290.039 59.0933 287.266 59.3067 284.279C59.0933 280.226 60.3734 275.959 62.72 272.546C65.28 269.133 68.48 266.573 72.5334 265.079C77.2267 263.159 82.3467 262.306 87.4667 262.519C91.3067 262.519 94.9334 262.946 98.56 263.799C101.973 264.653 105.387 265.719 108.373 267.213V280.866C105.387 278.946 101.973 277.666 98.56 276.599C94.9334 275.533 91.3067 275.106 87.4667 275.106C84.2667 274.893 80.8533 275.746 78.08 277.239C75.9467 278.519 74.6667 280.866 74.6667 283.213C74.6667 284.919 75.0934 286.413 76.16 287.693C77.44 288.973 78.9334 289.826 80.64 290.466C82.56 291.106 84.9067 291.746 87.4667 292.599C90.88 293.453 94.08 294.306 96.8534 295.373C99.6267 296.226 102.187 297.719 104.533 299.213C106.667 300.706 108.587 302.839 109.653 305.186C110.933 307.959 111.573 311.159 111.573 314.359C111.787 318.626 110.507 322.893 108.16 326.519C105.6 329.933 102.187 332.706 98.1334 334.199C93.0134 336.119 87.68 336.973 82.3467 336.973ZM118.827 264.226H167.893V277.026H134.187V292.386H164.053V305.186H134.187V322.679H169.813V335.479H118.827V264.226ZM192.853 309.453V335.266H177.707V264.013H203.733C213.12 264.013 220.373 265.933 225.28 269.986C230.4 274.039 233.173 280.226 232.747 286.839C232.96 291.106 231.68 295.373 229.333 298.999C226.987 302.413 223.573 305.186 219.733 306.679C222.72 311.373 225.707 316.066 228.693 320.973C231.68 325.666 234.453 330.573 237.44 335.479H219.733C215.04 326.733 209.92 317.986 204.8 309.666L192.853 309.453ZM192.853 297.506H202.88C206.72 297.719 210.347 296.866 213.547 294.946C216.107 293.026 217.387 290.039 217.173 286.839C217.387 283.639 216.107 280.653 213.547 278.733C210.347 276.813 206.507 275.959 202.88 276.173H192.853V297.506ZM305.067 264.226C300.8 276.173 296.32 287.906 291.84 299.853C287.36 311.799 282.667 323.533 277.973 335.479H261.333C256.64 323.746 251.947 311.799 247.467 299.853C242.987 287.906 238.507 276.173 234.24 264.226H251.093C254.08 273.613 257.28 282.786 260.267 291.959C263.467 301.133 266.667 310.519 269.867 319.693C273.067 310.519 276.267 301.133 279.467 291.959C282.667 282.786 285.653 273.399 288.64 264.226H305.067ZM311.68 264.226H327.04V335.479H311.68V264.226ZM371.2 336.973C366.08 336.973 360.747 336.119 356.053 334.413C351.787 332.919 347.733 330.359 344.533 327.159C341.333 323.746 338.773 319.906 337.28 315.426C335.573 310.306 334.72 305.186 334.72 299.853C334.72 294.733 335.573 289.399 337.28 284.493C340.48 275.533 347.52 268.493 356.48 265.293C361.387 263.586 366.507 262.733 371.84 262.733C375.68 262.733 379.307 263.159 382.933 264.013C386.347 264.866 389.547 265.933 392.747 267.639V281.719C389.973 279.799 386.987 278.519 383.787 277.453C380.587 276.386 377.173 275.959 373.76 275.959C369.493 275.746 365.227 276.813 361.387 278.733C357.973 280.653 355.2 283.426 353.493 286.839C351.573 290.893 350.72 295.159 350.72 299.639C350.507 304.119 351.573 308.599 353.28 312.439C354.987 315.853 357.547 318.626 360.96 320.546C364.8 322.466 368.853 323.533 373.12 323.319C380.373 323.319 387.413 321.399 393.387 317.346V331.213C390.187 332.919 386.773 334.199 383.147 335.053C379.52 336.546 375.467 336.973 371.2 336.973ZM401.92 264.226H450.987V277.026H417.28V292.386H447.147V305.186H417.28V322.679H452.907V335.479H401.92V264.226Z" fill="white"/>
</g>
<defs>
<clipPath id="clip0_2_30">
<rect width="512" height="512" fill="white" transform="translate(0 0.119385)"/>
</clipPath>
</defs>
</svg>
